<?xml version="1.0" encoding="UTF-8" standalone="no" ?>
<!DOCTYPE svg PUBLIC "-//W3C//DTD SVG 1.1//EN" "http://www.w3.org/Graphics/SVG/1.1/DTD/svg11.dtd">
<svg xmlns="http://www.w3.org/2000/svg" xmlns:xlink="http://www.w3.org/1999/xlink" version="1.1" width="60" height="150" viewBox="0 0 60 150" xml:space="preserve">
<desc>Created with Fabric.js 5.3.0</desc>
<defs>
</defs>
<g transform="matrix(0 1 -1 0 30 75)"  >
<path style="stroke: none; stroke-width: 1; stroke-dasharray: none; stroke-linecap: butt; stroke-dashoffset: 0; stroke-linejoin: miter; stroke-miterlimit: 4; fill: rgb(0,0,0); fill-rule: nonzero; opacity: 1;"  transform=" translate(-29.3, 20.25)" d="M 10.5 0 L 3.15 0 L 3.15 -40.5 L 10.5 -40.5 L 10.5 -23.55 L 18.75 -23.55 L 18.75 -40.5 L 26.15 -40.5 L 26.15 0 L 18.75 0 L 18.75 -18.3 L 10.5 -18.3 L 10.5 0 Z M 39.8 0 L 32.45 0 L 32.45 -40.5 L 39.8 -40.5 L 39.8 -23.55 L 48.05 -23.55 L 48.05 -40.5 L 55.45 -40.5 L 55.45 0 L 48.05 0 L 48.05 -18.3 L 39.8 -18.3 L 39.8 0 Z" stroke-linecap="round" />
</g>
</svg>