<svg width="77" height="77" viewBox="0 0 77 77" fill="none" xmlns="http://www.w3.org/2000/svg">
<path fill-rule="evenodd" clip-rule="evenodd" d="M43.7965 0.714905C44.2072 0.714905 44.5446 1.05228 44.5446 1.463C44.5446 1.87372 44.2072 2.21109 43.7965 2.21109C43.3858 2.21109 43.0484 1.87372 43.0484 1.463C43.0484 1.05228 43.3858 0.714905 43.7965 0.714905ZM30.5873 1.36031C31.3208 1.36031 31.9149 1.95441 31.9149 2.68784C31.9149 3.42128 31.3208 4.01536 30.5873 4.01536C29.8539 4.01536 29.2598 3.42128 29.2598 2.68784C29.2598 1.95441 29.8539 1.36031 30.5873 1.36031ZM38.0537 5.15217C38.4644 5.15217 38.8018 5.48954 38.8018 5.90026C38.8018 6.31098 38.4644 6.64838 38.0537 6.64838C37.643 6.64838 37.3056 6.31098 37.3056 5.90026C37.3056 5.48954 37.643 5.15217 38.0537 5.15217ZM51.6516 4.42608C52.385 4.42608 52.9791 5.02016 52.9791 5.75359C52.9791 6.48702 52.385 7.0811 51.6516 7.0811C50.9181 7.0811 50.324 6.48702 50.324 5.75359C50.324 5.02016 50.9181 4.42608 51.6516 4.42608ZM17.7889 8.18125C18.1997 8.18125 18.537 8.51862 18.537 8.92935C18.537 9.34007 18.1997 9.67746 17.7889 9.67746C17.3782 9.67746 17.0408 9.34007 17.0408 8.92935C17.0408 8.51862 17.3782 8.18125 17.7889 8.18125ZM43.1437 9.28874C43.0631 9.40609 42.9677 9.51609 42.865 9.61878C42.8284 9.65545 42.7843 9.69211 42.7403 9.72879C42.8944 9.8608 43.0264 10.0075 43.1437 10.1688C43.2097 10.0662 43.2831 9.97083 43.3638 9.88282C43.4151 9.83148 43.4738 9.78013 43.5325 9.72879C43.4738 9.67745 43.4151 9.62612 43.3638 9.56011C43.2831 9.4721 43.2097 9.37674 43.1511 9.27406L43.1437 9.28874ZM56.4629 11.4597C56.8736 11.4597 57.211 11.7971 57.211 12.2078C57.211 12.6185 56.8736 12.9559 56.4629 12.9559C56.0522 12.9559 55.7148 12.6185 55.7148 12.2078C55.7148 11.7971 56.0522 11.4597 56.4629 11.4597ZM64.868 12.2078C65.2788 12.2078 65.6161 12.5452 65.6161 12.9559C65.6161 13.3666 65.2788 13.704 64.868 13.704C64.4573 13.704 64.1199 13.3666 64.1199 12.9559C64.1199 12.5452 64.4573 12.2078 64.868 12.2078ZM43.1437 5.60689C42.5937 5.61423 42.4763 6.96376 42.4616 7.13245C42.447 7.30847 42.4176 7.5065 42.3736 7.70452C42.3003 8.04924 42.1756 8.4086 41.9262 8.65064C41.8015 8.77532 41.6035 8.84866 41.4202 8.9C41.2661 8.94401 41.0314 9.00268 40.7967 9.06136C40.4814 9.14204 39.7773 9.36207 39.7773 9.68478C39.7773 10.0075 40.584 10.2862 41.0021 10.4036C41.3542 10.5062 41.6989 10.6163 41.8456 10.7263C42.1389 10.9536 42.2856 11.3204 42.3736 11.6724C42.4323 11.8924 42.4616 12.1858 42.4763 12.4352C42.491 12.7139 42.6817 14.2101 43.1437 14.2247C43.5985 14.2394 43.8552 12.7212 43.8918 12.4058C43.9138 12.1711 43.9505 11.9071 43.9945 11.7091C44.0679 11.3717 44.1632 11.0196 44.3539 10.8143C44.5739 10.5869 45.0066 10.4549 45.3514 10.3742C45.5641 10.3229 46.5102 10.0368 46.5102 9.67012C46.5102 9.3034 45.5421 9.0907 45.2927 9.0467C44.9626 8.98802 44.5813 8.88535 44.3832 8.66532C44.1559 8.40862 44.0385 8.03455 43.9652 7.68984C43.9138 7.46248 43.8845 7.23512 43.8698 7.05176C43.8552 6.91241 43.7085 5.59222 43.1657 5.59955L43.1437 5.60689ZM11.7308 11.5917C12.4642 11.5917 13.0583 12.1858 13.0583 12.9192C13.0583 13.6527 12.4642 14.2467 11.7308 14.2467C10.9973 14.2467 10.4033 13.6527 10.4033 12.9192C10.4033 12.1858 10.9973 11.5917 11.7308 11.5917ZM34.7899 12.6332C35.5234 12.6332 36.1174 13.2273 36.1174 13.9607C36.1174 14.6941 35.5234 15.2882 34.7899 15.2882C34.0565 15.2882 33.4624 14.6941 33.4624 13.9607C33.4624 13.2273 34.0565 12.6332 34.7899 12.6332ZM55.0547 17.0705C54.996 17.1438 54.9373 17.2172 54.8713 17.2832C54.8567 17.2978 54.842 17.3125 54.8273 17.3272C54.908 17.4005 54.9887 17.4885 55.0547 17.5765C55.0987 17.5179 55.1427 17.4592 55.194 17.4078C55.2234 17.3785 55.2454 17.3565 55.2747 17.3272C55.2454 17.2978 55.216 17.2685 55.1867 17.2392C55.1427 17.1878 55.0987 17.1291 55.0547 17.0778V17.0705ZM47.603 15.765C48.3364 15.765 48.9305 16.359 48.9305 17.0925C48.9305 17.8259 48.3364 18.42 47.603 18.42C46.8696 18.42 46.2755 17.8259 46.2755 17.0925C46.2755 16.359 46.8696 15.765 47.603 15.765ZM25.5707 9.42076C24.6539 10.3889 24.0891 11.6944 24.0891 13.1246C24.0891 15.831 26.0914 18.0679 28.6951 18.4493C28.255 18.5813 27.793 18.6547 27.3089 18.6547C24.6685 18.6547 22.5269 16.5131 22.5269 13.8727C22.5269 11.8484 23.7884 10.1175 25.5707 9.42076ZM31.9955 17.8112C32.2009 17.5692 32.5309 16.7184 32.3402 16.469C32.1496 16.2197 31.4748 16.6377 31.1888 16.7771C30.668 17.0265 30.0813 17.1658 29.4579 17.1658C27.2356 17.1658 25.424 15.3616 25.424 13.1319C25.424 11.2103 26.7662 9.6041 28.5631 9.20071C28.8711 9.12737 29.5752 8.98069 29.5752 8.65798C29.5752 8.3426 28.8638 7.94655 28.5557 7.88054C28.1524 7.79253 27.727 7.74853 27.3016 7.74853C23.9204 7.74853 21.1774 10.4916 21.1774 13.8727C21.1774 17.2538 23.9204 19.9969 27.3016 19.9969C29.1865 19.9969 30.8661 19.1461 31.9882 17.8112H31.9955ZM14.8772 19.8428C14.8259 19.9015 14.7745 19.9602 14.7232 20.0042C14.7012 20.0262 14.6792 20.0409 14.6645 20.0555C14.7305 20.1142 14.7892 20.1876 14.8405 20.2536C14.8625 20.2242 14.8919 20.1949 14.9212 20.1656C14.9652 20.1215 15.0092 20.0775 15.0532 20.0409C15.0092 19.9969 14.9652 19.9528 14.9285 19.9015C14.9139 19.8795 14.8919 19.8575 14.8772 19.8355V19.8428ZM9.08308 19.3735C9.4938 19.3735 9.83119 19.7108 9.83119 20.1215C9.83119 20.5323 9.4938 20.8696 9.08308 20.8696C8.67236 20.8696 8.33498 20.5323 8.33498 20.1215C8.33498 19.7108 8.67236 19.3735 9.08308 19.3735ZM55.0474 13.3519C54.4459 13.3519 54.3653 15.1709 54.2919 15.5156C54.2259 15.8016 54.1306 16.1097 53.9252 16.3077C53.8225 16.4104 53.6612 16.4617 53.5145 16.5057C53.2138 16.6011 51.7176 16.8064 51.6956 17.2685C51.6736 17.7305 53.0671 17.9873 53.2871 18.0386C53.4925 18.0899 53.7272 18.1559 53.8519 18.2586C54.1012 18.4493 54.2112 18.7574 54.2846 19.0434C54.3873 19.4395 54.4753 21.1997 55.0327 21.2217C55.5828 21.2437 55.7735 19.4688 55.8541 19.0727C55.9128 18.794 55.9935 18.4933 56.1548 18.3246C56.2869 18.1853 56.4702 18.1046 56.6316 18.0459C56.8443 17.9799 58.2598 17.6059 58.2598 17.2538C58.2598 16.7698 56.8149 16.6231 56.6536 16.5864C56.4996 16.5497 56.3162 16.4764 56.1768 16.3224C55.9861 16.1097 55.8908 15.7943 55.8321 15.5009C55.7588 15.1489 55.6488 13.3446 55.0474 13.3446V13.3519ZM69.342 20.877C70.0754 20.877 70.6695 21.4711 70.6695 22.2045C70.6695 22.9379 70.0754 23.532 69.342 23.532C68.6085 23.532 68.0145 22.9379 68.0145 22.2045C68.0145 21.4711 68.6085 20.877 69.342 20.877ZM14.1731 17.5105C14.1071 18.1046 14.1438 18.1119 14.0704 18.4346C14.0191 18.6547 13.9531 18.882 13.8137 19.0214C13.513 19.3001 12.6182 19.4174 12.4055 19.4981C12.1048 19.6155 11.8114 19.7842 11.8041 19.9749C11.7968 20.1729 12.0902 20.3563 12.3909 20.4956C12.5816 20.5763 13.3957 20.7743 13.6524 20.965C13.8357 21.097 13.9457 21.317 14.0191 21.5151C14.0924 21.7058 14.1364 21.8965 14.1584 22.0285C14.1804 22.1605 14.4592 23.5613 14.8845 23.554C15.2733 23.554 15.5226 22.0945 15.5373 21.9625C15.5593 21.7278 15.64 21.3684 15.8967 21.1117C16.2047 20.789 16.9308 20.6056 17.0408 20.5469C17.3122 20.4076 17.5689 20.1949 17.5469 19.9602C17.5322 19.7475 17.2755 19.5568 17.0115 19.4468C16.8721 19.3881 16.1974 19.3294 15.9847 19.0654C15.5813 18.5667 15.728 18.5447 15.53 17.5472C15.3906 16.8358 15.2366 16.271 14.8772 16.2564C14.5178 16.2417 14.2905 16.5791 14.1878 17.5032L14.1731 17.5105ZM25.0939 22.7839C25.512 22.7839 25.842 23.1213 25.842 23.532C25.842 23.9427 25.5047 24.2801 25.0939 24.2801C24.6832 24.2801 24.3458 23.9427 24.3458 23.532C24.3458 23.1213 24.6832 22.7839 25.0939 22.7839ZM57.0056 23.2826C57.4237 23.2826 57.7537 23.62 57.7537 24.0307C57.7537 24.4415 57.4163 24.7789 57.0056 24.7789C56.5949 24.7789 56.2575 24.4415 56.2575 24.0307C56.2575 23.62 56.5949 23.2826 57.0056 23.2826ZM2.86357 26.1504C3.27429 26.1504 3.61166 26.4877 3.61166 26.8985C3.61166 27.3092 3.27429 27.6466 2.86357 27.6466C2.45285 27.6466 2.11546 27.3092 2.11546 26.8985C2.11546 26.4877 2.45285 26.1504 2.86357 26.1504ZM42.8724 20.3049C42.535 21.8011 41.9849 24.0894 41.6989 24.6395C41.4055 25.2042 40.9068 26.099 40.628 26.6051L42.3736 29.0328C42.513 29.2235 42.535 29.4728 42.447 29.6855L41.9629 30.8297L44.5739 33.1033L45.2707 30.2136C45.3074 30.0669 45.3954 29.9349 45.5127 29.8395C46.2315 29.2895 46.6349 28.9081 47.4417 27.5585C47.5517 27.3752 47.7277 27.1698 47.9257 26.9498C48.0137 26.8545 48.1091 26.7444 48.1971 26.6418C47.9404 26.4144 47.6543 26.121 47.3243 25.747C46.8622 25.2189 46.3195 24.5148 45.7108 23.5907C45.6594 23.51 45.5494 23.3927 45.4247 23.2533C44.904 22.6886 44.0679 21.8598 43.8625 21.5811C43.4811 21.053 43.1511 20.6276 42.8797 20.2976L42.8724 20.3049ZM64.4573 25.5563L64.626 27.3385C64.67 27.9106 64.8754 28.4167 64.8754 28.7981C64.8754 29.0768 64.8093 29.3115 64.67 29.5242C64.4793 29.8102 64.1419 30.1476 63.8486 30.4556C63.8192 30.4923 63.7825 30.529 63.7459 30.5656C63.9512 30.7343 64.2079 30.9323 64.5233 31.1597C64.8607 31.4017 65.2568 31.6805 65.7408 31.9885C66.6209 32.5606 67.1784 32.9786 67.6917 33.3087C67.8384 33.404 67.9778 33.492 68.1245 33.5727L69.2906 32.5753C69.4153 32.4652 69.584 32.4065 69.7527 32.4212C69.7527 32.4212 70.8455 32.5606 71.931 32.7439C72.173 32.7879 72.4224 32.8319 72.6498 32.8759C72.5031 32.7366 72.3344 32.5826 72.1584 32.4066C71.3809 31.5851 70.7062 31.013 69.9801 30.2796C69.6867 29.9789 69.386 29.6562 69.0633 29.2821C68.7186 28.8714 68.3959 28.5927 68.0805 28.3653C67.4351 27.8959 66.8263 27.6466 66.1662 27.1185C65.8142 26.8398 65.3521 26.4217 64.8974 25.9817C64.7507 25.8423 64.5967 25.6956 64.4573 25.5563ZM17.5102 25.8497C17.5102 25.9083 17.5029 25.9597 17.4956 26.0184C17.4736 26.3117 17.4369 26.6491 17.3855 26.9938C17.3489 27.2358 17.3195 27.4926 17.2975 27.7346C17.2389 28.336 17.2095 28.9081 17.1655 29.3555C17.1582 29.3701 17.1215 29.4362 17.0995 29.4728C17.0115 29.6048 16.8795 29.7442 16.7255 29.8982C16.2487 30.3896 15.5593 30.9763 14.8919 31.6144C14.8699 31.6144 14.8479 31.6291 14.8332 31.6291C14.0558 31.8051 12.0535 31.9812 12.0535 31.9812C11.8995 31.9958 11.7601 32.0618 11.6501 32.1645C11.6501 32.1645 11.3641 32.4652 10.9973 32.8833C10.7993 33.1033 10.5866 33.36 10.3739 33.6241C9.75784 34.3942 9.19309 35.1789 9.19309 35.1789C9.09775 35.2743 9.09775 35.4283 9.19309 35.5163C9.28844 35.6117 9.43513 35.6117 9.53048 35.5163C9.53048 35.5163 10.3152 34.9516 11.0854 34.3355C11.3494 34.1228 11.6061 33.9101 11.8261 33.7121C12.0462 33.5214 12.2295 33.3453 12.3615 33.228C12.8456 33.1987 14.0191 33.118 14.7599 33.008C15.0972 32.9566 15.3539 32.8906 15.486 32.8319C15.6033 32.7806 15.6913 32.7146 15.7427 32.6633C16.5861 31.8492 17.4882 31.1157 17.987 30.5436C18.317 30.1622 18.4857 29.8029 18.5224 29.5242L18.7351 27.1772C18.7424 27.1185 18.7497 27.0525 18.7571 26.9938C18.9844 27.2725 19.2118 27.4999 19.3952 27.6246C19.8132 27.9106 20.1873 28.1746 20.6053 28.5193C20.9354 28.7907 21.2948 29.1134 21.7275 29.5242C22.7983 30.5583 23.4804 31.2697 24.0745 31.8198C24.2358 31.9738 24.3972 32.1058 24.5512 32.2379C24.5439 32.2379 24.5365 32.2452 24.5292 32.2525C24.1331 32.4726 23.6784 32.6266 23.2897 32.7879C22.8643 32.964 22.4976 33.162 22.2482 33.4187C22.1162 33.5507 22.0135 33.7194 21.9182 33.9101C21.8375 34.0714 21.7788 34.2695 21.6101 34.4308C21.4634 34.5702 21.2361 34.6655 20.862 34.7022C20.6127 34.7389 20.3413 34.7829 20.0846 34.8782C19.9232 34.9369 19.7692 35.0029 19.6152 35.0909C19.4612 35.1789 19.3145 35.2596 19.1825 35.3549C18.9331 35.531 18.7497 35.6923 18.5957 35.8537C18.4784 35.9197 18.4417 36.0664 18.5077 36.1837C18.5737 36.3011 18.7204 36.3378 18.8377 36.2717C18.9991 36.2277 19.1825 36.2131 19.3952 36.1764C19.5712 36.1471 19.7545 36.1251 19.9452 36.1031C20.0846 36.0811 20.2313 36.0737 20.3706 36.0517C20.576 36.0224 20.774 35.993 20.972 35.993C21.5294 35.9637 21.9182 35.8244 22.2115 35.6557C22.5783 35.443 22.7983 35.1569 22.9596 34.8782C23.0697 34.6949 23.1063 34.4968 23.2237 34.3868C23.363 34.2475 23.5831 34.1595 23.8251 34.0568C24.2652 33.8734 24.7712 33.6974 25.2113 33.4407C25.5633 33.2353 25.886 32.986 26.1281 32.6706C26.1574 32.6412 26.1868 32.6046 26.2161 32.5606C26.2161 32.5606 26.6121 31.9665 27.1255 31.2551C27.4189 30.8443 27.7636 30.4043 28.0863 30.0156C28.4531 29.5755 29.3992 28.7467 30.0153 28.116C30.2353 27.8886 30.4113 27.6906 30.5287 27.5292L31.7902 25.8863C32.0762 26.0697 32.2376 26.2677 32.4429 26.3924C32.597 26.4877 32.7656 26.5684 32.9783 26.6198C33.4771 26.7371 33.9171 27.0305 34.2472 27.1552C34.2839 27.1698 34.3132 27.1772 34.3499 27.1918C34.4159 27.3459 34.4819 27.4705 34.5479 27.5879C34.7386 27.9179 34.9439 28.116 35.1713 28.49C35.3987 28.8714 35.7581 29.3848 36.1174 29.8175C36.3375 30.0816 36.5575 30.3163 36.7555 30.4923C36.8215 30.7417 36.9462 31.167 37.1516 31.6438C37.2323 31.8271 37.3129 32.0178 37.423 32.2012C37.5403 32.4066 37.665 32.5973 37.819 32.7806C37.9804 32.9786 38.1344 33.1326 38.3104 33.294C38.3764 33.4114 38.5231 33.448 38.6404 33.382C38.7578 33.316 38.7945 33.1693 38.7211 33.052C38.6698 32.8393 38.6478 32.6339 38.6038 32.4066C38.5598 32.1939 38.5231 31.9885 38.4791 31.7831C38.4351 31.5924 38.3911 31.4091 38.3397 31.2331C38.149 30.5216 38.0024 29.9642 38.0024 29.9642C37.9657 29.8102 37.8777 29.6708 37.7457 29.5755C37.5403 29.4215 37.2763 29.1061 37.0122 28.7687C36.7555 28.4314 36.4988 28.072 36.3301 27.7933C36.1101 27.4192 35.8974 27.2285 35.7067 26.8985C35.6774 26.8471 35.648 26.7958 35.6187 26.7298C35.8754 26.4584 36.2568 26.0477 36.6455 25.6003C36.9389 25.2629 37.2323 24.9035 37.4816 24.5662C37.5623 24.4561 37.709 24.3241 37.8923 24.1628C38.5744 23.5687 39.6453 22.7986 40.1513 22.2925C40.5767 21.8671 40.9728 21.4637 41.3321 21.0897C41.0534 22.3072 40.7161 23.6127 40.518 24.0014C40.0926 24.8082 39.2565 26.3117 39.2565 26.3117C39.1318 26.5391 39.1465 26.8178 39.3005 27.0305L41.0754 29.5022L40.5474 30.749C40.4374 31.0204 40.5034 31.3284 40.7234 31.5191L44.5373 34.8416C44.7133 34.9956 44.9626 35.0469 45.1827 34.9736C45.41 34.9002 45.5787 34.7169 45.6301 34.4895L46.5322 30.749C47.2583 30.1769 47.735 29.6929 48.6078 28.2407C48.7032 28.0793 48.8865 27.8959 49.0699 27.6906C49.2752 27.4559 49.4733 27.2065 49.62 26.9498C49.686 26.9058 49.752 26.8545 49.8106 26.8031C49.9207 26.7151 50.0307 26.6124 50.126 26.5244C50.2874 26.5904 50.4854 26.6784 50.6981 26.7811C50.9768 26.9131 51.2702 27.0745 51.4975 27.2505C51.7836 27.4706 52.231 27.7932 52.6857 28.1526C52.9351 28.3507 53.1844 28.556 53.4118 28.7687C53.6318 28.9741 53.8885 29.1721 54.1452 29.3701C54.4973 29.6342 54.864 29.8835 55.15 30.1036C54.886 30.3749 54.5853 30.6977 54.1379 31.101C53.8592 31.3577 53.5218 31.6438 53.0818 31.9738C52.8911 32.1205 52.7224 32.2965 52.561 32.5019C52.209 32.9566 51.9009 33.6021 51.2702 34.2915C50.9621 34.6362 50.5954 34.9883 50.236 35.3476C49.994 35.597 49.752 35.839 49.5319 36.0811C49.3192 36.3158 49.1359 36.5358 48.9745 36.7558C48.7472 37.0639 48.5785 37.3132 48.4685 37.5186C48.3804 37.6213 48.3951 37.7753 48.4978 37.856C48.6005 37.944 48.7545 37.9293 48.8352 37.8266C49.0332 37.6726 49.3486 37.5113 49.7226 37.2692C50.0013 37.0932 50.3094 36.8952 50.6101 36.6678C51.1968 36.2277 51.7689 35.685 52.2456 35.1936C52.9131 34.4748 53.2504 33.8147 53.6245 33.338C53.7125 33.228 53.7932 33.1326 53.8959 33.0593C54.3726 32.6999 54.7466 32.3845 55.0474 32.0985C55.7368 31.4604 56.0375 31.0277 56.4555 30.7123C56.4922 30.6977 56.5216 30.6757 56.5509 30.6463C56.6536 30.5656 56.8296 30.3823 57.035 30.1329C57.4017 29.6928 57.9224 28.9961 58.4138 28.402C58.6632 28.1013 58.8979 27.8373 59.1106 27.6099C59.4259 27.2725 59.6607 27.0378 59.7707 26.9645C59.998 26.8178 61.0175 26.5758 61.6189 26.275C61.9123 26.1284 62.1323 25.9597 62.2643 25.791C62.433 25.571 62.6531 25.3509 62.8731 25.1456C62.9318 25.0942 62.9831 25.0429 63.0344 24.9989L63.2545 27.4119C63.2838 27.7933 63.3792 28.1453 63.4525 28.4533C63.4745 28.556 63.4965 28.7101 63.4965 28.7614C63.3058 29.0328 62.9538 29.3481 62.7044 29.6268C62.4697 29.8909 62.301 30.1476 62.2423 30.3383C62.125 30.7197 62.2203 31.0204 62.477 31.2477C62.7117 31.4531 63.0271 31.7171 63.4598 32.0398C63.8559 32.3332 64.362 32.6853 64.9927 33.0886C65.8802 33.6461 66.4449 34.0641 66.9583 34.3868C67.2884 34.5922 67.5964 34.7609 67.9411 34.9076C68.1758 35.0102 68.4472 34.9662 68.6379 34.7976L69.9141 33.6167C70.3101 33.6314 71.0729 33.6534 71.8283 33.6607C72.4884 33.6607 73.1412 33.646 73.5666 33.6314C74.0726 34.0128 74.3293 34.1228 74.696 34.4602C74.9307 34.6729 75.2094 34.9589 75.6348 35.465C75.7155 35.5823 75.8769 35.6117 75.9869 35.531C76.1042 35.4503 76.1336 35.2889 76.0529 35.1789C75.7082 34.5702 75.4808 34.2108 75.2755 33.9394C74.8867 33.426 74.6374 33.2867 73.9039 32.4799C73.6766 32.2305 73.4052 31.9225 73.0605 31.5118C72.2904 30.6757 71.623 30.0816 70.8969 29.3261C70.6255 29.0474 70.3468 28.7394 70.0534 28.3873C69.628 27.8813 69.232 27.5292 68.8506 27.2505C68.2198 26.7885 67.6331 26.5464 66.995 26.033C66.6723 25.7763 66.2396 25.3803 65.8142 24.9695C64.9414 24.1408 64.0833 23.246 64.0833 23.246C63.8779 23.0333 63.5552 22.9819 63.2912 23.1139C63.1958 23.1653 62.6897 23.5027 62.1617 23.9647C61.8169 24.2581 61.4649 24.6028 61.1935 24.9475C61.1715 24.9769 61.1202 24.9915 61.0762 25.0209C60.9442 25.0942 60.7755 25.1676 60.6068 25.2336C59.9687 25.4756 59.2426 25.6883 59.0446 25.8203C58.9125 25.9083 58.6338 26.1504 58.2745 26.5097C58.0104 26.7811 57.6951 27.1332 57.365 27.5292C56.9249 28.0573 56.4556 28.6734 56.1035 29.1208C55.6194 28.7467 54.8567 28.2553 54.3066 27.7566C54.0572 27.5292 53.7785 27.2945 53.4998 27.0818C53.0377 26.7151 52.583 26.3851 52.2896 26.165C52.0476 25.9817 51.7542 25.8057 51.4609 25.6516C50.8301 25.3216 50.1994 25.1016 50.1994 25.1016C50.0087 25.0356 49.796 25.0576 49.62 25.1602L49.0699 25.6003C48.8498 25.4096 48.6005 25.1529 48.3144 24.8302C47.8817 24.3388 47.383 23.686 46.8109 22.8206C46.7302 22.7032 46.5835 22.5199 46.3928 22.3145C45.9088 21.7864 45.1167 21.0237 44.926 20.7596C44.0752 19.5861 43.4664 18.9114 43.1804 18.5887L43.0557 18.4493C43.019 18.3906 42.9677 18.332 42.909 18.288C42.6303 18.0606 42.2196 18.0973 41.9849 18.3686C41.9849 18.3686 41.4422 18.9847 40.5987 19.8648C40.188 20.2976 39.6966 20.8036 39.1685 21.3317C38.6771 21.8231 37.6356 22.5639 36.9756 23.1359C36.7042 23.3706 36.4915 23.5833 36.3668 23.752C36.1394 24.0601 35.8681 24.3975 35.5967 24.7055C35.208 25.1529 34.8266 25.5636 34.5846 25.8203C34.4966 25.7836 34.4012 25.7396 34.3205 25.703C34.0125 25.5489 33.6531 25.3803 33.2644 25.2922C33.103 25.2556 33.015 25.1456 32.8903 25.0502C32.751 24.9329 32.6043 24.8155 32.4063 24.6908C32.2449 24.5882 32.0469 24.4855 31.8048 24.3901C31.5261 24.2875 31.2181 24.3681 31.0347 24.6028L29.4065 26.7224C29.3185 26.8471 29.1792 26.9938 29.0105 27.1625C28.3724 27.8153 27.3969 28.6807 27.0155 29.1355C26.6708 29.5462 26.3114 30.0229 25.9961 30.4483C25.7907 30.7343 25.6 30.9984 25.446 31.2184C25.292 31.0937 25.1379 30.9617 24.9766 30.815C24.3898 30.2796 23.7151 29.5608 22.6516 28.5414C22.1895 28.094 21.8008 27.7566 21.4488 27.4632C21.0014 27.0965 20.598 26.8104 20.1506 26.5024C19.9966 26.3924 19.8059 26.1504 19.6079 25.8937C19.1825 25.3289 18.7717 24.6688 18.7717 24.6688C18.6324 24.4488 18.383 24.3241 18.119 24.3461C17.4956 24.4048 17.0115 24.5221 16.5934 24.6762C15.8307 24.9549 15.3246 25.3509 14.6572 25.7617C14.1438 26.0697 13.6084 26.4657 13.117 26.7811C12.8236 26.9718 12.3762 27.1772 12.2882 27.2138C12.1342 27.1478 11.9141 27.0892 11.6574 27.0378C11.012 26.9131 10.0219 26.8398 9.59648 26.6638C9.37645 26.5684 9.12709 26.5978 8.9364 26.7371L7.25683 27.9179C7.13215 27.9986 6.94879 28.182 6.7361 28.4167C6.28137 28.9374 5.65061 29.8102 5.38657 30.0669C3.88303 31.5484 3.07626 32.1498 2.1668 32.9713C1.9101 33.1987 1.6754 33.4627 1.38936 33.7487C1.19867 33.9541 0.780611 34.1521 0.494572 34.3868C0.391891 34.4748 0.296545 34.5555 0.230536 34.6509C0.127855 34.7535 0.135189 34.9076 0.230536 35.0102C0.333216 35.1056 0.494576 35.1056 0.589922 35.0102C0.685268 34.9442 0.809956 34.9222 0.949308 34.8856C1.18401 34.8196 1.43337 34.7829 1.64607 34.7169C1.78542 34.6729 1.90277 34.6068 2.00545 34.5482C2.3575 34.3428 2.68021 34.1741 2.96625 33.9761C3.28163 33.7634 3.553 33.514 3.83904 33.272C4.50646 32.7146 5.22522 32.0692 6.31804 31.013C6.5674 30.771 7.12481 30.0376 7.57954 29.4875C7.75557 29.2748 7.90225 29.0914 8.00493 29.0254L9.44247 28.0206C9.53048 28.0426 9.63316 28.0646 9.73584 28.0866C10.2126 28.182 10.8213 28.2553 11.2981 28.3433C11.4887 28.38 11.6574 28.402 11.7454 28.446C12.0388 28.6074 12.4789 28.622 12.9923 28.3947C13.645 28.116 14.5472 27.4192 15.3759 26.9131C15.882 26.6051 16.2781 26.2971 16.7988 26.0624C17.0042 25.967 17.2315 25.8863 17.4882 25.8277L17.5102 25.8497ZM0.450568 38.5527C0.450568 38.5527 0.868628 38.6114 1.66807 38.6847C2.01278 38.7214 2.40884 38.7581 2.88557 38.7948C3.03959 38.8094 3.20094 38.8168 3.36963 38.8241C3.72168 38.8314 4.09574 38.8241 4.49912 38.8241C6.23003 38.8094 8.43766 38.7948 10.968 38.8241C13.8577 38.8534 17.1655 38.9341 20.664 39.1175C23.7004 39.2788 26.8835 39.5209 30.0593 39.8582C31.4015 39.9976 32.7363 40.1516 34.0638 40.335C34.3352 40.3716 34.5992 40.4156 34.8706 40.4376C35.054 40.4523 35.23 40.467 35.4133 40.4743C36.1248 40.5037 36.7922 40.489 37.467 40.5037C37.599 40.5257 37.7237 40.4376 37.7457 40.3056C37.7677 40.1736 37.6796 40.0489 37.5476 40.0269C36.9022 39.8142 36.2715 39.5942 35.582 39.3962C35.406 39.3448 35.23 39.3008 35.054 39.2642C34.7899 39.2128 34.5186 39.1761 34.2472 39.1321C32.575 38.8681 30.8881 38.6407 29.2012 38.45C25.1379 37.9953 21.0894 37.7533 17.3562 37.6139C14.3858 37.5039 11.6208 37.4599 9.22244 37.4746C7.08815 37.4819 5.23989 37.5259 3.80236 37.5846C3.61167 37.5919 3.43564 37.5993 3.25962 37.6139C2.96625 37.6433 2.69488 37.6726 2.44551 37.7093C1.13266 37.9073 0.421235 38.0833 0.421235 38.0833C0.289217 38.0833 0.186539 38.2007 0.193873 38.3327C0.193873 38.4647 0.31122 38.5674 0.443238 38.5601L0.450568 38.5527ZM17.2829 41.4865C17.2462 41.7138 17.6643 41.8752 18.031 42.0439C18.1263 42.0879 18.2143 42.1172 18.3317 42.1392C18.3977 42.1539 18.4637 42.1612 18.5297 42.1539C18.7351 42.1392 18.9331 42.0879 19.1311 42.0292C19.6519 41.8898 20.0259 41.7285 20.0259 41.7285C20.1653 41.7285 20.2753 41.6185 20.2753 41.4791C20.2753 41.3398 19.6519 41.0684 19.1238 40.9291C18.9258 40.8777 18.7277 40.819 18.5224 40.8044C18.4564 40.8044 18.383 40.8044 18.3243 40.819C18.207 40.841 18.119 40.8704 18.0236 40.9144C17.6569 41.0831 17.2975 41.3324 17.2755 41.4718L17.2829 41.4865ZM6.7801 41.5158C6.7801 41.3764 6.23002 41.0977 6.054 41.0244C5.94398 40.9804 5.84864 40.9437 5.73129 40.9144C5.59927 40.8777 5.48192 40.8484 5.35724 40.8337C5.23989 40.819 5.12987 40.8264 5.01252 40.8117C4.66048 40.8337 4.38911 40.841 4.15441 40.8924C3.67034 40.9951 3.39897 41.1344 2.98091 41.2518C2.84156 41.2518 2.73889 41.3764 2.73889 41.5085C2.73889 41.6405 2.86356 41.7505 2.99558 41.7505C3.35497 41.8238 3.61166 41.8532 3.97838 41.9118C4.22041 41.9559 4.48446 42.0145 4.85851 42.1245C4.97586 42.1392 5.10054 42.1612 5.22523 42.1612C5.34258 42.1612 5.45258 42.1466 5.56993 42.1245C5.70195 42.0952 5.82664 42.0585 5.95866 42.0072C6.16402 41.9265 6.77277 41.8165 6.7801 41.5158ZM33.015 43.6941C32.971 43.9215 33.3964 44.0828 33.7631 44.2515C33.8585 44.2955 33.9465 44.3248 34.0638 44.3469C34.1298 44.3615 34.1958 44.3688 34.2619 44.3615C34.4672 44.3468 34.6652 44.2955 34.8633 44.2368C35.384 44.0975 35.7581 43.9361 35.7581 43.9361C35.8974 43.9361 36.0074 43.8261 36.0074 43.6868C36.0074 43.5474 35.384 43.276 34.8633 43.1367C34.6652 43.0854 34.4672 43.0267 34.2619 43.012C34.1958 43.012 34.1298 43.012 34.0638 43.0267C33.9465 43.0487 33.8585 43.078 33.7631 43.122C33.3964 43.2907 33.037 43.5401 33.015 43.6794V43.6941ZM46.4588 46.4665C46.7596 46.4811 46.5982 46.0264 46.5689 45.5644C46.5615 45.4397 46.5395 45.3076 46.5029 45.1683C46.4809 45.0876 46.4515 44.9996 46.4148 44.9189C46.2975 44.6842 46.1435 44.4642 45.9894 44.2515C45.6667 43.8114 45.3514 43.4741 45.1533 43.3274C45.102 43.2614 45.014 43.254 44.948 43.3054C44.882 43.3567 44.8746 43.4447 44.926 43.5107C45.0213 43.7161 45.08 44.1342 45.2047 44.6182C45.2634 44.8676 45.322 45.1243 45.41 45.359C45.4394 45.4397 45.4834 45.513 45.5274 45.5864C45.6007 45.711 45.6814 45.8064 45.7621 45.9017C46.0701 46.2391 46.3855 46.4591 46.4662 46.4665H46.4588ZM47.1629 46.5031C47.2363 46.5398 47.5663 46.1438 47.7057 45.9311C47.7644 45.8431 47.8157 45.755 47.8597 45.6524C47.8817 45.5937 47.9037 45.5277 47.9184 45.4543C47.9477 45.2416 47.9404 45.0363 47.9404 44.8309C47.9404 44.3982 47.889 44.0608 47.889 43.8774C47.9184 43.8041 47.8744 43.7161 47.7937 43.6941C47.713 43.6721 47.6323 43.7088 47.6103 43.7894C47.5003 43.9435 47.3023 44.2295 47.0969 44.6329C47.0016 44.8162 46.9062 45.0069 46.8476 45.2196C46.8256 45.2856 46.8182 45.359 46.8182 45.425C46.8182 45.5424 46.8182 45.645 46.8476 45.755C46.9062 46.0117 46.9356 46.3638 47.1703 46.4885L47.1629 46.5031ZM63.7679 46.8479C63.8926 47.0972 64.4353 47.2512 64.6407 47.3172C64.7654 47.3539 64.868 47.3833 64.978 47.3979C65.0514 47.4053 65.1247 47.4126 65.1907 47.4126C65.4548 47.3979 65.6528 47.3539 65.8508 47.3246C66.2175 47.2733 66.5036 47.2219 66.973 47.0679C67.1123 47.0679 67.215 46.9432 67.2077 46.8039C67.2077 46.6645 67.083 46.5618 66.9436 46.5692C66.5036 46.4665 66.2689 46.3345 65.9389 46.2318C65.7188 46.1584 65.4915 46.0851 65.1834 46.0704C65.1027 46.0704 65.0147 46.0704 64.9267 46.0924C64.802 46.1144 64.6847 46.1438 64.5527 46.2098C64.3473 46.3051 63.6065 46.5618 63.7532 46.8479H63.7679ZM13.293 47.1779C13.1536 47.5226 13.7771 47.5813 14.2391 47.7353C14.3711 47.7793 14.5032 47.8087 14.6572 47.8307C14.7452 47.8453 14.8405 47.8527 14.9359 47.8453C15.2146 47.8307 15.5006 47.7793 15.772 47.7206C16.4761 47.5813 17.0262 47.4199 17.0262 47.4199C17.1655 47.4199 17.2755 47.3099 17.2755 47.1706C17.2755 47.0312 17.1655 46.9212 17.0262 46.9212C17.0262 46.9212 16.4834 46.7599 15.772 46.6205C15.5006 46.5692 15.2219 46.5105 14.9359 46.4958C14.8405 46.4958 14.7452 46.4958 14.6572 46.5105C14.5032 46.5325 14.3711 46.5691 14.2391 46.6058C13.7771 46.7598 13.381 46.9505 13.293 47.1632V47.1779ZM2.02746 51.4025C2.06413 51.5345 2.51885 51.8059 2.95158 51.9599C3.03959 51.9892 3.12027 52.0112 3.21561 52.0332C3.27429 52.0406 3.33297 52.0552 3.39164 52.0479C3.45032 52.0479 3.50899 52.0332 3.56766 52.0186C3.66301 51.9966 3.74368 51.9672 3.8317 51.9305C4.24975 51.7545 4.89517 51.7325 4.73382 51.3511C4.70448 51.2851 4.59447 51.1751 4.40377 51.0724C4.22775 50.9771 4.01506 50.8817 3.80969 50.8084C3.72168 50.7791 3.641 50.7497 3.54566 50.7277C3.48698 50.7131 3.4283 50.7057 3.36963 50.7057C3.31096 50.7057 3.25229 50.7204 3.19361 50.7277C3.09827 50.7497 3.01759 50.7717 2.92958 50.8084C2.50418 50.9844 1.96145 51.1604 2.02746 51.4025ZM57.629 53.6028C57.9518 53.7935 58.3258 54.0502 58.8025 54.2995C58.9859 54.3949 59.1692 54.4829 59.3746 54.5636C59.4553 54.6002 59.5433 54.6296 59.624 54.6516C59.7413 54.6883 59.8587 54.7103 59.9687 54.7323C60.1521 54.7689 60.3281 54.791 60.5041 54.8056C61.0615 54.8496 61.5309 54.8496 61.8976 54.8349C62.037 54.8643 62.1763 54.7689 62.1983 54.6296C62.2203 54.4902 62.1323 54.3509 61.993 54.3289C61.6703 54.1822 61.2889 53.9548 60.8121 53.7128C60.6581 53.6321 60.5041 53.5588 60.3354 53.4928C60.2254 53.4488 60.1227 53.4048 60.0054 53.3754C59.7193 53.2947 59.426 53.2507 59.1399 53.2067C58.6118 53.1407 58.1571 53.1407 57.7831 53.1187C57.6437 53.0747 57.5044 53.1554 57.4603 53.2874C57.4163 53.4268 57.497 53.5661 57.629 53.6101V53.6028ZM39.9166 56.2211C40.056 56.2798 40.1953 55.9718 40.408 55.6857C40.4667 55.605 40.5327 55.5317 40.5987 55.4217C40.6427 55.3484 40.6867 55.2823 40.7234 55.2017C40.7527 55.1283 40.7747 55.0477 40.8114 54.967L41.3102 53.3534C41.3542 53.2874 41.3322 53.1921 41.2661 53.1481C41.2001 53.104 41.1121 53.126 41.0608 53.1921C40.9214 53.3167 40.5914 53.5808 40.2687 53.9328C40.0927 54.1235 39.946 54.3362 39.8139 54.5416C39.7626 54.6663 39.7039 54.7763 39.6746 54.8936C39.6379 55.033 39.6306 55.1577 39.6306 55.275C39.6306 55.3997 39.6306 55.4877 39.6526 55.5904C39.7186 55.9278 39.7406 56.1625 39.9093 56.2285L39.9166 56.2211ZM39.1319 56.3018C39.4106 56.2725 39.3299 55.7957 39.3445 55.5244C39.3445 55.4144 39.3445 55.3117 39.3152 55.1943C39.3005 55.1283 39.2785 55.0623 39.2492 54.9963C39.1539 54.8056 39.0145 54.6369 38.8825 54.4829C38.5524 54.1015 38.2664 53.8521 38.1344 53.7861C38.0757 53.7348 37.9804 53.7348 37.929 53.7935C37.8703 53.8522 38.0097 54.3509 38.0757 54.7103C38.0977 54.835 38.1124 54.9523 38.1491 55.077C38.1784 55.1943 38.2004 55.3117 38.2444 55.429C38.2664 55.4877 38.3031 55.5464 38.3324 55.5977C38.3911 55.6857 38.4571 55.7591 38.5231 55.8324C38.6991 56.0084 38.9338 56.3165 39.1319 56.2871V56.3018ZM71.3662 34.5849C71.3149 34.5849 71.2636 34.5848 71.2122 34.5995C71.1829 34.5995 71.1609 34.6142 71.1316 34.6215C71.0435 34.6582 70.9555 34.7095 70.8895 34.7756C70.8235 34.8416 70.7722 34.9222 70.7355 35.0176C70.7282 35.0469 70.7208 35.0689 70.7135 35.0982C70.7135 35.1276 70.7062 35.1496 70.6988 35.1789C70.6328 35.7143 70.5301 36.1837 70.4055 36.6018C70.3101 36.9172 70.2001 37.2032 70.0827 37.4672C69.9507 37.7533 69.8114 38.0247 69.65 38.2814C69.3933 38.6921 69.1293 39.0808 68.7479 39.4695C68.6232 39.5575 68.5939 39.7189 68.6819 39.8436C68.7699 39.9609 68.9313 39.9976 69.0559 39.9096C69.6207 39.6529 70.0974 39.3742 70.5081 39.0075C70.5595 38.9635 70.6108 38.9121 70.6548 38.8681C70.5595 39.3082 70.4495 39.7409 70.3174 40.1443C70.2148 40.4596 70.0974 40.7604 69.9434 41.0391C69.7967 41.3031 69.6427 41.5598 69.4227 41.7872C69.1073 42.1172 68.7552 42.4326 68.2052 42.682C68.0658 42.7186 67.9778 42.8653 68.0145 43.012C68.0511 43.1514 68.1978 43.2394 68.3445 43.2027C69.0266 43.1514 69.562 42.9827 70.0241 42.726C70.2588 42.6013 70.4568 42.4326 70.6328 42.2566C70.5301 42.6746 70.4201 43.0853 70.2734 43.4741C70.1561 43.7894 70.0167 44.0901 69.8334 44.3615C69.6647 44.6182 69.474 44.8602 69.2173 45.0729C68.8579 45.3737 68.4398 45.6524 67.8384 45.8284C67.6917 45.843 67.5891 45.9824 67.6037 46.1291C67.6184 46.2758 67.7578 46.3785 67.9044 46.3638C68.6232 46.4005 69.1953 46.2904 69.7014 46.0851C69.9727 45.9751 70.2001 45.821 70.4128 45.645C70.4935 45.579 70.5741 45.5057 70.6475 45.425C70.5375 45.8651 70.3981 46.2978 70.2148 46.6865C70.0754 46.9872 69.9067 47.2659 69.7014 47.5226C69.5033 47.7646 69.2833 47.9847 69.0046 48.168C68.6085 48.4321 68.1538 48.6741 67.5377 48.8061C67.391 48.8061 67.2737 48.9381 67.281 49.0848C67.281 49.2315 67.413 49.3489 67.5597 49.3415C68.3298 49.4369 68.9606 49.3709 69.5107 49.1728C69.9801 49.0041 70.3541 48.7254 70.6768 48.4027C70.5668 48.8575 70.3614 49.2829 70.1121 49.6642C69.9214 49.9503 69.6867 50.2143 69.4447 50.449C69.188 50.6911 68.9166 50.9111 68.6232 51.0944C68.1465 51.3878 67.6624 51.6298 67.1123 51.6812C66.9656 51.6739 66.841 51.7839 66.8263 51.9305C66.819 52.0772 66.929 52.2019 67.0757 52.2166C67.7431 52.3633 68.4252 52.3266 69.0853 52.1139C69.518 51.9746 69.9214 51.7399 70.2881 51.4538C70.4275 51.3438 70.5595 51.2265 70.6915 51.0944V53.8888C70.6915 54.5049 70.9922 56.4192 71.3662 56.4192C71.7403 56.4192 72.041 54.4976 72.041 53.8741V50.9111C72.3417 51.1238 72.6424 51.2705 72.9798 51.3951C73.0972 51.4832 73.2658 51.4538 73.3539 51.3365C73.4419 51.2191 73.4125 51.0504 73.2952 50.9624C73.0898 50.6984 72.9725 50.427 72.8184 50.1263C72.7598 50.0163 72.7158 49.9136 72.6571 49.8036C72.5691 49.6496 72.4884 49.5029 72.4151 49.3489C72.261 49.0335 72.1217 48.7034 72.041 48.3514C72.195 48.4981 72.3637 48.6374 72.5544 48.7401C72.9798 48.9821 73.4419 49.1362 74.0066 49.1802C74.146 49.2242 74.3 49.1362 74.3367 48.9968C74.3807 48.8575 74.2926 48.7034 74.1533 48.6668C73.7279 48.4467 73.4565 48.146 73.1925 47.8307C73.0165 47.6253 72.8845 47.4053 72.7524 47.1779C72.6204 46.9432 72.5031 46.6938 72.4004 46.4371C72.2757 46.1218 72.173 45.7844 72.0924 45.447C72.1657 45.5203 72.2464 45.5937 72.327 45.6597C72.5397 45.8357 72.7671 45.9897 73.0385 46.0997C73.5372 46.3051 74.1166 46.4151 74.8354 46.3785C74.9821 46.3931 75.1141 46.2905 75.1361 46.1438C75.1508 45.9971 75.0481 45.8651 74.9014 45.8431C74.2927 45.667 73.8819 45.3883 73.5225 45.0876C73.2658 44.8749 73.0752 44.6329 72.9065 44.3762C72.7304 44.1048 72.5837 43.8041 72.4664 43.4887C72.3197 43.1 72.2097 42.6893 72.1144 42.2712C72.2977 42.4472 72.4884 42.6086 72.7231 42.7406C73.1852 42.99 73.7206 43.166 74.4027 43.2174C74.5493 43.254 74.6887 43.166 74.7254 43.0267C74.762 42.88 74.674 42.7333 74.5347 42.6966C73.9846 42.4473 73.6252 42.1319 73.3172 41.8018C73.0972 41.5671 72.9431 41.3178 72.7964 41.0537C72.6498 40.775 72.5251 40.4743 72.4224 40.159C72.2904 39.7556 72.1877 39.3302 72.085 38.8828C72.1364 38.9341 72.1804 38.9781 72.2317 39.0221C72.6424 39.3888 73.1118 39.6675 73.6839 39.9242C73.8086 40.0123 73.9699 39.9829 74.058 39.8582C74.146 39.7336 74.1166 39.5722 73.9919 39.4842C73.6106 39.0955 73.3465 38.6994 73.0898 38.296C72.9211 38.0393 72.7891 37.7679 72.6571 37.4819C72.5324 37.2105 72.4224 36.9318 72.3344 36.6165C72.2097 36.1984 72.107 35.729 72.041 35.1936C72.041 35.1643 72.041 35.1423 72.0263 35.1129C72.0263 35.0836 72.0117 35.0616 72.0043 35.0322C71.9677 34.9442 71.9163 34.8562 71.8503 34.7902C71.7843 34.7242 71.7036 34.6655 71.6083 34.6362C71.5789 34.6289 71.5569 34.6215 71.5276 34.6142C71.4763 34.5995 71.4249 34.5995 71.3736 34.5995L71.3662 34.5849ZM51.1675 53.5588C51.7029 54.0355 52.3703 54.5122 53.1698 54.945C53.7712 55.2677 54.4459 55.5464 55.15 55.8177C55.5901 55.9864 56.0448 56.1405 56.5069 56.2871C56.9323 56.4192 57.365 56.5365 57.7977 56.6392C58.2305 56.7419 58.6705 56.8299 59.1106 56.9106C61.5529 57.358 63.8779 57.5707 65.2934 57.6367C65.4401 57.6513 65.5648 57.5486 65.5795 57.402C65.5941 57.2553 65.4914 57.1306 65.3448 57.1159C64.1859 56.9252 62.4184 56.5145 60.4748 55.9938C59.8 55.8104 59.1106 55.6124 58.4212 55.4144C57.9298 55.275 57.4457 55.143 56.9616 55.0036C56.4702 54.8643 55.9788 54.7323 55.5021 54.6003C54.776 54.3876 54.0939 54.1602 53.4558 53.9402C52.7077 53.6761 52.0329 53.4414 51.4755 53.1334C51.3582 53.0454 51.1895 53.0747 51.1088 53.1921C51.0208 53.3094 51.0501 53.4781 51.1675 53.5588ZM17.6789 58.6121C17.3782 58.6268 17.5396 58.1721 17.5762 57.71C17.5836 57.5853 17.6056 57.4533 17.6422 57.3139C17.6643 57.2333 17.6936 57.1453 17.7303 57.0646C17.8476 56.8299 18.0016 56.6099 18.1556 56.3972C18.4784 55.9571 18.7937 55.6197 18.9844 55.473C19.0358 55.407 19.1238 55.3997 19.1898 55.451C19.2558 55.5024 19.2631 55.5977 19.2118 55.6564C19.1164 55.8617 19.0578 56.2798 18.9331 56.7639C18.8744 57.0132 18.8157 57.27 18.7277 57.5047C18.6984 57.5853 18.6544 57.6587 18.6104 57.732C18.537 57.8567 18.4564 57.952 18.3757 58.0474C18.0676 58.3848 17.7523 58.6048 17.6716 58.6121H17.6789ZM16.9748 58.6488C16.9015 58.6855 16.5714 58.2894 16.4321 58.0767C16.3734 57.9887 16.3221 57.9007 16.2781 57.798C16.2487 57.732 16.2341 57.6733 16.2194 57.6C16.19 57.3873 16.1974 57.1819 16.1974 56.9766C16.1974 56.5438 16.2487 56.2065 16.2487 56.0231C16.2194 55.9424 16.2634 55.8617 16.3441 55.8397C16.4174 55.8104 16.5054 55.8544 16.5274 55.9351C16.6374 56.0891 16.8355 56.3752 17.0408 56.7786C17.1362 56.9619 17.2315 57.1526 17.2902 57.3653C17.3122 57.4313 17.3195 57.5047 17.3195 57.578C17.3195 57.6953 17.3195 57.798 17.2902 57.908C17.2315 58.1647 17.2022 58.5168 16.9675 58.6415L16.9748 58.6488ZM33.235 58.2747C33.2204 58.5168 33.7191 58.6781 34.1592 58.8322C34.2472 58.8615 34.3279 58.8835 34.4232 58.9055C34.4819 58.9128 34.5406 58.9275 34.5992 58.9202C34.6579 58.9202 34.7166 58.9055 34.7753 58.8908C34.8706 58.8688 34.9513 58.8395 35.0393 58.8028C35.4573 58.6268 35.4427 58.5975 35.692 58.4728C35.8167 58.4068 35.9414 58.3554 35.9341 58.2161C35.9341 58.0767 35.4353 57.8274 35.01 57.666C34.9219 57.6367 34.8413 57.6073 34.7459 57.5853C34.6872 57.5706 34.6286 57.5633 34.5699 57.5633C34.5112 57.5633 34.4525 57.578 34.3939 57.5853C34.2985 57.6073 34.2178 57.6293 34.1298 57.666C33.7044 57.842 33.235 58.1207 33.2277 58.2601L33.235 58.2747ZM45.3367 52.818C43.5985 55.8104 41.2955 59.3529 39.4986 61.9346L40.7234 62.14C41.2368 61.9493 42.9677 61.2232 43.8332 59.859C44.86 58.2381 45.168 55.5244 45.19 55.297L45.3367 52.8107V52.818ZM9.07575 40.2616C9.02441 40.2616 8.97307 40.2616 8.92173 40.2836C8.89239 40.2836 8.87039 40.2983 8.84105 40.3056C8.7457 40.3423 8.66502 40.3937 8.59901 40.4597C8.533 40.5257 8.48167 40.6063 8.445 40.7017C8.43766 40.731 8.43033 40.753 8.423 40.7824C8.423 40.8117 8.40833 40.8337 8.40833 40.863C8.34232 41.3984 8.23963 41.8678 8.11494 42.2859C8.0196 42.6013 7.90959 42.8873 7.79224 43.1514C7.66023 43.4374 7.52086 43.7014 7.35951 43.9655C7.10281 44.3762 6.83878 44.7649 6.45739 45.1536C6.34004 45.2416 6.30337 45.403 6.39138 45.5277C6.4794 45.645 6.64075 45.6817 6.76543 45.5937C7.33017 45.337 7.79957 45.0583 8.21763 44.6916C8.26897 44.6476 8.32032 44.5962 8.36432 44.5522C8.26164 44.9923 8.15895 45.425 8.03427 45.8284C7.93159 46.1438 7.81424 46.4445 7.66022 46.7232C7.52087 46.9872 7.35952 47.2439 7.13949 47.4713C6.82411 47.8013 6.47206 48.124 5.92199 48.3661C5.7753 48.4027 5.69461 48.5494 5.73129 48.6961C5.76796 48.8355 5.91465 48.9235 6.06134 48.8868C6.74343 48.8355 7.27883 48.6668 7.7409 48.4101C7.9756 48.2854 8.17362 48.124 8.34965 47.9407C8.2543 48.3587 8.13696 48.7695 7.9976 49.1582C7.88025 49.4735 7.7409 49.7743 7.55754 50.0456C7.38885 50.3023 7.19816 50.5444 6.94146 50.7571C6.58208 51.0578 6.16401 51.3365 5.5626 51.5125C5.41591 51.5272 5.31324 51.6665 5.32791 51.8132C5.34258 51.9599 5.48192 52.0626 5.62861 52.0479C6.34737 52.0846 6.91946 51.9746 7.42553 51.7692C7.6969 51.6592 7.93159 51.5052 8.13695 51.3291C8.21762 51.2631 8.29831 51.1898 8.37165 51.1091C8.26164 51.5492 8.12229 51.9819 7.93893 52.3706C7.79958 52.6713 7.63089 52.95 7.42553 53.2067C7.2275 53.4487 7.00746 53.6688 6.72876 53.8521C6.3327 54.1162 5.87797 54.3582 5.26189 54.4902C5.1152 54.4902 4.99786 54.6222 5.00519 54.7689C5.00519 54.9156 5.1372 55.033 5.28389 55.0256C6.054 55.121 6.68475 55.055 7.23483 54.8569C7.70422 54.6956 8.07827 54.4096 8.40098 54.0868C8.30564 54.4682 8.15162 54.8276 7.95359 55.1577C7.79957 55.4144 7.62355 55.6491 7.44019 55.8691C7.24216 56.0965 7.04414 56.3165 6.81678 56.5145C6.45006 56.8372 6.09067 57.1306 5.65061 57.3066C5.50392 57.3359 5.40858 57.4753 5.43792 57.622C5.46725 57.7687 5.6066 57.864 5.75329 57.8347C6.3327 57.8347 6.89012 57.71 7.42553 57.4533C7.77758 57.292 8.09295 57.0499 8.38632 56.7859C8.40099 56.7712 8.41566 56.7565 8.43033 56.7419C8.43033 57.1526 8.44499 57.556 8.45233 57.93C8.467 58.5461 8.48901 59.1182 8.52568 59.6316C8.56235 60.1157 8.61368 60.5411 8.66502 60.9078C8.77503 61.7219 8.86305 62.184 8.86305 62.184C8.86305 62.3086 8.96573 62.4113 9.09041 62.4113C9.2151 62.4113 9.31778 62.3086 9.31778 62.184C9.31778 62.184 9.40579 61.7219 9.51581 60.9078C9.55981 60.5411 9.61849 60.123 9.65516 59.6316C9.69183 59.1182 9.71384 58.5534 9.72851 57.93C9.73584 57.556 9.74318 57.1599 9.75051 56.7565C9.88253 56.8885 10.0219 57.0132 10.1686 57.1306C10.5353 57.4166 10.9387 57.6513 11.3714 57.7907C12.0315 58.0034 12.7136 58.0474 13.381 57.9007C13.5277 57.8934 13.645 57.7687 13.6304 57.6147C13.623 57.468 13.491 57.358 13.3443 57.3653C12.7943 57.3066 12.3102 57.0719 11.8335 56.7786C11.5401 56.5952 11.2687 56.3825 11.012 56.1331C10.7626 55.8984 10.5353 55.6417 10.3446 55.3484C10.0879 54.967 9.88986 54.5489 9.77984 54.0868C10.1026 54.4096 10.4839 54.6883 10.946 54.8569C11.4961 55.055 12.1268 55.121 12.8969 55.0256C13.0436 55.0256 13.1683 54.9156 13.1756 54.7689C13.1756 54.6222 13.0656 54.4976 12.9189 54.4902C12.2955 54.3655 11.8481 54.1162 11.4521 53.8521C11.1734 53.6688 10.9533 53.4414 10.7553 53.2067C10.5499 52.9574 10.3813 52.6787 10.2419 52.3706C10.0586 51.9746 9.9192 51.5492 9.80919 51.1091C9.88253 51.1825 9.9632 51.2558 10.0439 51.3291C10.2566 51.5052 10.4839 51.6592 10.7553 51.7692C11.254 51.9746 11.8335 52.0846 12.5522 52.0479C12.6989 52.0626 12.8309 51.9599 12.8529 51.8132C12.8676 51.6665 12.7649 51.5345 12.6182 51.5125C12.0095 51.3365 11.5988 51.0578 11.2394 50.7571C10.9827 50.5444 10.792 50.3023 10.6233 50.0456C10.4473 49.7743 10.3006 49.4735 10.1832 49.1582C10.0365 48.7695 9.92653 48.3587 9.82385 47.9407C10.0072 48.1167 10.1979 48.2781 10.4326 48.4101C10.8947 48.6668 11.4301 48.8355 12.1122 48.8868C12.2515 48.9235 12.3982 48.8355 12.4349 48.6961C12.4715 48.5494 12.3835 48.4027 12.2442 48.3661C11.6941 48.1167 11.3347 47.8013 11.0267 47.4713C10.8066 47.2366 10.6526 46.9872 10.5059 46.7232C10.3519 46.4445 10.2346 46.1438 10.1319 45.8284C9.99987 45.425 9.89719 44.9996 9.80184 44.5522C9.84585 44.6036 9.89719 44.6476 9.94853 44.6916C10.3593 45.0583 10.836 45.337 11.4007 45.5937C11.5254 45.6817 11.6868 45.6524 11.7748 45.5277C11.8628 45.403 11.8335 45.2416 11.7088 45.1536C11.3274 44.7649 11.0634 44.3762 10.8067 43.9655C10.638 43.7088 10.5059 43.4374 10.3739 43.1514C10.2492 42.88 10.1392 42.6013 10.0512 42.2859C9.92653 41.8678 9.82385 41.3984 9.75784 40.863C9.75784 40.8337 9.7505 40.8044 9.74317 40.7824C9.74317 40.753 9.7285 40.731 9.72117 40.7017C9.68449 40.6063 9.63316 40.5257 9.56715 40.4597C9.50114 40.3937 9.42046 40.3423 9.32512 40.3056C9.29578 40.2983 9.27378 40.291 9.24444 40.2836C9.1931 40.269 9.14175 40.2616 9.09041 40.2616H9.07575ZM44.86 60.7464C44.3392 61.4945 43.6131 62.0886 42.931 62.5213L44.7353 62.8294L44.86 60.7538V60.7464ZM62.3744 32.2305C62.323 32.2305 62.2717 32.2305 62.2203 32.2452C62.191 32.2452 62.169 32.2599 62.1397 32.2672C62.0516 32.3039 61.9636 32.3552 61.8976 32.4212C61.8316 32.4872 61.7729 32.5679 61.7436 32.6633C61.7363 32.6926 61.7289 32.7146 61.7216 32.7439C61.7216 32.7733 61.7069 32.7953 61.7069 32.8246C61.6556 33.25 61.5676 33.6167 61.4722 33.9541C61.3989 34.2035 61.3109 34.4235 61.2229 34.6362C61.1202 34.8636 61.0248 35.0762 60.9002 35.2816C60.7021 35.619 60.5188 35.9417 60.2181 36.2717C60.1007 36.3598 60.0714 36.5211 60.1521 36.6458C60.2401 36.7705 60.4014 36.7925 60.5261 36.7118C60.9295 36.5431 61.2742 36.3744 61.5823 36.1397C61.5236 36.3744 61.4649 36.5945 61.3989 36.8145C61.3182 37.0639 61.2302 37.2985 61.1129 37.5112C61.0322 37.6653 60.9515 37.8193 60.8341 37.9587C60.7608 38.054 60.6948 38.1493 60.6068 38.2447C60.3868 38.4647 60.1521 38.6847 59.7927 38.8608C59.646 38.8974 59.5653 39.0441 59.602 39.1908C59.6387 39.3302 59.7853 39.4182 59.932 39.3815C60.5114 39.3595 60.9442 39.2275 61.3402 39.0295C61.4136 38.9928 61.4869 38.9488 61.5529 38.9048C61.4942 39.1101 61.4356 39.3155 61.3622 39.5135C61.2742 39.7629 61.1642 39.9903 61.0322 40.203C60.9368 40.3496 60.8341 40.4963 60.7095 40.6283C60.6215 40.7164 60.5481 40.8117 60.4454 40.8924C60.1887 41.0904 59.9174 41.2811 59.5213 41.4131C59.3746 41.4278 59.2719 41.5671 59.2866 41.7138C59.3013 41.8605 59.4406 41.9632 59.5873 41.9485C60.1887 41.9999 60.6581 41.9192 61.0835 41.7578C61.3182 41.6698 61.5089 41.5451 61.6923 41.3985C61.6923 41.3985 61.7069 41.3911 61.7143 41.3838V43.7234C61.5382 43.7454 61.3622 43.7601 61.1789 43.7821C59.8587 43.9435 58.3992 44.2075 56.7929 44.5449V42.0365C56.969 42.1759 57.1596 42.3006 57.3797 42.3813C57.7977 42.5353 58.2598 42.616 58.8465 42.5646C58.9932 42.5793 59.1252 42.4766 59.1472 42.3299C59.1693 42.1832 59.0592 42.0512 58.9126 42.0292C58.5312 41.8972 58.2598 41.7065 58.0104 41.5158C57.9077 41.4351 57.8344 41.3471 57.7537 41.2591C57.629 41.1344 57.5337 40.9877 57.4383 40.841C57.3063 40.6357 57.2037 40.4083 57.1156 40.1663C57.0496 39.9902 56.991 39.7996 56.9396 39.6162C56.9983 39.6529 57.057 39.6896 57.1156 39.7189C57.5044 39.9096 57.9298 40.0416 58.5018 40.0563C58.6412 40.0929 58.7879 40.0049 58.8245 39.8656C58.8612 39.7262 58.7732 39.5795 58.6338 39.5429C58.2891 39.3668 58.0618 39.1541 57.8417 38.9341C57.7537 38.8461 57.695 38.7507 57.6217 38.6554C57.5117 38.516 57.4383 38.3694 57.3577 38.2227C57.2477 38.01 57.1596 37.7826 57.079 37.5406C57.013 37.3426 56.9616 37.1299 56.9029 36.9172C57.1963 37.1299 57.5264 37.2912 57.9077 37.4452C58.0324 37.5333 58.1938 37.5039 58.2818 37.3792C58.3698 37.2546 58.3405 37.0932 58.2158 37.0052C57.9298 36.6825 57.7537 36.3671 57.563 36.037C57.4457 35.8317 57.3503 35.6263 57.255 35.4063C57.167 35.2009 57.079 34.9809 57.013 34.7462C56.9176 34.4235 56.8369 34.0641 56.7856 33.6461C56.7856 33.6167 56.7783 33.5947 56.7709 33.5654C56.7709 33.536 56.7563 33.514 56.7489 33.4847C56.7123 33.3894 56.6609 33.3087 56.5949 33.2427C56.5289 33.1767 56.4482 33.118 56.3529 33.0886C56.3309 33.0813 56.3015 33.074 56.2722 33.0666C56.2208 33.052 56.1695 33.052 56.1182 33.052C56.0668 33.052 56.0155 33.052 55.9641 33.0666C55.9348 33.0666 55.9128 33.0813 55.8835 33.0886C55.7881 33.1253 55.7074 33.1767 55.6414 33.2427C55.5754 33.3087 55.5241 33.3894 55.4874 33.4847C55.4801 33.5067 55.4728 33.536 55.4654 33.5654C55.4654 33.5947 55.4581 33.6167 55.4507 33.6461C55.3994 34.0568 55.3187 34.4162 55.2234 34.7462C55.15 34.9882 55.0694 35.2009 54.9813 35.4063C54.886 35.6263 54.7907 35.8317 54.6733 36.037C54.4826 36.3671 54.3066 36.6825 54.0132 37.0052C53.8885 37.0932 53.8592 37.2546 53.9472 37.3792C54.0352 37.5039 54.1966 37.5259 54.3213 37.4452C54.71 37.2912 55.0327 37.1299 55.3261 36.9172C55.2747 37.1299 55.216 37.3352 55.15 37.5406C55.0767 37.7826 54.9887 38.01 54.8713 38.2227C54.7906 38.3694 54.7173 38.516 54.6073 38.6554C54.5339 38.7434 54.4753 38.8461 54.3873 38.9341C54.1746 39.1541 53.9472 39.3668 53.6025 39.5429C53.4558 39.5795 53.3751 39.7262 53.4118 39.8656C53.4485 40.0122 53.5952 40.0929 53.7345 40.0563C54.2993 40.0416 54.732 39.9096 55.1207 39.7189C55.1867 39.6896 55.2454 39.6529 55.2967 39.6162C55.2454 39.8069 55.1867 39.9902 55.1207 40.1663C55.0327 40.4083 54.93 40.6283 54.798 40.841C54.7026 40.9877 54.6073 41.1271 54.4826 41.2591C54.4019 41.3471 54.3286 41.4351 54.2259 41.5158C53.9765 41.7065 53.7125 41.8972 53.3238 42.0292C53.1771 42.0439 53.0744 42.1832 53.0891 42.3299C53.1038 42.4766 53.2431 42.5793 53.3898 42.5646C53.9765 42.616 54.4386 42.5426 54.8567 42.3813C55.084 42.3006 55.2674 42.1759 55.4434 42.0365V44.4495C54.4973 43.9875 52.5023 43.1294 49.1726 42.1686C48.6518 42.0219 48.1091 41.8605 47.5223 41.7211C46.9943 41.5965 46.4368 41.4498 45.8428 41.3911C45.3514 41.3398 44.8746 41.3838 44.3466 41.3838C44.2292 41.3544 44.1119 41.4278 44.0825 41.5451C44.0532 41.6625 44.1265 41.7798 44.2439 41.8092C44.6546 42.0219 45.0067 42.2346 45.4027 42.4106C45.8061 42.5793 46.2168 42.6966 46.6055 42.8213C46.9943 42.946 47.3683 43.056 47.735 43.166C49.5759 43.7088 51.0575 44.1708 52.209 44.5889C52.8544 44.8236 53.3971 45.0363 53.8372 45.2196C51.9669 45.6744 49.928 46.2171 47.735 46.8112C46.3122 47.1999 44.1559 48.036 41.7575 49.0775V46.0777C41.8382 46.1584 41.9189 46.2391 42.0069 46.3124C42.2123 46.4811 42.4396 46.6352 42.711 46.7452C43.2024 46.9432 43.7671 47.0532 44.4712 47.0165C44.6179 47.0312 44.75 46.9285 44.772 46.7819C44.7866 46.6352 44.6839 46.5032 44.5373 46.4811C43.9505 46.3051 43.5471 46.0264 43.1951 45.7404C42.9457 45.535 42.7623 45.3003 42.601 45.0436C42.425 44.7796 42.2929 44.4862 42.1756 44.1782C42.0436 43.8188 41.9336 43.4301 41.8382 43.0413C42.0069 43.2027 42.1903 43.3494 42.403 43.4594C42.8577 43.7088 43.3784 43.8701 44.0532 43.9214C44.1925 43.9581 44.3392 43.8701 44.3759 43.7308C44.4126 43.5841 44.3246 43.4447 44.1852 43.4007C43.6498 43.1587 43.3051 42.8433 42.997 42.5206C42.7844 42.2932 42.6303 42.0512 42.491 41.7872C42.3443 41.5158 42.2269 41.2224 42.1316 40.9144C42.0142 40.533 41.9116 40.1369 41.8162 39.7189C41.8529 39.7556 41.8896 39.7849 41.9262 39.8216C42.3296 40.1809 42.7917 40.445 43.3491 40.7017C43.4664 40.7897 43.6351 40.7604 43.7231 40.6357C43.8111 40.5183 43.7818 40.3496 43.6571 40.2616C43.2831 39.8802 43.0337 39.4989 42.777 39.0955C42.6157 38.8388 42.4836 38.5821 42.359 38.3034C42.2416 38.0393 42.1316 37.7679 42.0436 37.4599C41.9262 37.0492 41.8236 36.5945 41.7575 36.0737C41.7575 36.0444 41.7502 36.0224 41.7429 35.993C41.7429 35.9637 41.7282 35.9417 41.7209 35.9124C41.6842 35.8244 41.6329 35.7363 41.5668 35.6703C41.5008 35.6043 41.4202 35.5456 41.3248 35.5163C41.2955 35.509 41.2735 35.5016 41.2441 35.4943C41.1928 35.4796 41.1415 35.4796 41.0901 35.4796C41.0388 35.4796 40.9874 35.4796 40.9361 35.4943C40.9068 35.4943 40.8848 35.509 40.8554 35.5163C40.7674 35.553 40.6794 35.6043 40.6134 35.6703C40.5474 35.7363 40.496 35.817 40.4594 35.9124C40.452 35.9417 40.4447 35.9637 40.4374 35.993C40.4374 36.0224 40.43 36.0444 40.4227 36.0737C40.3567 36.5945 40.254 37.0492 40.1367 37.4599C40.0486 37.7679 39.9386 38.0467 39.8213 38.3034C39.6966 38.5821 39.5646 38.8461 39.4032 39.0955C39.1539 39.4915 38.8972 39.8802 38.5231 40.2616C38.4058 40.3496 38.3764 40.511 38.4571 40.6357C38.5451 40.7604 38.7065 40.7824 38.8311 40.7017C39.3885 40.4523 39.8506 40.1809 40.254 39.8216C40.2907 39.7922 40.3273 39.7556 40.364 39.7189C40.2687 40.1369 40.1733 40.533 40.0486 40.9144C39.9533 41.2224 39.8359 41.5158 39.6893 41.7872C39.5499 42.0439 39.3959 42.2932 39.1832 42.5206C38.8751 42.8433 38.5304 43.1587 37.995 43.4007C37.8483 43.4374 37.7677 43.5841 37.8043 43.7308C37.841 43.8775 37.9877 43.9581 38.127 43.9214C38.8018 43.8701 39.3225 43.7088 39.7773 43.4594C39.99 43.3421 40.1733 43.1954 40.342 43.0413C40.2467 43.4374 40.144 43.8188 40.0046 44.1782C39.8873 44.4862 39.7553 44.7796 39.5792 45.0436C39.4179 45.293 39.2345 45.535 38.9852 45.7404C38.6331 46.0337 38.2297 46.3051 37.643 46.4811C37.4963 46.4958 37.3936 46.6352 37.4083 46.7819C37.4229 46.9285 37.5623 47.0312 37.709 47.0165C38.4131 47.0532 38.9778 46.9432 39.4692 46.7452C39.7333 46.6352 39.9606 46.4811 40.1733 46.3124C40.2613 46.2391 40.3493 46.1584 40.4227 46.0777V49.6716C40.2687 49.7376 40.1147 49.8109 39.9606 49.8769C36.8509 51.2778 33.5504 52.8913 31.0421 54.1895V51.3218C31.1301 51.4172 31.2254 51.5052 31.3281 51.5858C31.5408 51.7619 31.7682 51.9159 32.0396 52.0259C32.5383 52.2313 33.1177 52.3413 33.8365 52.3046C33.9831 52.3193 34.1152 52.2166 34.1372 52.0699C34.1518 51.9232 34.0492 51.7912 33.9025 51.7692C33.2937 51.5932 32.883 51.3145 32.5236 51.0138C32.2669 50.8011 32.0836 50.559 31.9075 50.3023C31.7315 50.031 31.5848 49.7303 31.4675 49.4149C31.3208 49.0262 31.2108 48.6154 31.1154 48.1974C31.2914 48.3734 31.4895 48.5347 31.7242 48.6668C32.1862 48.9161 32.7216 49.0922 33.4037 49.1435C33.5504 49.1802 33.6971 49.0922 33.7338 48.9528C33.7705 48.8135 33.6824 48.6668 33.5431 48.6301C32.993 48.3807 32.6336 48.0654 32.3256 47.7353C32.1056 47.5006 31.9442 47.2513 31.8048 46.9872C31.6582 46.7085 31.5335 46.4078 31.4308 46.0924C31.2988 45.689 31.1961 45.2636 31.1008 44.8162C31.1448 44.8676 31.1961 44.9116 31.2474 44.9556C31.6582 45.3223 32.1276 45.601 32.6996 45.8577C32.8243 45.9457 32.9857 45.9164 33.0737 45.7917C33.1617 45.6744 33.1324 45.5057 33.0077 45.4177C32.6263 45.0289 32.3623 44.6329 32.1056 44.2295C31.9369 43.9728 31.8049 43.7014 31.6728 43.4154C31.5481 43.144 31.4381 42.8653 31.3501 42.5499C31.2254 42.1319 31.1227 41.6625 31.0567 41.1271C31.0567 41.0977 31.0567 41.0757 31.0421 41.0464C31.0421 41.0171 31.0274 40.995 31.0201 40.9657C30.9834 40.8704 30.9321 40.7897 30.8661 40.7237C30.8 40.6577 30.7194 40.599 30.624 40.5697C30.5947 40.5623 30.5727 40.555 30.5433 40.5477C30.492 40.533 30.4407 40.533 30.3893 40.533C30.338 40.533 30.2866 40.533 30.2353 40.5477C30.206 40.5477 30.184 40.5623 30.1546 40.5697C30.0593 40.6063 29.9786 40.6577 29.9126 40.7237C29.8466 40.7897 29.7952 40.8704 29.7586 40.9657C29.7512 40.995 29.7439 41.0171 29.7366 41.0464C29.7366 41.0757 29.7292 41.0977 29.7219 41.1271C29.6559 41.6625 29.5532 42.1319 29.4285 42.5499C29.3332 42.8653 29.2232 43.1514 29.1058 43.4154C28.9738 43.7014 28.8344 43.9655 28.6731 44.2295C28.4164 44.6402 28.1523 45.0289 27.771 45.4177C27.6463 45.5057 27.6169 45.667 27.705 45.7917C27.793 45.9091 27.9543 45.9457 28.079 45.8577C28.6437 45.601 29.1205 45.3223 29.5312 44.9556C29.5826 44.9116 29.6339 44.8676 29.6779 44.8162C29.5752 45.2563 29.4725 45.689 29.3479 46.0924C29.2452 46.4078 29.1278 46.7085 28.9738 46.9872C28.8271 47.2513 28.6731 47.5079 28.4531 47.7353C28.1377 48.0654 27.7856 48.3807 27.2356 48.6301C27.0889 48.6668 27.0082 48.8135 27.0449 48.9528C27.0815 49.0922 27.2282 49.1802 27.3676 49.1435C28.0497 49.0922 28.5851 48.9235 29.0471 48.6668C29.2818 48.5421 29.4799 48.3734 29.6559 48.1974C29.5605 48.6154 29.4432 49.0262 29.3038 49.4149C29.1865 49.7303 29.0471 50.031 28.8638 50.3023C28.6951 50.559 28.5044 50.8011 28.255 51.0138C27.8956 51.3145 27.4776 51.5932 26.8762 51.7692C26.7295 51.7839 26.6268 51.9232 26.6415 52.0699C26.6561 52.2166 26.7955 52.3193 26.9422 52.3046C27.661 52.3413 28.233 52.2313 28.7391 52.0259C29.0105 51.9159 29.2378 51.7619 29.4505 51.5858C29.5532 51.5052 29.6486 51.4098 29.7366 51.3218V54.8936C29.4139 55.0697 29.1131 55.231 28.8344 55.385C26.6781 56.5805 24.5512 57.6073 22.4536 58.4948V54.0648C22.4536 54.0648 22.4609 54.0722 22.4682 54.0795C22.791 54.4022 23.1723 54.6809 23.6417 54.8496C24.1918 55.0476 24.8226 55.1136 25.5927 55.0183C25.7394 55.0183 25.864 54.9083 25.8714 54.7616C25.8714 54.6149 25.7614 54.4902 25.6147 54.4829C24.9912 54.3582 24.5439 54.1089 24.1478 53.8448C23.8691 53.6615 23.6491 53.4341 23.451 53.1994C23.2457 52.95 23.077 52.6713 22.9376 52.3633C22.7543 51.9672 22.6149 51.5418 22.5049 51.1018C22.5783 51.1751 22.6589 51.2485 22.7396 51.3218C22.9523 51.4978 23.1797 51.6518 23.451 51.7619C23.9498 51.9672 24.5292 52.0772 25.2479 52.0406C25.3946 52.0552 25.5267 51.9525 25.5487 51.8059C25.5633 51.6592 25.4607 51.5272 25.314 51.5052C24.7052 51.3291 24.2945 51.0504 23.9351 50.7497C23.6784 50.537 23.4877 50.295 23.319 50.0383C23.143 49.7669 22.9963 49.4662 22.879 49.1508C22.7323 48.7621 22.6223 48.3514 22.5196 47.9333C22.7029 48.1094 22.8936 48.2707 23.1283 48.4027C23.5904 48.6594 24.1258 48.8281 24.8079 48.8795C24.9546 48.9161 25.0939 48.8281 25.1379 48.6888C25.1746 48.5421 25.0866 48.3954 24.9473 48.3587C24.3972 48.1094 24.0378 47.794 23.7297 47.4639C23.5097 47.2292 23.3484 46.9799 23.209 46.7159C23.055 46.4371 22.9376 46.1364 22.835 45.8211C22.7029 45.4177 22.6003 44.9923 22.5049 44.5449C22.5489 44.5962 22.6003 44.6402 22.6516 44.6842C23.0623 45.0509 23.5317 45.3297 24.1038 45.5864C24.2211 45.6744 24.3898 45.645 24.4779 45.5204C24.5659 45.3957 24.5365 45.2343 24.4118 45.1463C24.0305 44.7576 23.7664 44.3689 23.5097 43.9581C23.341 43.7014 23.209 43.43 23.077 43.144C22.9523 42.8726 22.8423 42.5939 22.7543 42.2786C22.6296 41.8605 22.5269 41.3911 22.4609 40.8557C22.4609 40.8264 22.4536 40.797 22.4462 40.775C22.4462 40.7457 22.4316 40.7237 22.4242 40.6943C22.3876 40.599 22.3362 40.5183 22.2702 40.4523C22.2042 40.3863 22.1235 40.335 22.0282 40.2983C21.9988 40.291 21.9768 40.2836 21.9475 40.2763C21.8962 40.2616 21.8448 40.2543 21.7935 40.2543C21.7421 40.2543 21.6908 40.2543 21.6395 40.2763C21.6101 40.2763 21.5881 40.291 21.5588 40.2983C21.4634 40.335 21.3828 40.3863 21.3167 40.4523C21.2507 40.5183 21.1994 40.599 21.1627 40.6943C21.1554 40.7237 21.1481 40.7457 21.1407 40.775C21.1407 40.8044 21.1334 40.8264 21.1261 40.8557C21.06 41.3911 20.9574 41.8605 20.8327 42.2786C20.7373 42.5939 20.6273 42.88 20.51 43.144C20.378 43.43 20.2386 43.6941 20.0773 43.9581C19.8206 44.3689 19.5565 44.7576 19.1751 45.1463C19.0504 45.2343 19.0211 45.3957 19.1091 45.5204C19.1971 45.6377 19.3585 45.6744 19.4832 45.5864C20.0479 45.3297 20.5173 45.0509 20.9354 44.6842C20.9867 44.6402 21.038 44.5889 21.0821 44.5449C20.9794 44.9849 20.8767 45.4177 20.7447 45.8211C20.642 46.1364 20.5246 46.4371 20.3706 46.7159C20.2239 46.9799 20.0699 47.2366 19.8499 47.4639C19.5345 47.794 19.1825 48.1167 18.6324 48.3587C18.4857 48.3954 18.405 48.5421 18.4417 48.6888C18.4784 48.8281 18.625 48.9161 18.7644 48.8795C19.4465 48.8281 19.9819 48.6594 20.444 48.4027C20.6787 48.2781 20.8767 48.1167 21.0527 47.9333C20.9574 48.3514 20.84 48.7621 20.7007 49.1508C20.5833 49.4662 20.444 49.7669 20.2606 50.0383C20.0919 50.295 19.9012 50.537 19.6445 50.7497C19.2851 51.0504 18.8671 51.3291 18.2657 51.5052C18.119 51.5198 18.0163 51.6592 18.031 51.8059C18.0456 51.9525 18.185 52.0552 18.3317 52.0406C19.0504 52.0772 19.6225 51.9672 20.1286 51.7619C20.4 51.6518 20.6273 51.4978 20.84 51.3218C20.9207 51.2558 21.0014 51.1824 21.0747 51.1018C20.9647 51.5418 20.8253 51.9746 20.642 52.3633C20.5026 52.664 20.3339 52.9427 20.1286 53.1994C19.9306 53.4414 19.7105 53.6615 19.4318 53.8448C19.0358 54.1089 18.581 54.3509 17.965 54.4829C17.8183 54.4829 17.7009 54.6149 17.7083 54.7616C17.7083 54.9083 17.8403 55.0256 17.987 55.0183C18.7571 55.1136 19.3878 55.0476 19.9379 54.8496C20.4073 54.6809 20.7813 54.4022 21.1114 54.0795L21.1261 54.0648V59.0449C18.6617 60.0203 16.2267 60.8051 13.7991 61.4432C13.6157 61.4945 13.4323 61.5312 13.249 61.5899C12.9703 61.6706 12.6989 61.7586 12.4275 61.8539C11.7381 62.0886 11.0707 62.3453 10.3813 62.58C10.2419 62.6093 10.1466 62.7413 10.1759 62.888C10.2052 63.0274 10.3372 63.1227 10.4766 63.0934C11.2394 63.0421 11.9875 63.0054 12.7429 62.9027C13.0656 62.8587 13.381 62.8 13.7037 62.734C15.2659 62.404 16.8208 61.9346 18.383 61.4285C19.4685 61.0765 20.5613 60.6878 21.6541 60.2624C21.7348 60.233 22.3289 59.991 22.4096 59.9617C24.7419 59.0155 27.0962 57.8934 29.4945 56.5732C29.8466 56.3751 30.2426 56.1625 30.668 55.9351C30.712 55.9131 30.756 55.8911 30.7927 55.8691C33.3597 54.5122 37.0782 52.686 40.562 51.1165C43.5838 49.7596 46.4148 48.5934 48.1457 48.124C51.0795 47.3246 53.7272 46.6352 56.0815 46.0924C56.1328 46.0778 56.1842 46.0704 56.2429 46.0557C56.3015 46.0557 56.3602 46.0337 56.4115 46.0191C58.2598 45.601 59.9247 45.2783 61.3989 45.0803C62.0883 44.9849 62.7337 44.9189 63.3278 44.8676C63.8999 44.8162 64.4353 44.8016 64.912 44.7649C65.1541 44.7502 65.3741 44.7282 65.5868 44.7062C67.039 44.5449 67.8531 44.4715 67.8531 44.4715C67.9925 44.4862 68.1245 44.3835 68.1391 44.2442C68.1538 44.1048 68.0511 43.9728 67.9118 43.9581C67.9118 43.9581 67.4571 43.8261 66.5769 43.6868C66.2029 43.6281 65.7555 43.5694 65.2347 43.5401C65.1027 43.5327 64.9707 43.5254 64.8314 43.5254C64.3106 43.5254 63.7312 43.5474 63.1005 43.5988V41.3838C63.1005 41.3838 63.1151 41.3911 63.1225 41.3985C63.3058 41.5451 63.4965 41.6698 63.7312 41.7578C64.1566 41.9192 64.626 41.9999 65.2274 41.9485C65.3741 41.9632 65.5061 41.8605 65.5281 41.7138C65.5428 41.5671 65.4401 41.4351 65.2934 41.4131C64.8974 41.2811 64.6187 41.0904 64.3693 40.8924C64.2666 40.8117 64.1859 40.7164 64.1053 40.6283C63.9732 40.4963 63.8779 40.3496 63.7826 40.203C63.6432 39.9903 63.5405 39.7556 63.4452 39.5135C63.3718 39.3155 63.3132 39.1175 63.2545 38.9048C63.3205 38.9488 63.3938 38.9928 63.4672 39.0295C63.8632 39.2275 64.3033 39.3595 64.8754 39.3815C65.022 39.4182 65.1614 39.3302 65.1981 39.1908C65.2347 39.0441 65.1467 38.9048 65.0074 38.8608C64.6553 38.6774 64.4133 38.4647 64.1933 38.2447C64.1053 38.1567 64.0393 38.054 63.9659 37.9587C63.8559 37.8193 63.7752 37.6653 63.6872 37.5112C63.5699 37.2912 63.4818 37.0565 63.4012 36.8145C63.3352 36.5945 63.2691 36.3744 63.2105 36.1397C63.5185 36.3671 63.8632 36.5431 64.2666 36.7118C64.3913 36.7925 64.5527 36.7705 64.6407 36.6458C64.7287 36.5285 64.6993 36.3598 64.5747 36.2717C64.2813 35.9417 64.0979 35.619 63.8926 35.2816C63.7679 35.0762 63.6725 34.8636 63.5698 34.6362C63.4745 34.4235 63.3938 34.2035 63.3205 33.9541C63.2251 33.624 63.1371 33.25 63.0858 32.8246C63.0858 32.7953 63.0785 32.7733 63.0711 32.7439C63.0711 32.7146 63.0565 32.6926 63.0491 32.6633C63.0124 32.5753 62.9611 32.4872 62.8951 32.4212C62.8291 32.3552 62.7484 32.2965 62.6531 32.2672C62.6311 32.2599 62.6017 32.2525 62.5724 32.2452C62.521 32.2305 62.4697 32.2305 62.4184 32.2305H62.3744ZM46.2021 60.8784L46.0701 63.0494L47.3903 63.2694C46.9136 62.5287 46.5249 61.7292 46.2021 60.8711V60.8784ZM46.6935 52.642L46.4955 55.8838C46.7669 58.9495 47.5883 61.5899 49.2899 63.5995L51.1382 63.9149C49.4586 60.5851 48.4318 56.7859 46.6862 52.642H46.6935ZM47.1776 50.4123C49.5173 55.4877 50.5587 60.0863 52.7004 63.9882C55.4214 63.0347 67.6551 58.7588 67.6551 58.7588C67.1783 58.0474 66.3496 56.8372 65.2347 55.297C63.7019 53.1847 61.9856 49.5322 61.3989 48.234L47.1776 50.4123ZM24.7052 65.213C24.8812 65.235 24.8666 64.883 24.8886 64.531C24.8886 64.4283 24.8886 64.3256 24.8739 64.1936C24.8592 64.0689 24.8299 63.9369 24.7786 63.7975C24.7345 63.6802 24.6612 63.5628 24.5879 63.4381C24.4265 63.2401 24.2505 63.0347 24.0451 62.844C23.6711 62.5066 23.077 62.0006 22.9376 62.1179C22.8716 62.1693 22.9743 62.4626 23.011 62.5287C23.1357 62.8 23.6564 63.9662 23.6564 63.9662C23.7004 64.0469 23.7297 64.1349 23.7738 64.2082C23.8251 64.2889 23.8764 64.3623 23.9278 64.4356C24.0085 64.5383 24.0818 64.619 24.1478 64.6996C24.3972 64.9857 24.5659 65.191 24.7052 65.213ZM25.5487 65.213C25.622 65.2424 25.9521 64.861 26.1134 64.663C26.1794 64.575 26.2381 64.4943 26.2894 64.3916C26.3188 64.3329 26.3481 64.2669 26.3628 64.2009C26.3994 64.0762 26.4141 63.9442 26.4288 63.8122C26.4508 63.6728 26.4581 63.5408 26.4655 63.4161C26.5021 63.0347 26.5975 62.4993 26.5388 62.4406C26.4801 62.3893 26.3848 62.3893 26.3334 62.4553C26.2088 62.536 25.9374 62.8367 25.644 63.2768C25.5193 63.4601 25.402 63.6508 25.3213 63.8635C25.292 63.9368 25.2773 64.0102 25.27 64.0835C25.2553 64.2082 25.2553 64.3182 25.27 64.4283C25.3066 64.707 25.3506 65.1177 25.556 65.2057L25.5487 65.213ZM46.0995 49.2168C46.0555 49.2168 46.0115 49.2315 45.9674 49.2535C45.8941 49.2829 45.8281 49.3195 45.7694 49.3635C45.7181 49.4075 45.6667 49.4589 45.6301 49.5175C45.6154 49.5396 45.6007 49.5689 45.5861 49.5909C43.7892 53.126 40.1367 58.7295 37.7897 62.0446C37.6576 62.2353 37.6283 62.4773 37.7163 62.69C37.8043 62.9027 37.995 63.0567 38.2297 63.0934L52.2896 65.4697C52.3923 65.4917 52.5023 65.4844 52.605 65.4477H52.627L68.9313 59.7416C69.1293 59.6756 69.276 59.5216 69.342 59.3236C69.408 59.1255 69.386 58.9128 69.2686 58.7442C69.2686 58.7442 68.1978 57.0866 66.3349 54.5122C64.516 52.0039 62.4257 47.2219 62.4257 47.2219C62.301 46.9432 62.0076 46.7819 61.7069 46.8259L46.0995 49.2168ZM61.5602 65.6311C61.5602 65.7705 62.0516 66.0345 62.4844 66.1885C62.5724 66.2178 62.6531 66.2398 62.7484 66.2618C62.8071 66.2692 62.8658 66.2839 62.9244 66.2765C62.9831 66.2765 63.0418 66.2618 63.1005 66.2472C63.1958 66.2252 63.2765 66.1958 63.3645 66.1592C63.7825 65.9831 64.274 65.7118 64.2666 65.5798C64.252 65.2937 63.7752 65.191 63.3498 65.0297C63.2618 65.0003 63.1811 64.971 63.0858 64.949C63.0271 64.9343 62.9684 64.927 62.9098 64.927C62.8511 64.927 62.7924 64.9343 62.7337 64.949C62.6384 64.971 62.5577 64.993 62.4697 65.0297C62.0443 65.2057 61.5676 65.4844 61.5676 65.6238L61.5602 65.6311ZM15.6326 66.6212C15.6326 66.7606 16.1167 67.0246 16.5568 67.1786C16.6448 67.208 16.7255 67.23 16.8208 67.252C16.8795 67.2593 16.9381 67.274 16.9968 67.2666C17.0555 67.2666 17.1142 67.252 17.1729 67.2373C17.2682 67.2153 17.3489 67.186 17.4369 67.1493C17.8549 66.9733 18.339 66.7972 18.339 66.5699C18.339 66.3425 17.8476 66.1812 17.4149 66.0198C17.3269 65.9905 17.2462 65.9611 17.1509 65.9391C17.0922 65.9245 17.0335 65.9171 16.9748 65.9171C16.9161 65.9171 16.8575 65.9245 16.7988 65.9391C16.7035 65.9611 16.6228 65.9831 16.5348 66.0198C16.1094 66.1958 15.6326 66.4745 15.6326 66.6139V66.6212ZM30.0153 64.8683C30.1913 65.2644 30.4847 65.5871 30.9541 65.7851C31.5848 66.0491 32.3036 65.9025 32.8537 65.4257C33.4477 64.9123 33.8365 64.0175 33.5871 62.9981C33.5798 62.9541 33.5651 62.9101 33.5504 62.866C33.5798 62.9101 33.6091 62.9541 33.6384 62.9981C33.9685 63.5261 34.1298 64.0249 34.1885 64.4649C34.3059 65.323 34.0345 65.9171 34.0345 65.9171C33.9245 66.1518 33.9538 66.4305 34.1152 66.6286C34.2765 66.8339 34.5406 66.9292 34.7899 66.8779C35.4647 66.7386 35.9927 66.3352 36.3301 65.7265C36.3668 65.9538 36.3815 66.1812 36.3668 66.4159C36.3375 67.1126 36.1101 67.7947 35.406 68.3375C35.2813 68.4182 35.2447 68.5795 35.318 68.6969C35.3913 68.8215 35.56 68.8582 35.6774 68.7849C36.7188 68.2715 37.1956 67.4427 37.3863 66.5479C37.5403 65.8365 37.4743 65.081 37.3276 64.4209C37.0856 63.3061 36.5795 62.4773 36.5795 62.4773C36.4181 62.1986 35.626 61.2232 35.3253 61.3332C35.0173 61.4432 35.2887 62.602 35.34 62.9174C35.384 63.2034 35.406 63.4748 35.406 63.7242C35.2887 63.2694 35.0833 62.778 34.7679 62.2793C34.4232 61.7366 33.9611 61.4358 33.4991 60.7244C33.3231 60.453 33.147 60.1157 32.9783 59.6683C32.8757 59.3969 32.6923 58.5461 32.4063 58.5608C32.1129 58.5755 31.7828 59.4409 31.7022 59.7196C31.5188 60.343 31.4895 60.8711 31.5408 61.3258C31.5995 61.8979 31.7828 62.3526 31.9735 62.7267C32.0982 62.9687 32.2302 63.1594 32.2669 63.3208C32.3549 63.6948 32.2669 64.0322 32.0836 64.2742C31.9222 64.4796 31.6875 64.6409 31.4748 64.5456C31.2401 64.4429 31.1888 64.2156 31.1668 63.9809C31.1301 63.5702 31.2181 63.1227 31.2914 62.7707C31.3501 62.4773 31.3941 61.5605 31.1301 61.4212C30.8661 61.2818 30.3527 61.9566 30.1473 62.1693C30.1473 62.1693 28.5777 63.8122 28.5484 65.6457C28.5484 66.0565 28.5997 66.4745 28.7831 66.8779C29.0911 67.56 29.6706 68.2128 30.7414 68.6895C30.8661 68.7629 31.0274 68.7262 31.1008 68.6015C31.1741 68.4768 31.1374 68.3155 31.0127 68.2421C30.1766 67.5967 29.8686 66.9146 29.8026 66.2618C29.7879 66.0858 29.8026 65.9171 29.8172 65.7484C29.8466 65.4771 29.9053 65.2057 29.9933 64.9563L30.0153 64.8903V64.8683ZM46.9356 68.3888C46.9356 68.0514 46.3855 67.9707 46.2095 67.8974C46.0995 67.8534 46.0041 67.8167 45.8868 67.7874C45.7547 67.7507 45.6374 67.7214 45.5127 67.7067C45.3954 67.692 45.278 67.6994 45.168 67.6847C44.816 67.7067 44.5446 67.714 44.3099 67.7654C43.8258 67.8681 43.5544 68.0074 43.1364 68.1247C42.997 68.1247 42.8944 68.2495 42.8944 68.3815C42.8944 68.5208 43.019 68.6308 43.1511 68.6235C43.5104 68.6968 43.7671 68.7262 44.1339 68.7849C44.3759 68.8215 44.6399 68.8875 45.014 68.9975C45.1313 69.0122 45.256 69.0342 45.3807 69.0342C45.4981 69.0342 45.6081 69.0195 45.7254 68.9975C45.8574 68.9682 45.9821 68.9315 46.1141 68.8802C46.3195 68.7995 46.9356 68.6015 46.9356 68.3888ZM19.9672 71.6966C19.9892 71.9313 20.686 72.1073 20.9134 72.1733C21.0527 72.21 21.1701 72.2393 21.2947 72.254C21.3828 72.2613 21.4634 72.2687 21.5441 72.2687C21.8448 72.254 22.0722 72.21 22.2996 72.1807C22.6223 72.144 22.8936 72.1 23.2604 72.0046C23.3484 71.9826 23.7884 71.7993 23.7884 71.6672C23.7811 71.4325 23.2457 71.3665 23.1283 71.3298C22.857 71.2492 22.6443 71.1612 22.3876 71.0879C22.1455 71.0218 21.8888 70.9411 21.5515 70.9265C21.4634 70.9265 21.3681 70.9265 21.2654 70.9485C21.1334 70.9705 21.0014 70.9998 20.8473 71.0658C20.62 71.1612 19.9379 71.3665 19.9746 71.7039L19.9672 71.6966ZM50.9328 72.386C50.9328 72.6207 51.6516 72.7967 51.8789 72.8627C52.0183 72.8994 52.1356 72.9287 52.2603 72.9434C52.3483 72.9508 52.429 72.9581 52.5097 72.9581C52.8104 72.9434 53.0378 72.8994 53.2651 72.8701C53.6685 72.8187 53.9912 72.7674 54.512 72.6134C54.6513 72.6134 54.754 72.4887 54.754 72.3567C54.754 72.2173 54.6293 72.1146 54.4973 72.1146C54.0059 72.0119 53.7272 71.88 53.3605 71.7773C53.1184 71.7113 52.8617 71.6306 52.5243 71.6159C52.4363 71.6159 52.341 71.6159 52.2383 71.6379C52.1063 71.6599 51.9743 71.6892 51.8276 71.7553C51.6002 71.8506 50.9548 72.0633 50.9548 72.3933L50.9328 72.386ZM33.7191 70.4351L27.3236 72.7821C27.2942 72.8774 27.3309 72.9874 27.4262 73.0388C27.4996 73.0828 27.5949 73.0828 27.7123 73.0534L33.7705 70.5158C33.7705 70.5158 33.7558 70.4791 33.7485 70.4644C33.7411 70.4497 33.7264 70.4351 33.7118 70.4277L33.7191 70.4351ZM34.2985 71.7553L34.0418 71.8653C35.1346 72.7087 36.8215 74.0142 36.8215 74.0142C36.9242 74.0656 37.0196 74.0876 37.1002 74.0729C37.2029 74.0509 37.2689 73.9555 37.2689 73.8529L34.2985 71.7626V71.7553ZM26.6415 71.5939C26.5608 71.6306 26.4801 71.6819 26.4214 71.7406C25.7687 72.4007 25.8567 73.3908 26.4434 73.9629C26.8102 74.3223 27.3822 74.535 28.101 74.337C28.1303 74.3296 28.1597 74.3223 28.1817 74.3076L32.619 72.452L36.0441 75.0997C36.0441 75.0997 36.0881 75.1364 36.1174 75.1511C36.7629 75.5324 37.3716 75.4665 37.819 75.2171C38.5378 74.8137 38.8752 73.8822 38.4131 73.0754C38.3617 72.9874 38.2957 72.9141 38.2151 72.8554L36.9315 71.9533L37.6943 72.21C37.7383 72.2246 37.7897 72.232 37.8337 72.2393C38.6845 72.3273 39.2492 71.9093 39.4986 71.3885C39.7919 70.7725 39.6673 69.9804 39.0218 69.5256C38.9412 69.467 38.8531 69.4303 38.7578 69.4083C38.7578 69.4083 38.4204 69.3423 37.951 69.2836C37.7017 69.2542 37.423 69.2249 37.1369 69.2029C36.8509 69.1809 36.5648 69.1809 36.3155 69.1809C35.8241 69.1809 35.4794 69.2029 35.4794 69.2029C35.3547 69.1809 35.2373 69.2616 35.2153 69.3863C35.1933 69.511 35.274 69.6283 35.3987 69.6503C35.3987 69.6503 35.7067 69.797 36.1614 69.9877C36.3961 70.083 36.6602 70.1857 36.9315 70.2737C37.2029 70.3617 37.4743 70.4424 37.7163 70.5084C37.951 70.5744 38.1564 70.6184 38.2957 70.6551C38.3177 70.7138 38.2957 70.7871 38.2591 70.8311C38.2151 70.8825 38.1344 70.8971 38.0464 70.8898C38.0464 70.8898 35.7727 70.1344 34.9513 69.863C34.6799 69.3569 34.1298 68.9829 33.4624 69.1002C33.4257 69.1002 33.3891 69.1149 33.3524 69.1296L31.7608 69.7163L27.5729 70.4864C27.4776 70.4864 27.4042 70.4571 27.3602 70.3984C27.3236 70.3544 27.3162 70.2884 27.3382 70.2297C27.5729 70.2077 27.9763 70.1637 28.4384 70.0977C28.7171 70.061 29.0105 70.0097 29.3112 69.951C29.6926 69.8776 30.0666 69.797 30.3967 69.7163C31.0347 69.5623 31.4748 69.4229 31.4748 69.4229C31.5995 69.4156 31.6948 69.2982 31.6802 69.1736C31.6728 69.0489 31.5555 68.9536 31.4308 68.9682C31.4308 68.9682 30.9687 68.9095 30.316 68.8729C29.9713 68.8509 29.5972 68.8362 29.2085 68.8289C28.9078 68.8289 28.5997 68.8289 28.321 68.8435C27.5803 68.8729 27.0009 68.9316 27.0009 68.9316C26.9055 68.9389 26.8102 68.9682 26.7222 69.0196C26.0401 69.4083 25.8274 70.1857 26.0621 70.8311C26.1647 71.1245 26.3628 71.3959 26.6488 71.5866L26.6415 71.5939ZM40.3494 75.3931C40.3494 75.6058 40.8994 75.7965 41.3908 75.9505C41.4935 75.9799 41.5888 76.0018 41.7062 76.0165C41.7722 76.0238 41.8456 76.0385 41.9116 76.0312C41.9849 76.0312 42.0509 76.0165 42.1169 76.0018C42.2269 75.9798 42.3223 75.9505 42.425 75.9138C42.9017 75.7451 42.9017 75.7452 43.1951 75.5838C43.2977 75.5251 43.4444 75.4664 43.4371 75.3271C43.4371 75.1877 42.8797 74.931 42.3956 74.7843C42.2929 74.755 42.1976 74.7257 42.0803 74.7037C42.0142 74.689 41.9409 74.6816 41.8749 74.6816C41.8089 74.6816 41.7355 74.6963 41.6695 74.7037C41.5595 74.7257 41.4568 74.7477 41.3615 74.7843C40.8774 74.953 40.342 75.107 40.342 75.3784L40.3494 75.3931Z" fill="black"/>
</svg>
