<svg width="75" height="75" viewBox="0 0 75 75" fill="none" xmlns="http://www.w3.org/2000/svg">
<path d="M63.2893 11.238C56.2036 4.31038 46.843 0.53454 36.9295 0.676726C27.0238 0.795215 17.7501 4.76065 10.8225 11.8463C3.89482 18.9319 0.150581 28.2925 0.261171 38.2061C0.379659 48.1117 4.34508 57.3854 11.4307 64.3131C18.4136 71.138 27.6005 74.8744 37.3481 74.8744C37.4982 74.8744 37.6483 74.8744 37.7905 74.8744C47.6961 74.7559 56.9699 70.7904 63.8975 63.7048C70.8251 56.6192 74.5694 47.2586 74.4588 37.345C74.3403 27.4394 70.3749 18.1657 63.2893 11.238ZM12.9237 13.8922C19.3063 7.36737 27.8374 3.71001 36.969 3.60732C37.1033 3.60732 37.2376 3.60732 37.3797 3.60732C46.3533 3.60732 54.8213 7.05139 61.2513 13.3392C67.776 19.7139 71.4334 28.253 71.5361 37.3845C71.6388 46.5081 68.1868 55.1342 61.8121 61.6589C55.4374 68.1837 46.8983 71.841 37.7668 71.9437C28.6669 72.0543 20.0172 68.5944 13.4924 62.2197C6.96763 55.8451 3.31028 47.306 3.20759 38.1744C3.1049 29.0508 6.55687 20.4248 12.9316 13.9001L12.9237 13.8922Z" fill="black"/>
<path d="M27.6476 39.3672C29.5908 39.3672 31.1706 34.13 31.1706 27.6763C31.1706 21.2226 29.5908 15.9775 27.6476 15.9775C25.7044 15.9775 24.1245 21.2147 24.1245 27.6763C24.1245 34.1379 25.7044 39.3672 27.6476 39.3672Z" fill="black"/>
<path d="M48.6915 39.3672C50.6347 39.3672 52.2146 34.13 52.2146 27.6763C52.2146 21.2226 50.6347 15.9775 48.6915 15.9775C46.7483 15.9775 45.1685 21.2147 45.1685 27.6763C45.1685 34.1379 46.7483 39.3672 48.6915 39.3672Z" fill="black"/>
<path d="M14.156 41.2314C14.1718 42.2662 14.2586 43.5301 14.5272 44.9678C14.7879 46.4055 15.2144 48.009 15.8938 49.6994C16.5731 51.382 17.4973 53.1593 18.7454 54.8655C19.3537 55.7344 20.0725 56.5559 20.8229 57.3696C21.5891 58.1832 22.4502 58.9415 23.3586 59.6683C25.1991 61.098 27.3398 62.3145 29.678 63.1361C30.8471 63.5389 32.0556 63.8706 33.2958 64.0839C34.4965 64.2814 35.9184 64.3999 37.0085 64.4078L38.0038 64.3762C38.3198 64.3762 38.6357 64.3367 38.9438 64.313C39.5757 64.2735 40.1919 64.1708 40.8159 64.0839C42.0561 63.8706 43.2647 63.5389 44.4338 63.1361C46.7719 62.3066 48.9048 61.098 50.7453 59.6683C51.6616 58.9415 52.5147 58.1832 53.2809 57.3696C54.0393 56.548 54.7581 55.7344 55.3584 54.8655C56.6065 53.1593 57.5307 51.3899 58.2101 49.6994C58.8894 48.009 59.316 46.4055 59.5766 44.9678C59.8373 43.5301 59.9321 42.2662 59.9479 41.2314C59.9479 41.0102 59.9479 40.8128 59.9558 40.6153C62.8943 40.5047 65.2483 37.582 65.2483 36.8394C65.2483 36.0969 62.7995 37.8821 59.782 37.8821C56.7645 37.8821 54.3157 36.0811 54.3157 36.8394C54.3157 37.5978 56.5275 40.3309 59.3476 40.5995C59.3081 40.7733 59.2765 40.9549 59.2291 41.1445C59.0237 42.1319 58.6919 43.3089 58.2259 44.6123C57.7598 45.9157 57.1437 47.3375 56.3221 48.7989C55.5006 50.2603 54.4895 51.7611 53.2335 53.1672C52.6174 53.886 51.9302 54.5654 51.2034 55.2289C50.4609 55.8766 49.6789 56.5007 48.8494 57.0773C48.0042 57.6381 47.1274 58.1674 46.1953 58.6335C45.2632 59.0837 44.2995 59.4787 43.2963 59.8105C42.2931 60.1264 41.2662 60.3634 40.2235 60.5451C39.6942 60.6083 39.1729 60.6952 38.6436 60.7267C38.375 60.7425 38.1144 60.7741 37.8458 60.7741L37.0954 60.79C35.8631 60.7821 34.9547 60.7031 33.8725 60.5451C32.8298 60.3634 31.795 60.1264 30.7997 59.8105C29.8044 59.4787 28.8407 59.0837 27.9007 58.6335C26.9764 58.1753 26.0996 57.6381 25.2465 57.0773C24.4171 56.5007 23.635 55.8766 22.8925 55.2289C22.1658 54.5654 21.4786 53.886 20.8624 53.1751C19.6064 51.7611 18.5874 50.2603 17.7738 48.8068C16.9523 47.3455 16.3361 45.9236 15.8701 44.6202C15.404 43.3168 15.0723 42.1399 14.8669 41.1603C14.8195 40.9708 14.7879 40.7891 14.7484 40.6153C17.5605 40.3467 19.7802 37.5741 19.7802 36.8552C19.7802 36.0969 17.3314 37.898 14.3139 37.898C11.2964 37.898 8.84766 36.0969 8.84766 36.8552C8.84766 37.6136 11.2016 40.5205 14.1402 40.6311C14.1402 40.8285 14.1402 41.0339 14.1481 41.2472L14.156 41.2314Z" fill="black"/>
</svg>
