<?xml version="1.0" encoding="UTF-8"?>
<svg id="Layer_1" data-name="Layer 1" xmlns="http://www.w3.org/2000/svg" viewBox="0 0 160.18 121.12">
  <defs>
    <style>
      .cls-1 {
        fill-rule: evenodd;
        stroke-width: 0px;
      }
    </style>
  </defs>
  <g id="xHy90r">
    <path class="cls-1" d="m25.55,41.38c.3.9,1.11,1.68.5,2.92-.43-.24-.86-.54-1.33-.74-.35-.15-.77-.3-1.13-.24-.14.02-.23.59-.27.92-.05.35,0,.72-.01,1.07-.06.9.09,1.58,1.22,1.67.39.03.88.36,1.09.69.52.83,1.21,1.08,2.13,1.02.8-.05,1.61-.13,2.08.83.12.24.74.32,1.13.32.75,0,1.19.22,1.16,1.05,0,.18.04.39.13.55.18.32,3.1,1.49,3.42,1.31.71-.4,1.15-.02,1.45.5.3.52.62.76,1.23.74.19,0,.39.23.59.35-.16.13-.29.33-.47.39-.45.16-.91.28-1.37.4-.12.03-.34,0-.37.06-.75,1.74-2.51.19-3.58,1.06-.16.13-1.05-.36-1.39-.75-.79-.9-.82-.92-1.78-.29-.71.47-1.44.99-2.24,1.18-.59.14-1.44.14-1.86-.62-.43-.78-.94-.87-1.63-.31-1,.81-1.23,1.52-.66,2.19.52.61,1.14,1.08,1.99.99.94-.1,1.67.08,2.18.99.33.61,1.3.87.96,1.94-.27-.03-.57-.06-.88-.09-.32-.03-.73-.21-.94-.07-.8.54-1.38.4-2.03-.27-.16-.16-.72.06-1.1.11.18.37.29.97.56,1.06,1.41.48,2.85.84,4.3,1.2.4.1.85-.02,1.27.03.81.09,1.48-.13,2.14-.62.92-.68,1.98-.32,2.48.68.12.24.66.54.75.47,1.23-.94,1.96.29,2.9.55.02.1.04.2.06.29-.85.25-1.69.55-2.56.73-.96.2-1.49.81-1.8,1.66-.27.72,0,1.13.74,1.09.4-.02.8-.2,1.17-.37,2.11-.96,2-.29,2.16,1.63-.39-.18-.73-.29-1.03-.48-.53-.33-1.04-.3-1.34.23-.29.51-.2,1.09.39,1.39,1.27.63,2.58,1.13,4.06.95.94-.12,1.15-.42.75-1.28-.53-1.13-.09-2.15,1.1-2.65.41-.17.71-.59,1.12-.76.73-.29,1.51-.46,2.26-.7.39-.12.76-.31,1.14-.46-.13-.31-.28-.88-.39-.88-.4.03-.78.25-1.35.47-.74-.68-1.85-.92-3.11-.64-.68.15-1.33-.67-1.27-1.4.04-.43-.1-.87-.12-1.31-.02-.31-.09-.76.08-.91.26-.23.71-.38,1.06-.35.49.05,1.02.23,1.43.5,1.13.74,2.12.29,3.03-.34.28-.19.48-1,.32-1.21-.4-.51-1.01-.87-1.58-1.21-.72-.43-1.52-.73-2.22-1.18-.12-.08-.07-.68.09-.91.57-.79,1.52-.83,2.6-.3.77.38,1.6.68,2.4,1.01.11-.1.22-.2.33-.29-.11-.47-.12-1.01-.36-1.4-.36-.58-.97-.46-1.55-.26-.87.3-1.24.1-1.1-.61.04-.21.3-.44.52-.55.27-.14.66-.09.9-.27.32-.24.54-.61.8-.93-.35-.13-.71-.23-1.04-.4-1.08-.54-2.21-.84-3.41-.97-.19-.02-.46-.45-.48-.71-.01-.18.31-.43.54-.56,1.18-.66,2.4-.87,3.7-.33.25.1.64.12.86,0,.29-.16.48-.5.72-.77-.24-.19-.46-.51-.72-.55-1.11-.17-1.72-.68-1.61-1.51.02-.18.16-.42.31-.5,1.8-.89,2.61-2.36,2.63-4.34,0-.54.1-1.12.97-1.07,0,.61-.04,1.19.01,1.77.04.44.12.89.29,1.3.28.67.63,1.31.96,1.96-.07.06-.14.12-.21.18.41.02.81.05,1.3.07,0,.37.1.73-.02,1-.29.64-.14,1.02.48,1.3.15.07.32.32.3.45-.16.87.53,1.25.97,1.78.71.87,1.42,1.74,2.05,2.66.31.45.2.86-.36,1.17-.41.22-.82.59-1.02.99-.09.19.22.77.49.92.38.21,1.04.22.77.81-.22.48-.74.89-1.22,1.18-.69.42-1.48.65-2.17,1.06-.2.12-.19.58-.28.89.3.01.7.16.89.02,1.12-.81,2.35-.4,3.53-.36.68.03,1.04.5.82,1.22-.26.86-.57,1.54-1.69,1.76-1.02.2-2.07.75-2.89,1.41-.95.77-1.64.98-2.54-.52-.2.74-.3,1.12-.4,1.5.39.09.78.28,1.16.26,1.3-.06,2.6-.75,3.9,0,.08.04.19.02.29.01,1.41-.11,2.83-.18,4.24-.35.89-.11,1.53.27,1.71,1.1.06.29.36.75.57.76.36.02.79-.19,1.09-.43.23-.18.38-.54.43-.84.44-2.95,2.48-4.55,4.82-5.96,1.25-.75,2.42-1.67,3.57-2.57.24-.19.27-.65.4-.99-.3-.04-.62-.14-.91-.11-.58.07-.69-.28-.82-.71-.07-.24-.29-.62-.42-.61-.24,0-.53.22-.68.43-.32.43-.52.96-.86,1.38-.7.87-1.6.68-1.97-.37-.28-.8-.63-.9-1.23-.31-.25.25-.46.54-.7.8-.1.12-.21.32-.32.33-.83.07-1.66.11-2.58.16-.07-.98.73-1.53,1.22-2.21.42-.58.96-1.08,1.41-1.64,1-1.23,1.98-2.46,2.94-3.72.17-.22.23-.58.23-.87,0-.47-.15-.95-.13-1.42.05-.87.43-1.06,1.29-.97.36.04.9-.18,1.12-.46.34-.44.03-.77-.44-1.05-.43-.26-.76-.71-1.12-1.08-.47-.49-.82-.63-1.08.2-.18.56-.41,1.19-1.22.51-.13-.11-.64.1-.89.28-.3.21-.5.55-.83.94-.68-1.03-.3-1.88.03-2.72.75-1.92,2.28-3.25,3.67-4.65.66-.66,1.68-1.04,2.6-1.36,1.14-.4,1.74-1,1.69-2.07-1.24.17-2.49.34-3.83.52-.06-1.36.84-2.03,1.64-2.73.7-.61,1.5-1.09,2.2-1.7.21-.18.22-.59.32-.89-.29.1-.59.18-.87.31-.82.4-1.63.82-2.46,1.22-.62.3-1.24.58-1.94.9-.74-.54-.5-2.6.51-3,1.45-.57,2.39-1.66,3.19-2.93.56-.89,1.18-1.75,1.66-2.68.31-.61.39-1.33.61-1.98.16-.45.39-.88.69-1.54.53,1.51.85,2.7,1.37,3.8.29.62.91,1.08,1.37,1.62.33.39.72.75.96,1.2.13.24.13.7-.02.9-.15.19-.58.24-.87.21-.56-.06-1.11-.26-1.68-.32-.2-.02-.42.19-.63.3.11.21.17.53.34.61.71.34,1.53.49,2.16.93,1.33.93,2.74,1.83,3.14,3.59.1.43.31.84.37,1.28.03.22-.1.58-.28.69-.15.09-.54,0-.69-.15-.36-.35-.66-.57-1.18-.28-.15.08-.46-.12-.69-.2-.36-.12-.72-.23-1.07-.36-.46-.17-.91-.35-1.37-.51-.26-.09-.59-.3-.77-.22-.24.11-.49.44-.54.71-.2.94.23,1.41,1.08,1.87,1.34.73,2.82,1.23,3.91,2.43.59.65,1.38,1.15,2.14,1.6.94.56,1.52,1.35,1.94,2.32.21.49.03.65-.44.82-.52.2-1.19.49-1.38.92-.14.31.37.95.66,1.39.74,1.11,1.57,2.16,2.27,3.29.21.34.18.87.14,1.31-.01.12-.55.37-.66.29-.66-.46-1.37-.91-1.88-1.52-.86-1.01-1.37-1.16-2.43-.4-.55.4-.97.13-1.2-.33-.36-.72-.9-.95-1.65-.88-.25.02-.5-.07-.76-.1-.35-.04-.69-.06-1.04-.09-.04.51-.16,1.03-.09,1.53.03.24.39.48.65.64,1.23.78,2.48,1.52,3.71,2.3.21.14.34.42.5.64.37.5.62,1.27,1.11,1.46,1.38.55,1.92,1.84,2.83,2.8.21.22.16.71.25,1.22-1.65-.35-3.17-.55-4.41-1.58-1.61.43-2.86-.78-4.32-1.01-.44,1.17-.07,1.9,1.03,2.18.88.22,1.74.72,2.67.06.12-.09.74.25.9.53.42.75,1,.99,1.83.99,1.1,0,1.76.6,2.28,1.58.31.6,1.02.99,1.56,1.47.53.47,1.1.91,1.58,1.42.69.74,1.31.86,2.02.15.61-.61,1.21-1,2.12-.96.28.02.69-.3.87-.58.8-1.26,1.36-1.45,2.77-1.09.37.09,1-.21,1.27-.54.39-.48.68-.64,1.33-.53,1.42.23,2.87.31,4.31.39.16,0,.52-.44.48-.53-.23-.48-.46-1.12-.87-1.32-.88-.42-1.86-.64-2.82-.85-.71-.15-1.08-.41-1.43-1.15-.42-.9-.4-1.52.02-2.36.28-.56-.14-.97-.83-.84-.82.16-1.42-.17-1.97-.75-.51-.54-.2-.76.28-.96.35-.15.71-.29,1.3-.53-1.34-.98-2.46-1.79-3.57-2.61-.23-.17-.54-.32-.64-.56-.12-.29-.11-.67-.06-.99.01-.06.49-.11.74-.06.69.14,1.22.2,1.58-.67.34-.8,1.64-.89,3-.4,1.5.54,1.82.37,2.19-1.17.28-1.15.41-1.21,1.49-.82.21.08.47.04.71.02.64-.07,1.31-.06,1.89-.29.67-.26,1.26-.74,1.86-1.14.26-.17.59-.37.68-.63.15-.44.23-.96.12-1.39-.04-.18-.66-.35-.99-.3-.94.14-1.53-.43-2.09-.97-.54-.52-.99-.61-1.45,0-.72.96-1.74,1.04-2.79.92-.28-.03-.67-.31-.78-.58-.41-.95-1.07-1.3-2.07-1.16-.78.11-1.29-.21-1.53-1.21,1.68.15,3-.61,4.33-1.39.26-.16.65-.13.88-.32.22-.17.46-.53.42-.76-.09-.61.13-.89.69-.81,1.13.16,1.87-.38,2.63-1.12.59-.58,1.42-.91,2.12-1.38.26-.17.7-.48.66-.62-.09-.32-.37-.69-.67-.82-.23-.1-.69.03-.89.22-.36.35-.56.85-.9,1.23-.67.75-1.03.71-1.78.05-.68-.59-.97-1.65-2.08-1.73-.22-.01-.43-.13-.64-.14-1.16-.07-1.68-.7-1.33-1.81.08-.25.68-.46,1.04-.46.46-.01.92.26,1.38.3.33.02.79-.05,1-.27.55-.56,1.19-.61,1.91-.73.93-.15,1.82-.59,2.71-.95.13-.05.27-.4.22-.53-.08-.19-.32-.32-.52-.43-.3-.17-.62-.3-.94-.44.26-.31.49-.64.77-.92.23-.24.65-.38.75-.65.23-.63-.48-1.12-1.23-.88-.48.16-.94.46-1.43.51-.4.04-.99-.06-1.2-.33-.2-.25-.04-.81,0-1.23.02-.18.13-.35.27-.69-.91-.29-1.78-.54-2.63-.84-.23-.08-.39-.33-.59-.5.22-.16.42-.33.65-.47.46-.28,1.02-.45,1.38-.82.46-.47.94-.66,1.56-.56,1.63.27,2.27-.98,3.04-1.99.1-.13-.1-.7-.13-.7-.68.06-1.49-.04-2.01.31-1.1.74-1.4.78-2.4-.1-.56-.5-1.27-.82-1.89-1.25-.23-.16-.59-.45-.55-.58.08-.29.37-.72.6-.73.91-.06,1.8-.01,1.79-1.32,0-.09.41-.26.64-.27.52-.04,1.04-.01,1.56-.02.95,0,2.06-.77,2.41-1.64.38-.97-.09-2.01-1.26-2.4-.9-.3-.88-.66-.26-1.17,1.04-.85,1.43-1.93,1.35-3.25-.03-.5.08-1.02.2-1.52.05-.21.26-.38.4-.57.18.19.49.36.52.56.08.61.1,1.24.03,1.85-.16,1.53.02,2.87,1.54,3.71.25.13.47.38.62.62.31.51.46.98-.32,1.29-.33.13-.75.48-.78.78-.03.28.33.69.62.9,1.31.98,2.73,1.73,4.37,2.01.35.06.65.35,1.05.57-.6,1-1.23,1.78-2.38,1.98-1.01.17-2.11,1.79-2.39,2.73-.52,1.81,1.22,1.73,1.91,2.44.67.68.85.51.91,1.53.05.04.12.12.14.11,1.4-.61,2.91-.14,4.35-.46.24-.05.59.11.81.28.4.32.77.7,1.1,1.09.24.28.6.67.54.93-.07.29-.5.64-.83.72-.99.24-2.03.32-2.68,1.29-.07.11-.37.09-.55.08-.62-.05-.77.27-.77.83,0,.65.43.79.89.72.46-.07.88-.39,1.33-.47.34-.06.76.03,1.05.2.12.07.08.57-.01.82-.44,1.22-.31,1.42,1.03,1.43.23,0,.45,0,.74,0,.2,1.07-.7,1.4-1.23,1.9-.44.41-1.09.54-.94,1.41.03.19-.78.7-1.25.76-1.24.18-1.33.27-.84,1.38.15.35.1.79.25,1.13.12.26.4.56.65.62.69.14,1.2.36,1.54,1.08.17.35.79.59,1.25.68.56.12,1.16.03,1.74.03.08.08.15.17.23.25-.36.51-.73,1.02-1.21,1.7.71.13,1.37.26,2.02.39-.04.21-.04.31-.07.33-.97.53-1.98,1.1-2.94,1.52-1.09.48-2.7.72-3.89-.47-1.15-1.15-1.81-.89-2.94.35-.11.12-.22.24-.4.44.84,1,1.54,2.13,3.13,1.97.36-.04.81.03,1.1.22.74.5,1.46.84,2.39.56.27-.08.66,0,.92.14.24.14.45.45.5.71.02.12-.33.38-.55.49-.59.29-1.18.58-1.8.78-.4.13-.86.09-1.29.11-.66.04-1.34-.02-1.97.13-.23.05-.35.58-.53.88.3.08.61.26.88.22,1.57-.23,1.57-.25,2.07,1.19.31.89.74,1.06,1.69.59,1.46-.72,3.01-1.06,4.63-.94.44.03,1,.23,1.25.55.68.86,1.53,1.17,2.58,1.2.31.01.6.3.91.46-.21.23-.37.54-.63.69-.91.52-.96.64-.31,1.51,1.02,1.38.7,2.22-.97,2.4-.7.07-.68.51-.61.96.27,1.73.25,1.81-1.39,2.27-.75.21-1.57.54-2.3.43-.91-.14-1.79-.62-2.61-1.08-.64-.36-1.08-.31-1.5.25-.45.6-.88.62-1.52.15-.4-.29-1.26-.54-1.54-.33-.82.63-1.27.05-1.76-.33-.43-.33-.75-.81-1.24-1.36-.67.95-1.5,1.68-1.74,2.57-.36,1.34,1.42,2.45,2.96,2,1.03-.3,2.09-.76,3.17-.23.37.18.83.48.95.83.31.88.89,1.14,1.59.69,1.56-.99,3.11-.4,4.66-.11.5.09,1.23.2,1.41.54.38.73-.64.79-.9,1.26-.05.08-.12.15-.27.34.28.19.53.46.82.52,1.33.3,2.7.47,4.01.84.57.16,1.01.75,1.56,1.07.26.15.82.24.92.11.94-1.24,2.14-.6,3.29-.58,1.1.01,2.21-.13,3.29-.36.21-.04.27-.79.39-1.21-.44-.03-1.11-.26-1.29-.05-.73.79-1.3.64-1.93-.05-.09-.1-.32-.06-.44-.14-.32-.23-.63-.5-.94-.75.35-.14.69-.35,1.05-.41.79-.12,1.63-.04,2.39-.26.53-.14,1.14-.55,1.36-1.01.13-.28-.31-1.11-.69-1.28-.47-.21-1.24-.2-1.69.05-.9.5-1.62,1.4-2.73,1.42-.4,0-1.07-.32-1.17-.63-.18-.58-.3-.93-.99-.89-.22.01-.46-.28-.76-.77.64-.25,1.26-.6,1.92-.74.81-.17,1.68-.07,2.49-.25.59-.13,1.19-.45,1.68-.82.63-.49,1.16-1.11,1.73-1.68-.05-.12-.11-.25-.16-.37-.4.04-.83,0-1.19.14-.76.3-1.5.67-2.22,1.06-.76.42-1.42.64-2.35.23-.43-.19-1.19.37-1.81.57-.29.1-.68.33-.85.23-.36-.22-.62-.62-.9-.97-.04-.05.04-.31.11-.33,1.02-.34,1.62-1.75,3-1.17.66.28,1.18-.09,1.44-.6.34-.68.84-.73,1.49-.79,1.28-.12,2.56-.35,3.19-1.71.26-.57.48-1.12-.41-1.42-.43-.15-.8-.51-1.16-.82-.56-.47-1.05-.43-1.65-.03-1.27.84-2.03.76-2.64-.14-.47-.7-.16-1.53.61-1.88,1.06-.48,2.07-1.04,3.11-1.58.39-.2.84-.35,1.14-.64.43-.42.85-.92,1.07-1.46.18-.43-.7-.92-1.11-.51-1.11,1.1-1.92.56-2.92-.18-.93-.69-1.01-.59-1.12-1.1,1.29-.34,2.57-.64,3.83-1.04.69-.22,1.29-.62,1.19-1.53-.04-.32-.02-.65,0-.98.06-1.2-.1-1.35-1.29-1.2-.25.03-.51,0-.82,0-.03-.44-.05-.82-.07-1.24-.06-.04-.14-.08-.21-.13-.35-.31-.69-.62-1.04-.94.5-.33.99-.7,1.52-.99.27-.14.66-.06.91-.22.31-.19.73-.51.75-.8.04-.46-.1-1.03-.39-1.38-.12-.15-.85,0-1.18.22-.97.65-1.29-.26-1.71-.71-.53-.56.09-.77.46-1.07.5-.41.97-.68,1.67-.81,1.15-.21,1.79-1.73,1.11-2.84-.59-.96-.13-1.66.38-2.38.59.72,1.17,1.36,1.63,2.07.13.2.01.71-.17.94-.57.74-.51,1.25.33,1.67,1.12.57,2.26,1.12,3.39,1.67,0,.1.01.21.02.31-.59.32-1.18.66-1.77.96-1.15.59-1.78,1.79-1.55,3.02.03.17.14.37.27.48.66.56,1.33,1.11,2.03,1.62.18.13.48.16.73.15.72-.04,1.44-.1,2.15-.18.99-.11,1.67.26,2.02,1.22-.03.05-.05.14-.09.15-1.02.33-2.05.65-3.07.98-.24.08-.47.19-.71.28-.67.24-1.35.45-2.01.7-.26.1-.49.29-.73.45.27.17.54.51.8.5,1.31-.07,2.62-.25,3.94-.33.21-.01.64.34.62.37-.38.88,1.51,1.34.53,2.13-.75.61-1.2,1.72-2.42,1.72-.11,0-.34.32-.32.47.08.84-.35,1.03-1.06.94-.48-.06-.96-.2-1.42-.17-.36.03-.7.26-1.05.41.18.37.27.95.57,1.09,1.09.54,2.32.72,3.43.15.96-.49,1.57-.29,2.16.48.18.23.41.41.62.62.71.72.95,1.69.35,2-.57.3-1.53.39-2.06.11-.99-.54-1.86-.73-2.92-.32-.31.12-.73-.02-1.09-.04-.3-.02-.84-.12-.85-.08-.12.45-.24.94-.18,1.39.03.23.41.58.64.59,2.05.11,3.81,1.08,5.68,1.71,0,.1.01.19.02.29-.47.12-.93.34-1.4.36-.87.03-1.72-.04-2.44.65-.16.15-.58.04-.88,0-.34-.05-.68-.21-1.02-.21-.21,0-.54.16-.61.33-.08.19.02.52.15.7.56.75,1.59.88,2.5.48.48-.21,1.04-.29,1.57-.33.19-.01.52.25.59.46.37,1,.72,1.18,1.74.81.51-.18,1.04-.31,1.53-.52,1.56-.69,2.72.56,4.07.86.12.03.29.58.2.68-.46.53-.32.93.14,1.33.64.55.38.98-.25,1.22-.61.24-.89.58-.98,1.26-.14,1.19-2.12,1.64-3.3.8-.29-.2-.55-.46-.85-.62-.76-.4-1.48-.52-1.84.34-.65.06-1.21.07-1.75.19-.82.17-1.24-.46-1.74-.84-.5-.38-.8-.49-1.1.17-.19.43-.61.79-.7,1.22-.24,1.25.94,2.27,2.34,1.98.99-.2,1.76-.31,2.27.89.1.25,1.34.18,1.98,0,.76-.21,1.4-.61,2.28-.32,1.23.4,1.4.69.64,1.96,1.3.24,2.54.47,3.95.74-.27.35-.35.57-.49.62-.84.31-1.22.74-.9,1.75.27.86-1.05,1.82-1.92,1.53-.63-.21-1.28-.38-1.93-.5-.95-.18-1.5.26-1.6,1.19-.03.31-.11.62-.19,1,.6.5,1.22.41,1.92.11.38-.16,1.05-.28,1.25-.07.63.63,1.37.42,2.08.54,1,.17,1.99.48,3.24.8-1.02.78-1.89,1.28-2.55,1.98-1.29,1.37-2.71.64-4.13.47-.84-.1-1.71,0-2.52-.17-1.44-.31-3,.02-4.32-.91-.76-.53-1.43-.17-1.43.77,0,.8-.09,1.72.27,2.37.42.77,1.23,1.35,1.94,1.91,1.37,1.09,3.1,1.03,4.71,1.38,1.2.26,2.34.16,3.5-.17.23-.06.59.34.9.53-.35.46-.62,1.02-1.07,1.34-.28.2-.85.14-1.24.01-1.06-.35-1.97-.24-2.7.62-1.28-.66-2.54-.94-3.88-.26-.17.09-.49-.06-.71-.15-.71-.27-1.09-.04-1.14.72-.08,1.22.74,2.19,2.11,2.6,1,.3,1.97.7,2.98.98.91.25,1.85.46,2.79.59,1.37.18,2.75.31,4.12.38.59.03,1.24-.04,1.79-.25.61-.24.9.04,1.04.48.06.2-.19.54-.37.77-.65.83-1.42.89-2.36.44-.28-.14-1,0-1.09.21-.25.55.11.97.68,1.18,1.51.53,3.04.71,4.62.31.25-.06.56.05.84.08-.09.31-.08.71-.27.93-.78.9-1.78,1.15-2.95.9-.48-.1-1,.06-1.5,0-.47-.05-.98-.16-1.39-.38-.65-.36-1.19-.76-1.97-.19-.76.55-1.67.9-2.49,1.38-.23.13-.39.39-.58.6.05.09.1.19.15.28,1.32-.3,2.73-.4,3.92-.96.87-.41,1.06.03,1.48.45.25.25.53.55.86.65,2.84.87,5.69,1.68,8.52,2.57.49.15.89.59,1.33.89-.03.1-.07.21-.1.31-.86-.18-1.71-.51-2.58-.52-2.29-.03-4.34-.98-6.5-1.48-.06-.02-.13-.02-.19,0-1.48.35-2.91-.02-4.37-.14-1.09-.09-2.21.41-3.33.56-.83.11-1.68.12-2.51.08-.24-.01-.43-.42-.69-.59-.23-.14-.55-.33-.75-.26-.19.07-.41.44-.4.67.04.86.08,1.74.27,2.58.23,1.06.76,1.18,1.89.84.49-.15,1.19,0,1.64.25.32.18.39.79.56,1.17-.28.17-.37.23-.38.22-.89-.76-1.68-.63-2.63.02-.36.25-1.2.1-1.64-.16-.58-.36-.92-.39-1.55-.08-1.54.75-3.15,1.35-5,1.24.18-2.2-1.58-.35-2.18-1.11.09-.79.56-1.21,1.39-1.39,1.01-.22,1.95-.66,3.05-.4.52.12.8-.23.52-.79-.3-.59-.54-1.11.49-1.18.15,0,.41-.37.39-.54-.05-.32-.2-.68-.43-.88-.14-.12-.66-.06-.76.09-.55.81-1.1,1.36-2.1.62-.08-.06-.43.12-.55.27-.47.6-.88,1.25-1.33,1.86-.38.52-.83.69-1.51.47-.93-.31-1.91-.48-2.88-.63-.23-.03-.7.25-.72.43-.08.64-.09,1.31.03,1.93.03.16.65.25,1.01.27.23.01.48-.23.71-.22.18.01.42.22.48.39.06.16-.04.52-.16.58-.63.27-1.28.59-1.94.65-.9.09-1.74.04-2.06,1.16-.06.21-.65.4-.96.36-.85-.1-1.67-.36-2.52-.5-.3-.05-.67-.01-.93.13-1.84,1.05-3.49,1.01-5.62.55-.71,1.11-1,1.12-2.28.07-.34-.28-.7-.54-1.24-.97-.17.56-.39.95-.39,1.34.01,1.29.09,2.58.19,3.87.02.32.24.62.36.93.26-.17.54-.32.76-.53.62-.6,1.21-1.24,1.88-1.93.74,1.03.58,1.81.06,2.52-.63.85-1.38,1.61-2.02,2.45-.23.31-.31.74-.46,1.12.37.14.73.38,1.1.39,1.82.04,3.64.02,5.46.02.05.1.1.19.15.29-.25.16-.52.5-.74.47-1.82-.29-3.39.87-5.17.85-.36,0-.71.41-1.1.52-.3.09-.69.13-.96,0-2.5-1.13-5.13-.32-7.68-.56-.32-.03-.66.04-.97-.03-.17-.04-.3-.27-.44-.41.14-.11.27-.3.43-.33,1.44-.28,2.88-.56,4.32-.79.48-.07,1.06-.05.84-.69-.11-.32-.73-.68-1.09-.65-1.3.1-2.59.47-3.88.52-1.55.05-3.18.12-4.64-.3-1.21-.35-2.19.11-3.28.15-.67.03-1.33.16-2.26.27.23-.44.29-.76.46-.85,1.51-.77,3.14-1.16,4.83-.96,1.26.15,2.49.62,3.75.67.81.04,1.63-.43,2.46-.63,1.05-.25,2.11-.43,3.15-.71.27-.07.7-.37.69-.54-.04-.58-.08-1.3-.43-1.69-.68-.77-1.52-1.44-2.4-1.99-.81-.52-1.73-.91-2.65-1.21-.79-.25-.96-.52-.48-1.17.18-.24.33-.5.68-1.04-.67.09-1.05.16-1.43.18-.52.04-1.11-.1-1.55.1-.56.26-1.03.75-1.48,1.21-.21.21-.25.58-.44.82-.65.83-.76.77-1.49.03-.31-.32-.88-.51-1.34-.53-.8-.03-1.48-.08-1.99-.86-.48-.73-1.1-1.11-2.13-.78-1.06.33-1.95-.27-2.4-1.32-.33-.78-1-.6-1.58-.58-2.18.05-4.35.11-6.53.2-.44.02-.92.05-1.31.23-2.37,1.04-4.9,1.14-7.42,1.31-.64.04-1.3-.13-2.11-.22.83-.41,1.78-.43,1.66-1.64-.02-.24.87-.61,1.37-.84.32-.15.7-.18,1.03-.38-3.08.13-6.13.75-9.16.52,0-.6-.08-1.09.03-1.53.06-.23.44-.55.68-.54,1.06.03,2.11.19,3.17.24.73.04,1.46,0,2.18-.07,1.05-.1,2.09-.31,3.14-.38,1.21-.08,1.76-.57,1.73-1.79-.02-.57-.03-1.18-.24-1.7-.11-.29-.62-.62-.93-.6-1.59.13-3.18.36-4.77.56-1.08.13-2.16.26-3.24.39-1.91.23-3.81.58-5.72.68-2.26.12-4.54,0-6.81.02-.4,0-.8.14-1.21.22,0,.17-.01.35-.02.52.86.26,1.73.51,2.63.78-.39.93-1.21.91-1.93,1.05-.36.07-.84,0-1.05.22-.63.63-1.15.39-1.83.1-.38-.16-.91.08-1.38.08-.36,0-.95.02-1.02-.16-.19-.42-.16-.93.46-1.16.34-.13.75-.32.92-.61.21-.35.32-.86.22-1.23-.06-.24-.59-.47-.92-.49-2.06-.11-4.09.05-6.12.56-1.45.37-2.98.4-4.47.59-2.51.32-5.02.65-7.53.95-1.02.12-2.06.13-3.07.29-.78.12-.75.79-.67,1.38.08.61.54.77,1.08.7,2.11-.26,4.06.58,6.09.84.8.1,1.62.08,2.42.17.25.03.5.2.74.3-.15.22-.27.62-.45.64-.62.1-1.26.16-1.88.08-2.09-.25-4.18-.6-6.27-.84-.78-.09-1.7.71-1.7,1.48,0,.35.32.88.62,1.01,1.3.54,2.64.9,4.1.84,2.47-.09,4.96,0,7.43-.04.91-.02,1.81-.24,2.86-.38.39.42.19.93-.48,1.11-1.35.36-2.73.75-4.11.82-1.93.1-3.88-.06-5.82-.17-.49-.03-.96-.32-1.46-.41-.52-.09-1.05-.08-1.82-.12.67,1.12,1.39,1.44,2.31,1.55.9.11,1.79.34,2.65.62.25.08.4.48.75.93-.56-.03-.91.06-1.11-.07-1.02-.7-2.17-.67-3.32-.73-.42-.02-.83-.27-1.23-.43-.2-.08-.38-.32-.57-.31-1.26.04-2.5.03-3.62-.71-.09-.06-.3,0-.43.05-1.84.85-3.79.6-5.72.65-.52.02-1.08.15-1.56.37-1.44.64-2.89.35-4.36.21-1.07-.1-2.16,0-3.24,0-.59,0-1.18.04-1.77-.02-.23-.02-.45-.25-.67-.39.23-.24.41-.62.68-.7.58-.17,1.2-.23,1.8-.25,1.97-.09,3.96-.04,5.92-.24,1.38-.14,2.72-.61,4.07-.97.16-.04.41-.36.37-.46-.09-.25-.29-.58-.5-.64-1.49-.38-3-.46-4.39.3-1.48.8-3.84.26-4.54-1.17-.08-.16.14-.53.31-.72.09-.1.37-.03.57-.03,1.87,0,3.73,0,5.59,0,1.43,0,2.7.54,3.94,1.2.64.34,1.36.53,2.06.71.12.03.49-.33.5-.52.05-1.21.07-2.41-.01-3.62-.02-.25-.49-.68-.75-.67-.98.04-1.97.16-2.94.35-1.64.32-3.26.75-4.9,1.08-.53.11-1.11.12-1.63.02-.26-.05-.45-.46-.67-.71.26-.13.5-.33.78-.38,1.1-.16,2.22-.24,3.31-.44.37-.07.68-.42,1.02-.64,0-.1,0-.19,0-.29-.42-.14-.84-.39-1.27-.39-2.87-.03-5.73-.13-8.55.7-1.1.33-2.34.13-3.4.81C.89,104.18.45,104.04,0,103.84c.61-.38,1.19-.82,1.83-1.15,1.55-.78,3.24-.88,4.94-1,.92-.07,1.84-.27,2.77-.32.6-.04,1.22.2,1.81.11,1.46-.21,2.83.25,4.23.44.72.09,1.4.4,2.11.58.4.1.82.18,1.22.18,1.06,0,1.43-.63.8-1.49-.47-.63-.27-.86.31-1.16.86-.45.94-.85.53-1.64-1.01,0-1.97-.13-2.86.05-.58.12-1.09.67-1.58,1.09-.22.19-.3.54-.45.82-.04-.1-.08-.21-.12-.31-.7.09-1.4.18-2.11.27-.16.02-.33.05-.48.02-.76-.17-1.52-.37-2.49-.6.36-.5.74-.99,1.06-1.52.2-.33.4-.7.43-1.07.08-.9,1.04-2.17,1.93-2.28.25-.03.54.39.82.6.26.2.53.39.8.59.19-.27.35-.58.59-.8.32-.29.68-.65,1.07-.73,2.63-.5,3.4-1.46,3.59-3.67.08-.93-.06-1.87-.1-2.8-.13-.05-.25-.1-.38-.14-.45.36-.89.72-1.34,1.08-.15.12-.27.3-.43.38-1.11.6-1.24.95-1,2.19.06.33-.17.72-.27,1.08-.27-.14-.53-.35-.82-.4-.42-.07-.89-.13-1.27,0-.39.13-.7.5-1.24.91-.08-.95-.14-1.68-.19-2.25.52-.68,1.11-1.29,1.49-2.01.14-.25-.13-1.02-.38-1.11-.35-.13-1.06,0-1.25.28-.56.8-1.08.64-1.7.19-.56-.4-.86-.18-.87.43-.02,1,.17,2.03-.86,2.72-.08.05.05.61.22.79.42.42.56.82.31,1.38-.25.57-.63.79-1.25.99-.84.27-1.63.82-2.31,1.42-.64.56-1.01.57-1.36-.18-.36-.76-.89-.65-1.4-.22-.63.53-1.13.68-1.84.03-.37-.34-1.07-.31-1.87-.5.3-.24.5-.49.74-.57,1.01-.32,1.33-1.14.78-2.08-.16-.27-.3-.55-.52-.97.48-.12.83-.22,1.18-.29,1.17-.22,1.66-1.19,1.11-2.19-.63-1.13-.51-1.37.72-1.75.33-.1.74-.37.85-.66.36-.96,1.2-1.34,1.94-1.88.48-.35.88-.85,1.19-1.37.27-.45.44-.62,1.02-.5.78.17,1.62.09,2.43.1.11,0,.32-.09.32-.16.11-1.31,1.42-1.49,2.16-1.8,1.23-.51,2.24-1.3,3.32-1.97,1.05-.66,2.01-1.54,2.81-2.5.28-.33.19-1.45-.13-1.68-.56-.41-1.13.09-1.58.66-.65.83-1.08,1.97-2.49,2.06-.09-.28-.21-.61-.34-1-1.07-.41-1.69.62-2.51.99-.65.29-1.11.55-1.79.13-.28-.17-.76-.05-1.15-.01-.4.04-.81.19-1.2.17-.16,0-.45-.33-.43-.49.02-.22.26-.6.42-.61.8-.03,1.28-.44,1.75-1.04.19-.24.67-.32,1.03-.35,1.95-.16,3.48-1.33,5.08-2.25.57-.33,1.32-.96,1.57-1.44.52-.99,1.1-1.84,1.93-2.57.11-.1.15-.37.11-.54-.07-.35-.22-.67-.34-1.01-.31.2-.68.35-.92.61-.39.42-.75.89-1.02,1.39-.83,1.53-2.46,2.12-3.68,3.2-.57.5-1.51.57-2.28.85-.48.17-.94.4-1.43.54-.25.07-.55,0-.82-.01.1-.37.09-.83.32-1.08.31-.34.93-.41,1.19-.77.66-.9,1.19-1.89,1.78-2.85-.06-.08-.13-.16-.19-.24-.42.28-.82.59-1.26.83-.32.17-.81.47-1,.35-.33-.2-.63-.67-.67-1.05-.07-.75-.41-.94-1.11-1.04-.57-.08-1.1-.47-1.65-.73.34-.7.67-1.41,1.04-2.09.03-.06.35,0,.52.05.53.14,1.05.33,1.59.46.47.11.95.15,1.42.23,1.96.36,4.9.28,6.08-1.94.27-.5.89-.83,1.38-1.19,1.06-.77,1.55-2.65.77-3.69-.52-.7-.33-1.14-.04-1.86.32-.78.22-1.74.25-2.62,0-.09-.44-.29-.63-.24-.18.04-.44.33-.44.51.04,1.62-.91,2.85-1.7,4.08-.78,1.21-1.74,1.51-2.48.21,1.12-.77,2.03-1.69,1.06-3.22-1.16-.44-1.76.69-2.64,1.09-.37.17-.76.53-1.09.47-1.29-.22-2.55-.57-3.82-.89-.07-.02-.08-.22-.17-.46.85-.16,1.65-.29,2.44-.46.94-.2,2.01-1.86,1.68-2.71-.11-.28-.56-.47-.89-.61-.9-.37-1.07-.62-.97-1.41.76-.43,1.35-.79,1.97-1.1.27-.13.6-.25.9-.22,2.65.24,4.66-1.14,6.6-2.63.87-.67.97-1.73.78-2.74-.06-.3-.45-.69-.74-.75-.22-.05-.59.33-.81.59-.39.46-.69,1.01-1.09,1.45-.2.22-.56.3-.96.5-.03-.39-.02-.58-.06-.77-.15-.82-.51-.98-1.16-.44-.55.46-1.04.32-1.58.06.16-.77.58-1.11,1.29-1.15.66-.04,1.02-.41,1.45-.96.53-.66,1.56-.92,2.35-1.38.35-.2.83-.44.93-.76.17-.57-.5-.99-1.11-.7-1.16.56-2.54.62-3.52,1.62-.15.16-.8-.04-1.14-.22-.5-.26-.83-.43-1.35.05-.78.72-1.33.54-2.3-.68,1-.62,1.99-1.25,2.99-1.83.57-.33,1.4-.62,1.01-1.41-.31-.63-1.1-.63-1.84-.45-.56.14-1.19.18-1.74.06-.87-.18-1.26-.97-.88-1.74.1-.2.61-.24.94-.27.46-.05.94-.06,1.41-.05.77.02,1.54.09,2.31.12.52.02,1.05.05,1.57-.01.63-.08,1.24-.29,1.86-.36,1.81-.2,2.83-2.08,2.35-3.82-.06-.22-.54-.44-.85-.47-.71-.07-1.43,0-2.15-.03-.33-.02-.65-.17-.98-.26.09-.32.13-.66.28-.95.27-.53,1.77-1.56,2.34-1.78.4-.16.8-.4,1.11-.7.53-.51.41-1.08-.25-1.47-.9-.53-1.75-.45-2.59.44-.85.9-1.73,1.63-3.04,1.62-.13,0-.28.13-.4.23-1.11.89-1.98.95-3.43.13.8-.55,1.56-1.03,2.25-1.59.22-.18.32-.6.33-.92.02-.56.02-.97.79-1.04.65-.06.84-.55.34-1.09-.27-.29-.57-.53-.88-1.12.46-.09.99-.37,1.38-.25,1.16.38,1.64-.2,1.9-1.01.92-.31,1.74-.58,2.56-.85-.01-.17-.03-.33-.04-.5-.81-.11-1.63-.21-2.63-.34.22-.24.35-.49.55-.57.79-.32,1.6-.57,2.39-.87,1.25-.47,1.98-2.55,1.26-3.79-.32.19-.69.32-.95.57-.74.74-1.49.89-2.44.45-.4-.19-.85-.31-1.21-.56-.2-.14-.35-.48-.36-.74,0-.13.32-.38.52-.4,3.01-.43,4.57-1.9,5.25-4.98.02-.08.06-.16.3-.26.09.71.24,1.41.26,2.12.04,1.63.69,2.13,2.21,1.61.54-.18.74.08.94.51.21.46.37.9,1.12.68.31-.09.79.46,1.2.72-.39.25-.75.66-1.17.73-.67.11-1.3.02-1.95-.48-.46-.36-1.49-.41-2-.12-.35.2-.29,1.21-.3,1.85,0,.18.37.48.61.53.56.12,1,.19.77.96-.06.2.26.53.43.78.04.05.18.04.28.04.77,0,1.65-.23,2.26.08.51.26.69,1.15,1.06,1.87-1.29.23-.58,1.45-.99,2.37-.42-.4-.69-.66-.96-.91-.58-.54-1.27-.65-1.96-.32-.25.12-.51.49-.53.76-.02.27.18.73.4.83.68.29.94.8,1.08,1.46.14.69-.11.95-.81.76-.61-.16-1.37-.59-1.63.31-.25.9.58,1.16,1.25,1.22.77.07,1.56-.07,2.34-.06.5,0,1.11-.03,1.48.23,1.12.77,2.07,1.8,3.24,2.48,1,.58,2.2.79,3.3,1.17-.51.64-.99,1.37-1.6,1.98-.5.5-1.16.19-1.67-.52-.29-.41-.69-.8-1.14-1.02-.23-.11-.8.09-.97.32-.54.76-.91.9-1.61.36-.41-.31-.8-.65-1.19-.99-.85-.75-2.37-.64-3.09.23-.81.97-.52,3.47.48,4.21.1.07.21.16.33.18,1.21.21,2.43.38,3.63.61.33.06.68.21.93.43.22.19.31.52.45.79-.25.11-.5.21-.73.34-.28.16-.54.34-.81.52.22.23.44.46.67.67.07.06.16.13.25.14,1.34.21,2.68.41,4.03.63.21.03.54.07.6.2.43.89,1.2.78,1.98.8.27,0,.53.27.8.41-.19.29-.33.79-.57.84-.87.18-1.78.26-2.67.27-.8.01-1.47.12-1.78.99-.05.16-.23.31-.39.38-.48.21-.96.46-1.47.53-.36.05-.84-.08-1.11-.31-.49-.41-.8-1.05-1.31-1.4-.41-.28-1.01-.29-1.53-.42-.32-.36-.58-.82-.98-1.05-.18-.11-.62.23-.95.36.21.23.38.61.63.67.41.1.88,0,1.32,0Zm7.88,30.63c.25.25.47.63.77.72.37.1.86.06,1.19-.12.18-.1.13-.62.19-.94-.37,0-.74-.06-1.1,0-.37.06-.72.24-1.08.36-.33-.8-.6-1.64-1.02-2.39-.14-.24-.86-.48-.96-.38-1.1,1.14-1.51-.02-2.09-.58-.24-.22-.43-.57-.7-.66-.46-.15-1.09-.34-1.45-.14-.54.29-.76.94-.39,1.59.25.44.5.87.8,1.38.48-.08.94-.19,1.41-.24.69-.07,1.31-.04,1.36.92.05.97.44,1.18,1.42.89.54-.16,1.09-.27,1.65-.41Zm-9.14,25.78c-.08.84-.25,1.49-.15,2.09.06.37.53.99.79.98,1.61-.08,3.3.54,4.82-.5.29-.2.73-.21,1.11-.21,2.21-.02,4.43,0,6.65-.01.29,0,.65.05.85-.1,1.1-.86,2.38-.67,3.62-.68,1.67,0,3.33,0,5,0,.69,0,1.05-.44.95-1.12-.08-.5-.18-1.02-.13-1.52.11-1.09-.11-1.8-1.35-2.1-.7-.17-.91,0-1.18.52-.25.48-.6.92-.98,1.49-.28-.44-.47-.66-.58-.91-.34-.79-.93-.53-1.16-.1-.61,1.15-1.63,1.13-2.6.96-.95-.16-1.86-.59-2.78-.9-.04-.14-.08-.29-.11-.43.62-.53,1.21-1.09,1.87-1.56.42-.3.95-.45,1.42-.69.56-.29,1.11-.85,1.66-.84,1.63.03,3.18-.24,4.74-.63,1.1-.27,1.4-.9.84-1.81-.54,0-1.2.2-1.43-.04-.77-.78-.93-.82-1.7.07-.18.21-.67.44-.76.37-.85-.75-1.64-.43-2.45.02-.05.03-.13-.01-.19,0-.57.17-1.13.34-1.7.51-1.22.36-2.42,1.3-3.66-.12-.35-.4-1.23-.8-1.69-.11-.49.74-.95.79-1.69.53-.78-.27-.67-.87-.77-1.48-.12-.73-.33-1.47-.64-2.14-.07-.15-.92-.19-.99-.05-.34.63-.72.55-1.29.37-.31-.1-.99.04-1.03.2-.1.38.01.85.15,1.25.11.32.38.57.59.86-.08.11-.15.22-.23.34-.75-.29-1.48-.6-2.24-.85-.4-.13-.94-.33-1.24-.16-.29.15-.42.72-.48,1.13-.08.54-.03,1.11-.02,1.66,0,.5.24.77.74.54.56-.27.8-.02,1.02.46.37.82.89,1.31,1.93,1.23.86-.07,1.03.43.5,1.16-.09.13-.27.29-.24.39.37,1.19-.61,1.37-1.29,1.74-.49.27-1.02.47-1.58.72-.16-.09-.4-.23-.89-.51Zm108.8-15.88c-.49-.69-.68-1.29-1.02-1.38-1.04-.28-2.13-.37-3.19-.52-.57-.08-1.15-.12-1.71-.23-.87-.17-1.72-.46-2.59-.54-.32-.03-.85.3-1,.6-.35.7-.89.87-1.51.71-.57-.15-1.08-.64-1.65-.69-1.64-.14-3.29-.14-4.94-.18-.41-.01-.83.08-1.22,0-1.08-.24-2.14-.55-3.21-.81-.1-.03-.26.04-.35.11-.86.65-1.27.12-1.67-.58-.13-.23-.45-.35-.68-.52-.11.28-.32.55-.33.82-.04,1.2-.02,2.41-.02,3.62,0,1.17.6,2.03,1.71,2.35,2.04.59,4.06,1.29,6.14,1.66,1.52.27,3.22.45,4.64.02,1.69-.51,3.26-.5,4.93-.29,1.48.19,1.99-.18,2.28-1.61.75.08,1.53.3,2.27.21.73-.09,1.43-.49,2.15-.73.21-.07.45-.03.68-.02,1.88.09,3.34-.57,2.96-3-.05-.33-.23-.8-.46-.89-.24-.09-.71.12-.94.35-.47.46-.84,1.01-1.28,1.55Zm-49.27,2.5c-.2.3-.41.58-.57.87-.14.25-.37.64-.28.78.14.21.52.35.81.35,1.2.03,2.51-.5,3.44.77.03.04.12.02.19.03,1.81.07,3.62.15,5.44.18.22,0,.63-.24.64-.38.01-.25-.16-.58-.37-.76-.47-.43-1.05-.75-1.5-1.2-.21-.21-.22-.63-.33-.96.32,0,.67-.11.96-.02,1.23.4,2.41.97,3.66,1.27.9.21,1.99.54,2.64-.66.1-.19.41-.38.62-.37.84,0,1.69,0,2.5.16,1.68.32,3.21-.85,3.21-2.54,0-.39.05-.79-.01-1.17-.06-.35-.24-.69-.36-1.03-.34.19-.74.32-1,.59-.67.66-1.25,1.39-1.91,2.05-.17.18-.49.21-.74.31-.07-.29-.17-.57-.22-.86-.07-.41.04-.99-.19-1.19-.23-.2-.79-.03-1.2.03-.18.03-.34.17-.5.28-.73.53-1.39.5-2.02-.19-.21-.23-.52-.55-.75-.53-1.17.1-2-.52-2.88-1.12-.58-.39-1.25-.52-1.83.13-.47.54-.96.54-1.51.04-.25-.23-.62-.34-.94-.5-.12.37-.28.74-.36,1.13-.1.5-.06,1.04-.23,1.5-.11.29-.5.49-.76.73-.19-.3-.49-.57-.56-.89-.14-.65-.07-1.36-.25-1.99-.43-1.53-.47-1.51-2.02-1.42-.09-.25-.2-.52-.29-.78-.29-.86-.55-1.72-1.71-1.76-.16,0-.34-.24-.45-.42-.32-.51-.58-1.07-.93-1.56-.16-.22-.45-.35-.69-.52-.11.28-.37.6-.31.83.25.91.15,2,1.24,2.54.26.13.5.67.46.98-.11.96.42,1.63.83,2.38.42.77.8,1.57,1.11,2.39.08.22-.11.62-.29.84-.1.12-.48.13-.67.06-.75-.3-1.47-.65-2.28-1.02-.21.58-.43,1.17-.7,1.89-.3-.29-.51-.44-.66-.63-.9-1.17-1.61-2.5-3.03-3.22-.58-.29-.95-.23-1.23.24-.29.48-.62,1.05.08,1.51,1.05.69,2.08,1.42,3.17,2.05.72.41,1.44.7,2.41.59.95-.11,2.07-.66,3.11.24Zm-34.09,14.35c-.03.14-.05.27-.08.41.5.19.99.49,1.51.54.9.09,1.82.03,2.73.03,1.21,0,2.43.03,3.64-.03,1.28-.06,2.57-.4,3.82-.28,1.58.16,3.04-.03,4.48-.61.29-.12.61-.21.92-.25,1.72-.21,3.46-.36,5.17-.63.39-.06,1-.51,1.02-.81.06-1.38-.04-2.77-.13-4.15-.02-.29-.27-.57-.42-.86-.35.2-.78.33-1.05.61-.53.55-.93,1.22-1.45,1.79-.82.89-1.7,1.74-2.54,2.61-.14.15-.25.32-.39.5-.73-.9-.52-2.35.34-3.05.5-.4,1-.81,1.46-1.27,1.27-1.26,1.22-1.68-.37-2.8-.46.86-.91,1.72-1.4,2.64-.9-.79-1.52-.42-2.01.44-.1.17-.16.4-.31.47-.29.13-.63.25-.93.22-.17-.02-.47-.36-.45-.52.12-.9.1-1.93.55-2.65.61-.99.42-1.78-.02-2.64-.31-.62-.96-.67-1.36-.11-.43.59-.83,1.2-1.25,1.81-.61-.46-1.04,0-1.47.05-1.15.12-2.11.66-3.19.91-.09.02-.2,0-.28-.03-.85-.35-1.62-.23-2.29.51-.7-1.2-2.29-1.38-2.73-2.75-.06-.19-.3-.35-.48-.48-.61-.44-1.36-.12-1.42.63-.05.62.06,1.25-.03,1.85-.11.76.3,1.23.82,1.53.87.51,1.79,1.05,2.76,1.25,1.76.37,3.54.47,5.26-.42.92-.48,1.75.13,1.74,1.18,0,.41-.11.82-.16,1.23-.05.4.04.97-.19,1.17-.32.28-.87.35-1.33.39-1.12.11-2.25.12-3.38.23-.28.03-.52.33-.8.45-.38.16-.93.5-1.16.37-1.28-.76-2.13.2-3.13.53Zm68.04-5.74s.25-.1.5-.12c.93-.08,1.87-.09,2.79-.22.88-.13,1.73-.48,2.6-.55,2.15-.19,4.33-.14,6.47-.46,1.67-.24,3.29-.85,4.92-1.36.62-.2.92-1.15.62-1.73-.38-.73-.89-.23-1.39-.16-.46.06-1.06.09-1.4-.14-.92-.63-2.29-.73-3.13.01-.72.63-1.34.63-2.02-.03-.55-.54-3.35-.68-3.96-.21-.19.15-.33.39-.44.61-.38.85-2.11,1.42-2.96,1.05-1.26-.55-2.55-1.04-3.64.38-.12.16-.47.26-.69.23-1.16-.15-2.3-.38-3.46-.53-.25-.03-.68.04-.77.2-.67,1.19-1.24.71-1.92.01-.23-.24-.74-.47-.97-.37-.26.12-.45.6-.51.95-.2,1.12.81,3,2.37,3.25.82.13,1.67.09,2.49.23.64.11,1.41.21,1.85.62,1.12,1.02,2.53,1.22,3.84,1.23.86,0,1.65.05,2.46.27.34.09.72,0,1.08.03.67.05,1.33.16,2,.2.43.02.87-.04,1.41-.08-.71-1.56-.86-1.63-2.17-1.35-.22.05-.5.11-.67.02-.82-.48-1.5-.07-2.24.21-.25.1-.7.05-.89-.12-.77-.66-1.47-1.4-2.17-2.09Zm-63.32-21.02c.55,1.2.5,1.18-.02,2.35-.17.37-.18,1.03.04,1.31.23.29.92.48,1.28.36,1.06-.38,2.02-1.07,3.23-.37.21.12.61-.15.92-.16.94-.02,1.49.52,1.35,1.44-.13.83-.41,1.64-.67,2.44-.05.16-.28.37-.42.37-.82,0-1,.5-1.14,1.16-.04.18-.42.44-.61.41-1.14-.14-2.27-.37-3.41-.53-.22-.03-.5.08-.7.21-1.06.73-2.37.65-3.29-.23-.26-.25-.49-.53-.77-.75-.16-.12-.44-.24-.59-.18-.15.06-.3.35-.3.54,0,1.22-.47,2.68,1.39,3.07.03,0,.04.05.07.06,1.33.68,2.64,1.39,3.98,2.02.68.31,1.41.53,2.15.67.27.05.87-.28.86-.39-.08-.74-.21-1.49-.47-2.19-.17-.46-.32-.75.23-1,1.45-.68,2.92-1.35,4.34-2.08.49-.25,1.12-.6,1.26-1.04.21-.64.19-1.46-.01-2.12-.24-.75.07-1.14.55-1.53.35-.28.7-.59,1.11-.75.68-.26.77-.82.98-1.39.15-.42.52-1.03.86-1.07,1.51-.21,2.53-1.05,3.46-2.16.61-.72,1.42-1.27,2.07-1.96.16-.17.04-.61.05-.93-.29.04-.62,0-.87.12-.38.18-.7.48-1.05.72-.53.36-1.03.75-1.59,1.05-1.06.58-1.75,2.29-3.4,1.19-.75.88-1.8.79-2.8.98-.34.06-.61.7-.86,1.11-.42.69-.79.72-1.26.04-.39-.57-.86-.63-1.36-.08-.24.27-.46.58-.77.74-.39.2-.85.26-1.27.38,0-.47-.08-.97.04-1.41.15-.55.47-1.05.71-1.54-1.85-1.35-2.26.64-3.29,1.11Zm-6.99,1.54c-1.03.21-1.16,1.06-1.47,1.79-.08.19-.48.45-.59.4-1.06-.55-2.13-.08-2.91.36-1.14.64-1.86.1-2.74-.3-.22-.1-.45-.26-.68-.26-.6.01-1.21.07-1.81.16-.3.04-.72.12-.84.32-.58,1.01-1.32.78-2.02.28-.74-.53-1.4-.88-2.18-.09-.12.12-.51.14-.65.04-.83-.61-1.65-.79-2.56-.19-.09.06-.32-.03-.44-.11-1.05-.75-2.1-1.45-3.5-1.15-.41.09-1.12-.04-1.21.16-.18.38-.21,1.11.04,1.36.72.73,1.52,1.53,2.45,1.85.92.31,2.04.07,3.08.07.3,1.13,1.73,1.66,2.76,1.13.99-.5,1.83-.32,2.72.36-.29.51-.6.99-.83,1.5-.1.22-.14.62-.02.75.17.18.52.22.8.24.51.03,1.04-.07,1.53.02.95.17,1.7-.34,1.79-1.33.12-1.36.44-1.49,1.84-1.18,1.49.33,3.06.83,4.22-.79.06-.09.24-.1.33-.18.89-.74,1.81-1.45,2.64-2.25.88-.84.94-2,.25-2.96Zm34.34-6.3c-.16.68.1,1.25,1.02,1.32.84.06,1.46.31,1.65,1.25.04.18.45.29.7.41.54.27,1.27.4,1.58.83.46.64.99.74,1.65.73.62-.01,1.34-.21,1.84.04,1.42.71,2.76.14,4.12-.06.82-.12,1.6-.52,2.41-.74.34-.1.72-.09,1.08-.1,1.16-.01,2.33,0,3.49,0,.48,0,1.02-.2,1.43-.04.93.35,1.48-.13,1.84-.77.3-.53.48-1.24.39-1.82-.07-.43-.63-.82-1.06-1.11-.08-.05-.59.41-.82.69-.57.7-1.22,1.2-2.17,1.2-1.65,0-3.28-.27-4.93.34-.87.32-1.92.21-2.88.21-.45,0-1.18-.05-1.29-.3-.25-.55.27-.88.79-1.08.11-.04.23-.14.29-.25.21-.39.58-.82.53-1.18-.04-.27-.61-.5-.99-.67-.28-.13-.74-.04-.9-.23-.83-.98-1.73-.73-2.77-.4-1.33.43-1.41.46-1.18,1.95.04.26-.15.6-.32.84-.06.09-.43.08-.56-.02-.61-.46-1.22-.84-2.03-.93-.34-.04-.65-.48-.95-.77-.2-.2-.32-.5-.55-.66-.23-.16-.65-.36-.81-.26-.28.17-.45.54-.6.86-.08.16-.01.38-.01.74Zm4.55,23.37c-.06.16-.13.32-.19.49.51.47,1.01.98,1.55,1.41.42.33.65.62.44,1.22-.23.67.59,2.23,1.16,2.29.68.06,1.42.18,2.04-.02,2.48-.81,5.01-.77,7.56-.75.31,0,.64-.04.93-.15,1.18-.43,2.35-.9,3.53-1.35.15-.05.32-.04.48-.06,1.13-.11,1.58-.83,1.22-2.08-.34.09-.7.25-1.05.25-1.29,0-2.76.6-3.58-1.08-.11-.22-.63-.47-.81-.39-1.03.48-2.33.4-3.09,1.5-.24.34-.83.84-1.01.75-.78-.38-1.57-.87-2.18-1.49-.51-.54-.88-.84-1.69-.63-1.01.26-2.08.33-3.13.41-.35.03-.71-.2-1.08-.25-.37-.06-.75-.04-1.13-.06Zm48.13-20.07c-.37.4-.73.78-1.07,1.17-.5.58-1.05.73-1.79.45-.37-.14-.85-.06-1.27-.01-.92.11-1.83.29-2.75.37-.18.02-.39-.23-.59-.36.12-.16.22-.33.36-.47.35-.36.71-.71,1.07-1.06.5-.47.85-1.16,1.74-1.05.24.03.52-.33,1.03-.68-.58-.21-.97-.49-1.18-.39-1.4.65-2.75,1.39-4.13,2.09-.3.15-.62.35-.93.37-.67.03-1.25.08-1.63.78-.12.23-.61.43-.89.39-1.1-.16-2.19-.38-3.26-.67-.58-.16-1.06-.12-1.35.4-.27.46-.51.97-.57,1.49-.08.63.65.82,1.55.46.73-.3,1.52-.71,2.17.09.59.73,1.3.67,2.1.53.56-.09,1.37-.28,1.68,0,1,.92,2.04.47,3.06.33.8-.12,1.56-.54,2.36-.61,1.2-.11,2.42-.03,3.63-.03.96,0,1.77-.55,1.97-1.34.24-.94-.13-1.63-1.3-2.23Zm-46.23,30.9c.78.29,1.29.33,1.58.61.57.56-.34.77-.39,1.16-.04.32.24.96.43.98,1.07.1,2.15.05,3.23.08.28,0,.63.02.81.19.71.61,1.54.69,2.37.55,1.65-.28,3.34-.48,4.91-1.03,1.41-.5,2.69-1.39,4-2.16.17-.1.3-.53.23-.75-.2-.71-1.5-.93-2.17-.62-1.04.48-1.95,1.37-3.2,1.23-.65-.07-1.27-.39-1.92-.51-.5-.09-1.08-.17-1.53,0-.66.26-1.19.9-1.86,1.11-.79.26-1.68.24-2.52.32-.09,0-.19-.16-.29-.25-.54-.54-1.04-1.12-1.64-1.59-.27-.22-.78-.4-1.06-.28-.38.15-.64.6-1,.97Zm-11.21,1.42c.05-.1.1-.21.16-.31,1.8-.22,3.6-.43,5.39-.71.14-.02.37-.76.25-.89-.78-.88-1.2-2.12-2.44-2.59-.25-.1-.47-.35-.65-.57-.79-.96-1.52-1.99-2.37-2.9-.28-.3-.87-.48-1.31-.46-.68.04-.53.68-.54,1.15,0,.39-.01.78,0,1.17.02.65.37,1,1.02,1.03.29.02.61-.07.87.02.36.12.68.36,1.02.54-.31.27-.6.75-.92.78-2.03.17-1.98,1.39-1.4,2.85.14.36.6.6.91.89Zm4.39,3.12c1.13-.19,2.16-.37,3.2-.52.76-.12,1.53-.26,2.3-.29.55-.02,1.02-.43.85-.92-.26-.7-.82-1.12-1.52-1.12-1.75,0-3.5.03-5.24.16-1.39.1-2.78.35-4.16.6-.21.04-.49.43-.48.64,0,.23.29.6.5.65,1.52.31,3.06.55,4.56.81Zm-34.59-23.94c-.64.11-1.05.14-1.45.25-.75.19-1.49.59-2.23.6-1.15.02-2.21.21-3.24.72-.56.28-.96.67-.72,1.28.24.62.73.89,1.48.73.58-.12,1.22-.14,1.8-.04.93.17,1.78.1,2.57-.43.61-.41,1.18-.93,1.85-1.17.73-.27,1.13-.74.99-1.39-.06-.28-.78-.41-1.05-.54Zm36.14,12.91c.14-1.08-.64-1.66-1.32-2.14-.2-.14-.96.51-1.53.83-.56-.32-.9-1.44-2-.68-.15-1.07-.28-2.04-.45-3.26-.89,1.03-1.22.62-1.58-.12-.15-.31-.61-.48-1.02-.79-.15,1.15.17,2.18.88,2.85.8.75,1.64,1.46,2.5,2.15.34.27.73.58,1.13.65,1.35.24,2.79.23,3.17,2.03.05.23.71.56.97.47.33-.11.68-.56.75-.92.04-.21-.4-.56-.68-.78-.19-.15-.47-.18-.82-.3Zm-11.17-20.31c-.5.56-.99,1.12-1.49,1.67-.38.41-.73.83-1.39.35-.17-.12-.77.05-.91.26-.83,1.21-.81,1.23-2.04.11-.53.57-1.08,1.11-1.57,1.71-.2.25-.25.62-.38.94.32.1.64.31.95.29,2.88-.24,5.37-1.27,7.13-3.69.44-.6.34-1.11-.3-1.64Zm64.12,20.82c-.2-.32-.34-.81-.6-.89-.37-.11-.9-.04-1.25.16-1,.56-1.9,1.27-3.16.56-.58-.33-1.66.3-1.75.95-.08.54-.23,1.15.55,1.46,1.52.6,4.74-.08,5.79-1.3.19-.22.26-.55.43-.94Zm-64-14.9c-.08-.07-.16-.15-.24-.22-1.39.26-2.5,1.01-3.52,2-.48.46-1.12.77-1.67,1.16-.25.18-.64.36-.7.61-.36,1.5-.14,3.12-.98,4.54-.07.12.23.47.35.71.22-.12.48-.2.67-.36.88-.75.95-1.81.87-2.82-.08-1.02.47-1.56,1.15-2.07,1.15-.86,2.34-1.66,3.46-2.54.29-.23.41-.67.61-1.01Zm74.86-10.86c-.76-.97-1.39-1.19-2.57-.54-.9.49-1.53,1.46-2.71,1.49-.43,0-.91.22-1.29.1-.93-.29-2.07-.08-2.6.69-.16.23-.24.62-.15.86.05.15.49.21.76.23.39.04.79.05,1.18,0,.43-.06.88-.15,1.28-.31.98-.39,1.93-.84,2.9-1.24,1.04-.43,2.08-.84,3.2-1.28Zm-67.46-2.96c.35-.08.72-.15,1.09-.24.67-.15.72-.63.37-1.04-.36-.42-.86-.76-1.36-1-.17-.08-.52.28-.81.39-.17.07-.38.08-.57.07-.95,0-1.83-.16-2.54-.88-.15-.15-.64-.21-.78-.09-.49.43-.1,1.96.53,2.09,1.34.27,2.69.47,4.08.71Zm22.88-18.63c-.71.37-1.32.75-1.98,1.01-1.02.39-1.96,1.44-3.19.37-.47-.41-1.05-.3-1.28.29-.25.62-.04,1.12.73,1.29,1.78.4,3.41.16,4.91-.92.61-.44,1.11-.87.81-2.03Zm-1.13,8.45c1.07-.17,1.95-.34,2.83-.43.57-.05.94-.23.96-.84.02-.67.15-1.5-.73-1.66-.85-.15-1.81-.32-2.37.75-.18.34-.66.51-.93.82-.26.29-.43.66-.64,1,.34.14.67.27.87.35Zm42.68,40.83c.89,0,1.39-.62,1.16-1.12-.44-.93-2.58-1.45-3.46-.83-.34.24-.67.51-1,.76-.25-.39-.5-.78-.76-1.17-.07-.11-.13-.28-.22-.3-.38-.08-.77-.11-1.15-.17,0,.32-.11.68,0,.96.32.81,1.46,1.39,2.41.95.77-.35,1.45-.23,2.08.38.3.29.75.43.94.54Zm-66.98-24.69c-.43-.14-.76-.32-1.09-.33-.23,0-.63.17-.68.34-.08.26.01.8.16.86,1,.36,2.02.72,3.07.87.43.06,1.1-.29.85-1.04-.39-1.17-1.39-1.46-2.31-.71Zm36.77-36.75c-.03-.12-.05-.24-.08-.37-1.61-.26-3.21-.58-4.83-.75-.5-.05-.63.66-.16,1.1.98.92,2.22.88,3.42.71.57-.08,1.1-.45,1.65-.69Zm-43.81,55.24c.11.06.22.12.33.18.92-.41,1.71-.99,2.31-1.86.4-.58.74-1.15-.03-1.64-.61-.39-1.71-.01-1.94.68-.29.86-.45,1.76-.67,2.65Zm-15.68-19.05c0-.12-.02-.24-.02-.36-.28-.07-.62-.29-.83-.19-.89.41-1.46-.04-2.04-.61-.15-.15-.52-.23-.69-.15-.18.09-.31.4-.34.64-.11.78,1.03,1.86,1.78,1.62.74-.24,1.44-.63,2.15-.95Zm16.85-30.21c-.36.56-.82,1.05-.99,1.62-.18.61-.23,1.84-.1,1.87.91.24,1.25-.62,1.48-1.25.24-.67.81-1.51-.38-2.25Zm39.7,6.84c-.08-.22-.1-.46-.2-.5-.68-.23-1.37-.52-2.07-.58-.21-.02-.68.62-.67.94.01.28.51.71.85.76.54.08,1.13-.06,1.69-.17.16-.03.27-.29.4-.45Zm-1.69,19.47c.77.11,1.47.27,2.17.29.26.01.77-.29.76-.42-.02-.34-.18-.77-.44-.99-1-.86-1.94-.49-2.5,1.12Zm-57.84-14.67c.55.97,1.21.54,1.76.19.33-.21.58-.59.76-.95.05-.11-.26-.56-.43-.57-.39-.04-.88-.01-1.18.2-.37.26-.6.73-.91,1.14Zm54.1,55c-.46.52-.91.94-1.23,1.44-.12.19-.01.79.08.81.47.11.91.95,1.46.16.38-.55.21-1.86-.31-2.42Zm10.05-6.5c.04,1.03.57,1.32,1.16,1.36.51.03,1.06-.14,1.02-.86-.05-.89-.82-.92-1.39-1.02-.26-.05-.6.39-.78.52ZM23.02,69.62c.32.55.56.96.8,1.36.29-.48.68-.93.83-1.45.16-.55-.11-1.13-.76-1.03-.31.05-.53.64-.88,1.12Zm97.04,34.25c.36.39.69.89.79.85.57-.25,1.09-.62,1.63-.96-.49-.29-.96-.68-1.49-.82-.18-.05-.53.52-.92.93Zm-35.59-2.61c.03.12.06.24.09.36.71.39,1.47.44,2.22.1.18-.08.38-.44.34-.61-.05-.22-.39-.57-.53-.54-.72.17-1.42.45-2.12.69Zm-8.58-57.94c.04-.12.08-.23.12-.34-.44-.18-.87-.44-1.33-.51-.33-.05-.75.09-1.02.29-.13.1-.1.71.03.78.3.16.71.21,1.05.17.4-.05.77-.25,1.16-.39Zm-55.51,38.27c.58-.66.67-1.54.19-1.85-.15-.1-.52-.05-.66.07-.54.49-.39,1.03.47,1.77Zm50.33-26.65c.33-.29.55-.4.6-.55.12-.43.2-.88.22-1.33,0-.07-.61-.24-.62-.22-.18.37-.36.76-.43,1.17-.04.23.12.5.23.93Zm32.39,5.18c.62,0,1.25.57,1.66-.28.1-.22-.14-.88-.3-.9-.74-.12-1.16.31-1.36,1.19Zm5.58-18.34c-.37.42-.69.66-.81.98-.05.13.49.64.54.61.35-.22.67-.51.94-.83.02-.03-.33-.38-.67-.76Zm-9.82,14.49c-.57-.46-1.13-.45-1.67-.11-.08.05-.04.58.07.63.6.27,1.17.26,1.6-.52Zm-66.58,28.11c-.57-.32-.86-.58-1.18-.62-.16-.02-.36.37-.54.58.24.19.45.47.72.52.21.04.48-.21,1.01-.48Zm77.9,16.47c-.35-.77-.68-1.21-1.15-.6-.12.16-.02.49-.02.73.39-.04.78-.09,1.17-.13Zm-86.23-14.91v1.36c.43-.36.85-.54.9-.79.11-.64-.35-.7-.9-.57Zm54.43-41.52c.02-.19.04-.38.05-.56-.38-.04-.76-.09-1.14-.08-.04,0-.07.37-.11.57.4.03.8.05,1.2.08Zm-12.91,21.08c.15.12.3.24.45.36.31-.44.63-.87.94-1.31-.12-.09-.23-.18-.35-.26-.35.4-.7.81-1.04,1.21Z"/>
  </g>
</svg>