<?xml version="1.0" encoding="UTF-8"?>
<svg id="Layer_1" data-name="Layer 1" xmlns="http://www.w3.org/2000/svg" viewBox="0 0 195.05 109.9">
  <defs>
    <style>
      .cls-1 {
        fill-rule: evenodd;
        stroke-width: 0px;
      }
    </style>
  </defs>
  <g id="DwfpKT">
    <g>
      <path class="cls-1" d="m177.87,43.63c.38.12.77.35,1.15.35.73,0,1.47-.16,2.21-.17,1.75-.03,3.52-.16,5.24.03,1.98.22,3.95.66,5.87,1.19,1.61.45,2.61,1.77,2.71,3.37.08,1.4-.86,2.55-2.11,3.2-1.83.95-3.74,1.73-5.58,2.64-1.55.77-3.07,1.61-4.57,2.49-.69.4-.45,1.07-.16,1.61,1.38,2.62,1.82,5.34,1.49,8.33-.41,3.8-2.34,6.71-4.78,9.38-2.7,2.96-6.03,5.15-9.44,7.16-2.6,1.54-5.39,2.86-8.41,3.28-2.35.32-4.81.36-7.15.05-1.77-.24-3.32-1.38-4.5-2.86-.85-1.07-1.42-.85-2.57-.1-9.75,6.33-13.2,3.43-14.41,1.97-1.09-1.31-1.13-2.75-.44-4.24.5-1.07,4.24-6.56-24.23-6.52-.44,0-1.08.43-1.29.84-.61,1.2-1.16,2.46-1.53,3.76-.34,1.21.17,1.79,1.41,1.92.27.03.55-.01.82,0,3.43.27,6.89.34,10.27.88,2.8.45,5.62,1.21,8.24,2.3,3.01,1.25,5.76,3.13,7.26,6.21.58,1.2.92,2.59,1.03,3.92.13,1.64.19,3.38-.21,4.96-.84,3.34-2.86,5.89-5.88,7.69-1.94,1.16-4.02,1.95-6.18,2.37-1.72.33-3.57.33-5.3.08-1.34-.19-3.37-3.11-2.37-5.1,1.09-2.18.65-3.7-1.45-5-1.31-.81-5.19-3.85-29.24-4.13-46.62,1.67-51.42,4.34-55.76,2.83-2.01-1.3-1.7-5.42,1.32-6.32,2.19-.65,4.43-1.13,6.65-1.67,1.97-.48,3.93-1.01,5.92-1.41,2.62-.54,5.25-.98,7.88-1.45,3.16-.56,6.32-1.07,9.48-1.65,2.29-.42,4.57-.92,6.86-1.39.03,0,.07-.02.1-.03,2.32-.45,2.33-.49,1.6-2.75-.23-.7-.41-1.41-.59-2.11-.22-.86-.77-1.15-1.63-1.01-1.75.28-3.52.49-5.28.73-1.5.21-2.99.4-4.48.63-2.18.33-4.37.65-6.54,1.02-14.16,2.17-15.98,2.38-17.3.09-.16-.28-.6-.5-.85-.46-.28.04-.64.38-.73.67-.68,2.08-1.23,4.21-1.96,6.28-.48,1.37-1.12,2.69-1.8,3.97-.95,1.8-1.91,3.6-3.04,5.28-1.81,2.67-3.96,5.07-6.76,6.73-1.03.61-7.36,4.06-14.26-.19-1.86-1.15-2.38-3.42-2.53-5.51-.11-1.53.13-3.11.39-4.63.48-2.85,1.51-5.52,3.08-7.95.82-1.29,1.84-2.47,3.58-2.42,2.35.08,4.85,2.54,4.09,5.13-.07.24.08.66.28.83.13.12.6.04.76-.11.41-.39.8-.83,1.08-1.32,1.07-1.94,2.11-3.9,3.11-5.87.4-.8.7-1.66.97-2.51.3-.93-.2-1.64-1.34-1.66-4.33-.06-6.22-3.1-7.84-6.39-1.46-2.96-1.9-6.15-1.63-9.42.1-1.16.48-2.28.66-3.44.66-4.08,2.39-7.76,4.28-11.35,1.4-2.67,3.24-5.06,6.1-6.37.67-.31,1.5-.38,2.25-.34,1.4.06,2.67-.12,3.81-1.01,1.45-1.14,3.08-1,4.67-.43,1.68.61,3.34,1.29,4.94,2.09,1.12.56,2,1.4,2.21,2.81.18,1.14,1.11,1.34,2.06.69,1.37-.93,2.55-2.09,4.34-2.4,2.19-.38,3.95.32,5.6,1.58.54.41.96.97,1.46,1.43.64.59,1.39.46,1.87-.25,1.56-2.3,3.52-4.22,6.14-5.2,2.51-.94,5.94-.3,7.65,2.23.21.31.51.55.78.81.61.62,1.22.6,1.83-.01.92-.93,1.87-1.84,2.78-2.79,1.29-1.36,2.96-1.43,4.66-1.38.71.02,1.44.25,2.11.12.51-.1,1.15-.51,1.36-.96.69-1.44,1.22-2.95,1.8-4.44.78-1.98,1.53-3.98,2.31-5.96.58-1.48,1.24-2.94,1.77-4.44.79-2.19,2.97-3.89,5.73-2.46,2.05,1.06,3.03,1.46,2.9-1.74-.04-1.13.03-2.26-.02-3.38-.04-1,.37-1.74,1.11-2.37,1.31-1.11,2.8-1.66,4.52-1.92,2.43-.36,4.79,0,7.15.29,1.36.16,2.37,1.13,3.26,2.14.73.84,1.57.68,2.02-.33,1.23-2.73,2.32-5.52,4.06-8,1.48-2.12,3.43-3.47,5.89-4.08,2.8-.7,5.57-.77,8.46-.12,1.97.44,3.87.96,5.66,1.83.85.41,1.68,1.07,2.26,1.82,1.07,1.4,2.53,1.56,4.08,1.82,1.92.33,3.8.77,5.38,2.18,1.52,1.35,1.19,4.59,0,5.78-1.73,1.75-3.41,3.58-4.91,5.54-1.12,1.47-1.98,3.16-2.84,4.81-.82,1.56-1.49,3.19-2.23,4.78-.48,1.05-.24,1.5.89,1.67,3,.46,5.55,1.85,7.76,3.87.74.68,1.29,1.55,1.93,2.33.63.76,1.13.79,1.83.14,1.11-1.04,2.12-2.25,3.75-2.52,1.83-.31,3.6-.09,5.28.73.89.44,1.75.96,2.63,1.42.8.41,1.35.16,1.85-.59,1.48-2.23,2.97-4.45,4.56-6.6.7-.95,1.71-1.66,2.49-2.56.83-.96,2-.9,2.99-.87,2.83.08,5.07,1.69,7.23,3.31,1.04.78,1.94,1.74,2.87,2.64.93.89.77,2.1.75,3.2-.03,1.9-1.49,3.07-2.55,4.42-.97,1.24-2,2.42-3.01,3.63.04.14.08.27.12.41Zm-15.64,9.31c.77.49.93,1.03.52,1.64-.53.78-1.02,1.6-1.69,2.24-2.69,2.62-5.2,5.4-7.29,8.54-1.89,2.83-3.87,5.65-4.11,9.19-.08,1.18-.08,2.53.4,3.56.92,2.01,2.66,3.11,4.96,3.2,2.95.12,5.66-.73,8.32-1.92,2.75-1.24,5.33-2.74,7.69-4.61,1.28-1.02,2.62-2,3.71-3.2,1.59-1.75,3-3.65,3.78-5.95.62-1.82.67-3.65.07-5.44-.65-1.93-1.84-3.56-3.3-4.99-.72-.71-.64-1.21.23-1.74,1.05-.63,2.14-1.2,3.21-1.79,1.43-.79,2.84-1.62,4.3-2.34,1.4-.7,2.87-1.25,4.26-1.96.37-.19.57-.72.84-1.09-.42-.21-.82-.47-1.26-.63-.24-.09-.56.03-.81-.04-2.1-.61-4.23-.81-6.39-.38-1.5.3-3.05.47-4.48.99-1.74.63-3.38,1.56-5.07,2.36-.63.3-1.16.21-1.35-.5-.11-.44-.14-.97,0-1.39.94-2.7,2.35-5.16,4.11-7.42,1.53-1.96,3.07-3.91,4.62-5.85.57-.72.48-1.38-.17-1.96-1.53-1.36-3.12-2.64-5.04-3.47-1.76-.76-3.39-.4-4.37,1.09-1.3,1.98-2.51,4.02-3.82,6-1.89,2.85-3.38,5.89-4.48,9.12-.21.6-.54,1.16-.81,1.74-.19-1.03-.23-2-.18-2.98.14-2.6-1-4.58-2.98-6.13-2.04-1.61-4.22-1.6-5.85.37-1.61,1.95-2.9,4.17-4.33,6.26-.34.49-.51,1.2-1.44,1.08.32-3.29-.67-6.14-2.61-8.76-1.87-2.52-6.38-4.63-9.66-3.28-.66.27-1.43.33-2.16.38-.17.01-.58-.47-.54-.62.52-1.78,1.05-3.57,1.69-5.31.59-1.59,1.25-3.18,2.04-4.68,1.26-2.42,2.5-4.88,4.02-7.14,1.31-1.94,3.01-3.63,4.53-5.43.67-.79.58-1.09-.28-1.65-2.2-1.42-4.7-.96-6.93-.61-2.33.38-3.98,2.29-4.82,4.6-1,2.78-1.92,5.59-2.81,8.41-.87,2.79-1.66,5.61-2.48,8.42-.82,2.85-1.65,5.69-2.42,8.55-.43,1.57-.71,3.19-1.16,4.75-.7,2.46-1.38,4.93-2.28,7.32-.49,1.31-1.36,2.49-2.13,3.68-.13.21-.63.29-.93.23-.16-.03-.38-.53-.32-.74.7-2.42,1.43-4.84,2.2-7.24.69-2.15,1.46-4.29,2.17-6.44.06-.19-.02-.45-.1-.65-.53-1.27-1.77-1.79-2.87-1.89-1.92-.17-2.29-.63-2.92,1.86-.71,2.83-1.39,5.68-2.26,8.47-.83,2.68-1.61,5.32-1.42,8.17.08,1.16.58,1.96,1.53,2.56,1.49.94,2.75.12,3.89-.66,1.16-.79,2.14-1.91,3.76-1.22.06.03.14,0,.2,0,.69-.13,1.49-.89,2.02-.09.36.54.22,1.41.3,2.14,0,.03,0,.07,0,.1-.22,2.52,1.98,3.92,4.09,4.14,1.96.21,3.98.23,6.02-.44,2.26-.75,4.25-1.79,5.96-3.37,1.09-1.01,2.05-2.17,3.09-3.25.19-.2.5-.28.75-.42.13.29.33.57.38.87.17,1.23.26,2.47.43,3.7.25,1.86,2.33,4.05,4.59,4.04,2.48-.02,4.57-1.07,6.67-2.17,2.2-1.15,3.95-2.9,5.77-4.55.74-.67,1.44-1.4,2.13-2.13.37-.39.67-.83,1.04-1.3Zm-89.87,5.42c.12.04.24.08.37.12.13.94.05,1.98.43,2.81,1.36,3.05,3.46,3.66,6.39,3.15,2.62-.46,4.82-1.95,6.74-3.76,1.92-1.81,3.69-3.73,5.08-6.02,1.21-2,1.95-4.12,2.05-6.4.1-2.17-.7-4.19-1.73-6.08-.43-.79-.96-1.53-1.54-2.22-.23-.27-.73-.5-1.05-.44-.24.04-.5.57-.54.91-.13.93-.24,1.89-.21,2.83.09,2.82-.89,5.4-1.89,7.93-1.22,3.08-3.16,5.71-5.69,7.88-.38.33-.77.66-1.2.92-1.18.72-2.13.21-2.08-1.13.02-.66.13-1.34.34-1.96.71-2.18,1.41-4.37,2.23-6.51,1.05-2.73,2.21-5.42,3.33-8.13,1.2-2.89,2.38-5.8,3.63-8.67,1.26-2.91,2.62-5.77,3.89-8.67.13-.3,0-.8-.17-1.11-.79-1.39-2.34-1.65-3.62-2.32-.85-.45-1.42-.09-1.85.63-.18.31-.29.67-.42,1.01-.51,1.29-1.02,2.59-1.53,3.88-1.26,3.22-2.5,6.45-3.8,9.66-.62,1.54-1.33,3.05-2,4.57-.41.92-.92.73-1.54.18-.6-.53-1.22-1.08-1.93-1.44-1.11-.57-2.49-.65-3.46-.09-1.1.63-2,1.75-2.73,2.83-1.13,1.69-2.05,3.51-3.04,5.29-.87,1.56-1.2,1.71-2.59.69-.91-.67-1.84-.85-2.71-.27-.95.62-1.5,1.52-1.15,2.83.2.75.16,1.68-.1,2.41-3.22,7.55-4.3,7.83-4.8,7.77-.5-.06-.77-.96-.74-1.42.07-1.19.34-2.37.57-3.55.57-2.89,1.66-5.61,2.94-8.23.46-.95,1.22-1.76,1.91-2.58.39-.46.88-.38,1.25.11.14.19.8,1.14,1.32,1.11.52-.03,1.37-2.91-.54-5.07-1.03-1.3-3.68-2.07-4.8-1.13-1.35,1.14-2.69,2.42-3.64,3.88-1.18,1.82-1.95,3.9-2.9,5.87-1.11,2.29-1.1,2.55-3.16.85-.61-.5-1.32-.63-1.93-.2-.86.6-1.8,1.22-1.55,2.58.12.66.1,1.37,0,2.04-.12.77-.34,1.54-.61,2.27-2.67,5.43-3.5,6.36-4.36,6.11-.87-.25-.72-2.49.81-7.73.78-2.69,1.88-5.27,3.57-7.54.27-.37.67-.65,1.08-1.03.45.57.75,1.03,1.13,1.4.22.2.59.36.87.33.16-.01.36-.43.4-.69.26-1.87-.26-3.51-1.59-4.84-.96-.96-3.17-1.19-4.22-.33-1.09.89-2.21,1.84-2.97,3-5.27,9.3-5.45,17.03-4.34,19.72.73,1.77,2.1,2.89,3.93,3.01,1.54.1,2.91-.83,3.93-1.97,2.09-2.33,3.5-5.07,4.5-8.04.39-1.15.98-2.25,1.58-3.32.16-.28.84-.59.99-.49.32.23.63.72.63,1.11.01,1.52-.25,3.05-.13,4.56.18,2.31,1.41,4.07,3.5,5.12,1.77.88,4.35-.79,5.41-2.07,2.43-2.93,3.57-6.51,5.03-9.93.23-.53.76-.93,1.15-1.39.08.06.17.12.25.18,0,.51.09,1.04-.01,1.53-.51,2.43-.14,4.76.87,6.98.75,1.65,1.81,3.06,3.57,2.88,1.22-.12,1.91-.98,2.52-1.84.98-1.39,1.82-2.87,2.71-4.31Zm30.49-12.84c-.15-.03-2.21,1.78.17-21.8.31-3.03.8-6.02,1.5-8.99.25-1.05-.45-1.93-1.51-2.31-2.07-.73-4.16-.65-6.28-.39-1.98.24-2.48.76-2.45,2.78.03,1.63.16,3.25.18,4.88.01.77.14,5.88.21,7.67.17,4.89.21,9.79.46,14.67.12,2.4.51,4.8.96,7.17.37,1.95.84,3.92,1.55,5.77.78,2.01,1.8,3.93,2.89,5.8.74,1.27,2.4,1.59,3.22.66.76-.86,1.41-1.92,1.74-3,.5-1.61.61-3.34.99-4.99.74-3.17,1.53-6.33,2.37-9.48.66-2.47,1.35-4.94,2.18-7.36.88-2.58,1.87-5.12,2.93-7.62.94-2.23,1.95-4.44,3.08-6.57,1.73-3.25,3.61-6.4,6.03-9.24,1.59-1.86,3.31-3.54,5.24-5,1.22-.92,2.6-1.63,3.87-2.5.27-.19,2.96-1.61-4.97-3.58-1.42-.35-2.9-.64-4.35-.65-1.1,0-5.09-.87-9.94,8.43-.69,1.69-1.16,3.46-1.72,5.21-.85,2.69-1.77,5.37-2.5,8.1-1.13,4.18-2.14,8.39-3.17,12.6-.45,1.84-.8,3.71-1.24,5.55-1.13,4.66-1.24,3.76-1.46,4.2Zm-80.47,15.88c.13.01.26.03.39.04.02.28.07.56.04.83-.06.53-.18,1.05-.27,1.58-.34,1.97-.6,3.95-1.05,5.9-.4,1.71-1,3.37-1.54,5.04-.5,1.55-1.02,3.09-1.58,4.61-.26.71-.68,1.37-.93,2.08-.96,2.74-2.32,5.23-4.36,7.33-.45.47-.93.91-1.37,1.38-1.04,1.11-2.34,1.64-3.82,1.77-1.2.1-2.17-.55-2.56-1.69-.45-1.34-.25-2.66.25-3.94.22-.58.3-1.14-.3-1.38-.2-.08-.81.41-.97.76-1.32,2.89-2.62,5.8-2.47,9.1.13,2.86.99,3.87,3.51,4.71,2.6.87,5.1,0,7.42-1.2,1.9-.98,3.41-2.45,4.81-4.1,1.87-2.2,3.2-4.7,4.33-7.3,1.04-2.4,1.87-4.89,2.73-7.36.52-1.5,1.03-3.03,1.38-4.58.72-3.15,1.37-6.33,1.97-9.5.38-1.97.65-3.97.91-5.96.25-1.9.44-3.8.64-5.7.09-.91.02-1.84.22-2.72.6-2.6.58-5.23.6-7.87,0-.85-.29-1.51-.99-1.86-1.21-.62-2.45-1.2-3.74-1.63-1.13-.38-1.64.1-1.64,1.31,0,.38.01.75,0,1.13-.04.78-.54,1.06-1.23.67-.55-.31-1.08-.67-1.63-.99-1.46-.83-3.54-.86-4.58-.14-2.5,1.74-3.78,4.44-4.99,7.04-1.34,2.88-2.27,5.95-2.84,9.12-.79,4.35-.25,8.39,2.49,11.92,1.15,1.48,2.65,2.45,4.47,1.61,1.72-.79,2.76-2.3,3.62-3.93.68-1.29,1.34-2.6,2.01-3.91.37-.72.73-1.45,1.1-2.17Zm111.87,18.6c-.29.93.09,1.53,1.05,1.5,1.89-.05,3.65-.55,5.4-1.32,1.96-.86,3.41-2.03,4.45-3.94,1.13-2.08.57-5.58-1.09-7.2-6.76-7.75-36.54-8.91-94.46,2.64-2.55.52-12.76,3.02-12.92,3.07-.92.27-1.85.53-2.74.87-.21.08-.47.57-.39.74.12.27.48.59.76.6.66.03,1.33-.12,2-.17,1.18-.09,43.54-7.28,70.53-7.73,26.99-.44,28.1,8.71,27.41,10.92Zm-13.11,21.77c-.3.97.03,1.62.9,1.62,1.72,0,3.33-.46,4.95-1.21,1.81-.84,3.17-2.03,4.19-4.01,1.11-2.15.73-5.87-.72-7.63-5.84-8.39-32.84-10.59-85.87-.31-2.33.46-11.7,2.77-11.85,2.81-.85.26-1.7.49-2.52.83-.2.08-.45.59-.39.77.1.29.42.64.67.66.6.05,1.22-.08,1.83-.11,1.07-.06,39.82-6.25,64.34-5.84,24.52.42,25.19,10.1,24.47,12.41Zm-42.22-24.04c.38-2.19-2.35-5.15-4.81-5.04-2.46.1-4.93,2.28-4.84,4.87.09,2.65,2.23,4.99,4.73,4.99s4.93-2.27,4.93-4.82Zm3.69-.02c.85-.25,1.1.33,1.47.82.71.94,1.46,1.86,2.26,2.71.56.59,1.37.38,1.56-.42.14-.62.05-1.29.03-1.94-.06-1.83-.09-3.66-.24-5.49-.03-.32-.55-.82-.85-.83-.31,0-.83.44-.91.77-.14.61-.14,1.32.04,1.92.2.66.1,1.21-.43,1.47-.22.1-.75-.4-1.1-.68-.15-.11-.2-.35-.32-.51-.6-.81-1.14-1.66-1.83-2.38-.29-.3-.94-.48-1.33-.37-.28.08-.57.73-.57,1.12,0,2.17.11,4.34.18,6.52,0,.16.07.33.1.49.1.65.46.92,1.13.82.64-.09.83-.47.82-1.06-.02-.99,0-1.97,0-2.96Zm34.56-48.86c-.94.05-1.5.63-1.73,1.45-.31,1.05-.47,2.14-.72,3.21-.22.93.3,1.75,1.25,1.89.86.13,1.71.29,2.57.4.69.08,1.33.09,1.67-.75.45-1.1,1.12-2.13,1.47-3.26.27-.85.27-1.88-.83-2.33-.78-.33-3.28-.62-3.69-.6Zm-15.63,43.74c-.13-.28-.19-.7-.42-.83-.23-.12-.71-.06-.92.11-.39.33-.7.77-.97,1.21-.62,1.02-.89,1.06-1.64.15-.25-.31-.48-.64-.75-.95-.41-.47-.99-.75-1.44-.29-.24.24-.2.95-.04,1.34.28.67.76,1.25,1.14,1.88.65,1.06,1.22,2.14,1.09,3.46-.05.46.03.94.09,1.41.09.65.58.97,1.14.78.34-.12.67-.6.77-.98.13-.47.06-1.01.03-1.52-.08-1.1.08-2.12.64-3.11.47-.83.83-1.73,1.28-2.67Zm-11.46,4.96s-.06,0-.09,0c0,.27.01.55,0,.82-.15,3.3.45,2.93,3.11,2.94.03,0,.08.01.1,0,.43-.31,1.13-.55,1.23-.94.13-.55-.46-.81-1.06-.92-1.22-.23-1.53-.68-1.54-1.95,0-1.23.02-2.46,0-3.69-.02-.82-.81-1.84-1.29-1.67-.77.27-.76,1-.75,1.67,0,.1,0,.21,0,.31.1,1.14.2,2.29.29,3.43Z"/>
      <path class="cls-1" d="m122.63,51.88c.17-.68.29-1.39.53-2.05.64-1.71,1.31-3.42,2.02-5.11,1.1-2.6,2.68-4.85,4.95-6.59,1.61-1.23,3.28-1.74,5.21-.86,1.52.69,2.01,2.17,2.33,3.56.8,3.45.03,6.59-2.19,9.44-2,2.56-4.45,4.39-7.5,5.42-.65.22-1.4.23-2.09.17-.71-.06-.98-1.18-.48-2.14.58-1.12,1.28-2.19,1.87-3.31.17-.33-.74-1.15-1.06-.92-.88.62-1.66,1.36-2.5,2.04-.25.2-.55.33-.82.5-.1-.05-.19-.1-.29-.14Z"/>
      <path class="cls-1" d="m170.4,57.09c-.2.36-.41.71-.6,1.07-.33.62-.36,1.15-.04,1.88.42.97.63,2.1.67,3.17.12,3.15-1.81,5.39-3.79,7.46-1.97,2.05-4.38,3.61-6.94,4.88-.95.47-4.68,1.3-5.4.7-.72-.61-.61-1.36-.41-2.21.65-2.72,2.42-4.74,4.16-6.75,1.49-1.73,3.12-3.36,4.84-4.85,2.3-1.98,4.75-3.79,7.13-5.67.12.11.25.21.37.32Z"/>
      <path class="cls-1" d="m156.82,49.33c-.35.69-.54,1.23-.87,1.67-1.21,1.56-2.36,3.2-3.75,4.59-.86.86-2.05,1.48-3.2,1.92-1.46.55-2.37-.21-2.22-1.77.15-1.48.44-2.97.81-4.41.4-1.53.86-1.73,2.36-1.18,2.2.8,4.3.98,6.18-.77.06-.05.2-.02.7-.04Z"/>
      <path class="cls-1" d="m155.14,41.6c-.15,2.71-1.02,4.57-3.66,5.56-.98.37-1.96-.02-1.83-.78.08-.48.26-.98.53-1.38,1-1.5,2.03-2.98,3.12-4.42.25-.33.82-.64,1.19-.59.26.04.45.7.63,1.1.06.14,0,.34.01.51Z"/>
      <path class="cls-1" d="m68.44,53.57c.87-3.1,2.02-6.08,3.91-8.71.42-.59,1.05-1.2,1.71-1.43,1.32-.45,1.84.61,1.71,1.57-.36,2.59-1.26,5.02-2.56,7.3-.73,1.27-1.26,2.66-1.98,3.93-.69,1.22-1.48,2.38-2.3,3.52-.18.25-.66.42-.96.37-.22-.03-1.84,0,.47-6.56Z"/>
      <path class="cls-1" d="m15.88,56.34c.83-3,1.85-5.96,3.58-8.59.42-.64,1.01-1.18,1.61-1.67.57-.46,1.1-.2,1.36.42.19.45.29.98.29,1.46,0,.98,0,1.98-.23,2.92-.36,1.44-.91,2.82-1.41,4.23-.39,1.12-3.98,11.36-5.51,10.88-1.53-.47-.31-7.38.32-9.65Z"/>
      <path class="cls-1" d="m73.93,74.75c1.44-.01,3.11,1.52,3.12,2.86,0,1.25-1.67,3.07-2.84,3.08-1.47.02-2.89-1.33-2.9-2.76-.01-2.08.89-3.17,2.62-3.19Z"/>
    </g>
  </g>
</svg>