<svg width="53" height="64" viewBox="0 0 53 64" fill="none" xmlns="http://www.w3.org/2000/svg">
<path d="M13.1542 63.0504C6.28042 63.0504 0.687988 58.4489 0.687988 52.7934C0.687988 47.1378 6.28042 42.5364 13.1542 42.5364C13.596 42.5364 14.0442 42.5553 14.4923 42.5995L5.49773 13.8862C5.42199 13.6401 5.44723 13.3749 5.56716 13.1477C5.68709 12.9205 5.89538 12.7564 6.14786 12.6869L51.3733 0.113448C51.67 0.0313921 51.9856 0.094492 52.2192 0.290164C52.459 0.479524 52.5853 0.776188 52.5726 1.07916C51.8026 14.65 50.3508 40.5166 50.3382 41.2614C50.3382 45.8755 45.7872 49.6311 40.1948 49.6311C34.6024 49.6311 30.0514 45.8691 30.0514 41.2487C30.0514 36.6284 34.6024 32.8664 40.1948 32.8664C40.8007 32.8664 41.4004 32.9106 41.9874 32.999L42.6249 18.8601L19.4599 28.2018L25.1785 49.4543C25.229 49.6437 25.2164 49.8457 25.1533 50.0224C25.4626 50.9314 25.6204 51.8592 25.6204 52.7871C25.6204 58.4426 20.028 63.0441 13.1542 63.0441V63.0504ZM13.1542 44.43C7.3219 44.43 2.58159 48.1793 2.58159 52.7934C2.58159 57.4074 7.3219 61.1568 13.1542 61.1568C18.9865 61.1568 23.7268 57.4074 23.7268 52.7934C23.7268 51.916 23.5437 51.0386 23.1903 50.1865C23.083 49.934 23.0956 49.6563 23.2029 49.4228L17.4148 27.8988C17.2885 27.4381 17.5284 26.9521 17.9766 26.7753L43.2877 16.5688C43.5843 16.4489 43.9252 16.4868 44.1903 16.6761C44.4554 16.8592 44.6006 17.1685 44.5879 17.4904L43.8305 34.1982C43.8179 34.4823 43.679 34.7474 43.4518 34.9115C43.2246 35.0819 42.9342 35.1387 42.6565 35.0693C41.8548 34.8736 41.028 34.7726 40.1948 34.7726C35.6438 34.7726 31.945 37.6825 31.945 41.2614C31.945 44.8403 35.6438 47.7501 40.1948 47.7501C44.7457 47.7501 48.4446 44.8403 48.4446 41.2614C48.4446 40.6554 50.1804 9.91596 50.6096 2.29738L7.59963 14.2523L16.752 43.4643C16.853 43.7799 16.7773 44.127 16.5564 44.3795C16.3354 44.6257 15.9946 44.7393 15.6727 44.6762C14.8206 44.512 13.9747 44.43 13.1605 44.43H13.1542Z" fill="black"/>
</svg>
