<svg width="66" height="63" viewBox="0 0 66 63" fill="none" xmlns="http://www.w3.org/2000/svg">
<path d="M32.5857 62.8611C32.1926 62.8611 31.8064 62.7326 31.4834 62.4687C30.1985 61.4129 0 36.4802 0 19.4803C0 9.21476 8.22192 0.861084 18.3255 0.861084C24.1672 0.861084 29.5666 3.6647 33 8.33021C36.4264 3.6647 41.8257 0.861084 47.6674 0.861084C57.7781 0.861084 66 9.21476 66 19.4803C66 36.4945 34.987 61.4272 33.667 62.483C33.3511 62.7398 32.9649 62.8611 32.5857 62.8611ZM18.3325 4.42085C10.1598 4.42085 3.51764 11.1766 3.51764 19.4732C3.51764 33.1059 27.2004 54.1435 32.6068 58.7662C35.0432 56.7402 41.1447 51.5112 47.183 45.1335C57.2023 34.547 62.4964 25.6725 62.4964 19.4732C62.4964 11.1695 55.8472 4.42085 47.6745 4.42085C42.1628 4.42085 37.1355 7.50978 34.5587 12.4821C34.2568 13.067 33.66 13.438 33.007 13.438C32.354 13.438 31.7572 13.0742 31.4553 12.4892C28.8785 7.51692 23.8513 4.42799 18.3396 4.42799L18.3325 4.42085Z" fill="black"/>
</svg>
