<?xml version="1.0" encoding="UTF-8"?>
<svg id="Layer_1" data-name="Layer 1" xmlns="http://www.w3.org/2000/svg" viewBox="0 0 160.13 67.17">
  <defs>
    <style>
      .cls-1 {
        stroke-width: 0px;
      }
    </style>
  </defs>
  <path class="cls-1" d="m40.15,19.18c.02-1.39.04-2.42.43-3.37.28-.67.59-1.54,1.54-1.27.86.25,1.12,1.05,1.01,1.9-.16,1.27-.45,2.55-1.1,3.64-.66,1.11-.56,1.97.14,3,.76,1.11,1.44,2.28,2.6,3.36.2-1.72.47-3.27.54-4.84.13-2.89.7-5.71,1.25-8.53.11-.59-.04-.84-.4-1.25-.67-.77-1.39-1.11-2.42-1.45-1.41-.47-2.77-1.78-3.56-3.17-.44-.78-.49-1.74-1.2-2.54-.88-.97.13-2.82,1.7-3.51,1.7-.75,3.44-.83,5.17-.21.66.24,1.12.14,1.69-.27,1.7-1.23,3.59-.7,4.45,1.23.18.41.39.59.79.79,1.89.94,3.55,2.15,4.64,4.06.62,1.08.69,2.17.61,3.33-.05.72-.47,1.41-1.14,1.41-.98,0-1.47.47-1.88,1.21-.06.1-.19.24-.27.23-1.49-.21-2.85.68-4.31.53-.53-.05-.95-.47-1.25-.92-.19-.28-.27-.86-.71-.62-.44.24-1.06.29-1.16,1.09-.29,2.32-.83,4.62-1.06,6.94-.83,8.37-.95,16.77-.71,25.44.75-1.4,1.24-2.75,2.09-3.8,1.41-1.75,1.53-3.37.36-5.27-.59-.96-.47-2.14-.42-3.26.03-.72.41-1.24,1.04-1.36.63-.12,1.01.42,1.26.97.55,1.18.69,2.41.52,4.34,1.43-1.12,1.61-1.57.83-3.13-.61-1.21-.71-2.52-1-3.79-.13-.59-.1-1.23.14-1.83.23-.57.4-1.25,1.21-1.17.76.08,1.11.65,1.26,1.32.27,1.25.46,2.51.14,3.79-.09.35-.08.73-.02,1.13.92-1.33,1.94-2.62,2.04-4.33.1-1.83.46-3.57,1.49-5.12.39-.59.9-1.01,1.64-.8.87.25.72,1.01.66,1.65-.13,1.45-.9,2.67-1.83,3.68-1.34,1.45-2.07,3.19-2.97,5.12,1.43-.66,2.68-1.29,4-1.75.92-.32,1.71-.23,2.14.59.49.92-.18,1.61-.9,2.04-1.54.92-3.28,1.41-5.05,1.3-1.62-.1-2.39.66-2.96,2.04,1.07-.3,2.08-.61,3.09-.87.39-.1.83-.18,1.22-.1.72.13,1.37.53,1.39,1.34.01.74-.55,1.18-1.23,1.35-1.5.38-3.04.37-4.54.08-1-.19-1.46.22-1.99.95-2.99,4.12-3.68,8.72-3.2,13.69.4,4.14.87,8.24,1.97,12.25.08.28.17.61-.23.7-.46.1-.52-.3-.61-.61-.64-2.13-1.04-4.31-1.37-6.5-1.57-10.32-1.01-20.7-.97-31.07,0-.91-.1-1.62-.85-2.28-1.28-1.11-2.11-2.6-2.86-4.1-.36-.71-.8-.93-1.53-.96-1.4-.06-2.74-.38-3.96-1.14-.71-.45-1.32-.99-.98-1.87.35-.89,1.22-.54,1.85-.44,1.06.17,1.91.89,3.05,1.51-.78-1.72-1.09-3.35-2.39-4.66-1.43-1.44-2.25-3.32-2.13-5.48.04-.67.19-1.27.9-1.43.69-.16,1.13.27,1.5.82,1.27,1.85,1.56,3.95,1.49,6.11-.05,1.41.6,2.56,1.32,4.1m9.08-12.17c0-.57,0-1.15,0-1.72,0-.29,0-.59-.36-.7-.32-.1-.61-.12-.92.12-1.16.89-2.22,4.19-1.82,5.64.16.57.52.96,1.06,1.07.62.13.95-.35,1.2-.84.58-1.12.77-2.32.83-3.57m3.11,3.43c-.04-1.99-.53-3.58-1.31-5.08-.12-.24-.19-.64-.55-.56-.35.07-.27.45-.3.72-.16,1.59-.23,3.19-.62,4.75-.13.52-.05,1.06.2,1.56.28.58.72.91,1.36.84.59-.06.93-.44,1.01-1.06.06-.48.18-.96.22-1.18m-.5-7.08c1.98,1.89,3.24,3.84,3.73,6.23.1.47.07,1.19.84,1.13.85-.06.82-.77.84-1.39.06-2.29-2.62-5.44-5.41-5.97m-.23,1.16c.94,2.25,1.78,4.47,1.4,6.96-.06.37.19.71.64.77.38.04.72.02.94-.39.26-.49.44-.99.31-1.53-.22-.87-.35-1.8-.74-2.59-.6-1.24-1.2-2.53-2.55-3.21m-3.95-.67c-1.99.15-4.59,2.79-4.62,4.49-.01.6.12,1.19.82,1.32.74.14,1.2-.26,1.31-.95.28-1.83,1.18-3.33,2.49-4.86m-1.62-1.94c-1.83-.48-3.63-.73-5.39.3-.49.29-.79.71-1.04,1.17-.26.48.02.85.36,1.19.29.28.6.31.86.03,1.41-1.52,3.2-2.28,5.21-2.69m.52.76c-2.06.55-3.83,1.12-5.15,2.61-.35.4-.53.81-.54,1.32-.02.57.26.96.79,1.11.57.16.63-.33.81-.7.58-1.2,1.47-2.13,2.5-2.97.48-.39,1.17-.54,1.59-1.36m3.4,1.19c.54-.11,1.39.1,1.35-1.02-.03-.98-.83-1.81-1.88-1.87-.95-.05-2.1.69-2.1,1.34,0,.74,1.23,1.49,2.62,1.54m-11.8,11.31c-.1-2.22-.35-4.04-1.43-5.66-.15-.23-.34-.5-.68-.4-.38.11-.28.46-.28.72-.02,2.03.96,3.6,2.4,5.34m15.37,19.7c2.09-.07,3.83-.3,5.36-1.35.21-.15.62-.38.4-.78-.21-.38-.52-.36-.94-.22-1.58.55-3.14,1.14-4.82,2.35"/>
  <path class="cls-1" d="m18.37,24.77c.22.98.34,1.88-.18,2.54-.65.83-.48,1.57-.19,2.42,1.34,3.9,2.47,7.85,3.28,11.9.77,3.83,1.3,7.7,1.69,11.58.25,2.44.46,4.91.18,7.37-.04.36-.06.82-.58.77-.46-.05-.5-.46-.52-.85-.04-1.72-.12-3.44-.12-5.17,0-.7-.22-1.24-.64-1.8-1.17-1.54-2.8-2.5-4.33-3.6-4.26-3.06-8.7-5.93-11.33-10.71-1.32-2.4-2.99-4.65-3.08-7.56-.03-1.07.26-1.39,1.15-1.05,5.65,2.18,10.25,5.7,13.87,10.57,1.1,1.48,2,3.07,3.17,4.81-.02-.42,0-.56-.03-.7-.85-4.87-1.89-9.69-3.51-14.38-.4-1.17-.42-2.62-2.21-2.62-.21,0-.45-.22-.61-.39-.98-1.07-1.77-.83-2.76.12-1.65,1.59-3.58,1.09-4.37-1.03-.23-.62-.46-1.25-.54-1.89-.09-.69-.26-.91-.88-.47-.2.14-.43.24-.66.32-1.33.48-2.61.51-3.66-.58-.96-.99-.71-2.09-.15-3.19.29-.56.25-.99-.24-1.52-1.54-1.7-1.44-3.31.09-4.58.7-.58,1.99-.37,2.28-1.01.32-.71-.73-1.51-.82-2.43-.13-1.34.52-2.5,1.56-2.31,1.51.28,2.21-.44,2.93-1.56.82-1.29,1.7-1.31,2.83-.27.46.43.74,1.06,1.38,1.36.37-.82.65-1.64,1.1-2.35.43-.68,1-1.31,1.98-1.22.96.09,1.68.54,1.93,1.46.38,1.42,1.1,1.83,2.51,1.24.87-.37,1.86-.22,2.5.54.61.72.68,1.63.32,2.57-.13.35-.3.66-.48.99-.66,1.22-.65,1.2.72,1.39,1.32.18,2.74.4,3.13,1.92.35,1.39-.78,2.07-1.79,2.62-.77.42-.78.87-.48,1.59.38.91.72,1.85.93,2.81.41,1.84-.9,3.23-2.78,3.11-.88-.06-1.61-.56-2.59-.77m3.1-5.32c-.55-.94-.25-1.68.83-2.16.11-.05.23-.1.32-.18.46-.44,1.5-.46,1.22-1.45-.25-.86-1.07-.88-1.8-.98-1.4-.19-2.68.09-3.87.88-.82.55-1.65,1.1-2.62,1.34-.57.15-.85.53-1.08,1.06-.41.92-.27,1.54.51,2.24,1.39,1.26,2.57,2.74,4.27,3.62.4.21.8.44,1.23.56,1.49.44,2.41-.41,2.13-1.95-.19-1.03-.71-1.93-1.13-2.99m-4.33,5.52c-.81-1.93-2.24-3.54-3.87-4.88-.65-.54-1.86-.25-2.73-.77-.27-.16-.57.26-.75.52-1.16,1.68-1.91,3.49-1.96,5.58-.03,1.04.4,1.77,1.19,2.27.84.54,1.46-.12,2.07-.6,1.9-1.47,1.95-1.49,3.65-.18.65.5,1.26.99,2.08.43.55-.37.67-1.33.32-2.37m-1.34-9.41c1.78-.82,3.61-2.08,4.6-4.27.28-.61.47-1.29,0-1.87-.44-.54-1.07-.21-1.62-.14-.24.03-.48.11-.72.17-1.12.28-1.93.02-2.28-1.2-.23-.79-.52-1.78-1.47-1.75-.89.03-1.23,1-1.49,1.77-.71,2.08-.43,4.23-.24,6.34.1,1.12,1.55,1.58,3.22.96m-11.18,8.5c1.25-.54,2.31-1.33,2.96-2.51.58-1.04,1.09-2.11,1.91-2.98.42-.45.3-.67-.19-.91-1.25-.61-2.48-1.26-3.73-1.87-1.26-.62-2.48-.39-3.65.22-.89.47-1.09,1.62-.45,2.43.18.22.4.41.61.61.72.7,1.07,1.41.35,2.37-.51.69-.69,1.54-.08,2.28.62.77,1.49.48,2.29.37m14.93,26.1c-4.03-6.49-9.98-11.17-15.21-16.54,2.56,7.84,8.66,12.4,15.21,16.54M3.95,12.14c.4,1.36,1.51,2.1,2.54,2.89.55.42,1.17.75,1.78,1.08,1.72.93,3.3-.04,3.16-2.06-.12-1.76-.51-3.49-1.52-5.01-.9-1.35-1.54-1.35-2.35.07-.6,1.04-1.25,1.7-2.64,1.36-1.06-.26-1.39.41-.97,1.66m16.63,37.06c-2.04-6.53-8.33-13.93-15.55-16.65,5.16,5.57,11.29,10.24,15.55,16.65"/>
  <path class="cls-1" d="m109.77,34.33c.93-5.78.06-11.66,1.4-17.5-.91.15-1.14.81-1.61,1.15-.65.47-1.31.9-2.14.78-.96-.13-1.05-.9-1.1-1.67-.03-.4-.35-.5-.67-.62-.82-.3-1.23-.87-.9-1.73.24-.63-.12-.74-.56-.97-1.59-.84-1.85-1.98-.72-3.37.41-.5.19-.91.12-1.37-.3-1.95.45-2.64,2.32-2.11.04-.45-.26-.75-.46-1.08-.32-.52-.38-1.08-.34-1.67.06-.85,2.42-2.94,3.27-2.86.38.04.57-.06.82-.34.93-1.02,1.83-.88,2.24.47.38,1.25.51,2.57.76,3.86.06.31.02.68.52.87.18-.97.41-1.91.53-2.87.1-.77.37-1.44.84-2.02.76-.92,1.29-.94,2.1-.04.3.34.47.41.91.23,1.51-.62,1.68-.52,2.1,1.04.07.28.14.37.45.41,1.68.2,2.2,1.14,1.51,2.71-.23.52-.53,1.02-.85,1.5-.31.47-.69.89-1.07,1.36.57.33.96-.17,1.43-.19.53-.02,1.03.07,1.35.47.32.4.16.9-.14,1.26-.54.65-.38,1.04.18,1.64,1,1.06.55,2.47-.81,3.09-.55.25-1.11.28-1.68.31-.56.04-1.12-.27-1.8.07.64.58.82,1.34,1.03,2.07.42,1.44-.41,2.29-1.88,1.95-.46-.11-.71-.06-1,.4-.81,1.31-1.64,1.29-2.69.11-.55-.62-.61-1.5-1.33-2.27-.74,9.56-1.03,18.95-.73,28.37.62-2.3,1.18-4.62,2.07-6.84,1.53-3.83,3.67-7.3,5.95-10.71.2-.3.47-.5.82-.44.4.07.57.39.67.79,1.87,7.2-.15,13.39-4.85,18.9-1.27,1.49-2.75,2.8-3.62,4.62-.68,1.44-.44,2.92-.29,4.37.32,3.03.77,6.04,1.17,9.06.02.12.05.25.05.37.01.37.1.87-.33.96-.53.11-.64-.44-.7-.81-.37-2.44-.8-4.87-1.04-7.33-.6-6.18-1.29-12.37-1.19-18.6.01-.74-.28-1.29-.88-1.78-1.98-1.63-4.27-2.97-5.64-5.23-2.26-3.72-3.37-7.65-1.98-11.99.17-.54.44-1.07.98-1.17.6-.12.93.47,1.19.91,2.54,4.26,4.93,8.59,6.2,13.47m10.68-29.54c.03-.86-.47-1-1.49-.54-.37.16-.72.79-1.16.33-.35-.36,0-.83.16-1.25.13-.36.54-.83.08-1.1-.47-.28-.61.38-.9.61-.33.26-.47.87-1.02.72-.49-.13-.36-.68-.49-1.05-.09-.26-.02-.63-.4-.68-.45-.07-.5.35-.65.62-.58,1.03-.47,2.25-.88,3.32-.48,1.27-.28,2.07.98,2.86,1.6,1,1.51,1.16,3.06-.02.75-.58,1.42-1.24,1.95-2.04.36-.55.6-1.16.77-1.75m-7.48,44.08c4.95-4.95,8.18-10.57,6.84-17.91-1.12,6.42-5,11.77-6.84,17.91m-2.79-47.57c-.15.46-.24.68-.29.91-.31,1.49-.31,1.48-1.43.56-.12-.09-.31-.23-.41-.19-.31.11-.2.41-.17.63.09.7.09,1.36-.89,1.06-1.05-.32-.93.21-.68.85.46,1.16,1.21,2.12,2.15,2.93.22.19.49.7.78.39.7-.74,1.8-.72,2.47-1.44.06-.07-.03-.32-.1-.46-.49-1.03-.58-2.12-.67-3.24-.05-.63-.16-1.28-.75-2.01m2.4,13.26c.31,1.32.37,2.99,1.34,4.39.2.28.4.56.77.49.41-.08.4-.45.44-.78.23-1.69.27-1.71,1.62-.68.23.18.42.42.74.3.4-.16.29-.55.27-.85-.03-.32-.08-.67-.25-.94-.75-1.23-1.76-2.25-2.9-3.12-.51-.39-1.19-.29-1.77-.06-.41.17-.29.63-.28,1.26m-.34,32.61c2.34-5.29,5.08-10.42,6.4-16.11-3.2,4.96-5.94,10.09-6.4,16.11m-9.32-25.55c.01,3.68,3.69,11.72,6.18,13.78-1.18-4.92-3.37-9.3-6.18-13.78m17.02-7.62c.42-.15,1.21.1,1.52-.71.18-.48.15-.98-.32-1.18-1.24-.51-1.12-1.16-.33-1.98.19-.2.4-.48.2-.76-.19-.27-.45-.03-.67.03-1.47.38-2.73,1.26-4.17,1.75-.98.33-.87,1.47.08,1.95,1.11.56,2.26.95,3.69.91m-14.35-.94c1.09.04,1.8-.45,2.57-.7,1.33-.42,1.38-.64.86-1.89-.22-.53-.61-.8-1.08-.89-.85-.16-1.48-.66-2.11-1.19-.35-.3-.68-.89-1.21-.44-.57.49-.1,1,.25,1.37.65.7.6,1.21-.29,1.59-.42.18-.67.51-.67.95,0,.52.38.79.84.94.35.12.7.21.84.25m2.41,22.93c-2.66-3.96-4.98-8.08-5.97-12.82-.94,4.77,1.71,10.55,5.97,12.82m3.36-22.72c-.08-.51-.59-.9-1.09-.69-1.38.59-2.83,1.07-4.06,1.98-.22.16-.38.32-.31.6.07.26.32.22.51.22,1.13-.03,1.54.41,1.04,1.51-.1.22-.16.5.02.7.23.27.52.12.8.03,1.05-.34,3.08-3.1,3.1-4.35m1.77-1.12c.67-.08,1.56-.06,1.64-1.22.08-1.18-1.31-2.36-2.89-2.44-.98-.05-1.8.57-1.84,1.39-.05,1.11,1.36,2.19,3.08,2.27"/>
  <path class="cls-1" d="m77.61,27.76c.59-3.75.61-7.21-.46-10.71-1.16-3.83-2.2-7.73-1.56-11.81.15-.94.3-1.88.96-2.65,1.07-1.23,2.24-1.37,3.49-.34,1.21,1,1.8,2.38,2.08,3.85.55,2.86.21,5.69-.4,8.52-.65,2.99-1.69,5.85-2.55,8.77-.45,1.52-.43,3.09-.41,4.99.61-1.74.74-3.28,1.3-4.7,1.19-3.04,2.61-5.91,5.42-7.84.5-.34,1.04-.47,1.58-.63,2.11-.6,3.48.45,3.61,2.65.18,3.17-1.08,5.65-3.34,7.79-2.26,2.13-4.63,4.17-6.3,6.85-1.39,2.23-2.49,4.55-1.73,7.5.62-1.83,1.16-3.52,2.16-5.01,1.18-1.76,2.52-3.36,4.59-4.12,1.34-.49,2.78-.92,4.01.1,1.31,1.09,1.23,2.59.79,4.12-.69,2.37-2.55,3.7-4.39,5.07-2.08,1.54-4.12,3.07-5.42,5.42-1.12,2.02-.9,3.97-.17,6.3.62-2.41,1.39-4.44,2.6-6.31,1.25-1.93,2.8-3.54,4.91-4.45,1.62-.69,3.52-.44,4.35,1.58,1.29,3.13-.26,6.85-3.15,9.17-1.88,1.51-3.91,2.85-5.5,4.72-1.48,1.75-1.86,3.6-1.07,5.73.28.75.55,1.52.55,2.33,0,.34.29.85-.26.96-.45.09-.44-.43-.59-.71-.5-1-.71-2.11-.92-3.18-.39-2.06-1.65-3.36-3.35-4.37-2.71-1.6-5.47-3.12-8.1-4.84-1.91-1.25-3.51-2.89-4.21-5.2-.39-1.29-.35-2.55.63-3.53,1.08-1.08,2.49-1.12,3.85-.63,3.59,1.29,6.16,3.81,8.12,7.01.15.25.31.5.5.8.33-1.96-.35-3.48-1.79-4.68-2.33-1.94-5.07-3.19-7.62-4.75-1.92-1.17-3.23-2.84-3.8-5.06-.43-1.67,0-3.42,1.19-4.13,1.6-.96,3.1-.36,4.5.53,2.47,1.57,4.31,3.72,5.6,6.34.15.31.27.62.57.83.6-2.01-.31-4.98-2.14-6.83-2.27-2.29-4.59-4.53-6.87-6.82-1.49-1.5-2.4-3.32-2.85-5.38-.25-1.16-.1-2.29.35-3.37.48-1.16,1.89-1.75,3.19-1.33,2.22.73,3.66,2.4,4.88,4.27.71,1.08,1.31,2.24,1.76,3.46.44,1.17.89,2.34,1.41,3.72m5.32,28.37c2.05-2.35,4.79-3.84,6.98-5.98,1.93-1.88,2.57-4.06,1.91-6.65-.23-.91-.64-1.02-1.32-.37-2.46,2.35-4.56,4.98-6.02,8.06-.73,1.55-1.47,3.13-1.55,4.93m-2.24-25.19c2.01-2.55,4.5-4.63,6.74-6.94,1.27-1.31,1.92-2.91,2.22-4.67.12-.74.18-1.51-.17-2.24-.3-.62-.63-.59-1.02-.14-.4.46-.78.93-1.16,1.4-3.05,3.74-5.15,7.99-6.6,12.6m-1.97,25.07c0-.16.04-.25,0-.3-.21-.31-.42-.62-.65-.92-2.8-3.6-6.25-6.48-10.01-9.03-.23-.15-.53-.42-.83-.2-.28.21-.19.57-.14.86.22,1.28.88,2.33,1.73,3.28,1.99,2.24,4.71,3.4,7.21,4.88.85.5,1.65,1.15,2.67,1.42m-2.36-23.84c-.06-.49-.04-.65-.1-.77-2.21-4.43-4.77-8.64-8.06-12.37-.18-.21-.41-.52-.76-.38-.35.13-.35.48-.35.78.02,2.19.85,4.06,2.24,5.71,2.07,2.46,4.56,4.48,7.04,7.03m4.38,11.67c.98-.97,1.71-1.76,2.5-2.48,1.73-1.58,3.83-2.72,5.42-4.47.95-1.05,1.33-2.28,1.26-3.66-.02-.36-.02-.84-.4-1.01-.42-.18-.71.27-.95.5-1.5,1.43-2.98,2.89-4.26,4.54-1.48,1.92-2.75,3.96-3.57,6.58m-3.52.87c.15-.41-.03-.56-.16-.74-2.49-3.65-5.94-6.34-9.22-9.21-.16-.14-.37-.32-.61-.23-.33.13-.23.46-.21.7.11,2.08,1.13,3.7,2.77,4.89,2.35,1.7,5.12,2.71,7.44,4.59m2.13,9.77c.03-.37.05-.48.04-.59,0-.11-.02-.23-.07-.34-1.4-3.26-3.29-6.14-6.36-8.09-1.22-.78-2.46-1.54-4.01-1.39-.3.03-.7-.04-.8.31-.1.35.27.46.54.62,1.85,1.13,3.57,2.43,5.21,3.85,1.91,1.67,3.62,3.53,5.44,5.63m-2.43-24.33c-.08-1.55-.54-2.79-.98-4.01-1.03-2.88-2.25-5.66-4.71-7.66-.59-.48-1.16-.99-1.98-1.01-.26,0-.59-.11-.74.14-.17.29.12.46.31.66.55.58,1.11,1.15,1.61,1.76,2.49,3.08,4.44,6.5,6.5,10.13m2.69-11.57c.88-3.29,1.73-6.45,1.75-9.73,0-1.47-.27-2.97-.97-4.31-.18-.34-.29-.99-.74-.89-.49.11-.22.72-.22,1.1-.02,4.2-.01,8.4,0,12.61,0,.36-.13.74.18,1.23m-2.04,23.88c-1.21-3.89-3.44-7.03-7.04-9.08-.56-.32-1.22-.44-1.89-.35-.3.04-.68.03-.77.37-.07.28.26.42.47.58,3.35,2.52,6.46,5.3,9.23,8.49m.63-25.67c.31-.58.23-1,.24-1.4.02-1.6-.06-3.21.07-4.8.19-2.33-.09-4.64-.08-6.96,0-.25,0-.57-.37-.6-.29-.02-.5.1-.66.36-.48.77-.63,1.61-.71,2.5-.31,3.67.54,7.18,1.51,10.9m11.98,25.34c-4.44-.16-8.9,8.14-8.14,12.26,1.46-4.89,4.3-8.83,8.14-12.26m-2.33-25.77c-3.87.13-7.52,8.08-7.59,12.09,1.82-4.41,4.09-8.54,7.59-12.09m-7.31,24.8c1.91-3.82,4.55-6.67,7.54-9.34-3.3-.53-7.36,5.14-7.54,9.34"/>
  <path class="cls-1" d="m142.32,37.77c.13-1.69-.5-2.97-.72-4.33-.93-5.75-3.04-11.19-4.64-16.76-.15-.53-.47-.76-1.07-.64-1.18.25-2.36.09-3.49-.28-2-.66-3.49-1.89-4.15-3.97-.18-.58-.11-1.09.59-1.11.77-.02,1.54-.08,2.32.07,1.62.3,3,1.09,4.51,2.12-.28-.9-.52-1.59-.71-2.3-.23-.88-.64-1.45-1.63-1.7-1.25-.31-1.88-1.44-1.77-2.73.11-1.3.96-2.24,2.27-2.5,1.13-.23,2.17.36,2.78,1.56.66,1.29.5,2.19-.6,3.15-.37.32-.6.64-.45,1.13.33,1.08.67,2.16,1,3.23.09-.02.19-.05.28-.07.11-.38.22-.77.34-1.14.58-1.84,1.5-3.46,3.11-4.6,1-.71,1.66-.39,1.77.84.28,3.14-1.04,5.56-3.48,7.41-.56.42-.77.77-.54,1.41.18.51.31,1.04.49,1.56,2.2,6.61,3.77,13.38,5.06,20.22.15.79.04,2.18.46,2.23.8.11,1.29-.97,1.84-1.61,3.82-4.45,5.36-9.8,6.09-15.47.06-.49-.14-.76-.65-.82-.77-.09-1.53-.29-2.22-.63-1.84-.92-3.37-2.17-3.78-4.32-.19-1,.24-1.34,1.21-1.03,1.45.47,2.79,1.15,3.94,2.21.52.47.85,1.18,1.68,1.52,0-.67,0-1.24.02-1.81.02-.96-.21-1.57-1.34-1.85-1.33-.33-2.03-1.66-1.96-3,.08-1.32.98-2.65,1.99-2.93,1.37-.39,3.29.39,3.86,1.55.68,1.39.23,3.06-1.06,4.04-.35.26-.74.53-.67,1.05.11.92,0,1.87.32,2.95,1.24-1.6,2.56-2.9,4.27-3.78.68-.35,1.36-1.1,2.07-.55.79.61.37,1.55.08,2.35-.04.13-.12.24-.18.36-1.12,2.24-3.12,3.2-5.42,3.68-.85.18-1.16.54-1.25,1.39-.37,3.61-1.28,7.09-2.8,10.4-1.13,2.46-2.56,4.7-4.62,6.53-.55.49-1.24,1.03-1.21,1.99.06,1.93.44,3.82.64,5.73.08.69.01,1.45.45,2.24,1.13-3.42,3.21-6.03,5.55-8.47.19-.2.38-.43.68-.37.36.07.42.41.47.71.05.27.13.55.09.8-.41,2.46-1.11,4.8-2.65,6.83-1.01,1.33-2.27,2.38-3.55,3.42-.31.25-.53.46-.51.9.07,1.48.12,2.97.13,4.46,0,1.28-.05,2.57-.11,3.85-.01.32-.08.77-.53.73-.48-.04-.33-.5-.38-.81-.01-.1.03-.2.03-.3.01-2.5.03-5-.19-7.5-.04-.49-.22-.85-.64-1.07-3.31-1.71-5.94-4.16-7.9-7.33-.45-.73-1.08-1.09-1.92-1.05-1.01.05-1.94-.24-2.85-.59-1.39-.54-2.54-1.42-3.26-2.75-.54-1-.11-1.63,1.01-1.45.59.1,1.19.19,1.78.31,1,.2,1.81.84,2.84,1.1-.08-.55-.11-1.03-.22-1.48-.12-.49-.48-.91-.48-1.44,0-.7-.38-1.13-.97-1.42-.5-.24-.92-.55-1.17-1.08-.55-1.19,0-2.71,1.24-3.36,1.02-.54,2.48,0,3.22,1.17.71,1.14.43,2.3-.72,3.15-.35.26-.94.46-.78,1.05.33,1.22.63,2.45,1.25,3.8.21-.89.32-1.59.53-2.25.33-1.06.71-2.12,1.6-2.86.34-.28.74-.61,1,.12.77,2.19.52,4.26-.81,6.17-1.06,1.52-1.08,1.51.06,3.11.08.11.15.23.23.34,1.68,2.24,3.69,4.1,6.09,5.56.6.37.77.22.73-.41-.01-.2,0-.41-.03-.61-.18-1.89-.5-3.77-.5-5.66,0-1.24-.58-2.37-.42-3.61.05-.41-.34-.71-.67-.82-1.13-.38-1.88-1.16-2.7-2-1.65-1.68-2.36-3.66-2.59-5.91-.04-.4-.14-.87.27-1.11.49-.29.83.14,1.14.42,1.42,1.32,2.58,2.84,3.58,4.76m3.59,14.5c2.75-2.19,4.87-4.75,5.27-8.38.02-.19.18-.41-.02-.56-.21-.16-.41.02-.53.16-2.24,2.57-4.01,5.39-4.71,8.79m5.2-40.52c-1.03.33-1.67,1.74-1.29,2.85.34,1.02,1.66,1.66,2.74,1.33,1.13-.34,1.71-1.58,1.31-2.79-.39-1.18-1.57-1.78-2.75-1.39m-21.6.56c.71,1.4,1.96,2.13,3.4,2.62.88.3,1.8.19,2.7.24.23.01.51-.02.6-.28.08-.24-.17-.34-.29-.48-1.48-1.72-3.38-2.62-5.59-2.9-.5-.06-1.11-.07-.82.8m8.01,1.83c.15.32.31.33.51.17,1.9-1.49,3.07-3.36,3.07-5.85,0-.19.05-.43-.19-.53-.3-.12-.54.08-.73.25-1.14,1.01-1.82,2.3-2.21,3.75-.2.74-.31,1.51-.45,2.21m-4.95-7.14c.33.91,1.22,1.35,2.12,1.04,1.06-.36,1.5-1.24,1.13-2.23-.36-.95-1.33-1.51-2.13-1.21-.96.36-1.46,1.44-1.11,2.4m22.52,14.34c1.59-.79,3.14-1.56,3.77-3.37.09-.25.27-.53.02-.75-.2-.17-.45.02-.65.12-1.47.74-2.71,1.75-3.73,3.04-.23.29-.59.6-.39.94.26.42.67,0,.98.01m-8.71-3.07c.57,1.55,3.37,3.48,4.92,3.5.16,0,.29,0,.31-.15.01-.11-.04-.26-.11-.35-1.21-1.53-2.58-2.85-4.48-3.5-.23-.08-.5-.19-.65.04-.09.13,0,.38,0,.46m-12.93,19c1.07-.37,1.29-.76.97-1.71-.4-1.17-1.16-1.64-2.11-1.31-.92.32-1.22,1.03-.88,2.02.37,1.06.98,1.36,2.03.99m5.18-2.92c.3,2.3,1.03,4.37,3.05,5.77.17.12.38.24.56.13.26-.15.19-.43.09-.64-.97-1.93-2-3.8-3.69-5.25m-4.35,10.24c.1-.05.1-.28-.12-.5-1.33-1.32-2.93-2.1-4.79-2.34-.33-.04-.56.09-.43.45.37,1.01,3.94,2.72,5.33,2.39m1.4-.76c1.65-1.36,2.3-3.47,1.66-5.4-1.07,1.66-1.63,3.35-1.66,5.4"/>
</svg>