<?xml version="1.0" encoding="UTF-8"?>
<svg id="Layer_1" data-name="Layer 1" xmlns="http://www.w3.org/2000/svg" viewBox="0 0 99.08 119.99">
  <defs>
    <style>
      .cls-1 {
        stroke-width: 2.76px;
      }

      .cls-1, .cls-2 {
        fill: none;
        stroke: #000;
        stroke-linecap: round;
        stroke-miterlimit: 10;
      }

      .cls-2 {
        stroke-width: 2.65px;
      }
    </style>
  </defs>
  <g>
    <path class="cls-1" d="m21.21,118.61c-3.5,0-6.87-.95-9.79-2.66-4.24-2.49-6.79-7.09-6.79-12.01v-11.72c0-3.68,2.47-6.9,6.02-7.88,25.44-7.09,52.34-7.09,77.77,0,3.55.99,6.02,4.2,6.02,7.88v11.75c0,4.66-2.26,9.12-6.19,11.62-3.06,1.95-6.65,3.03-10.39,3.03h-9.61c-2.23,0-4.34-1.02-5.73-2.77l-6.28-7.91c-1.1-1.39-2.78-2.2-4.56-2.2h-4.31c-1.78,0-3.45.81-4.56,2.2l-6.28,7.91c-1.39,1.75-3.5,2.77-5.73,2.77h-9.61Z"/>
    <path class="cls-1" d="m68.26,114.58c-1.01,0-1.95-.45-2.58-1.25l-6.28-7.91c-1.88-2.37-4.69-3.72-7.71-3.72h-4.31c-3.02,0-5.83,1.36-7.71,3.72l-6.27,7.91c-.63.79-1.57,1.24-2.58,1.24h-9.61c-2.72,0-5.4-.73-7.75-2.11-2.96-1.74-4.81-5.01-4.81-8.54v-11.73c0-1.85,1.27-3.5,3.08-4.01,12.31-3.43,25.03-5.17,37.81-5.17s25.5,1.74,37.81,5.17c1.81.51,3.08,2.16,3.08,4.01v11.75c0,3.37-1.66,6.53-4.33,8.23-2.46,1.57-5.31,2.4-8.23,2.4h-9.61Z"/>
    <line class="cls-1" x1="17.19" y1="109.67" x2="39.52" y2="87.34"/>
    <line class="cls-1" x1="69.11" y1="107.36" x2="82.55" y2="93.92"/>
    <line class="cls-1" x1="74.67" y1="109.67" x2="84.91" y2="99.43"/>
    <line class="cls-1" x1="24.95" y1="109.67" x2="34.77" y2="99.84"/>
    <line class="cls-1" x1="47.8" y1="97.13" x2="57.63" y2="87.3"/>
    <line class="cls-1" x1="55.74" y1="97.13" x2="65.57" y2="87.3"/>
    <line class="cls-1" x1="13.7" y1="98.5" x2="21.35" y2="90.85"/>
    <path class="cls-1" d="m3.26,58.23c29.8-11.38,62.76-11.38,92.57,0,1.13.43,1.88,1.54,1.88,2.75v15.72c0,2.03-2.02,3.45-3.93,2.76-28.58-10.36-59.89-10.36-88.47,0-1.91.7-3.93-.72-3.93-2.76v-15.72c0-1.21.74-2.32,1.88-2.75Z"/>
    <path class="cls-1" d="m62.44,14.28c0,7.13-5.78,12.9-12.9,12.9s-12.9-5.78-12.9-12.9S42.41,1.38,49.54,1.38s12.9,5.78,12.9,12.9Z"/>
    <path class="cls-1" d="m47.5,20.62c-2.68-.85-4.63-3.37-4.63-6.34,0-2.61,1.5-4.86,3.68-5.95"/>
    <path class="cls-1" d="m6.14,57.17c4.74-16.47,17.35-29.4,33.5-34.63"/>
    <path class="cls-1" d="m17.6,47.35c4.86-7.22,11.52-13.12,19.33-17.08"/>
    <path class="cls-1" d="m59.47,22.51c16.21,5.2,28.87,18.15,33.62,34.66"/>
  </g>
  <path class="cls-1" d="m12.99,55.19s-1.59.02-1.59,11.25c0,7.4,1.43,9.63,2.35,10.08"/>
  <path class="cls-1" d="m24.49,52.14s-1.59.02-1.59,11.25c0,7.4,1.43,9.63,2.35,10.08"/>
  <path class="cls-1" d="m36.36,50.64s-1.59.02-1.59,11.25c0,7.4,1.43,9.63,2.35,10.08"/>
  <path class="cls-1" d="m85.13,55.19s1.59.02,1.59,11.25c0,7.4-1.43,9.63-2.35,10.08"/>
  <path class="cls-1" d="m73.63,52.14s1.59.02,1.59,11.25c0,7.4-1.43,9.63-2.35,10.08"/>
  <path class="cls-1" d="m62.41,50.64s1.59.02,1.59,11.25c0,7.4-1.43,9.63-2.35,10.08"/>
  <line class="cls-2" x1="49.54" y1="50.64" x2="49.54" y2="70.36"/>
</svg>