<?xml version="1.0" encoding="UTF-8"?>
<svg id="Layer_1" data-name="Layer 1" xmlns="http://www.w3.org/2000/svg" viewBox="0 0 152.34 130.88">
  <defs>
    <style>
      .cls-1 {
        fill: none;
        stroke: #000;
        stroke-linecap: round;
        stroke-linejoin: round;
        stroke-width: 1.23px;
      }
    </style>
  </defs>
  <g>
    <path class="cls-1" d="m19.32,47.06c-.1-2.53-1.4-4.56-2.69-6.74-2.23-3.77-4.33-7.63-6.27-11.57-2.61-5.29-5-10.93-4.9-16.83.07-3.86,1.2-7.61,2.32-11.31.88.32,1.22,1.02,1.61,1.87.38.85.66,1.77,1.26,2.5,1.23,1.5,3.51,1.79,4.77,3.27,1.1,1.28,1.24,3.26,2.53,4.35,1.19,1,2.99.93,4.27,1.8,1.14.78,1.69,2.15,2.57,3.21.91,1.08,2.16,1.81,3.38,2.52,1.03.59,2.05,1.19,3.08,1.78.77.44,1.54.89,2.27,1.38.81.55,1.66,1.09,2.3,1.84,1.08,1.27,1.93,2.18.78,3.56-2.38,2.85-10.8,3.42-15.3,14.29-.74,1.66-.51,3.63.6,2.13,1.52-5.41,4.85-10.18,8.96-14.01,4.11-3.82,8.98-6.74,14.01-9.23,6.69-3.3,13.97-5.93,21.42-5.57.41.02.88.08,1.11.43.35.54-.19,1.22-.73,1.58-.72.48-1.52.85-2.19,1.39-.68.54-1.24,1.32-1.24,2.19,0,1.45,1.52,2.55,1.56,4,.07,2.22-3.25,3.47-3.08,5.69.08,1.06.99,1.91,1.13,2.97.17,1.21-.69,2.31-1.56,3.17-.87.86-1.86,1.75-2.08,2.95-.14.76.06,1.54.02,2.31-.04.77-.44,1.71-1.21,1.75-2.66.15-6.28-.83-13.71.37-7.43,1.2-18.39,3.8-13.08,1.53,3.43-1.46,7.04-2.51,10.71-3.17,3.67-.66,7.52-.7,11.06.46,3.32,1.08,6.22,3.16,9.06,5.2.91.66,1.94,1.61,1.64,2.69-.14.5-.56.95-.47,1.46.15.91,1.57.94,2.03,1.73.59,1.01-.79,2.14-.72,3.31.09,1.39,2.07,1.87,2.56,3.18.56,1.5-1.11,2.89-1.37,4.47-.16.95.21,1.91.32,2.87.09.81-.1,1.77-.71,2.24-.19.14-.22.41-.07.6h0c.55.7,1.19,1.32,1.87,1.9.42.36.6,1.32.27,1.77-.43.6-1.33.65-2.01.35-.67-.29-1.19-.84-1.76-1.31-2.55-2.09-6.09-2.44-9.39-2.4-3.3.05-6.69.39-9.83-.62-2.57-.83-4.8-2.51-6.7-4.43-1.91-1.92-3.54-4.09-5.31-6.13-2.86-3.29-5.71-6.89-9.62-8.81-5.49-2.69-7.24-2.13-3.69-4.71,3.55-2.58,4,2.04,3.4,4.41-.78,3.09-1.9,3.59,4.78,9.84,6.68,6.25,10.88,7.64,8.95,4.25-1.93-3.4-3.69-4.74-6.52-7.45-2.83-2.71-13.9-6.45-12.46-9.18"/>
    <path class="cls-1" d="m10.37,34.62c3.97-2.66,5.63,14.15,9.02,12.48"/>
    <path class="cls-1" d="m4.23,37.77c3.69-2.61,11.39,11.2,14.75,9.48"/>
  </g>
  <g>
    <path class="cls-1" d="m114.79,47.04c-.26-1.9,0-3.83.78-5.58,3.64-8.04,8.77-15.46,15.69-20.9,2.8-2.2,6.07-4.12,9.63-4.11,3.29,0,6.37,1.69,8.91,3.77,1.09.9,2.21,2.17,1.86,3.54-.36,1.41-2.01,1.98-3.43,2.32-1.41.34-2.81.68-4.21,1.02-.7.17-1.46.37-1.67,1.21-.11.43-.03.88.19,1.27.71,1.28,2.25,1.62,3.08,2.8.26.38.39.84.29,1.29-.19.87-1.06,1.09-1.78,1.4-2.53,1.09-3.9,4.32-2.91,6.89.24.64.61,1.25.5,1.97-.05.32-.22.61-.5.76-.64.35-1.22-.23-1.86-.33-1.03-.16-1.86,1.02-1.76,2.06.06.65.37,1.23.75,1.77.2.28-.07.67-.4.57-2.65-.79-5.31-1.26-8.05-1.8-2.43-.47-4.91-.83-7.37-.6-2.46.23-5.18,1.77-6.98,3.47-.81-.34-.62-1.89-.74-2.76,0,0,0-.02,0-.03Z"/>
    <path class="cls-1" d="m119.61,55.67c4.49,5.52,9.19,11.26,15.38,14.77,1.41.8,2.89,1.62,4.51,1.66,1.62.05,3.39-.96,3.62-2.56.24-1.72-1.31-3.47-.66-5.09.23-.58.71-1.01,1-1.57.53-1.01.3-2.29-.3-3.26-.53-.85-1.38-1.72-1.12-2.69.12-.44.44-.78.67-1.18.65-1.15.33-2.65-.43-3.73-.76-1.08-1.9-1.83-3-2.55-5.62-3.66-13.11-3.82-19.63-2.23-1.62.4-3.37,1.07-4.1,2.58,1.77,1.7,2.52,3.94,4.07,5.84Z"/>
    <path class="cls-1" d="m107.55,54.22c-1.48-.38-2.98-.77-4.13-1.59-1.14-.82-1.85-2.15-1.46-3.62-2.01.43-3.85-.63-3.97-2.26-.05-.63.13-1.31.06-1.93-.15-1.3-1.35-2.09-2.22-3.02-.87-.92-1.03-2.42.05-3.6-5.17-2.75-8.6-7.06-9.62-11.95-.14-.69-.2-1.49.73-2.13.39-.27.87-.43,1.34-.48,1.04-.13,1.86.18,2.6.53,1.82.85,3.38,1.95,4.87,3.11,5.71,4.45,10.5,9.91,14.21,16.31.96,1.66,1.51,3.42,1.57,5.49,0,.07,0,.14.02.22.04.38-.03.65-.31.88-.3.25-.69.4-1.02.62-.52.34-.89.88-.99,1.41-.05.3-.02.58-.05.88-.03.3-.13.62-.39.86-.28.26-.7.36-1.04.33l-.25-.04Z"/>
    <path class="cls-1" d="m127.47,73.06c.31.57.62,1.17.7,1.86.08.7-.12,1.53-.69,2.08-.54.53-1.31.69-1.95.55-.63-.13-1.15-.51-1.62-.92-1.16-1-2.14-2.19-2.9-3.52-.21-.37-.44-.78-.88-.83-.3-.04-.64.1-.96.16-1.11.19-1.93-.64-2.33-1.56-.4-.92-.55-1.98-1.13-2.77-1.17-1.59-3.86-1.69-4.74-3.46-.6-1.21-.17-2.93-.93-4.02-.69-.99-2.29-1.29-2.54-2.51-.25-1.21.99-2.55,1.33-3.84.26-.98,0-1.88-.03-2.82-.03-.92.3-2.05,1.26-2.62.87-.52,1.91-.34,2.52.12.58.43,1.11.97,1.55,1.53.33.42.58.9.85,1.37.45.8.95,1.58,1.44,2.38.58.93,1.16,1.87,1.74,2.81.58.95,1.17,1.91,1.76,2.88.59.98,1.19,1.97,1.78,2.97.59,1,1.19,2.01,1.78,3.03.6,1.03,1.19,2.07,1.79,3.12.6,1.06,1.19,2.13,1.78,3.22.14.26.28.52.42.78Z"/>
    <path class="cls-1" d="m114.97,49.01c-1.29-2.79.9-7.21-1.85-8.93-.89-.55-1.69-.3-2.02,0-.58.52-.94,1.24-1,2.02-.05.68,0,1.42.23,2.07"/>
    <path class="cls-1" d="m118.21,53.64c.78,1.5,1.45,3.07,1.99,4.67.21.62.27,1.41-.16,1.9"/>
    <path class="cls-1" d="m110.37,40.94c-2.71-4.11-2.82-9.42-4.94-13.86-.46-.96-1.02-1.88-1.78-2.62-.76-.74-1.74-1.29-2.8-1.39"/>
    <path class="cls-1" d="m112.44,39.68c-.37-6.39-.76-12.9-3.13-18.84"/>
  </g>
  <g>
    <path class="cls-1" d="m69.52,110.03c-.12-.1-.25-.18-.4-.22-.4-.12-.83-.02-1.19.19-.62.36-1.03,1.06-1.04,1.78,0,.24.04.5.18.7.18.25.49.39.8.39.31,0,.61-.11.87-.28.26-.17.49-.38.72-.59.49-.46.79-.99,1.38-1.29.33-.17.72-.28,1.08-.14.2.07.36.23.42.43,0,0,0,.01,0,.02.1.35-.4.54-.55.21-2.69-5.51-3.32-12.8-1.44-16.8.04-.09.08-.19.11-.29h0c.61-1.83,1.66-3.57,3.05-4.96h0c2.26,1.22,4,3.14,5.64,5.14h0c.78,1.13,1.48,2.17,2.08,3.31.78,1.65,1.39,3.13,1.82,4.96h0c.36,2.1-1.02,3.82-2.25,5.43-.48.63-.97,1.07-1.38,1.67-.53.76-1.13,1.45-1.82,2.07-.15.14-.36.29-.55.17-.05-.03-.09-.08-.12-.13-.07-.14-.04-.3.02-.44.14-.33.47-.56.83-.63.18-.03.36-.03.53,0,.42.07.86.05,1.28-.04,2.05-.44,4.28-.01,6,1.17.19.13.29.35.26.58-.03.2-.14.38-.24.55-.1.18-.2.38-.19.59.01.29.23.54.45.73.24.21.5.4.69.64.2.25.33.57.25.88-.05.21-.2.39-.22.61-.04.36.28.69.27,1.05,0,.28-.2.51-.33.76-.13.24-.19.59.02.77l.06.05h0c.34.16.59.47.67.83,0,.02,0,.04.01.06.08.44-.31.82-.75.74-.41-.07-.85,0-1.25.13-.57.19-1.09.51-1.65.74-.4.16-.75.17-1.13.16-1.03-.05-2.01-.45-2.77-1.14-.57-.52-.93-1.42-1.39-2.09-.44-.65-1.3-.89-2.01-.56-2.27,1.05-2.84.93-3.36.65h0c-1.8-1.33-3.81-3.79-4.23-4.89-.41-1.11.94-2.21,1.87-2.32.92-.11,4.83,3.96,5.04,4.74.29,1.11-.12,2.28-.82,3.19-.12.16-.19.36-.19.69,0,1.34,2.07,1.71,2.98,2.71.69.76,1.08,1.74,1.13,2.77.02.38,0,.74-.16,1.13-.22.56-.54,1.08-.74,1.65-.14.4-.2.84-.13,1.25.08.44-.31.83-.75.75-.02,0-.04,0-.06-.01-.36-.08-.67-.34-.83-.68h0l-.05-.06c-.18-.21-.52-.16-.77-.02-.25.13-.48.32-.76.33-.36,0-.69-.31-1.05-.27-.22.02-.4.16-.61.22-.31.07-.63-.05-.88-.25-.25-.2-.43-.46-.64-.69-.19-.22-.44-.44-.73-.45-.21,0-.41.09-.59.19-.18.1-.36.21-.56.23-.22.03-.45-.07-.57-.26-1.17-1.71-1.6-3.91-1.17-5.94.1-.46.1-.94.05-1.41-.02-.15-.01-.31.02-.46.07-.35.3-.68.63-.83.14-.06.29-.09.44-.02.05.03.1.06.13.12.11.19-.03.4-.18.55-2.21,2.39-3.59,5.81-9.19,5.43-1.87-.12-3.3-1.05-4.95-1.83-1.13-.61-2.17-1.31-3.3-2.09h0c-2-1.66-3.91-3.4-5.12-5.66h0c1.39-1.39,3.13-2.43,4.96-3.04h0c.1-.03.2-.07.3-.11,4-1.87,11.29-1.22,16.8,1.48.33.16.14.66-.21.55,0,0-.01,0-.02,0-.2-.07-.35-.23-.43-.42-.14-.37-.03-.75.14-1.08.45-.89,1.31-1.44,1.81-2.29.14-.23.26-.49.26-.76,0-.18-.07-.37-.18-.51-.02-.03-.05-.05-.08-.06-.05-.03-.11-.02-.17,0-.08.03-.14.07-.21.11-.1.06-.19.11-.29.17-.14.07-.28.13-.43.17-.35.1-.75.09-1.05-.11-.23-.15-.38-.4-.45-.66-.07-.26-.07-.54-.03-.81.07-.51.27-1,.45-1.48.18-.49.36-.98.4-1.5.04-.51-.08-1.06-.43-1.45"/>
    <path class="cls-1" d="m61.33,109.88c.92,1.09,2.43,1.65,3.84,1.42.51-.08,1-.26,1.51-.34.21-.03.44-.04.62.07.24.15.32.47.27.74-.05.28-.21.52-.36.75"/>
    <path class="cls-1" d="m82.58,125.53c.06-.06.1-.13.11-.21.15-1.04-.18-2.07-.72-2.91-.56-.87-1.34-1.57-2.13-2.25-.61-.53-1.23-1.05-1.96-1.41-.65-.32-1.41-.5-2.16-.4-.16.02-.29.15-.31.31-.11.75.07,1.51.39,2.16.36.73.88,1.35,1.41,1.96.68.78,1.37,1.57,2.25,2.13.84.54,1.87.87,2.91.73.08-.01.16-.05.21-.11h0Z"/>
  </g>
  <g>
    <g>
      <path class="cls-1" d="m32.39,86.38c0-.06-.08-.1-.14-.1-.07,0-.11.04-.14.1-.12.29-.1.62-.09.93,0,.29.02.6-.13.86-.07.11.04.21.14.21,0,0,0,0,0,0,.08.02.15-.03.17-.1.23-.61.29-1.26.19-1.9Z"/>
      <path class="cls-1" d="m21.22,86.48c-.13-.04-.26.06-.33.15-.17.21-.2.47-.2.73,0,.32,0,.65.02.97,0,.04.02.07.04.09,0,.01,0,.03,0,.04-.02.07.02.15.1.17.07.02.16-.02.17-.1.11-.57.22-1.15.33-1.72.03-.13.04-.3-.12-.35Zm-.25.78c0-.09.01-.19.04-.28,0-.02.02-.05.03-.07-.01.06-.02.11-.03.17-.01.06-.02.12-.04.18Z"/>
    </g>
    <path class="cls-1" d="m8.55,76.34c.88.2,1.58.85,2.2,1.51,1.15,1.24,2.15,2.61,3.11,4,1.61,2.32,3.15,4.69,4.68,7.06,1.68,2.58,3.4,5.32,3.64,8.39.01.05.02.1.01.15,0,.03,0,.06,0,.09,0,.07-.02.13-.04.19,0,.96-.29,1.93-.83,2.73-.09.13-.18.28-.32.36-.07.04-.15.06-.23.07,0,0-.02.01-.05.02-.27.13-.53.3-.77.47-.49.36-.94.8-1.3,1.29-.06.08-.12.13-.19.17-.14.23-.29.45-.46.67-.66.85-1.56,1.49-2.45,2.1-2.33,1.62-4.66,3.24-6.99,4.86-.46.32-1.07.65-1.55.35-.23-.15-.36-.41-.58-.57-.43-.3-1.03-.11-1.43.23-.4.34-.68.8-1.08,1.12-.4.33-1.02.5-1.43.18-.58-.46-.26-1.45-.65-2.08-.3-.47-.95-.66-1.17-1.18-.22-.54.17-1.15.66-1.46.49-.31,1.08-.44,1.59-.73.69-.4,1.2-1.11,1.34-1.89.15-.82-.07-1.65-.1-2.49-.06-1.34.38-2.7,1.21-3.76-.08-.11-.1-.27-.04-.44.37-1.01,1.29-1.54,2.3-1.76.63-.14,1.35-.18,1.95-.44.02-.03.05-.06.07-.09-.81-.18-1.61-.4-2.4-.66-.34-.11-.7-.25-.88-.56-.29-.5.04-1.11.06-1.69.03-.9-.74-1.65-.85-2.54-.1-.82.35-1.59.54-2.39.31-1.28-.04-2.63-.5-3.87-.15-.4-.3-.8-.33-1.22-.03-.42.09-.88.42-1.15.18-.15.41-.23.58-.38.47-.4.44-1.14.28-1.75-.16-.6-.42-1.23-.25-1.83.24-.87,1.32-1.28,2.21-1.08Z"/>
    <path class="cls-1" d="m41.39,95c-.25-.46-.76-.52-1.28-.52-.96,0-2,.2-3.03.42-1.73.37-3.49.82-5.25,1.28-1.89.49-3.88,1.03-5.9,2.7l-.14.11s-.03.03-.05.05c-.02.02-.04.04-.06.06-.03.03-.06.07-.09.11-.02.03-.04.05-.07.07-.62.59-1.21,1.37-1.65,2.2-.07.14-.16.29-.19.43-.02.07-.02.14-.02.19,0,0,0,.02,0,.05-.05.26-.13.53-.21.8-.17.54-.4,1.11-.68,1.65-.04.07-.06.13-.08.19-.01.04-.03.07-.05.11-.12.21-.24.43-.34.65-.48.96-.77,1.95-1.07,2.91-.76,2.53-1.53,5.06-2.29,7.6-.15.5-.29,1.11-.03,1.23.13.06.32-.02.45.03.25.09.21.61.03,1.08-.17.47-.44.93-.6,1.4-.16.47-.2.98.07,1.05.38.1.99-.73,1.45-.86.35-.1.56.22.93.04.38-.18.74-.82.88-1.34.14-.52.15-.98.27-1.49.17-.7.57-1.47,1.07-2.05.52-.61,1.1-.98,1.65-1.47.85-.75,1.65-1.82,2.24-2.96.04-.08.11-.16.19-.21.06-.04.12-.11.19-.2.62-.87.85-1.8.86-2.6,0-.47-.05-.94.02-1.47,0-.06.03-.11.05-.17,0,0,0-.01.01-.02.22.42.47.81.74,1.17.12.15.26.31.48.24.36-.11.73-.72,1.1-1.08.59-.57,1.18-.53,1.78-1.01.55-.44,1-1.21,1.5-1.83.8-1,1.74-1.6,2.61-2.06.28-.15.57-.29.85-.53.28-.24.57-.6.7-.98.07-.21.1-.41.17-.62.21-.56.7-1,1.11-1.26.42-.27.86-.48,1.23-.97.54-.7.67-1.66.42-2.12Z"/>
    <path class="cls-1" d="m23.13,96.36c.08,0,.15-.04.19-.1.65-.96,1.83-1.88,2.85-.83.41.42.75,1,.59,1.6-.07.29-.25.54-.48.72t0,0c-.03.09-.05.16-.08.25,0,.02,0,.04.01.06,0,.04.02.09.02.14,0,.04.02.08.04.12.02.03.04.06.05.1.39.93.06,1.79-.65,2.46-.49.46-1,.91-1.49,1.37-.02.02-.03.04-.04.05-.07.13-.18.24-.31.33-.06.04-.12.09-.17.13-.01,0-.02.02-.04.03-.25.26-.5.53-.75.79,0,0-.01.02-.02.02-.76,1.05-1.18,2.4-1.8,3.48-.9,1.58-2.12,2.99-3.56,4.1-.64.5-1.56.04-1.39-.81.23-1.17.46-2.34.83-3.48.18-.56.4-1.12.65-1.66.24-.52.52-1.11.92-1.52.13-.13.28-.23.43-.3.01-.01.02-.02.04-.03.14-.12.32-.25.52-.37.04-.02.07-.06.09-.09.4-.79.69-1.62.66-2.52,0-.09,0-.17.03-.24.03-.45.1-.89.24-1.32.4-1.21,1.24-2.46,2.61-2.48Z"/>
    <path class="cls-1" d="m24.51,95c-.65-1.26-1.52-2.39-2.28-3.58-.46-.73-.89-1.49-1.15-2.31-.08-.4-.04-.82.04-1.21.06-.31.16-.6.24-.91.06-.24.02-.56-.26-.65-.09-.03-.16.05-.16.12-.43.85-.36,1.83-.08,2.71.04.17.09.34.16.5.01.02.02.04.04.05.62,1.5,1.65,2.79,2.52,4.15.27.42.53.86.76,1.32.03-.08.09-.14.16-.18Zm-3.64-6.98c-.03-.48.04-.96.25-1.41.11.15-.02.47-.06.62-.07.26-.14.52-.19.79Z"/>
    <path class="cls-1" d="m32.41,86.2c.01-.07-.04-.16-.13-.15-.29.03-.39.34-.38.59.01.31.05.62.06.94,0,.41-.04.83-.2,1.2-.42.75-.99,1.42-1.58,2.05-1.16,1.22-2.46,2.32-3.41,3.72-.18.27-.35.56-.5.85.07.03.14.08.18.15.48-.96,1.19-1.81,1.93-2.59,1.11-1.16,2.38-2.23,3.27-3.58.02,0,.04-.02.05-.04.11-.14.19-.3.26-.46.45-.81.71-1.76.45-2.68Zm-.23,1.55c0-.27,0-.54-.03-.81-.01-.16-.08-.49.06-.62.12.48.09.96-.03,1.43Z"/>
  </g>
  <g>
    <g>
      <path class="cls-1" d="m129.67,87.37s-.09-.07-.15-.06c-.06.02-.09.07-.1.12-.03.29.06.58.14.85.08.25.17.53.09.79-.03.11.09.18.17.15h0c.07,0,.12-.06.13-.13.05-.59-.05-1.19-.3-1.73Z"/>
      <path class="cls-1" d="m119.81,90.17c-.12,0-.21.11-.26.22-.1.22-.06.47,0,.7.08.29.17.57.25.86,0,.04.03.06.06.07,0,.01,0,.03,0,.04,0,.07.06.13.13.13.07,0,.14-.06.13-.13-.04-.54-.08-1.07-.12-1.61,0-.12-.04-.27-.19-.28Zm-.03.75c-.02-.08-.04-.17-.03-.26,0-.02,0-.05,0-.07,0,.05,0,.1.01.16,0,.06,0,.11.01.17Z"/>
    </g>
    <path class="cls-1" d="m106.14,84.27c.83-.03,1.61.37,2.31.8,1.32.81,2.53,1.79,3.72,2.78,1.99,1.66,3.92,3.39,5.85,5.11,2.11,1.88,4.3,3.89,5.26,6.54.02.04.04.08.05.13,0,.03.01.06.02.09.01.06.01.12,0,.18.23.85.21,1.78-.08,2.62-.05.14-.09.29-.2.39-.05.05-.12.09-.19.12,0,0-.02.02-.04.03-.21.18-.4.39-.57.61-.35.44-.64.94-.84,1.45-.03.08-.08.15-.13.2-.07.24-.15.47-.24.7-.38.92-1.03,1.7-1.66,2.46-1.67,2-3.34,4-5.01,6-.33.4-.79.84-1.29.68-.24-.07-.42-.27-.65-.36-.45-.16-.94.16-1.21.55-.27.39-.41.87-.68,1.25-.27.39-.78.69-1.22.51-.63-.27-.58-1.22-1.08-1.69-.38-.35-1.01-.36-1.32-.76-.33-.42-.13-1.06.23-1.46.36-.4.85-.65,1.23-1.03.52-.52.79-1.27.73-2-.06-.76-.46-1.45-.69-2.18-.38-1.17-.32-2.48.16-3.62-.1-.08-.16-.21-.14-.38.09-.99.76-1.67,1.61-2.12.53-.28,1.15-.48,1.62-.86.01-.03.03-.06.04-.09-.76.04-1.52.04-2.28,0-.33-.02-.68-.05-.91-.28-.38-.37-.23-1-.36-1.51-.19-.8-1.05-1.28-1.37-2.04-.29-.7-.08-1.49-.1-2.25-.03-1.21-.67-2.32-1.38-3.31-.23-.32-.46-.63-.59-1-.13-.37-.13-.8.09-1.12.12-.17.3-.3.42-.48.32-.47.11-1.12-.18-1.61-.29-.5-.67-.99-.66-1.56,0-.83.86-1.46,1.69-1.49Z"/>
    <path class="cls-1" d="m139.73,92.82c-.33-.34-.8-.28-1.26-.15-.85.24-1.72.66-2.58,1.11-1.44.75-2.89,1.57-4.34,2.4-1.55.89-3.18,1.85-4.56,3.82l-.1.13s-.02.04-.04.05c-.01.02-.02.05-.04.07-.02.04-.04.08-.05.12-.01.03-.02.05-.04.08-.41.67-.74,1.5-.93,2.34-.03.14-.07.29-.07.43,0,.07.01.13.03.18,0,0,0,.02,0,.04.02.24.02.5,0,.76-.02.52-.09,1.08-.2,1.63-.02.07-.02.13-.02.18,0,.04,0,.07-.01.11-.06.22-.11.44-.15.66-.19.97-.21,1.91-.24,2.83-.06,2.43-.12,4.85-.19,7.28-.01.48.01,1.05.27,1.1.13.02.28-.09.41-.08.25.02.33.49.29.95-.04.46-.16.93-.19,1.39-.03.45.06.92.31.91.36,0,.7-.88,1.08-1.11.29-.17.55.06.83-.19.3-.26.46-.91.46-1.4,0-.49-.11-.91-.12-1.39-.02-.66.15-1.44.45-2.07.31-.66.73-1.13,1.1-1.7.57-.87,1.02-2.01,1.26-3.16.02-.09.06-.17.12-.23.04-.05.08-.12.12-.22.34-.92.32-1.79.13-2.51-.11-.42-.28-.83-.34-1.31,0-.05,0-.1,0-.16,0,0,0-.02,0-.02.3.32.62.6.94.85.14.11.3.21.48.09.29-.19.47-.81.71-1.22.38-.65.91-.76,1.33-1.33.38-.52.59-1.31.88-1.99.47-1.08,1.15-1.83,1.81-2.46.21-.2.43-.4.62-.68.19-.28.35-.67.38-1.04.02-.2-.01-.39,0-.59.05-.55.37-1.05.68-1.39.3-.33.64-.64.86-1.15.31-.75.19-1.63-.14-1.98Z"/>
    <path class="cls-1" d="m123.9,98.45c.07-.02.12-.07.14-.14.34-1,1.17-2.11,2.32-1.43.46.27.9.7.91,1.27,0,.27-.1.54-.25.76h0c0,.09,0,.15-.01.24,0,.01.02.03.03.04.02.04.04.08.05.12.01.04.04.07.07.1.03.02.05.05.07.07.57.73.49,1.57.03,2.33-.32.53-.66,1.05-.98,1.57-.01.02-.02.04-.03.06-.03.13-.1.25-.19.36-.04.05-.08.11-.12.16,0,.01-.02.02-.02.04-.16.29-.31.59-.47.88,0,0,0,.02-.01.02-.42,1.11-.47,2.41-.75,3.52-.41,1.62-1.15,3.16-2.16,4.49-.45.6-1.37.42-1.43-.38-.08-1.09-.16-2.18-.11-3.28.03-.54.08-1.09.17-1.62.09-.52.19-1.11.45-1.57.08-.15.19-.27.31-.37,0-.01.02-.03.02-.04.09-.14.22-.3.37-.46.03-.03.05-.07.05-.1.16-.79.22-1.6-.02-2.39-.02-.08-.03-.15-.03-.22-.09-.4-.13-.81-.11-1.23.06-1.17.5-2.48,1.71-2.83Z"/>
    <path class="cls-1" d="m124.78,96.91c-.88-.96-1.93-1.75-2.88-2.62-.58-.53-1.15-1.11-1.58-1.77-.17-.33-.23-.71-.26-1.08-.02-.29,0-.58-.01-.86,0-.23-.12-.5-.39-.51-.08,0-.13.08-.11.14-.18.86.12,1.71.59,2.42.07.15.16.28.27.41.01.02.03.03.05.03.91,1.17,2.14,2.07,3.24,3.06.34.31.68.63.99.98.01-.08.05-.15.1-.2Zm-4.92-5.3c-.14-.42-.2-.86-.12-1.31.14.11.1.42.1.56,0,.25,0,.5.03.74Z"/>
    <path class="cls-1" d="m129.65,87.21c0-.07-.07-.13-.15-.1-.25.1-.27.39-.19.61.09.27.2.54.28.82.1.36.16.74.12,1.11-.19.77-.53,1.5-.9,2.2-.73,1.36-1.61,2.65-2.11,4.12-.1.28-.18.58-.24.87.07,0,.14.04.19.09.19-.97.61-1.89,1.08-2.76.71-1.3,1.57-2.55,2.03-3.96.02,0,.03-.03.04-.05.06-.15.1-.31.12-.47.2-.83.2-1.73-.25-2.48Zm.17,1.43c-.06-.24-.14-.47-.22-.7-.05-.14-.19-.42-.1-.57.22.39.31.83.32,1.27Z"/>
  </g>
</svg>