<?xml version="1.0" encoding="UTF-8"?>
<svg id="Layer_1" data-name="Layer 1" xmlns="http://www.w3.org/2000/svg" viewBox="0 0 134.52 91.94">
  <defs>
    <style>
      .cls-1 {
        stroke-width: 0px;
      }
    </style>
  </defs>
  <path class="cls-1" d="m133.3,2.44c-1.68-2.14-4.66-2.3-7.47-2.42-7.42-.3-13.4,2.63-18.61,5.64-8.87,5.11-19.98,11.68-30.28,25.37-3.51,4.67-5.99,8.91-7.6,11.95-.44-.96-.53-1.75-.53-2.28,0-.86.24-1.14.26-2.28.02-.97.03-1.6-.39-2.01-.59-.58-1.62-.32-1.83-.27.03,9.79.44,19.09.64,28.65h1.83c.02-.07.01-.06.02-.11.04.05.04.06.09.11h.12-.12c1.39,2.61,3.27,6.09,5.54,10.16,5.29,9.49,6.37,10.85,8,12.22,1.45,1.21,6.5,5.09,13.5,4.7,6.03-.34,10.05-3.64,12.32-5.5,1.66-1.36,6.72-5.64,8.78-13.29.85-3.14,2.88-10.65-1.57-17.32-3.84-5.76-10.07-7.25-12.92-7.65,4.17.34,9.42.03,14.76-2.29,2.76-1.2,4.99-2.17,6.69-4.56,2.37-3.36,1.28-6.11,2.88-12.35,1.04-4.04,1.62-3.39,3.67-9.13,2.61-7.29,4.96-13.84,2.23-17.32Zm-18.4,3.58c.18,0,.56.02.96.27,1.33.81,1.93,3.53.61,4.74-1.31,1.21-4,.43-4.54-1.16-.58-1.67,1.35-3.84,2.97-3.85Zm-1.22,8.24c2.33-.04,4.46,2.79,3.93,4.12-.47,1.19-3.24,1.47-5.07.45-.23-.13-1.94-1.08-1.84-2.42.09-1.24,1.7-2.13,2.97-2.15Zm-3.98,9.06c-.08.41-.71.58-1.97.94-1.64.46-2.01.26-3.74.67-1.29.31-1.62.55-1.84.33-.45-.45.21-2.31,1.51-3.29,1.35-1.02,2.91-.73,3.21-.67,1.44.27,2.95,1.32,2.82,2.01Zm-3.62-11.03c.86.63,1.06,2.53.17,3.85-.84,1.25-2.35,1.55-3.5,1.25-.85-.22-2.1-.91-2.19-1.88-.16-1.84,3.97-4.34,5.51-3.22Zm-35.7,31.71c.25-.37.61-.88,1.05-1.48.51-.7,2.45-3.31,5.51-6.58,1.76-1.88,3.06-3.08,5.25-5.1,4.55-4.21,6.86-6.33,8.98-6.91.53-.15,2.23-.32,5.64-.67,2.38-.24,3.25-.28,3.54.2.27.44.11,1.39-1.9,3.69-3.22,3.69-6.65,5.62-9.9,7.45-8.32,4.71-10.63,6.12-12.19,7.11-2.67,1.69-4.79,3.18-6.16,4.16.07-.63.13-1.25.19-1.88Zm10.16,8.99c.86.21,2.5.54,5.77,1.21,2.84.58,3.59.7,4.33,1.48.93.97.37,1.45,1.51,3.29,1.09,1.77,2.05,2.05,2.43,3.62.12.5.35,1.5-.13,2.01-.19.21-.87.73-4.46-.74-2.77-1.13-4.83-2.46-6.16-3.35-2.86-1.94-2.57-2.06-4.92-3.63-3.81-2.54-6.34-3.37-6.16-4.09.11-.46,1.23-.54,2.16-.61,2.06-.15,3.39.28,5.64.81Zm-2.43-3.22c.05-.33,2.09-.12,5.44-.13,6.89-.04,10.36-1,10.49-.47.12.5-2.85,1.91-5.83,2.35-2.27.33-4.07.04-5.44-.2-2.16-.38-4.71-1.17-4.65-1.54Zm9.24,37.32c-.55.66-1.95.61-2.88.14-1.19-.61-1.65-1.91-1.83-2.42-1.03-2.82-2.93-5.23-4.13-7.99-2.46-5.65-2.92-5-5.44-10.81-1.09-2.5-3.29-7.57-2.69-7.92.71-.41,4.9,5.91,8.33,11.08.76,1.14,2.67,4.59,6.49,11.48,1.71,3.09,2.99,5.45,2.16,6.44Zm6.56-2.62c-.15.17-.2.09-1.24.6-1.33.66-1.57.95-1.97.87-.75-.15-1.09-1.44-1.18-1.75-1.09-3.93-3.79-7.19-5.64-10.81-.99-1.94-2.71-4.33-6.16-9.13-4.35-6.04-6.91-8.92-6.43-9.46.35-.39,2.07.69,3.41,1.54,2.34,1.49,5.51,3.91,8.98,8.26,2.28,2.85,3.69,5.27,4.72,7.05,1.83,3.17,1,2.36,3.47,6.98,1.4,2.62,2.78,4.96,2.03,5.84Zm6.42.13c-1.18.63-2.77.18-3.6-.74-.8-.88-.59-1.83-.85-4.29-.2-1.89-.37-3.53-1.05-5.3-1.06-2.78-2.86-4.58-3.74-5.44-1.86-1.83-3.29-2.41-3.14-2.75.17-.41,2.42-.17,4.26,1.07.95.64,1.27,1.2,2.88,3.49,1.4,1.98,3.16,4.41,3.87,5.37,2.25,3.06,2.77,3.53,2.88,4.77.02.23.22,2.91-1.51,3.83Zm8.06-6.04c-.42.54-1.02,1.32-1.9,1.48-.57.1-1.41-.04-2.82-1.41-2.5-2.44-2.02-4.1-4.26-7.12-1.78-2.4-3.53-3.27-3.21-3.96.28-.62,1.93-.46,2.95-.2,1.22.32,1.72.83,4.19,2.82.37.29,1.99,1.59,4.2,3.56,1.19,1.06,1.78,1.62,1.84,2.48.07.98-.58,1.82-.98,2.35Zm3.21-11.48c.1.15,1.29,1.94.46,3.76-.33.71-1.12,1.76-2.16,1.81-1.19.06-1.58-1.25-3.54-3.09-.55-.52-2.9-2.73-6.23-3.83-1.44-.47-1.98-.39-2.88-1.07-1.6-1.21-2.54-3.47-1.97-4.09.51-.56,1.86.65,6.03,2.15.73.26,1.66.57,7.15,2.49,1.48.51,2.45.87,3.14,1.88Zm-2.49-6.78c.3.99.64,2.91-.07,3.35-.51.32-1.24-.32-2.36-.94-2.46-1.35-3.05-.51-7.28-1.81-2.84-.87-4.13-1.73-4.79-2.22-.14-.11-2.62-1.95-2.29-2.62.24-.49,1.78.12,5.7.74,3.26.52,4.89.77,5.96.81,1.91.06,3.23-.1,4.2.87.52.53.72,1.18.92,1.81Zm-5.18-7.72c.77.67,2.44,2.15,2.1,3.02-.32.8-2.19.67-5.9.4-.69-.05-3.79-.3-7.41-1.74-.98-.39-1.52-.68-1.51-1.01.02-.55,1.62-.68,4.92-1.68,2.66-.81,2.86-1.09,3.87-1.01,1.82.16,3.12,1.3,3.93,2.01Zm-2.23-4.63c.22.01.69.04,1.34.13-.46-.04-.91-.08-1.34-.13Zm14.29-4.1c-2.04,1-3.37.22-7.67-.34-1.6-.21-6.11-.7-11.08-.07-3.53.45-2.79.9-5.9,1.21-4.78.48-6.19-.61-11.41-.07-2.62.27-4.15.74-4.26.4-.17-.49,2.98-1.93,6.42-3.76,2.77-1.47,6.58-3.66,11.01-6.71,3.65.45,6.65.54,8.72.54,5.79-.01,8.57-.75,12.52.81,1.41.56,4.55,1.8,4.72,3.96.13,1.69-1.59,3.3-3.08,4.03Zm1.97-10.4c-.91.5-1.92.23-2.3.13-2.55-.65-4.93-.7-9.64-.81-7.52-.17-8.72-.07-8.72-.07-.53.04-1.37.13-1.58-.27-.45-.87,2.52-3.38,5.31-5.5,4.21-.07,7.42-.25,9.57-.4,1.68-.12,3.72-.28,5.97.74,1.02.46,2.55,1.16,2.88,2.68.29,1.34-.41,2.9-1.51,3.49Zm4.28-7.83c-1.68.54-3.89-1.98-3.5-3.31.41-1.38,3.78-2.12,4.81-.71.82,1.13.07,3.58-1.31,4.03Zm-1.58-10.56c-.02-1.39,1.18-2.46,2.36-2.51,1.62-.06,2.98,1.84,2.53,3.31-.29.96-1.3,1.59-2.27,1.61-1.26.02-2.6-.98-2.62-2.42Zm7.52,5.91c-1.01,3.32-1.54,5.04-2.54,7.79-1.14,3.14-1.71,4.71-1.92,4.66-.28-.08.12-2.95.79-5.46.64-2.43,1.44-4.2,2.1-5.64.79-1.73,2.05-4.21,2.27-4.12.1.04-.04.6-.7,2.78Zm1.4-4.38c-.23-.06.09-1.17-.09-3.4-.16-1.98-.29-3.65-1.31-5.01-1.05-1.4-2.55-1.85-4.46-2.42-3.02-.9-5.4-.64-5.42-.98-.01-.21.87-.42,1.75-.63,1.12-.26,2.32-.55,3.93-.54,2.24.02,3.92.03,5.33,1.16,2.02,1.62,2.14,4.43,2.18,5.55.15,3.41-1.53,6.36-1.92,6.27Z"/>
  <path class="cls-1" d="m67.61,64.78h0c-.43,0-.88,0-1.32,0h1.32Z"/>
  <path class="cls-1" d="m67.69,36.2c-.21-.06-1.24-.31-1.83.27-.42.41-.41,1.05-.39,2.01.02,1.14.26,1.42.26,2.28,0,.54-.08,1.32-.53,2.28-1.62-3.05-4.09-7.28-7.6-11.95-10.31-13.69-21.42-20.26-30.28-25.37C22.1,2.72,16.11-.22,8.69.08,5.88.19,2.91.36,1.22,2.5c-2.74,3.47-.39,10.02,2.23,17.32,2.06,5.74,2.64,5.09,3.67,9.13,1.6,6.25.51,8.99,2.88,12.35,1.7,2.4,3.92,3.36,6.69,4.56,5.34,2.32,10.58,2.63,14.76,2.29-2.85.39-9.08,1.89-12.92,7.65-4.45,6.67-2.42,14.18-1.57,17.32,2.07,7.65,7.12,11.93,8.78,13.29,2.27,1.86,6.29,5.17,12.32,5.5,7.01.39,12.06-3.49,13.5-4.7,1.63-1.37,2.71-2.73,8-12.22,2.32-4.17,4.23-7.69,5.63-10.32,0,.04.03.05.03.1.36,0,.71,0,1.08,0h-1.03,1.03c.45,0,.89,0,1.32,0,.02-9.54.04-18.79.07-28.58ZM28.44,12.34c1.53-1.12,5.67,1.38,5.51,3.22-.09.97-1.33,1.66-2.19,1.88-1.15.29-2.66,0-3.5-1.25-.88-1.32-.69-3.22.17-3.85Zm-.81,9.02c.3-.06,1.86-.35,3.21.67,1.3.98,1.96,2.84,1.51,3.29-.22.22-.55-.03-1.84-.33-1.73-.42-2.1-.21-3.74-.67-1.26-.35-1.89-.53-1.97-.94-.13-.69,1.37-1.75,2.82-2.01Zm-8.98-15.01c.4-.25.79-.27.96-.27,1.62,0,3.55,2.18,2.97,3.85-.55,1.59-3.23,2.37-4.54,1.16-1.32-1.21-.72-3.93.61-4.74Zm2.19,7.97c1.27.02,2.88.91,2.97,2.15.1,1.33-1.61,2.29-1.83,2.42-1.83,1.02-4.59.74-5.07-.45-.53-1.32,1.61-4.16,3.93-4.12Zm-15.91,2.33c-.39.1-2.07-2.85-1.92-6.26.05-1.12.17-3.93,2.18-5.55,1.41-1.13,3.09-1.14,5.33-1.16,1.61-.01,2.82.27,3.93.54.88.21,1.76.42,1.75.63-.02.35-2.4.09-5.42.98-1.91.57-3.41,1.02-4.46,2.42-1.02,1.37-1.15,3.03-1.31,5.01-.18,2.23.15,3.34-.09,3.4Zm8.92-1.52c-.03,1.44-1.37,2.44-2.62,2.42-.97-.02-1.98-.66-2.27-1.61-.45-1.47.92-3.37,2.53-3.31,1.18.04,2.38,1.12,2.36,2.51Zm-3.06,18.35c-.21.06-.78-1.52-1.92-4.65-1-2.75-1.53-4.46-2.54-7.79-.66-2.18-.8-2.73-.7-2.78.22-.1,1.48,2.39,2.27,4.12.66,1.44,1.46,3.21,2.1,5.64.67,2.51,1.07,5.38.79,5.46Zm1.48-7.79c-1.38-.45-2.13-2.9-1.31-4.03,1.02-1.41,4.4-.66,4.81.71.4,1.34-1.82,3.86-3.5,3.31Zm2.78,4.34c.34-1.53,1.87-2.22,2.88-2.68,2.25-1.02,4.29-.86,5.97-.74,2.15.15,5.35.33,9.57.4,2.79,2.12,5.76,4.63,5.31,5.5-.2.4-1.05.31-1.58.27,0,0-1.19-.1-8.72.07-4.71.11-7.08.16-9.64.8-.38.09-1.38.36-2.3-.13-1.1-.6-1.8-2.15-1.51-3.49Zm11.14,13.56c-4.3.55-5.63,1.33-7.67.34-1.49-.73-3.21-2.34-3.08-4.03.17-2.16,3.31-3.4,4.72-3.96,3.95-1.56,6.72-.82,12.52-.81,2.07,0,5.07-.08,8.72-.54,4.43,3.06,8.24,5.24,11.01,6.71,3.44,1.83,6.59,3.27,6.42,3.76-.11.33-1.64-.14-4.26-.4-5.21-.54-6.63.55-11.41.07-3.11-.31-2.37-.76-5.9-1.21-4.97-.63-9.48-.14-11.08.07Zm22.03,10.67c3.27-.67,4.91-1,5.77-1.21,2.25-.53,3.58-.95,5.64-.81.94.07,2.05.15,2.16.61.18.72-2.35,1.55-6.16,4.09-2.35,1.57-2.05,1.69-4.92,3.63-1.33.9-3.39,2.22-6.16,3.35-3.59,1.47-4.27.95-4.46.74-.48-.52-.25-1.51-.13-2.01.37-1.58,1.33-1.86,2.43-3.62,1.13-1.84.58-2.31,1.51-3.29.74-.78,1.49-.9,4.33-1.48Zm-7.74-5.04c.13-.53,3.6.44,10.49.47,3.35.02,5.39-.2,5.44.13.06.38-2.49,1.17-4.65,1.54-1.37.24-3.17.54-5.44.2-2.99-.44-5.95-1.85-5.83-2.35Zm-7.67-1.21c-.43.05-.88.1-1.34.13.65-.09,1.12-.12,1.34-.13Zm-2.23,4.63c.82-.72,2.11-1.85,3.93-2.01,1.01-.09,1.21.2,3.87,1.01,3.3,1,4.89,1.13,4.92,1.68.01.33-.53.62-1.51,1.01-3.61,1.45-6.72,1.69-7.41,1.74-3.71.27-5.58.4-5.9-.4-.35-.88,1.33-2.35,2.1-3.02Zm-5.18,7.72c.19-.64.39-1.28.92-1.81.96-.98,2.29-.81,4.2-.87,1.08-.03,2.71-.29,5.96-.81,3.92-.62,5.47-1.23,5.7-.74.32.67-2.15,2.51-2.29,2.62-.65.48-1.94,1.34-4.79,2.22-4.23,1.3-4.82.47-7.28,1.81-1.12.62-1.85,1.26-2.36.94-.7-.44-.37-2.37-.07-3.35Zm-2.95,10.54c-.83-1.82.36-3.61.46-3.76.69-1.01,1.66-1.36,3.14-1.88,5.49-1.91,6.42-2.22,7.15-2.49,4.17-1.5,5.52-2.71,6.03-2.15.57.62-.37,2.88-1.97,4.09-.9.69-1.45.6-2.88,1.08-3.33,1.1-5.67,3.3-6.23,3.83-1.96,1.84-2.35,3.15-3.54,3.09-1.04-.05-1.83-1.1-2.16-1.81Zm8.39,7.79c-1.41,1.37-2.25,1.51-2.82,1.41-.88-.15-1.48-.94-1.9-1.47-.4-.53-1.05-1.37-.98-2.35.06-.86.64-1.42,1.84-2.48,2.21-1.96,3.83-3.26,4.2-3.56,2.47-1.99,2.98-2.51,4.19-2.82,1.02-.26,2.67-.41,2.95.2.32.69-1.43,1.57-3.21,3.96-2.25,3.02-1.76,4.68-4.26,7.12Zm7.8.94c-.26,2.46-.05,3.42-.85,4.29-.83.92-2.43,1.37-3.6.74-1.73-.92-1.53-3.6-1.51-3.83.11-1.24.64-1.71,2.88-4.77.71-.96,2.47-3.39,3.87-5.37,1.61-2.29,1.94-2.85,2.88-3.49,1.84-1.24,4.09-1.49,4.26-1.07.15.35-1.28.92-3.14,2.75-.87.85-2.68,2.66-3.74,5.44-.68,1.78-.85,3.42-1.05,5.3Zm5.18,6.38c-.4.08-.64-.22-1.97-.87-1.04-.51-1.1-.43-1.24-.6-.75-.88.63-3.22,2.03-5.84,2.47-4.63,1.64-3.81,3.47-6.98,1.03-1.78,2.44-4.2,4.72-7.05,3.47-4.34,6.64-6.77,8.98-8.26,1.34-.85,3.06-1.94,3.41-1.54.49.54-2.08,3.42-6.43,9.46-3.45,4.79-5.17,7.19-6.16,9.13-1.84,3.62-4.55,6.88-5.64,10.81-.09.31-.43,1.6-1.18,1.75Zm17.63-19.94c-2.52,5.81-2.98,5.16-5.44,10.81-1.2,2.75-3.1,5.16-4.13,7.99-.19.51-.64,1.81-1.84,2.42-.93.47-2.33.53-2.88-.13-.83-1,.45-3.35,2.16-6.44,3.82-6.89,5.73-10.34,6.49-11.48,3.43-5.17,7.62-11.49,8.33-11.08.6.35-1.6,5.41-2.69,7.92Zm-3.28-24.3c-1.56-.99-3.87-2.41-12.19-7.11-3.24-1.83-6.67-3.76-9.9-7.45-2.01-2.3-2.17-3.25-1.9-3.69.29-.49,1.16-.45,3.54-.2,3.4.35,5.11.53,5.64.67,2.12.59,4.43,2.71,8.98,6.91,2.18,2.02,3.48,3.22,5.25,5.1,3.06,3.26,4.99,5.88,5.51,6.58.44.6.79,1.11,1.05,1.48.07.63.13,1.25.19,1.88-1.37-.98-3.49-2.47-6.16-4.16Z"/>
  <path class="cls-1" d="m67.39,40.26l-.32-1.58c-.33-1.67-.81-3.28-1.43-4.79-.7-1.72-1.68-3.41-3.46-6.48-.71-1.23-1.31-2.23-1.7-2.88l.42-.26c.39.66.99,1.66,1.71,2.89,1.79,3.09,2.78,4.79,3.49,6.54.46,1.13.85,2.32,1.15,3.54.06-.37.13-.73.21-1.09.26-1.16.77-2.96,2.51-6.56.81-1.68,1.69-3.35,2.63-4.98l.43.25c-.93,1.62-1.81,3.28-2.61,4.95-1.71,3.56-2.22,5.32-2.47,6.45-.17.79-.31,1.59-.39,2.39l-.17,1.61Z"/>
  <path class="cls-1" d="m60.46,25.54c1.42,0,1.42-2.21,0-2.21s-1.42,2.21,0,2.21h0Z"/>
  <path class="cls-1" d="m72.91,25.67c1.42,0,1.42-2.21,0-2.21s-1.42,2.21,0,2.21h0Z"/>
  <path class="cls-1" d="m65.18,64.68c1.47,5.72,2.85,5.16,4.16,0"/>
</svg>