<svg width="72" height="75" viewBox="0 0 72 75" fill="none" xmlns="http://www.w3.org/2000/svg">
<path d="M1.41822 51.4536C0.916191 51.5131 0.480218 51.8037 0.698206 51.9425C0.883165 52.0614 0.975655 52.0415 1.45127 51.8302C2.02596 51.5725 2.01274 51.3876 1.42484 51.4536H1.41822Z" fill="black"/>
<path d="M54.8116 49.5313C55.7364 50.0796 57.6653 51.4668 59.363 52.8078C59.7263 53.0918 60.0632 53.3296 60.1094 53.3296C60.1556 53.3296 60.4001 53.4882 60.6445 53.6731C60.8889 53.8647 61.1069 54.0166 61.1333 54.0232C61.1795 54.0232 60.9946 53.792 60.519 53.2305C60.0103 52.636 56.4895 49.8286 55.5845 49.2869C54.7059 48.7651 53.3848 48.1772 53.2923 48.2697C53.1602 48.4018 53.8142 48.9368 54.8116 49.5247V49.5313Z" fill="black"/>
<path d="M50.0098 45.3367C49.1774 44.5573 47.5591 43.388 46.3106 42.668C45.9142 42.4434 45.4651 42.1396 45.2999 42.0075C45.0027 41.7564 44.7847 41.6838 44.7847 41.8423C44.7847 42.1528 45.5575 42.9521 46.8721 44.0024C48.0941 44.9734 48.6952 45.3698 50.0956 46.1228C51.0469 46.6315 51.8396 47.0476 51.866 47.0476C51.8924 47.0476 51.6678 46.8362 51.3639 46.5786C51.0601 46.321 50.4523 45.7661 50.0098 45.3499V45.3367Z" fill="black"/>
<path d="M6.58413 58.9181C6.39917 58.9181 6.16797 59.0964 6.16797 59.2351C6.16797 59.3474 6.34633 59.3342 6.57093 59.2087C6.81534 59.0766 6.82194 58.9114 6.58413 58.9114V58.9181Z" fill="black"/>
<path d="M13.242 29.668C13.3213 29.668 13.0042 29.4368 12.5418 29.1462C12.0794 28.8555 11.432 28.4328 11.1017 28.2082C10.4015 27.7326 8.57836 26.8078 5.89645 25.5725C3.85529 24.6345 3.47217 24.4892 3.47217 24.6741C3.47217 24.8063 4.07988 25.2026 7.09208 27.0192C9.73436 28.6177 9.85988 28.6772 11.7029 29.2321C12.4691 29.4633 13.1627 29.6614 13.242 29.6614V29.668Z" fill="black"/>
<path d="M12.8462 54.9018C13.3747 54.6046 13.1501 54.3536 12.5423 54.5649C12.0007 54.7499 9.46409 56.5466 8.85637 57.1742L8.30811 57.7423L8.90921 57.4186C10.1577 56.7382 11.0759 56.1701 11.7959 55.6351C12.2055 55.3312 12.6811 55.0009 12.8462 54.9084V54.9018Z" fill="black"/>
<path d="M13.7179 69.3947C13.5594 69.3947 12.2515 70.7224 12.2515 70.8809C12.2515 71.1584 12.6478 70.9338 13.2225 70.3393C13.8302 69.7051 13.9888 69.3947 13.7179 69.3947Z" fill="black"/>
<path d="M67.5541 39.5369L68.0231 39.3982L67.5079 39.2595C66.8605 39.0877 65.7375 39.0217 65.143 39.1274C64.6278 39.2199 64.4825 39.4907 64.859 39.6492C65.1761 39.7813 66.9794 39.7021 67.5541 39.5369Z" fill="black"/>
<path d="M20.1785 27.8515C20.7928 28.4129 21.4732 29.0074 21.6846 29.166C21.9026 29.3311 22.0875 29.4632 22.1007 29.4698C22.1139 29.4698 21.962 29.2453 21.7572 28.9678C21.3741 28.4328 19.4915 26.6822 18.7516 26.167C18.1175 25.731 17.9986 25.8896 18.5667 26.3982C18.8375 26.636 19.5575 27.2966 20.1719 27.8515H20.1785Z" fill="black"/>
<path d="M9.74738 47.0344C12.2774 46.2285 15.501 44.544 16.9146 43.2956C17.7865 42.5227 17.5553 42.2849 16.5579 42.9256C16.2342 43.137 15.349 43.5862 14.5828 43.9363C11.0751 45.5349 10.2296 46.0039 8.45267 47.3316C8.28092 47.4637 8.67725 47.3647 9.74077 47.0278L9.74738 47.0344Z" fill="black"/>
<path d="M14.7482 22.6131C15.1049 22.8641 15.5541 23.2076 15.7456 23.3794C15.9372 23.5445 16.1155 23.6832 16.1354 23.6898C16.175 23.6898 15.8909 23.3926 14.1536 21.5562C13.8498 21.2325 12.9316 20.4332 12.1257 19.7727C11.3132 19.1187 10.2497 18.2269 9.76086 17.791C9.27203 17.355 8.82286 17.0049 8.76341 17.0049C8.70396 17.0049 8.65771 17.0974 8.65771 17.2097C8.65771 17.6655 12.1984 20.8098 14.7416 22.6131H14.7482Z" fill="black"/>
<path d="M17.166 31.6365C17.45 31.8875 18.3087 32.4292 18.639 32.5547C19.1543 32.7595 19.4846 32.6273 19.1873 32.3301C18.9033 32.046 17.3641 31.1675 17.1528 31.1675C16.8753 31.1675 16.8819 31.3789 17.166 31.6299V31.6365Z" fill="black"/>
<path d="M54.2709 30.4607C53.1942 31.1609 52.0382 31.9074 51.6947 32.1187C51.2653 32.3764 51.0737 32.5613 51.0737 32.6934C51.0737 32.8652 51.12 32.885 51.3974 32.8256C51.7673 32.7529 54.3766 31.445 55.8166 30.6126C56.8735 30.0049 59.9584 27.6995 59.5554 27.825C59.4167 27.8647 58.6108 28.1883 57.7653 28.5384C56.4904 29.0669 55.8959 29.3972 54.2709 30.4541V30.4607Z" fill="black"/>
<path d="M63.0233 25.8301C63.4461 25.4668 64.3114 24.8524 64.939 24.4627C65.7515 23.9541 66.3592 23.4785 67.033 22.8113C67.5548 22.296 67.8719 21.9393 67.7332 22.0186C67.5945 22.0979 67.1453 22.3489 66.7291 22.5801C66.313 22.8047 65.6392 23.2803 65.2296 23.6238C64.8201 23.9739 64.0736 24.5354 63.565 24.8789C62.627 25.5196 62.0391 26.0745 62.0391 26.3387C62.0391 26.603 62.2306 26.4973 63.0167 25.8301H63.0233Z" fill="black"/>
<path d="M62.1512 14.1908C62.2239 14.1644 62.3032 14.0852 62.323 14.0191C62.3494 13.9464 62.3098 13.9068 62.2371 13.9332C62.1644 13.9597 62.0852 14.0389 62.0653 14.105C62.0389 14.1776 62.0786 14.2173 62.1512 14.1908Z" fill="black"/>
<path d="M28.1318 51.7707C28.6471 51.163 29.2548 50.1061 29.1425 50.0004C28.9774 49.8352 28.6867 49.9805 28.4159 50.3637C28.2508 50.5949 27.8874 51.0837 27.6034 51.4404C27.326 51.7971 27.0419 52.2595 26.9693 52.4643L26.8438 52.8342L27.2335 52.603C27.4515 52.4775 27.8544 52.1076 28.1253 51.7839L28.1318 51.7707Z" fill="black"/>
<path d="M64.238 46.1756C65.579 46.5588 65.5724 46.5456 63.9408 45.6076C62.1903 44.6035 58.1542 43.2097 55.7827 42.7935C55.2345 42.6944 54.706 42.6482 54.6201 42.6812C54.3625 42.7803 54.4286 43.1304 54.7324 43.2823C55.2014 43.5202 58.8874 44.6894 61.1928 45.3301C62.4016 45.667 63.769 46.0435 64.238 46.1756Z" fill="black"/>
<path d="M60.4675 16.0867C60.6459 16.0272 60.996 15.5252 60.9167 15.4459C60.8242 15.3535 60.3486 15.8092 60.3486 15.9876C60.3486 16.0669 60.4015 16.1131 60.4675 16.0867Z" fill="black"/>
<path d="M3.8362 50.073C3.53894 50.2051 3.27471 50.3835 3.23508 50.4694C3.1426 50.7138 3.51913 50.6675 4.15328 50.3505C5.12432 49.8682 4.84028 49.6238 3.82961 50.073H3.8362Z" fill="black"/>
<path d="M59.6477 71.3896C59.509 71.3896 59.5288 71.7265 59.6741 71.8719C59.8261 72.0172 59.9516 72.0238 59.9516 71.8851C59.9516 71.7133 59.7534 71.3896 59.6477 71.3896Z" fill="black"/>
<path d="M57.8576 68.1924C57.7519 68.3641 57.917 68.6548 58.4983 69.355C58.7031 69.5994 58.8947 69.7844 58.9211 69.758C59.007 69.6721 58.756 68.9256 58.5314 68.5954C58.2275 68.1462 57.9831 68.0008 57.8576 68.1924Z" fill="black"/>
<path d="M69.1733 47.7478C68.6514 47.2524 67.7861 46.9353 66.8018 46.8627C66.0686 46.8098 66.0224 46.823 66.0554 46.9948C66.0818 47.1137 66.2338 47.226 66.4914 47.3052C66.7094 47.3713 67.2709 47.5496 67.7399 47.695C68.2089 47.8469 68.7703 47.9988 68.9883 48.0385C69.2063 48.0781 69.4309 48.1111 69.4904 48.1177C69.5432 48.1177 69.4045 47.9526 69.1865 47.7478H69.1733Z" fill="black"/>
<path d="M62.1053 55.3708C62.1383 55.4567 62.3761 55.6747 62.6271 55.8464C62.8781 56.0181 63.5519 56.6391 64.1134 57.2336C64.6749 57.8215 65.4874 58.5547 65.9102 58.8586C66.3329 59.1625 66.6962 59.4135 66.7161 59.4135C66.7755 59.4267 65.8309 58.3632 64.6088 57.0486C63.0499 55.3642 61.7684 54.512 62.0987 55.3774L62.1053 55.3708Z" fill="black"/>
<path d="M71.5777 48.9368C71.4985 48.9368 71.4258 48.9831 71.4258 49.0359C71.4258 49.0888 71.4918 49.135 71.5777 49.135C71.6636 49.135 71.7296 49.0888 71.7296 49.0359C71.7296 48.9831 71.6636 48.9368 71.5777 48.9368Z" fill="black"/>
<path d="M70.5541 48.3555C70.2437 48.3225 70.1115 48.4876 70.3031 48.6726C70.3427 48.7122 70.4881 48.732 70.6268 48.7122C71.0033 48.666 70.9505 48.3885 70.5541 48.3489V48.3555Z" fill="black"/>
<path d="M71.4717 38.9556C71.4255 38.8764 71.366 38.8698 71.3 38.9358C71.2471 38.9887 71.2339 39.0877 71.2735 39.1538C71.3198 39.2331 71.3792 39.2397 71.4453 39.1736C71.4981 39.1208 71.5113 39.0217 71.4717 38.9556Z" fill="black"/>
<path d="M69.8203 39.1604C69.5891 39.1604 69.0211 39.4643 69.0805 39.5567C69.1664 39.6955 69.2721 39.6889 69.6882 39.5105C69.9987 39.3784 70.0846 39.1604 69.8203 39.1604Z" fill="black"/>
<path d="M40.9472 57.4186C41.7201 54.7168 42.3741 52.6426 42.8893 49.9673C43.1535 48.5933 43.3517 47.3911 43.4904 46.2351L46.8527 49.5248C46.9122 49.5644 47.1037 49.9607 47.216 50.1523C47.4406 50.5354 47.5992 50.9119 47.7115 51.3083C47.1566 50.6345 46.43 49.9277 46.245 49.9938C45.8949 50.1259 46.0799 50.4826 46.9518 51.3413C47.3349 51.7178 47.7115 52.068 47.9096 52.2265C47.9493 52.4907 47.9889 52.7748 48.0219 53.072C48.1012 53.7854 48.2267 54.2544 48.6957 54.8754C49.5148 55.9719 52.3355 57.9999 53.3924 58.6869C54.0199 59.0964 54.555 59.3937 55.2816 59.6975C55.8761 59.9486 56.3187 60.1203 56.8207 60.0278C57.2501 59.9486 57.5672 59.7306 58.0692 59.1823C58.3929 58.819 58.7232 58.3434 58.9544 57.9008C59.1129 57.5903 59.1922 57.3261 59.2582 56.8967C59.3375 56.3617 59.3375 56.1437 59.2648 55.8002C59.0997 55.0207 58.3202 54.0497 57.6596 53.4287C56.5433 52.3718 55.7638 51.7509 54.4625 51.0176C54.0331 50.7732 53.1149 50.3174 52.5534 50.0532C52.025 49.8088 51.84 49.7361 51.0804 49.4587C50.3405 49.1879 49.8385 49.0227 49.1911 48.5339C48.6627 48.131 48.3258 48.0385 47.9096 47.6752L46.9915 46.7768L43.7216 43.573C43.7943 42.199 43.8075 40.759 43.7811 39.0349C43.748 36.7758 43.6291 34.2061 43.4376 31.8347L48.3786 26.9861L48.5174 26.9134C48.6891 26.821 48.9599 26.6492 49.1845 26.4709C49.8319 25.982 50.3339 25.8169 51.0738 25.546C51.5428 25.3743 51.7938 25.2818 52.0382 25.1761C50.9152 26.4378 50.3603 27.1645 50.3603 27.3692C50.3603 27.5344 50.651 27.5013 50.8954 27.3032C51.0407 27.1843 52.3024 25.8499 53.6302 24.4165C53.9538 24.2513 54.2511 24.0928 54.4493 23.9871C55.744 23.2605 56.5235 22.6329 57.6464 21.576C58.3136 20.9485 59.0865 19.9775 59.2516 19.198C59.3243 18.8479 59.3243 18.6365 59.245 18.1014C59.179 17.6721 59.0997 17.4078 58.9412 17.0974C58.6505 16.5359 58.2145 15.9414 57.7653 15.5054C57.1312 14.8911 56.5367 14.825 55.7968 15.0892C55.0636 15.3535 54.4625 15.6441 53.7491 16.0801C52.7648 16.6746 49.5611 18.9536 48.6891 20.1228C48.2201 20.7437 48.0946 21.2127 48.0153 21.9261C47.9427 22.5669 47.8898 22.8972 47.8039 23.3067C47.5793 24.3108 47.3349 24.6014 46.932 25.3743L46.8329 25.6187L43.1866 29.199C43.1271 28.6705 43.061 28.1619 42.995 27.6929C42.4731 24.1192 41.6144 20.5455 40.3263 17.0115C39.2099 13.9663 38.3248 11.6741 37.1357 9.263C36.9442 8.87326 36.6271 8.17967 36.4421 8.17306C36.3827 8.17306 36.2704 8.05416 36.1515 8.06737C36.0656 8.07398 35.8476 8.21271 35.7618 8.30519C35.5834 8.50336 34.5463 10.6898 33.9584 12.1035C33.3969 13.451 32.3532 16.1594 31.871 17.5267C30.9066 20.2615 30.2856 22.6329 29.7043 25.7508C29.5194 26.7681 29.3476 27.9439 29.2023 29.2056L25.5493 25.6187L25.4502 25.3743C25.0407 24.6014 24.7963 24.3042 24.5783 23.3067C24.4858 22.8906 24.433 22.5603 24.3669 21.9261C24.2877 21.2127 24.1621 20.7437 23.6931 20.1228C22.8212 18.9602 19.6174 16.6746 18.6332 16.0801C17.9197 15.6507 17.3186 15.3601 16.5854 15.0892C15.839 14.8184 15.251 14.8911 14.6169 15.5054C14.1677 15.9414 13.7317 16.5359 13.4411 17.0974C13.2826 17.4078 13.2033 17.6721 13.1372 18.1014C13.058 18.6365 13.058 18.8545 13.1306 19.198C13.3024 19.9775 14.0752 20.9485 14.7358 21.576C15.8522 22.6329 16.6316 23.2605 17.933 23.9871C18.3623 24.2315 19.2805 24.6873 19.842 24.9515C20.3705 25.196 20.5554 25.2686 21.3151 25.546C22.0549 25.8169 22.557 25.982 23.2043 26.4709C23.4289 26.6426 23.6997 26.821 23.8715 26.9134L24.0102 26.9861L28.9513 31.8347C28.6408 35.4678 28.5153 39.5105 28.6408 42.8794C27.3263 44.0288 25.7805 45.1518 24.3009 46.0303C23.528 46.4861 22.405 47.2722 21.7907 47.7808C21.1764 48.2895 19.6174 49.4587 18.3227 50.3901C17.028 51.3149 15.8918 52.167 15.7927 52.2727C15.7267 52.3454 15.8852 52.2991 16.1957 52.1604C15.7201 52.5303 15.2643 52.9333 14.7292 53.4419C14.0686 54.0695 13.2958 55.0405 13.124 55.8134C13.0513 56.1635 13.0514 56.3749 13.1306 56.9099C13.1967 57.3393 13.2759 57.6035 13.4345 57.914C13.6591 58.3566 13.9894 58.8322 14.3196 59.1955C14.8217 59.7504 15.1388 59.9618 15.5681 60.041C16.0702 60.1335 16.5061 59.9618 17.1072 59.7107C17.8339 59.4069 18.3689 59.1096 18.9965 58.7001C20.0534 58.0131 22.874 55.9851 23.6931 54.8886C24.1621 54.261 24.2877 53.7986 24.3669 53.0852C24.499 51.9292 24.6444 51.0507 25.1728 50.1523C25.2851 49.9607 25.4767 49.5644 25.5361 49.5248L28.8918 46.2417C29.1032 48.0385 29.5458 50.4231 30.0082 52.319C30.5234 54.4196 31.8446 58.9247 32.5184 60.8205C32.9279 61.9633 34.1302 65.57 34.5463 66.2834C34.7643 66.6599 35.1937 66.8449 35.5966 66.9176C35.8278 66.9572 36.8055 66.9704 37.2084 66.7855C37.3537 66.7194 37.684 66.4353 37.7897 66.2834C38.0473 65.9201 38.3116 65.3124 38.7079 64.196C39.5006 61.9369 40.3197 59.7107 40.9736 57.4252L40.9472 57.4186ZM48.2465 48.9501C48.4183 48.9831 49.5478 50.0994 50.2216 50.7798C51.7409 52.3124 53.1546 53.6203 54.7003 55.0537C54.8258 55.166 55.0174 55.3708 55.3873 55.7605C56.0677 56.4872 56.0611 56.5004 56.1535 56.4673C56.2064 56.4475 56.5433 56.8505 56.6027 56.7976C56.6292 56.7778 56.5036 56.5862 56.2658 56.2824C56.2064 56.2097 55.9488 55.9191 55.6317 55.569C54.8192 54.6772 53.868 53.7524 52.8507 52.7351C51.6683 51.5461 50.8756 50.76 50.3339 50.2514C50.1292 50.0532 49.9574 49.8881 49.9574 49.8881C51.0936 50.2976 52.3421 50.7006 53.3924 51.3545C54.6739 52.1538 55.4798 52.7549 56.5961 53.759C57.3822 54.4592 57.9239 55.0603 58.1154 55.4567C58.2277 55.6813 58.2806 55.9653 58.274 56.3749C58.274 56.6457 58.2277 56.8967 58.1088 57.3261C58.0097 57.696 57.9503 57.8215 57.7323 58.165C57.5606 58.4358 57.2237 58.9577 56.933 59.1427C56.7216 59.2748 56.5235 59.2814 56.2989 59.2219C56.0082 59.1427 55.2618 58.8256 54.8456 58.6076C54.0265 58.1716 53.2999 57.6762 52.5468 57.0685C52.2892 56.8637 51.1332 55.8794 50.8624 55.6416C50.2018 55.0537 49.5809 54.3799 49.244 53.8713C48.7155 53.0654 48.841 52.3124 48.6693 51.3479C48.6429 51.2158 48.5834 51.1762 49.1713 51.7971C49.7064 52.3586 51.1266 53.7986 51.7145 54.38C53.1876 55.8332 54.2049 56.6391 55.9884 57.881C56.0214 57.9074 56.0346 57.881 56.0082 57.8413C55.9818 57.7951 55.8827 57.7158 55.6119 57.4912C54.6607 56.7118 54.2247 56.3154 53.3263 55.417C52.3685 54.4592 48.6957 50.7798 48.2465 50.0862C48.0682 49.8154 47.8898 49.6238 47.7379 49.4191L48.2135 48.9633L48.2465 48.9501ZM47.368 48.2102L47.1302 48.5141C47.0311 48.6594 47.0443 48.6528 46.9848 48.6C46.9584 48.5735 46.7735 48.4018 46.5819 48.2102L39.2033 40.9836L39.6063 40.5278L40.1876 41.0893L47.3746 48.2102H47.368ZM32.3862 42.7803L32.5448 42.6218C32.6241 42.8794 32.7496 43.1635 32.9477 43.3881C33.0204 43.4673 33.0666 43.507 33.0666 43.4805L32.7165 42.4566L32.9477 42.2321C33.2252 43.1172 33.5422 43.6655 34.0575 44.2336C34.6916 44.9272 35.4777 45.2443 36.561 45.2443C37.4198 45.2443 37.9813 45.0593 38.4304 44.6233C39.0514 44.0156 39.2694 43.0578 39.4213 42.2585L39.6525 42.4831C39.5402 42.8728 39.3685 43.3418 39.4081 43.3881C39.4345 43.4145 39.5204 43.4013 39.5534 43.3616C39.5931 43.3154 39.7252 42.9719 39.8044 42.6879C39.8044 42.6746 39.811 42.6614 39.8176 42.6416L39.9828 42.8068C39.9035 43.0908 39.7912 43.3947 39.6129 43.6919C39.5468 43.8042 39.2165 44.412 39.2562 44.4516C39.2892 44.4846 39.3354 44.4516 39.4808 44.3195C39.8177 43.9958 40.0555 43.5136 40.2008 43.0248L40.2801 43.104C39.9828 43.9231 39.6195 44.6233 39.0778 44.9602C38.8268 45.1188 38.0275 45.4689 37.4132 45.6868C37.1291 45.7925 37.2348 45.7661 36.8649 45.7529C36.6139 45.7463 36.4157 45.7529 36.1052 45.7793C35.4249 45.8388 35.4447 45.8388 35.1805 45.7661C34.7973 45.6538 33.7206 45.2575 33.5224 45.1584C33.1525 44.9668 32.7165 44.5374 32.4259 44.0816C32.2409 43.7844 32.0956 43.4872 31.9767 43.1899L32.122 43.0446C32.2938 43.5532 32.5316 43.9826 32.776 44.1741C32.8684 44.2534 32.9609 44.2666 32.9609 44.2138C32.9609 44.0684 32.6108 43.5664 32.3862 42.7869V42.7803ZM30.6622 34.4902C30.682 34.1995 30.7018 33.9023 30.7282 33.605L30.9858 33.856C31.1245 33.9881 31.2567 34.1203 31.3822 34.2458C31.217 36.168 31.0321 38.9556 31.0519 41.2016L30.6159 41.6309C30.5234 39.3652 30.5433 36.2803 30.6622 34.4968V34.4902ZM35.9467 26.2595C36.0326 26.5832 36.0656 26.5765 36.1713 26.233L36.2374 26.0217C36.2836 25.7574 36.2043 23.4124 36.1845 23.1218C36.1713 22.9566 36.0722 22.8708 36.6601 23.1878C37.0829 23.419 37.4528 23.7163 37.9086 24.1853C39.6459 25.9754 40.5575 28.5979 41.0463 31.2864L40.6302 31.696C40.2867 29.5821 39.5865 27.5608 37.7963 26.9002C37.2745 26.7087 36.8979 26.7417 36.3761 26.6756C36.1185 26.6426 35.3786 26.6228 35.2729 26.702C35.088 26.8474 33.6677 26.6096 32.5316 28.7961C32.0758 29.6746 31.8314 30.606 31.6728 31.6431L31.0717 31.0486C31.5341 28.4328 32.4193 25.916 34.1434 24.1126C34.7841 23.4454 35.4975 22.9831 36.0128 22.917C35.9599 23.1878 35.7882 25.6319 35.9533 26.2529L35.9467 26.2595ZM41.5814 37.3042C41.6078 38.262 41.5946 40.0852 41.5616 41.4658L41.2379 41.1487C41.2577 39.0349 41.1058 36.4917 40.9803 35.1309C40.9538 34.8667 40.934 34.5827 40.9076 34.2986C41.0463 34.1599 41.1983 34.0146 41.3568 33.8626L41.3832 33.8362C41.5021 35.0517 41.555 36.2341 41.5814 37.3108V37.3042ZM34.8502 27.825C34.9096 27.8845 35.0417 27.7193 35.088 27.6401L35.2465 27.7524C35.2465 27.7524 35.3654 32.5283 35.4182 35.3159L35.2465 35.1441C35.2069 35.0715 35.3126 35.0913 34.9162 34.6355C34.8766 31.8281 34.8105 27.7788 34.8502 27.8184V27.825ZM35.7023 27.5079L36.0722 27.4023C36.2836 27.6136 36.3629 27.4881 36.3827 27.5872L36.4091 35.8444L36.1845 36.0623L35.8675 35.7519L35.7089 27.5079H35.7023ZM36.7988 27.8779C36.7922 27.389 36.7526 27.7854 37.1754 27.5806C37.3207 27.6929 37.3669 27.6995 37.3603 27.825C37.3603 27.8779 37.4 30.0115 37.4528 32.5679L37.4858 34.5694C37.0234 35.0979 37.1357 35.0715 37.0961 35.1441L36.8055 35.4282L36.7922 27.8713L36.7988 27.8779ZM37.8029 27.9109C37.8029 27.9109 37.8624 27.9373 37.9218 27.9902C38.4106 28.3997 38.3776 28.0034 38.3974 28.5913C38.404 28.8687 38.4767 31.2732 38.5428 33.539C38.5229 33.5522 38.5031 33.5654 38.4767 33.5786C38.4106 33.6314 38.153 33.8825 37.9152 34.1269C37.8624 31.3591 37.7963 27.9175 37.8029 27.9109ZM38.6551 37.6609C38.6551 37.7468 37.9879 37.5486 37.9879 37.542C37.9879 37.542 37.9879 37.4495 37.9813 37.291C38.5956 36.6965 38.5956 36.6965 38.6286 36.6767C38.6484 37.2712 38.6551 37.6477 38.6551 37.6609ZM37.9284 36.1218L37.0829 36.9607L36.713 36.5974L37.5717 35.7453C37.5717 35.7453 37.9284 36.102 37.9284 36.1218ZM33.6611 37.4892V36.6436C33.6611 36.6436 33.7074 36.6767 33.7206 36.6833C33.7536 36.7031 33.7536 36.6965 34.4935 37.4231C34.4076 37.4561 34.1434 37.476 33.9782 37.4958C33.6545 37.542 33.6545 37.5618 33.6545 37.4958L33.6611 37.4892ZM33.6942 33.4993L33.7338 28.7895C33.7338 28.6639 33.9188 28.981 33.998 28.3072L34.0839 28.3205C34.3217 28.3667 34.3679 27.9902 34.3878 28.0166L34.4736 34.1731C34.2226 33.9089 33.9386 33.6314 33.8659 33.5786C33.7999 33.5257 33.7404 33.5059 33.6876 33.4993H33.6942ZM35.1937 38.1035C35.306 38.2158 35.4315 38.3347 35.5636 38.4668L34.7841 39.2397C34.7841 39.2397 34.7775 39.2727 34.5529 39.0283C34.4802 38.949 34.4142 38.8764 34.4142 38.8698L35.1937 38.0969V38.1035ZM35.088 40.1447C35.1342 40.0852 35.2663 39.9465 35.6032 39.6228C35.6296 39.6162 35.6627 39.603 35.7023 39.5898L36.5214 39.4048C36.5743 39.4577 36.6271 39.5105 36.6866 39.5634C36.8121 39.6889 36.9178 39.788 36.997 39.8672C36.5412 39.9135 35.7221 40.0191 35.0748 40.1645C35.0814 40.1579 35.088 40.1447 35.0946 40.1381L35.088 40.1447ZM34.4142 36.1218C34.4142 36.1218 34.7577 35.7453 34.7709 35.7453L37.9284 38.8698C37.9284 38.8698 37.869 38.949 37.7897 39.0283C37.5651 39.2661 37.5783 39.2529 37.5585 39.2397L34.4208 36.1218H34.4142ZM40.4188 36.0293C40.4782 37.1127 40.6302 39.5435 40.6103 40.1711C40.6103 40.2305 40.5971 40.257 40.5839 40.257C40.5311 40.2504 40.3461 40.1579 40.3461 40.1381L40.1545 35.0385C40.1545 35.0385 40.1744 35.0186 40.181 35.0054C40.1942 34.9922 40.247 34.9394 40.3263 34.8601C40.3659 35.3357 40.4056 35.8113 40.4188 36.0227V36.0293ZM39.8573 38.3083C39.8573 38.3083 39.8375 38.3215 39.7978 38.2686C39.5204 37.8921 39.0778 37.8723 39.0646 37.7798L39.025 36.3199C39.1108 36.2407 39.2165 36.135 39.342 36.0161C39.5204 35.8443 39.6591 35.7056 39.7582 35.5999C39.8176 37.1523 39.8573 38.2951 39.8573 38.3083ZM39.4477 39.0811C39.1505 38.7905 38.8334 38.4932 38.6881 38.3677C39.1439 38.4866 39.3685 38.632 39.4477 39.0811ZM38.9457 33.3408L38.8268 29.0207L39.0382 29.2056C39.2099 29.3113 39.0448 29.5954 39.3024 29.9521L39.5666 30.5994L39.6459 32.6538L39.5931 32.7066C39.3354 32.9643 39.0844 33.2021 38.9457 33.3408ZM32.5184 30.8769L32.591 30.8042C32.7826 30.6259 32.7562 29.5359 32.8949 29.5359C32.9808 29.5359 33.245 29.0405 33.2846 29.0801L33.2516 33.2021C33.1129 33.0634 32.9279 32.885 32.7363 32.7L32.5249 32.4886V30.8637L32.5184 30.8769ZM32.122 38.9688C32.122 39.821 32.2343 39.6955 32.0559 39.7483L31.6662 39.9201L31.9635 34.8337C32.0229 34.8931 32.0692 34.9394 32.1022 34.9724L32.122 38.9688ZM32.5448 35.5735C32.6505 35.6858 32.7958 35.8311 32.994 36.0227C33.0864 36.1086 33.1591 36.1879 33.2318 36.2539L33.2186 37.6939C33.0336 37.8062 32.9147 37.8855 32.776 38.1101L32.5646 38.5659L32.5448 35.5735ZM33.463 38.2951C33.5554 38.229 33.7867 38.1762 34.0707 38.1299L33.9121 38.2885C33.8395 38.2885 33.7867 38.2819 33.7206 38.3149C33.6744 38.3413 33.4762 38.5197 33.2384 38.7442C33.3176 38.5395 33.4233 38.3281 33.463 38.2951ZM33.6677 41.512C33.6677 41.512 33.7668 41.4922 33.8659 41.4196C33.965 41.3403 34.2821 41.0232 34.5727 40.7128C35.2729 40.508 36.6469 40.3494 37.3736 40.2966C37.684 40.6467 38.3116 41.3007 38.4569 41.413C38.556 41.4856 38.6418 41.4988 38.6551 41.5054L38.9457 41.7895C38.8268 42.4104 38.7409 43.104 38.3842 43.7448C38.0605 44.3327 37.6774 44.5771 36.931 44.663C35.5768 44.8215 34.5529 44.2138 33.8923 43.0248C33.7338 42.7407 33.5488 42.2321 33.4101 41.7498L33.6611 41.5054L33.6677 41.512ZM42.6911 34.2127C42.8497 37.0796 42.8893 39.0679 42.8497 41.5781C42.8497 41.9612 42.8299 42.3311 42.8166 42.7011L42.1759 42.0735C42.1759 41.9414 42.1825 41.8093 42.1891 41.6706C42.2684 38.9292 42.2816 36.0227 41.9777 33.2615L42.5986 32.6538C42.6383 33.169 42.6713 33.6909 42.6977 34.2193L42.6911 34.2127ZM48.2663 24.9317C48.7221 24.2381 52.3817 20.5654 53.3395 19.6075C54.2445 18.7092 54.6805 18.3128 55.6317 17.5334C55.9091 17.3088 56.0016 17.2229 56.028 17.1833C56.0545 17.1436 56.0413 17.1172 56.0082 17.1436C54.2115 18.3987 53.2206 19.1848 51.7343 20.6446C51.1464 21.2259 49.7196 22.6726 49.1911 23.2275C48.6032 23.8484 48.6627 23.8088 48.6891 23.6766C48.8608 22.7122 48.7354 21.9658 49.2638 21.1533C49.6007 20.638 50.2084 19.9708 50.8822 19.3829C51.1464 19.1517 52.3024 18.1675 52.5667 17.9627C53.3197 17.3484 54.0397 16.8596 54.8654 16.4236C55.2948 16.199 56.0412 15.8819 56.3319 15.8026C56.6622 15.7168 56.9726 15.8357 57.1774 16.0735C57.3161 16.2386 57.587 16.6085 57.7455 16.8596C57.9635 17.2031 58.0163 17.3286 58.122 17.6985C58.2409 18.1279 58.2806 18.3789 58.2872 18.6497C58.2872 19.0592 58.2409 19.3433 58.1287 19.5679C57.9305 19.9576 57.3888 20.5654 56.6093 21.2656C55.4864 22.2696 54.6937 22.8575 53.399 23.67C52.4544 24.2579 51.3842 24.6345 50.3537 24.9912L51.3116 24.0003C51.2323 24.1324 51.4305 24.073 51.6353 23.9871C52.2496 23.7229 53.0951 22.7519 53.5839 22.1375C53.6896 22.0054 53.7028 21.9592 53.6566 21.9195C53.5641 21.8337 53.3726 22.0648 53.1017 22.3291C52.6724 22.7584 52.4544 22.9632 52.2099 23.1746C52.0118 23.3397 51.7013 23.5908 51.6683 23.6106C51.6286 23.6304 52.7186 22.4414 53.2735 21.8601C54.2247 20.8626 55.7968 19.3565 56.2658 18.7554C56.8141 18.0486 56.6424 18.1014 56.0941 18.6629C55.7374 19.0328 56.028 18.6761 55.6978 18.9536C55.4533 19.1583 54.9645 19.634 53.8085 20.7833C53.0951 21.4968 52.9035 21.6421 52.3156 22.2036C51.4833 23.0029 51.3182 23.1416 50.2216 24.2447C49.5611 24.9119 48.6231 25.8499 48.273 26.0613C48.2531 26.0745 48.2333 26.0811 48.2267 26.0745L47.7709 25.6187C47.9295 25.4007 48.1012 25.2158 48.2795 24.9515L48.2663 24.9317ZM46.7867 26.5898C46.7867 26.5898 46.8065 26.6162 46.8197 26.6426C46.8791 26.7879 46.998 26.9002 47.1434 26.9993L40.1744 33.9023C39.9432 34.1335 39.712 34.3581 39.6723 34.3977C39.5931 34.4704 39.5865 34.4704 39.5534 34.4175L39.1967 34.008L46.7867 26.5831V26.5898ZM40.4056 22.5339C40.4518 22.983 40.498 22.9698 40.1744 22.7584C39.309 22.2036 38.0804 21.761 37.0234 21.4175C36.7724 21.3382 36.5611 21.2589 36.5478 21.2523C36.5016 21.2061 37.8227 20.7239 38.4701 20.5455C39.8375 20.1822 39.7384 20.2021 39.8044 20.2549C39.8639 20.3077 39.9762 20.3606 40.029 20.3606C40.1479 20.3606 40.3593 22.1177 40.399 22.5339H40.4056ZM36.4421 20.7767C36.2704 20.8494 36.1317 20.9089 36.1251 20.9089L36.0392 17.7315C36.0062 17.0511 36.0062 17.4805 36.3761 17.0115L37.4462 17.8835C38.2125 18.4449 38.7211 18.8677 39.3553 19.4886C39.5666 19.7 39.6261 19.7595 39.5931 19.7661C39.5072 19.7793 38.1134 20.1624 37.8822 20.2351C37.3801 20.3936 36.997 20.5389 36.4487 20.7767H36.4421ZM32.3598 18.5242C32.9675 16.668 34.2623 13.2528 35.0351 11.3702C35.1144 12.011 35.2531 12.6385 35.8542 12.6583C36.0458 12.6583 36.0986 12.7838 36.3166 12.6914C36.8649 12.4602 36.713 11.6741 36.1449 11.6543C35.7023 11.6344 35.7816 12.0902 35.6825 11.6543C35.5041 10.8616 35.8014 10.637 35.5041 10.3067L35.7089 9.86412C35.7948 9.81128 35.8674 10.2605 36.059 10.3265C36.1713 10.3662 36.2506 11.6873 36.3365 11.5552L36.3893 10.2935C36.746 10.0755 36.5346 9.76504 36.3497 9.68577C36.3497 9.68577 36.2968 9.09126 36.3034 9.08465L37.7369 12.4602C38.5692 14.541 39.6921 17.5928 40.2801 19.4886C40.1215 19.4556 40.1083 19.4688 39.9432 19.5217C39.025 18.6431 38.5163 18.1939 37.6312 17.5862C37.215 17.3021 36.4157 16.7076 36.3365 16.5557C36.2572 16.3972 36.1515 16.3641 35.9797 16.2915L35.9467 15.6904C36.6535 15.7102 37.0829 15.0892 36.9772 14.5344C36.6667 12.8169 33.3903 14.5211 35.7353 15.6573L35.7485 16.3377C35.0748 16.8331 35.59 16.734 35.2069 16.9586C34.4208 17.4144 33.2582 18.3128 32.3598 19.1451C32.0031 19.4754 32.0956 19.3301 32.3598 18.5374V18.5242ZM35.8212 19.7727L35.9137 21.0145C35.9137 21.0145 35.8873 21.0278 35.8675 21.0278L32.9741 20.0171C32.3796 19.8387 32.4523 19.8916 32.4391 19.6538C33.4828 18.762 34.4538 17.9363 35.5504 17.3087C35.7089 17.2163 35.7684 17.2295 35.7684 17.3418C35.7684 17.5135 35.8146 19.5547 35.8278 19.7727H35.8212ZM35.557 14.7656C35.5041 14.6797 35.557 14.6268 35.6891 14.5476C36.4223 14.0653 36.6205 14.8448 36.1845 15.0694C35.9731 15.1817 35.7419 15.0694 35.557 14.7656ZM32.089 20.7701C32.122 20.3606 32.0626 20.4795 32.3004 20.2285L35.2795 21.2986C35.2795 21.2986 35.1474 21.3779 34.9889 21.4571C34.15 21.8799 33.4762 22.2696 32.6835 22.7915L31.8908 23.3067L32.0824 20.7701H32.089ZM30.1139 28.6838C30.3186 26.9399 30.6886 24.8723 31.1378 22.9104C31.2963 22.2102 31.5341 21.2656 31.5407 21.292L31.3359 23.5908C31.2368 23.6238 30.999 23.8748 31.2368 24.1126C31.4548 24.3174 31.7917 24.1853 31.871 23.8616C31.8908 23.7889 31.8248 23.8352 32.9543 23.135C34.0905 22.4282 34.6916 22.0979 35.5702 21.6817C35.9401 21.5034 35.9797 21.4968 35.9929 21.6091C36.0062 21.7147 36.0722 22.0913 36.0788 22.1111L36.1251 21.5959C37.6642 22.1177 38.8929 22.5339 39.9233 23.168C40.7491 23.6767 40.2536 23.3464 40.4716 23.7163C40.8019 24.2712 41.5087 23.5643 41.0067 23.3265C40.8482 23.2473 40.8614 23.2737 40.8217 22.8377C40.7689 22.263 40.6169 20.9749 40.4518 20.4266C40.3857 20.2086 40.3924 20.2351 40.465 20.1294C41.4096 23.3398 41.9909 26.5501 42.3476 29.9983L41.5748 30.758C41.1784 28.7762 40.5443 26.9266 39.5799 25.3479C38.9457 24.3108 37.3934 22.5008 36.1449 22.3885C35.7816 22.3555 35.372 22.4216 35.154 22.5405C33.6413 23.3926 32.5646 24.8194 31.7455 26.5303C31.1642 27.7524 30.7612 29.1065 30.4838 30.5136L29.9553 29.9917C30.0016 29.5425 30.0478 29.0999 30.1007 28.6838H30.1139ZM24.1225 26.0547C24.1225 26.0547 24.0961 26.0547 24.0763 26.0415C23.7196 25.8235 22.7882 24.8921 22.1276 24.2249C21.031 23.1218 20.8659 22.9764 20.0336 22.1838C19.4457 21.6223 19.2607 21.4769 18.5407 20.7635C17.3847 19.6141 16.8893 19.1319 16.6514 18.9338C16.3212 18.6563 16.6118 19.013 16.2551 18.6431C15.7069 18.0816 15.5351 18.0288 16.0834 18.7356C16.5524 19.3367 18.1245 20.8428 19.0758 21.8403C19.6306 22.4216 20.7206 23.6106 20.6809 23.5908C20.6413 23.571 20.3308 23.3199 20.1393 23.1548C19.8948 22.9434 19.6769 22.7386 19.2475 22.3093C18.9833 22.045 18.7851 21.8138 18.6926 21.8997C18.6464 21.9459 18.6596 21.9856 18.7653 22.1177C19.2541 22.732 20.0996 23.7031 20.714 23.9673C20.9187 24.0532 21.1169 24.1192 21.0376 23.9805L21.9955 24.9714C20.965 24.6146 19.8949 24.2381 18.9502 23.6502C17.6555 22.8443 16.8695 22.2498 15.7399 21.2458C14.9538 20.5455 14.4121 19.9444 14.2206 19.5481C14.1083 19.3235 14.0554 19.0394 14.062 18.6299C14.062 18.359 14.1083 18.108 14.2272 17.6787C14.3263 17.3088 14.3857 17.1832 14.6037 16.8397C14.7622 16.5887 15.0331 16.2122 15.1718 16.0537C15.3766 15.8159 15.687 15.697 16.0173 15.7828C16.308 15.8621 17.061 16.1792 17.4838 16.4038C18.3029 16.8397 19.0229 17.3286 19.7826 17.9429C20.0402 18.1543 21.1962 19.1319 21.467 19.3631C22.1342 19.951 22.7485 20.6248 23.0854 21.1334C23.6139 21.9393 23.4884 22.6924 23.6601 23.6568C23.6865 23.7955 23.746 23.8286 23.1581 23.2076C22.623 22.6528 21.2028 21.2061 20.6149 20.6248C19.1286 19.165 18.1377 18.3789 16.341 17.1238C16.308 17.0974 16.2947 17.1238 16.3212 17.1634C16.3476 17.2097 16.4467 17.2889 16.7175 17.5135C17.6687 18.293 18.1047 18.6893 19.0097 19.5877C19.9675 20.5455 23.6337 24.2183 24.0829 24.9119C24.2546 25.1761 24.433 25.3677 24.5915 25.5791L24.1357 26.0349L24.1225 26.0547ZM25.1992 27.0059C25.3446 26.9068 25.4635 26.7879 25.5229 26.6492C25.5361 26.6162 25.5493 26.5964 25.5559 26.5964L33.1459 34.0212L32.7892 34.4307C32.7562 34.4836 32.7495 34.4836 32.6703 34.4109C32.6306 34.3713 32.3995 34.1533 32.1683 33.9155L25.1992 27.0125V27.0059ZM30.1403 33.0237C30.0478 33.9353 29.9884 34.8469 29.9553 35.7453C29.8893 37.4627 29.9091 39.9333 29.995 41.8291C29.995 41.9612 30.0082 42.0867 30.0148 42.2122L29.5194 42.6945C29.4863 41.73 29.4731 40.6863 29.4731 39.4841C29.4797 37.3967 29.5788 34.946 29.744 32.634L30.1337 33.0171L30.1403 33.0237ZM19.7165 49.9409C20.6281 49.2539 21.6784 48.4546 22.0483 48.1772C22.4182 47.8997 23.343 47.3118 24.0961 46.8825C25.622 46.0105 26.6393 45.35 27.6962 44.4846L25.3644 46.7702L24.4462 47.6686C24.03 48.0319 23.6931 48.1243 23.1647 48.5273C22.5173 49.0161 22.0153 49.1813 21.2754 49.4521C20.5158 49.7295 20.3308 49.8022 19.8024 50.0466C19.6174 50.1325 19.3862 50.2382 19.155 50.3571C19.3334 50.2249 19.5183 50.0929 19.7099 49.9409H19.7165ZM24.0763 50.0664C23.6271 50.76 19.9543 54.4394 18.9965 55.3972C18.0981 56.289 17.6621 56.6919 16.7109 57.4714C16.4335 57.696 16.341 57.7819 16.3146 57.8215C16.2881 57.8611 16.3014 57.8876 16.3344 57.8611C18.1179 56.6193 19.1352 55.8134 20.6083 54.3601C21.1962 53.7788 22.623 52.3322 23.1515 51.7773C23.7394 51.1564 23.6799 51.196 23.6535 51.3281C23.4817 52.2925 23.6073 53.039 23.0788 53.8515C22.7419 54.3667 22.1276 55.0405 21.4604 55.6218C21.1962 55.853 20.0336 56.8373 19.776 57.0486C19.0229 57.6564 18.2963 58.1518 17.4772 58.5878C17.0544 58.8124 16.3146 59.1294 16.0239 59.2021C15.7993 59.2616 15.6012 59.255 15.3898 59.1228C15.0991 58.9379 14.7622 58.416 14.5905 58.1452C14.3725 57.8017 14.3197 57.6762 14.214 57.3063C14.0951 56.8769 14.0554 56.6259 14.0488 56.355C14.0488 55.9455 14.0951 55.6614 14.2074 55.4368C14.4055 55.0471 14.9472 54.4394 15.7267 53.7392C16.8496 52.7351 17.6555 52.134 18.9304 51.3347C19.9873 50.6807 21.2292 50.2778 22.3654 49.8682C22.3654 49.8682 22.1936 50.0334 21.9889 50.2316C21.4538 50.7468 20.6545 51.5263 19.4721 52.7153C18.4548 53.7326 17.5036 54.664 16.6911 55.5492C16.374 55.8927 16.1164 56.1833 16.0569 56.2626C15.8191 56.573 15.6936 56.758 15.7201 56.7778C15.7795 56.8307 16.1164 56.4277 16.1692 56.4475C16.2617 56.4872 16.2485 56.4674 16.9355 55.7407C17.3054 55.351 17.497 55.1462 17.6225 55.0339C19.1682 53.6071 20.5818 52.2991 22.1012 50.76C22.7815 50.0796 23.9045 48.9633 24.0763 48.9303L24.5519 49.386C24.4066 49.5974 24.2216 49.7824 24.0498 50.0532L24.0763 50.0664ZM25.7673 48.2102C25.5758 48.3952 25.3974 48.5735 25.3644 48.6C25.3049 48.6528 25.3115 48.6594 25.219 48.5141L24.9812 48.2102L32.1683 41.0893L32.7496 40.5278L33.1525 40.9836L25.7739 48.2102H25.7673ZM35.3654 65.7352C35.2201 65.537 34.9096 64.8302 34.6916 64.2026C33.8131 61.7189 33.6215 61.1574 33.6215 61.1244L33.7933 61.0253C33.8923 60.946 33.9716 61.2697 34.3349 61.1574C34.5397 61.0913 34.4869 61.4877 35.0814 61.2036C35.3258 61.3225 35.2927 61.3093 35.5702 61.3093C35.9005 62.1945 35.9269 61.5736 35.9269 62.2011C35.9203 63.5619 35.9401 65.2992 35.9665 65.7285V65.8541C35.7816 65.8474 35.4117 65.8078 35.3654 65.7417V65.7352ZM31.0651 47.3911C31.0651 47.2392 31.0783 47.041 30.9792 46.9684C30.9132 46.9221 30.5829 46.9287 30.4838 46.9749C30.3781 47.0212 30.3583 47.0873 30.3319 47.3977C30.2922 47.8403 30.2988 47.8667 30.4243 47.9196C30.5102 47.9526 30.5036 47.9394 30.5234 48.3291C30.5432 48.6924 30.6093 49.3926 30.6423 49.6172C30.6952 49.9343 30.5697 49.9013 30.6159 50.1655C30.682 50.542 30.5366 50.8789 31.1047 50.8723C31.4548 50.8723 31.4284 50.7534 31.4614 50.3901C32.3136 50.0466 32.4325 50.007 34.2028 49.4521C35.4777 49.0491 36.0194 48.8906 36.026 48.8972L36.0392 49.6238C35.6891 49.6635 35.2994 49.756 34.9096 49.9211C33.311 50.5949 32.3862 53.2041 32.406 54.7961C32.4127 55.4567 32.6042 56.5862 32.8156 57.2534C33.2119 58.5019 33.8395 59.321 34.7115 59.724C35.1474 59.9221 35.623 60.0344 36.0128 60.0476C36.0326 61.2499 36.0194 60.2987 35.4447 60.6884C35.2069 60.4902 35.0814 60.4704 34.8237 60.6554C34.6256 60.4572 34.5199 60.3647 34.2424 60.5431L34.1367 60.4242C33.8395 60.0741 33.6149 60.3713 33.562 60.3383L33.093 59.4069C32.9609 59.2219 32.7297 58.5349 32.2475 56.9033C31.1378 53.1182 30.8339 52.2067 30.2394 49.0359C29.995 47.7412 29.8232 46.5984 29.7043 45.4226L30.3583 44.7819C30.6621 45.6869 31.2501 46.3804 32.4589 47.041C33.7008 47.7214 34.5133 47.7214 36.0458 47.8799C36.0458 48.0054 36.059 48.2829 35.9996 48.2631C34.9162 47.9064 32.2541 47.5034 31.0651 47.4109V47.3911ZM34.8898 48.7585C33.5885 49.168 32.5382 49.5182 31.9965 49.7295L31.4614 49.9607C31.4284 49.7956 31.3954 49.8088 31.1642 49.7758L30.9726 48.164C30.933 47.6752 31.0783 47.8007 31.435 47.8469C32.3532 47.979 34.0905 48.2763 34.9228 48.4678C35.4909 48.6 35.5504 48.5471 34.8832 48.7519L34.8898 48.7585ZM35.7353 47.2392C34.5067 47.1203 33.7999 47.074 32.7231 46.4597C31.62 45.8322 31.1113 45.2112 30.8735 44.26L31.2501 43.8901C31.2501 43.8901 31.2501 43.8901 31.2501 43.8967C31.4482 44.8941 32.0229 45.819 32.9015 46.103C33.2318 46.2087 33.5885 46.2615 35.6098 46.4861C35.808 46.506 35.9731 46.5324 35.9797 46.539C36.0194 46.5786 39.1505 46.2946 39.7186 45.9775C40.0819 45.7727 40.5245 45.2971 40.7226 44.8875C40.967 44.3855 40.9538 44.3393 41.0463 43.9033C41.0463 43.8835 41.0463 43.8703 41.0529 43.8505L41.3568 44.1477C41.2907 44.4516 41.2115 44.7026 41.119 44.8942C40.7358 45.6802 39.8243 46.3276 39.025 46.6909C38.0738 47.1269 37.5321 47.1071 36.5148 47.2392C36.3166 47.2656 36.0194 47.2656 35.7287 47.2392H35.7353ZM37.0895 65.5502C36.9574 65.8012 36.9838 65.7285 36.5478 65.821C36.4355 65.8474 36.3364 65.8606 36.3298 65.8606L36.3166 61.9104C36.4223 61.9104 36.7592 61.5273 36.7262 61.1045C36.6932 60.5497 36.2638 60.5893 36.2506 60.5034C36.2308 60.4043 36.2109 60.0344 36.2176 60.0146C36.2968 59.8957 38.1002 60.0741 39.1108 57.4186C39.3552 56.7712 39.6063 55.6482 39.6525 54.9877C39.7054 54.2346 39.5336 53.1513 39.2298 52.3388C38.6022 50.6543 37.7435 49.8616 36.2968 49.6238V48.8312C36.3563 48.8312 37.0565 49.0623 37.3736 49.1813C37.9681 49.4058 38.5626 49.6767 39.9762 50.3637C40.3329 50.5354 40.6632 50.6874 40.7226 50.7006C40.9802 50.7666 40.7226 50.945 41.2379 50.9582C41.7399 50.9714 41.4691 50.8261 41.6474 49.9343C41.7333 49.4983 41.7003 48.0913 41.7862 47.9196C41.839 47.8139 41.8588 47.4836 41.8324 47.2722C41.806 47.0873 41.7663 47.0542 41.5351 47.0278C41.0661 46.975 41.2313 47.226 41.1124 47.259L39.527 47.5298L36.3034 48.3093C36.2241 48.3093 36.2374 48.0186 36.2176 47.8403C37.8822 47.6818 38.6815 47.6487 40.0026 46.8627C41.0992 46.2087 41.6276 45.5217 41.8984 44.6497L42.6449 45.383C42.2948 48.8576 41.555 51.9424 40.5245 55.4368C39.6987 58.2443 39.5732 58.7529 38.6154 61.4679C38.0275 63.1457 37.466 64.8434 37.0961 65.5304L37.0895 65.5502ZM37.2018 48.5934C37.2018 48.5471 40.5575 47.761 41.0067 47.7743C41.1058 47.7743 40.9803 47.8865 41.2511 47.9922L41.1982 49.822L40.934 49.9607C40.8349 50.04 40.8217 50.1061 40.7887 50.2118L38.4569 49.102L37.2084 48.5934H37.2018Z" fill="black"/>
<path d="M35.0675 41.3469C35.2261 41.4658 36.3226 41.1619 36.3755 41.1355C36.4613 41.0959 36.5274 40.9902 36.5076 40.9109C36.4547 40.6863 36.2169 40.7656 36.0188 40.8184C35.6819 40.9109 35.0874 40.9836 35.0147 41.1421C34.9751 41.2214 34.9949 41.294 35.0675 41.3469Z" fill="black"/>
<path d="M38.3239 60.0674C38.2512 60.0873 38.1984 60.2326 38.0927 60.7148C37.8153 61.9633 37.5114 62.8551 36.9169 64.1564C36.7584 64.5131 36.7319 64.6122 36.7914 64.6848C36.831 64.7311 36.9367 64.7377 36.9962 64.698C37.082 64.6452 37.3925 64.011 37.6435 63.3901C38.0927 62.2804 38.489 60.7214 38.4692 60.1731C38.4692 60.1137 38.3834 60.0542 38.3239 60.0741V60.0674Z" fill="black"/>
<path d="M37.0559 62.5776C37.2078 62.069 37.6306 60.9724 37.4919 60.8139C37.4522 60.7677 37.3597 60.7611 37.3267 60.7941C37.3069 60.8139 36.8643 62.0492 36.7718 62.3464C36.7124 62.5248 36.7058 62.9211 36.752 63.0004C36.8379 63.1325 36.9238 63.007 37.0559 62.5776Z" fill="black"/>
<path d="M32.1017 52.3652L31.9498 51.2884C31.9168 50.8921 31.7318 51.0044 31.6922 51.0771C31.6063 51.2356 31.7054 52.3189 31.8441 52.4577C31.9498 52.57 32.0951 52.5105 32.1017 52.3586V52.3652Z" fill="black"/>
<path d="M40.2401 51.5461C40.1806 51.5064 40.1146 51.5196 40.0749 51.5923C40.0155 51.698 39.8437 53.8316 39.8767 54.043C39.8833 54.0827 39.9098 54.1487 39.9428 54.1817C39.9956 54.2544 40.0683 54.2676 40.1211 54.2214C40.1806 54.1685 40.1938 54.0034 40.2599 52.9927C40.3458 51.731 40.3391 51.6253 40.2401 51.5527V51.5461Z" fill="black"/>
<path d="M40.8872 52.0283C40.6494 51.916 40.689 52.2727 40.6824 52.7483C40.6692 53.257 40.6824 53.6929 40.7947 53.8779C41.0127 54.228 41.1052 52.1406 40.8872 52.0283Z" fill="black"/>
<path d="M31.8176 54.162C31.9167 54.2082 32.0356 54.1289 32.0356 54.0232C32.0356 53.9902 31.9828 53.8185 31.9233 53.6401C31.7846 53.2438 31.5732 52.4511 31.4807 51.9292C31.4015 51.4932 31.3684 51.3744 31.3222 51.3215C31.276 51.2687 31.2033 51.2687 31.1571 51.3347C31.0316 51.5131 31.5468 54.0364 31.8176 54.162Z" fill="black"/>
<path d="M38.2717 16.701L38.4303 16.8595C38.4699 16.4368 38.4897 16.4368 38.2849 15.7564C38.0273 14.8911 37.4592 13.048 37.3998 12.8697C37.2148 12.3544 36.9902 12.6847 36.9902 12.7574L37.9679 16.1461C38.0472 16.4236 38.1 16.5227 38.2717 16.6944V16.701Z" fill="black"/>
<path d="M39.2958 17.8834C39.494 17.9693 39.4081 17.7513 39.3487 17.5465C39.2562 17.2493 38.8665 15.8753 38.7476 15.7894C38.6881 15.7432 38.6022 15.763 38.5692 15.829C38.5362 15.8951 38.5956 16.1725 38.7806 16.8199C38.9259 17.3483 39.0448 17.7711 39.2958 17.8768V17.8834Z" fill="black"/>
<path d="M34.6518 15.2609C34.5263 15.2609 34.4074 15.4789 34.1366 16.2055C33.9979 16.5755 33.9913 16.6877 34.0706 16.7604C34.1762 16.8595 34.2687 16.7934 34.315 16.7274C34.3546 16.6679 34.7641 15.5252 34.7773 15.4261C34.7906 15.3336 34.7377 15.2609 34.6518 15.2609Z" fill="black"/>
<path d="M34.6445 42.5029C34.7171 42.5755 34.836 42.5623 35.1135 42.4434C35.9326 42.0999 36.8574 41.9017 37.8416 41.8621C38.2049 41.8489 38.1851 41.8819 38.2908 41.7762C38.4493 41.6111 38.3304 41.4988 38.2314 41.3799C37.4387 41.3667 36.5733 41.479 35.6816 41.7762C35.1927 41.9414 34.6709 42.199 34.6114 42.3047C34.5718 42.3774 34.585 42.45 34.6379 42.5095L34.6445 42.5029Z" fill="black"/>
<path d="M33.5943 17.2691L34.6974 14.0125C34.7899 13.7351 34.7965 13.669 34.7238 13.6426C34.5917 13.5963 34.486 13.7945 34.0699 14.8778C33.8321 15.4988 33.2904 16.8992 33.2508 17.2361C33.2376 17.3616 33.2376 17.3748 33.2838 17.4276C33.3961 17.5466 33.5414 17.4739 33.5877 17.2691H33.5943Z" fill="black"/>
<path d="M41.482 26.8804C41.5811 27.105 41.6868 27.3164 41.7198 27.356C41.7462 27.3957 41.7727 27.4221 41.7793 27.4221C41.8123 27.3957 41.4556 25.3347 41.2508 25.262C41.0064 25.1761 41.0791 25.513 41.1253 25.731C41.2376 26.2925 41.2904 26.4576 41.4886 26.887L41.482 26.8804Z" fill="black"/>
<path d="M30.9063 27.6137L31.3027 24.9317C31.3687 24.6147 31.3687 24.5949 31.3225 24.542C31.2432 24.4627 31.1441 24.4958 31.0715 24.6345C30.8535 25.0308 30.6223 27.4155 30.5034 27.9572C30.4703 28.1157 30.4835 28.261 30.5364 28.3073C30.7412 28.479 30.8535 28.0166 30.9063 27.6137Z" fill="black"/>
<path d="M31.6855 25.698C31.7714 25.5659 32.0026 24.3769 31.9629 24.2646C31.9365 24.1985 31.8506 24.1919 31.811 24.2514C31.7251 24.3769 31.3816 25.513 31.5666 25.7112C31.6062 25.7575 31.6525 25.7509 31.6855 25.698Z" fill="black"/>
<path d="M41.1118 27.5608C41.1713 27.6137 41.2439 27.6269 41.2836 27.5872C41.4685 27.4089 40.557 25.0638 40.5437 25.0308C40.3125 24.5354 40.1804 24.6807 40.1738 24.8062L40.7683 26.7219C40.9599 27.3362 41.0193 27.4749 41.1118 27.5542V27.5608Z" fill="black"/>
<path d="M51.0606 10.6634L51.3116 10.822C51.6221 11.0202 51.807 11.0267 51.9061 10.8682L53.0621 9.07806L53.3462 9.26302C53.8218 9.57349 53.8482 9.79149 53.802 10.1812L53.4585 11.9846C53.4254 12.1299 53.5708 12.2752 53.7822 12.414L54.086 12.6055C54.3899 12.7971 54.5616 12.8301 54.6211 12.7442C54.6475 12.7046 54.6607 12.6518 54.6739 12.5791L55.0703 10.5445C55.1495 10.1482 55.1165 9.71881 54.9778 9.52725L54.9976 9.50084C55.6251 9.63956 56.2461 9.45458 56.6094 8.88649C57.1775 8.00794 56.9397 7.1492 55.6714 6.33009L54.2379 5.4053C54.0332 5.27318 53.8878 5.30621 53.7557 5.51099L50.7765 10.135C50.6775 10.2869 50.7567 10.4521 51.0672 10.6568L51.0606 10.6634ZM54.4559 6.91801L55.1033 7.33417C55.4864 7.57858 55.5789 7.95509 55.3609 8.29198C55.1363 8.64209 54.6871 8.75438 54.3899 8.55621L53.6897 8.10703L54.4559 6.91801Z" fill="black"/>
<path d="M22.0609 9.85091C22.1269 10.0227 22.3119 10.0557 22.6488 9.92357L22.9328 9.81128C23.2763 9.67917 23.3886 9.53383 23.3226 9.36208L22.4969 7.23504L24.6966 6.37631L25.5223 8.50334C25.5883 8.67509 25.7733 8.70811 26.1102 8.576L26.3942 8.46371C26.7377 8.3316 26.85 8.18628 26.784 8.01453L24.7494 2.80923C24.6833 2.63748 24.4984 2.60445 24.1615 2.73656L23.8774 2.84887C23.5339 2.98098 23.4217 3.1263 23.4877 3.29805L24.2738 5.30619L22.0741 6.16492L21.288 4.1568C21.222 3.98505 21.037 3.95201 20.7001 4.08413L20.4161 4.19643C20.0726 4.32855 19.9603 4.47387 20.0263 4.64562L22.0609 9.85091Z" fill="black"/>
<path d="M34.8097 6.83871H35.1069C35.4768 6.85853 35.6354 6.76604 35.642 6.58108L35.7015 4.44743H36.0449C36.613 4.47385 36.7451 4.65221 36.9103 5.00892L37.551 6.73302C37.5973 6.87174 37.8021 6.92457 38.0531 6.93118L38.4098 6.9444C38.7665 6.95762 38.9382 6.89154 38.9382 6.78585C38.9382 6.73961 38.925 6.68677 38.8986 6.62071L38.1852 4.67863C38.0465 4.30211 37.7955 3.95201 37.5775 3.85953V3.82651C38.1852 3.61513 38.6212 3.1395 38.641 2.46572C38.674 1.41541 38.0266 0.807698 36.5139 0.761458L34.8097 0.715213C34.5653 0.708608 34.4596 0.807699 34.453 1.05211L34.2944 6.55465C34.2944 6.73961 34.4464 6.8387 34.8097 6.85191V6.83871ZM35.7741 1.87782L36.5404 1.89764C36.9962 1.91085 37.267 2.18169 37.2538 2.58464C37.2406 3.0008 36.9169 3.32447 36.5602 3.31786L35.7279 3.29143L35.7675 1.87782H35.7741Z" fill="black"/>
<path d="M27.7026 7.66442C27.7554 7.90222 27.8809 7.98149 28.1187 7.92864L31.2432 7.20862C31.4216 7.16899 31.4678 7.02366 31.4017 6.7264L31.3423 6.46218C31.2762 6.16492 31.1705 6.05262 30.9856 6.09226L28.8321 6.58769L28.5151 5.2071L30.4307 4.76451C30.6091 4.72487 30.6553 4.57954 30.5892 4.28228L30.5298 4.01806C30.4637 3.7208 30.358 3.60851 30.1731 3.64814L28.2574 4.09073L27.9734 2.85547L30.1202 2.36004C30.2986 2.32041 30.3448 2.17507 30.2788 1.87782L30.2193 1.61359C30.1533 1.31634 30.0476 1.20404 29.8626 1.24368L26.7447 1.96369C26.5069 2.01654 26.4276 2.14205 26.4805 2.37986L27.6959 7.65781L27.7026 7.66442Z" fill="black"/>
<path d="M39.8044 7.10954L40.1082 7.14918C40.4715 7.19542 40.6433 7.10952 40.6631 6.92456L41.3501 1.37578C41.3699 1.19082 41.2312 1.07192 40.8679 1.02568L40.564 0.986046C40.2007 0.939806 40.029 1.02568 40.0092 1.21064L39.3222 6.75942C39.3023 6.94438 39.4411 7.0633 39.8044 7.10954Z" fill="black"/>
<path d="M46.8194 8.69491L49.7457 10.0094C49.9109 10.0821 50.0364 9.99623 50.1619 9.71879L50.2742 9.47438C50.3997 9.19694 50.3799 9.04502 50.2147 8.96575L48.2 8.06075L48.7813 6.77265L50.5714 7.57855C50.7366 7.65121 50.8621 7.56534 50.9876 7.2879L51.0999 7.04349C51.2254 6.76605 51.2056 6.61411 51.0404 6.53484L49.2503 5.72894L49.7721 4.57294L51.7803 5.47794C51.9454 5.5506 52.0709 5.46473 52.1964 5.18729L52.3087 4.94286C52.4342 4.66542 52.4144 4.5135 52.2493 4.43423L49.3362 3.1197C49.1116 3.02062 48.9728 3.07345 48.8738 3.29805L46.6542 8.23912C46.5552 8.46371 46.608 8.60242 46.8326 8.70151L46.8194 8.69491Z" fill="black"/>
<path d="M42.8884 7.4398C42.9016 7.58513 43.08 7.67099 43.3244 7.73044L43.767 7.83613C44.0114 7.89558 44.2096 7.8956 44.2822 7.77009L47.3869 2.72332C47.4199 2.67048 47.4398 2.61763 47.4464 2.578C47.4728 2.4591 47.3341 2.35341 46.9774 2.27414L46.7131 2.21469C46.4687 2.15524 46.2573 2.18165 46.1516 2.34679L44.1171 5.75534L43.9519 6.03279H43.9189L43.8925 5.7025L43.5952 1.75229C43.582 1.55411 43.3971 1.44843 43.1527 1.38898L42.8686 1.32292C42.5119 1.23704 42.3336 1.27008 42.3071 1.38898C42.3005 1.42861 42.3071 1.48806 42.3071 1.54751L42.8752 7.4464L42.8884 7.4398Z" fill="black"/>
<path d="M14.8612 8.35139C15.0264 8.60901 15.1651 8.67506 15.317 8.57598L16.4862 7.82955L19.0228 11.7996C19.1219 11.9515 19.3069 11.9515 19.6173 11.7533L19.8749 11.5882C20.1854 11.39 20.2647 11.2249 20.1656 11.073L17.629 7.10292L18.7982 6.35647C18.9501 6.25739 18.9501 6.10546 18.785 5.84784L18.6397 5.61664C18.4745 5.35901 18.3358 5.29296 18.1839 5.39204L14.7027 7.61816C14.5508 7.71725 14.5507 7.86917 14.7159 8.12679L14.8612 8.358V8.35139Z" fill="black"/>
<path d="M20.9913 54.6244C21.1432 54.6706 21.8236 53.8317 21.8302 53.8185C21.8698 53.7326 21.8368 53.6599 21.7641 53.6665C21.7377 53.6665 21.7047 53.693 21.4537 53.9374C20.9054 54.4658 20.8988 54.4724 20.9054 54.5451C20.9054 54.5715 20.9516 54.6178 20.9847 54.6244H20.9913Z" fill="black"/>
<path d="M18.2433 52.3916C18.2433 52.3916 18.8906 51.9094 18.9237 51.8169C18.9501 51.7442 18.8973 51.6914 18.8246 51.7046C18.6925 51.731 18.1772 52.2331 18.1772 52.3322C18.1772 52.3718 18.2037 52.3982 18.2433 52.3916Z" fill="black"/>
<path d="M18.6787 53.0588C18.6787 53.0984 18.7183 53.1314 18.758 53.1314C18.8439 53.1314 19.009 52.9465 19.2534 52.7021C19.8281 52.1274 20.1386 51.8499 20.5613 51.5262C20.7067 51.4139 20.7397 51.3809 20.8718 51.2356C21.1228 50.9647 21.1823 50.8392 20.7265 51.0374C20.449 51.1563 20.132 51.4139 19.6365 51.9094C19.4384 52.1075 18.6787 52.9266 18.6787 53.0654V53.0588Z" fill="black"/>
<path d="M19.0095 52.2198C19.2011 52.0481 19.7758 51.5659 19.8221 51.4932C19.8617 51.4272 19.9079 51.3083 19.8881 51.3017C19.8749 51.3017 19.7362 51.3413 19.6833 51.3677C19.4786 51.4734 18.666 52.2991 18.6528 52.4444C18.6528 52.5303 18.8312 52.3784 19.0095 52.2198Z" fill="black"/>
<path d="M53.669 22.5338C53.5501 22.5867 52.8565 23.2208 52.7376 23.3199C52.5593 23.4652 52.5197 23.5115 52.48 23.6304C52.4668 23.6634 52.4668 23.6964 52.4668 23.6964C52.48 23.7031 52.6187 23.6568 52.6782 23.6238C52.8697 23.5247 53.4444 22.95 53.6492 22.6593C53.7153 22.5603 53.7285 22.5008 53.669 22.5272V22.5338Z" fill="black"/>
<path d="M21.0767 54.7961C21.0767 54.8622 21.1559 54.9018 21.2352 54.8622C21.4532 54.7697 22.193 53.9638 22.3912 53.6467C22.4374 53.574 22.5233 53.3693 22.5101 53.3627C22.5101 53.3627 22.4506 53.4155 22.3714 53.5014C22.1137 53.7854 21.5391 54.3337 21.2484 54.5847C21.0965 54.7102 21.0767 54.7433 21.0767 54.7895V54.7961Z" fill="black"/>
<path d="M20.9782 55.6482C21.1962 55.5161 21.8303 54.9348 22.1672 54.5517C22.5239 54.1553 22.8872 53.6665 22.9929 53.4485C23.125 53.1777 22.9863 53.2173 22.9533 53.2636C22.8212 53.4485 22.6957 53.6203 22.3324 54.0761C22.0417 54.4394 21.3283 55.1264 20.9386 55.3972C20.8064 55.4897 20.7866 55.5161 20.7866 55.569C20.7866 55.6614 20.8857 55.7011 20.9782 55.6482Z" fill="black"/>
<path d="M51.2782 20.2681C51.331 20.1756 51.2385 20.0963 51.1328 20.1426C50.9479 20.2218 50.0759 21.0872 49.891 21.5232C49.8249 21.6883 49.8381 21.6685 49.9966 21.4968C50.2543 21.2127 50.829 20.6644 51.1196 20.4134C51.1989 20.3474 51.2716 20.2813 51.2782 20.2681Z" fill="black"/>
<path d="M53.9996 22.6924C53.808 22.8575 53.4315 23.1019 53.4381 23.2208C53.4381 23.2407 53.4513 23.2539 53.4711 23.2737C53.5306 23.3199 53.5966 23.2869 53.8212 23.0887C54.3563 22.6131 54.2109 22.514 53.9996 22.6924Z" fill="black"/>
<path d="M51.1459 20.5191C50.9873 20.6644 50.558 21.1334 50.5315 21.1863C50.5249 21.2061 50.5117 21.2391 50.5117 21.2589C50.5117 21.3052 50.5513 21.3448 50.591 21.3382C50.6174 21.3382 50.6504 21.3118 50.9015 21.0674C51.3903 20.5984 51.5158 20.5125 51.4167 20.4134C51.3506 20.3474 51.3044 20.3672 51.1393 20.5191H51.1459Z" fill="black"/>
<path d="M51.4231 19.3367C51.258 19.3895 50.3728 20.2152 50.0293 20.638C49.5735 21.1995 49.3159 21.5826 49.3159 21.7214C49.3159 21.8138 49.382 21.7742 49.448 21.6817C49.9369 20.9881 50.7031 20.1096 51.4165 19.6075C51.5486 19.515 51.5685 19.4886 51.5685 19.4358C51.5685 19.3565 51.4958 19.3103 51.4231 19.3367Z" fill="black"/>
<path d="M19.6833 23.6304C19.7428 23.6634 19.8815 23.7096 19.8947 23.703C19.8947 23.703 19.8947 23.67 19.8815 23.637C19.8419 23.5181 19.8022 23.4718 19.6239 23.3265C19.505 23.2274 18.8048 22.5999 18.6925 22.5404C18.633 22.514 18.6396 22.5735 18.7123 22.6725C18.9171 22.9632 19.4918 23.5313 19.6833 23.637V23.6304Z" fill="black"/>
<path d="M18.5475 23.0887C18.7721 23.2869 18.8381 23.3199 18.8976 23.2737C18.9174 23.2539 18.9306 23.2407 18.9306 23.2208C18.9306 23.1019 18.5607 22.8575 18.3691 22.6924C18.1577 22.514 18.0124 22.6131 18.5475 23.0887Z" fill="black"/>
<path d="M21.2225 20.5191C21.0573 20.3672 21.0111 20.354 20.945 20.4134C20.8459 20.5125 20.9714 20.5984 21.4602 21.0674C21.7179 21.3118 21.7443 21.3382 21.7707 21.3382C21.817 21.3382 21.8566 21.2986 21.85 21.2589C21.85 21.2391 21.8434 21.2061 21.8302 21.1863C21.8038 21.1268 21.3744 20.6578 21.2158 20.5191H21.2225Z" fill="black"/>
<path d="M21.2358 20.136C21.1302 20.0897 21.0377 20.169 21.0905 20.2615C21.0971 20.2747 21.1698 20.3407 21.2491 20.4068C21.5397 20.6578 22.1144 21.2061 22.372 21.4901C22.5306 21.6619 22.5438 21.6817 22.4777 21.5166C22.2928 21.0806 21.4208 20.2152 21.2358 20.136Z" fill="black"/>
<path d="M20.9449 19.6075C21.6583 20.103 22.4246 20.9815 22.9134 21.6817C22.9795 21.7808 23.0455 21.8204 23.0455 21.7214C23.0455 21.5892 22.7945 21.1995 22.3321 20.638C21.9886 20.2152 21.1034 19.3895 20.9383 19.3367C20.859 19.3103 20.793 19.3565 20.793 19.4358C20.793 19.4952 20.8128 19.515 20.9449 19.6075Z" fill="black"/>
<path d="M51.1332 54.8621C51.2125 54.8951 51.2917 54.8621 51.2917 54.7961C51.2917 54.7432 51.2653 54.7168 51.12 54.5913C50.8293 54.3403 50.2546 53.792 49.997 53.508C49.9177 53.4221 49.8583 53.3626 49.8583 53.3692C49.8451 53.3825 49.931 53.5806 49.9772 53.6533C50.1754 53.9638 50.9152 54.7696 51.1332 54.8687V54.8621Z" fill="black"/>
<path d="M51.3708 54.6243C51.3708 54.6243 51.4435 54.5715 51.4501 54.5451C51.4633 54.479 51.4501 54.4658 50.9018 53.9373C50.6442 53.6929 50.6178 53.6665 50.5913 53.6665C50.5187 53.6665 50.4923 53.7392 50.5253 53.8184C50.5253 53.8317 51.2123 54.6706 51.3642 54.6243H51.3708Z" fill="black"/>
<path d="M51.4235 55.3972C51.0338 55.1264 50.3204 54.446 50.0297 54.0761C49.6664 53.6203 49.5409 53.4485 49.4088 53.2636C49.3824 53.2239 49.2437 53.1843 49.3692 53.4485C49.4749 53.6665 49.8382 54.1553 50.1949 54.5517C50.5318 54.9282 51.1659 55.5161 51.3839 55.6482C51.4764 55.7011 51.5689 55.6614 51.5755 55.569C51.5755 55.5095 51.5557 55.4897 51.4235 55.3972Z" fill="black"/>
<path d="M51.6408 51.0308C51.1784 50.8326 51.2445 50.9581 51.4955 51.229C51.6276 51.3743 51.6606 51.4007 51.806 51.5196C52.2221 51.8433 52.5392 52.1273 53.1139 52.6954C53.3583 52.9398 53.5235 53.1248 53.6093 53.1248C53.649 53.1248 53.6886 53.0918 53.6886 53.0521C53.6886 52.92 52.929 52.0943 52.7308 51.8961C52.2354 51.4007 51.9249 51.1497 51.6408 51.0242V51.0308Z" fill="black"/>
<path d="M52.6786 51.3678C52.6257 51.3413 52.487 51.2951 52.4738 51.3017C52.4606 51.3083 52.5002 51.4272 52.5398 51.4932C52.5861 51.5659 53.1674 52.0481 53.3524 52.2199C53.5307 52.3784 53.7157 52.5369 53.709 52.4445C53.6958 52.2991 52.8833 51.4734 52.6786 51.3678Z" fill="black"/>
<path d="M53.5372 51.7112C53.4645 51.698 53.4116 51.7509 53.4381 51.8235C53.4711 51.916 54.092 52.3916 54.1184 52.3982C54.1581 52.4048 54.1845 52.3784 54.1845 52.3388C54.1845 52.2397 53.6627 51.7443 53.5372 51.7112Z" fill="black"/>
<path d="M14.8877 36.1416C14.8877 37.1919 15.4624 37.608 16.0701 37.8987C16.7241 38.2026 17.4177 38.3545 17.4177 38.8763C17.4177 39.3982 16.9751 39.4907 16.5986 39.4907C15.8984 39.4907 15.469 39.0877 15.3171 39.0877C15.1321 39.0877 14.7754 39.5964 14.7754 39.8672C14.7754 40.1645 15.502 40.6335 16.8298 40.6335C17.781 40.6335 18.8049 40.1446 18.8049 38.7178C18.8049 37.5288 17.9329 37.1721 17.2129 36.8748C16.7043 36.6766 16.2749 36.4983 16.2749 36.0161C16.2749 35.8179 16.407 35.5272 17.0874 35.5272C17.6753 35.5272 17.9461 35.7452 18.0584 35.7452C18.2698 35.7452 18.5406 35.2234 18.5406 34.9856C18.5406 34.6949 17.8933 34.3712 16.9685 34.3712C15.9446 34.3712 14.9009 34.8799 14.9009 36.135L14.8877 36.1416Z" fill="black"/>
<path d="M13.4932 40.5872C13.8631 40.5872 14.015 40.4815 14.015 40.2966V34.7081C14.015 34.5232 13.8565 34.4175 13.4932 34.4175H13.1893C12.8194 34.4175 12.6675 34.5232 12.6675 34.7081V40.2966C12.6675 40.4815 12.826 40.5872 13.1893 40.5872H13.4932Z" fill="black"/>
<path d="M58.8417 34.4505C58.5907 34.4505 58.3991 34.4836 58.3198 34.6157L57.2431 36.4851L56.1796 34.6157C56.1003 34.4836 55.9088 34.4505 55.6577 34.4505H55.2812C54.8981 34.4505 54.7197 34.5232 54.7197 34.6223C54.7197 34.6751 54.7528 34.7544 54.8056 34.8403L56.5429 37.6477V40.323C56.5429 40.508 56.7014 40.6004 57.0648 40.6004H57.362C57.7319 40.6004 57.8839 40.5014 57.8839 40.323V37.6741L59.6212 34.8469C59.674 34.761 59.7004 34.6817 59.7004 34.6289C59.7004 34.5232 59.5353 34.4571 59.1522 34.4571H58.8351L58.8417 34.4505Z" fill="black"/>
<path d="M53.3854 40.6004H53.6364C54.0063 40.6004 54.1582 40.5014 54.1582 40.323V34.7346C54.1582 34.5496 53.9997 34.4571 53.6364 34.4571H53.1806C52.9296 34.4571 52.7248 34.5166 52.6323 34.6949L51.1592 37.2778L51.08 37.4231L51.0073 37.2976L49.5408 34.6883C49.4417 34.5166 49.2436 34.4505 48.9926 34.4505H48.5302C48.1602 34.4505 48.0083 34.5496 48.0083 34.728V40.3164C48.0083 40.5014 48.1668 40.5938 48.5302 40.5938H48.7812C49.1511 40.5938 49.303 40.4948 49.303 40.3164V36.7031H49.3361L50.6044 38.9556C50.6836 39.0613 50.7893 39.1208 50.9545 39.1208H51.2055C51.3706 39.1208 51.4763 39.0613 51.5556 38.9556L52.8239 36.6899H52.8569V40.3164C52.8569 40.5014 53.0154 40.5938 53.3787 40.5938L53.3854 40.6004Z" fill="black"/>
<path d="M30.0077 68.3643L28.2242 67.9415C27.9864 67.8887 27.8609 67.9613 27.8014 68.1991L26.5397 73.5564C26.5001 73.7347 26.6256 73.8668 26.9889 73.9461L27.2796 74.0121C27.6363 74.098 27.8146 74.0386 27.8543 73.8602L28.3167 71.8851L29.215 72.0965C29.6774 72.2022 31.2034 72.3343 31.5931 70.6895C31.9762 69.0513 30.7674 68.5294 30.0077 68.3511V68.3643ZM30.2521 70.3856C30.1068 70.9999 29.6642 71.0264 29.3406 70.9537L28.5809 70.7753L28.931 69.2891L29.6907 69.4674C30.0143 69.5467 30.3975 69.7779 30.2521 70.3922V70.3856Z" fill="black"/>
<path d="M47.3344 72.7636C47.2683 72.4664 47.1626 72.3541 46.9777 72.3937L45.0818 72.8297L44.0249 68.2387C43.9853 68.0604 43.8069 68.0009 43.4502 68.0868L43.1596 68.1528C42.8029 68.2321 42.6708 68.3642 42.7104 68.5426L43.9457 73.9064C43.9985 74.1442 44.124 74.2235 44.3618 74.1707L47.2287 73.5101C47.407 73.4704 47.4533 73.3251 47.3872 73.0279L47.3278 72.7636H47.3344Z" fill="black"/>
<path d="M60.8959 64.9623C60.7044 64.7245 60.5656 64.665 60.4203 64.7839L58.683 66.1513L57.8045 65.0415L59.3502 63.8261C59.4955 63.7138 59.4757 63.5618 59.2841 63.324L59.119 63.1127C58.9274 62.8749 58.7887 62.8154 58.6434 62.9343L57.0977 64.1497L56.3116 63.1523L58.0423 61.7915C58.1876 61.6792 58.1678 61.5273 57.9762 61.2895L57.8111 61.0781C57.6195 60.8403 57.4808 60.7809 57.3355 60.8998L54.8253 62.8815C54.6337 63.0334 54.6139 63.1787 54.7658 63.3703L55.9086 64.8169C55.9351 65.1538 56.4173 66.0654 56.7476 66.323C56.9788 66.508 57.0118 66.508 57.0448 66.3627C57.0448 66.3362 57.0448 66.29 57.0316 66.2372L58.1215 67.6244C58.2735 67.8159 58.4188 67.8357 58.6104 67.6838L61.1271 65.6955C61.2725 65.5832 61.2526 65.4313 61.0611 65.1935L60.8959 64.9821V64.9623Z" fill="black"/>
<path d="M52.6527 71.0659L48.861 66.4948C48.7619 66.3825 48.5704 66.4089 48.3325 66.4948L47.9098 66.6533C47.672 66.7458 47.5068 66.8515 47.5068 67.0034L47.705 72.9354C47.705 73.0014 47.7116 73.0543 47.7248 73.0939C47.7711 73.2062 47.9494 73.2128 48.2929 73.0873L48.6166 72.9618C48.8148 72.8891 48.9337 72.7834 48.9271 72.6447L48.8742 71.5217L50.8031 70.7885L51.5099 71.6604C51.6024 71.7727 51.7939 71.7463 52.0317 71.6604L52.3884 71.5217C52.6725 71.416 52.7716 71.3038 52.7253 71.1849C52.7121 71.1452 52.6857 71.099 52.6461 71.0461L52.6527 71.0659ZM48.8214 70.3261L48.7487 68.6879C48.7487 68.4897 48.7025 68.3048 48.676 68.1198L48.7091 68.1066C48.8081 68.2651 48.9072 68.4303 49.0328 68.5822L50.05 69.8571L48.828 70.3195L48.8214 70.3261Z" fill="black"/>
<path d="M56.3509 67.5979C56.2386 67.664 56.0074 68.2057 55.294 68.6284C54.4287 69.1371 53.6624 68.8002 52.9952 67.6706C52.3281 66.541 52.4073 65.7351 53.2991 65.2067C54.0125 64.7839 54.4551 64.85 54.5476 64.7971C54.7325 64.6848 54.7457 64.011 54.6202 63.7997C54.4353 63.4826 53.3982 63.8129 52.7376 64.2026C51.0664 65.1869 50.7493 66.5741 51.8062 68.3642C52.9027 70.2204 54.1909 70.6101 55.8819 69.6127C56.483 69.256 57.4541 68.4435 57.1899 67.9877C57.1172 67.8622 56.602 67.4526 56.3575 67.5979H56.3509Z" fill="black"/>
<path d="M18.6393 63.7006L18.5733 63.6477C18.7054 63.4297 18.8243 63.2514 18.8573 63.1919C18.9762 63.0202 18.9036 62.7031 18.7516 62.7031C18.5997 62.7031 18.3685 62.9145 18.0646 63.324C17.9589 63.2976 17.8731 63.324 17.8136 63.4033L16.4793 65.0944L14.6297 63.6345L15.964 61.9435C16.0763 61.7981 16.0169 61.6264 15.7262 61.4018L15.4884 61.2102C15.1978 60.9856 15.0194 60.9592 14.9071 61.1045L11.4457 65.4907C11.3334 65.636 11.3929 65.8078 11.6835 66.0324L11.9213 66.224C12.212 66.4485 12.3903 66.475 12.5092 66.3296L13.9229 64.5395L15.7725 65.9994L14.3588 67.7895C14.2465 67.9348 14.306 68.1066 14.5966 68.3312L14.8344 68.5227C15.1251 68.7473 15.3035 68.7737 15.4224 68.6284L18.8837 64.2422C18.996 64.0969 18.9366 63.9252 18.6459 63.7006H18.6393Z" fill="black"/>
<path d="M40.3255 68.6944L38.5023 68.9058C38.2579 68.9322 38.1654 69.0511 38.1919 69.2956L38.8194 74.7651C38.8392 74.95 39.0044 75.0227 39.3743 74.9831L39.6715 74.95C40.0348 74.9104 40.1802 74.7915 40.1604 74.6131L39.9292 72.5984L40.8473 72.4927C41.3163 72.4399 42.8026 72.0369 42.6045 70.3657C42.4129 68.6878 41.0918 68.6152 40.3189 68.701L40.3255 68.6944ZM40.5699 71.3565L39.797 71.4424L39.6253 69.9231L40.3982 69.8372C40.7284 69.7976 41.171 69.8901 41.2437 70.511C41.3164 71.1385 40.9068 71.3169 40.5765 71.3499L40.5699 71.3565Z" fill="black"/>
<path d="M21.268 65.2265L20.8585 65.0217C20.6339 64.9094 20.4423 64.8632 20.33 64.9623L16.1024 69.1304C16.0627 69.1767 16.0231 69.2163 16.0033 69.256C15.9504 69.3683 16.0693 69.5004 16.393 69.6655L16.7035 69.824C16.8885 69.9165 17.047 69.9363 17.1461 69.8373L17.9321 69.038L19.7751 69.9562L19.61 71.0659C19.5836 71.2112 19.7421 71.3368 19.9667 71.4491L20.3102 71.6208C20.581 71.7595 20.733 71.7529 20.7858 71.6406C20.8056 71.601 20.8188 71.5481 20.8321 71.4887L21.6181 65.603C21.6313 65.4577 21.4794 65.3322 21.2548 65.2199L21.268 65.2265ZM20.2111 67.1487L19.9601 68.7605L18.7843 68.1792L19.9403 67.0166C20.0856 66.8845 20.1913 66.726 20.3102 66.574L20.3432 66.5872C20.2904 66.7656 20.2375 66.9572 20.2111 67.1487Z" fill="black"/>
<path d="M35.8602 69.0049L35.5497 68.9785C35.2987 68.9587 35.1005 68.9785 35.0146 69.104L33.7992 70.8875L32.881 68.9455C32.8149 68.8067 32.6234 68.7605 32.3723 68.7407L31.9958 68.7143C31.6127 68.6878 31.4343 68.7407 31.4277 68.8464C31.4277 68.8992 31.4541 68.9785 31.5004 69.071L33.0197 71.9973L32.8149 74.6594C32.8017 74.8443 32.9536 74.95 33.317 74.9765L33.6142 74.9963C33.9775 75.0227 34.1427 74.9434 34.1559 74.7585L34.3541 72.1162L36.3027 69.4277C36.3622 69.3418 36.3952 69.2691 36.3952 69.2163C36.4018 69.1106 36.2433 69.0313 35.8602 68.9983V69.0049Z" fill="black"/>
<path d="M25.4828 67.1091L23.7389 66.5344C23.5077 66.4551 23.3756 66.5212 23.2963 66.759L21.5722 71.9841C21.5128 72.1559 21.6317 72.3012 21.9818 72.4135L22.2658 72.506C22.6159 72.6183 22.7943 72.5786 22.8538 72.4069L23.4879 70.4846L24.3665 70.7753C24.8157 70.9206 26.3283 71.1848 26.8568 69.5862C27.3853 67.9877 26.2227 67.3601 25.4828 67.1157V67.1091ZM25.5489 69.1437C25.3507 69.7382 24.9015 69.7316 24.5911 69.6259L23.8512 69.3815L24.3334 67.9282L25.0733 68.1726C25.3903 68.2783 25.7537 68.5425 25.5555 69.1437H25.5489Z" fill="black"/>
</svg>
