<svg width="44" height="78" viewBox="0 0 44 78" fill="none" xmlns="http://www.w3.org/2000/svg">
<path d="M15.9818 29.2073C19.1761 28.4534 21.1544 25.2527 20.4005 22.0584C19.6466 18.8641 16.4459 16.8858 13.2516 17.6397C10.0573 18.3936 8.07895 21.5943 8.83288 24.7886C9.5868 27.9829 12.7875 29.9612 15.9818 29.2073Z" fill="black"/>
<path d="M14.6242 0.00595447C11.5665 0.00595447 7.9914 4.62212 5.65952 8.9468C3.77974 12.4327 0.626953 19.5592 0.626953 28.1074C0.626953 52.14 4.74343 68.1241 6.51613 73.8824C7.14669 75.9347 9.01457 77.3148 11.162 77.3148H18.0327C20.1743 77.3148 22.0421 75.9407 22.6727 73.9003C24.4633 68.1063 28.6214 52.0508 28.6214 28.1015C28.6214 14.1638 19.6448 0 14.6301 0L14.6242 0.00595447ZM14.6242 2.99813C16.7835 2.99813 25.6292 14.2768 25.6292 28.1074C25.6292 39.4634 24.6834 48.9932 23.5055 56.4528C22.1314 56.5837 20.9416 56.9763 19.9244 57.5236C18.7823 55.275 17.6342 51.8486 17.777 47.3097C19.8709 48.5233 21.2391 51.1883 21.2391 51.1883C21.2391 51.1883 23.1962 45.4894 17.6758 45.9415C17.6699 45.9296 17.658 45.9178 17.652 45.9059C23.5293 42.6995 23.5293 37.7086 23.5293 37.7086C23.5293 37.7086 19.0024 38.9281 17.1702 44.8292C17.8305 36.9948 9.59159 34.8056 9.59159 34.8056C9.59159 34.8056 11.2691 41.1648 16.5099 44.9838C4.39841 40.1476 7.60474 50.2246 7.60474 50.2246C7.60474 50.2246 9.72246 46.1914 16.3671 45.8047C16.3671 45.8047 16.3612 45.8166 16.3552 45.8166C13.488 46.3639 10.6386 48.8861 12.9466 55.971C12.9109 52.0389 14.9513 49.0051 16.0637 47.6488C15.9805 52.3245 17.1464 55.9175 18.4789 58.4754C15.9805 60.4563 14.9097 63.1808 14.7967 63.4842C14.7431 63.502 14.6836 63.5139 14.6182 63.5139C14.3803 63.5139 14.2613 63.4068 13.9222 62.9785C13.5475 62.5086 12.9823 61.8007 11.8878 61.8007C10.7932 61.8007 10.2281 62.5086 9.85333 62.9726C9.51426 63.4009 9.39528 63.508 9.15139 63.508C8.90749 63.508 8.79447 63.4009 8.4554 62.9726C8.11037 62.5383 7.59284 61.9078 6.65295 61.8185C5.10035 53.8176 3.61913 42.4259 3.61913 28.1015C3.61913 13.7771 12.4648 2.9922 14.6242 2.9922V2.99813ZM20.787 68.8439C20.4479 69.2722 20.3289 69.3793 20.085 69.3793C19.8411 69.3793 19.7281 69.2722 19.3831 68.8439C19.0083 68.374 18.4432 67.672 17.3486 67.672C16.2541 67.672 15.689 68.3799 15.3142 68.8439C14.9751 69.2722 14.8562 69.3793 14.6123 69.3793C14.3684 69.3793 14.2553 69.2722 13.9163 68.8439C13.5415 68.374 12.9764 67.672 11.8818 67.672C10.7873 67.672 10.2221 68.3799 9.84738 68.8439C9.50831 69.2722 9.38934 69.3793 9.14544 69.3793C8.90155 69.3793 8.78852 69.2722 8.44945 68.8439C8.34832 68.719 8.23529 68.5822 8.10442 68.4394C7.77725 67.1426 7.43223 65.6673 7.0872 64.0136C7.0991 64.0255 7.10505 64.0374 7.11695 64.0493C7.49171 64.5192 8.05683 65.2212 9.15139 65.2212C10.2459 65.2212 10.8111 64.5133 11.1858 64.0493C11.5249 63.621 11.6439 63.5139 11.8878 63.5139C12.1317 63.5139 12.2447 63.621 12.5838 64.0493C12.9585 64.5192 13.5237 65.2271 14.6182 65.2271C14.6242 65.2271 14.6301 65.2271 14.6361 65.2271H20.0672C20.0672 65.2271 20.0791 65.2271 20.085 65.2271C20.091 65.2271 20.0969 65.2271 20.1029 65.2271H21.8458C21.5781 66.4228 21.3164 67.5174 21.0666 68.5108C20.9595 68.6298 20.8643 68.7428 20.787 68.8439ZM18.0327 74.3345H11.162C10.3352 74.3345 9.62133 73.8051 9.37744 73.008C9.20493 72.4548 9.01457 71.8004 8.80637 71.0568C8.91939 71.0747 9.03242 71.0865 9.15734 71.0865C10.2519 71.0865 10.817 70.3787 11.1918 69.9147C11.5309 69.4864 11.6498 69.3793 11.8937 69.3793C12.1376 69.3793 12.2506 69.4864 12.5897 69.9147C12.9645 70.3846 13.5296 71.0865 14.6242 71.0865C15.7187 71.0865 16.2838 70.3787 16.6586 69.9147C16.9977 69.4864 17.1167 69.3793 17.3605 69.3793C17.6044 69.3793 17.7175 69.4864 18.0625 69.9147C18.4373 70.3846 19.0024 71.0865 20.0969 71.0865C20.204 71.0865 20.3051 71.0747 20.4003 71.0628C20.1921 71.8123 19.9958 72.4666 19.8233 73.0258C19.5794 73.8051 18.8656 74.3345 18.0446 74.3345H18.0327Z" fill="black"/>
<path d="M39.4655 17.8401H37.5024V75.6016H39.4655V17.8401Z" fill="black"/>
<path d="M40.4124 76.7081L39.6747 75.5719H37.2953L36.5576 76.7081H40.4124Z" fill="black" stroke="black" stroke-width="1.99" stroke-linecap="round" stroke-linejoin="round"/>
<path d="M38.5617 13.1228C34.3501 13.1525 33.7671 15.3238 33.7671 17.6616C33.7671 19.5771 35.1591 27.935 35.2721 28.6072C35.3256 29.0593 35.7301 30.3918 38.5617 30.4215C41.3933 30.3918 41.7978 29.0593 41.8513 28.6072C41.9643 27.935 43.3563 19.5771 43.3563 17.6616C43.3563 15.3178 42.7734 13.1525 38.5617 13.1228Z" fill="black"/>
</svg>
