<?xml version="1.0" encoding="UTF-8"?>
<svg id="Layer_1" data-name="Layer 1" xmlns="http://www.w3.org/2000/svg" viewBox="0 0 126.96 126.96">
  <defs>
    <style>
      .cls-1 {
        stroke-width: 2.46px;
      }

      .cls-1, .cls-2, .cls-3 {
        fill: none;
        stroke: #231f20;
        stroke-miterlimit: 10;
      }

      .cls-2 {
        stroke-width: 2.08px;
      }

      .cls-4 {
        stroke-width: 0px;
      }

      .cls-3 {
        stroke-width: .48px;
      }
    </style>
  </defs>
  <path class="cls-2" d="m125.92,63.68c0-5.89-4.51-13.85-21.81-13.85-2.73,0-5.61.21-8.53.58,2.37-1.83,4.6-3.76,6.56-5.72,12.24-12.23,9.8-21.06,5.63-25.22-4.16-4.16-12.98-6.61-25.22,5.63-1.93,1.93-3.82,4.11-5.62,6.44.38-2.97.6-5.91.6-8.68,0-17.31-7.96-21.81-13.85-21.81s-13.85,4.5-13.85,21.81c0,2.73.21,5.61.58,8.53-1.83-2.37-3.76-4.6-5.72-6.57-12.24-12.24-21.06-9.79-25.22-5.63-4.16,4.16-6.61,12.98,5.64,25.22,1.93,1.93,4.11,3.82,6.44,5.63-2.98-.38-5.91-.6-8.69-.6-17.31,0-21.81,7.96-21.81,13.85s4.5,13.85,21.81,13.85c2.73,0,5.61-.21,8.53-.58-2.37,1.83-4.6,3.76-6.57,5.72-12.24,12.24-9.79,21.06-5.63,25.22,4.16,4.16,12.98,6.61,25.22-5.63,1.93-1.93,3.82-4.11,5.62-6.44-.38,2.97-.6,5.91-.6,8.69,0,17.31,7.96,21.81,13.85,21.81s13.85-4.51,13.85-21.81c0-2.73-.21-5.61-.58-8.53,1.83,2.37,3.76,4.6,5.72,6.56,12.24,12.24,21.06,9.8,25.22,5.63,4.16-4.16,6.61-12.98-5.63-25.22-1.93-1.93-4.11-3.82-6.44-5.62,2.97.38,5.91.6,8.69.6,17.31,0,21.81-7.96,21.81-13.85Z"/>
  <path class="cls-1" d="m95.7,63.48c0,17.8-14.43,32.22-32.22,32.22s-32.22-14.43-32.22-32.22,14.43-32.22,32.22-32.22,32.22,14.42,32.22,32.22Z"/>
  <path class="cls-4" d="m57.25,47.71c-.83,3.55-2.53,6.2-3.8,5.9-1.27-.29-1.64-3.42-.81-6.97.83-3.55,2.53-6.19,3.79-5.9,1.27.3,1.64,3.42.81,6.97"/>
  <path class="cls-4" d="m74.32,46.67c.78,3.57.38,6.68-.9,6.96-1.28.28-2.94-2.38-3.72-5.95-.78-3.56-.38-6.68.9-6.95,1.28-.28,2.94,2.38,3.72,5.94"/>
  <path class="cls-4" d="m38.43,58.8c.44.33,1.63-.51,2.66-1.88,1.03-1.37,1.52-2.75,1.08-3.07-.44-.33-1.63.51-2.66,1.88-1.03,1.37-1.51,2.74-1.08,3.07"/>
  <path class="cls-4" d="m88.7,58.8c-.44.33-1.63-.51-2.66-1.88-1.03-1.37-1.52-2.75-1.08-3.07.44-.33,1.63.51,2.66,1.88,1.03,1.37,1.52,2.74,1.08,3.07"/>
  <path class="cls-4" d="m86.52,55.09s.01.36.04,1.03c0,.17.02.36.02.56,0,.21,0,.43,0,.68,0,.24,0,.51,0,.79-.02.28-.03.58-.05.89,0,.16-.01.32-.02.49-.02.16-.03.33-.05.51-.03.35-.06.71-.11,1.09-.05.37-.1.77-.16,1.18-.06.4-.14.82-.22,1.25-.33,1.72-.83,3.64-1.59,5.62-.75,1.99-1.77,4.01-3.06,5.96-.65.97-1.36,1.92-2.14,2.81-.38.46-.8.88-1.21,1.31-.21.21-.43.41-.65.62l-.33.31-.34.29c-1.81,1.57-3.87,2.85-6.08,3.72-.28.1-.56.21-.84.31-.28.1-.56.18-.85.27l-.42.12-.43.1c-.29.06-.57.14-.87.19-1.16.22-2.33.32-3.51.34l-.87-.03c-.14,0-.28,0-.43-.02l-.44-.04c-.3-.03-.61-.05-.89-.1l-.87-.14c-1.16-.23-2.3-.55-3.4-.99-2.21-.87-4.28-2.16-6.09-3.73l-.34-.29-.33-.31c-.22-.21-.44-.4-.65-.62-.41-.43-.83-.85-1.22-1.31-.79-.89-1.5-1.84-2.14-2.81-1.28-1.95-2.31-3.97-3.06-5.96-.76-1.98-1.26-3.89-1.59-5.62-.07-.43-.16-.85-.22-1.25-.06-.41-.11-.8-.16-1.18-.04-.38-.07-.74-.11-1.09-.02-.17-.03-.34-.04-.51,0-.17-.02-.33-.03-.49-.01-.31-.03-.61-.04-.89-.01-.28,0-.54-.01-.79,0-.24,0-.47,0-.68s.01-.4.01-.57c.03-.67.04-1.03.04-1.03,0,0,.03.35.08,1.02.01.16.02.35.04.55.03.2.05.43.08.66.03.24.06.5.09.77.04.27.08.56.13.87.19,1.21.47,2.67.92,4.29.45,1.61,1.07,3.37,1.9,5.17.83,1.8,1.89,3.62,3.17,5.34.65.85,1.33,1.7,2.09,2.47.37.41.78.77,1.17,1.15.2.19.41.36.61.54l.31.27.32.25c.85.69,1.77,1.29,2.71,1.84.24.13.47.27.72.4.24.12.48.23.73.35.24.12.49.23.74.33.25.1.49.22.75.3,1.01.39,2.05.64,3.11.85l.79.13c.26.04.52.05.79.08l.39.04c.13.02.27.01.41.02l.82.03c1.07-.02,2.14-.09,3.2-.29,1.05-.21,2.1-.46,3.11-.85.25-.08.5-.2.75-.3.25-.1.5-.2.74-.33.24-.12.49-.24.73-.36.24-.13.48-.26.71-.39.94-.55,1.86-1.15,2.71-1.84l.32-.25.31-.27c.2-.18.42-.35.62-.54.4-.39.8-.75,1.17-1.15.38-.38.74-.8,1.09-1.21.18-.2.34-.42.51-.63.16-.21.34-.41.5-.63,1.27-1.72,2.34-3.54,3.17-5.34.83-1.8,1.45-3.56,1.9-5.17.45-1.61.74-3.07.92-4.29.05-.31.09-.6.13-.87.03-.27.06-.53.09-.77.03-.24.05-.46.08-.66.02-.2.03-.39.05-.56.05-.67.08-1.02.08-1.02"/>
  <path class="cls-3" d="m86.52,55.09s.01.36.04,1.03c0,.17.02.36.02.56,0,.21,0,.43,0,.68,0,.24,0,.51,0,.79-.02.28-.03.58-.05.89,0,.16-.01.32-.02.49-.02.16-.03.33-.05.51-.03.35-.06.71-.11,1.09-.05.37-.1.77-.16,1.18-.06.4-.14.82-.22,1.25-.33,1.72-.83,3.64-1.59,5.62-.75,1.99-1.77,4.01-3.06,5.96-.65.97-1.36,1.92-2.14,2.81-.38.46-.8.88-1.21,1.31-.21.21-.43.41-.65.62l-.33.31-.34.29c-1.81,1.57-3.87,2.85-6.08,3.72-.28.1-.56.21-.84.31-.28.1-.56.18-.85.27l-.42.12-.43.1c-.29.06-.57.14-.87.19-1.16.22-2.33.32-3.51.34l-.87-.03c-.14,0-.28,0-.43-.02l-.44-.04c-.3-.03-.61-.05-.89-.1l-.87-.14c-1.16-.23-2.3-.55-3.4-.99-2.21-.87-4.28-2.16-6.09-3.73l-.34-.29-.33-.31c-.22-.21-.44-.4-.65-.62-.41-.43-.83-.85-1.22-1.31-.79-.89-1.5-1.84-2.14-2.81-1.28-1.95-2.31-3.97-3.06-5.96-.76-1.98-1.26-3.89-1.59-5.62-.07-.43-.16-.85-.22-1.25-.06-.41-.11-.8-.16-1.18-.04-.38-.07-.74-.11-1.09-.02-.17-.03-.34-.04-.51,0-.17-.02-.33-.03-.49-.01-.31-.03-.61-.04-.89-.01-.28,0-.54-.01-.79,0-.24,0-.47,0-.68s.01-.4.01-.57c.03-.67.04-1.03.04-1.03,0,0,.03.35.08,1.02.01.16.02.35.04.55.03.2.05.43.08.66.03.24.06.5.09.77.04.27.08.56.13.87.19,1.21.47,2.67.92,4.29.45,1.61,1.07,3.37,1.9,5.17.83,1.8,1.89,3.62,3.17,5.34.65.85,1.33,1.7,2.09,2.47.37.41.78.77,1.17,1.15.2.19.41.36.61.54l.31.27.32.25c.85.69,1.77,1.29,2.71,1.84.24.13.47.27.72.4.24.12.48.23.73.35.24.12.49.23.74.33.25.1.49.22.75.3,1.01.39,2.05.64,3.11.85l.79.13c.26.04.52.05.79.08l.39.04c.13.02.27.01.41.02l.82.03c1.07-.02,2.14-.09,3.2-.29,1.05-.21,2.1-.46,3.11-.85.25-.08.5-.2.75-.3.25-.1.5-.2.74-.33.24-.12.49-.24.73-.36.24-.13.48-.26.71-.39.94-.55,1.86-1.15,2.71-1.84l.32-.25.31-.27c.2-.18.42-.35.62-.54.4-.39.8-.75,1.17-1.15.38-.38.74-.8,1.09-1.21.18-.2.34-.42.51-.63.16-.21.34-.41.5-.63,1.27-1.72,2.34-3.54,3.17-5.34.83-1.8,1.45-3.56,1.9-5.17.45-1.61.74-3.07.92-4.29.05-.31.09-.6.13-.87.03-.27.06-.53.09-.77.03-.24.05-.46.08-.66.02-.2.03-.39.05-.56.05-.67.08-1.02.08-1.02Z"/>
</svg>