<svg width="50" height="63" viewBox="0 0 50 63" fill="none" xmlns="http://www.w3.org/2000/svg">
<path d="M25.5575 26.3787C26.3713 25.2529 27.0224 24.0457 27.9583 23.1369C30.0606 21.0888 30.1149 18.8033 29.179 16.2736C28.745 15.1071 28.2499 13.9407 27.9989 12.7335C27.5988 10.8142 28.0532 8.90849 28.5483 7.06381C28.9416 5.6057 29.4571 4.16116 30.1352 2.81835C31.0169 1.05506 32.1427 0.600666 34.0959 0.844814C34.279 0.86516 34.5028 0.804126 34.6723 0.715962C35.4997 0.275138 36.3746 0.0581182 37.3173 0.112373C38.2532 0.159847 38.9788 0.776994 38.9721 1.7129C38.9721 2.35718 38.8161 3.02859 38.6058 3.64574C38.104 5.07672 37.4868 6.46701 36.9917 7.89799C36.5034 9.30862 36.6052 10.7464 37.1884 12.1163C37.792 13.5337 38.4363 14.9308 39.1484 16.294C40.4912 18.8643 40.7828 21.6042 40.559 24.4255C40.403 26.3515 39.8469 28.1759 38.9992 29.9188C38.85 30.224 38.8432 30.6648 38.9381 30.9971C39.535 33.0724 40.1182 35.1544 40.8235 37.1958C41.8815 40.2476 42.6682 43.3266 42.519 46.5955C42.3969 49.2879 41.6102 51.7429 40.1385 53.9877C40.0504 54.1234 39.969 54.2658 39.8537 54.4489C40.871 54.5303 41.8544 54.5235 42.8038 54.6998C44.0246 54.9304 45.2589 55.1949 46.405 55.6493C47.9174 56.2597 48.7651 57.4465 48.7312 59.1556C48.7312 59.3387 48.8736 59.5285 48.9347 59.7184C49.0839 60.2067 49.3212 60.695 49.3484 61.1901C49.4094 62.2549 48.6905 62.9398 47.6122 62.9398C42.8784 62.9398 38.1514 62.9398 33.4177 62.9398C25.0624 62.9398 16.7003 62.9263 8.34502 62.9534C6.42574 62.9534 4.82521 62.2956 3.54343 60.9392C2.82455 60.1796 2.24809 59.2641 1.71232 58.3553C1.30541 57.6635 0.993443 56.8972 0.749295 56.1308C0.152488 54.2251 0.722164 53.3774 2.3566 52.9433C3.94356 52.5229 5.53731 52.0888 7.15818 51.8311C8.88757 51.5598 10.1965 50.7663 11.1324 49.3218C12.2514 47.5992 13.8587 46.5887 15.8594 46.2496C16.9241 46.0733 17.8804 45.8698 18.7484 45.0967C19.6708 44.2761 20.8983 44.371 22.0173 44.7779C22.6752 45.0221 23.1092 44.8254 23.5704 44.3981C24.8657 43.2045 25.3065 41.6447 25.3133 39.9967C25.3133 38.0639 25.0488 36.1378 25.0285 34.205C25.0217 33.1945 24.4859 32.7197 23.7399 32.2857C21.529 31.0107 18.9044 31.2481 16.8766 32.9571C14.9709 34.5644 14.0215 36.7007 13.5874 39.1015C13.5399 39.3456 13.5128 39.5966 13.4789 39.8407C13.3772 40.4782 12.9499 40.8851 12.3599 40.9055C11.7834 40.9258 11.2951 40.546 11.1866 39.9085C10.7662 37.4874 11.0171 35.1205 11.9665 32.8621C13.5467 29.105 16.2256 26.5957 20.3354 25.8361C21.9359 25.5377 23.5297 25.6937 25.0827 26.2227C25.2794 26.2905 25.4693 26.3447 25.5575 26.3719V26.3787ZM37.8259 31.8991C37.3376 32.4417 36.829 33.052 36.2593 33.5878C36.0965 33.7438 35.6489 33.798 35.4658 33.6827C35.1064 33.4657 35.2352 33.1131 35.4997 32.835C35.5608 32.774 35.6286 32.7197 35.6693 32.6519C36.4831 31.4786 37.48 30.3867 38.0768 29.105C40.03 24.8866 40.1046 20.6276 37.9548 16.4093C37.3715 15.2631 36.7951 14.1034 36.2864 12.9166C35.5404 11.1804 35.3098 9.37644 35.9134 7.55211C36.361 6.20929 36.9104 4.90718 37.419 3.58471C37.5546 3.23883 37.7378 2.89973 37.8259 2.54029C38.0904 1.4484 37.6971 1.04827 36.5848 1.21104C34.9911 1.44162 33.9941 2.45891 33.2549 3.78138C32.2308 5.62605 31.7765 7.65384 31.356 9.69519C30.983 11.506 31.0101 13.2286 31.8511 14.9783C32.8344 17.0128 32.5632 19.1017 31.3153 20.9803C30.7795 21.7873 30.1149 22.5265 29.4164 23.2115C27.6192 24.968 26.2492 27.0026 26.0797 29.539C25.9508 31.4786 26.1678 33.4454 26.317 35.3918C26.4798 37.4535 26.5951 39.5016 26.2357 41.5565C25.9576 43.1231 25.2523 44.4456 23.9569 45.5172C25.0217 46.0122 25.9983 46.4734 26.9817 46.9142C27.8769 47.3144 28.433 47.9925 28.4805 48.9691C28.5144 49.5795 28.5008 50.2509 28.277 50.807C27.2665 53.3299 25.3472 55.0254 22.96 56.1783C21.7393 56.7683 20.7423 56.1986 20.4778 54.8762C20.2337 53.6622 20.1184 52.4143 19.9353 51.1868C19.7861 50.1899 19.603 49.1997 18.7145 48.5487C18.3619 48.2842 18.0906 47.9993 18.4229 47.5721C18.7349 47.1652 19.1079 47.2872 19.4605 47.5517C20.3286 48.196 20.8101 49.0912 20.9932 50.1221C21.1831 51.1868 21.2917 52.2651 21.3866 53.3435C21.5019 54.6456 21.7664 54.8558 22.7972 54.0827C23.9027 53.2553 24.9132 52.2787 25.8694 51.275C26.4595 50.6578 26.7307 49.8237 26.7443 48.9217C26.7511 48.3249 26.5747 47.9722 25.9779 47.7552C25.2184 47.4703 24.5198 47.0431 23.7738 46.7243C22.9736 46.3785 22.1665 46.0326 21.3323 45.7952C20.2201 45.4697 19.2639 45.8223 18.5789 46.7582C18.3144 47.1245 18.0092 47.2194 17.5752 47.2262C15.3168 47.2872 13.4043 48.0129 12.0615 49.9796C10.9764 51.5598 9.51828 52.6381 7.5244 52.8823C6.45964 53.0179 5.41523 53.296 4.43186 53.4927C4.77095 55.3713 3.91644 56.5649 2.53971 57.4804C3.58413 60.3559 6.01882 62.0039 8.874 61.8005C11.2409 61.6377 12.8957 60.2203 13.1941 58.0908C13.0516 58.0908 12.8889 58.1315 12.7736 58.0772C12.638 58.0162 12.4548 57.8873 12.4481 57.772C12.4345 57.6228 12.5294 57.399 12.6515 57.3109C13.4247 56.7683 15.0252 57.3923 15.2219 58.3214C15.2558 58.4841 15.1608 58.7351 15.0387 58.8436C14.9506 58.9182 14.6997 58.8504 14.5437 58.7825C14.4623 58.7419 14.4419 58.5723 14.3877 58.4502C14.0554 59.1895 13.8384 59.8066 13.506 60.3492C13.1805 60.8849 12.7397 61.3393 12.3735 61.8005C15.0659 61.8005 17.7922 61.8547 20.5185 61.7733C21.6104 61.7394 22.6073 61.224 23.4619 60.5051C24.2079 59.8744 24.6826 59.0877 24.7097 58.084C24.7233 57.6974 24.8318 57.399 25.2523 57.399C25.7202 57.399 25.8762 57.7449 25.8016 58.1315C25.6863 58.7418 25.6117 59.3997 25.3133 59.9151C24.9064 60.6272 24.3096 61.2308 23.8213 61.8412H33.3159C32.8955 61.3122 32.5089 60.8239 32.0749 60.2813H41.3932C41.4135 60.3492 41.4339 60.4238 41.4542 60.4916C40.6133 60.946 39.7791 61.3936 38.8839 61.8751C41.8137 61.8751 44.6824 61.8751 47.5512 61.8751C48.0734 61.8751 48.365 61.5563 48.2226 61.068C48.0937 60.6272 47.8835 60.1321 47.5512 59.8609C47.0086 59.4268 46.3643 59.0945 45.7133 58.8368C43.9025 58.1247 41.9697 58.1315 40.0639 57.9687C38.6533 57.8466 37.2291 57.8263 35.8456 57.5686C34.0687 57.2363 32.4207 56.5377 31.2068 55.0796C30.9694 54.7948 30.8406 54.4896 31.1593 54.2048C31.4781 53.9199 31.7629 54.0556 32.0206 54.3404C33.1193 55.5137 34.5503 56.0698 36.0694 56.4089C36.2864 56.4564 36.6187 56.3614 36.7747 56.2122C38.9449 54.1573 40.4912 51.7294 41.088 48.7657C41.7187 45.6392 41.3321 42.5806 40.3759 39.583C39.5553 37.0127 38.6533 34.4627 37.792 31.9127L37.8259 31.8991ZM25.2319 27.5316C23.3601 26.7991 21.4951 26.6296 19.6572 27.1314C15.9136 28.1623 13.7163 30.8004 12.5973 34.4084C12.0276 36.2395 11.9462 38.4911 12.3192 39.7186C12.3463 39.6915 12.3938 39.6712 12.4006 39.644C12.4277 39.5016 12.4413 39.3592 12.4616 39.2168C12.8618 36.4972 13.9265 34.11 15.995 32.2314C16.1984 32.0483 16.3002 31.7499 16.4494 31.5125C16.7953 30.9768 17.0258 30.2782 17.5141 29.9459C19.0129 28.9015 20.7084 28.3318 22.5599 28.3861C23.3398 28.4064 24.1197 28.5014 24.9403 28.5624C25.0285 28.2505 25.1099 27.9385 25.2252 27.5384L25.2319 27.5316ZM30.9491 19.1356C31.0033 18.9864 31.0644 18.844 31.0983 18.688C31.4442 17.2773 31.0847 15.9956 30.5354 14.6934C30.2234 13.9474 29.9996 13.0997 29.9996 12.2994C29.9928 9.83761 30.6032 7.47073 31.4441 5.18523C31.8646 4.03909 32.5021 2.97433 33.0243 1.90958C32.2512 1.94349 31.729 2.13338 31.3017 3.00146C30.6575 4.31715 30.0742 5.68709 29.6673 7.09094C28.867 9.85796 28.5686 12.6318 29.9657 15.3581C30.5625 16.5178 30.9694 17.7724 30.9491 19.1356ZM38.1786 56.6191C41.3661 56.7548 44.5332 56.9718 47.5308 58.2942C47.3477 57.9077 47.1849 57.4736 46.873 57.2634C46.2422 56.8429 45.5641 56.4564 44.852 56.2054C43.2853 55.6561 41.617 55.7849 39.9893 55.6425C39.1213 55.5679 38.5787 55.8731 38.1718 56.6123L38.1786 56.6191Z" fill="black"/>
<path d="M14.7335 53.9606C13.567 53.947 12.5904 53.1196 12.3598 51.9667C12.2785 51.5598 12.3802 51.2478 12.7939 51.1393C13.2144 51.0308 13.4789 51.2546 13.567 51.6548C13.7094 52.3058 14.0892 52.6856 14.7539 52.7331C15.3303 52.7738 15.7915 52.4211 15.9746 51.7904C16.1102 51.336 16.3205 50.9766 16.8359 51.1529C17.3513 51.3292 17.2903 51.77 17.1614 52.1973C16.8291 53.296 15.8932 53.9742 14.7335 53.9606Z" fill="black"/>
</svg>
