<?xml version="1.0" encoding="UTF-8"?>
<svg id="Layer_1" data-name="Layer 1" xmlns="http://www.w3.org/2000/svg" viewBox="0 0 107.73 107.73">
  <defs>
    <style>
      .cls-1 {
        fill: none;
        stroke: #231f20;
        stroke-miterlimit: 10;
        stroke-width: 3.96px;
      }

      .cls-2 {
        stroke-width: 0px;
      }
    </style>
  </defs>
  <path class="cls-1" d="m5.11,36.15C14.9,9.22,44.66-4.67,71.58,5.11c26.92,9.78,40.82,39.54,31.03,66.47-9.78,26.92-39.54,40.81-66.46,31.03C9.22,92.83-4.67,63.07,5.11,36.15Z"/>
  <g>
    <path class="cls-2" d="m42.19,16.15c-2.1-.48-4.92,3.9-6.29,9.79-1.37,5.89-.76,11.06,1.34,11.55,2.11.49,4.93-3.89,6.3-9.78,1.37-5.89.77-11.06-1.34-11.56Z"/>
    <path class="cls-2" d="m71.84,25.99c-1.29-5.91-4.06-10.32-6.17-9.86-2.12.46-2.78,5.62-1.49,11.53,1.29,5.91,4.06,10.33,6.17,9.87,2.11-.47,2.78-5.63,1.49-11.54Z"/>
  </g>
  <path class="cls-2" d="m92.07,39.95s.02.59.07,1.7c0,.28.03.59.03.93,0,.35,0,.72-.01,1.12,0,.4,0,.85,0,1.31-.02.46-.05.96-.08,1.48-.01.27-.02.53-.04.81-.02.27-.05.55-.08.84-.06.58-.1,1.18-.18,1.81-.08.62-.17,1.28-.27,1.95-.1.67-.24,1.36-.37,2.07-.55,2.86-1.38,6.03-2.64,9.31-1.25,3.29-2.94,6.65-5.07,9.88-1.08,1.61-2.25,3.18-3.55,4.66-.63.76-1.33,1.46-2.02,2.18-.35.35-.72.68-1.08,1.02l-.54.51-.57.48c-3,2.61-6.42,4.73-10.09,6.18-.46.17-.92.35-1.39.52-.47.16-.93.29-1.41.44l-.7.2-.71.17c-.48.11-.95.23-1.44.32-1.92.37-3.87.53-5.81.56l-1.44-.05c-.24-.01-.46,0-.71-.03l-.74-.07c-.5-.06-1-.08-1.48-.17l-1.44-.24c-1.92-.38-3.81-.92-5.64-1.65-3.67-1.44-7.09-3.57-10.09-6.18l-.56-.48-.54-.51c-.36-.34-.73-.67-1.08-1.02-.69-.72-1.38-1.41-2.01-2.18-1.31-1.48-2.48-3.06-3.55-4.66-2.12-3.23-3.82-6.59-5.07-9.88-1.26-3.29-2.09-6.46-2.64-9.32-.12-.71-.27-1.4-.37-2.07-.09-.68-.18-1.32-.26-1.95-.07-.63-.12-1.23-.18-1.81-.03-.29-.05-.57-.08-.84-.01-.28-.03-.54-.04-.81-.02-.52-.05-1.02-.08-1.48-.02-.46-.01-.9-.02-1.31,0-.4,0-.78,0-1.12s.02-.66.02-.94c.05-1.11.08-1.7.08-1.7,0,0,.04.59.14,1.69.02.28.03.59.07.92.04.34.08.71.13,1.1.05.4.1.82.15,1.28.07.45.14.93.21,1.44.31,2.01.79,4.43,1.53,7.11.75,2.67,1.78,5.59,3.15,8.58,1.37,2.99,3.13,5.99,5.25,8.86,1.08,1.41,2.21,2.82,3.47,4.1.61.67,1.29,1.27,1.94,1.9.33.31.67.59,1.02.89l.52.45.54.42c1.42,1.14,2.93,2.14,4.49,3.05.39.22.78.44,1.19.65.4.2.8.39,1.21.59.4.2.81.38,1.23.55.42.16.82.37,1.25.5,1.67.64,3.41,1.06,5.16,1.41l1.32.21c.44.07.87.08,1.3.14l.65.06c.21.03.45.02.68.03l1.36.04c1.77-.02,3.55-.15,5.3-.48,1.74-.35,3.48-.77,5.16-1.41.42-.13.83-.34,1.25-.51.41-.16.83-.34,1.23-.54.4-.2.81-.39,1.21-.59.4-.21.79-.43,1.18-.65,1.56-.91,3.08-1.9,4.49-3.05l.53-.42.52-.45c.34-.3.69-.59,1.02-.89.65-.64,1.32-1.24,1.94-1.91.63-.63,1.22-1.33,1.81-2,.3-.33.56-.7.84-1.05.27-.35.56-.69.82-1.05,2.11-2.86,3.88-5.87,5.25-8.86,1.37-2.98,2.4-5.9,3.15-8.58.75-2.67,1.22-5.09,1.53-7.11.07-.51.14-.99.21-1.44.05-.45.1-.87.15-1.27.04-.4.09-.77.12-1.1.04-.34.05-.65.08-.93.09-1.1.13-1.69.13-1.69"/>
  <path class="cls-2" d="m93.89,41.01c-1.71-2.27-3.69-3.67-4.41-3.12-.73.54.08,2.83,1.79,5.1.16.21.32.4.47.59,0,.03,0,.06-.01.09-.05.39-.1.82-.15,1.27-.07.45-.14.93-.21,1.44-.31,2.01-.78,4.43-1.53,7.11-.75,2.67-1.78,5.6-3.15,8.58-1.37,2.99-3.14,6-5.25,8.86-.26.37-.55.7-.82,1.05-.28.35-.55.71-.84,1.05-.59.67-1.18,1.37-1.81,2-.62.67-1.28,1.27-1.94,1.91-.33.3-.68.59-1.02.89l-.52.45-.53.42c-1.41,1.14-2.93,2.13-4.49,3.05-.39.22-.78.44-1.18.65-.4.2-.81.39-1.21.59-.4.21-.82.38-1.23.54-.41.17-.82.37-1.24.51-1.68.64-3.42,1.06-5.16,1.41-1.75.32-3.53.46-5.3.48l-1.36-.04c-.23,0-.47,0-.68-.03l-.65-.06c-.43-.05-.86-.06-1.3-.14l-1.32-.21c-1.75-.35-3.48-.77-5.16-1.41-.43-.14-.83-.34-1.25-.5-.42-.17-.83-.34-1.23-.55-.41-.2-.81-.39-1.21-.59-.4-.21-.8-.44-1.19-.65-1.56-.91-3.07-1.91-4.49-3.05l-.53-.42-.52-.45c-.34-.3-.69-.58-1.02-.89-.65-.63-1.32-1.23-1.94-1.9-1.26-1.29-2.4-2.7-3.47-4.1-2.12-2.86-3.88-5.87-5.25-8.86-1.37-2.98-2.4-5.91-3.15-8.58-.75-2.67-1.22-5.1-1.53-7.11-.08-.51-.15-.99-.21-1.44-.05-.45-.1-.88-.15-1.28-.02-.13-.03-.23-.04-.35.09-.11.18-.21.26-.33,1.71-2.27,2.52-4.55,1.79-5.1-.72-.55-2.7.85-4.42,3.12-1.71,2.27-2.51,4.54-1.79,5.09.64.48,2.23-.52,3.76-2.31,0,.38,0,.79.02,1.22.02.46.05.96.08,1.48.01.27.03.53.04.81.03.27.05.55.08.84.06.58.11,1.18.18,1.81.08.63.17,1.28.26,1.95.1.67.25,1.36.37,2.07.55,2.86,1.39,6.03,2.64,9.32,1.25,3.29,2.95,6.65,5.07,9.88,1.07,1.61,2.25,3.19,3.55,4.66.63.76,1.33,1.46,2.01,2.18.35.35.72.68,1.08,1.02l.54.51.56.48c3.01,2.61,6.43,4.74,10.09,6.18,1.83.73,3.72,1.26,5.64,1.65l1.44.24c.48.09.98.11,1.48.17l.74.07c.25.03.47.02.71.03l1.44.05c1.95-.04,3.89-.2,5.81-.56.48-.08.96-.21,1.44-.32l.71-.17.7-.21c.47-.15.94-.28,1.41-.44.46-.17.92-.34,1.39-.52,3.66-1.45,7.08-3.57,10.09-6.18l.57-.48.54-.51c.36-.35.73-.67,1.08-1.02.69-.72,1.39-1.42,2.02-2.18,1.3-1.48,2.48-3.05,3.55-4.66,2.13-3.23,3.82-6.59,5.07-9.88,1.26-3.29,2.09-6.46,2.64-9.31.13-.71.27-1.41.37-2.07.1-.68.19-1.33.27-1.95.07-.63.12-1.23.18-1.81.03-.29.05-.57.08-.84.02-.28.03-.54.04-.81.03-.52.06-1.02.08-1.48,0-.34,0-.66,0-.97,1.46,1.61,2.92,2.51,3.53,2.05.72-.54-.08-2.82-1.79-5.09Z"/>
</svg>