<svg width="50" height="70" viewBox="0 0 50 70" fill="none" xmlns="http://www.w3.org/2000/svg">
<path d="M37.8161 68.2495C34.5163 67.1018 18.1022 59.6162 16.2371 58.7639C5.54469 58.4516 5.54469 57.363 5.54469 56.6372C5.54469 54.7215 7.78951 54.2573 9.77272 53.8523C10.8023 53.6413 11.8572 53.4303 12.4817 53.059C13.0302 52.7383 13.4606 52.3754 13.8826 52.021C14.8615 51.2108 15.8742 50.3669 17.7055 50.7045C19.1064 50.9576 19.8997 52.6455 20.2288 53.54C21.9504 53.9029 28.2714 55.2363 33.3264 56.1899C38.4996 57.1604 39.5292 58.8567 40.1453 59.8694C40.2465 60.0297 40.3394 60.1901 40.4069 60.2576C40.7191 60.5699 40.7276 61.0762 40.4069 61.3969C40.0946 61.7091 39.5798 61.7091 39.2676 61.3969C39.0566 61.1859 38.9132 60.9496 38.7612 60.7049C38.2549 59.8694 37.4954 58.612 33.0226 57.768C27.1236 56.6625 19.5115 55.0338 19.4356 55.0169C19.1486 54.9578 18.9123 54.7384 18.8364 54.4599C18.5832 53.616 17.9503 52.3923 17.4102 52.291C16.3131 52.0885 15.8152 52.502 14.9037 53.2615C14.4565 53.6329 13.9501 54.0548 13.2918 54.443C12.4395 54.9494 11.2411 55.1941 10.0934 55.422C9.07226 55.6329 7.73888 55.903 7.30004 56.325C8.63343 56.7216 12.8361 57.0507 16.4397 57.152C16.5494 57.152 16.6506 57.1773 16.7519 57.2195C16.9376 57.3039 34.9805 65.5574 38.3393 66.722C41.5377 67.836 45.6476 68.739 47.0232 66.7473C48.4663 64.6628 48.2131 61.937 46.4071 60.1395C44.4408 58.1731 42.4154 57.5571 42.3901 57.5486C41.9681 57.422 41.7234 56.9748 41.85 56.5528C41.9766 56.1224 42.4154 55.8861 42.8458 56.0127C42.9471 56.038 45.2932 56.7469 47.5464 59.0086C49.9094 61.3716 50.2385 64.9329 48.3481 67.6672C46.289 70.6462 41.2339 69.4394 37.8161 68.2495ZM0.793444 65.8274C-0.430235 63.456 -0.447113 59.7091 3.50242 56.9579C3.8653 56.7047 4.36321 56.7975 4.61639 57.152C4.86956 57.5149 4.78517 58.0128 4.41385 58.2744C1.31667 60.4348 1.24916 63.2113 2.21122 65.0932C3.12265 66.857 6.92872 67.5828 9.76428 66.5279C12.7264 65.4308 20.7521 62.0214 20.828 61.9876C21.2415 61.8104 21.7057 62.0045 21.8829 62.4096C22.0517 62.8147 21.866 63.2873 21.4525 63.4645C21.1234 63.6079 13.3087 66.9161 10.3213 68.0301C6.99623 69.2706 2.21122 68.5955 0.776565 65.8274H0.793444ZM38.8034 56.2406C38.7528 55.8102 39.0566 55.4135 39.487 55.3544C39.5123 55.346 39.5039 55.2279 39.4195 55.0253C39.1663 54.519 36.4658 54.0801 34.2379 54.1814C33.4193 54.2067 32.6597 53.7341 31.9002 53.2193C31.3432 52.8396 30.7609 52.4429 30.0689 52.2235C29.09 51.9028 28.5414 53.3206 28.533 53.3375C28.3726 53.751 27.9085 53.9535 27.495 53.8016C27.0814 53.6413 26.8705 53.1771 27.0308 52.7636C27.4106 51.7762 28.6258 50.0715 30.5584 50.696C31.4698 50.9914 32.1787 51.4724 32.8032 51.8944C33.3264 52.2573 33.8918 52.6033 34.1619 52.578C34.7695 52.5526 40.044 52.367 40.8964 54.4093C41.2508 55.2616 41.0989 55.8439 40.8964 56.173C40.601 56.6794 40.0609 56.9072 39.6896 56.9494C39.2507 57.0001 38.8456 56.6878 38.795 56.249L38.8034 56.2406ZM16.7857 49.7086C16.3553 49.5905 16.1105 49.1517 16.2287 48.7213L16.3384 48.3331C16.4565 47.9027 16.8954 47.6579 17.3258 47.7761C17.7562 47.8942 18.0009 48.3331 17.8828 48.7635L17.773 49.1517C17.6549 49.5736 17.2161 49.8268 16.7857 49.7086ZM30.7356 49.1348L30.6934 48.9997C30.5499 48.5778 30.7778 48.1221 31.1998 47.9786C31.6217 47.8352 32.0774 48.063 32.2209 48.485L32.2631 48.6116C32.4066 49.0335 32.1787 49.4892 31.7567 49.6243C31.3432 49.7677 30.8791 49.5399 30.7356 49.1179V49.1348ZM39.6811 46.8056C37.1325 46.8056 27.5372 46.7212 27.5372 46.7212C27.3684 46.7043 25.1067 46.4342 25.1067 42.7295V36.9064C25.1067 36.6279 25.2586 36.3663 25.4949 36.2144C25.7396 36.071 26.035 36.0625 26.2882 36.1975C26.4147 36.2651 29.0562 37.7166 29.4613 41.1429C30.9381 40.9825 34.0184 40.6956 36.5839 40.8475C35.7485 39.6492 34.6007 37.9613 33.7568 36.6026L33.1408 38.9149C33.0311 39.3453 32.5922 39.5985 32.1534 39.4804C31.723 39.3622 31.4698 38.9234 31.588 38.493L32.7188 34.2734C32.8032 33.9443 33.0986 33.6995 33.4361 33.6827C33.7737 33.6574 34.0944 33.8515 34.2294 34.1721C34.7526 35.4127 37.7992 39.7926 38.9216 41.3792C39.1157 41.6492 39.1241 42.0037 38.9469 42.2822C38.7697 42.5607 38.4406 42.6957 38.1199 42.6366C34.9805 42.0374 28.879 42.8307 28.8199 42.8392C28.5921 42.8645 28.3558 42.797 28.187 42.6451C28.0097 42.4932 27.9169 42.2737 27.9169 42.0374C27.9169 40.4593 27.3177 39.3453 26.7186 38.6365V42.7295C26.7186 44.8983 27.6131 45.1093 27.6637 45.1262C27.6975 45.1346 37.1578 45.2106 39.6896 45.2021C40.8204 45.2021 42.2719 45.0333 42.7361 44.2063C43.2171 43.3793 42.7867 41.7505 41.5377 39.6154L40.6601 38.0963C37.5544 32.7375 35.6219 29.3365 30.9044 28.3069C29.4022 27.9778 25.8831 27.2183 25.8662 23.0999C25.8662 22.7793 26.0434 22.467 26.3726 22.332C28.7102 21.3531 30.2714 18.7453 30.2714 15.8507C30.2714 12.0531 27.6384 8.96435 24.4062 8.96435C21.174 8.96435 18.5326 12.0531 18.5326 15.8507C18.5326 18.7453 20.0938 21.3446 22.4315 22.332C22.7268 22.4501 22.9463 22.7455 22.9378 23.0999C22.9294 27.2858 19.444 28.0031 17.9503 28.3069C13.1737 29.2859 11.1483 32.94 8.16083 38.1048L7.28316 39.6154C6.03417 41.7505 5.61221 43.3793 6.0848 44.2063C6.55739 45.0249 8.00893 45.2021 9.13978 45.2021C11.6884 45.2021 21.2669 45.1177 21.2669 45.1177C21.1993 45.1177 22.1108 44.9068 22.1108 42.7295V38.6365C21.5116 39.3453 20.9124 40.4593 20.9124 42.0374C20.9124 42.2737 20.8111 42.4932 20.6424 42.6451C20.4651 42.797 20.2373 42.8645 20.0094 42.8392C19.9503 42.8307 13.8488 42.0374 10.7095 42.6366C10.3888 42.6957 10.0596 42.5522 9.88243 42.2822C9.7052 42.0037 9.71364 41.6492 9.90774 41.3792C11.0386 39.7926 14.0767 35.4127 14.5999 34.1721C14.7349 33.8515 15.0556 33.6574 15.4016 33.6827C15.7476 33.708 16.0346 33.9612 16.119 34.2987L17.1317 38.5099C17.2329 38.9403 16.9713 39.3791 16.5409 39.4804C16.1105 39.5901 15.6717 39.32 15.5704 38.8896L15.0388 36.6617C14.1948 38.012 13.064 39.666 12.2454 40.8475C14.8025 40.6956 17.8912 40.9825 19.368 41.1429C19.7731 37.7166 22.423 36.2566 22.5412 36.1975C22.7859 36.0625 23.0897 36.071 23.3345 36.2144C23.5792 36.3579 23.7227 36.6195 23.7227 36.9064V42.7295C23.7227 46.4342 21.461 46.7043 21.3597 46.7127C21.2837 46.7127 11.6968 46.8056 9.13978 46.8056C6.87808 46.8056 5.38435 46.1979 4.69234 45.008C3.89062 43.5987 4.27882 41.5733 5.89914 38.8052L6.76837 37.3031C9.79803 32.0623 12.1188 27.8596 17.6296 26.7372C19.4524 26.3659 21.0981 25.8342 21.3091 23.581C18.6676 22.2138 16.9291 19.1842 16.9291 15.8507C16.9291 11.167 20.2795 7.35248 24.4062 7.35248C28.533 7.35248 31.8833 11.167 31.8833 15.8507C31.8833 19.1842 30.1449 22.2138 27.5034 23.581C27.7228 25.7836 29.4697 26.3575 31.242 26.7372C36.7443 27.9272 38.9891 32.0117 42.0441 37.2862L42.9218 38.7968C44.5336 41.5648 44.9303 43.5903 44.1201 44.9996C43.4365 46.198 41.9428 46.7971 39.6811 46.7971V46.8056Z" fill="black"/>
<path d="M9.13999 46.4848C6.99644 46.4848 5.59554 45.9363 4.97104 44.8476C4.22839 43.548 4.6166 41.6239 6.1694 38.9655L7.04707 37.4634C10.0008 32.3577 12.2794 28.1634 17.6889 27.0494C19.267 26.7287 21.6468 26.2393 21.6468 23.083C21.6468 22.813 21.8662 22.602 22.1279 22.602C22.3895 22.602 22.6089 22.8214 22.6089 23.083C22.6089 27.0241 19.4104 27.6824 17.883 27.9946C12.946 29.0158 10.8953 32.7206 7.87411 37.9444L6.99644 39.455C5.67149 41.7251 5.25797 43.4214 5.79808 44.375C6.23691 45.143 7.35932 45.5312 9.13155 45.5312C11.6802 45.5312 21.2671 45.4468 21.2671 45.4468C21.2671 45.4468 22.4232 45.2358 22.4232 42.7378V37.8516C21.6637 38.5183 20.5835 39.8517 20.5835 42.0458C20.5835 42.1893 20.5244 42.3159 20.4147 42.4087C20.3134 42.5015 20.1784 42.5437 20.0349 42.5269C19.9759 42.5184 13.8237 41.7251 10.6337 42.3243C10.4396 42.3665 10.2455 42.2737 10.1358 42.1133C10.0261 41.9446 10.0345 41.7336 10.1442 41.5732C10.1864 41.5142 14.2288 35.8346 14.8702 34.3071C14.9546 34.113 15.1487 33.9949 15.3512 34.0117C15.5622 34.0286 15.731 34.1805 15.7816 34.3831L16.7943 38.5942C16.8534 38.8558 16.693 39.1174 16.4399 39.1765C16.1783 39.2356 15.9166 39.0752 15.8576 38.8221L15.1402 35.843C14.1782 37.4634 12.4903 39.9107 11.5705 41.2357C14.3976 40.9656 18.2374 41.3538 19.6299 41.5142C19.883 38.0203 22.5498 36.5604 22.668 36.4929C22.8199 36.4085 22.9971 36.4169 23.1406 36.5013C23.284 36.5857 23.3769 36.746 23.3769 36.9148V42.7378C23.3769 46.1557 21.3937 46.4004 21.3093 46.4089C21.2671 46.4089 11.6802 46.5017 9.12311 46.5017L9.13999 46.4848Z" fill="black"/>
<path d="M39.6815 46.4848C37.1329 46.4848 27.5375 46.4004 27.5375 46.4004C27.4109 46.392 25.4277 46.1473 25.4277 42.7294V36.9064C25.4277 36.7376 25.5206 36.5773 25.664 36.4929C25.8075 36.4085 25.9847 36.4 26.1366 36.4844C26.2548 36.5435 28.9216 38.0119 29.1747 41.5057C30.5672 41.3454 34.407 40.9572 37.2341 41.2272C36.3058 39.9023 34.5927 37.4212 33.639 35.8008L32.8204 38.839C32.7529 39.0921 32.4913 39.2525 32.2297 39.1765C31.9765 39.109 31.8246 38.839 31.8921 38.5858L33.023 34.3662C33.0736 34.1721 33.2508 34.0286 33.4534 34.0118C33.6644 34.0118 33.85 34.113 33.9344 34.3071C34.5758 35.8346 38.6181 41.5142 38.6603 41.5732C38.7701 41.7336 38.7785 41.9446 38.6772 42.1134C38.5675 42.2821 38.3734 42.3665 38.1793 42.3243C34.9893 41.7167 28.8372 42.51 28.7781 42.5269C28.6431 42.5522 28.4996 42.5015 28.3983 42.4087C28.2886 42.3159 28.2295 42.1893 28.2295 42.0458C28.2295 39.8517 27.1493 38.5183 26.3898 37.8516V42.7378C26.3898 45.2358 27.546 45.4384 27.605 45.4468C27.5882 45.4468 37.1413 45.5312 39.6815 45.5312C41.4537 45.5312 42.5677 45.143 43.0065 44.375C43.5466 43.4299 43.1331 41.7336 41.8082 39.455L40.9305 37.9444C37.8502 32.6277 35.8417 29.0495 30.9638 28.0031C29.411 27.6655 26.1873 26.965 26.1873 23.0915C26.1873 22.8214 26.4067 22.6104 26.6683 22.6104C26.9299 22.6104 27.1493 22.8299 27.1493 23.0915C27.1493 26.1886 29.6642 26.7372 31.1664 27.0663C36.4577 28.2056 38.6435 32.0876 41.7575 37.4634L42.6352 38.974C44.188 41.6323 44.5762 43.5564 43.8336 44.8561C43.2091 45.9447 41.8082 46.4933 39.673 46.4933L39.6815 46.4848Z" fill="black"/>
<path d="M26.6681 23.5641C26.4824 23.5641 26.3052 23.4544 26.2208 23.2687C26.1196 23.024 26.2377 22.7371 26.4824 22.6358C28.9382 21.6147 30.5923 18.8888 30.5923 15.8507C30.5923 11.8759 27.8158 8.63523 24.4064 8.63523C20.997 8.63523 18.2121 11.8674 18.2121 15.8507C18.2121 18.8804 19.8661 21.6062 22.3219 22.6358C22.5667 22.7371 22.6848 23.024 22.5836 23.2687C22.4823 23.5135 22.1954 23.6316 21.9506 23.5304C19.1404 22.3573 17.25 19.277 17.25 15.8592C17.25 11.3526 20.4569 7.68161 24.4064 7.68161C28.3559 7.68161 31.5628 11.3526 31.5628 15.8592C31.5628 19.277 29.6725 22.3573 26.8622 23.5304C26.8031 23.5557 26.7356 23.5641 26.6765 23.5641H26.6681Z" fill="black"/>
<path d="M37.9256 67.9456C34.6006 66.7895 17.8488 59.1436 16.3129 58.4431C5.86523 58.1477 5.86523 57.0844 5.86523 56.6287C5.86523 54.9746 7.8822 54.5611 9.83164 54.1645C10.8865 53.9535 11.9752 53.7256 12.6419 53.3374C13.2073 52.9999 13.6546 52.6285 14.085 52.2741C15.047 51.4724 15.9585 50.7213 17.6463 51.0251C18.9713 51.2698 19.7223 53.0843 19.984 53.8185C21.3933 54.1223 28.018 55.5232 33.2756 56.5106C38.3054 57.4557 39.2843 59.0761 39.8751 60.0466C39.9932 60.2322 40.0861 60.401 40.1873 60.5023C40.373 60.6879 40.373 60.9917 40.1873 61.1858C40.0017 61.3799 39.6978 61.3715 39.5037 61.1858C39.3181 61.0002 39.1915 60.7808 39.048 60.5529C38.5079 59.6668 37.7062 58.3334 33.0984 57.4642C27.2079 56.3586 19.5958 54.7299 19.5198 54.713C19.3426 54.6793 19.2076 54.5442 19.1569 54.3754C18.9881 53.8016 18.3214 52.1391 17.486 51.9787C16.237 51.7509 15.6293 52.2572 14.7179 53.0167C14.2791 53.3796 13.7812 53.7931 13.1482 54.1645C12.3465 54.6455 11.1735 54.8818 10.0426 55.1096C8.54889 55.4135 7.01296 55.7257 6.85262 56.5021C7.68809 56.9663 12.3803 57.3713 16.4479 57.4811C16.507 57.4811 16.5745 57.4979 16.6336 57.5233C16.8193 57.6076 34.8791 65.8612 38.2547 67.0342C41.5629 68.1819 45.8162 69.0933 47.31 66.9329C48.8375 64.7134 48.5674 61.8272 46.6517 59.9115C44.6263 57.8861 42.5165 57.2448 42.4997 57.2448C42.2465 57.1688 42.0946 56.8987 42.1705 56.6456C42.2465 56.3924 42.5165 56.2489 42.7697 56.3164C42.8625 56.3418 45.1327 57.0338 47.3353 59.228C49.5885 61.4812 49.9008 64.8738 48.1033 67.473C46.1538 70.3001 41.1916 69.068 37.9425 67.9372L37.9256 67.9456Z" fill="black"/>
<path d="M39.1326 56.2068C39.0989 55.9452 39.2846 55.7004 39.5546 55.6751C39.5546 55.6751 39.7403 55.6414 39.7993 55.5232C39.8668 55.4051 39.8331 55.1772 39.7234 54.8987C39.4027 54.1223 36.2549 53.7679 34.2295 53.8607C33.4868 53.9029 32.8033 53.4387 32.0859 52.9493C31.5036 52.5526 30.9045 52.1475 30.1703 51.9112C28.9044 51.5062 28.263 53.1434 28.2377 53.2109C28.1449 53.464 27.8664 53.5822 27.6132 53.4894C27.3684 53.3965 27.2419 53.118 27.3347 52.8649C27.6723 51.9787 28.7609 50.4428 30.4656 50.9914C31.3349 51.2699 32.0184 51.7425 32.626 52.156C33.2252 52.561 33.7653 52.9071 34.1789 52.8986C34.2379 52.8986 39.8247 52.6623 40.6011 54.5274C40.8458 55.1181 40.8542 55.616 40.6264 56.0127C40.3226 56.5443 39.7234 56.6287 39.6643 56.6372C39.3774 56.6625 39.158 56.4599 39.1326 56.2152V56.2068Z" fill="black"/>
<path d="M1.08872 65.6839C-0.126524 63.321 -0.0843278 59.8609 3.69642 57.2195C3.91584 57.0676 4.21965 57.1182 4.36311 57.3376C4.51502 57.557 4.46438 57.8524 4.24496 58.0127C0.979007 60.2913 0.911494 63.245 1.94107 65.2451C3.02972 67.3633 7.18179 67.8444 9.89076 66.8317C12.8614 65.7261 20.8954 62.3252 20.9714 62.283C21.2161 62.1732 21.4946 62.2914 21.6043 62.5361C21.7056 62.7809 21.5959 63.0678 21.3511 63.1691C21.2752 63.2028 13.2158 66.6207 10.2283 67.7262C7.0974 68.8908 2.41366 68.2579 1.08872 65.6755V65.6839Z" fill="black"/>
<path d="M31.0395 49.0335L30.9973 48.9069C30.9129 48.6537 31.0479 48.3837 31.3011 48.2993C31.5458 48.2149 31.8243 48.3499 31.9087 48.6031L31.9509 48.7297C32.0353 48.9829 31.9003 49.2529 31.6471 49.3373C31.4024 49.4217 31.1239 49.2867 31.0395 49.0335Z" fill="black"/>
<path d="M16.8697 49.4048C16.6165 49.3373 16.4646 49.0672 16.5322 48.814L16.6419 48.4258C16.7094 48.1727 16.9794 48.0208 17.2326 48.0883C17.4858 48.1558 17.6377 48.4259 17.5702 48.679L17.4605 49.0672C17.3929 49.3288 17.1229 49.4723 16.8697 49.4048Z" fill="black"/>
<path d="M9.13957 46.1641C7.12261 46.1641 5.81454 45.6662 5.24911 44.6873C4.57398 43.5142 4.97906 41.6407 6.44748 39.1259C6.75129 38.6111 7.03822 38.1047 7.32515 37.6237C10.3126 32.4674 12.549 28.425 17.756 27.3617C19.3341 27.041 21.9755 26.5009 21.9755 23.083C21.9755 22.9902 22.0431 22.9227 22.1359 22.9227C22.2287 22.9227 22.2962 22.9902 22.2962 23.083C22.2962 26.7625 19.3847 27.3617 17.8235 27.6824C12.7347 28.7204 10.6333 32.5602 7.60364 37.784C7.32515 38.2735 7.02978 38.7714 6.72597 39.2946C5.31663 41.7082 4.91155 43.4636 5.52761 44.5354C6.02552 45.413 7.24076 45.8519 9.13957 45.8519C11.6629 45.8519 21.1738 45.7675 21.2751 45.7675C21.3173 45.7675 22.7519 45.5649 22.7519 42.7378V37.2017C22.0852 37.6574 20.2708 39.1765 20.2708 42.0458C20.2708 42.0965 20.254 42.1387 20.2118 42.164C20.178 42.1977 20.1358 42.2062 20.0852 42.2062C20.0261 42.2062 13.8317 41.396 10.5827 42.0121C10.5152 42.0205 10.4561 41.9952 10.4139 41.9445C10.3801 41.8939 10.3801 41.818 10.4139 41.7673C10.4561 41.7083 14.5153 36.0034 15.1736 34.4421C15.1989 34.383 15.2748 34.3324 15.3339 34.3409C15.4014 34.3409 15.4605 34.3999 15.4774 34.4674L16.4901 38.6786C16.5154 38.763 16.4563 38.8474 16.3719 38.8727C16.2875 38.8896 16.2031 38.8389 16.1778 38.7545L15.2664 34.9822C14.3719 36.6869 11.6966 40.5099 10.8949 41.6407C13.933 41.1935 18.929 41.7504 19.9333 41.877C20.0261 38.3157 22.7857 36.7967 22.8195 36.7798C22.8701 36.7545 22.9292 36.7545 22.9798 36.7798C23.0304 36.8135 23.0558 36.8642 23.0558 36.9148V42.7378C23.0558 45.8688 21.351 46.0797 21.2751 46.0882C21.1654 46.0882 11.646 46.1726 9.12269 46.1726L9.13957 46.1641Z" fill="black"/>
<path d="M39.6811 46.1641C37.1578 46.1641 27.6384 46.0797 27.5456 46.0797C27.4612 46.0713 25.748 45.8603 25.748 42.7294V36.9064C25.748 36.8473 25.7818 36.7967 25.824 36.7713C25.8746 36.746 25.9337 36.746 25.9843 36.7713C26.0181 36.7882 28.7777 38.3073 28.8705 41.8686C29.8748 41.742 34.8792 41.185 37.9089 41.6323C37.1072 40.493 34.4151 36.6532 33.529 34.9569L32.5163 38.7545C32.4909 38.8389 32.4065 38.8896 32.3137 38.8642C32.2293 38.8389 32.1787 38.7545 32.204 38.6702L33.3349 34.4506C33.3517 34.3831 33.4108 34.3324 33.4783 34.3324C33.5543 34.3324 33.6134 34.3662 33.6387 34.4337C34.2969 35.9949 38.3562 41.6998 38.3984 41.7589C38.4406 41.8095 38.4406 41.8855 38.3984 41.9361C38.3646 41.9952 38.2971 42.0205 38.2296 42.0036C34.9889 41.3876 28.7946 42.1893 28.7271 42.1977C28.6849 42.1977 28.6342 42.1977 28.6005 42.1555C28.5667 42.1218 28.5414 42.0796 28.5414 42.0374C28.5414 39.1681 26.7185 37.649 26.0603 37.1933V42.7294C26.0603 45.5565 27.4865 45.7506 27.554 45.759C27.63 45.759 37.1494 45.8434 39.6727 45.8434C41.563 45.8434 42.7783 45.4046 43.2762 44.5269C43.8923 43.4636 43.4872 41.6998 42.0778 39.2862C41.774 38.763 41.4871 38.2651 41.2002 37.7756C38.0692 32.3577 36.0523 28.771 31.031 27.6824C29.4528 27.3364 26.5076 26.7034 26.5076 23.083C26.5076 22.9902 26.5835 22.9227 26.6679 22.9227C26.7523 22.9227 26.8283 22.9902 26.8283 23.083C26.8283 26.4418 29.6047 27.041 31.0985 27.3701C36.2548 28.4841 38.4068 32.2986 41.4787 37.6153C41.7656 38.1047 42.0525 38.6111 42.3563 39.1259C43.8501 41.6745 44.2383 43.4973 43.5547 44.6873C42.9893 45.6662 41.6812 46.1641 39.6727 46.1641H39.6811Z" fill="black"/>
<path d="M26.6675 23.2434C26.6084 23.2434 26.5409 23.2097 26.5156 23.1422C26.4819 23.0578 26.5156 22.9649 26.6 22.9312C29.174 21.8594 30.904 19.0154 30.904 15.8507C30.904 11.6987 27.984 8.31456 24.3974 8.31456C20.8107 8.31456 17.8823 11.6902 17.8823 15.8507C17.8823 19.007 19.6124 21.851 22.1863 22.9312C22.2707 22.9649 22.3045 23.0578 22.2707 23.1422C22.237 23.2266 22.1441 23.2688 22.0597 23.2266C19.3676 22.1042 17.5532 19.142 17.5532 15.8507C17.5532 11.5214 20.6166 7.99387 24.3889 7.99387C28.1613 7.99387 31.2162 11.5214 31.2162 15.8507C31.2162 19.142 29.4102 22.1042 26.7097 23.2266C26.6928 23.235 26.6675 23.235 26.6506 23.235L26.6675 23.2434Z" fill="black"/>
<path d="M38.0275 67.6418C34.694 66.4857 17.225 58.5022 16.381 58.1225C13.2923 58.0381 6.18652 57.7174 6.18652 56.6287C6.18652 55.2363 8.0769 54.8481 9.89976 54.4767C10.98 54.2573 12.0939 54.0295 12.8028 53.6075C13.3936 53.2615 13.8493 52.8817 14.2881 52.5104C15.2249 51.7256 16.0519 51.0589 17.5794 51.3374C18.8453 51.5737 19.571 53.6159 19.7229 54.0885C20.6091 54.2742 27.6642 55.7764 33.2003 56.8144C38.095 57.7343 39.0233 59.2786 39.5887 60.1985C39.7153 60.4095 39.825 60.5867 39.9516 60.7133C40.0107 60.7724 40.0191 60.8736 39.9516 60.9411C39.8841 61.0087 39.7828 61.0002 39.7238 60.9411C39.5719 60.7892 39.4537 60.5951 39.3187 60.3673C38.787 59.4896 37.9009 58.0296 33.1497 57.1351C27.2591 56.0295 19.6554 54.4008 19.5795 54.3839C19.5204 54.3755 19.4782 54.3248 19.4613 54.2742C19.4613 54.2489 18.7524 51.8775 17.5372 51.6581C16.1447 51.4049 15.4612 51.9703 14.4991 52.7636C14.0687 53.118 13.5792 53.5231 12.9716 53.886C12.2121 54.3333 11.0728 54.5696 9.96727 54.7974C8.18661 55.1603 6.50721 55.5063 6.50721 56.6372C6.50721 57.1266 11.0475 57.6583 16.4232 57.8102C16.4485 57.8102 16.4654 57.8102 16.4823 57.8271C16.6595 57.9115 34.7447 66.1734 38.1288 67.3465C43.091 69.0681 46.2641 68.9921 47.5553 67.1271C49.1756 64.781 48.8887 61.726 46.8633 59.7006C44.7788 57.6161 42.5931 56.9578 42.5762 56.9494C42.4918 56.9241 42.4412 56.8313 42.4665 56.7469C42.4918 56.6625 42.5846 56.6118 42.669 56.6372C42.7619 56.6625 44.956 57.3292 47.0996 59.4643C49.2347 61.6078 49.5385 64.8316 47.8254 67.3043C45.9772 69.9795 41.0825 68.7052 38.0359 67.6418H38.0275Z" fill="black"/>
<path d="M39.4444 56.1646C39.4359 56.0802 39.495 55.9958 39.5794 55.9873C39.5794 55.9873 39.917 55.9451 40.0689 55.6751C40.1955 55.4641 40.1701 55.1603 40.0098 54.7637C39.5372 53.6412 35.5961 53.4556 34.2121 53.5231C33.5623 53.5484 32.9631 53.1433 32.2711 52.6707C31.6972 52.2825 31.0558 51.8437 30.2794 51.5905C28.7266 51.0926 27.9755 52.9999 27.9502 53.0843C27.9165 53.1687 27.8236 53.2109 27.7393 53.1771C27.6549 53.1433 27.6127 53.0505 27.6464 52.9661C27.6549 52.9408 28.541 50.6875 30.3807 51.2783C31.1993 51.5399 31.866 51.9956 32.4567 52.4007C33.0981 52.8395 33.6467 53.2193 34.2036 53.194C34.2627 53.194 39.6469 53.0167 40.3136 54.6286C40.5161 55.1181 40.533 55.5232 40.3558 55.827C40.1195 56.2236 39.6469 56.2911 39.63 56.2911C39.5372 56.2996 39.4613 56.2321 39.4528 56.1477L39.4444 56.1646Z" fill="black"/>
<path d="M1.37577 65.532C0.219608 63.2957 0.270242 59.9959 3.88221 57.4811C3.94972 57.4304 4.05943 57.4473 4.10162 57.5233C4.15226 57.5992 4.13538 57.7005 4.05943 57.7511C0.624688 60.1478 0.565614 63.2703 1.66271 65.3886C2.84419 67.684 7.12285 68.2072 10.009 67.1355C12.9796 66.0299 21.0222 62.6205 21.1065 62.5868C21.1825 62.553 21.2838 62.5868 21.3175 62.6712C21.3513 62.7555 21.3175 62.8484 21.2331 62.8821C21.1572 62.9159 13.1062 66.3253 10.1272 67.4393C7.11441 68.5617 2.63321 67.9794 1.38421 65.5405L1.37577 65.532Z" fill="black"/>
<path d="M31.3438 48.9322L31.3016 48.8056C31.2678 48.7212 31.3185 48.6284 31.4029 48.6031C31.4873 48.5778 31.5801 48.62 31.6054 48.7044L31.6476 48.831C31.6814 48.9153 31.6307 49.0082 31.5463 49.0335C31.4619 49.0588 31.3691 49.0166 31.3438 48.9322Z" fill="black"/>
<path d="M16.9541 49.0925C16.8697 49.0672 16.8191 48.9828 16.8444 48.89L16.9541 48.5018C16.9795 48.4174 17.0638 48.3668 17.1482 48.3921C17.2326 48.4174 17.2833 48.5018 17.258 48.5946L17.1482 48.9828C17.1229 49.0672 17.0385 49.1178 16.9541 49.0925Z" fill="black"/>
<path d="M36.8122 23.7582L35.0906 22.7708C34.7024 22.5514 34.5758 22.0619 34.7952 21.6737C35.0146 21.294 35.5041 21.1589 35.8923 21.3784L37.6139 22.3657C38.0021 22.5851 38.1287 23.0746 37.9093 23.4628C37.6899 23.8426 37.2004 23.9861 36.8122 23.7582ZM10.9039 23.4628C10.6845 23.0746 10.8196 22.5851 11.1993 22.3657L12.9209 21.3784C13.3091 21.1589 13.7986 21.294 14.018 21.6737C14.2374 22.0619 14.1024 22.5514 13.7226 22.7708L12.001 23.7582C11.6128 23.9776 11.1234 23.8426 10.9039 23.4628ZM39.2005 16.4668H37.2173C36.77 16.4668 36.4155 16.1039 36.4155 15.665C36.4155 15.2262 36.7784 14.8633 37.2173 14.8633H39.2005C39.6393 14.8633 40.0022 15.2262 40.0022 15.665C40.0022 16.1039 39.6393 16.4668 39.2005 16.4668ZM11.596 16.4668H9.61276C9.17392 16.4668 8.81104 16.1039 8.81104 15.665C8.81104 15.2262 9.17392 14.8633 9.61276 14.8633H11.596C12.0432 14.8633 12.3977 15.2262 12.3977 15.665C12.3977 16.1039 12.0348 16.4668 11.596 16.4668ZM34.7952 9.65635C34.5758 9.26815 34.7108 8.77867 35.0906 8.55926L36.8122 7.57188C37.2004 7.35246 37.6899 7.47905 37.9093 7.86725C38.1287 8.25545 37.9937 8.74491 37.6139 8.96433L35.8923 9.95173C35.5041 10.1711 35.0146 10.0361 34.7952 9.65635ZM12.9209 9.95173L11.1993 8.96433C10.8111 8.74491 10.6845 8.25545 10.9039 7.86725C11.1234 7.47905 11.6128 7.35246 12.001 7.57188L13.7226 8.55926C14.1108 8.77867 14.2374 9.26815 14.018 9.65635C13.7986 10.0361 13.3091 10.1796 12.9209 9.95173ZM30.4069 5.26799C30.0187 5.04857 29.8921 4.55909 30.1115 4.17089L31.1073 2.44931C31.3352 2.06111 31.8162 1.93451 32.2044 2.15393C32.5842 2.37335 32.7192 2.87126 32.4998 3.25103L31.504 4.97261C31.2761 5.36081 30.7866 5.48741 30.4069 5.26799ZM17.3177 4.97261L16.3219 3.25103C16.1025 2.87126 16.2291 2.37335 16.6173 2.15393C17.0055 1.93451 17.4949 2.06111 17.7144 2.44931L18.7102 4.17089C18.9296 4.55066 18.803 5.04857 18.4148 5.26799C18.035 5.48741 17.5456 5.36081 17.3177 4.97261ZM24.4151 3.64767C23.9678 3.64767 23.6133 3.28477 23.6133 2.84594V0.871176C23.6133 0.4239 23.9762 0.069458 24.4151 0.069458C24.8539 0.069458 25.2168 0.43234 25.2168 0.871176V2.84594C25.2168 3.29321 24.8539 3.64767 24.4151 3.64767Z" fill="black"/>
<path d="M24.4063 3.33542C24.1363 3.33542 23.9253 3.116 23.9253 2.85439V0.879629C23.9253 0.609575 24.1447 0.39859 24.4063 0.39859C24.6679 0.39859 24.8874 0.618015 24.8874 0.879629V2.85439C24.8874 3.12444 24.6679 3.33542 24.4063 3.33542Z" fill="black"/>
<path d="M17.5878 4.82066L16.592 3.09907C16.4569 2.87121 16.5329 2.57584 16.7692 2.44081C16.997 2.30578 17.2924 2.38174 17.4274 2.61804L18.4233 4.33962C18.5583 4.56748 18.4823 4.86285 18.246 4.99788C18.0182 5.1329 17.7228 5.05696 17.5878 4.82066Z" fill="black"/>
<path d="M36.9723 23.4797L35.2507 22.4923C35.0229 22.3573 34.9385 22.0619 35.0735 21.834C35.2085 21.5977 35.5039 21.5218 35.7318 21.6568L37.4534 22.6442C37.6812 22.7792 37.7656 23.0746 37.6306 23.3025C37.4956 23.5387 37.2002 23.6147 36.9723 23.4797Z" fill="black"/>
<path d="M13.0807 9.67322L11.3591 8.68584C11.1313 8.55081 11.0469 8.25544 11.1819 8.02759C11.3169 7.79129 11.6123 7.71533 11.8402 7.85036L13.5618 8.83774C13.7896 8.97276 13.874 9.26813 13.739 9.49599C13.604 9.73229 13.3086 9.80825 13.0807 9.67322Z" fill="black"/>
<path d="M39.1996 16.146H37.2164C36.9463 16.146 36.7354 15.9266 36.7354 15.665C36.7354 15.4034 36.9548 15.184 37.2164 15.184H39.1996C39.4696 15.184 39.6806 15.4034 39.6806 15.665C39.6806 15.9266 39.4612 16.146 39.1996 16.146Z" fill="black"/>
<path d="M11.5956 16.146H9.61238C9.34233 16.146 9.13135 15.9266 9.13135 15.665C9.13135 15.4034 9.35077 15.184 9.61238 15.184H11.5956C11.8656 15.184 12.0766 15.4034 12.0766 15.665C12.0766 15.9266 11.8572 16.146 11.5956 16.146Z" fill="black"/>
<path d="M35.0735 9.49601C34.9385 9.26815 35.0229 8.97278 35.2507 8.83775L36.9723 7.85037C37.2002 7.71535 37.4956 7.79974 37.6306 8.0276C37.7656 8.25546 37.6812 8.55083 37.4534 8.68586L35.7318 9.67324C35.5039 9.79982 35.2085 9.73231 35.0735 9.49601Z" fill="black"/>
<path d="M11.1819 23.3025C11.0469 23.0746 11.1313 22.7792 11.3591 22.6442L13.0807 21.6568C13.3086 21.5218 13.604 21.6062 13.739 21.834C13.874 22.0619 13.7896 22.3573 13.5618 22.4923L11.8402 23.4797C11.6123 23.6147 11.3169 23.5388 11.1819 23.3025Z" fill="black"/>
<path d="M30.5667 4.99788C30.3388 4.86285 30.2544 4.56748 30.3894 4.33962L31.3853 2.61804C31.5203 2.38174 31.8157 2.30578 32.0435 2.44081C32.2714 2.57584 32.3558 2.87121 32.2207 3.09907L31.2249 4.82066C31.0899 5.05696 30.7945 5.12446 30.5667 4.99788Z" fill="black"/>
<path d="M24.4064 3.01472C24.3136 3.01472 24.2461 2.94721 24.2461 2.85438V0.879615C24.2461 0.786784 24.3136 0.719269 24.4064 0.719269C24.4993 0.719269 24.5668 0.786784 24.5668 0.879615V2.85438C24.5668 2.94721 24.4908 3.01472 24.4064 3.01472Z" fill="black"/>
<path d="M17.8658 4.66037L16.8699 2.93877C16.8277 2.86282 16.8531 2.76156 16.929 2.71936C17.005 2.67717 17.1062 2.70249 17.1484 2.77844L18.1443 4.50003C18.1864 4.57598 18.1611 4.67724 18.0852 4.71944C18.0092 4.76163 17.908 4.73632 17.8658 4.66037Z" fill="black"/>
<path d="M37.1325 23.2012L35.4109 22.2138C35.335 22.1716 35.3097 22.0703 35.3519 21.9944C35.3941 21.9184 35.4953 21.8931 35.5713 21.9353L37.2929 22.9227C37.3688 22.9649 37.3941 23.0661 37.352 23.1421C37.3098 23.2181 37.2085 23.2434 37.1325 23.2012Z" fill="black"/>
<path d="M13.2326 9.39472L11.511 8.40734C11.4351 8.36515 11.4098 8.26387 11.452 8.18792C11.4942 8.11196 11.5954 8.08665 11.6714 8.12885L13.393 9.11623C13.4689 9.15843 13.4942 9.25969 13.452 9.33564C13.4099 9.4116 13.3086 9.43692 13.2326 9.39472Z" fill="black"/>
<path d="M39.2002 15.8254H37.217C37.1242 15.8254 37.0566 15.7494 37.0566 15.665C37.0566 15.5806 37.1242 15.5047 37.217 15.5047H39.2002C39.2846 15.5047 39.3605 15.5722 39.3605 15.665C39.3605 15.7578 39.2846 15.8254 39.2002 15.8254Z" fill="black"/>
<path d="M11.5952 15.8254H9.612C9.52761 15.8254 9.45166 15.7494 9.45166 15.665C9.45166 15.5806 9.52761 15.5047 9.612 15.5047H11.5952C11.688 15.5047 11.7556 15.5722 11.7556 15.665C11.7556 15.7578 11.688 15.8254 11.5952 15.8254Z" fill="black"/>
<path d="M35.3519 9.33564C35.3097 9.25969 35.335 9.15843 35.4109 9.11623L37.1325 8.12885C37.2085 8.08665 37.3098 8.11196 37.352 8.18792C37.3941 8.26387 37.3688 8.36515 37.2929 8.40734L35.5713 9.39472C35.4953 9.43692 35.3941 9.4116 35.3519 9.33564Z" fill="black"/>
<path d="M11.4603 23.1421C11.4181 23.0661 11.4434 22.9649 11.5193 22.9227L13.2409 21.9353C13.3169 21.8931 13.4182 21.9184 13.4604 21.9944C13.5025 22.0703 13.4772 22.1716 13.4013 22.2138L11.6797 23.2012C11.6037 23.2434 11.5025 23.2181 11.4603 23.1421Z" fill="black"/>
<path d="M30.7274 4.71944C30.6514 4.67724 30.6261 4.57598 30.6683 4.50003L31.6641 2.77844C31.7063 2.70249 31.8076 2.67717 31.8835 2.71936C31.9595 2.76156 31.9848 2.86282 31.9426 2.93877L30.9468 4.66037C30.9046 4.73632 30.8033 4.76163 30.7274 4.71944Z" fill="black"/>
</svg>
