<?xml version="1.0" encoding="UTF-8"?>
<svg id="Layer_1" data-name="Layer 1" xmlns="http://www.w3.org/2000/svg" viewBox="0 0 139.04 151.96">
  <defs>
    <style>
      .cls-1 {
        fill-rule: evenodd;
      }

      .cls-1, .cls-2 {
        fill: #010101;
        stroke-width: 0px;
      }
    </style>
  </defs>
  <path class="cls-2" d="m41.52,52.09c-.62-1.44-2.99-2.63-5.08-3.67-.09-.05-.18-.09-.26-.14-.77,1.08-1.49,2.21-2.17,3.38-2.58,4.5-4.22,9.28-5,14.12,2.99-2.06,7.85-5.1,14.11-7.99-.48-2.48-1.08-4.5-1.6-5.7m31.13-6.49c-.82,1.9-1.39,3.57-1.72,5.08,14.25,0,29.17,5.38,39.33,10.42-2.71-9.64-8.88-18.31-17.96-24-7.56,1.23-17.3,3.03-19.66,8.49m-30.19,31.22c1.57-4.83,1.73-10.14,1.29-14.68-8.51,4.08-14.15,8.32-15.25,9.18-.23,9.17,2.59,18.22,8.03,25.67.74-5.2,2.51-10.28,4.26-15.26.57-1.61,1.15-3.28,1.68-4.9m15.37-24.39c.61-.16,1.22-.32,1.84-.47,2.28-.56,4.63-.91,7.01-1.1.34-2.08,1.03-4.35,2.14-6.9,2.61-6.04,9.99-8.51,17.4-9.99-8.02-3.37-16.64-4.04-24.73-2.32-1.18,2.8-2.32,6.01-3.13,9.49-.54,2.28-.74,6.29-.53,11.3m15.94,15.46c-4.17-4.36-6.8-8.16-7.25-12.83-2.01.18-3.97.48-5.86.95-.88.21-1.74.44-2.58.68,1.43,18.56,7.64,46.42,21.15,56.37,9.25-2.07,17.77-7.28,23.86-15.15-4.41-6.67-15.34-16.82-21.83-22.86-3.12-2.9-5.82-5.41-7.49-7.16m-16.64,10.57c-1.62-7.11-2.65-14.23-3.17-20.5-2.18.74-4.27,1.54-6.24,2.37.67,5.34.63,11.82-1.32,17.78-.54,1.67-1.13,3.36-1.7,5-2.2,6.29-4.31,12.33-4.38,18.39,2.63,2.7,5.67,5.08,9.1,7.05,7.68,4.4,16.17,6.08,24.37,5.35-8.96-8.65-13.96-23.57-16.67-35.44m-3.44-24.8c-.28-5.87-.05-10.67.61-13.49.59-2.53,1.34-4.92,2.14-7.12-6.69,2.33-12.81,6.35-17.65,11.89,2.61,1.31,5.41,2.84,6.55,5.51.54,1.27,1.16,3.24,1.67,5.65,2.1-.86,4.33-1.69,6.67-2.44m23.1,11.35c1.59,1.66,4.24,4.13,7.31,6.98,9.08,8.43,17.1,16.13,21.52,22.27.23-.38.47-.76.69-1.15,4.83-8.42,6.38-17.83,5.07-26.74-10.41-5.65-26.35-11.51-40.7-11.49.41,3.43,2.48,6.34,6.11,10.13"/>
  <path class="cls-2" d="m23.49,51.66c-1.72,0-3.12,1.4-3.12,3.12v28.97c0,1.73,1.39,3.12,3.12,3.12s3.12-1.39,3.12-3.12v-28.97c0-1.72-1.4-3.12-3.12-3.12"/>
  <path class="cls-2" d="m132.13,51.39s0-.1,0-.15h-4.13c-2.7-13.62-9.34-26.02-18.94-35.25C98.33,5.68,84.59,0,70.35,0s-27.8,5.61-38.5,15.79c-9.71,9.24-16.43,21.73-19.15,35.45h-4.55c0,.05,0,.11,0,.16-3.61,1.08-6.24,4.52-6.24,8.6v17.94c0,4.95,3.88,8.97,8.67,8.97h6.87v-31.46l.23.04C21.95,26.59,44.1,5.63,70.35,5.63s47.9,20.86,52.5,48.79v32.48h6.87c4.78,0,8.67-4.02,8.67-8.97v-17.94c0-4.09-2.65-7.53-6.26-8.61"/>
  <path class="cls-2" d="m116.81,51.66c-1.72,0-3.12,1.4-3.12,3.12v28.97c0,1.73,1.4,3.12,3.12,3.12s3.12-1.39,3.12-3.12v-28.97c0-1.72-1.39-3.12-3.12-3.12"/>
  <path class="cls-1" d="m66.88,122.66c.02-1.93.55-3.74,1.58-5.39.1-.16.35-.28.55-.31.85-.12,1.28.7,1.14,1.75-.3,2.36,1.79,2.45,1.66-1-.04-.93.44-1.95-.36-2.8-.05-.06-.07-.24-.02-.28.59-.48,1.3-.83,2.23-.79.62.02-21.87-12.48-27.91-10.23-.25.09-7.49-4.54-3.41-.21,4.07,4.33,3.09,8.72,8.34,8.72.18,0,.53.29.52.39-.12.66-.31,1.32-.53,2.16,0,.3.08.85-.02,1.35-.44,2.43-.79,4.86-.43,7.34.15,1.03.43,2,1.01,2.9.31.48.69.37,1.04.33.24-.03.58-.25.65-.47.27-.78.47-1.58.64-2.39.54-2.63.33-5.28.15-7.93-.06-.85-.1-1.7-.16-2.54-.05-.71.53-.77.95-.78.41-.02,1.1.13,1.19.37.27.76.49,1.62.39,2.39-.29,2.42-.59,4.83-1.1,7.23-.56,2.63-.58,5.38-.83,8.08-.11,1.16-.18,2.33-.3,3.49-.08.79-.28,1.57-.28,2.36,0,.86.21,1.71.26,2.57.03.54.13,1.06.64,1.22.57.19,1.12-.04,1.49-.56.53-.75.66-1.61.83-2.49.2-1.08.16-2.1-.01-3.15-.13-.83-.4-1.68-.32-2.5.16-1.71.54-3.39.29-5.15-.16-1.14-.11-2.33,0-3.49.07-.84.37-1.66.57-2.49.11,0,.21,0,.32,0,.1.22.24.43.28.67.22,1.11.44,2.22.6,3.34.14.99.42,2.01.27,2.95-.29,1.88.07,3.69.47,5.46.22.97.55,1.91.48,2.9-.1,1.54-.24,3.07-.45,4.6-.29,2.08-.71,4.14-.98,6.21-.18,1.39-.61,2.78-.22,4.21.13.5.23,1.09.86,1.17.63.08,1.4.27,1.67-.63.26-.84.51-1.69.63-2.55.11-.77.05-1.57.04-2.36-.04-1.38-.21-2.76-.13-4.13.1-1.83.46-3.64.55-5.47.1-2.11.02-4.24.02-6.36,0-.25-.04-.52.02-.75.44-1.67.66-3.37.57-5.09-.01-.29-.1-.58-.17-.86-.08-.33-.24-.65-.26-.97-.05-.83.12-1.7-.07-2.48-.48-1.97.43-3.79.47-5.7,0-.26.51-.72.81-.73.68-.02,1.51-.39,2.01.4.61.97.76,2.24.42,3.14-.67,1.8-.3,3.53-.25,5.3.02.95,1.61.95,1.62,0"/>
  <path class="cls-1" d="m14.28,81.37c-.35,1.38-2.46,1.81-2.95.37.1.88.29,1.75.48,2.61.22.97.55,1.91.48,2.9-.1,1.54-.24,3.07-.45,4.6-.29,2.08-.71,4.14-.98,6.22-.18,1.39-.61,2.78-.22,4.21.13.5.22,1.09.86,1.17.63.07,1.4.26,1.67-.63.25-.84.5-1.69.63-2.55.11-.77.05-1.57.04-2.36-.04-1.38-.21-2.76-.13-4.13.1-1.83.46-3.64.55-5.47.1-2.12.02-4.24.02-6.35,0-.19,0-.38,0-.57"/>
  <path class="cls-1" d="m35.7,96.54s.06,0,.09,0c-.01-1.24.06-2.47.2-3.71-.14-.34-.31-.68-.5-1.03-.35-.64-.71-1.28-1.06-1.92-.24.1-.49.18-.73.29l-.27,8.58c-.45,2.66-.35,5.4-.49,8.1-.06,1.17-.08,2.33-.15,3.5-.05.79-.21,1.58-.18,2.37.04.85.29,1.7.37,2.56.05.54.17,1.05.69,1.2.58.17,1.11-.08,1.47-.62.49-.77.59-1.63.72-2.52.16-1.08.07-2.11-.14-3.14-.17-.83-.47-1.66-.43-2.48.09-1.72.41-3.42.08-5.16-.21-1.13-.2-2.33-.15-3.48.04-.84.3-1.67.46-2.52"/>
  <path class="cls-1" d="m93.21,109.1c.59-.47,2-4.16,2.92-4.12.41.01-9.85-2.05-18.17-5.11,1.45,4.13,6.62,8.41,6.91,8.4.68-.02,1.52-.38,2.01.4.61.97.77,2.24.43,3.14-.67,1.8-.31,3.53-.25,5.3.03.95,1.61.95,1.61,0,.02-1.93.55-3.74,1.58-5.39.1-.16.35-.29.55-.31.85-.12,1.28.7,1.15,1.75-.31,2.36,1.79,2.45,1.66-1-.04-.93.44-1.95-.36-2.8-.05-.06-.07-.24-.02-.28"/>
  <path class="cls-1" d="m138.96,73.92c-.12-.1-.48-.16-.48-.51,0-.23,0-.46,0-.68-1.16.47-2.37.85-3.52,1.22-2.76.88-6.1,1.65-7.44,4.56-1.03,2.23-2.06,4.52-3.03,6.77-.2.46-.43.95-.7,1.42h.66c-.06.69-.11,1.32-.18,1.94-.05.43-.18.86-.18,1.29,0,.5.07,1,.16,1.49.04.2.14.49.3.55.18.07.46-.02.65-.14.17-.1.3-.3.37-.48.34-.9.33-1.82.22-2.75-.07-.54-.09-1.09-.1-1.63,0-.09.16-.24.26-.25.3-.04.61-.02.89-.02.11.54.22,1.02.32,1.51.1.56.28,1.13.27,1.69-.01.72-.19,1.43-.3,2.15-.19,1.28-.41,2.57-.56,3.86-.07.61,0,1.23,0,1.85,0,.43.37.47.64.5.17.02.47-.13.54-.29.18-.35.33-.74.37-1.13.07-.61.06-1.23.06-1.85,0-.62-.1-1.25-.06-1.87.05-.89.24-1.78.28-2.67.05-1.11,0-2.22.01-3.33,0-.13.01-.26.02-.43h1.41c.02.49.31.84.65,1.17.24.23.46.21.66-.08.27-.39.29-.83.22-1.28-.05-.35-.1-.7-.13-1.06-.02-.29.02-.59-.01-.88-.14-1.23-.14-2.46.26-3.65.11-.34.3-.66.48-.98.07-.11.19-.25.3-.27.49-.1.71.17.65.81-.09.93-.3,1.84-.38,2.77-.08.86-.08,1.73-.08,2.6,0,.33.36.52.62.32.19-.15.36-.4.4-.64.1-.58.15-1.18.17-1.78.04-1.22.06-2.43.09-3.64.01-.38.18-.82.05-1.14-.16-.4-.16-.67.11-.98.02-.02,0-.08,0-.12.02-.21.02-.42.08-.62.09-.3.2-.59.33-.87.05-.11.2-.17.31-.25.08.12.17.22.22.35.04.11,0,.24.03.36.1.61.27,1.21.3,1.81.06.85.06,1.72,0,2.57-.06.92-.19,1.83-.31,2.74-.04.29-.06.64-.23.84-.29.36-.35.73-.23,1.11.2.67.15,1.32,0,1.99-.1.45-.28.91-.23,1.35.15,1.21.24,2.39-.02,3.59-.07.35-.11.71-.08,1.07.03.36.1.74.27,1.05.1.18.41.29.65.35.1.02.34-.16.36-.28.19-.81.44-1.62.48-2.44.06-1.09-.09-2.19-.07-3.28,0-.65.13-1.29.21-1.97.43.09.56.37.64.63.38,1.15.31,2.32.15,3.5-.09.63-.37,1.24-.05,1.89.1.19.1.44.08.66-.03.61-.12,1.21-.15,1.82,0,.22.2.48.13.66-.25.71-.09,1.43-.14,2.14-.02.16-.12.38-.05.49.19.31.05.58,0,.87-.02.13-.06.28-.03.39.17.54.37,1.06.55,1.59.07.22.17,1,.43.85.25-.13.52-.87.41-1.24-.06-.22-.1-.43-.11-.66-.04-.57-.07-1.14-.08-1.71-.04-1.14-.31-2.27-.08-3.41.04-.18.07-.36.11-.54.07-.36.27-.75.19-1.07-.19-.71-.16-1.37,0-2.07.11-.45.15-.91.18-1.37.07-1.11-.23-2.17-.44-3.24-.09-.46-.18-.93-.19-1.4,0-.48.1-.97.14-1.46.06-.82.12-1.64.16-2.46.06-1.18.1-2.37.17-3.55.01-.23.05-.49.16-.68.18-.28.21-.52,0-.76.15-.07.29-.12.27-.23-.01-.11.02-.54-.13-.75.12-.4-.17-.43.27-.75.33-.23.31-.57.11-.91-.05-.08-.07-.23-.03-.31.04-.06.21.14.3-.09.09-.23.12-.13,0-.23m-8.66,8.64c.01.38.04.75.06,1.13,0,.04,0,.09,0,.11-.54.7-.28,1.53-.39,2.29-.02.11-.1.34-.14.33v-5.77c-.36,0-.67-.02-.99,0-.33.03-.45-.11-.4-.42.07-.41.16-.82.23-1.23.03-.18.02-.36.05-.53.02-.12.05-.25.12-.34.31-.39.76-.24,1.12-.18.33.05.42.44.5.78.17.71-.15,1.36-.17,2.05-.01.59,0,1.18.01,1.77"/>
  <path class="cls-1" d="m102.88,99.56c.03-.48-.03-.96-.11-1.46-.83-.2-1.56-.33-2.04-.27-.05,0-.1.01-.15.02.04,1.54.08,3.08-.37,4.6-.15.53-.39,1.17-.23,1.62.29.81.51,1.59.43,2.46-.1,1.02-.2,2.04-.23,3.07-.01.38.25.78.24,1.15-.04.94-.17,1.87-.25,2.81-.05.61-.24,1.28-.07,1.83.16.52.1.93-.01,1.4-.06.28-.12.59-.04.85.29.94.62,1.86.95,2.78.13.38-.1,1.88.44,1.58.47-.26,1.36-1.58,1.06-2.29-.07-.17-.15-.35-.16-.53-.1-2-.2-3.99-.3-5.99-.01-.21-.08-.42-.08-.63-.02-.96-.13-1.93-.02-2.88.1-.92.44-1.81.66-2.71.04-.16.03-.35-.03-.49-.47-1.03-.25-2.09-.14-3.14.13-1.26.38-2.52.45-3.78"/>
  <path class="cls-1" d="m24.96,76.94c.03-.48-.04-.96-.11-1.46-.83-.21-1.56-.33-2.04-.28-.05,0-.1.01-.15.02.04,1.54.08,3.08-.37,4.6-.16.53-.4,1.17-.23,1.62.29.82.51,1.6.43,2.46-.1,1.02-.2,2.04-.23,3.07-.01.38.26.77.24,1.15-.04.94-.17,1.88-.25,2.81-.05.62-.24,1.28-.07,1.83.17.52.1.93,0,1.41-.06.28-.12.59-.04.85.28.94.62,1.86.95,2.78.14.38-.1,1.88.44,1.58.47-.26,1.36-1.59,1.06-2.29-.07-.17-.15-.35-.16-.53-.11-2-.2-3.99-.3-5.99-.01-.21-.08-.42-.08-.63-.02-.96-.13-1.93-.02-2.88.1-.91.44-1.81.66-2.71.04-.16.03-.35-.03-.49-.47-1.03-.25-2.09-.14-3.14.13-1.26.38-2.52.45-3.78"/>
  <path class="cls-1" d="m4.38,66.07c.03-.48-.04-.96-.11-1.46-.83-.2-1.56-.33-2.04-.28-.05,0-.1.01-.15.02.04,1.54.08,3.09-.37,4.6-.16.53-.4,1.17-.23,1.62.29.81.51,1.59.43,2.46-.1,1.02-.2,2.04-.23,3.07-.01.38.26.77.24,1.15-.04.94-.17,1.88-.25,2.81-.05.62-.25,1.28-.07,1.83.16.52.1.93,0,1.41-.06.28-.12.59-.04.85.29.94.62,1.86.95,2.78.14.38.46,1.03,1,.74.47-.26.8-.74.5-1.45-.07-.17-.15-.35-.16-.53-.11-2-.2-3.99-.3-5.99-.01-.21-.08-.42-.08-.63-.02-.96-.13-1.93-.02-2.88.1-.92.44-1.8.66-2.71.04-.16.03-.35-.03-.49-.47-1.03-.25-2.09-.14-3.14.13-1.26.38-2.52.45-3.78"/>
  <path class="cls-1" d="m98.58,98.12c-.83.1-1.67.15-2.44.03-.1-.01-.19-.03-.29-.05v.02c0,.33.08.66.08.99,0,1.34,0,2.67-.03,4-.03,1.06-.7,2.06-.35,3.17.21.65.12,1.4.72,1.93.65.57,1.35.52,1.59-.29.37-1.29.74-2.62.82-3.96.11-1.83-.08-3.67-.09-5.51,0-.13,0-.23-.01-.33"/>
  <path class="cls-1" d="m26.47,82.72c-.83.1-1.67.15-2.43.03-.1-.01-.2-.03-.29-.05v.02c0,.33.08.66.08.99,0,1.34,0,2.67-.03,4-.04,1.06-.7,2.05-.35,3.17.21.65.11,1.4.72,1.93.65.57,1.35.52,1.59-.3.38-1.29.74-2.62.82-3.96.11-1.83-.08-3.67-.1-5.51,0-.13,0-.23,0-.33"/>
  <path class="cls-1" d="m17.43,83.47c-.83.1-1.66.15-2.43.03-.1-.01-.2-.03-.29-.05v.02c0,.33.08.66.08.99,0,1.34,0,2.67-.03,4-.04,1.06-.7,2.05-.35,3.17.21.65.11,1.4.72,1.93.65.57,1.35.52,1.59-.29.38-1.29.75-2.62.82-3.96.11-1.83-.08-3.67-.1-5.51,0-.13,0-.23,0-.33"/>
  <path class="cls-1" d="m118.3,79.71c-.83.1-1.66.15-2.43.03-.1-.01-.2-.03-.29-.05v.02c0,.33.08.66.09.99,0,1.34,0,2.67-.03,4.01-.04,1.06-.7,2.05-.35,3.17.21.65.11,1.4.72,1.93.64.57,1.35.52,1.59-.3.38-1.29.75-2.62.82-3.96.11-1.83-.08-3.67-.09-5.51,0-.13,0-.23-.01-.33"/>
  <path class="cls-2" d="m74.32,116.49c.16-.09.33-.2.48,0,.11.14.09.31,0,.45-.13.24-.29.45-.44.68.22.27.48.24.76.21.61-.08,1.04.21,1.13.72.08.5-.41,1.21-.9,1.3-.37.08-.88-.23-1-.6-.07-.21-.08-.4-.37-.5-.37-.12-.4-.29-.19-.62.13-.19.12-.3.03-.48-.12-.24-.25-.49-.24-.78.02-.42,0-.72-.58-.74-.41,0-.62-.35-.59-.87.02-.46-.08-.74-.56-.84-.21-.04-.35-.22-.43-.42h0c-.13-.02-.28.06-.35-.11.11-.27.43-.08.59-.26-.26-.28-.32-.72-.11-.95.13-.15.34-.23.45.01.18.38.39.72.79.89.11.04.13.17.17.29q.15.42.64.28l.03-.02c.09-.01.2-.07.26-.04.36.18.67,1.05.41,1.36-.31.38-.24.69,0,1.04-.06.07-.1.14-.03.23,0,.01.05.01.05,0,.07-.09,0-.16-.03-.24"/>
  <path class="cls-2" d="m34.96,93.54c.16-.09.33-.2.49,0,.11.14.09.31,0,.45-.13.23-.29.45-.45.68.22.27.48.24.76.21.61-.08,1.04.21,1.13.72.08.5-.41,1.21-.9,1.3-.37.07-.88-.23-1-.6-.07-.21-.08-.41-.37-.5-.37-.12-.4-.29-.19-.61.13-.19.12-.3.03-.48-.12-.24-.25-.49-.23-.78.02-.42,0-.72-.58-.74-.41,0-.62-.35-.59-.87.02-.46-.08-.74-.56-.84-.21-.05-.34-.22-.43-.42h0c-.12-.02-.28.06-.35-.11.11-.27.43-.09.58-.26-.25-.28-.32-.72-.11-.95.14-.15.34-.22.45.01.18.38.39.72.79.9.11.04.14.17.18.28.15.42.16.42.65.28l.03-.02c.09-.01.2-.06.26-.03.37.18.67,1.05.42,1.35-.32.38-.24.69,0,1.04-.06.07-.1.14-.03.23,0,.01.05.01.05,0,.07-.09,0-.16-.03-.24"/>
  <path class="cls-2" d="m45.19,107.39c-.23-.32-.36-.64-.08-1,.06-.07.12-.19.19-.19.44-.03.73-.25.95-.63.08-.14.3-.1.43.02.13.11.22.29.11.43-.27.33-.36.74-.58,1.08-.23.35-.6.38-.98.32l-.03-.03Z"/>
  <path class="cls-2" d="m48.57,114.31c-.22.02-.35-.06-.3-.27.06-.26.06-.54.25-.77.24-.3.56-.34.82-.1.26.24.26.48,0,.76-.19.21-.48.35-.76.37"/>
  <path class="cls-2" d="m51.93,107.29c-.19.11-.32.34-.58.3-.31-.05-.47-.29-.42-.66.05-.44.29-.69.64-.65.3.03.49.27.48.62,0,.11-.05.23-.07.34l-.04.05Z"/>
  <path class="cls-2" d="m41.06,105.07c-.09.2-.03.43-.08.65-.05.27-.22.44-.51.46-.21.02-.41-.08-.5-.28-.13-.28,0-.49.22-.64.19-.13.36-.27.52-.43.06-.06.15-.1.25-.06.13.05.13.16.1.3"/>
  <path class="cls-2" d="m46.94,110.71c-.03.22-.17.39-.41.48-.22.07-.41.02-.56-.15-.2-.23-.23-.65-.05-.89.05-.07.13-.14.21-.16.26-.07.82.42.8.73"/>
  <path class="cls-2" d="m48.78,109.87c.02.26-.26.55-.56.58-.27.02-.5-.15-.53-.4-.04-.29.26-.62.57-.62.25,0,.5.21.52.44"/>
  <path class="cls-2" d="m45.3,104.34c0,.19-.12.39-.2.6-.04.11-.08.23-.22.22-.16-.02-.14-.15-.11-.27.05-.21-.14-.26-.25-.37-.18-.18-.17-.37-.03-.55.14-.18.34-.23.55-.17.23.07.3.26.26.54"/>
  <path class="cls-2" d="m50.26,103.89s-.05.11-.1.15c-.2.22-.48.26-.74.3-.12.02-.21-.08-.17-.23.07-.29.52-.55.8-.47.11.03.2.09.21.25"/>
  <path class="cls-2" d="m45.71,107.59c.2.02.35.11.38.32.03.21-.21.46-.42.43-.2-.03-.33-.15-.33-.36,0-.24.14-.36.37-.39"/>
  <path class="cls-2" d="m44.18,105.16c.21.03.35.14.33.36-.03.23-.18.37-.42.37-.21,0-.41-.21-.36-.4.05-.23.22-.33.45-.33"/>
  <path class="cls-2" d="m50.41,107.32c-.2,0-.3-.12-.32-.3,0-.23.11-.44.33-.44.2,0,.24.24.27.42.02.19-.1.29-.27.33"/>
  <path class="cls-2" d="m41.88,103.9c.02.16-.06.24-.13.33-.16.19-.37.24-.61.16-.07-.02-.09-.1-.07-.16.07-.23.26-.29.46-.35.1-.03.21-.07.34.02"/>
  <path class="cls-2" d="m49.98,106.16c-.17.02-.28-.06-.31-.21-.04-.18.08-.3.25-.33.2-.03.37.06.38.27,0,.2-.19.22-.32.27"/>
  <path class="cls-2" d="m43.08,117.17c0,.17-.08.29-.26.32-.19.02-.3-.09-.31-.27,0-.18.11-.29.3-.3.15,0,.25.07.27.24"/>
  <path class="cls-2" d="m43.27,118.17c.14,0,.22.08.23.2,0,.18-.09.3-.28.31-.13.01-.22-.08-.23-.2,0-.18.1-.29.28-.31"/>
  <path class="cls-2" d="m48.36,104.66c-.14-.06-.32-.1-.27-.31.04-.18.13-.34.31-.4.04-.01.09,0,.12.02.07.04.08.11.05.17-.08.16-.19.31-.19.49l-.03.02Z"/>
  <path class="cls-2" d="m44.72,105.98c.11,0,.18.04.2.14.03.18-.05.3-.23.34-.13.04-.22-.04-.24-.16-.01-.19.11-.28.26-.32"/>
  <path class="cls-2" d="m49.58,112.36c-.03.15-.12.25-.27.23-.13-.02-.17-.14-.14-.26.02-.11.1-.2.23-.19.13,0,.19.09.19.23"/>
  <path class="cls-2" d="m46.3,113.01c-.13-.03-.2-.12-.18-.24.02-.16.12-.24.26-.24.12,0,.2.1.18.24-.02.15-.12.22-.27.24"/>
  <path class="cls-2" d="m43.78,106.57c-.02.16-.12.24-.27.26-.1.01-.18-.07-.16-.17.03-.16.09-.32.3-.3.11.02.13.11.13.21"/>
  <path class="cls-2" d="m44.98,111.02c-.03.13-.13.18-.25.14-.09-.02-.15-.1-.12-.2.03-.13.12-.18.25-.15.1.03.14.1.12.21"/>
  <path class="cls-2" d="m47.28,112.71c.01.14-.03.27-.19.29-.13.03-.21-.05-.21-.19,0-.15.1-.25.24-.28.12-.02.13.08.16.17"/>
  <path class="cls-2" d="m40.79,112.32c0,.14-.07.21-.2.23-.1,0-.18-.05-.19-.15,0-.14.07-.22.2-.23.09,0,.16.06.18.16"/>
  <path class="cls-2" d="m42.34,108.49c.07,0,.14.01.2.03.14.04.24.12.2.28-.02.05-.08.11-.13.13-.16.04-.24-.05-.28-.2-.01-.06-.02-.13-.03-.2l.04-.04Z"/>
  <path class="cls-2" d="m42.1,106.77c.1,0,.18.06.19.15.02.13-.06.22-.19.22-.1,0-.16-.09-.16-.18s.06-.16.16-.19"/>
  <path class="cls-2" d="m43.08,111.36c.1,0,.18.06.18.16,0,.13-.09.2-.22.2-.07,0-.13-.05-.14-.13-.01-.13.06-.21.18-.24"/>
  <path class="cls-2" d="m42.3,108.53c-.16-.08-.41-.07-.44-.33,0-.07.06-.13.12-.13.26.02.28.24.36.42l-.04.04Z"/>
  <path class="cls-2" d="m45.22,107.42s0,.09-.02.13c-.02.13-.08.22-.21.22-.08,0-.13-.06-.13-.13,0-.14.08-.2.2-.24.04,0,.09,0,.14-.02,0,0,.03.03.03.03"/>
  <path class="cls-2" d="m52.18,109.01c-.1,0-.16-.07-.16-.16,0-.1.07-.16.17-.16.08,0,.12.06.13.13,0,.1-.04.16-.14.19"/>
  <path class="cls-2" d="m48.74,119c-.07,0-.13-.03-.15-.1-.02-.13.03-.22.17-.22.07,0,.12.06.12.13,0,.1-.05.17-.15.19"/>
  <path class="cls-2" d="m42.54,105.49c-.02.1-.09.14-.18.12-.09-.03-.16-.09-.15-.19.01-.1.09-.14.19-.12.1.02.14.09.14.19"/>
  <path class="cls-2" d="m49.43,106.3c0,.1-.07.16-.16.16s-.16-.06-.16-.16c0-.1.07-.16.16-.16s.16.06.16.17"/>
  <path class="cls-2" d="m49.11,120.57c-.01.07-.05.13-.13.14-.08,0-.13-.06-.12-.13,0-.08.06-.14.13-.14.08,0,.12.05.12.14"/>
  <path class="cls-2" d="m43.24,104.83c.08,0,.13.05.13.13,0,.08-.06.12-.14.12-.08,0-.12-.05-.12-.13,0-.08.06-.12.13-.12"/>
  <path class="cls-2" d="m51.97,107.25c.16.07.37.08.34.38-.21-.03-.26-.23-.38-.34,0,0,.04-.05.04-.05"/>
  <path class="cls-2" d="m44.09,114.93c-.07,0-.13-.03-.13-.1-.02-.1.05-.16.15-.15.07,0,.12.05.11.13,0,.07-.06.11-.13.13"/>
  <path class="cls-2" d="m43.25,116.28s.06-.1.14-.07c.07.02.1.09.07.16-.02.04-.07.08-.1.08-.08,0-.12-.06-.1-.17"/>
  <path class="cls-2" d="m50.51,118.46s.08.03.1.1c.03.1-.02.17-.12.18-.07,0-.12-.05-.12-.12,0-.07.04-.12.15-.15"/>
  <path class="cls-2" d="m42.37,120c-.02.07-.07.11-.14.09-.07-.02-.08-.09-.05-.15.01-.03.06-.06.1-.06.07,0,.1.06.09.13"/>
  <path class="cls-2" d="m64.17,127c0,.17-.12.29-.36.32-.26.02-.42-.09-.42-.27,0-.18.16-.29.41-.29.21,0,.34.07.37.24"/>
  <path class="cls-2" d="m53.93,112.69c.14,0,.22.08.23.2,0,.18-.09.3-.28.32-.13,0-.22-.08-.23-.2,0-.18.1-.29.28-.32"/>
  <path class="cls-2" d="m56.72,112.79c-.03.13-.13.18-.25.14-.1-.02-.15-.1-.12-.2.03-.13.12-.18.25-.15.1.03.14.1.12.21"/>
  <path class="cls-2" d="m54.83,113.13c.1,0,.18.06.18.16,0,.13-.09.2-.22.2-.07,0-.13-.04-.14-.12-.01-.13.06-.21.18-.24"/>
  <path class="cls-2" d="m55.83,116.69c-.07,0-.12-.03-.13-.1-.01-.1.05-.16.15-.15.07,0,.12.05.11.13,0,.07-.06.11-.13.13"/>
  <path class="cls-2" d="m55,118.05s.06-.1.14-.07c.07.02.1.09.07.16-.02.04-.07.08-.1.08-.07,0-.12-.06-.1-.17"/>
  <path class="cls-2" d="m54.11,121.77c-.02.07-.07.11-.14.09-.07-.02-.08-.09-.05-.15.01-.03.06-.07.1-.07.07,0,.1.06.09.13"/>
  <path class="cls-2" d="m51.98,114.13c-.01.07-.04.13-.12.13-.07,0-.12-.05-.11-.12,0-.07.04-.13.11-.13.08,0,.11.05.12.12"/>
  <path class="cls-2" d="m46.12,109.23c-.07,0-.12-.05-.11-.12,0-.07.04-.12.12-.13.08,0,.12.05.11.12,0,.07-.04.11-.12.13"/>
  <path class="cls-2" d="m41.54,115.7c-.07-.02-.12-.06-.12-.13,0-.08.04-.13.12-.12.08,0,.12.06.12.13,0,.08-.04.12-.12.12"/>
  <path class="cls-2" d="m45.5,105.29c0,.07-.02.13-.1.13-.03,0-.08-.04-.09-.07-.03-.08.02-.13.09-.14.03,0,.07.04.1.07"/>
  <path class="cls-2" d="m42.19,110.52s.05.05.07.08c-.03.02-.06.04-.09.05,0,0-.04-.03-.04-.04.01-.03.04-.06.06-.1"/>
  <path class="cls-2" d="m123.71,82.92c-.23-.32-.36-.64-.08-1,.05-.07.12-.19.19-.19.44-.03.73-.25.95-.63.08-.14.3-.1.43.02.12.12.22.3.11.43-.27.33-.35.74-.58,1.08-.23.36-.6.38-.98.32l-.03-.03Z"/>
  <path class="cls-2" d="m119.58,80.6c-.09.2-.03.43-.08.65-.06.27-.22.44-.51.46-.22.02-.41-.08-.5-.28-.13-.27,0-.49.22-.64.19-.13.36-.27.52-.43.06-.06.15-.1.25-.06.13.05.13.16.1.3"/>
  <path class="cls-2" d="m125.46,86.24c-.03.22-.17.4-.41.48-.22.07-.41.02-.56-.15-.2-.24-.24-.65-.06-.89.05-.07.13-.14.21-.16.26-.07.82.42.81.73"/>
  <path class="cls-2" d="m124.23,83.12c.21.02.35.11.38.32.03.21-.21.46-.42.43-.2-.02-.33-.15-.33-.36,0-.24.14-.36.36-.39"/>
  <path class="cls-2" d="m121.6,92.71c0,.17-.08.29-.26.32-.19.02-.3-.09-.31-.27,0-.18.12-.29.3-.3.15,0,.25.08.27.24"/>
  <path class="cls-2" d="m121.79,93.7c.14,0,.22.08.23.2,0,.18-.09.3-.28.32-.13,0-.22-.08-.23-.2,0-.18.1-.29.28-.31"/>
  <path class="cls-2" d="m123.24,81.5c.11,0,.19.04.2.14.03.18-.06.3-.23.34-.13.04-.22-.04-.23-.17-.01-.18.11-.28.26-.32"/>
  <path class="cls-2" d="m122.3,82.1c-.02.16-.13.24-.27.26-.1.01-.17-.07-.16-.17.03-.16.09-.32.3-.3.1.01.13.11.13.21"/>
  <path class="cls-2" d="m123.5,86.55c-.03.13-.12.18-.25.15-.1-.02-.15-.1-.12-.2.03-.13.13-.18.25-.15.1.03.14.1.12.21"/>
  <path class="cls-2" d="m119.31,87.85c0,.14-.08.22-.2.23-.09,0-.18-.05-.18-.15-.01-.14.07-.22.2-.23.1,0,.16.06.19.16"/>
  <path class="cls-2" d="m120.87,84.02c.07,0,.13.01.2.03.14.04.24.11.2.28-.02.05-.08.12-.13.13-.16.04-.24-.05-.28-.2-.02-.06-.02-.13-.03-.2l.04-.04Z"/>
  <path class="cls-2" d="m119.58,69.08c.1,0,.18.06.19.15.02.13-.06.22-.19.22-.1,0-.16-.09-.16-.18,0-.1.06-.17.16-.19"/>
  <path class="cls-2" d="m121.6,86.89c.1,0,.18.06.18.16,0,.13-.09.2-.22.2-.07,0-.14-.04-.14-.12-.02-.13.05-.21.18-.24"/>
  <path class="cls-2" d="m120.82,84.06c-.16-.09-.41-.08-.44-.33,0-.07.05-.13.12-.13.26.01.28.24.36.42l-.04.04Z"/>
  <path class="cls-2" d="m123.75,82.95s0,.09-.02.13c-.02.12-.08.22-.21.22-.08,0-.13-.06-.13-.13-.01-.14.08-.2.2-.23.04,0,.09,0,.13-.01,0,0,.03.03.03.03"/>
  <path class="cls-2" d="m119.75,65.47c-.1,0-.16-.07-.16-.16,0-.1.07-.16.17-.16.08,0,.12.06.13.13,0,.1-.04.16-.14.19"/>
  <path class="cls-2" d="m122.61,90.46c-.07,0-.13-.04-.13-.1-.02-.11.05-.16.15-.15.07,0,.12.05.11.13,0,.07-.05.11-.13.13"/>
  <path class="cls-2" d="m121.78,91.81s.06-.1.13-.07c.07.02.1.09.07.16-.02.04-.07.08-.1.08-.08,0-.12-.06-.1-.17"/>
  <path class="cls-2" d="m120.89,95.53c-.02.07-.07.11-.14.09-.07-.02-.09-.09-.05-.15.01-.03.06-.06.09-.06.07,0,.1.05.09.13"/>
  <path class="cls-2" d="m124.64,84.76c-.07,0-.12-.05-.11-.12,0-.07.04-.12.12-.12.08,0,.12.05.12.12,0,.07-.05.11-.12.12"/>
  <path class="cls-2" d="m120.06,91.23c-.07-.02-.12-.06-.12-.13,0-.08.05-.13.12-.13.08,0,.12.06.12.14,0,.08-.05.12-.12.12"/>
  <path class="cls-2" d="m114.31,83.82c0,.17-.08.29-.26.32-.19.02-.31-.09-.31-.27,0-.18.12-.29.3-.3.15,0,.25.07.27.24"/>
  <path class="cls-2" d="m114.5,84.81c.14,0,.22.08.23.2,0,.18-.09.3-.28.32-.13,0-.22-.08-.23-.2,0-.18.1-.29.28-.32"/>
  <path class="cls-2" d="m114.49,82.93s.06-.1.14-.07c.07.03.1.1.07.16-.02.04-.07.08-.1.08-.08,0-.12-.06-.1-.17"/>
  <path class="cls-2" d="m113.6,86.65c-.02.07-.07.11-.14.09-.07-.02-.08-.09-.05-.15.01-.03.06-.06.1-.06.07,0,.1.05.09.13"/>
  <path class="cls-2" d="m112.77,82.35c-.07-.01-.12-.06-.12-.13,0-.08.05-.13.12-.12.08,0,.12.06.12.13,0,.08-.05.12-.12.12"/>
  <path class="cls-2" d="m120.71,86.05s.05.05.07.08c-.03.02-.05.04-.09.05,0,0-.04-.03-.04-.04.02-.03.04-.06.06-.1"/>
  <path class="cls-2" d="m35.97,98.79c.21.02.35.11.38.32.03.21-.21.46-.42.43-.2-.02-.33-.15-.33-.36,0-.24.14-.36.37-.39"/>
  <path class="cls-2" d="m33.34,108.37c0,.17-.08.29-.26.32-.19.02-.3-.09-.31-.27,0-.18.12-.29.3-.3.15,0,.25.07.27.24"/>
  <path class="cls-2" d="m33.53,109.36c.14,0,.22.08.23.2,0,.18-.09.3-.28.31-.13.01-.22-.08-.23-.2,0-.18.1-.29.28-.31"/>
  <path class="cls-2" d="m35.24,102.22c-.03.13-.12.18-.25.15-.1-.02-.15-.1-.12-.2.03-.13.12-.18.25-.15.1.03.14.1.12.21"/>
  <path class="cls-2" d="m32.6,99.69c.07,0,.13.01.2.03.14.04.24.12.2.28-.02.05-.08.11-.13.13-.16.04-.24-.05-.28-.2-.02-.06-.02-.13-.03-.2l.04-.04Z"/>
  <path class="cls-2" d="m33.34,102.56c.1,0,.18.06.18.17,0,.13-.09.2-.22.2-.07,0-.14-.05-.14-.12-.01-.13.06-.21.19-.24"/>
  <path class="cls-2" d="m32.56,99.73c-.16-.09-.41-.08-.44-.33,0-.07.06-.13.13-.13.25.01.28.24.36.42l-.04.05Z"/>
  <path class="cls-2" d="m34.35,106.12c-.07,0-.13-.03-.13-.1-.01-.1.05-.16.15-.15.07,0,.12.05.11.13,0,.07-.05.11-.13.13"/>
  <path class="cls-2" d="m33.51,107.48s.06-.1.14-.07c.07.03.1.1.07.16-.02.04-.07.08-.1.08-.08,0-.12-.06-.1-.17"/>
  <path class="cls-2" d="m32.63,111.2c-.02.06-.07.11-.14.09-.07-.02-.08-.09-.05-.15.02-.03.06-.06.09-.06.07,0,.1.05.1.13"/>
  <path class="cls-2" d="m31.8,106.9c-.08-.02-.12-.06-.12-.13,0-.08.04-.13.12-.12.08,0,.12.06.12.13,0,.08-.05.12-.12.12"/>
  <path class="cls-2" d="m32.44,101.72s.05.05.07.08c-.03.02-.06.04-.09.05,0,0-.04-.03-.04-.04.01-.03.04-.06.06-.1"/>
  <path class="cls-2" d="m16.65,90.64c.21.02.35.11.38.32.03.21-.21.46-.42.43-.2-.02-.33-.15-.33-.36,0-.24.14-.36.36-.39"/>
  <path class="cls-2" d="m14.02,100.23c0,.17-.08.29-.26.32-.19.02-.3-.09-.31-.27,0-.18.12-.29.3-.3.15,0,.25.08.27.24"/>
  <path class="cls-2" d="m14.21,101.22c.13,0,.22.08.23.2,0,.18-.09.3-.28.32-.13,0-.22-.08-.23-.2,0-.18.1-.29.28-.31"/>
  <path class="cls-2" d="m15.92,94.08c-.03.13-.12.18-.25.14-.1-.02-.15-.1-.12-.2.03-.13.13-.18.25-.15.1.03.14.1.12.21"/>
  <path class="cls-2" d="m13.29,91.54c.07,0,.13.01.2.03.15.04.25.11.2.28-.02.05-.08.11-.13.13-.16.04-.24-.05-.28-.2-.02-.06-.02-.13-.03-.2l.04-.04Z"/>
  <path class="cls-2" d="m14.03,94.42c.1,0,.18.06.18.16,0,.13-.09.2-.22.2-.07,0-.14-.04-.14-.13-.02-.13.05-.21.18-.23"/>
  <path class="cls-2" d="m13.24,91.59c-.16-.09-.41-.07-.44-.33,0-.07.05-.13.12-.13.25.02.28.24.36.42l-.04.04Z"/>
  <path class="cls-2" d="m15.03,97.98c-.07,0-.13-.04-.13-.1-.02-.11.05-.16.15-.15.07,0,.12.05.11.13,0,.07-.05.11-.13.13"/>
  <path class="cls-2" d="m14.2,99.34s.06-.1.14-.07c.07.02.1.09.07.16-.02.04-.07.08-.1.08-.08,0-.12-.06-.1-.17"/>
  <path class="cls-2" d="m13.31,103.05c-.02.07-.07.11-.14.09-.07-.02-.08-.09-.05-.15.01-.03.06-.06.09-.06.07,0,.1.06.09.13"/>
  <path class="cls-2" d="m12.48,98.75c-.07-.02-.12-.06-.12-.13,0-.08.05-.13.12-.12.08,0,.12.06.12.14,0,.08-.05.12-.12.12"/>
  <path class="cls-2" d="m13.13,93.58s.05.05.07.08c-.03.02-.05.04-.09.05,0,0-.04-.03-.04-.04.02-.03.04-.06.06-.1"/>
  <path class="cls-2" d="m22.33,72.14c.21.02.35.11.38.32.03.21-.21.46-.42.43-.2-.02-.33-.15-.33-.36,0-.24.14-.36.37-.39"/>
  <path class="cls-2" d="m19.69,81.72c0,.17-.08.29-.26.32-.19.02-.3-.09-.31-.27,0-.18.11-.29.3-.3.15,0,.25.08.27.24"/>
  <path class="cls-2" d="m19.88,82.71c.14,0,.22.08.23.2,0,.18-.09.3-.28.32-.13,0-.22-.08-.23-.2,0-.18.1-.29.28-.31"/>
  <path class="cls-2" d="m21.6,75.57c-.03.13-.13.18-.25.14-.1-.02-.15-.1-.12-.2.03-.13.12-.18.25-.15.1.03.14.1.12.21"/>
  <path class="cls-2" d="m18.96,73.04c.07,0,.13.01.2.03.14.04.24.12.2.28-.02.05-.08.11-.13.13-.16.04-.24-.05-.28-.2-.02-.06-.02-.13-.03-.2l.04-.04Z"/>
  <path class="cls-2" d="m19.7,75.91c.1,0,.18.06.18.16,0,.13-.09.2-.22.2-.07,0-.14-.05-.14-.13-.01-.13.06-.21.18-.23"/>
  <path class="cls-2" d="m18.91,73.08c-.16-.09-.41-.07-.44-.33,0-.07.06-.13.13-.13.25.02.28.24.36.42l-.04.04Z"/>
  <path class="cls-2" d="m20.7,79.48c-.07,0-.13-.04-.13-.11-.01-.1.05-.16.15-.15.07,0,.12.05.11.13,0,.07-.06.11-.13.13"/>
  <path class="cls-2" d="m19.87,80.83s.06-.1.14-.07c.07.02.1.09.07.16-.02.04-.07.08-.1.08-.08,0-.12-.06-.1-.17"/>
  <path class="cls-2" d="m18.99,84.54c-.02.07-.07.11-.14.09-.07-.02-.08-.09-.05-.15.01-.03.06-.06.1-.06.07,0,.1.05.09.13"/>
  <path class="cls-2" d="m18.15,80.25c-.07-.02-.12-.06-.12-.13,0-.08.04-.13.12-.13.08,0,.12.06.12.14,0,.08-.04.12-.12.12"/>
  <path class="cls-2" d="m18.8,75.07s.05.05.07.08c-.03.02-.05.04-.09.05,0,0-.04-.03-.04-.04.01-.03.03-.06.06-.1"/>
  <path class="cls-2" d="m35.45,99.24c-.09.2-.04.43-.08.65-.06.27-.22.44-.51.46-.22.02-.41-.08-.5-.28-.13-.28,0-.5.22-.64.19-.13.36-.27.52-.43.06-.06.15-.1.25-.06.13.05.13.17.1.3"/>
  <path class="cls-2" d="m33.68,86.57c.21.03.35.14.33.36-.03.23-.18.37-.42.37-.21,0-.41-.2-.36-.4.05-.23.22-.33.45-.33"/>
  <path class="cls-2" d="m31.38,85.31c.02.16-.06.24-.13.33-.16.2-.37.24-.61.17-.07-.02-.09-.1-.07-.17.07-.23.26-.29.46-.35.1-.03.21-.07.34.02"/>
  <path class="cls-2" d="m33.28,87.98c-.02.16-.12.24-.27.26-.1.01-.18-.07-.16-.17.03-.16.09-.32.3-.3.11.02.13.11.13.21"/>
  <path class="cls-2" d="m30.29,93.73c0,.13-.07.22-.2.23-.1,0-.18-.05-.19-.15,0-.14.08-.22.2-.23.09,0,.16.06.18.16"/>
  <path class="cls-2" d="m31.84,89.9c.07,0,.14.01.2.03.15.04.24.11.2.28-.02.05-.08.11-.13.13-.16.04-.24-.05-.28-.2-.01-.06-.02-.13-.03-.2l.04-.04Z"/>
  <path class="cls-2" d="m31.6,88.18c.1,0,.18.06.19.15.02.13-.06.22-.19.22-.1,0-.16-.09-.16-.18s.06-.16.16-.18"/>
  <path class="cls-2" d="m32.58,92.77c.1,0,.18.06.18.16,0,.13-.09.2-.22.2-.07,0-.13-.04-.14-.12-.01-.13.06-.21.18-.24"/>
  <path class="cls-2" d="m31.8,89.94c-.17-.08-.41-.07-.44-.33,0-.07.06-.13.12-.13.26.02.28.24.36.42l-.04.04Z"/>
  <path class="cls-2" d="m32.04,86.9c-.02.1-.09.15-.19.12-.09-.02-.16-.09-.15-.19.01-.1.09-.15.19-.12.1.02.14.09.15.19"/>
  <path class="cls-2" d="m32.74,86.24c.08,0,.13.05.13.13,0,.08-.06.12-.13.12-.08,0-.12-.05-.12-.13,0-.08.06-.12.13-.13"/>
  <path class="cls-2" d="m31.69,91.93s.05.05.07.08c-.03.02-.05.04-.09.06,0,0-.04-.03-.04-.04.01-.03.03-.06.06-.1"/>
  <path class="cls-2" d="m85.18,111.25c0,.19-.12.39-.2.6-.04.11-.08.23-.22.22-.16-.02-.14-.15-.12-.27.05-.21-.14-.26-.25-.37-.18-.17-.16-.36-.03-.55.14-.18.34-.23.55-.17.23.07.3.26.26.54"/>
  <path class="cls-2" d="m117.65,82.01c-.02.13-.1.2-.22.2-.15,0-.25-.1-.26-.24,0-.12.08-.21.22-.2.15,0,.24.09.26.24"/>
  <path class="cls-2" d="m55.92,143.8c-.13-.03-.19-.11-.18-.24.02-.16.12-.24.27-.24.12,0,.2.1.18.24-.02.15-.12.22-.26.24"/>
  <path class="cls-2" d="m115.8,83.5c.13.02.19.1.17.23-.01.1-.08.16-.19.14-.13-.02-.19-.11-.17-.24.02-.1.09-.14.19-.14"/>
  <path class="cls-2" d="m65.98,124.54c0,.13-.07.21-.2.23-.1,0-.18-.06-.19-.16,0-.13.07-.22.2-.23.09,0,.16.06.18.16"/>
  <path class="cls-2" d="m113.52,86.36c0-.07,0-.13.02-.2.02-.14.09-.25.26-.22.05.01.12.07.14.12.06.15-.03.25-.17.29-.06.02-.13.03-.19.04l-.05-.04Z"/>
  <path class="cls-2" d="m116.31,85.36c0-.1.04-.19.15-.2.13-.01.21.07.22.21,0,.07-.03.14-.11.15-.13.02-.22-.04-.26-.16"/>
  <path class="cls-2" d="m113.91,82.53c0,.07-.04.12-.11.12-.07,0-.13-.03-.14-.1,0-.08.04-.12.12-.13.07,0,.11.03.14.11"/>
  <path class="cls-2" d="m67.38,122.73s.05.05.07.08c-.03.02-.05.04-.09.05,0,0-.04-.03-.04-.04.01-.03.03-.06.06-.1"/>
  <path class="cls-2" d="m47.84,121.39s-.03-.05-.05-.08c.02,0,.04-.03.05-.03.02.02.04.05.06.07-.02,0-.03.02-.05.03"/>
  <path class="cls-2" d="m49.1,121.44s-.01.04-.02.05c0,.01-.04,0-.05,0-.03-.04-.02-.07.04-.08.01,0,.03.02.04.03"/>
  <path class="cls-2" d="m61.89,119.71c-.39.04-.73,0-.91-.42-.03-.08-.1-.2-.07-.26.19-.4.14-.76-.09-1.14-.08-.14.06-.31.23-.36.16-.05.37-.04.43.12.15.39.47.67.66,1.03.2.37.05.71-.2,1.01h-.04Z"/>
  <path class="cls-2" d="m65.11,113.79c0,.22.15.44-.02.65-.2.25-.48.27-.78.05-.36-.26-.45-.59-.25-.87.17-.25.47-.3.77-.12.1.06.17.15.26.23l.02.06Z"/>
  <path class="cls-2" d="m61.33,113.58s.07.1.09.16c.09.28,0,.54-.1.79-.05.11-.18.14-.28.04-.22-.2-.23-.72-.02-.93.09-.09.18-.13.32-.06"/>
  <path class="cls-2" d="m62.32,119.36c.12-.17.27-.25.47-.17.19.07.3.4.17.57-.12.17-.29.21-.47.11-.21-.12-.25-.3-.16-.51"/>
  <path class="cls-2" d="m64.39,115.13c-.1.17-.26.21-.42.13-.2-.1-.33-.31-.23-.5.1-.18.33-.09.49-.02.17.08.21.23.15.4"/>
  <path class="cls-2" d="m63.17,114.93c-.07.16-.18.22-.33.17-.18-.06-.22-.22-.16-.38.07-.18.23-.29.42-.19.18.09.1.27.07.41"/>
  <path class="cls-2" d="m61.07,115.61c-.12.1-.24.23-.4.09-.14-.12-.23-.28-.2-.47,0-.04.04-.08.08-.1.06-.04.14-.02.18.04.1.15.18.31.33.4v.03Z"/>
  <path class="cls-2" d="m63.02,115.49c.08.06.11.14.06.22-.04.08-.13.11-.22.06-.08-.05-.11-.14-.06-.22.05-.09.13-.11.22-.06"/>
  <path class="cls-2" d="m65.09,113.73c.13-.1.25-.29.5-.11-.13.17-.33.12-.48.17,0,0-.02-.06-.02-.06"/>
  <path class="cls-2" d="m60.21,118.42c.07.03.1.08.07.15-.01.03-.07.06-.1.04-.08-.01-.11-.08-.07-.14.01-.03.07-.04.1-.05"/>
  <path class="cls-2" d="m123.93,91.03c.58.45.61.53.41,1.13-.07.22-.15.44-.33.7-.21-.34.01-.64-.05-.91-.07-.28-.1-.57-.03-.91"/>
  <path class="cls-2" d="m131.36,92.65c-.24-.39-.24-.74-.2-1.09,0-.07.04-.14.12-.16.08-.02.14.03.16.1.08.36.22.72-.08,1.14"/>
  <path class="cls-2" d="m130.17,98.66c-.12-.46-.32-.89-.33-1.37,0-.07.02-.14.12-.16.09,0,.12.05.16.12.02.03.04.06.04.1.06.42.12.84.17,1.27-.05.01-.1.03-.15.04"/>
  <path class="cls-2" d="m132.16,92.55c-.19,0-.38-.21-.37-.41,0-.19.1-.3.29-.32.19-.01.37.19.35.39-.02.17-.1.31-.27.33"/>
  <path class="cls-2" d="m137.85,92.04c-.13-.2-.19-.4-.2-.62,0-.07.02-.15.09-.17.08-.03.14.02.17.09.08.23.11.47-.06.7"/>
  <path class="cls-2" d="m123.5,94.96c-.02.36-.02.73-.25,1.13-.08-.46.08-.8.25-1.13"/>
  <path class="cls-2" d="m131.52,93.57c.11.24.09.48.02.73-.25-.32-.25-.44-.02-.73"/>
  <path class="cls-2" d="m137.79,93.63c0,.12-.04.18-.15.19-.12.01-.2-.05-.22-.18-.02-.11.04-.17.15-.18.13-.01.2.06.23.18"/>
  <path class="cls-2" d="m134.51,90.08c-.12-.19-.2-.34-.01-.46.04-.02.13-.01.14,0,.11.17.01.29-.13.45"/>
  <path class="cls-2" d="m128.34,94.72c-.1-.02-.16-.09-.16-.18s.05-.17.17-.16c.1.01.16.08.15.18,0,.1-.05.17-.16.16"/>
  <path class="cls-2" d="m124.57,86.15c.11,0,.15.08.16.18,0,.1-.04.17-.15.17s-.17-.06-.17-.16c0-.1.06-.16.16-.19"/>
  <path class="cls-2" d="m134.91,89.04c-.07-.02-.12-.07-.11-.14,0-.08.06-.12.14-.1.07.01.12.06.12.14,0,.08-.07.11-.15.11"/>
  <path class="cls-2" d="m133.94,89.35c-.02.07-.07.12-.15.09-.08-.02-.11-.09-.08-.17.01-.05.06-.09.12-.08.09,0,.13.07.11.16"/>
  <path class="cls-2" d="m138.24,87.65c.05,0,.08.06.07.14,0,.06-.04.11-.1.11-.08,0-.12-.07-.12-.15,0-.06.04-.1.15-.1"/>
  <path class="cls-2" d="m125.04,85.4s0,.1-.07.11c-.06,0-.08-.05-.07-.1,0-.03.02-.07.04-.09.06-.02.09.02.1.08"/>
  <path class="cls-2" d="m130.99,95.88s.08.04.08.09c.01.07-.01.14-.1.13-.03,0-.07-.07-.08-.11,0-.05.02-.1.09-.1"/>
  <path class="cls-2" d="m129.09,89.62s.07.03.07.06c0,.06-.04.1-.09.08-.02,0-.05-.05-.05-.08,0-.03.04-.04.07-.06"/>
  <path class="cls-2" d="m127.66,85.45s-.05-.05-.05-.08c0-.06.05-.1.11-.08.03,0,.06.05.05.08,0,.06-.04.1-.11.09"/>
  <path class="cls-2" d="m124.65,84.01s.07,0,.08.03c.03.05.01.1-.04.13-.02,0-.07-.01-.09-.03-.03-.05-.02-.1.05-.12"/>
  <path class="cls-2" d="m125.61,84.75s-.05.06-.08.06c-.06,0-.08-.06-.05-.11.01-.02.06-.04.09-.03.02,0,.03.05.04.09"/>
  <path class="cls-2" d="m132.47,86.55c0-.06-.01-.11,0-.15.01-.04.05-.05.07,0,.01.03.02.07,0,.09,0,.02-.03.03-.08.06"/>
  <path class="cls-2" d="m125.44,91.2c0,.06-.03.1-.09.09-.03,0-.07-.04-.07-.07-.01-.06.02-.11.08-.1.03,0,.04.04.07.07"/>
  <path class="cls-2" d="m129.23,83.47s-.03.01-.04.01c-.01,0-.02-.03-.02-.04.03-.03.05-.02.05.03"/>
  <path class="cls-2" d="m127.25,85.78s.04.01.04.03c0,.04-.01.06-.05.06-.01,0-.03-.02-.04-.03,0-.04.01-.06.05-.06"/>
  <path class="cls-2" d="m132.4,87.31s-.03-.03-.03-.04c0-.01,0-.04,0-.05.04-.02.06,0,.05.05,0,.01-.02.02-.03.04"/>
  <path class="cls-2" d="m129.83,88.85s.03,0,.04.02c0,0,0,.04,0,.04-.04.03-.06.02-.06-.03,0,0,.02-.02.03-.03"/>
  <path class="cls-2" d="m130.24,90.5s-.02.07-.04.08c-.02,0-.05-.02-.08-.03.01-.03.02-.05.04-.08.03.01.05.02.08.04"/>
  <path class="cls-2" d="m137.99,92.49s-.02.01-.03.01c0,0-.03-.02-.02-.03,0-.04.03-.04.05-.02,0,0,0,.02,0,.04"/>
  <path class="cls-2" d="m131.45,93.04s-.03.01-.04.02c0-.03-.02-.06-.02-.09,0,0,.03-.01.04-.02,0,.03.02.06.02.09"/>
  <path class="cls-2" d="m129.26,94.09s-.02.02-.03.03c-.02-.01-.04-.03-.05-.05,0,0,.02-.02.02-.03.02.01.04.03.06.05"/>
  <path class="cls-2" d="m138.31,94.5s.02.03.01.04c0,.01-.02.03-.03.03-.04,0-.05-.03-.02-.06,0,0,.03,0,.04,0"/>
  <path class="cls-2" d="m127.05,89.16s.03,0,.04.02c0,0,0,.02-.01.04-.02,0-.03,0-.04-.02,0,0,0-.02.01-.04"/>
  <path class="cls-2" d="m58.07,125.5c-.23-.32-.36-.64-.08-1,.06-.07.12-.19.19-.19.44-.03.73-.25.94-.63.08-.14.3-.1.43.02.12.12.21.3.11.43-.27.33-.35.74-.58,1.08-.23.35-.6.38-.98.32l-.03-.03Z"/>
  <path class="cls-2" d="m53.94,123.18c-.09.2-.03.43-.08.65-.06.27-.22.44-.51.46-.22.01-.41-.08-.5-.28-.13-.28,0-.5.22-.64.19-.13.36-.27.52-.43.06-.07.15-.1.25-.06.13.05.13.17.1.3"/>
  <path class="cls-2" d="m59.82,128.82c-.03.22-.17.39-.41.48-.22.07-.41.02-.55-.15-.21-.23-.23-.65-.06-.89.05-.07.13-.14.21-.16.26-.07.82.42.81.73"/>
  <path class="cls-2" d="m58.59,125.7c.21.02.35.11.38.32.03.21-.21.46-.42.43-.2-.03-.33-.15-.33-.36,0-.24.14-.36.36-.39"/>
  <path class="cls-2" d="m55.96,135.29c0,.17-.08.29-.26.32-.19.02-.3-.09-.31-.27,0-.18.12-.29.3-.3.15,0,.25.07.27.24"/>
  <path class="cls-2" d="m56.15,136.28c.14,0,.22.08.23.2,0,.18-.09.3-.27.32-.13,0-.22-.08-.23-.2,0-.18.1-.29.28-.31"/>
  <path class="cls-2" d="m57.6,124.09c.11,0,.18.04.2.14.02.18-.06.3-.23.34-.13.04-.22-.04-.24-.16-.01-.19.11-.28.26-.32"/>
  <path class="cls-2" d="m56.66,124.68c-.02.16-.12.24-.27.26-.1.01-.18-.07-.16-.17.03-.16.09-.32.3-.3.1.02.13.12.13.21"/>
  <path class="cls-2" d="m57.86,129.13c-.03.13-.13.18-.25.15-.1-.02-.15-.1-.12-.2.03-.13.12-.18.25-.15.1.03.14.1.12.21"/>
  <path class="cls-2" d="m53.67,130.43c0,.13-.07.22-.2.23-.09,0-.18-.06-.19-.16,0-.14.08-.22.2-.23.09,0,.17.06.18.16"/>
  <path class="cls-2" d="m55.22,126.6c.07,0,.13.01.2.03.14.04.24.11.2.28-.02.05-.08.12-.13.13-.16.04-.24-.05-.28-.2-.02-.06-.02-.13-.03-.2l.04-.04Z"/>
  <path class="cls-2" d="m55.96,129.47c.1,0,.18.06.18.16,0,.13-.09.2-.22.2-.07,0-.13-.04-.14-.13-.01-.13.06-.21.18-.24"/>
  <path class="cls-2" d="m55.18,126.64c-.16-.08-.41-.07-.44-.33,0-.07.05-.13.12-.13.25.02.28.24.36.42l-.04.04Z"/>
  <path class="cls-2" d="m58.1,125.53s0,.09-.02.13c-.02.13-.08.22-.21.22-.08,0-.13-.06-.13-.13,0-.14.07-.21.2-.23.04,0,.09,0,.13-.01,0,0,.03.03.03.03"/>
  <path class="cls-2" d="m56.97,133.04c-.07,0-.13-.03-.13-.1-.01-.1.05-.16.15-.15.07,0,.12.05.11.13,0,.07-.06.11-.13.13"/>
  <path class="cls-2" d="m56.13,134.4s.06-.1.14-.07c.07.03.1.09.07.16-.02.04-.07.08-.1.08-.07,0-.12-.06-.1-.16"/>
  <path class="cls-2" d="m55.25,138.11c-.02.07-.07.11-.14.09-.07-.02-.08-.09-.05-.15.01-.03.06-.06.1-.06.07,0,.1.05.09.13"/>
  <path class="cls-2" d="m59,127.33c-.07,0-.11-.05-.11-.12,0-.07.04-.12.12-.13.08,0,.12.05.11.12,0,.07-.04.11-.12.12"/>
  <path class="cls-2" d="m54.42,133.81c-.07-.02-.12-.06-.12-.13,0-.08.04-.13.12-.12.08,0,.12.06.12.13,0,.08-.05.12-.12.12"/>
  <path class="cls-2" d="m48.67,126.4c0,.17-.08.29-.26.32-.19.02-.3-.09-.31-.27,0-.18.11-.29.3-.3.15,0,.25.07.27.24"/>
  <path class="cls-2" d="m48.86,127.39c.14,0,.22.08.23.2,0,.18-.09.3-.28.31-.13.01-.22-.08-.23-.2,0-.18.1-.29.28-.31"/>
  <path class="cls-2" d="m48.84,125.51s.06-.1.14-.07c.07.03.1.1.07.16-.02.04-.07.08-.1.08-.08,0-.12-.06-.1-.17"/>
  <path class="cls-2" d="m47.96,129.23c-.03.06-.07.11-.14.09-.07-.02-.08-.09-.05-.15.01-.03.06-.06.1-.06.07,0,.1.06.09.13"/>
  <path class="cls-2" d="m47.13,124.93c-.07-.02-.12-.06-.12-.13,0-.08.04-.13.12-.12.08,0,.12.06.12.13,0,.08-.05.12-.12.12"/>
  <path class="cls-2" d="m55.06,128.63s.05.05.07.08c-.03.02-.05.04-.09.06,0,0-.04-.03-.04-.04.01-.03.04-.06.06-.1"/>
  <path class="cls-2" d="m37.24,111.37c-.29.26-.6.42-.99.17-.07-.05-.2-.1-.21-.17-.08-.44-.32-.7-.72-.88-.15-.07-.13-.29-.02-.43.11-.14.28-.24.42-.14.35.24.78.29,1.13.47.38.19.44.56.41.95l-.03.04Z"/>
  <path class="cls-2" d="m37.95,116.4c.2.07.43,0,.66.02.28.03.46.18.51.46.04.22-.04.41-.23.52-.26.15-.5.04-.66-.16-.15-.18-.3-.33-.48-.48-.07-.05-.11-.14-.08-.24.04-.14.15-.15.29-.13"/>
  <path class="cls-2" d="m33.94,105.79c.23.01.41.13.51.36.09.21.05.4-.1.57-.21.23-.62.29-.88.14-.07-.04-.14-.12-.18-.19-.09-.26.34-.85.65-.87"/>
  <path class="cls-2" d="m40.03,111.54c0-.21.08-.36.29-.41.21-.05.47.16.47.38,0,.2-.12.34-.33.36-.24.02-.37-.11-.43-.33"/>
  <path class="cls-2" d="m37.75,113.28c.02-.21.11-.36.33-.36.24,0,.38.14.41.38.03.21-.17.43-.37.4-.23-.03-.35-.19-.37-.42"/>
  <path class="cls-2" d="m36.71,115.69c.16-.04.25.04.34.1.21.14.27.35.22.59-.01.07-.09.1-.16.08-.23-.05-.31-.23-.39-.42-.04-.1-.09-.2-.01-.34"/>
  <path class="cls-2" d="m38.51,112.67c0-.11.02-.19.12-.21.17-.04.3.03.36.19.05.13-.01.23-.14.25-.18.03-.29-.08-.34-.23"/>
  <path class="cls-2" d="m45.37,110.45c-.02.13-.1.2-.22.2-.16,0-.25-.1-.26-.24,0-.12.08-.2.21-.2.16,0,.24.1.27.24"/>
  <path class="cls-2" d="m39.19,113.56c.17,0,.25.1.28.25.02.1-.05.18-.15.18-.16-.01-.32-.06-.32-.27,0-.11.1-.14.19-.15"/>
  <path class="cls-2" d="m43.51,111.94c.13.02.19.11.17.23-.02.1-.08.16-.19.14-.13-.02-.19-.11-.17-.24.02-.1.09-.14.19-.14"/>
  <path class="cls-2" d="m45.19,116c.13-.01.22.05.24.18.02.1-.04.18-.14.2-.13.02-.22-.05-.24-.18-.02-.1.04-.17.14-.2"/>
  <path class="cls-2" d="m41.23,114.81c0-.07,0-.14.01-.2.02-.15.09-.25.26-.22.05,0,.12.07.14.12.06.16-.03.25-.17.29-.06.03-.13.03-.19.05l-.05-.04Z"/>
  <path class="cls-2" d="m39.54,115.21c0-.1.04-.18.13-.2.13-.03.22.04.23.17.01.1-.07.16-.16.17-.1.01-.17-.04-.2-.14"/>
  <path class="cls-2" d="m44.02,113.8c0-.1.04-.18.15-.19.13-.01.21.07.22.2,0,.07-.03.14-.11.15-.13.02-.22-.04-.26-.16"/>
  <path class="cls-2" d="m41.28,114.85c-.07.17-.03.41-.29.47-.07.01-.14-.04-.14-.11-.01-.26.21-.3.38-.4l.05.04Z"/>
  <path class="cls-2" d="m39.9,112.04s.09,0,.13,0c.13,0,.23.06.24.19,0,.08-.04.13-.12.14-.13.02-.21-.05-.25-.18-.01-.04-.02-.09-.02-.13,0,0,.02-.03.02-.03"/>
  <path class="cls-2" d="m38.23,114.88c.1.01.15.07.14.17-.01.09-.08.17-.17.16-.1,0-.16-.08-.14-.18.02-.09.08-.15.18-.16"/>
  <path class="cls-2" d="m37.5,114.25c0-.08.04-.14.12-.14.08,0,.13.05.13.12,0,.08-.03.13-.11.14-.07,0-.12-.05-.14-.12"/>
  <path class="cls-2" d="m41.62,110.98c0,.07-.04.12-.11.12-.07,0-.13-.03-.14-.11,0-.08.04-.12.12-.12.07,0,.11.03.13.11"/>
  <path class="cls-2" d="m37.76,111.96c.07-.01.13,0,.14.09,0,.03-.03.09-.06.1-.07.03-.13,0-.14-.08,0-.03.04-.07.06-.1"/>
  <path class="cls-2" d="m43.27,114.77s.05-.05.08-.08c.02.03.05.05.06.08,0,0-.03.05-.03.04-.03-.01-.07-.03-.11-.05"/>
  <path class="cls-2" d="m52.01,124.59c-.02.13-.09.2-.22.19-.16,0-.25-.1-.26-.24,0-.12.08-.21.22-.2.15,0,.24.1.26.24"/>
  <path class="cls-2" d="m50.16,126.08c.13.02.19.11.17.24-.01.1-.08.16-.19.14-.13-.02-.19-.11-.17-.24.02-.1.09-.14.2-.14"/>
  <path class="cls-2" d="m47.88,128.94c0-.07,0-.13.01-.2.02-.15.09-.25.26-.22.05.01.12.07.14.12.06.16-.03.25-.17.29-.06.02-.13.03-.2.04l-.04-.04Z"/>
  <path class="cls-2" d="m50.67,127.94c0-.1.04-.18.15-.19.13-.02.21.07.22.2,0,.07-.03.14-.11.15-.13.03-.22-.04-.26-.16"/>
  <path class="cls-2" d="m48.26,125.11c0,.07-.04.12-.11.12-.07,0-.13-.04-.14-.11-.01-.08.04-.12.12-.13.06,0,.11.04.13.11"/>
  <path class="cls-2" d="m34.89,105.71c.4-.62.47-.66,1.09-.52.22.05.45.11.72.27-.32.24-.63.05-.9.13-.27.09-.55.15-.91.12"/>
  <path class="cls-2" d="m35.81,98.15c-.37.28-.71.31-1.07.3-.07,0-.15-.02-.17-.1-.02-.08.02-.14.09-.17.35-.12.69-.29,1.15-.03"/>
  <path class="cls-2" d="m41.9,98.78c-.44.16-.85.4-1.33.46-.07,0-.15,0-.16-.1-.02-.08.04-.13.1-.17.03-.02.06-.04.09-.05.41-.1.83-.19,1.24-.29.02.05.04.1.06.15"/>
  <path class="cls-2" d="m35.64,97.36c.02.19-.17.39-.37.41-.18.01-.31-.08-.34-.26-.03-.19.16-.39.36-.38.17,0,.31.06.35.24"/>
  <path class="cls-2" d="m34.61,91.75c-.18.15-.38.23-.59.26-.07.01-.15,0-.18-.08-.04-.08,0-.15.08-.17.22-.1.46-.16.7,0"/>
  <path class="cls-2" d="m38.84,105.76c.37-.02.73-.05,1.15.14-.45.12-.8,0-1.15-.14"/>
  <path class="cls-2" d="m36.71,97.9c.24-.13.47-.14.73-.09-.29.28-.41.29-.73.09"/>
  <path class="cls-2" d="m36.19,91.66c.12-.02.18.03.2.13.02.12-.04.21-.16.24-.11.03-.18-.03-.2-.13-.03-.12.04-.2.15-.24"/>
  <path class="cls-2" d="m32.96,95.25c-.18.14-.32.23-.45.05-.02-.03-.03-.13,0-.14.16-.13.29-.04.46.09"/>
  <path class="cls-2" d="m38.16,100.96c0,.1-.07.16-.17.17-.1,0-.17-.04-.17-.15,0-.1.06-.17.17-.17.1,0,.17.04.18.15"/>
  <path class="cls-2" d="m29.97,105.51c0-.11.07-.16.16-.18.1-.02.18.02.19.13,0,.1-.05.17-.15.19-.1,0-.17-.04-.2-.14"/>
  <path class="cls-2" d="m31.89,94.95c-.01.08-.05.13-.13.12-.08,0-.13-.05-.12-.14,0-.07.05-.12.13-.13.08,0,.12.06.12.14"/>
  <path class="cls-2" d="m32.28,95.89c.08.02.13.06.11.14-.02.08-.08.11-.16.09-.05,0-.1-.05-.1-.11,0-.09.05-.13.14-.13"/>
  <path class="cls-2" d="m30.19,91.76c0-.05.06-.09.14-.08.06,0,.11.02.11.09,0,.08-.06.13-.14.13-.06,0-.1-.03-.12-.14"/>
  <path class="cls-2" d="m29.18,105.12s.11,0,.12.06c0,.06-.04.08-.09.08-.03,0-.08-.01-.09-.04-.03-.06,0-.09.06-.1"/>
  <path class="cls-2" d="m39.06,98.22s.03-.08.08-.09c.07-.02.14,0,.14.09,0,.03-.06.08-.1.09-.05.01-.1,0-.12-.08"/>
  <path class="cls-2" d="m33.01,100.69s.03-.08.05-.08c.07-.01.1.03.09.09,0,.02-.05.05-.07.05s-.05-.04-.07-.06"/>
  <path class="cls-2" d="m28.99,102.5s-.05.06-.08.05c-.06,0-.1-.03-.09-.1,0-.03.05-.06.07-.06.06,0,.1.03.09.1"/>
  <path class="cls-2" d="m27.83,105.64s0-.07.02-.09c.05-.04.1-.02.13.03,0,.02,0,.08-.02.09-.05.04-.1.03-.13-.03"/>
  <path class="cls-2" d="m28.48,104.61s.07.04.06.07c0,.06-.05.09-.1.07-.03,0-.05-.06-.04-.09,0-.02.06-.03.08-.05"/>
  <path class="cls-2" d="m29.63,97.61c-.06,0-.11.02-.15.01-.05,0-.05-.04-.01-.06.03-.02.07-.03.09-.02.02,0,.04.03.07.07"/>
  <path class="cls-2" d="m34.91,104.18c.05,0,.1.01.1.08,0,.03-.03.07-.06.07-.06.01-.11,0-.11-.07,0-.03.04-.05.07-.08"/>
  <path class="cls-2" d="m26.87,101.13s.02.03.02.03c0,0-.03.02-.03.02-.03-.03-.03-.05.02-.05"/>
  <path class="cls-2" d="m29.35,102.88s.01-.04.03-.04c.04-.01.07,0,.07.05,0,.01-.01.03-.03.04-.04.01-.06,0-.07-.04"/>
  <path class="cls-2" d="m30.39,97.61s-.02.03-.03.04c-.02,0-.05,0-.05,0-.02-.04,0-.06.04-.06.01,0,.02.02.04.03"/>
  <path class="cls-2" d="m32.17,100.03s0-.04.02-.05c0,0,.04,0,.04,0,.03.03.02.06-.02.06-.01,0-.02-.01-.04-.02"/>
  <path class="cls-2" d="m33.77,99.47s.08.01.08.03c0,.02-.01.05-.02.08-.03,0-.06-.02-.09-.03,0-.02.02-.06.03-.08"/>
  <path class="cls-2" d="m35.04,91.56s.02.02.02.03c0,0-.02.03-.03.03-.05,0-.05-.03-.02-.05,0-.01.02,0,.04,0"/>
  <path class="cls-2" d="m36.19,98.03s.02.02.03.04c-.03,0-.06.02-.09.03,0,0-.01-.03-.02-.04.03,0,.06-.02.09-.03"/>
  <path class="cls-2" d="m37.44,100.11s.02.02.04.02c-.01.02-.03.05-.05.06,0,0-.02-.01-.03-.02.01-.03.03-.04.04-.06"/>
  <path class="cls-2" d="m37.01,91.06s.03-.02.04-.02c.01,0,.03.02.03.03,0,.04-.02.06-.06.03-.01,0-.01-.02-.01-.04"/>
  <path class="cls-2" d="m32.74,102.77s0-.04.02-.04c0,0,.02,0,.04,0,0,.02,0,.04-.02.04-.01,0-.02,0-.04,0"/>
  <path class="cls-2" d="m58.29,133.61c.58.45.61.52.41,1.13-.07.22-.15.43-.33.7-.21-.34.01-.64-.05-.91-.07-.28-.1-.57-.03-.91"/>
  <path class="cls-2" d="m65.72,135.23c-.24-.39-.24-.74-.2-1.09.01-.07.04-.14.12-.16.08-.01.15.04.16.1.08.36.22.72-.08,1.14"/>
  <path class="cls-2" d="m64.52,141.24c-.12-.46-.32-.88-.33-1.37,0-.07.02-.14.11-.16.09-.01.12.05.16.12.02.03.04.06.04.1.06.42.12.84.17,1.27-.05.01-.1.03-.15.04"/>
  <path class="cls-2" d="m66.52,135.13c-.2,0-.38-.21-.37-.41,0-.19.11-.3.29-.32.19-.01.37.19.35.39-.02.17-.09.3-.27.33"/>
  <path class="cls-2" d="m72.21,134.62c-.13-.2-.19-.4-.2-.62,0-.07.02-.15.09-.17.08-.03.14.02.17.09.09.23.12.47-.06.7"/>
  <path class="cls-2" d="m57.86,137.54c-.02.36-.02.73-.25,1.13-.08-.46.07-.79.25-1.13"/>
  <path class="cls-2" d="m65.88,136.15c.1.24.09.48.02.73-.25-.31-.25-.44-.02-.73"/>
  <path class="cls-2" d="m72.15,136.21c0,.12-.05.18-.15.19-.13.01-.2-.06-.23-.18-.02-.1.05-.18.15-.19.13-.01.2.06.23.17"/>
  <path class="cls-2" d="m68.87,132.66c-.12-.19-.19-.33,0-.46.03-.02.13-.01.14.01.11.17,0,.29-.13.45"/>
  <path class="cls-2" d="m62.7,137.31c-.1-.02-.16-.09-.16-.19s.05-.17.17-.16c.1.01.16.08.15.18,0,.1-.05.17-.16.16"/>
  <path class="cls-2" d="m58.93,128.73c.1,0,.15.08.16.17,0,.1-.04.17-.15.17-.1,0-.17-.06-.17-.16,0-.1.06-.16.16-.19"/>
  <path class="cls-2" d="m69.27,131.62c-.08-.02-.12-.07-.11-.14,0-.08.06-.12.14-.1.08.01.12.07.12.14,0,.08-.07.11-.15.1"/>
  <path class="cls-2" d="m68.3,131.93c-.02.07-.07.12-.15.09-.08-.02-.1-.09-.08-.17.01-.05.06-.09.12-.08.08,0,.13.06.11.16"/>
  <path class="cls-2" d="m72.6,130.23c.06,0,.08.06.07.14,0,.06-.04.11-.1.11-.08,0-.12-.07-.12-.15,0-.06.04-.1.15-.1"/>
  <path class="cls-2" d="m59.4,127.98s-.01.1-.07.11c-.06,0-.08-.05-.07-.1,0-.03.02-.07.04-.09.06-.02.09.02.1.08"/>
  <path class="cls-2" d="m65.34,138.46s.08.04.09.09c.01.07-.01.14-.1.13-.03,0-.07-.07-.08-.11,0-.05.02-.1.09-.11"/>
  <path class="cls-2" d="m63.45,132.2s.07.04.08.06c0,.06-.04.09-.1.08-.02,0-.05-.05-.04-.08,0-.03.04-.04.07-.06"/>
  <path class="cls-2" d="m62.02,128.03s-.05-.05-.05-.08c0-.06.04-.1.11-.08.03,0,.06.05.05.08,0,.06-.04.1-.11.09"/>
  <path class="cls-2" d="m59.01,126.58s.07,0,.09.03c.03.05.01.1-.04.13-.02,0-.07-.01-.09-.03-.03-.05-.02-.1.05-.12"/>
  <path class="cls-2" d="m59.96,127.33s-.05.06-.07.06c-.07,0-.09-.06-.06-.11.01-.02.07-.04.09-.03.02,0,.03.06.04.09"/>
  <path class="cls-2" d="m66.83,129.13c0-.06-.01-.11,0-.15.01-.04.05-.05.07,0,.01.03.02.07,0,.09,0,.02-.04.03-.08.06"/>
  <path class="cls-2" d="m59.79,133.78c0,.06-.02.1-.08.09-.02,0-.07-.04-.07-.06,0-.06.02-.11.08-.1.03,0,.04.04.07.07"/>
  <path class="cls-2" d="m63.58,126.05s-.03.01-.04,0c0,0-.02-.03-.01-.04.03-.03.05-.02.05.03"/>
  <path class="cls-2" d="m61.6,128.36s.04.02.04.03c.01.04,0,.06-.05.06-.01,0-.03-.02-.04-.03-.01-.04.01-.06.05-.06"/>
  <path class="cls-2" d="m66.75,129.89s-.03-.02-.03-.04c0-.02,0-.04,0-.05.04-.02.06,0,.06.05,0,.01-.02.02-.03.04"/>
  <path class="cls-2" d="m64.18,131.43s.03,0,.04.02c0,0,0,.04,0,.04-.03.03-.06.02-.06-.03,0-.01.02-.02.03-.03"/>
  <path class="cls-2" d="m64.59,133.08s-.02.07-.04.08c-.02,0-.06-.02-.08-.03.01-.03.03-.06.04-.08.03,0,.05.02.08.04"/>
  <path class="cls-2" d="m72.35,135.07s-.02.01-.03.01c-.01,0-.03-.02-.03-.03,0-.04.03-.05.06-.02,0,0,0,.02,0,.04"/>
  <path class="cls-2" d="m65.81,135.62s-.03.01-.04.02c0-.04-.01-.06-.02-.09,0,0,.03-.01.04-.02,0,.03.01.06.02.09"/>
  <path class="cls-2" d="m63.62,136.67s-.02.02-.02.03c-.02-.01-.04-.03-.06-.05,0,0,.01-.02.02-.03.02.02.04.03.06.05"/>
  <path class="cls-2" d="m72.66,137.08s.02.03.01.04c0,.01-.02.03-.03.03-.04,0-.06-.03-.02-.06,0,0,.03,0,.04,0"/>
  <path class="cls-2" d="m61.4,131.74s.03.01.04.02c0,0,0,.02,0,.04-.02,0-.04-.01-.04-.02,0,0,0-.02.01-.04"/>
  <path class="cls-2" d="m94.01,101.21c.58.45.61.53.41,1.13-.07.22-.15.43-.33.7-.21-.34.01-.64-.05-.91-.07-.28-.1-.57-.03-.92"/>
  <path class="cls-2" d="m101.45,102.83c-.24-.39-.24-.73-.2-1.09,0-.07.04-.14.12-.16.08-.01.14.04.16.11.08.36.22.72-.08,1.14"/>
  <path class="cls-2" d="m100.25,108.83c-.12-.46-.32-.89-.33-1.37,0-.07.02-.14.12-.16.08,0,.12.05.16.12.02.03.04.06.04.1.06.42.11.84.17,1.27-.05,0-.11.02-.16.04"/>
  <path class="cls-2" d="m102.25,102.73c-.19,0-.38-.21-.37-.41,0-.19.1-.3.29-.32.19-.01.37.19.35.39-.02.17-.09.31-.27.33"/>
  <path class="cls-2" d="m107.94,102.22c-.13-.2-.19-.4-.2-.61,0-.07.02-.15.09-.17.08-.03.14.02.17.09.08.23.12.47-.06.69"/>
  <path class="cls-2" d="m93.59,105.14c-.02.36-.02.73-.25,1.13-.08-.46.08-.79.25-1.13"/>
  <path class="cls-2" d="m101.61,103.75c.11.25.09.48.03.73-.25-.31-.25-.44-.03-.73"/>
  <path class="cls-2" d="m107.88,103.8c0,.12-.04.18-.15.19-.12.01-.21-.06-.22-.18-.02-.11.04-.18.15-.18.13-.01.2.06.23.17"/>
  <path class="cls-2" d="m104.6,100.26c-.12-.19-.2-.34-.01-.46.04-.02.13-.01.14.01.11.17.01.29-.13.45"/>
  <path class="cls-2" d="m98.43,104.9c-.1-.02-.16-.09-.16-.18s.06-.17.17-.16c.1.01.16.08.15.18,0,.1-.05.17-.16.16"/>
  <path class="cls-2" d="m94.66,96.33c.11,0,.15.08.16.18,0,.1-.04.17-.15.17s-.17-.06-.17-.16.05-.16.16-.19"/>
  <path class="cls-2" d="m105,99.22c-.07-.02-.12-.07-.11-.14,0-.08.06-.12.15-.1.07.01.12.07.11.14,0,.08-.07.11-.15.1"/>
  <path class="cls-2" d="m104.03,99.52c-.02.07-.07.12-.15.09-.08-.02-.1-.09-.08-.17.02-.05.06-.09.12-.09.09.01.13.07.11.16"/>
  <path class="cls-2" d="m108.33,97.82c.05,0,.08.07.07.15,0,.06-.04.11-.1.11-.08,0-.12-.07-.12-.15,0-.06.04-.1.15-.1"/>
  <path class="cls-2" d="m95.13,95.58s0,.1-.07.11c-.06,0-.08-.05-.07-.1,0-.03.02-.07.04-.09.06-.02.09.02.1.08"/>
  <path class="cls-2" d="m101.08,106.06s.08.04.09.09c.01.07-.01.14-.1.13-.03,0-.07-.07-.08-.11,0-.05.02-.1.09-.11"/>
  <path class="cls-2" d="m99.18,99.8s.07.04.07.06c0,.07-.04.1-.1.08-.02,0-.05-.05-.05-.08,0-.02.05-.04.07-.06"/>
  <path class="cls-2" d="m97.75,95.63s-.05-.05-.05-.08c0-.06.05-.1.1-.08.03,0,.06.05.05.08,0,.06-.04.1-.11.09"/>
  <path class="cls-2" d="m94.74,94.18s.07,0,.08.03c.03.05.01.11-.05.13-.02,0-.07-.01-.09-.03-.03-.05-.01-.1.05-.12"/>
  <path class="cls-2" d="m95.7,94.93s-.05.06-.07.06c-.06,0-.08-.06-.06-.11.01-.02.06-.04.09-.03.02,0,.03.06.04.09"/>
  <path class="cls-2" d="m102.56,96.73c0-.07-.01-.11,0-.15.01-.04.04-.05.07,0,.01.03.02.07,0,.09,0,.02-.04.03-.08.06"/>
  <path class="cls-2" d="m95.52,101.38c0,.06-.02.1-.08.09-.03,0-.06-.04-.07-.06,0-.06.02-.11.08-.1.03,0,.04.05.07.08"/>
  <path class="cls-2" d="m99.31,93.64s-.03.02-.04.01c0,0-.02-.03-.02-.04.03-.03.05-.02.05.02"/>
  <path class="cls-2" d="m97.34,95.96s.04.02.04.03c0,.04-.01.06-.05.06-.01,0-.04-.01-.04-.03,0-.04.01-.06.05-.06"/>
  <path class="cls-2" d="m102.49,97.48s-.03-.02-.03-.04c0-.02,0-.05,0-.05.04-.02.06,0,.05.05,0,.01-.02.02-.03.04"/>
  <path class="cls-2" d="m99.91,99.03s.03,0,.04.02c0,0,0,.04,0,.04-.03.03-.06.02-.06-.03,0,0,.02-.02.03-.03"/>
  <path class="cls-2" d="m100.32,100.67s-.02.07-.03.08c-.02,0-.05-.02-.08-.03.01-.03.02-.05.03-.08.03,0,.06.02.08.04"/>
  <path class="cls-2" d="m108.08,102.67s-.02.01-.03.01c-.01,0-.03-.02-.02-.03,0-.04.03-.05.05-.02.01,0,0,.02,0,.04"/>
  <path class="cls-2" d="m101.54,103.22s-.03.01-.04.02c0-.03-.02-.06-.02-.09,0,0,.02-.01.04-.02,0,.03.02.06.02.09"/>
  <path class="cls-2" d="m99.35,104.27s-.02.02-.02.03c-.02-.01-.04-.03-.05-.05,0,0,.01-.02.02-.03.02.02.04.03.06.05"/>
  <path class="cls-2" d="m108.4,104.68s.02.03.01.04c0,.01-.02.03-.03.03-.04,0-.05-.03-.02-.06,0,0,.03,0,.04,0"/>
  <path class="cls-2" d="m97.13,99.34s.03,0,.04.02c0,0,0,.02-.01.04-.02,0-.04-.01-.04-.02,0,0,0-.02.01-.04"/>
  <path class="cls-2" d="m107.63,86.86c.58.45.61.53.41,1.13-.07.22-.14.44-.33.7-.21-.34,0-.64-.05-.91-.06-.28-.1-.56-.03-.92"/>
  <path class="cls-2" d="m115.07,88.48c-.24-.39-.24-.74-.2-1.09,0-.07.04-.15.12-.16.08-.02.14.03.16.1.08.36.22.72-.08,1.14"/>
  <path class="cls-2" d="m113.88,94.48c-.12-.46-.32-.88-.33-1.37,0-.07.02-.15.12-.16.09-.01.12.05.16.12.02.03.04.06.04.1.06.42.12.84.17,1.27-.05.01-.1.03-.15.04"/>
  <path class="cls-2" d="m115.87,88.38c-.19,0-.38-.21-.37-.41,0-.19.1-.3.29-.32.19-.01.37.19.35.39-.02.17-.09.3-.27.33"/>
  <path class="cls-2" d="m121.56,87.87c-.13-.2-.19-.4-.2-.62,0-.07.02-.15.09-.17.08-.03.14.02.17.09.08.23.12.47-.06.7"/>
  <path class="cls-2" d="m107.21,90.78c-.02.36-.02.73-.25,1.13-.08-.46.08-.79.25-1.13"/>
  <path class="cls-2" d="m115.23,89.39c.1.24.09.48.02.73-.25-.31-.25-.44-.02-.73"/>
  <path class="cls-2" d="m121.5,89.45c.01.12-.04.18-.15.19-.12.01-.21-.05-.22-.18-.02-.1.04-.17.15-.19.13-.01.2.06.23.17"/>
  <path class="cls-2" d="m118.22,85.9c-.12-.19-.2-.34-.01-.46.04-.02.13-.02.14,0,.11.17.01.29-.13.45"/>
  <path class="cls-2" d="m112.05,90.55c-.1-.02-.15-.09-.15-.19s.05-.17.17-.16c.1.01.16.08.15.18,0,.1-.05.17-.17.16"/>
  <path class="cls-2" d="m108.28,81.98c.11,0,.15.08.16.18,0,.1-.04.17-.15.17-.1,0-.17-.06-.17-.16s.06-.16.16-.19"/>
  <path class="cls-2" d="m118.62,84.86c-.07-.02-.12-.07-.11-.15,0-.08.06-.12.14-.1.08.02.12.07.12.14,0,.08-.07.11-.15.11"/>
  <path class="cls-2" d="m117.65,85.17c-.02.07-.07.12-.15.09-.08-.02-.1-.09-.08-.17.01-.05.06-.09.12-.08.09,0,.13.07.12.16"/>
  <path class="cls-2" d="m121.95,83.47c.05,0,.08.06.07.14,0,.06-.04.11-.1.11-.08,0-.12-.07-.12-.15,0-.06.04-.1.15-.1"/>
  <path class="cls-2" d="m108.75,81.23s0,.1-.07.11c-.06,0-.08-.05-.07-.1,0-.03.02-.07.04-.08.06-.02.09.02.1.07"/>
  <path class="cls-2" d="m114.7,91.7s.08.04.09.09c.01.07-.01.14-.1.13-.03,0-.07-.07-.08-.11,0-.05.02-.1.09-.1"/>
  <path class="cls-2" d="m112.8,85.45s.07.03.07.06c0,.06-.04.09-.1.08-.02,0-.05-.05-.05-.08,0-.03.05-.04.07-.06"/>
  <path class="cls-2" d="m111.37,81.28s-.05-.05-.05-.08c0-.06.05-.09.11-.08.03,0,.06.05.05.08,0,.06-.04.1-.11.09"/>
  <path class="cls-2" d="m108.36,79.83s.07,0,.08.03c.03.05.01.1-.04.13-.02,0-.07-.01-.09-.03-.03-.05-.02-.1.05-.12"/>
  <path class="cls-2" d="m109.31,80.57s-.05.06-.07.06c-.06,0-.09-.06-.05-.11.01-.02.06-.04.09-.03.02,0,.03.06.04.09"/>
  <path class="cls-2" d="m116.18,82.37c0-.06-.01-.11,0-.15.01-.05.05-.05.07,0,.01.03.02.07.01.1,0,.02-.04.03-.08.06"/>
  <path class="cls-2" d="m109.14,87.02c0,.06-.02.1-.08.09-.03,0-.07-.04-.07-.06-.01-.06.02-.11.08-.1.02,0,.04.04.07.07"/>
  <path class="cls-2" d="m112.93,79.29s-.03.01-.04.01c0,0-.02-.03-.02-.04.03-.03.05-.02.05.03"/>
  <path class="cls-2" d="m110.96,81.61s.03.01.04.03c0,.04,0,.06-.05.06-.02,0-.04-.01-.04-.03,0-.04.01-.06.05-.06"/>
  <path class="cls-2" d="m116.11,83.13s-.03-.03-.03-.04c0-.02,0-.04,0-.05.04-.02.06,0,.05.05,0,.01-.02.02-.03.04"/>
  <path class="cls-2" d="m113.53,84.68s.03,0,.04.02c0,0,0,.04,0,.04-.04.03-.06.02-.06-.03,0,0,.02-.02.03-.03"/>
  <path class="cls-2" d="m113.94,86.32s-.02.07-.03.07c-.02,0-.05-.02-.08-.03.01-.03.03-.05.04-.08.03,0,.05.02.08.04"/>
  <path class="cls-2" d="m121.7,88.31s-.02.01-.03.01c-.01,0-.03-.02-.02-.03,0-.04.03-.05.06-.02,0,0,0,.02,0,.04"/>
  <path class="cls-2" d="m115.16,88.87s-.03.01-.04.02c0-.04-.02-.06-.02-.1,0,0,.02,0,.04-.02,0,.03.01.06.02.09"/>
  <path class="cls-2" d="m112.97,89.92s-.02.02-.02.03c-.02-.01-.04-.03-.05-.05,0,0,.01-.02.02-.03.02.02.04.03.05.05"/>
  <path class="cls-2" d="m122.01,90.32s.02.03.01.04c0,.01-.02.03-.03.03-.04,0-.05-.03-.02-.06,0,0,.03,0,.04,0"/>
  <path class="cls-2" d="m110.75,84.98s.03,0,.04.02c0,0,0,.02-.01.04-.01,0-.03-.01-.04-.02,0,0,0-.02.01-.04"/>
  <path class="cls-2" d="m80.21,115.99c.58.45.61.53.41,1.13-.07.22-.15.44-.33.7-.21-.34.01-.64-.05-.91-.07-.28-.1-.56-.03-.91"/>
  <path class="cls-2" d="m87.64,117.6c-.24-.39-.24-.74-.2-1.09,0-.07.04-.14.12-.16.08-.01.14.04.16.1.08.36.22.72-.08,1.14"/>
  <path class="cls-2" d="m86.45,123.61c-.12-.46-.32-.89-.33-1.37,0-.07.02-.14.11-.16.09,0,.13.05.16.12.02.03.03.06.04.1.06.42.12.84.17,1.26-.05.01-.1.03-.15.04"/>
  <path class="cls-2" d="m88.44,117.51c-.19,0-.37-.2-.37-.41,0-.19.11-.3.3-.32.19-.01.37.19.35.39-.02.17-.1.31-.27.33"/>
  <path class="cls-2" d="m94.13,116.99c-.13-.2-.19-.4-.21-.62,0-.07.02-.15.09-.17.09-.03.15.02.17.09.08.23.12.47-.05.7"/>
  <path class="cls-2" d="m79.78,119.91c-.02.36-.02.73-.25,1.13-.08-.46.07-.79.25-1.13"/>
  <path class="cls-2" d="m87.81,118.52c.1.25.09.48.02.73-.25-.32-.25-.44-.02-.73"/>
  <path class="cls-2" d="m94.07,118.58c.01.12-.05.18-.15.19-.12.01-.21-.06-.23-.18-.02-.11.05-.18.15-.18.13-.01.2.06.23.17"/>
  <path class="cls-2" d="m90.79,115.03c-.12-.19-.19-.33,0-.46.03-.02.13-.01.14.01.11.17,0,.29-.14.45"/>
  <path class="cls-2" d="m84.62,119.68c-.1-.02-.16-.09-.16-.19s.05-.17.17-.16c.1.01.16.08.15.18,0,.1-.05.17-.16.17"/>
  <path class="cls-2" d="m80.85,111.11c.11,0,.15.08.16.18.01.1-.04.17-.15.17-.1,0-.17-.06-.17-.16,0-.1.06-.16.16-.19"/>
  <path class="cls-2" d="m91.19,113.99c-.08-.02-.12-.07-.11-.14,0-.08.06-.12.14-.1.08.01.12.07.11.14,0,.08-.07.11-.15.1"/>
  <path class="cls-2" d="m90.22,114.3c-.02.07-.07.12-.16.1-.08-.02-.1-.09-.08-.17.01-.05.06-.09.12-.09.08.01.13.07.12.16"/>
  <path class="cls-2" d="m94.52,112.6c.05,0,.08.07.07.14,0,.06-.04.11-.1.11-.08,0-.12-.07-.12-.15,0-.06.04-.1.15-.1"/>
  <path class="cls-2" d="m81.32,110.36c0,.05-.01.1-.07.11-.06,0-.08-.05-.07-.1,0-.03.02-.07.04-.09.06-.02.09.02.1.08"/>
  <path class="cls-2" d="m87.27,120.83s.08.04.09.09c.01.07-.01.14-.1.13-.03,0-.07-.07-.08-.12-.01-.05.01-.1.09-.1"/>
  <path class="cls-2" d="m85.37,114.57s.07.04.07.06c0,.06-.04.1-.1.08-.02,0-.05-.05-.04-.08,0-.03.04-.04.07-.06"/>
  <path class="cls-2" d="m83.94,110.41s-.05-.05-.05-.08c0-.06.04-.1.11-.08.02,0,.05.05.05.08,0,.06-.04.1-.11.09"/>
  <path class="cls-2" d="m80.92,108.96s.07,0,.09.03c.03.05.01.1-.04.12-.02,0-.07-.01-.09-.03-.03-.05-.02-.1.04-.12"/>
  <path class="cls-2" d="m81.88,109.7s-.05.06-.07.06c-.07,0-.09-.06-.06-.11.01-.03.07-.04.09-.03.02,0,.03.05.04.09"/>
  <path class="cls-2" d="m88.75,111.5c0-.06-.01-.11,0-.15.01-.05.05-.05.07,0,.01.03.02.07,0,.1,0,.02-.04.03-.07.06"/>
  <path class="cls-2" d="m81.71,116.15c0,.06-.02.1-.08.09-.02,0-.07-.04-.07-.06,0-.06.02-.11.08-.1.03,0,.05.04.07.07"/>
  <path class="cls-2" d="m85.5,108.42s-.03.01-.03.01c0,0-.02-.03-.02-.04.03-.03.05-.02.05.02"/>
  <path class="cls-2" d="m83.53,110.74s.04.02.04.03c.01.04-.01.06-.05.06-.01,0-.03-.01-.04-.03,0-.04.01-.06.05-.06"/>
  <path class="cls-2" d="m88.67,112.26s-.03-.03-.03-.04c0-.02,0-.05,0-.05.04-.02.06,0,.05.05,0,.01-.02.02-.03.04"/>
  <path class="cls-2" d="m86.1,113.81s.04,0,.04.02c0,0,0,.04,0,.04-.04.03-.06.01-.06-.03,0-.01.02-.02.02-.03"/>
  <path class="cls-2" d="m86.51,115.45s-.02.07-.04.08c-.02,0-.05-.02-.08-.03.01-.03.02-.05.04-.08.02,0,.05.02.08.04"/>
  <path class="cls-2" d="m94.28,117.44s-.02.01-.03.01c-.01,0-.03-.02-.03-.03,0-.04.03-.05.06-.02,0,0,0,.02,0,.04"/>
  <path class="cls-2" d="m87.73,118s-.03.01-.04.02c0-.03-.02-.06-.02-.09,0,0,.03-.01.04-.02,0,.03.01.06.02.09"/>
  <path class="cls-2" d="m85.54,119.04s-.02.02-.02.03c-.02-.01-.04-.03-.05-.05,0,0,.01-.02.02-.03.02.02.04.03.06.05"/>
  <path class="cls-2" d="m94.58,119.45s.02.03.01.04c0,.01-.02.03-.03.03-.04,0-.05-.03-.02-.06,0,0,.03,0,.04,0"/>
  <path class="cls-2" d="m83.32,114.12s.04,0,.04.02c0,0,0,.02-.01.04-.01,0-.04-.01-.04-.02,0,0,0-.02.01-.04"/>
  <path class="cls-2" d="m12.28,87.96c.13-.07.26-.16.38,0,.09.11.07.25,0,.36-.11.18-.23.36-.35.53.18.21.38.19.6.16.48-.06.82.17.89.57.06.39-.32.95-.71,1.03-.29.06-.69-.19-.79-.48-.06-.16-.06-.32-.29-.39-.29-.09-.32-.23-.14-.49.1-.15.09-.23.02-.38-.09-.19-.2-.39-.19-.61.01-.33,0-.57-.46-.58-.32,0-.49-.27-.46-.68.02-.36-.07-.58-.44-.67-.16-.04-.27-.17-.34-.33h0c-.1-.01-.22.05-.28-.09.09-.22.34-.07.46-.2-.2-.22-.25-.57-.09-.75.1-.12.26-.18.36,0,.14.3.3.57.62.7.08.04.1.14.14.23q.12.33.51.22h.02c.07-.03.16-.07.21-.04.29.14.53.83.33,1.07-.25.3-.19.54,0,.81-.04.06-.08.11-.02.18,0,0,.04,0,.04,0,.05-.07,0-.13-.02-.19"/>
  <path class="cls-2" d="m2.15,81.06c.14.16.27.33.41.5.2.24-.03.44-.01.65,0,.02-.04.05-.07.07-.21.13-.87.07-1.07-.1-.08-.07-.16-.15-.23-.22-.32-.31-.31-.3.06-.57.29-.2.56-.39.93-.33h0Z"/>
  <path class="cls-2" d="m52.44,114.97c-.18-.25-.28-.5-.06-.79.04-.06.1-.15.15-.15.35-.03.57-.2.75-.5.06-.11.23-.08.33.02.1.09.17.23.08.33-.21.26-.28.58-.45.86-.18.28-.47.3-.77.25l-.03-.03Z"/>
  <path class="cls-2" d="m6.87,97.53c-.17.02-.28-.05-.24-.21.05-.2.05-.43.19-.6.19-.23.44-.27.64-.08.2.19.2.38,0,.61-.15.17-.38.27-.6.29"/>
  <path class="cls-2" d="m.95,80.48c-.16-.06-.37-.02-.47-.2-.13-.22-.06-.43.19-.58.29-.19.56-.17.71.06.13.2.09.44-.14.6-.07.05-.16.08-.24.12h-.05Z"/>
  <path class="cls-2" d="m5.4,84.13c-.07.16-.03.34-.07.52-.04.21-.17.35-.4.36-.17,0-.32-.06-.39-.22-.1-.22,0-.39.17-.5.15-.1.28-.21.41-.34.05-.05.12-.08.19-.05.1.04.11.13.08.24"/>
  <path class="cls-2" d="m10.03,88.57c-.03.18-.13.31-.32.38-.17.06-.32.01-.43-.12-.16-.18-.19-.51-.04-.7.04-.05.1-.1.17-.12.21-.05.64.33.63.57"/>
  <path class="cls-2" d="m11.48,87.91c.01.2-.21.43-.44.46-.21.02-.4-.11-.42-.32-.03-.23.21-.49.45-.49.19,0,.39.16.41.35"/>
  <path class="cls-2" d="m52.53,112.57c0,.15-.09.31-.16.48-.03.09-.07.18-.17.17-.13-.02-.11-.12-.09-.21.04-.16-.11-.21-.2-.29-.14-.14-.13-.29-.02-.43.11-.14.27-.18.43-.14.19.05.24.2.21.42"/>
  <path class="cls-2" d="m1.13,82.3c.06.09.06.17.02.26-.05.11-.1.23-.16.34-.12.21-.31.28-.49.17-.18-.11-.17-.25.01-.49.08-.1.14-.21.23-.29.12-.11.26-.11.38.01"/>
  <path class="cls-2" d="m4.51,83.76c-.37.12-.79.05-1.1.34-.07.06-.18.04-.24-.04-.05-.07-.04-.14,0-.2.08-.12.17-.23.26-.34.08-.1.21-.14.29-.05.21.25.52.19.79.29"/>
  <path class="cls-2" d="m2.19,77.77s-.09.02-.14.02c-.23-.01-.39-.16-.55-.3-.07-.06-.05-.17.05-.22.21-.1.6.04.69.25.04.08.04.17-.05.25"/>
  <path class="cls-2" d="m52.85,115.13c.16.02.27.09.3.25.03.16-.16.36-.33.34-.16-.02-.25-.12-.25-.28,0-.19.11-.29.29-.31"/>
  <path class="cls-2" d="m51.65,113.22c.16.03.28.11.26.28-.02.19-.14.29-.33.29-.16,0-.32-.16-.29-.32.04-.18.18-.26.36-.26"/>
  <path class="cls-2" d="m6.93,82.6c-.03.14-.05.28-.18.38-.12.08-.24.09-.35,0-.08-.05-.12-.13-.1-.23.01-.14.1-.23.23-.26.15-.03.28.04.41.1h0Z"/>
  <path class="cls-2" d="m4.73,94.13c-.01.16-.09.27-.25.28-.16.01-.28-.06-.29-.24,0-.17.09-.27.25-.29.17-.02.27.07.29.24"/>
  <path class="cls-2" d="m.18,79.57c-.09-.13-.08-.24.03-.34.13-.12.32-.15.43-.02.1.12-.03.27-.12.37-.11.1-.23.09-.33,0"/>
  <path class="cls-2" d="m6.05,83.21c.01.13-.05.19-.1.26-.13.15-.29.19-.48.13-.05-.02-.07-.08-.05-.13.05-.18.21-.23.36-.28.08-.02.17-.05.28.02"/>
  <path class="cls-2" d="m4.43,85.81c-.1,0-.17-.04-.19-.14-.03-.15.18-.34.35-.33.1,0,.17.06.17.17,0,.14-.17.29-.32.31"/>
  <path class="cls-2" d="m.67,78.73c-.09-.1-.11-.2-.03-.29.1-.12.22-.1.32-.01.12.1.15.26.03.37-.12.1-.22,0-.32-.06"/>
  <path class="cls-2" d="m3.47,81.96c-.17.16-.36.23-.59.2-.1-.02-.24-.03-.24-.16,0-.14.15-.13.25-.12.2.02.39.06.58.09h0Z"/>
  <path class="cls-2" d="m6.99,93.66c0,.14-.07.23-.21.26-.15.02-.24-.07-.24-.21s.09-.23.23-.23c.12,0,.19.06.21.19"/>
  <path class="cls-2" d="m3.41,86.37c-.11-.03-.22-.08-.22-.21,0-.17.15-.18.27-.18.12,0,.21.09.18.21-.02.12-.12.17-.24.18"/>
  <path class="cls-2" d="m7.14,94.44c.11,0,.18.06.18.16,0,.14-.07.24-.22.25-.1,0-.18-.06-.18-.16,0-.14.08-.23.22-.25"/>
  <path class="cls-2" d="m3.25,88.9c.13-.06.26-.13.41-.12.1,0,.18.04.19.15,0,.1-.07.16-.16.19-.21.06-.34-.04-.43-.23h0Z"/>
  <path class="cls-2" d="m54.94,112.83c-.11-.04-.25-.08-.22-.24.03-.14.1-.27.25-.32.03-.01.07,0,.1.02.05.03.06.09.04.13-.06.13-.14.24-.14.39l-.02.02Z"/>
  <path class="cls-2" d="m52.07,113.86c.09,0,.15.03.16.11.02.14-.05.24-.18.27-.1.03-.17-.03-.19-.13-.01-.15.08-.22.21-.25"/>
  <path class="cls-2" d="m3.86,82.46c0,.1-.05.18-.15.19-.1.02-.17-.05-.19-.15-.02-.11.04-.17.14-.19.11-.02.16.05.19.14"/>
  <path class="cls-2" d="m4.86,102.89c-.03.13-.11.2-.23.19-.12-.01-.19-.11-.15-.23.04-.11.12-.18.25-.15.1.02.15.09.13.19"/>
  <path class="cls-2" d="m12.11,89.87c-.02.12-.09.2-.22.18-.1-.02-.13-.11-.12-.2.02-.09.08-.16.18-.15.1,0,.15.07.15.18"/>
  <path class="cls-2" d="m9.52,90.38c-.1-.03-.15-.09-.14-.19.01-.12.1-.19.21-.19.09,0,.15.08.14.18-.02.12-.09.18-.21.19"/>
  <path class="cls-2" d="m7.54,85.31c-.01.13-.1.19-.21.2-.08,0-.14-.05-.13-.13.02-.13.07-.25.24-.23.08,0,.1.09.1.16"/>
  <path class="cls-2" d="m8.49,88.82c-.03.1-.1.14-.2.12-.08-.02-.12-.08-.1-.16.02-.1.1-.14.2-.12.08.02.11.08.1.16"/>
  <path class="cls-2" d="m14.86,91.34c-.11,0-.16-.07-.16-.17,0-.08.04-.14.12-.15.1-.02.17.04.18.14,0,.1-.04.16-.14.18"/>
  <path class="cls-2" d="m10.3,90.15c0,.11-.03.21-.15.23-.1.02-.16-.04-.16-.15,0-.12.08-.19.18-.22.09-.02.11.07.12.13"/>
  <path class="cls-2" d="m4.43,87.95c.08.02.2.05.2.14,0,.14-.14.12-.23.13-.08,0-.14-.05-.13-.13,0-.11.07-.15.17-.14"/>
  <path class="cls-2" d="m3.43,91.72c.16-.16.3-.15.43-.03.01,0,0,.07-.03.09-.13.1-.25.05-.4-.06"/>
  <path class="cls-2" d="m5.19,89.84c0,.1-.05.17-.15.18-.08,0-.14-.04-.15-.12,0-.1.06-.17.15-.18.08,0,.13.05.15.13"/>
  <path class="cls-2" d="m6.41,86.82c.05,0,.11.01.16.02.11.03.19.09.15.22-.01.04-.06.09-.1.1-.13.04-.19-.04-.22-.15-.01-.05-.02-.1-.02-.16l.03-.03Z"/>
  <path class="cls-2" d="m6.22,85.47c.08,0,.14.04.15.12.01.1-.05.17-.15.17-.08,0-.12-.07-.12-.14,0-.08.04-.13.12-.15"/>
  <path class="cls-2" d="m2.14,84.55c.09,0,.13.06.13.14,0,.11-.06.17-.16.17-.08,0-.13-.07-.13-.14,0-.1.06-.15.16-.16"/>
  <path class="cls-2" d="m6.99,89.08c.08,0,.14.04.14.13,0,.1-.07.16-.18.15-.06,0-.11-.03-.11-.09,0-.1.05-.17.14-.19"/>
  <path class="cls-2" d="m2.15,81.06c-.07-.12-.17-.24-.03-.37.06-.05.15-.04.18.03.09.18-.06.25-.16.34h0Z"/>
  <path class="cls-2" d="m6.38,86.86c-.13-.06-.32-.05-.34-.26,0-.05.04-.1.1-.1.2.01.22.19.28.33l-.04.03Z"/>
  <path class="cls-2" d="m52.46,115s0,.07-.01.1c-.02.1-.06.17-.17.17-.07,0-.1-.05-.1-.1,0-.1.06-.16.16-.19.03,0,.07,0,.1-.01,0,0,.02.03.02.03"/>
  <path class="cls-2" d="m.03,81.49c-.05-.06-.04-.14.02-.18.06-.05.13-.04.18.03.04.05.03.1-.01.14-.06.05-.12.06-.18.01"/>
  <path class="cls-2" d="m4.87,82.39c-.06.08-.12.2-.25.12-.07-.04-.07-.14-.02-.19.12-.11.19.02.27.07h0Z"/>
  <path class="cls-2" d="m8.12,101.71c-.02.08-.06.13-.14.13-.11,0-.14-.1-.11-.19.02-.07.08-.12.16-.1.07.02.11.08.09.16"/>
  <path class="cls-2" d="m3.1,81.08c-.07.04-.14.05-.19,0-.05-.06-.03-.13.03-.18.05-.04.1-.04.15,0,.06.05.06.12.01.18"/>
  <path class="cls-2" d="m11.45,95.1c-.06,0-.1-.03-.12-.08-.02-.1.02-.17.14-.17.05,0,.09.04.1.1,0,.08-.04.13-.12.15"/>
  <path class="cls-2" d="m6.57,84.46c-.02.08-.07.11-.15.09-.07-.02-.13-.07-.11-.14,0-.08.07-.12.15-.1.08.02.11.07.12.15"/>
  <path class="cls-2" d="m56.05,111.73c-.07.05-.13.13-.22.1-.06-.01-.06-.08-.03-.13.05-.09.14-.09.23-.07.04.01.05.05.02.09"/>
  <path class="cls-2" d="m4.39,99.52c.08,0,.14.04.13.13,0,.08-.05.13-.13.13-.06,0-.1-.04-.1-.1-.01-.08.02-.14.11-.15"/>
  <path class="cls-2" d="m55.78,114.12c0,.08-.05.13-.13.13s-.13-.05-.13-.13c0-.08.05-.13.13-.13s.12.05.13.13"/>
  <path class="cls-2" d="m1.56,88.87c.06,0,.1.04.1.1,0,.08-.04.13-.12.13-.06,0-.1-.04-.11-.1,0-.09.04-.13.13-.13"/>
  <path class="cls-2" d="m1.89,90.39s-.07-.03-.08-.09c-.01-.08.04-.13.12-.13.06,0,.1.04.1.11,0,.05-.04.1-.14.11"/>
  <path class="cls-2" d="m11.74,96.33c-.01.06-.04.1-.1.11-.06,0-.1-.04-.1-.1,0-.06.04-.1.1-.1.06,0,.09.04.1.1"/>
  <path class="cls-2" d="m3.34,84.98s.08.03.08.1c0,.06-.04.1-.1.1-.06,0-.1-.04-.1-.1,0-.06.04-.09.12-.1"/>
  <path class="cls-2" d="m7.12,83.94c.06,0,.1.04.1.1,0,.06-.05.1-.1.1-.06,0-.1-.04-.1-.1,0-.06.04-.09.1-.1"/>
  <path class="cls-2" d="m1,80.49c.04.13.14.27-.06.4-.09-.14,0-.27.01-.4,0,0,.05,0,.05,0"/>
  <path class="cls-2" d="m7.79,91.89c-.05,0-.1-.03-.1-.09-.01-.08.03-.13.11-.12.06,0,.1.04.09.1,0,.06-.04.08-.1.1"/>
  <path class="cls-2" d="m7.13,92.96s.05-.08.11-.06c.06.02.08.07.05.13-.01.03-.05.06-.08.06-.06,0-.09-.05-.08-.13"/>
  <path class="cls-2" d="m12.84,94.68s.07.02.08.08c.02.08-.01.14-.1.14-.05,0-.1-.04-.1-.1,0-.05.03-.09.11-.12"/>
  <path class="cls-2" d="m3,82.64s-.05-.05-.05-.07c0-.06.05-.09.11-.08.03,0,.06.05.06.08,0,.06-.05.09-.11.07"/>
  <path class="cls-2" d="m4.86,83.32c0,.05-.04.09-.1.08-.06,0-.09-.05-.07-.1,0-.02.04-.05.07-.06.06,0,.09.02.11.08"/>
  <path class="cls-2" d="m6.43,95.89c-.02.05-.05.09-.11.07s-.07-.07-.04-.12c.01-.03.05-.05.07-.05.06,0,.08.05.08.1"/>
  <path class="cls-2" d="m3.17,83.38s-.08-.01-.09-.03c-.04-.05-.01-.11.05-.13.02,0,.07,0,.09.03.04.05.02.1-.04.13"/>
  <path class="cls-2" d="m14,91.26s-.03.1-.09.1c-.05,0-.09-.04-.09-.09,0-.06.03-.1.09-.1.06,0,.09.04.09.1"/>
  <path class="cls-2" d="m4.04,90.59c-.06,0-.1-.04-.1-.1s.05-.1.1-.1c.06,0,.1.04.1.1,0,.06-.04.09-.1.1"/>
  <path class="cls-2" d="m9.39,87.4c-.06,0-.09-.04-.09-.1,0-.05.04-.1.09-.1.06,0,.09.04.09.1,0,.06-.04.09-.09.1"/>
  <path class="cls-2" d="m1.86,88.02c0,.06-.02.1-.07.1-.03,0-.07-.03-.08-.05-.01-.05.02-.1.08-.1.02,0,.05.03.07.05"/>
  <path class="cls-2" d="m5.78,92.5c-.06-.01-.09-.04-.09-.1,0-.06.04-.1.09-.1.06,0,.09.05.1.1,0,.06-.04.09-.1.1"/>
  <path class="cls-2" d="m2.84,83.98c-.02.06-.05.09-.11.1-.06,0-.1-.03-.1-.09,0-.06.05-.1.11-.1.06,0,.1.03.1.09"/>
  <path class="cls-2" d="m52.68,113.32c0,.06-.02.1-.08.1-.02,0-.07-.03-.08-.05-.02-.05.02-.1.08-.1.03,0,.05.03.08.05"/>
  <path class="cls-2" d="m2.92,91.86s-.06.04-.08.04c-.06-.02-.08-.07-.04-.12.02-.02.07-.03.09-.02.02.01.02.06.03.09"/>
  <path class="cls-2" d="m6.29,88.42s.04.04.06.06c-.02.01-.04.03-.07.04,0,0-.03-.03-.03-.03.01-.03.03-.05.04-.08"/>
  <path class="cls-2" d="m15.06,92.37s.04-.06.07-.08c.02-.02.08-.05.08-.05.06.07-.02.07-.06.09-.03.02-.07.02-.1.03h0Z"/>
  <path class="cls-2" d="m10.74,96.98s-.03-.04-.04-.06c.01,0,.03-.03.04-.02.02.02.03.04.04.06-.01,0-.02.01-.04.03"/>
  <path class="cls-2" d="m11.74,97.02s0,.03-.02.04c0,0-.04,0-.04,0-.03-.03-.02-.06.03-.06,0,0,.02.02.03.03"/>
  <path class="cls-2" d="m2.23,91.15s-.01.03-.03.03c-.04,0-.05-.02-.03-.05,0,0,.03-.01.04-.01,0,0,.01.02.02.04"/>
  <path class="cls-2" d="m5.1,82.28s.03-.02.04-.04c-.02,0-.03.02-.04.03h0Z"/>
  <path class="cls-2" d="m4.88,82.39c.07-.04.15-.07.22-.11h0c-.07.03-.15.07-.22.1h0Z"/>
  <polygon class="cls-2" points="3.25 88.9 3.24 88.88 3.25 88.9 3.25 88.9"/>
  <path class="cls-2" d="m16.04,91.72h0s0,0,0,0Z"/>
  <path class="cls-2" d="m16.03,91.72h0s0,0,0,0Z"/>
  <path class="cls-2" d="m15.06,92.37h0s0,0,0,0Z"/>
  <path class="cls-2" d="m38.74,87.78c.13-.07.26-.15.38,0,.09.11.07.24,0,.36-.11.18-.23.36-.35.53.18.21.38.19.6.16.48-.06.82.17.89.57.07.39-.32.95-.71,1.03-.29.06-.69-.18-.79-.47-.05-.16-.06-.32-.29-.39-.29-.1-.32-.23-.14-.49.1-.15.09-.23.02-.38-.09-.19-.2-.39-.19-.61.02-.33,0-.57-.45-.58-.33,0-.49-.27-.47-.68.02-.36-.07-.58-.44-.67-.16-.04-.27-.17-.34-.33h0c-.1-.01-.22.05-.28-.09.09-.22.34-.07.46-.2-.2-.22-.25-.57-.08-.75.1-.12.27-.18.36,0,.14.3.3.57.62.7.08.04.11.14.14.23q.12.33.51.22h.02c.07-.03.15-.07.21-.04.29.14.52.82.33,1.07-.25.3-.19.54,0,.81-.04.06-.08.11-.02.18,0,0,.04,0,.04,0,.05-.07,0-.13-.02-.19"/>
  <path class="cls-2" d="m28.61,80.88c.14.16.27.33.41.5.2.24-.03.44-.02.65,0,.02-.04.05-.07.07-.21.13-.87.07-1.07-.1-.08-.07-.16-.15-.23-.22-.32-.31-.31-.3.06-.57.29-.2.56-.39.93-.33h0Z"/>
  <path class="cls-2" d="m33.33,97.34c-.17.02-.28-.05-.24-.21.05-.2.05-.42.2-.6.19-.24.43-.27.64-.08.2.19.2.38,0,.6-.15.17-.38.27-.6.28"/>
  <path class="cls-2" d="m27.41,80.3c-.16-.06-.37-.02-.47-.2-.13-.22-.06-.43.19-.58.29-.19.56-.17.71.06.13.2.08.43-.14.6-.07.05-.16.08-.24.12h-.05Z"/>
  <path class="cls-2" d="m31.86,83.95c-.07.16-.03.34-.07.52-.04.21-.17.35-.4.36-.17,0-.32-.06-.39-.22-.1-.22,0-.39.17-.5.15-.1.28-.21.41-.34.05-.05.12-.09.2-.05.1.04.11.13.08.24"/>
  <path class="cls-2" d="m36.49,88.39c-.03.18-.13.31-.32.38-.17.06-.32.01-.43-.12-.16-.18-.18-.51-.04-.7.04-.05.1-.1.17-.12.21-.05.65.33.63.57"/>
  <path class="cls-2" d="m37.94,87.73c.01.21-.21.44-.44.46-.21.02-.4-.12-.42-.32-.03-.23.2-.49.45-.49.19,0,.39.16.41.35"/>
  <path class="cls-2" d="m27.59,82.12c.06.09.06.18.03.26-.05.11-.1.23-.16.34-.12.21-.32.28-.49.17-.18-.11-.17-.25.01-.49.07-.1.14-.21.23-.29.12-.11.26-.11.37,0"/>
  <path class="cls-2" d="m30.97,83.58c-.37.12-.79.05-1.11.34-.07.06-.18.04-.24-.04-.05-.06-.05-.13,0-.2.08-.12.17-.23.26-.34.08-.1.21-.14.29-.04.21.26.52.19.79.28"/>
  <path class="cls-2" d="m28.64,77.58s-.09.02-.14.02c-.23-.01-.39-.16-.55-.3-.07-.06-.05-.17.05-.22.21-.1.59.04.69.25.04.08.04.17-.05.25"/>
  <path class="cls-2" d="m33.39,82.43c-.03.14-.06.28-.18.38-.12.09-.23.09-.35.01-.08-.05-.12-.13-.1-.23.01-.14.1-.23.23-.26.15-.03.28.04.41.1h0Z"/>
  <path class="cls-2" d="m31.19,93.95c-.01.16-.09.28-.26.28-.16.01-.28-.06-.29-.24,0-.17.09-.27.26-.28.17-.02.26.07.29.24"/>
  <path class="cls-2" d="m26.63,79.39c-.09-.13-.08-.24.03-.34.13-.12.32-.15.43-.02.1.12-.03.27-.12.37-.1.1-.23.09-.33,0"/>
  <path class="cls-2" d="m32.5,83.03c.01.13-.05.19-.1.26-.13.15-.29.19-.48.13-.05-.02-.07-.08-.05-.13.05-.18.2-.23.36-.28.08-.02.17-.06.27.02"/>
  <path class="cls-2" d="m30.89,85.63c-.1,0-.17-.04-.19-.14-.02-.15.17-.34.35-.33.1,0,.17.06.16.17,0,.14-.16.29-.32.31"/>
  <path class="cls-2" d="m27.13,78.55c-.1-.1-.11-.2-.03-.29.1-.12.22-.1.33-.01.11.1.15.26.02.37-.12.1-.23,0-.32-.06"/>
  <path class="cls-2" d="m29.93,81.78c-.17.16-.36.23-.59.2-.1-.02-.24-.03-.24-.16,0-.14.15-.13.25-.12.19.02.39.06.58.09h0Z"/>
  <path class="cls-2" d="m33.45,93.48c0,.13-.07.23-.2.25-.15.02-.24-.07-.24-.21s.09-.23.23-.23c.12,0,.2.06.21.19"/>
  <path class="cls-2" d="m29.87,86.19c-.11-.03-.22-.08-.22-.21,0-.17.15-.19.27-.18.13,0,.21.09.18.21-.02.12-.12.17-.24.18"/>
  <path class="cls-2" d="m33.6,94.26c.11,0,.18.06.18.16,0,.14-.07.24-.22.25-.1,0-.17-.06-.18-.16-.01-.14.07-.23.21-.25"/>
  <path class="cls-2" d="m29.71,88.72c.13-.06.26-.12.41-.11.1,0,.18.04.19.15,0,.1-.07.16-.16.19-.21.05-.34-.04-.44-.23h0Z"/>
  <path class="cls-2" d="m30.32,82.28c0,.1-.05.18-.15.19-.1.02-.17-.05-.19-.15-.01-.11.04-.17.15-.19.11-.02.16.05.19.14"/>
  <path class="cls-2" d="m38.57,89.69c-.02.12-.09.2-.21.18-.1-.02-.14-.11-.12-.2.02-.09.08-.16.18-.15.1,0,.15.07.15.18"/>
  <path class="cls-2" d="m35.98,90.2c-.1-.03-.15-.09-.14-.19.01-.12.09-.19.21-.19.09,0,.15.08.14.18-.01.12-.09.18-.21.19"/>
  <path class="cls-2" d="m34,85.13c-.02.13-.1.19-.22.2-.07,0-.14-.05-.13-.13.02-.13.07-.25.24-.23.08,0,.1.09.1.16"/>
  <path class="cls-2" d="m34.95,88.63c-.03.1-.1.14-.2.12-.08-.02-.12-.08-.09-.16.02-.1.09-.14.2-.12.08.02.11.08.09.16"/>
  <path class="cls-2" d="m41.32,91.16c-.11,0-.16-.07-.16-.17,0-.08.04-.13.12-.15.1-.02.17.03.18.14.01.1-.04.16-.14.18"/>
  <path class="cls-2" d="m36.76,89.97c0,.11-.03.21-.15.23-.1.02-.16-.04-.16-.15,0-.12.08-.19.19-.22.09-.02.1.06.12.13"/>
  <path class="cls-2" d="m30.88,87.76c.09.02.2.05.2.14,0,.15-.14.12-.23.13-.08,0-.14-.05-.14-.13,0-.11.07-.15.17-.15"/>
  <path class="cls-2" d="m29.88,91.54c.16-.16.3-.15.43-.03,0,0,0,.07-.02.09-.13.1-.25.05-.41-.06"/>
  <path class="cls-2" d="m31.64,89.66c0,.1-.05.17-.15.18-.07,0-.14-.04-.14-.12-.01-.1.06-.17.15-.18.08,0,.13.04.14.13"/>
  <path class="cls-2" d="m32.87,86.64c.05,0,.11.01.16.02.11.03.19.09.16.22-.02.04-.06.09-.1.1-.13.04-.19-.04-.22-.15-.01-.05-.01-.1-.02-.16l.03-.03Z"/>
  <path class="cls-2" d="m32.68,85.29c.08,0,.14.04.15.12.01.1-.05.17-.15.17-.08,0-.12-.07-.12-.14,0-.08.04-.13.12-.15"/>
  <path class="cls-2" d="m28.59,84.37c.09,0,.13.06.13.14,0,.11-.06.17-.16.17-.08,0-.13-.07-.13-.14,0-.1.06-.15.16-.16"/>
  <path class="cls-2" d="m33.45,88.9c.08,0,.14.04.14.13,0,.1-.08.16-.18.15-.06,0-.11-.03-.11-.1,0-.1.05-.17.14-.19"/>
  <path class="cls-2" d="m28.61,80.88c-.07-.12-.17-.24-.02-.37.06-.05.15-.04.18.03.09.18-.06.25-.16.34h0Z"/>
  <path class="cls-2" d="m32.83,86.68c-.13-.06-.32-.06-.34-.26,0-.06.04-.1.1-.1.2.01.22.19.28.33l-.04.03Z"/>
  <path class="cls-2" d="m26.49,81.31c-.05-.06-.04-.14.02-.18.06-.05.13-.04.18.03.04.05.03.1-.02.14-.06.05-.12.06-.18.01"/>
  <path class="cls-2" d="m31.33,82.21c-.06.08-.11.2-.25.12-.07-.04-.07-.14-.01-.19.12-.11.18.02.27.07h0Z"/>
  <path class="cls-2" d="m29.56,80.9c-.07.05-.14.06-.19,0-.05-.06-.03-.13.04-.18.05-.04.1-.04.14,0,.06.05.06.12.01.18"/>
  <path class="cls-2" d="m37.91,94.91c-.06,0-.11-.03-.12-.08-.02-.1.02-.17.14-.17.06,0,.09.04.1.1,0,.08-.04.13-.12.15"/>
  <path class="cls-2" d="m33.03,84.28c-.02.08-.07.11-.15.09-.07-.02-.13-.07-.11-.14,0-.08.07-.11.15-.1.08.02.11.07.11.15"/>
  <path class="cls-2" d="m30.85,99.34c.08,0,.14.04.13.13,0,.08-.05.13-.14.13-.06,0-.1-.04-.1-.1,0-.08.02-.14.11-.15"/>
  <path class="cls-2" d="m28.02,88.69c.06,0,.1.04.11.1,0,.08-.04.13-.12.13-.06,0-.1-.04-.11-.1,0-.09.04-.13.13-.13"/>
  <path class="cls-2" d="m28.35,90.21s-.07-.03-.08-.09c-.01-.08.03-.13.12-.13.06,0,.1.04.1.11,0,.05-.04.09-.14.11"/>
  <path class="cls-2" d="m38.19,96.15c-.01.05-.04.1-.1.11-.06,0-.1-.04-.1-.1,0-.06.05-.1.1-.11.07,0,.09.04.09.1"/>
  <path class="cls-2" d="m29.79,84.8s.08.03.08.1c0,.06-.04.1-.1.1-.06,0-.1-.04-.1-.1,0-.06.04-.09.12-.1"/>
  <path class="cls-2" d="m33.57,83.76c.06,0,.1.04.1.1,0,.06-.05.1-.1.1-.06,0-.1-.04-.1-.1,0-.06.04-.09.1-.1"/>
  <path class="cls-2" d="m27.46,80.31c.04.13.14.27-.06.4-.09-.14,0-.27.01-.4,0,0,.05,0,.05,0"/>
  <path class="cls-2" d="m34.24,91.71c-.06,0-.1-.03-.11-.09,0-.08.04-.13.12-.12.06,0,.09.05.09.1,0,.06-.05.09-.1.1"/>
  <path class="cls-2" d="m33.58,92.78s.05-.08.11-.06c.06.02.08.07.05.13-.01.03-.05.06-.08.06-.06,0-.09-.05-.08-.13"/>
  <path class="cls-2" d="m39.3,94.5s.07.02.08.08c.02.08-.02.14-.1.14-.06,0-.1-.04-.1-.1,0-.05.03-.09.11-.12"/>
  <path class="cls-2" d="m29.46,82.46s-.05-.05-.05-.08c0-.06.05-.09.11-.07.03,0,.06.05.06.07,0,.06-.05.09-.11.08"/>
  <path class="cls-2" d="m31.32,83.14c0,.06-.04.09-.1.09-.05,0-.09-.05-.08-.1,0-.02.04-.05.07-.06.05,0,.09.02.1.08"/>
  <path class="cls-2" d="m32.89,95.71c-.02.05-.05.09-.11.07-.05-.02-.07-.07-.04-.12.01-.03.05-.05.07-.05.06,0,.08.04.08.1"/>
  <path class="cls-2" d="m29.62,83.2s-.07-.01-.09-.03c-.04-.05-.02-.1.04-.13.02,0,.07,0,.09.03.04.05.02.1-.05.13"/>
  <path class="cls-2" d="m40.46,91.08c0,.05-.03.1-.09.1-.06,0-.09-.04-.09-.09,0-.06.03-.1.09-.1.06,0,.09.04.09.09"/>
  <path class="cls-2" d="m30.5,90.41c-.06,0-.1-.04-.1-.1,0-.06.05-.1.1-.1.06,0,.1.04.1.1,0,.06-.05.1-.1.1"/>
  <path class="cls-2" d="m35.84,87.22c-.06,0-.09-.04-.09-.1,0-.06.04-.1.09-.1.06,0,.09.04.09.1,0,.06-.04.09-.1.1"/>
  <path class="cls-2" d="m28.31,87.84c0,.06-.02.1-.07.1-.02,0-.07-.03-.08-.05-.01-.05.02-.1.08-.1.02,0,.05.03.07.05"/>
  <path class="cls-2" d="m32.23,92.32c-.06-.01-.09-.05-.09-.11,0-.06.04-.1.09-.1.06,0,.09.05.09.11,0,.06-.03.09-.1.1"/>
  <path class="cls-2" d="m29.3,83.8c-.02.06-.06.09-.11.1-.06,0-.1-.03-.1-.09,0-.06.05-.1.11-.1.06,0,.1.03.1.09"/>
  <path class="cls-2" d="m29.38,91.67s-.06.05-.08.04c-.06-.01-.08-.07-.04-.12.02-.02.07-.03.09-.02.02.01.02.06.03.09"/>
  <path class="cls-2" d="m32.74,88.24s.04.04.06.06c-.02.01-.04.03-.07.04,0,0-.03-.02-.03-.03,0-.03.03-.05.04-.08"/>
  <path class="cls-2" d="m41.52,92.19s.04-.06.07-.08c.02-.02.08-.05.08-.05.06.07-.02.07-.05.1-.03.02-.07.02-.1.03h0Z"/>
  <path class="cls-2" d="m37.2,96.8s-.03-.04-.04-.06c.01,0,.03-.03.04-.02.02.02.03.04.04.06,0,0-.02.01-.04.03"/>
  <path class="cls-2" d="m38.19,96.84s0,.03-.02.04c-.01,0-.03,0-.04,0-.03-.03-.01-.06.03-.06,0,0,.02.02.03.03"/>
  <path class="cls-2" d="m28.69,90.97s-.01.03-.02.03c-.04,0-.05-.02-.03-.05,0,0,.03-.01.04,0,0,0,.01.02.02.03"/>
  <path class="cls-2" d="m31.56,82.1s.03-.03.04-.04c-.01,0-.03.02-.04.03h0Z"/>
  <path class="cls-2" d="m31.33,82.21c.08-.04.15-.07.22-.11h0c-.07.03-.15.07-.22.1h0Z"/>
  <path class="cls-2" d="m29.65,78.21h0s0,0,0,0Z"/>
  <polygon class="cls-2" points="29.71 88.72 29.69 88.7 29.71 88.72 29.71 88.72"/>
  <path class="cls-2" d="m42.5,91.54h0s0,0,0,0Z"/>
  <path class="cls-2" d="m42.49,91.54h0s0,0,0,0Z"/>
  <path class="cls-2" d="m56.25,110.86s-.04.03-.07.04c.01,0,.02-.02.03-.02s.03,0,.04,0h0Z"/>
  <path class="cls-2" d="m5.29,86.14c.13-.06.26-.15.38,0,.09.11.07.24,0,.35-.11.19-.23.36-.35.53.18.21.38.19.6.16.48-.06.82.17.89.57.06.39-.32.95-.71,1.02-.29.06-.69-.18-.79-.48-.06-.16-.06-.32-.29-.39-.29-.09-.32-.23-.14-.49.1-.15.09-.23.02-.38-.09-.19-.2-.39-.19-.61.02-.33,0-.57-.46-.58-.32,0-.48-.27-.46-.68.02-.36-.07-.58-.44-.67-.17-.04-.27-.17-.34-.33h0c-.1-.01-.22.05-.28-.09.09-.21.34-.06.46-.2-.2-.22-.25-.57-.08-.75.1-.12.27-.18.36.01.15.3.3.56.62.7.08.03.11.14.14.22q.12.33.51.22l.02-.02c.07,0,.16-.05.21-.03.29.14.52.83.33,1.07-.25.3-.19.54,0,.81-.04.06-.08.11-.02.18,0,.01.04.01.04,0,.05-.07,0-.12-.02-.19"/>
  <path class="cls-2" d="m8.76,85.82c.22,0,.43,0,.64,0,.31,0,.32.3.49.42.02.01.02.07.01.1-.04.25-.5.71-.76.76-.11.02-.21.03-.32.04-.45.05-.43.04-.4-.41.03-.35.05-.68.33-.93h0Z"/>
  <path class="cls-2" d="m7.55,86.37c-.15.09-.25.27-.46.24-.25-.04-.37-.22-.33-.52.04-.34.23-.54.5-.51.24.02.39.21.38.49,0,.09-.04.17-.06.26l-.04.04Z"/>
  <path class="cls-2" d="m14.6,84.93c0,.18-.02.3-.16.35-.16.07-.27-.01-.36-.14-.13-.19-.15-.54-.04-.71.05-.08.13-.12.22-.12s.15.06.18.15c.05.17.11.34.15.46"/>
  <path class="cls-2" d="m9.07,87.39c.11,0,.18.06.22.15.06.11.12.22.17.34.09.23.01.42-.18.49-.19.07-.3-.03-.37-.33-.03-.12-.07-.24-.08-.37,0-.17.08-.27.25-.28"/>
  <path class="cls-2" d="m15.66,85.99c-.02.2-.11.29-.28.29-.17,0-.24-.12-.25-.28,0-.17.07-.28.24-.29.2,0,.26.14.29.28"/>
  <path class="cls-2" d="m11.03,84.4c.03-.07.06-.14.1-.21l.02-.02c.18.04.25.19.32.34h0c.18.1.15.22.01.32-.14.1-.41,0-.47-.17-.02-.08.02-.17.02-.25"/>
  <path class="cls-2" d="m13.09,87.71c-.18-.01-.3,0-.27-.17.04-.17.08-.36.32-.36.14,0,.24.09.23.24,0,.22-.15.3-.28.29"/>
  <path class="cls-2" d="m12.16,86.58c.16,0,.25.08.26.23,0,.17-.09.27-.24.29-.15.02-.22-.1-.24-.23-.01-.17.09-.25.22-.28"/>
  <path class="cls-2" d="m12.36,97.72c-.15-.01-.23-.09-.24-.23,0-.16.06-.29.23-.3.16-.01.23.09.24.23.01.16-.06.27-.23.3"/>
  <path class="cls-2" d="m13.2,84.94c.04-.19.11-.36.35-.29.12.04.17.15.11.26-.13.24-.3.12-.46.04h0Z"/>
  <path class="cls-2" d="m12.97,86.23c-.1,0-.18-.05-.19-.15-.02-.17.08-.27.23-.31.09-.03.13.04.13.12,0,.14,0,.29-.17.34"/>
  <path class="cls-2" d="m16.26,87.28c.12.03.19.1.16.23-.03.12-.12.18-.24.15-.1-.02-.14-.1-.13-.2,0-.12.08-.19.21-.18"/>
  <path class="cls-2" d="m12.42,89.59c-.06.09-.08.14-.12.17-.09.09-.17.2-.31.13-.04-.02-.08-.09-.07-.13.01-.19.16-.21.31-.22.04,0,.09.03.2.06"/>
  <path class="cls-2" d="m10.34,87.15c.11.02.19.08.19.2,0,.1-.05.17-.15.18-.13,0-.18-.09-.19-.21,0-.09.04-.16.15-.17"/>
  <path class="cls-2" d="m14.22,89.77c.12,0,.2.05.21.19,0,.1-.05.17-.15.18-.12.01-.2-.07-.21-.19,0-.11.06-.16.15-.18"/>
  <path class="cls-2" d="m10.22,97.3c-.09-.03-.16-.09-.15-.19,0-.13.08-.21.21-.19.1,0,.16.08.15.19,0,.13-.08.19-.21.2"/>
  <path class="cls-2" d="m10.87,92.22s-.07-.04-.07-.05c-.06-.16-.04-.31.12-.41.02-.01.08,0,.09.02.1.2-.02.31-.14.43"/>
  <path class="cls-2" d="m15.69,90.95c.11.02.16.08.16.19,0,.1-.06.17-.17.17-.11,0-.15-.08-.15-.18,0-.1.05-.17.16-.17"/>
  <path class="cls-2" d="m14.86,85.57c0,.1-.04.17-.14.18-.08.01-.14-.03-.16-.1-.02-.1,0-.18.11-.2.1-.02.17.03.19.13"/>
  <path class="cls-2" d="m8.45,91.84c-.11,0-.16-.07-.16-.17,0-.08.04-.13.12-.15.1-.02.17.03.18.14,0,.1-.04.16-.14.18"/>
  <path class="cls-2" d="m16.18,86.81c-.1,0-.16-.07-.16-.17,0-.1.04-.18.14-.19.13-.01.2.07.2.19,0,.1-.07.16-.17.17"/>
  <path class="cls-2" d="m14.87,87.47c.08,0,.16.02.17.1,0,.1-.09.14-.17.16-.08,0-.15-.03-.15-.1,0-.11.09-.13.16-.15"/>
  <path class="cls-2" d="m8.76,85.81c-.13-.02-.29-.02-.3-.22,0-.08.07-.14.14-.12.19.04.15.2.16.34h0Z"/>
  <path class="cls-2" d="m7.75,87.73c-.08,0-.13-.05-.13-.13,0-.08.06-.12.14-.12.06,0,.09.04.1.1,0,.07-.03.13-.11.15"/>
  <path class="cls-2" d="m10.41,85.48c0,.08-.02.14-.11.15-.08,0-.12-.05-.14-.12,0-.08.03-.14.11-.15.08,0,.12.05.13.12"/>
  <path class="cls-2" d="m9.38,85.09c0,.08-.04.14-.12.15-.08,0-.12-.06-.11-.14,0-.06.04-.1.09-.11.08-.01.13.03.15.1"/>
  <path class="cls-2" d="m12.09,85.59c0-.08.03-.15.12-.15.06,0,.1.04.11.09,0,.09-.03.14-.12.15-.06,0-.09-.03-.11-.09"/>
  <path class="cls-2" d="m15.66,88.08s-.04.08-.1.08c-.06,0-.09-.05-.09-.1,0-.06.04-.1.1-.1.06,0,.1.04.1.13"/>
  <path class="cls-2" d="m7.59,86.34c.12.05.29.06.27.3-.17-.02-.21-.18-.3-.26,0,0,.03-.04.03-.04"/>
  <path class="cls-2" d="m16.07,87.96s.09.03.09.08c0,.04-.03.11-.07.14-.06.03-.09-.03-.11-.09,0-.05,0-.11.08-.13"/>
  <path class="cls-2" d="m7.6,91.76s-.03.1-.09.1c-.06,0-.09-.04-.09-.09,0-.06.03-.1.09-.1.06,0,.09.04.09.1"/>
  <path class="cls-2" d="m15.45,87.5c.05.02.08.07.06.11-.02.05-.07.08-.12.04-.02-.01-.04-.06-.04-.08,0-.05.04-.09.1-.08"/>
  <path class="cls-2" d="m16.04,85.4c-.03.08-.04.18-.16.18-.02,0-.06-.04-.06-.06,0-.11.09-.14.18-.16.02.01.03.03.04.04"/>
  <path class="cls-2" d="m11.34,83.91s-.03-.02-.03-.03c0-.05.02-.06.06-.04.01,0,.02.04.01.04,0,.01-.02.02-.04.03"/>
  <path class="cls-2" d="m12.5,88.33s-.02.03-.03.04c-.04,0-.07,0-.07-.05,0-.01.02-.03.03-.04.04,0,.07.01.07.05"/>
  <path class="cls-2" d="m11.42,91.8s-.02.04-.03.04c-.04,0-.07-.01-.06-.06,0-.01.02-.04.03-.04.04,0,.07.01.07.06"/>
  <path class="cls-2" d="m8.65,92.87s.04-.06.07-.08c.02-.02.08-.05.09-.05.06.07-.02.08-.05.1-.03.02-.07.02-.1.03h0Z"/>
  <path class="cls-2" d="m14.23,97.31s-.02.02-.03.03c-.02-.01-.04-.03-.05-.05,0,0,.01-.02.02-.03.02.02.04.03.06.05"/>
  <path class="cls-2" d="m15.8,97.2s-.03.01-.04.02c0-.01-.02-.04-.01-.04.03-.03.05-.02.05.02"/>
  <path class="cls-2" d="m10.27,91.78s-.04.09-.1.08c0-.01,0-.03.01-.04.03-.02.07-.03.1-.04h0Z"/>
  <path class="cls-2" d="m10.28,91.78s.04-.03.06-.04c0,0-.02.02-.02.03-.01,0-.03,0-.04,0h0Z"/>
  <path class="cls-2" d="m14.93,84.29s-.04.03-.07.04c0,0,.02-.02.03-.02.01,0,.03,0,.04,0h0Z"/>
  <path class="cls-2" d="m7.35,83.32h0s0,0,0,0Z"/>
  <path class="cls-2" d="m10.05,83.65s-.07-.08-.1-.12h0s.08.07.11.1v.02Z"/>
  <polyline class="cls-2" points="11.13 84.2 11.12 84.17 11.15 84.17 11.13 84.2"/>
  <path class="cls-2" d="m9.63,92.22h0s0,0,0,0Z"/>
  <path class="cls-2" d="m9.62,92.21h0s0,0,0,0Z"/>
  <path class="cls-2" d="m8.65,92.87h0s0,0,0,0Z"/>
</svg>