<svg width="81" height="47" viewBox="0 0 81 47" fill="none" xmlns="http://www.w3.org/2000/svg">
<path d="M16.1241 14.0757C7.26161 14.0757 0.065918 21.2632 0.065918 30.1338C0.065918 39.0045 7.25348 46.192 16.1241 46.192C24.9947 46.192 32.1823 39.0045 32.1823 30.1338C32.1823 21.2632 24.9947 14.0757 16.1241 14.0757ZM18.1812 27.5483C18.0592 27.4507 17.9373 27.3613 17.8072 27.2881L22.1083 17.2385C23.5149 17.889 24.7914 18.7671 25.9054 19.8241L18.1812 27.5483ZM17.0591 26.9629C16.8884 26.9141 16.7095 26.8734 16.5306 26.8572V15.9295C18.2381 15.9782 19.8642 16.3197 21.3684 16.9214L17.0673 26.971L17.0591 26.9629ZM15.7176 26.8572C15.5631 26.8734 15.4086 26.9059 15.2622 26.9466L11.205 16.7994C12.6197 16.2791 14.1321 15.9701 15.7176 15.9295V26.8572ZM14.5142 27.2474C14.3597 27.3369 14.2052 27.4344 14.067 27.5483L6.34284 19.8241C7.53805 18.6939 8.92027 17.7589 10.4488 17.0922L14.5142 27.2474ZM12.8393 29.7761H1.91158C1.95224 28.0768 2.29373 26.4506 2.87914 24.9546L12.9287 29.2638C12.8799 29.4346 12.8555 29.6053 12.8311 29.7842L12.8393 29.7761ZM12.8474 30.5892C12.8637 30.7355 12.8962 30.8819 12.9368 31.0201L2.79783 35.0773C2.27746 33.6707 1.96851 32.1665 1.91972 30.5892H12.8474ZM14.1158 32.7601C14.2296 32.8495 14.3516 32.9227 14.4736 32.9958L10.1724 43.0373C8.77392 42.395 7.4974 41.525 6.39162 40.4842L14.1239 32.7519L14.1158 32.7601ZM15.2216 33.3129C15.3842 33.3617 15.5468 33.3861 15.7094 33.4105V44.3382C14.0182 44.2894 12.4084 43.9479 10.9123 43.3625L15.2216 33.3129ZM16.5225 33.4105C16.6607 33.3943 16.8071 33.3699 16.9372 33.3373L20.9944 43.4845C19.5878 43.9967 18.0917 44.2976 16.5144 44.3463V33.4186L16.5225 33.4105ZM17.6933 33.0365C17.8397 32.9552 17.986 32.8658 18.1161 32.7601L25.8484 40.4924C24.6614 41.6144 23.2791 42.5332 21.7587 43.1918L17.6933 33.0365ZM19.3845 30.5892H30.3122C30.2553 32.2803 29.9138 33.9065 29.3202 35.4025L19.2707 31.1014C19.3195 30.9388 19.3601 30.768 19.3845 30.5973V30.5892ZM19.3926 29.7761C19.3764 29.6297 19.3601 29.4752 19.3195 29.337L29.4666 25.2798C29.9789 26.6945 30.2797 28.1987 30.3203 29.7842H19.3926V29.7761ZM29.182 24.5155L19.0268 28.5809C18.9455 28.4264 18.8479 28.2719 18.7422 28.1337L26.4745 20.4014C27.5965 21.5966 28.5316 22.9869 29.1902 24.5155H29.182ZM5.74929 20.4014L13.4816 28.1337C13.3922 28.2556 13.3109 28.3776 13.2296 28.5158L3.18811 24.2147C3.83857 22.8081 4.70042 21.5234 5.74929 20.4095V20.4014ZM3.07427 35.8335L13.2296 31.7681C13.3109 31.9145 13.4084 32.0608 13.5141 32.1909L5.78995 39.9151C4.65978 38.728 3.73288 37.3539 3.06616 35.8335H3.07427ZM26.4176 39.9151L18.6934 32.1909C18.7828 32.0771 18.8642 31.9632 18.9455 31.8413L28.995 36.1424C28.3446 37.5409 27.4746 38.8093 26.4257 39.9151H26.4176Z" fill="black"/>
<path d="M65.9895 14.1976C57.1921 13.1081 49.1671 19.3606 48.0857 28.1581C46.9962 36.9555 53.2487 44.9805 62.0461 46.0619C70.8436 47.1514 78.8686 40.8989 79.95 32.1015C81.0395 23.304 74.787 15.279 65.9895 14.1976ZM66.3798 27.8247C66.2741 27.719 66.1603 27.6133 66.0383 27.5157L71.5428 18.076C72.86 18.8972 74.0227 19.9216 74.9984 21.1087L66.3798 27.8247ZM65.3391 27.1092C65.1765 27.036 65.0057 26.9791 64.8269 26.9384L66.1684 16.0921C67.8515 16.3522 69.4288 16.8889 70.8436 17.6694L65.3391 27.1173V27.1092ZM64.0219 26.8327C63.8674 26.8327 63.7129 26.8327 63.5585 26.8653L60.7777 16.3035C62.2413 15.962 63.7861 15.84 65.3635 15.9945L64.0219 26.8409V26.8327ZM62.7779 27.0767C62.6072 27.1417 62.4527 27.223 62.2982 27.3206L55.5822 18.702C56.9075 17.7263 58.3954 16.9702 59.9972 16.4986L62.786 27.0767H62.7779ZM60.8103 29.3858L49.9639 28.0442C50.2159 26.3612 50.7526 24.7919 51.5169 23.3772L60.9648 28.8817C60.8997 29.0443 60.8509 29.2069 60.8103 29.3858ZM60.7208 30.1907C60.7208 30.3371 60.7371 30.4834 60.7534 30.6298L50.1916 33.4105C49.8501 31.9551 49.7281 30.4184 49.8744 28.8492L60.7208 30.1907ZM61.7128 32.4999C61.8185 32.5974 61.9242 32.6869 62.038 32.7763L56.5335 42.2161C55.2245 41.403 54.0699 40.3867 53.0942 39.2158L61.7128 32.4917V32.4999ZM62.7454 33.1828C62.8999 33.2479 63.0544 33.2967 63.2251 33.3373L61.8835 44.1837C60.2086 43.9317 58.6556 43.395 57.2409 42.6307L62.7454 33.1828ZM64.03 33.443C64.1764 33.443 64.3146 33.443 64.4528 33.4186L67.2335 43.9886C65.7781 44.3219 64.2496 44.4358 62.6885 44.2894L64.03 33.443ZM65.2415 33.2154C65.396 33.1503 65.5505 33.0853 65.6968 32.9958L72.4209 41.6144C71.1038 42.582 69.624 43.3219 68.0304 43.7934L65.2415 33.2154ZM67.2254 30.9957L78.0718 32.3372C77.8116 34.0122 77.2669 35.5814 76.4944 36.988L67.0547 31.4835C67.1278 31.329 67.1848 31.1664 67.2254 30.9957ZM67.3392 30.1907C67.3392 30.0363 67.3393 29.8899 67.323 29.7435L77.8929 26.9628C78.2263 28.4264 78.3401 29.9631 78.1856 31.5323L67.3392 30.1907ZM77.6978 26.1742L67.1197 28.963C67.0547 28.7923 66.9815 28.6378 66.8921 28.4833L75.5106 21.7592C76.4782 23.0845 77.2343 24.5724 77.6978 26.1742ZM54.948 19.2143L61.6721 27.8328C61.5664 27.9385 61.4689 28.0605 61.3794 28.1824L51.9397 22.6779C52.7527 21.3608 53.7772 20.1981 54.948 19.2143ZM50.403 34.2073L60.981 31.4185C61.0461 31.573 61.1274 31.7274 61.2168 31.8738L52.5982 38.5898C51.6226 37.2726 50.8745 35.7928 50.403 34.1992V34.2073ZM73.0633 41.1266L66.3473 32.508C66.453 32.4104 66.5506 32.3047 66.64 32.1909L76.0798 37.6954C75.2586 39.0044 74.2422 40.159 73.0633 41.1266Z" fill="black"/>
<path d="M34.7273 31.3859L14.124 31.1989L29.5073 7.88815H57.8185C58.5828 7.88815 59.2414 8.3516 59.5016 9.06711C59.7618 9.78261 59.5504 10.5632 58.965 11.051L34.7191 31.3859H34.7273ZM18.1325 29.0687L33.9386 29.2069L56.7697 10.0591H30.67L18.1243 29.0687H18.1325Z" fill="black"/>
<path d="M32.9711 30.5078L27.6129 3.58702C27.4829 2.93657 26.9056 2.45685 26.2388 2.45685H21.7832V0.28595H26.2388C27.9382 0.28595 29.4098 1.49743 29.7432 3.16423L35.1013 30.0851L32.9711 30.5078Z" fill="black"/>
<path d="M63.1195 30.4184L56.5417 6.0913C56.314 5.2457 56.4848 4.36759 57.0214 3.66834C57.5499 2.97723 58.363 2.57883 59.233 2.57883H64.7131C66.7783 2.57883 68.4532 4.25376 68.4532 6.31896C68.4532 8.38416 66.7783 10.0591 64.7131 10.0591H61.6559V7.88819H64.7131C65.5831 7.88819 66.2823 7.18082 66.2823 6.31896C66.2823 5.4571 65.5749 4.74973 64.7131 4.74973H59.233C58.9647 4.74973 58.8102 4.90421 58.7451 4.99365C58.6719 5.08309 58.5744 5.2701 58.6394 5.53028L65.2172 29.8574L63.1195 30.4266V30.4184Z" fill="black"/>
<path d="M38.7277 30.2964C38.7277 32.8901 36.6219 34.996 34.0282 34.996C31.4345 34.996 29.3286 32.8901 29.3286 30.2964C29.3286 27.7027 31.4345 25.5969 34.0282 25.5969C36.6219 25.5969 38.7277 27.7027 38.7277 30.2964Z" fill="black"/>
<path d="M30.7195 2.45684H21.548C20.9463 2.45684 20.4585 1.96899 20.4585 1.36732C20.4585 0.765645 20.9463 0.277802 21.548 0.277802H30.7195C31.3211 0.277802 31.809 0.765645 31.809 1.36732C31.809 1.96899 31.3211 2.45684 30.7195 2.45684Z" fill="black"/>
</svg>
