<svg width="78" height="74" viewBox="0 0 78 74" fill="none" xmlns="http://www.w3.org/2000/svg">
<g clip-path="url(#clip0_139_159)">
<path d="M19.5954 72.2176C17.9471 70.406 18.017 67.9412 19.782 65.6241L26.36 55.8039L23.7863 45.2449C23.6464 44.654 24.0041 44.0553 24.595 43.9076C25.1781 43.7676 25.7846 44.1253 25.9323 44.7162L28.6226 55.7494C28.6926 56.0527 28.6382 56.3715 28.4671 56.628L21.5781 66.9071C20.7617 67.98 20.0775 69.4651 21.2283 70.7325C22.1691 71.7666 23.693 71.9688 24.7427 71.0047L31.2662 61.2699C31.6083 60.7645 32.2926 60.6246 32.798 60.9667C33.3034 61.3088 33.4433 61.993 33.1012 62.4984L26.5155 72.3343C26.4766 72.3965 26.43 72.4509 26.3755 72.5053C24.4317 74.4336 21.4149 74.2159 19.5954 72.2176ZM34.9673 56.7913C34.4075 56.7913 33.9254 56.3637 33.871 55.7883C33.8476 55.5784 33.8165 55.3684 33.7543 55.1585L31.7483 47.2587C31.6006 46.6678 31.9582 46.0691 32.5492 45.9136C33.1323 45.7581 33.7466 46.1235 33.8943 46.7145L35.8926 54.5987C35.9781 54.9097 36.0403 55.244 36.0714 55.5706C36.1336 56.1771 35.6826 56.7213 35.0762 56.7758C35.0373 56.7758 35.0062 56.7758 34.9673 56.7758V56.7913ZM61.8311 51.6363C61.2791 51.6363 60.727 51.543 60.1905 51.3408L45.4485 46.2557C44.3366 46.1158 35.1539 44.9339 28.366 44.1097C25.6291 43.7754 24.3539 42.438 23.7552 41.3728C22.5501 39.2035 22.8533 36.0156 24.6494 32.1357C25.8235 29.6009 28.3038 24.1815 29.509 21.5612L24.5561 21.3124L13.865 24.6791C11.8123 25.1457 9.86069 23.9016 9.4175 21.9344C8.9743 19.9517 10.2339 18.0157 12.1855 17.5802L23.1799 14.1124C23.3587 14.0502 24.0352 13.9803 24.3695 13.9958L35.325 14.5478C35.9314 14.579 36.4057 15.0999 36.3746 15.7064C36.3435 16.3129 35.8226 16.8105 35.2161 16.7561L24.2529 16.204C24.0041 16.204 23.8874 16.2507 23.6775 16.2662L12.7687 19.7185C11.8356 19.9362 11.4235 20.7215 11.5868 21.4601C11.7579 22.2299 12.5276 22.7275 13.2974 22.5487L24.0896 19.1509C24.214 19.112 24.3539 19.0887 24.4783 19.1042L31.2585 19.4463C31.6239 19.4619 31.9582 19.664 32.1526 19.975C32.3392 20.2861 32.3626 20.6748 32.2148 21.0092C32.2148 21.0092 28.2572 29.6631 26.6788 33.0765C25.2326 36.1866 24.8827 38.8225 25.7069 40.3076C26.2122 41.2173 27.1764 41.7538 28.6537 41.9326C35.9003 42.8112 45.8683 44.0942 45.8683 44.0942C45.9383 44.102 46.0161 44.1253 46.086 44.1486L60.9603 49.2803C62.2976 49.7702 63.775 49.086 64.2648 47.7564C64.4981 47.111 64.467 46.419 64.1793 45.797C63.8916 45.175 63.3784 44.7084 62.7331 44.4674C59.4519 43.2156 50.5724 39.8955 48.7841 39.5145L33.6066 36.0389C33.0157 35.899 32.6425 35.308 32.7746 34.7093C32.9146 34.1106 33.5133 33.7452 34.0965 33.8774L49.2662 37.3452C51.5754 37.835 63.0208 42.2048 63.5106 42.3914C64.6925 42.819 65.6488 43.6976 66.1853 44.8562C66.7218 46.0147 66.7762 47.3132 66.3408 48.5106C65.9054 49.708 65.0268 50.6643 63.8683 51.2008C63.2307 51.4963 62.5465 51.6518 61.8545 51.6518L61.8311 51.6363ZM44.1889 34.756C42.8982 33.2165 43.0925 30.9072 44.6398 29.6165L46.366 28.1858L45.7128 27.696C45.223 27.3305 45.1297 26.6385 45.4951 26.1487C45.8606 25.6666 46.5526 25.5655 47.0424 25.931L48.823 27.2605C49.0951 27.4627 49.2584 27.7815 49.2662 28.1158C49.2739 28.4579 49.1262 28.7767 48.8618 28.9944L46.0627 31.3115C45.464 31.8169 45.3863 32.7188 45.8917 33.3331C46.3971 33.9318 47.3068 34.0173 47.9132 33.5042L53.115 29.1966C53.8225 28.6057 53.8225 27.3305 52.9672 26.794L46.0005 21.5845C44.7798 27.1517 40.3167 33.5508 40.1068 33.8463C39.7491 34.3439 39.0649 34.4605 38.5673 34.1184C38.0697 33.7685 37.9453 33.0765 38.2951 32.5789C38.3496 32.5011 43.7146 24.8113 44.0722 19.5318C44.1111 18.6532 45.1375 18.1712 45.8528 18.7154L54.2191 24.9746C56.2718 26.2653 56.3573 29.3677 54.5301 30.8994L49.3284 35.207C47.7966 36.4899 45.4951 36.2955 44.1966 34.756H44.1889ZM43.248 17.0437C38.7228 17.0437 35.0373 13.3582 35.0373 8.83297C35.0373 4.30771 38.715 0.629974 43.2403 0.629974C47.7655 0.629974 51.451 4.30771 51.451 8.83297C51.451 13.3582 47.7733 17.0437 43.2403 17.0437H43.248ZM43.248 2.83817C39.9435 2.83817 37.2532 5.52844 37.2532 8.83297C37.2532 12.1375 39.9435 14.8278 43.248 14.8278C46.5526 14.8278 49.2428 12.1375 49.2428 8.83297C49.2428 5.52844 46.5526 2.83817 43.248 2.83817Z" fill="black"/>
<path d="M42.315 59.9637H29.96C29.3535 59.9637 28.8559 59.466 28.8559 58.8596C28.8559 58.2531 29.3535 57.7555 29.96 57.7555H42.315C42.9293 57.7555 43.4191 58.2531 43.4191 58.8596C43.4191 59.466 42.9215 59.9637 42.315 59.9637ZM21.2905 59.9637H2.86288C2.25641 59.9637 1.75878 59.466 1.75878 58.8596C1.75878 58.2531 2.25641 57.7555 2.86288 57.7555H21.2982C21.9047 57.7555 22.4023 58.2531 22.4023 58.8596C22.4023 59.466 21.9047 59.9637 21.2982 59.9637H21.2905ZM20.2563 45.1438H8.60887C8.00239 45.1438 7.50477 44.6462 7.50477 44.0397C7.50477 43.4333 8.00239 42.9356 8.60887 42.9356H20.2563C20.8628 42.9356 21.3604 43.4333 21.3604 44.0397C21.3604 44.6462 20.8628 45.1438 20.2563 45.1438ZM66.784 40.5642C62.5076 38.9935 60.3072 34.2428 61.87 29.9741C63.4406 25.6977 68.1914 23.4895 72.46 25.0601C76.7365 26.6307 78.9369 31.3815 77.3741 35.6501C75.8034 39.9266 71.0527 42.1348 66.784 40.5642ZM63.946 30.7283C62.8031 33.854 64.4126 37.3374 67.546 38.4881C70.6873 39.6389 74.1551 38.0216 75.3058 34.8882C76.4488 31.7625 74.8393 28.2791 71.7058 27.1284C68.5646 25.9776 65.0968 27.6104 63.946 30.7283ZM21.2905 30.1374H9.05206C8.44559 30.1374 7.94796 29.6398 7.94796 29.0333C7.94796 28.4268 8.44559 27.9292 9.05206 27.9292H21.2905C21.8969 27.9292 22.3946 28.4268 22.3946 29.0333C22.3946 29.6398 21.8969 30.1374 21.2905 30.1374ZM4.33243 30.1374H1.5333C0.926822 30.1374 0.429199 29.6398 0.429199 29.0333C0.429199 28.4268 0.926822 27.9292 1.5333 27.9292H4.33243C4.94668 27.9292 5.43652 28.4268 5.43652 29.0333C5.43652 29.6398 4.9389 30.1374 4.33243 30.1374Z" fill="black"/>
<path d="M44.5232 34.4683C43.3958 33.1232 43.5513 31.1016 44.912 29.9508L47.0658 28.1625L45.9617 27.3383C45.6662 27.1206 45.604 26.7007 45.8295 26.413C46.0472 26.1176 46.4593 26.0554 46.7548 26.2808L48.5353 27.6104C48.6986 27.7271 48.7997 27.9214 48.7997 28.1236C48.7997 28.3258 48.7142 28.5201 48.5587 28.6523L45.7595 30.9694C44.9742 31.6303 44.8654 32.8199 45.534 33.613C46.2027 34.4061 47.3846 34.5072 48.1777 33.8385L53.3794 29.5309C54.328 28.7379 54.2813 27.105 53.185 26.413L44.7643 20.115C44.4688 19.8973 44.4066 19.4774 44.6321 19.182C44.8498 18.8865 45.2697 18.8321 45.5651 19.0498L53.947 25.3167C55.7975 26.483 55.8286 29.2199 54.2424 30.5495L49.0407 34.8571C47.6956 35.9923 45.6662 35.8212 44.531 34.4605L44.5232 34.4683Z" fill="black"/>
<path d="M38.8004 33.753C38.5049 33.543 38.4272 33.1309 38.6371 32.8277C38.6915 32.7499 44.1343 24.9435 44.4919 19.5396C44.5153 19.1742 44.7952 18.8787 45.1995 18.9254C45.5649 18.9487 45.8371 19.2675 45.8137 19.6329C45.4328 25.41 39.9511 33.2631 39.7179 33.5897C39.5079 33.8851 39.0958 33.9629 38.7926 33.753H38.8004Z" fill="black"/>
<path d="M61.8235 51.1931C61.3259 51.1931 60.8205 51.1075 60.3384 50.9287L45.4797 45.797C45.3787 45.797 35.5662 44.5374 28.4128 43.6665C26.3679 43.4177 24.9295 42.5702 24.1364 41.1473C23.0012 39.1102 23.3122 36.0545 25.0461 32.3145C26.3135 29.5698 29.1204 23.4351 30.1701 21.1413L24.4863 20.8537L13.7174 24.2437C11.9524 24.648 10.2263 23.5517 9.83753 21.8256C9.44876 20.0994 10.5373 18.3889 12.2712 18.0001L23.2967 14.5245C23.4288 14.4779 24.1286 14.4079 24.323 14.4234L35.2785 14.9755C35.6439 14.991 35.9238 15.3098 35.9083 15.6753C35.8927 16.0407 35.5895 16.2973 35.2085 16.3051L24.2453 15.753C24.1597 15.753 23.8798 15.7686 23.7632 15.7919L12.6056 19.2753C11.4704 19.5318 10.9105 20.5582 11.1282 21.5301C11.3537 22.5409 12.3567 23.1863 13.3675 22.953L24.1908 19.5396C24.2686 19.5163 24.3463 19.5085 24.4241 19.5085L31.2042 19.8506C31.4219 19.8662 31.6241 19.9828 31.7407 20.1694C31.8573 20.356 31.8729 20.5893 31.7796 20.7915C31.7796 20.7915 27.8219 29.4454 26.2435 32.8588C24.7195 36.1478 24.3774 38.8614 25.2871 40.4864C25.8625 41.5128 26.9666 42.1348 28.5683 42.3292C35.815 43.2078 45.7752 44.4907 45.7752 44.4907L60.7816 49.6536C61.5436 49.9335 62.3678 49.8946 63.0909 49.5602C63.8218 49.2259 64.3738 48.6194 64.646 47.8652C64.9259 47.111 64.887 46.2946 64.5527 45.5715C64.2183 44.8406 63.6119 44.2886 62.8576 44.0164C62.7332 43.9698 51.0391 39.5067 48.8542 39.0402L33.6768 35.5646C33.3191 35.4869 33.0936 35.1292 33.1791 34.7715C33.2569 34.4139 33.6068 34.1806 33.9722 34.2739L49.1341 37.7417C51.4123 38.2238 62.8343 42.5858 63.3164 42.7646C64.3972 43.1611 65.2602 43.9542 65.7501 45.0039C66.2399 46.0536 66.2866 47.2276 65.89 48.3162C65.4935 49.4047 64.6926 50.2678 63.643 50.7577C63.0598 51.0298 62.4455 51.162 61.8157 51.162L61.8235 51.1931Z" fill="black"/>
<path d="M34.9673 56.3481C34.6251 56.3481 34.3375 56.0915 34.3064 55.7494C34.283 55.5162 34.2441 55.2829 34.1742 55.0496L32.1759 47.1577C32.0826 46.8 32.3003 46.4423 32.658 46.349C33.0079 46.2557 33.3733 46.4734 33.4666 46.8311L35.4649 54.7153C35.5426 55.0108 35.5971 55.3218 35.6282 55.625C35.667 55.9905 35.3949 56.317 35.0295 56.3481C35.0061 56.3481 34.9828 56.3481 34.9673 56.3481Z" fill="black"/>
<path d="M19.9222 71.9144C18.4293 70.2738 18.5071 68.0189 20.1321 65.8807L26.8345 55.8738L24.2142 45.1283C24.1287 44.7706 24.3464 44.413 24.704 44.3274C25.0617 44.2341 25.4194 44.4596 25.5049 44.8173L28.1952 55.8505C28.2418 56.0293 28.203 56.2237 28.1019 56.3792L21.2129 66.6582C20.4665 67.6379 19.479 69.4496 20.9019 71.028C22.1071 72.3498 23.9809 72.3809 25.1239 71.2457L31.6241 61.511C31.8263 61.2077 32.2384 61.1222 32.5416 61.3321C32.8448 61.5343 32.9304 61.9464 32.7204 62.2496L26.1347 72.0854C24.2609 73.9826 21.555 73.7183 19.9144 71.9144H19.9222Z" fill="black"/>
<path d="M43.2402 16.6006C38.956 16.6006 35.4727 13.1172 35.4727 8.83298C35.4727 4.54876 38.956 1.07318 43.2402 1.07318C47.5245 1.07318 51.0078 4.55654 51.0078 8.83298C51.0078 13.1094 47.5245 16.6006 43.2402 16.6006ZM43.2402 2.39499C39.6869 2.39499 36.8022 5.27965 36.8022 8.83298C36.8022 12.3863 39.6869 15.271 43.2402 15.271C46.7936 15.271 49.6782 12.3863 49.6782 8.83298C49.6782 5.27965 46.7936 2.39499 43.2402 2.39499Z" fill="black"/>
<path d="M44.8575 34.1806C43.8778 33.0143 44.0255 31.2726 45.1996 30.2929L47.781 28.1547L46.2259 26.9884C46.1326 26.9184 46.1093 26.7785 46.1793 26.6774C46.257 26.5841 46.397 26.5608 46.4903 26.6307L48.2709 27.9603C48.3253 27.9992 48.3564 28.0614 48.3564 28.1314C48.3564 28.2014 48.3253 28.2636 48.2786 28.3102L45.4795 30.6273C44.4998 31.4515 44.3754 32.9132 45.1996 33.8929C45.9849 34.826 47.4311 35.0437 48.473 34.1728L53.667 29.8653C54.7866 28.9245 54.8177 26.9107 53.4259 26.032L45.0285 19.7573C44.9352 19.6874 44.9119 19.5474 44.9819 19.4463C45.0596 19.353 45.1996 19.3297 45.2929 19.3997L53.6747 25.6666C55.3076 26.7007 55.3076 29.0644 53.9469 30.2074L48.7452 34.5149C47.6022 35.4713 45.8527 35.3702 44.8497 34.1728L44.8575 34.1806Z" fill="black"/>
<path d="M39.0571 33.3875C38.956 33.3175 38.9326 33.1776 39.0026 33.0765C39.0571 32.9987 44.5698 25.099 44.943 19.5707C44.9508 19.4463 45.0596 19.3608 45.1763 19.3686C45.3007 19.3763 45.3862 19.4852 45.3784 19.6018C45.0052 25.2545 39.5936 33.0065 39.3603 33.3331C39.2903 33.4264 39.1581 33.4575 39.0493 33.3875H39.0571Z" fill="black"/>
<path d="M61.8234 50.7499C61.3725 50.7499 60.9215 50.6721 60.4861 50.5088L45.6196 45.3771C45.5652 45.3771 35.6205 44.0942 28.4594 43.2311C26.5622 42.9979 25.2326 42.2281 24.5173 40.9374C23.4676 39.0557 23.7942 36.0622 25.4426 32.5011C26.8499 29.4687 30.1311 22.2765 30.8387 20.7293L24.424 20.4027L13.5774 23.8161C12.0768 24.1582 10.5917 23.2096 10.2573 21.7245C9.92298 20.2394 10.856 18.7621 12.3489 18.4277L23.4132 14.9444C23.5687 14.9055 23.973 14.8666 24.2841 14.8666L35.2473 15.4187C35.3717 15.4187 35.465 15.5275 35.4572 15.6519C35.4572 15.7764 35.3406 15.8697 35.224 15.8619L24.2607 15.3098C24.1441 15.2943 23.6931 15.3565 23.5765 15.372L12.4577 18.8632C11.1515 19.1586 10.4051 20.4105 10.685 21.639C10.9649 22.8908 12.2089 23.6761 13.453 23.404L24.3152 19.9828C24.3152 19.9828 24.3618 19.975 24.3929 19.975L31.173 20.3172C31.2508 20.3172 31.313 20.356 31.3518 20.426C31.3907 20.4882 31.3985 20.566 31.3674 20.6282C31.3674 20.6282 27.4097 29.2821 25.8313 32.6955C24.2452 36.1167 23.9108 38.9702 24.8905 40.7275C25.5359 41.886 26.7488 42.5858 28.4983 42.7957C35.6594 43.6665 45.6041 44.9417 45.7051 44.9572L60.626 50.0967C61.4891 50.4155 62.4299 50.3689 63.2619 49.9879C64.0938 49.5991 64.7314 48.9071 65.0502 48.0441C65.369 47.181 65.3301 46.2402 64.9336 45.4082C64.5448 44.5762 63.8606 43.9387 62.9897 43.6199C62.8731 43.5732 51.1479 39.1024 48.9241 38.6281L33.7544 35.1603C33.6378 35.1292 33.56 35.0126 33.5912 34.8959C33.6223 34.7793 33.7311 34.7016 33.8555 34.7327L49.0174 38.2005C51.2723 38.6825 62.6554 43.0212 63.1453 43.2078C64.1172 43.5654 64.8947 44.2808 65.3379 45.2216C65.7733 46.1624 65.82 47.2199 65.4623 48.1996C65.1046 49.1793 64.3893 49.949 63.4485 50.3922C62.9275 50.6332 62.3677 50.7577 61.8079 50.7577L61.8234 50.7499Z" fill="black"/>
<path d="M34.9673 55.9049C34.8584 55.9049 34.7574 55.8194 34.7496 55.7028C34.7263 55.4384 34.6796 55.1818 34.6096 54.9253L32.6114 47.041C32.5803 46.9244 32.6502 46.8 32.7746 46.7767C32.8913 46.7378 33.0079 46.8233 33.039 46.94L35.0373 54.8242C35.115 55.0963 35.1617 55.384 35.1928 55.6639C35.2083 55.7883 35.115 55.8972 34.9906 55.9049C34.9906 55.9049 34.9751 55.9049 34.9673 55.9049Z" fill="black"/>
<path d="M20.2487 71.6189C18.8881 70.1261 18.9736 68.1356 20.482 66.1528L27.3088 55.9671L24.6418 45.0272C24.6107 44.9106 24.6885 44.7862 24.8051 44.7629C24.9217 44.7318 25.0461 44.8095 25.0695 44.9261L27.7597 55.9594C27.7753 56.0216 27.7597 56.0838 27.7286 56.1304L20.8397 66.4094C19.4634 68.2133 19.3701 70.0016 20.5753 71.3235C21.9438 72.8241 24.1053 72.8863 25.4349 71.5567L31.9973 61.7598C32.0595 61.6587 32.1995 61.6354 32.3005 61.6976C32.4016 61.7676 32.4327 61.8997 32.3627 62.0008L25.777 71.8366C24.152 73.4617 21.7261 73.2362 20.2487 71.6189Z" fill="black"/>
<path d="M43.2404 16.1573C39.205 16.1573 35.916 12.8684 35.916 8.83296C35.916 4.79755 39.205 1.51636 43.2404 1.51636C47.2758 1.51636 50.5648 4.79756 50.5648 8.84074C50.5648 12.8839 47.2836 16.1651 43.2404 16.1651V16.1573ZM43.2404 1.95178C39.446 1.95178 36.3592 5.03859 36.3592 8.83296C36.3592 12.6273 39.446 15.7141 43.2404 15.7141C47.0348 15.7141 50.1216 12.6273 50.1216 8.83296C50.1216 5.03859 47.0348 1.95178 43.2404 1.95178Z" fill="black"/>
<path d="M66.9397 40.1521C62.8888 38.667 60.805 34.1728 62.2901 30.1219C63.7441 26.1642 68.176 23.9638 72.3203 25.4722C76.3712 26.9573 78.455 31.4514 76.9699 35.5024C75.5159 39.4678 71.0684 41.6605 66.9397 40.1521ZM63.5341 30.5806C62.3056 33.9396 64.0317 37.6717 67.3907 38.908C70.7885 40.1521 74.4974 38.3637 75.7181 35.0437C76.9466 31.6847 75.2205 27.9525 71.8537 26.724C68.4404 25.4722 64.7393 27.2761 63.5341 30.5884V30.5806Z" fill="black"/>
<path d="M21.2982 29.702H9.05983C8.69439 29.702 8.39893 29.4065 8.39893 29.0411C8.39893 28.6757 8.69439 28.3802 9.05983 28.3802H21.2982C21.6637 28.3802 21.9591 28.6757 21.9591 29.0411C21.9591 29.4065 21.6637 29.702 21.2982 29.702Z" fill="black"/>
<path d="M20.2639 44.7007H8.61647C8.25103 44.7007 7.95557 44.4052 7.95557 44.0398C7.95557 43.6743 8.25103 43.3788 8.61647 43.3788H20.2639C20.6294 43.3788 20.9249 43.6743 20.9249 44.0398C20.9249 44.4052 20.6294 44.7007 20.2639 44.7007Z" fill="black"/>
<path d="M21.2984 59.5205H2.86305C2.49761 59.5205 2.20215 59.225 2.20215 58.8596C2.20215 58.4941 2.49761 58.1987 2.86305 58.1987H21.2984C21.6638 58.1987 21.9593 58.4941 21.9593 58.8596C21.9593 59.225 21.6638 59.5205 21.2984 59.5205Z" fill="black"/>
<path d="M42.3153 59.5205H29.9602C29.5948 59.5205 29.2993 59.225 29.2993 58.8596C29.2993 58.4941 29.5948 58.1987 29.9602 58.1987H42.3153C42.6807 58.1987 42.9762 58.4941 42.9762 58.8596C42.9762 59.225 42.6807 59.5205 42.3153 59.5205Z" fill="black"/>
<path d="M4.34036 29.702H1.53346C1.16802 29.702 0.872559 29.4065 0.872559 29.0411C0.872559 28.6757 1.16802 28.3802 1.53346 28.3802H4.33259C4.69803 28.3802 4.99349 28.6757 4.99349 29.0411C4.99349 29.4065 4.69803 29.702 4.33259 29.702H4.34036Z" fill="black"/>
<path d="M67.0951 39.74C63.2774 38.3404 61.3103 34.0951 62.7098 30.2774C64.0861 26.5297 68.2847 24.4692 72.1646 25.8921C75.9823 27.2917 77.9495 31.537 76.5499 35.3469C75.1582 39.1491 70.9128 41.1395 67.0873 39.7322L67.0951 39.74ZM63.1219 30.4329C61.8079 34.0173 63.6584 38.0061 67.2428 39.3279C70.8506 40.6497 74.8238 38.7681 76.1378 35.1992C77.4519 31.6147 75.6013 27.626 72.0169 26.3042C68.3625 24.9668 64.4126 26.9107 63.1219 30.4251V30.4329Z" fill="black"/>
<path d="M21.2984 29.2588H9.06C8.93559 29.2588 8.84229 29.1577 8.84229 29.0411C8.84229 28.9245 8.94337 28.8234 9.06 28.8234H21.2984C21.4228 28.8234 21.5161 28.9245 21.5161 29.0411C21.5161 29.1577 21.415 29.2588 21.2984 29.2588Z" fill="black"/>
<path d="M20.2641 44.2575H8.61664C8.49223 44.2575 8.39893 44.1564 8.39893 44.0398C8.39893 43.9231 8.50001 43.8221 8.61664 43.8221H20.2641C20.3885 43.8221 20.4818 43.9231 20.4818 44.0398C20.4818 44.1564 20.3807 44.2575 20.2641 44.2575Z" fill="black"/>
<path d="M21.2981 59.0773H2.86273C2.73832 59.0773 2.64502 58.9762 2.64502 58.8596C2.64502 58.7429 2.7461 58.6418 2.86273 58.6418H21.2981C21.4225 58.6418 21.5158 58.7429 21.5158 58.8596C21.5158 58.9762 21.4147 59.0773 21.2981 59.0773Z" fill="black"/>
<path d="M42.3149 59.0773H29.9599C29.8355 59.0773 29.7422 58.9762 29.7422 58.8596C29.7422 58.7429 29.8433 58.6418 29.9599 58.6418H42.3149C42.4393 58.6418 42.5326 58.7429 42.5326 58.8596C42.5326 58.9762 42.4316 59.0773 42.3149 59.0773Z" fill="black"/>
<path d="M4.34004 29.2588H1.53314C1.40873 29.2588 1.31543 29.1577 1.31543 29.0411C1.31543 28.9245 1.41651 28.8234 1.53314 28.8234H4.33227C4.45667 28.8234 4.54998 28.9245 4.54998 29.0411C4.54998 29.1577 4.4489 29.2588 4.33227 29.2588H4.34004Z" fill="black"/>
</g>
<defs>
<clipPath id="clip0_139_159">
<rect width="77.458" height="73.2049" fill="white" transform="translate(0.429199 0.629974)"/>
</clipPath>
</defs>
</svg>
