<svg width="76" height="80" viewBox="0 0 76 80" fill="none" xmlns="http://www.w3.org/2000/svg">
<path d="M41.1898 49.379L46.6662 50.7849L45.5454 56.1179H38.9534L40.326 54.0634L42.0291 54.5827L41.1915 49.379H41.1898ZM23.0608 45.7648L21.863 54.8852L20.3908 54.1771L19.3276 56.1179H25.4021L27.8396 49.6885L23.0625 45.7648H23.0608ZM55.2796 29.1885L38.7575 31.2203C38.0826 31.2938 37.5336 31.7571 37.3097 32.4146C37.3097 32.4146 48.5704 31.7082 51.3576 31.5683C53.9682 31.4371 54.9054 30.9038 55.2796 29.1885ZM36.6138 34.4814L49.4936 34.3415C51.1618 34.3905 51.8857 34.3415 52.5274 32.8692L37.0037 33.427L36.6138 34.4814ZM27.4829 34.5373C27.6682 34.4079 27.7696 34.1876 27.7469 33.9621L27.5791 32.2432C27.5791 32.161 27.5668 32.0806 27.5441 32.0037C27.5056 31.8778 27.4147 31.7746 27.3063 31.7012C26.9163 31.4406 26.0823 30.7552 26.0823 30.7552H26.0805C26.0805 30.7552 25.25 31.4389 24.8583 31.6994C24.7481 31.7729 24.6555 31.876 24.617 32.0019C24.5943 32.0789 24.582 32.1593 24.582 32.2415L24.4142 33.9603C24.3914 34.1859 24.4929 34.4062 24.6782 34.5356L24.7219 34.5653C24.8968 34.686 25.1363 34.6527 25.271 34.4884L25.9319 33.5511C25.9319 33.4899 25.883 33.4392 25.82 33.4392C25.5367 33.4392 25.3059 33.2102 25.3059 32.9252V32.4076H26.8517V32.9252C26.8517 33.2084 26.6226 33.4392 26.3393 33.4392C26.2781 33.4392 26.2274 33.4882 26.2274 33.5511L26.8884 34.4884C27.0248 34.6527 27.2626 34.686 27.4392 34.5653L27.4829 34.5356M57.2135 24.5251C57.189 25.6967 56.3287 27.5221 53.6412 27.8421C43.7007 29.0259 40.1616 29.8792 38.0686 30.166C37.3762 30.2604 36.7887 30.7132 36.5194 31.3585L34.0504 37.7739L36.1749 35.5672L46.3707 35.6197C48.0301 35.6109 49.6423 36.174 50.9345 37.2144L53.7863 39.5085L55.1904 39.5102V39.8197C55.1904 40.5961 54.5609 41.2255 53.7846 41.2255L53.7793 48.8562L54.8932 54.5862L53.6954 56.1197H48.0843L49.2069 54.1071L50.6547 54.5845L48.2102 49.8983L36.1749 46.8943L33.2059 56.1197H26.6908L27.969 54.0651L29.5199 54.5617L29.714 49.6868L22.2512 43.3605L20.3261 36.3139L21.0097 32.4443L19.8767 31.341V28.9997L20.8349 28.7549L22.7408 29.2252L24.3582 28.4786L26.1068 28.6832L27.885 28.4786L29.5025 29.2252L31.4084 28.7549L32.3666 28.9997V31.341L31.2335 32.4443L32.3176 35.0129L34.617 30.2918C35.0296 29.3843 35.8619 28.7391 36.8429 28.5625L57.2118 24.5269L57.2135 24.5251ZM23.1098 24.5828V27.7057H29.0583V24.5828C29.1562 24.5583 29.2297 24.4744 29.2297 24.3695C29.2297 24.2454 29.13 24.1457 29.0059 24.1457C28.8817 24.1457 28.7821 24.2454 28.7821 24.3695C28.7821 24.4534 28.831 24.5251 28.8992 24.5636L28.3746 25.4886C28.1945 25.8173 27.7172 25.8033 27.5563 25.4693L27.1629 24.5583C27.2276 24.5199 27.2731 24.4517 27.2731 24.3695C27.2731 24.2454 27.1734 24.1457 27.0492 24.1457C26.9251 24.1457 26.8254 24.2454 26.8254 24.3695C26.8254 24.4552 26.8744 24.5251 26.9443 24.5636L26.5317 25.4711C26.4495 25.632 26.2834 25.7421 26.0928 25.7456H26.0735C25.8812 25.7421 25.7151 25.632 25.6347 25.4711L25.222 24.5636C25.2919 24.5251 25.3409 24.4552 25.3409 24.3695C25.3409 24.2454 25.2412 24.1457 25.1171 24.1457C24.9929 24.1457 24.8933 24.2454 24.8933 24.3695C24.8933 24.4499 24.9387 24.5181 25.0034 24.5583L24.61 25.4693C24.4491 25.8051 23.9718 25.8173 23.7917 25.4886L23.2689 24.5636C23.3388 24.5251 23.386 24.4534 23.386 24.3695C23.386 24.2454 23.2864 24.1457 23.1622 24.1457C23.0381 24.1457 22.9384 24.2454 22.9384 24.3695C22.9384 24.4744 23.0118 24.5583 23.1098 24.5828ZM55.8391 55.4308V55.2157H55.9615C56.035 55.2157 56.1224 55.2262 56.1224 55.3206C56.1224 55.4238 56.0297 55.4308 55.9493 55.4308H55.8391ZM55.6975 55.8889H55.8391V55.5514H55.9423L56.1259 55.8889H56.2973L56.0857 55.5374C56.2028 55.5199 56.2693 55.436 56.2693 55.3224C56.2693 55.144 56.1259 55.095 55.9738 55.095H55.6975V55.8906V55.8889ZM55.9633 54.88C56.3025 54.88 56.5788 55.1562 56.5788 55.4955C56.5788 55.8347 56.3025 56.1127 55.9633 56.1127C55.6241 56.1127 55.3478 55.8364 55.3478 55.4955C55.3478 55.1545 55.6241 54.88 55.9633 54.88ZM55.9633 56.2368C56.3707 56.2368 56.7029 55.9046 56.7029 55.4972C56.7029 55.0898 56.3707 54.7576 55.9633 54.7576C55.5559 54.7576 55.2236 55.0898 55.2236 55.4972C55.2236 55.9046 55.5559 56.2368 55.9633 56.2368Z" fill="black"/>
<path d="M16.6979 20.7815L13.8286 24.1842L5.20996 16.9207L8.07758 13.518C9.01481 12.4042 10.4609 12.03 11.6516 13.0337L12.5451 13.7855C13.1659 14.3083 13.6922 15.1284 13.0837 16.1653C14.0349 15.4834 14.8357 15.7159 15.5212 16.293L16.5685 17.176C17.7716 18.1901 17.6334 19.6677 16.6962 20.7797L16.6979 20.7815ZM10.1549 15.4659C9.84362 15.2036 9.59708 15.2613 9.389 15.5061L8.9099 16.0761L10.7336 17.6131L11.2127 17.0431C11.4208 16.7965 11.4208 16.5325 11.1236 16.2825L10.1531 15.4641L10.1549 15.4659ZM13.4684 18.2583C13.1711 18.0065 12.9106 18.0537 12.7025 18.3003L12.2234 18.8703L14.0471 20.4073L14.5262 19.8373C14.7343 19.5907 14.7483 19.3372 14.4371 19.0766L13.4666 18.2583H13.4684Z" fill="black"/>
<path d="M26.575 13.5058L23.2808 2.72771L29.4462 0.842773L30.1631 3.18933L26.8933 4.1895L27.472 6.08318L29.5913 5.43447L30.2138 7.47328L28.0928 8.12199L28.7065 10.1293L31.9763 9.12916L32.7387 11.6208L26.5733 13.5058H26.575Z" fill="black"/>
<path d="M46.5839 12.7032L46.8165 11.133L45.0907 10.6451L44.4175 12.0912L41.7632 11.3393L47.0298 1.11554L50.4168 2.07375L49.4988 13.5285L46.5839 12.7032ZM47.6541 5.24911L45.9982 8.73747L47.105 9.05046L47.6523 5.24911H47.6541Z" fill="black"/>
<path d="M60.476 22.4671C60.1682 22.1069 60.7225 21.3218 61.3398 20.7938L62.7543 19.5838C62.9852 19.3862 63.1653 18.9438 62.8907 18.6221L62.4396 18.094L59.1453 20.9092L57.1782 18.6063L65.7479 11.2834L68.5403 14.5514C69.4968 15.6705 69.6157 17.3718 68.4319 18.3843L67.1712 19.4614C66.7341 19.8356 65.942 19.9772 65.1918 19.5942C65.4524 20.3951 65.2216 21.1924 64.7722 21.5771L63.2789 22.8518C62.7386 23.3134 62.4221 23.8292 62.1424 24.3346L62.1039 24.3678L60.476 22.4636V22.4671ZM66.3669 16.3874C66.6763 16.1234 66.6816 15.8961 66.4613 15.639L65.9769 15.0725L63.9958 16.7651L64.4802 17.3316C64.7005 17.5887 64.9261 17.6184 65.2338 17.3544L66.3651 16.3874H66.3669Z" fill="black"/>
<path d="M9.57045 51.827L7.60333 52.6943L8.4846 54.6912L6.36361 55.6266L5.48234 53.6298L1.37849 55.4378L0.15625 52.6663L10.4675 48.1201L12.9924 53.8484L10.8714 54.7838L9.56695 51.827H9.57045Z" fill="black"/>
<path d="M22.2373 63.2748C24.0365 64.4498 24.6905 66.4519 23.6274 68.0816L20.7248 72.5316C19.6617 74.1613 17.5756 74.3554 15.7746 73.1821C13.9894 72.0176 13.3267 70.0295 14.3898 68.3998L17.2924 63.9498C18.3555 62.3201 20.452 62.1103 22.2373 63.2766V63.2748ZM16.8902 70.2323C16.6856 70.5435 16.836 70.9037 17.1333 71.0978C17.4305 71.2919 17.8344 71.2919 18.039 70.9807L21.127 66.2473C21.3298 65.9361 21.1672 65.5672 20.8699 65.3731C20.5727 65.179 20.1827 65.1877 19.9799 65.499L16.892 70.2323H16.8902Z" fill="black"/>
<path d="M39.8311 79.4978C39.3573 79.5013 39.1125 78.5729 39.1055 77.7615L39.0897 75.8993C39.0862 75.5951 38.8642 75.1737 38.441 75.1772L37.7468 75.1824L37.7836 79.5136L34.7551 79.5381L34.6606 68.2686L38.9586 68.2319C40.4309 68.2197 41.8105 69.2234 41.8227 70.7796L41.8367 72.4372C41.8419 73.0125 41.4415 73.7101 40.6652 74.0371C41.4468 74.3519 41.9084 75.0425 41.9136 75.6335L41.9294 77.5954C41.9346 78.3071 42.127 78.8806 42.3333 79.4192V79.4699L39.8294 79.4908L39.8311 79.4978ZM38.9656 71.0786C38.9621 70.6729 38.7907 70.5208 38.4532 70.5243L37.7084 70.5313L37.7293 73.1366L38.4742 73.1296C38.8135 73.1261 38.9813 72.9722 38.9778 72.5666L38.9656 71.0786Z" fill="black"/>
<path d="M60.586 72.7746C58.6924 74.0214 56.5434 73.7731 55.3998 72.035L52.7018 67.9364C51.5583 66.1983 52.1808 64.1263 54.0744 62.8796C55.8702 61.6976 57.7412 62.0473 58.8095 63.6734L59.5072 64.7331L57.2603 66.2123L56.5539 65.1387C56.3126 64.7715 55.9034 64.6754 55.4523 64.9726C54.9994 65.2699 54.9277 65.6825 55.169 66.0497L58.1084 70.5173C58.3497 70.8845 58.7588 70.9806 59.2099 70.6834C59.6628 70.3861 59.7345 69.9735 59.4932 69.6063L58.7868 68.5327L61.0337 67.0534L61.7313 68.113C62.8015 69.7392 62.3818 71.5944 60.586 72.7764V72.7746Z" fill="black"/>
<path d="M73.2196 58.3036L62.814 53.9742L65.2899 48.0222L67.556 48.9646L66.2429 52.1208L68.0719 52.8814L68.9234 50.8338L70.8923 51.6521L70.0407 53.6997L71.9781 54.5058L73.2913 51.3496L75.6973 52.3516L73.2213 58.3036H73.2196Z" fill="black"/>
<path d="M67.5192 37.1864C67.3793 37.1864 67.2656 37.2843 67.2656 37.4067C67.2656 37.5291 67.3793 37.6253 67.5192 37.6253C67.659 37.6253 67.7745 37.5274 67.7745 37.4067C67.7745 37.2861 67.6608 37.1864 67.5192 37.1864Z" fill="black"/>
<path d="M74.8003 35.8138H63.1864C62.9521 35.8138 62.7598 36.0061 62.7598 36.2404V38.9996C62.7598 39.2339 62.9521 39.4263 63.1864 39.4263H74.8003C75.0346 39.4263 75.2269 39.2339 75.2269 38.9996V36.2404C75.2269 36.0061 75.0346 35.8138 74.8003 35.8138ZM64.9105 38.5555H64.3177V37.1357H64.1166V36.6916H64.9122V38.5555H64.9105ZM68.1785 37.8281L67.6505 38.5555H66.972L67.257 38.1131C66.9458 38.0135 66.7202 37.7424 66.7202 37.4207C66.7202 37.0168 67.0769 36.6898 67.5158 36.6898C67.9547 36.6898 68.3114 37.0168 68.3114 37.4207C68.3114 37.5711 68.2625 37.711 68.1768 37.8281H68.1785ZM70.63 38.5555H70.0355V37.1339H69.8327V36.6898H70.63V38.5538V38.5555ZM73.1234 38.5538C72.8542 38.5538 72.6181 38.4401 72.487 38.2687C72.487 38.2687 72.3611 38.1149 72.3611 37.8858H72.8489C72.8489 37.947 72.8839 38.0065 72.8839 38.0065C72.9171 38.0799 73.0133 38.1341 73.1252 38.1341C73.2651 38.1341 73.3787 38.0502 73.3787 37.947C73.3787 37.8666 73.3105 37.7984 73.2126 37.7722C73.2126 37.7722 73.1042 37.7407 72.9398 37.7372V37.3892C73.0902 37.384 73.1899 37.342 73.1899 37.342C73.2493 37.321 73.2895 37.2756 73.2895 37.2249C73.2895 37.1514 73.2161 37.0937 73.0955 37.0937C73.029 37.0937 72.9591 37.1199 72.9188 37.1602C72.9188 37.1602 72.8681 37.2021 72.8681 37.2493H72.3943C72.3943 36.9643 72.6583 36.8175 72.6583 36.8175C72.7772 36.7353 72.9363 36.6846 73.1129 36.6846C73.4784 36.6846 73.7756 36.9031 73.7756 37.1724C73.7756 37.3001 73.7109 37.4155 73.6025 37.5011C73.7651 37.6095 73.8683 37.7739 73.8683 37.9575C73.8683 38.2862 73.5343 38.5538 73.1217 38.5538H73.1234Z" fill="black"/>
<path d="M13.4175 35.8138H1.8036C1.56929 35.8138 1.37695 36.0061 1.37695 36.2404V38.9996C1.37695 39.2339 1.56929 39.4263 1.8036 39.4263H13.4175C13.6518 39.4263 13.8441 39.2339 13.8441 38.9996V36.2404C13.8441 36.0061 13.6518 35.8138 13.4175 35.8138ZM3.45248 38.5468C3.41402 38.5468 3.37904 38.545 3.34232 38.5398C3.34232 38.5398 3.05731 38.5223 2.73383 38.3142L2.92967 37.8316C3.23042 38.0484 3.41402 38.0537 3.41402 38.0537C3.53292 38.0764 3.64308 38.0589 3.65532 38.003C3.6728 37.9225 3.53292 37.8736 3.53292 37.8736C3.53292 37.8736 3.39653 37.8281 3.19894 37.7459C3.19894 37.7459 2.95939 37.662 2.8335 37.4836C2.7723 37.398 2.75131 37.3018 2.75131 37.2004C2.75131 36.9189 3.06955 36.6933 3.44374 36.6933C3.48046 36.6933 3.51718 36.6968 3.5504 36.7003C3.5504 36.7003 3.82842 36.716 4.14491 36.9189L3.98579 37.3543C3.68854 37.1444 3.50844 37.1357 3.50844 37.1357C3.35981 37.113 3.21643 37.1567 3.21643 37.2109C3.21643 37.2773 3.34232 37.307 3.36855 37.314C3.50144 37.3543 3.65706 37.4207 3.65706 37.4207C3.92809 37.5274 4.01727 37.6375 4.01727 37.6375C4.13092 37.7687 4.14841 37.8858 4.14841 38.0222C4.14841 38.3125 3.9106 38.5485 3.45248 38.5485V38.5468ZM5.31819 38.552H4.72543V36.6881H5.31819V38.552ZM8.29072 38.552H7.69622L6.76424 37.5483V38.552H6.17148V36.6881H6.76424L7.69622 37.6288V36.6881H8.29072V38.552ZM10.5708 37.2896C10.4677 37.2144 10.3278 37.1689 10.1757 37.1689C9.85743 37.1689 9.60039 37.3682 9.60039 37.613C9.60039 37.8578 9.85743 38.0572 10.1757 38.0572C10.3295 38.0572 10.4677 38.0117 10.5708 37.9365V38.4891C10.4397 38.531 10.2963 38.5538 10.1459 38.5538C9.50597 38.5538 8.98665 38.1359 8.98665 37.6218C8.98665 37.1077 9.50597 36.6898 10.1459 36.6898C10.2946 36.6898 10.4379 36.7125 10.5708 36.7545V37.2913V37.2896ZM12.4855 37.1322H11.891V37.3665H12.4855V37.8264H11.891V38.0921H12.4855V38.552H11.2982V36.6881H12.4855V37.1322Z" fill="black"/>
</svg>
