<?xml version="1.0" encoding="UTF-8"?>
<svg id="Layer_1" data-name="Layer 1" xmlns="http://www.w3.org/2000/svg" viewBox="0 0 126.96 129.98">
  <defs>
    <style>
      .cls-1, .cls-2 {
        stroke-width: 0px;
      }

      .cls-2 {
        fill-rule: evenodd;
      }
    </style>
  </defs>
  <g>
    <path class="cls-1" d="m33.64,34.22c-.13-.2-.26-.4-.39-.59-.04.02-.08.04-.13.06.08.2.14.41.23.6.55,1.09,1.05,2.22,1.92,3.12.13.14.28.26.41.39.2-.2.4-.41.61-.61-.61-.55-1.21-1.1-1.78-1.69-.36-.36-.59-.85-.88-1.28Z"/>
    <path class="cls-1" d="m25.73,36.88c-1.52-1.65-3.12-3.23-4.65-4.88-.67-.72-1.26-1.51-1.87-2.27-.57-.71-1.11-1.44-1.66-2.16-.05-.07-.08-.16-.15-.28.36.03.53.26.72.45,2.29,2.4,4.56,4.83,6.89,7.2,1.04,1.06,2.18,2.01,3.31,2.98.47.41,1.02.73,1.54,1.1.03.02.06.06.09.05.56,0,.8.46,1.12.79.48.49.95,1,1.41,1.51.27-.34.56-.68.84-1.02-1.49-1.65-3.04-3.24-4.67-4.74-1.94-1.78-3.83-3.62-5.62-5.55-1.19-1.28-2.38-2.55-3.55-3.84-1.35-1.48-2.65-3-4.01-4.47-1.33-1.44-2.7-2.85-4.07-4.27-.33-.35-.72-.65-1.07-.97-1.12-1-2.24-2-3.43-3.06,1.36-.61,2.69-1.21,3.87-2.19.39.58.76,1.13,1.11,1.69.07.11.09.31.04.41-.55.96-.17,1.78.35,2.59.49.76,1.12,1.38,1.79,1.96.16.14.3.33.39.52.53,1.09,1.24,2.05,2.03,2.97,1.01,1.19,2.23,2.11,3.39,3.12,1.94,1.7,3.85,3.43,5.59,5.34,1.47,1.62,3.02,3.17,4.46,4.82,1.4,1.59,2.73,3.24,4.08,4.88.39-.44.79-.88,1.2-1.31-.7-.76-1.41-1.52-2.1-2.29-.63-.7-1.19-1.47-1.83-2.17-1.14-1.27-2.31-2.52-3.48-3.76-.94-1-1.91-1.97-2.87-2.96-1.47-1.52-3.04-2.94-4.67-4.29-1.19-.98-2.3-2.05-3.31-3.21-.41-.47-.73-1.03-1.04-1.57-.31-.53-.59-1.07-1.1-1.45-.12-.09-.22-.2-.31-.32-.33-.49-.65-.99-.97-1.5-.09-.14-.12-.3-.18-.46.08-.09.14-.16.2-.23.45-.55.51-1.12.09-1.68-.32-.42-.72-.79-1.1-1.16-.29-.28-.62-.51-.94-.76.43-.65.82-1.25,1.21-1.84,1.61,2.79,3.78,5.08,5.85,7.45,1.48,1.7,3.22,3.13,4.81,4.72,1.26,1.26,2.53,2.51,3.79,3.77,1.23,1.24,2.44,2.49,3.66,3.74.88.91,1.63,1.92,2.3,3,.4.64.48.7,1.17.96.09.31.19.63.29.94.2.63.55,1.17,1.02,1.63.49.47,1.01.93,1.46,1.44.01.02.02.03.04.05.26-.24.51-.48.77-.7-.28-.39-.54-.79-.84-1.17-.36-.46-.66-.93-.85-1.49-.13-.36-.11-.72-.01-1.16.2.11.36.18.51.27,1.03.63,1.94,1.39,2.69,2.29.54-.43,1.1-.85,1.67-1.26-.34-.5-.75-.95-1.22-1.37-.66-.6-1.34-1.17-2.12-1.62-.08-.05-.16-.1-.24-.14-.91-.47-1.82-.67-2.71.09-.68-.38-1.31-.79-1.81-1.38-.28-.32-.56-.65-.88-.93-1.46-1.22-2.7-2.65-3.99-4.04-.24-.26-.49-.51-.74-.76-1.31-1.34-2.6-2.7-3.93-4.02-1.27-1.27-2.62-2.48-3.86-3.77-1.68-1.75-3.36-3.52-4.8-5.49-.48-.66-.88-1.38-1.69-1.8.17-.36.32-.69.49-1.07.18.16.3.27.42.38,1.31,1.23,2.64,2.45,3.93,3.7,1.52,1.47,3.02,2.97,4.53,4.45,1.11,1.09,2.24,2.17,3.34,3.28,1.45,1.46,2.88,2.95,4.31,4.43,1.33,1.37,2.66,2.74,3.99,4.12.3.31.6.61.9.91.27.27.57.46.98.45.21-.34.17-.65-.02-.95-.11-.17-.23-.34-.37-.49-1.16-1.33-2.32-2.65-3.5-3.97-1.28-1.42-2.55-2.85-3.86-4.24-.84-.89-1.79-1.68-2.63-2.56-1.17-1.22-2.3-2.48-3.42-3.74-1.23-1.37-2.45-2.74-3.82-3.97-1.13-1.02-2.18-2.13-3.26-3.2-.25-.25-.51-.49-.81-.78.03-.17.08-.38.1-.59.02-.24.05-.49,0-.71-.09-.39-.45-.46-.71-.16-.12.14-.2.32-.25.49-.3,1.09-.87,2.05-1.41,3.02-.38.68-1.01,1.08-1.78,1.22-.92.18-1.98-.6-2.13-1.55-.03-.18-.04-.37-.09-.55-.15-.51-.67-.7-1.1-.39-1.49,1.06-2.83,2.29-3.93,3.75-.79,1.05-1.1,2.26-.89,3.58.08.47.26.87.8,1.14-.12-.85-.21-1.62.14-2.36.38-.79.72-1.59,1.34-2.23.17-.18.38-.33.59-.51.03.1.05.15.04.16-.44.55-.64,1.21-.86,1.86-.06.18-.1.36-.18.53-.48.97-.21,1.87.21,2.81.22-.02.42-.01.62-.05.28-.06.45.05.47.32.04.46.29.79.58,1.11.83.93,1.52,1.97,2.21,3,.9,1.34,1.87,2.63,2.81,3.94.37.51.73,1.02,1.1,1.53-.03.03-.06.06-.09.09-.16-.16-.33-.31-.49-.48-1.14-1.22-2.26-2.46-3.42-3.67-1.08-1.12-2.19-2.22-3.3-3.32-.78-.77-1.52-1.58-2.43-2.21-.1-.07-.17-.19-.21-.31-.41-1.48-.28-2.93.25-4.36.15-.4.24-.82.38-1.22.09-.26.18-.54.33-.76.77-1.07,1.53-2.16,2.55-3.01.81-.67,1.69-1.27,2.54-1.9.07-.05.16-.09.25-.12,1.35-.38,2.69-.9,4.12-.9.66,0,1.31.2,1.97.33.09.02.19.11.25.2.74,1.15,1.73,2.09,2.67,3.06,1.95,2.03,3.95,4.03,5.95,6.01,1.54,1.53,3.15,2.99,4.69,4.52,1.91,1.9,3.79,3.82,5.64,5.78,2.06,2.19,4.05,4.44,6.11,6.63,1.08,1.16,2.17,2.3,3.26,3.45.47-.3.94-.6,1.42-.88-.66-.69-1.33-1.39-1.99-2.08-.51-.54-.98-1.11-1.47-1.68-.51-.59-.99-1.21-1.51-1.79-.95-1.05-1.92-2.07-2.88-3.1-1.26-1.37-2.48-2.76-3.77-4.1-1.53-1.59-3.08-3.17-4.69-4.68-1.38-1.3-2.74-2.61-4.07-3.96-.51-.52-1.04-1.01-1.55-1.52-1.15-1.16-2.31-2.31-3.45-3.48-1.39-1.44-2.81-2.85-4.5-3.96C13.9.16,13.16-.04,12.34,0c-1.04.06-2.05.23-3.06.53-1.08.32-2.08.71-3.02,1.35-1.99,1.35-3.54,3.09-4.89,5.05-.14.2-.25.42-.32.65C.67,8.92.08,10.22.02,11.66c-.02.5-.04.99.05,1.49.13.72.51,1.33.94,1.87.88,1.12,1.82,2.21,2.78,3.26,1.33,1.45,2.72,2.84,4.07,4.27,1.9,2.01,3.81,4.01,5.62,6.1,1.06,1.22,2.2,2.37,3.32,3.53.91.95,1.84,1.89,2.78,2.81.86.84,1.75,1.66,2.62,2.49,1.07,1.03,2.12,2.08,3.2,3.09.65.61,1.36,1.15,2,1.77.87.84,1.72,1.69,2.57,2.56.42-.66.85-1.3,1.31-1.94-1.85-2.03-3.7-4.07-5.56-6.08Z"/>
    <path class="cls-1" d="m126.78,120.15c-.2-.69-.55-1.25-1.1-1.69-.49-.4-1.1-.54-1.7-.66-.81-.15-1.63-.17-2.39.25-.06.03-.14.04-.22.07-.61-.49-1.25-.94-1.82-1.46-1.48-1.37-2.94-2.78-4.4-4.17-.26-.24-.5-.49-.76-.74-1.35-1.27-2.75-2.5-4.05-3.82-2.06-2.08-4.08-4.21-6.1-6.34-1.19-1.25-2.32-2.55-3.5-3.82-.96-1.03-1.96-2.03-2.92-3.06-1.18-1.28-2.34-2.57-3.51-3.86-1.32,1.58-2.77,3.06-4.35,4.43-.03.18-.07.36-.11.57-.1-.07-.19-.16-.28-.23-.34.29-.69.58-1.04.86,0,0,.01.01.02.02,1.66,1.62,3.32,3.24,4.97,4.87,2.21,2.17,4.41,4.36,6.62,6.53,2.17,2.13,4.3,4.31,6.31,6.6.19.22.37.46.57.67.22.23.47.42.68.65,1.24,1.41,2.46,2.83,3.7,4.23.65.74,1.35,1.43,1.99,2.18.57.67,1.09,1.39,1.61,2.06-.03.12-.04.18-.06.23-.67,1.29-.48,2.58.11,3.8.61,1.27,1.85,1.62,3.13,1.66.85.03,1.68-.24,2.46-.63,1.15-.57,2.09-1.41,3-2.28.82-.78,1.62-1.59,2.23-2.55.85-1.34,1.38-2.74.9-4.37Zm-1.37,1.72c-.34,1.02-1,1.82-1.71,2.57-1,1.07-2.03,2.12-3.21,2.99-.45.33-.94.59-1.42.86-.61.33-1.26.29-1.89.1-.41-.12-.72-.39-.86-.81-.26-.82-.32-1.67-.2-2.5,1.43-.46,2.92-.76,3.85-2.08,1.33-.88,1.65-2.35,2.17-3.76.83-.06,1.69-.02,2.52.3.32.12.56.35.65.65.17.54.3,1.08.1,1.68Z"/>
    <path class="cls-1" d="m11.69,3.64c-.85.11-1.48.67-1.58,1.53-.05.43.16.77.5.89.38.12.75-.04.95-.46.14-.3.23-.62.35-.93-.01,0-.02,0-.03-.01.01-.09.02-.18.04-.27.03-.11.07-.21.1-.32.06-.29-.06-.46-.33-.42Z"/>
    <path class="cls-1" d="m10.31,3.47c-.14.05-.33.06-.42.16-.15.18-.27.4-.34.62-.04.11.06.26.1.4.13-.04.3-.05.38-.13.16-.17.27-.39.44-.63-.05-.14-.1-.28-.15-.42Z"/>
    <path class="cls-1" d="m87.18,28.4c2.05-2.19,4.05-4.45,6.11-6.63,1.85-1.96,3.73-3.88,5.64-5.78,1.54-1.53,3.15-2.99,4.69-4.52,2-1.98,4-3.98,5.95-6.01.94-.97,1.92-1.91,2.67-3.06.06-.09.16-.18.25-.2.65-.13,1.31-.32,1.97-.33,1.43,0,2.76.51,4.12.9.09.03.18.06.25.12.85.63,1.73,1.23,2.54,1.9,1.02.85,1.78,1.94,2.55,3.01.16.22.25.5.33.76.14.4.23.82.38,1.22.53,1.43.67,2.88.25,4.36-.03.11-.11.24-.21.31-.91.62-1.65,1.44-2.43,2.21-1.11,1.1-2.22,2.19-3.3,3.32-1.16,1.21-2.28,2.45-3.42,3.67-.16.17-.32.32-.49.48-.03-.03-.06-.06-.09-.09.37-.51.73-1.02,1.1-1.53.94-1.31,1.91-2.6,2.81-3.94.69-1.03,1.39-2.06,2.21-3,.29-.33.54-.66.58-1.11.02-.27.19-.38.47-.32.19.04.4.04.62.05.42-.94.69-1.84.21-2.81-.08-.17-.12-.35-.18-.53-.21-.65-.41-1.31-.86-1.86-.01-.01.01-.06.04-.16.21.18.42.33.59.51.62.64.96,1.45,1.34,2.23.35.73.26,1.51.14,2.36.53-.27.72-.67.8-1.14.21-1.32-.09-2.52-.89-3.58-1.1-1.46-2.44-2.69-3.93-3.75-.44-.31-.95-.13-1.1.39-.05.18-.06.37-.09.55-.16.95-1.21,1.73-2.13,1.55-.76-.15-1.39-.54-1.78-1.22-.54-.97-1.11-1.93-1.41-3.02-.05-.17-.14-.35-.25-.49-.26-.3-.62-.23-.71.16-.05.23-.02.48,0,.71.02.22.07.43.1.59-.3.29-.56.53-.81.78-1.08,1.07-2.13,2.18-3.26,3.2-1.37,1.23-2.59,2.6-3.82,3.97-1.13,1.26-2.25,2.52-3.42,3.74-.85.88-1.79,1.68-2.63,2.56-1.31,1.39-2.59,2.82-3.86,4.24-1.18,1.31-2.34,2.64-3.5,3.97-.13.15-.25.32-.36.49-.2.3-.24.61-.02.95.41.02.71-.18.98-.45.3-.3.6-.6.9-.91,1.33-1.37,2.66-2.75,3.99-4.12,1.43-1.48,2.86-2.97,4.31-4.43,1.1-1.11,2.22-2.18,3.34-3.28,1.51-1.48,3-2.98,4.53-4.45,1.3-1.25,2.62-2.47,3.93-3.7.12-.11.24-.22.42-.38.17.38.32.71.49,1.07-.8.43-1.21,1.15-1.69,1.8-1.44,1.97-3.11,3.73-4.8,5.49-1.25,1.3-2.59,2.5-3.86,3.77-1.33,1.32-2.62,2.68-3.93,4.02-.25.25-.5.5-.74.76-1.28,1.39-2.53,2.81-3.99,4.04-.32.27-.6.6-.88.93-.5.59-1.13,1-1.81,1.38-.89-.75-1.8-.56-2.71-.09-.08.04-.16.09-.24.14-.78.45-1.46,1.02-2.12,1.62-.19.17-.36.35-.53.53.6.4,1.2.82,1.78,1.25.57-.54,1.21-1.01,1.89-1.44.15-.09.31-.17.51-.27.09.44.11.79-.01,1.16-.19.55-.49,1.03-.85,1.49-.05.06-.08.12-.13.18.31.26.63.52.94.79.21-.2.41-.39.62-.58.48-.46.83-1,1.02-1.63.1-.32.19-.63.29-.94.69-.26.78-.32,1.17-.96.66-1.08,1.41-2.09,2.3-3,1.22-1.25,2.43-2.5,3.66-3.74,1.25-1.26,2.53-2.51,3.79-3.77,1.59-1.58,3.32-3.02,4.81-4.72,2.07-2.37,4.24-4.66,5.85-7.45.39.59.78,1.19,1.21,1.84-.31.25-.64.48-.94.76-.39.37-.79.74-1.1,1.16-.42.57-.36,1.13.09,1.68.06.07.12.14.2.23-.06.16-.1.32-.18.46-.31.5-.64,1-.97,1.5-.08.12-.19.23-.31.32-.51.38-.79.92-1.1,1.45-.32.54-.64,1.1-1.04,1.57-1.01,1.16-2.12,2.23-3.31,3.21-1.63,1.35-3.2,2.77-4.67,4.29-.96.99-1.92,1.96-2.87,2.96-1.17,1.24-2.34,2.49-3.48,3.76-.63.7-1.2,1.47-1.83,2.17-.41.45-.82.89-1.23,1.34.4.41.78.82,1.16,1.25,1.07-1.3,2.14-2.6,3.25-3.87,1.44-1.64,2.99-3.2,4.46-4.82,1.74-1.91,3.65-3.65,5.59-5.34,1.16-1.01,2.38-1.94,3.39-3.12.79-.93,1.5-1.88,2.03-2.97.09-.19.23-.38.39-.52.67-.59,1.3-1.21,1.79-1.96.52-.81.9-1.63.35-2.59-.06-.1-.03-.3.04-.41.35-.56.73-1.11,1.11-1.69,1.19.98,2.51,1.58,3.87,2.19-1.19,1.06-2.31,2.06-3.43,3.06-.36.32-.74.62-1.07.97-1.37,1.41-2.74,2.82-4.07,4.27-1.36,1.47-2.67,2.99-4.01,4.47-1.17,1.29-2.36,2.56-3.55,3.84-1.8,1.93-3.68,3.76-5.62,5.55-1.32,1.21-2.56,2.49-3.78,3.79.28.34.55.68.82,1.03.18-.19.36-.39.54-.58.32-.33.56-.8,1.12-.79.03,0,.06-.03.09-.05.52-.36,1.06-.69,1.54-1.1,1.12-.97,2.27-1.93,3.31-2.98,2.33-2.37,4.59-4.8,6.89-7.2.19-.19.36-.42.72-.45-.06.12-.09.21-.15.28-.55.72-1.1,1.45-1.66,2.16-.61.77-1.2,1.56-1.87,2.27-1.53,1.64-3.13,3.23-4.65,4.88-1.58,1.71-3.15,3.44-4.71,5.16.45.65.9,1.31,1.31,2,.57-.57,1.13-1.14,1.72-1.7.64-.62,1.36-1.16,2-1.77,1.08-1.02,2.13-2.07,3.2-3.09.87-.84,1.76-1.65,2.63-2.49.94-.92,1.87-1.86,2.78-2.81,1.12-1.16,2.26-2.31,3.32-3.53,1.81-2.09,3.72-4.09,5.62-6.1,1.35-1.43,2.74-2.82,4.07-4.27.97-1.05,1.9-2.13,2.78-3.26.42-.54.81-1.15.94-1.87.09-.5.07-.99.05-1.49-.06-1.44-.65-2.74-1.03-4.09-.06-.23-.18-.45-.32-.65-1.35-1.95-2.9-3.7-4.89-5.05-.94-.64-1.94-1.03-3.02-1.35-1.01-.3-2.02-.47-3.06-.53-.82-.05-1.56.15-2.26.61-1.69,1.11-3.1,2.52-4.5,3.96-1.14,1.17-2.29,2.32-3.45,3.48-.51.51-1.04,1.01-1.55,1.52-1.33,1.35-2.69,2.66-4.07,3.96-1.61,1.51-3.16,3.09-4.69,4.68-1.29,1.34-2.51,2.73-3.77,4.1-.96,1.04-1.93,2.06-2.88,3.1-.52.58-1,1.19-1.51,1.79-.48.56-.96,1.14-1.47,1.68-.45.48-.91.95-1.36,1.43.5.26,1,.53,1.49.81.86-.9,1.72-1.81,2.57-2.72Z"/>
    <path class="cls-1" d="m93.84,33.69s-.09-.04-.13-.06c-.13.2-.26.4-.39.59-.29.43-.52.92-.88,1.28-.27.28-.56.55-.85.82.18.18.37.35.55.53.6-.78,1.01-1.68,1.46-2.56.1-.19.16-.4.23-.6Z"/>
    <path class="cls-1" d="m37.1,95.85c-.04-.21-.07-.39-.11-.57-1.55-1.35-3-2.83-4.35-4.43-1.17,1.29-2.33,2.58-3.51,3.86-.96,1.04-1.96,2.03-2.92,3.06-1.18,1.26-2.31,2.56-3.5,3.82-2.02,2.13-4.03,4.26-6.1,6.34-1.31,1.32-2.7,2.54-4.05,3.82-.26.24-.51.49-.76.74-1.46,1.39-2.92,2.8-4.4,4.17-.57.53-1.21.98-1.82,1.46-.08-.02-.16-.04-.22-.07-.76-.42-1.58-.4-2.39-.25-.6.11-1.2.25-1.7.66-.55.45-.89,1.01-1.1,1.69-.48,1.63.05,3.03.9,4.37.61.96,1.41,1.77,2.23,2.55.91.87,1.86,1.71,3,2.28.78.39,1.61.65,2.46.63,1.28-.04,2.51-.4,3.13-1.66.59-1.22.79-2.51.11-3.8-.02-.05-.03-.1-.06-.23.52-.67,1.04-1.39,1.61-2.06.64-.75,1.34-1.44,1.99-2.18,1.24-1.4,2.46-2.83,3.7-4.23.21-.23.46-.42.68-.65.2-.21.37-.45.57-.67,2.01-2.29,4.14-4.46,6.31-6.6,2.21-2.17,4.41-4.36,6.62-6.53,1.65-1.63,3.31-3.25,4.97-4.87,0,0,.01-.01.02-.02-.35-.28-.7-.57-1.04-.86-.1.08-.18.16-.28.23Zm-26.45,31.72c-.13.42-.45.69-.86.81-.64.19-1.28.23-1.89-.1-.49-.26-.98-.53-1.42-.86-1.19-.87-2.21-1.92-3.21-2.99-.71-.75-1.37-1.55-1.71-2.57-.2-.6-.07-1.14.1-1.68.09-.3.33-.52.65-.65.83-.33,1.69-.36,2.52-.3.53,1.42.84,2.88,2.17,3.76.93,1.32,2.41,1.62,3.85,2.08.12.83.06,1.67-.2,2.5Z"/>
    <path class="cls-1" d="m115.04,4.38c.02.09.03.18.04.27-.01,0-.02,0-.03.01.11.31.2.63.35.93.2.42.58.58.95.46.34-.11.56-.45.51-.89-.1-.85-.73-1.41-1.58-1.53-.27-.04-.39.14-.33.42.02.11.07.21.1.32Z"/>
    <path class="cls-1" d="m117.32,4.65c.04-.13.13-.29.1-.4-.07-.22-.19-.44-.34-.62-.09-.1-.28-.11-.42-.16-.05.14-.1.28-.15.42.16.24.28.46.44.63.08.09.25.09.38.13Z"/>
  </g>
  <path class="cls-2" d="m32.36,83.57c1.05-.23,1.13,1.43,1.66,2.16.5.68,1.06.79,1.28,1.36.5-.16,1.22-.9,1.32.03.82-.48-.13-1.66-.75-1.61-.65-.25-1.14-.93-1.82-1.11-.65-1.35-.38-1.69-1.25-2.68,1.05.16,1.88.95,2.45,2.44.57.48,1.16.9,1.82,1.11-.24,2.8,2.24,3.09,3.43,5.25-.66.48-.9-.45-1.3-.7-.17-.1-.23.16-.39-.14-.13-.24-.54-.33-.79-.29-.26-1.1-.93-1.13-1.27-2.02-.51.48.59,1.55.73,2.27.58,1.06,1.62.86,2.05,2.3-1.3-.3-2.41-1.13-3.37-2.34-.59-1.08-.14-1.21-.88-1.88-.26-.69-.8-.64-1.3-.7-.35-.67-.75-1.21-1.29-1.35-.09-.7-.4-1.48-.34-2.13"/>
  <path class="cls-2" d="m40.23,95.56c-.07.2-.43-.03-.39-.14.07-.21.43.03.39.14"/>
  <path class="cls-2" d="m39.73,94.49c-.26.12-.36-.23-.52-.41.27-.12.36.23.52.41"/>
  <path class="cls-2" d="m34.43,80.32c1.37-.53,1.34,1.52,2.05,2.3.92,1.01,1.56,1.91,2.88,1.27.35.65-.04,1.03.09,1.59.18.43.6.96.23,1.2.71.68,1.41,1.41,1.91,2.7-.5.2-.56-.3-.91-.55-.52-.37-.95-.6-1.68-1.5-.33-.79-.97-1.69-.73-2.27-.32-.96-1.17-.76-1.82-1.1-.22-.12-.19-.62-.52-.41-.5-1.07-1-2.15-1.5-3.22"/>
  <path class="cls-2" d="m36.59,78.65c1.24-.15,1.74,1.74,2.43,3.11.51.43,1.04.8,1.56,1.23,1.01-.4,1.2-.11,1.87-.88,0,.88.17,1.47-.96,1.43.06,1.36,1.21,3.11,1.86,4.68-1.05.44-1.35-1.19-2.22-1.25-.37-1.03-1.33-2.26-1.1-3.08-.12-.62-.63-.4-.91-.55-.3-.17-.52-.61-.91-.56-1.02-1.12-1.68-2.82-1.61-4.14"/>
  <path class="cls-2" d="m39.93,77.42c1.16-.53,1.47,1.28,2.06,2.31.53.59.98,1.39,1.68,1.5.17.65-1.35.94-1.46.36-.14-.34-.58-.16-.79-.29-.11-.06-.13-.51-.25-.54-.69-.18-.92-1.49-1.13-2.41-.09-.4-.48-.72-.11-.93"/>
  <path class="cls-2" d="m43.92,81.76c.88-.38,2.1.17,2.54-.86-.38-.8-1.12-.59-1.55-1.23-1.22-1.03-1.32-1.88-2.02-3.63,1.03-.8,1.09,1.1,1.96.72.39,1.37,1.23,1.53,1.65,2.82.42.28.7.94,1.45.3.74.88-.17,1.39-.32,2.11-.05.24.35.54-.01.66.66,1.13.61,2,.32,2.79-.58.45-.61-.22-.91-.55-.49-.54-1.3-1.61-1.25-2.68-.51-.71-.23.6-.68.64.2.52.24.98-.04,1.32.63,1.05.55,1.84.59,2.66-1.62-.07-1.67-1.49-2.43-3.11.4-.59.64-1.25.72-1.97"/>
  <path class="cls-2" d="m31.95,49.81c.05-.5,0-1.04.7-1.3-.54-.64.28-.79.04-1.32,1-.75,2.59-1.28,2.84-2.3-.31-.69-.35-.23-.66-.02-.27-.28-.6-.39-1.05-.16-1.59.91-1.16,2.55-2.61,3.5-.15-1.69.41-3.12,2.36-4.04.68-1.09,1.29-2.2,1.68-3.4.54.05.59-.58.68-.64.42-.3,1.54-.36,1.48-1.02.72-.2.5,1.03-.16,1.06.19.59-1.14.62-1.09,1.16-.75.77-1.08,1.68-1,2.75.74-.06.48-.96.69-1.3.23-.37.94-.44.82-1.04,1.11-.27,1.13-.93,2.02-1.27.62.82-.78.9-.57,1.57-1.04.29-1.15.92-1.63,1.41-.48.71-.8,1.49-.47,2.5-2.67.81-1.8,2.91-4.07,3.86"/>
  <path class="cls-2" d="m33.63,51.32c.17-.98.44-1.92.61-2.89.39-.15.78-.31.68-.64.49.1.8-.85.95-.77.48.24.18-.4.93-.11.67-.35-.03-1.2.18-1.71.32-.33.46-.73.43-1.18,1-.75,1.45-1.7,2.45-2.45.46,1.36-1.02,2-1.54,3,.08.99-.24,1.84.06,2.91-.4-.13-.79-.28-1.18-.43-.7.19-.36.76-1.22.89-.36.76-.97,1.31-1.25,2.22-.12.37.01.92-1.09,1.16"/>
  <path class="cls-2" d="m50.58,84.86c-.47-1.29-.56-2.44-.69-3.59.54-.47.6-1.12.84-1.7-.25-.32-.78.09-1.2.23-.58-.88-1.14-1.55-1.78-2.43-.2-.26-.21-.5-.52-.41.22-.74-.23-1.72-.2-2.52,1.45.31,2.21,2.5,3.2,4.06.53.79,1.38.69,2.23.59-.22,1.4-1.06,2.58-.64,4.22-.78.39-.11,1.3-1.23,1.56"/>
  <path class="cls-2" d="m35.97,52.84c-.12-.27-.25-.54-.37-.8.4-.81.47-1.76.73-2.63.85-.5.83-1.33,2.16-1.66.58-.53.17-1.42.33-2.11.76-1.06,1.33-2.19,2.86-2.96.22.4.13.96-.04,1.32-.05.12-.5.13-.54.25-.16.62-.54,1.7-.73,2.63.08,1.19.98.17,1.16,1.09-.59,1.33-1.46-.51-2.66.59-1.75,1.14-.89,3.24-2.9,4.29"/>
  <path class="cls-2" d="m39.12,53.98c-.26-.46.06-.72-.23-1.19.54-.18.04-.73.16-1.06.09-.25.58-.39.68-.64.06-.15-.06-.53.02-.66.07-.11.51-.13.53-.25,0-.03-.14-.25-.12-.27.66-.57,1.82-1.37,2.52-.2-2.31,1.02-1.14,3.3-3.55,4.27"/>
  <path class="cls-2" d="m54.05,79c-1.14-.96-2.69-2.69-2.79-4.58.36-.24-.28-.84.16-1.05,1.02-.55,1.08,1.51,1.94,1.37.03.9.57,1.99,1.11,3.08.27.9,1.03.44,1.57.57-.49,1.9-1.09,3.76-1.61,5.64-1.19.23-1.01-1.49-1.39-2.29.64-.8.03-2.07,1-2.75"/>
  <path class="cls-2" d="m42.53,55c-.59-2.21,1.2-3.57,2.91-4.95-.55-1.14-1.66-.74-2.62-.73-.09-1.46-1.05-2.54-.43-3.72.15-.3.45-.33.68-.64.19-.26-.05-1.02,1.09-1.16.54,1.9-.84,3.11.12,5.16.67-.47.54-1.49.86-2.36,1.04-.37.2-1.41,1.5-1.68.95,2.05-.93,3.07.52,5.31-.28.74-.56.07-1.34.62-.88,1.46-1.29,3.09-3.29,4.15"/>
  <path class="cls-2" d="m57.91,78.17c-.13-.25-.43-.06-.66-.02.13-.54,0-.82-.5-1.07-.6-1.37-1.53-3.88-.27-4.77.3,1.25,1.93,1.99,1.5,3.21.33.32.72.46,1.18.43-.1.48-.48.86-.31,1.44.61.78,1.8-.06,2.64.08.55-.39-.5-1.37-.61-2,.23-.51.08-1.16-.21-1.86.73-.4-.26-1.43.84-1.7.42.65.96,1.29,1.27,2.02.19.44,0,.55.1.93.1.37.43.7.5,1.07.02.08-.24.14-.14.39.13.31.21.48-.02.66.32,1.17,1.44.13,1.82,1.11-.42.83-.92,1.64-1.39,2.61-.3.62-.77.82-1.5,1.68-.15.18.17.92-.82,1.04-.04-.28-.36-.53-.37-.8-.02-.33.4-.29.41-.52.02-.41-.31-.79-.23-1.2.16-.83.85-1.68,1.12-2.49-.26-.04-.54-.22-.78-.29-1.05-.27-.85-.05-1.75,1.14-.74,1.37-.48,3.09-1.97,4.18-1.57-1.51-.18-3.73.14-5.29"/>
  <path class="cls-2" d="m46.46,56.43c.03-.8.06-1.61-.2-2.52.35-.2.5-.37.68-.64.12-.19.17-.63.28-.79.21-.31.49-.37.68-.64.4-.58.43-1.21,1.61-.75.51-.48-.6-1.55-.73-2.27.3-.19,0-.6-.11-.93.4-.67,0-1.63.98-2.09,1.28,1.63.76,3.4,1.97,5.61-.57.12-.84-.54-1.59.09-1.96,1.36-1.29,3.69-3.58,4.93"/>
  <path class="cls-2" d="m37.73,37.01c-.33.09-.27-.2-.12-.27.33-.09.28.2.12.27"/>
  <path class="cls-2" d="m38.43,35.7c-.08.2-.44-.03-.39-.15.07-.2.43.04.39.15"/>
  <path class="cls-2" d="m50.8,57.34c.1-.91-.31-2.63.23-3.7.06-.12.5-.13.53-.25.11-.41.35-1.42,1.5-1.68-.79-1.18-.56-1.98-1.11-3.07.44-.8-.08-1.96,1.12-2.48.68,1,.91,2.26,1.11,3.07.24.96.85,1.89.86,2.54-1.78.13-2.13,2.21-2.22,3.64-1.01.52-.82,1.48-2.04,1.93"/>
  <path class="cls-2" d="m64.91,83.39c-1.01-2.44,1.97-3.44,2-5.5-.13-.26-.43-.06-.66-.02.24-1.03-.42-2.38-.7-3.59.87-.58-.22-1.86,1.25-2.21.45.47.06.84.23,1.2,0-.02,1.14.7.89,1.22-.02.04-.26.09-.27.12,0,.12.3.44.25.54-.18.38.27,1.61.2,2.52.33.51.97.2,1.44.3-.02.66-.99.98-.44,1.84-.34.1-.45.28-.41.52-1.41.38-1.02,1.41-2.43,1.78-.37.46-.33,1.06-1.36,1.29"/>
  <path class="cls-2" d="m68.88,83.5c-.75-.87.81-.89.18-1.71,1.15-.92,1.99-1.95,2.86-2.97-.15-.81-.8-.26-1.18-.43-.16-1.17.19-2.16.09-3.31.05-.9.09-2.64,1.13-2.48-.3.34.44,1.05-.03,1.32.19.5.59.41.77.95-.29.19,0,.59.11.93-.49.64.12,1.68-.2,2.37.63.7,1.69.23,2.21,1.25-1.64.59-2.31,2.17-3.52,2.94-.75.48-1.77.37-2.41,1.13"/>
  <path class="cls-2" d="m72.82,84.27c-.13-.27-.25-.54-.37-.8.71-1.45,2.54-2.49,3.41-3.88-.19-.5-.59-.41-.77-.95.48-.28.26-.99.3-1.45.02-.19.27-.08.14-.4-.21-.52.57-1.5.32-2.11-.05-.13.05-1.17.69-1.31.25.54.5,1.07.75,1.61.31.75-.08.98-.18,1.71-.05.39-.04.7-.16,1.05-.06.18.2,1.03-.31,1.45.35.46.9.4,1.16,1.09-1.47,1.09-2.02,2.53-4.33,3.32-.15.25-.3.49-.68.65"/>
  <path class="cls-2" d="m65.88,57.49c-.33-.71-.66-1.43-1-2.14.36-.46-.02-1.19.57-1.57-.52-.78.54-.99-.21-1.86.36-.17.71-.33,1.07-.5-.89-1.36-3.91-3.71-2.11-5.21,1.23,2.31,3.46,1.91,4.36,5.14-.46.26-.72-.06-1.2.23-.5,1.97.27,4.4-1.48,5.91"/>
  <path class="cls-2" d="m84.23,88.42c-.39-.51.15-.69.55-.91.05.24-.15.39-.02.66-.18.08-.36.17-.53.25"/>
  <path class="cls-2" d="m69.49,51.23c.54-.25,1.07-.5,1.6-.75-1.31-1.3-2.82-2.04-3.71-4.47.67-.41.95.24,1.3.7.64-.54.79.29,1.32.04.48.93,1.32.84,1.8,1.77.52-.19.59.83,1.03.82.39-.04.71.09.91.56-.54.25-1.07.5-1.61.75-.62,1.04-.38,2.38-.23,3.7-.51.63-.62,1.4-.59,2.23-1.11.18-.81-.84-1.02-1.48-.21-.65-.46-.95-.48-1.73,0-.14.3-.7.29-.79-.1-.47-.5-.87-.62-1.34"/>
  <path class="cls-2" d="m75.72,55.5c-1.14-1.82-.54-3.02-1.59-4.81.37-.31-.16-.95.82-1.03-.98-1.89-3.5-2.46-3.71-4.47.82-.62.9.78,1.58.57,1.44.71,2.79,1.71,4.02,3.02-.7.19-.36.76-1.22.9.89,1.51.32,2.49,1.22,4-1.16.32-.13,1.44-1.11,1.82"/>
  <path class="cls-2" d="m91.1,78.68c-.07.2-.43-.03-.39-.14.08-.2.43.03.39.14"/>
  <path class="cls-2" d="m95.05,79.45c-.26.11-.36-.23-.52-.41.26-.11.36.23.52.41"/>
  <path class="cls-2" d="m91.81,48c-.08-.18-.17-.35-.25-.54.18-.08.36-.16.54-.25.08.18.17.36.25.53-.18.08-.36.17-.54.25"/>
  <path class="cls-2" d="m93.1,49.36c-.27.11-.37-.23-.52-.41.26-.12.36.23.52.41"/>
  <path class="cls-2" d="m94.01,49.92c-.08-.18-.17-.36-.25-.54.18-.08.36-.16.54-.25.08.18.16.35.25.54-.18.08-.35.17-.53.25"/>
  <path class="cls-2" d="m24.3,68.4c.44-1.66-.14-3.03,0-4.9.03-.33.24-.52.29-.78.03-.13-.3-.43-.25-.54.17-.35.11-.66.16-1.05.02-.21.27-.61.28-.79,0-.16-.22-.37-.25-.54-.06-.34.14-.7.16-1.06.07-1,.12-2.02.21-3.04.5-.56.52-1.29.72-1.97.29-1.01.46-1.89.88-3.02.31-.86.78-1.74,1.27-2.88.55-1.27.9-2.67,1.43-3.93.08-.19.4-1.14.69-1.3.39-.21.61-1.5.98-2.09.15-.24.52-.58.82-1.04.11-.17.18-.66.28-.79.11-.13.4-.14.54-.25.38-.31.99-1.55,1.64-2.07.14-.12.42-.12.54-.25.13-.14.18-.67.28-.79.25-.28.89-.21.68-.64,5.14-2.24,10.44-5.71,15.69-7.64,2.45-.91,4.93-.96,7.06-1.66.67-.4,1.2-.44,1.45.3,1.43-.69,2.77-.74,3.99-.55.13.02.81-.16.93-.1.04.02.09.26.13.27.63,0,1.03-.44,1.59-.09.58-.18.86.48,1.44.3.57-.12.95.26,1.59-.09.42.82,1.14.32,1.84.45,1.56.29,3.48.99,5.4,1.07.59.21,1.01.9,1.7.84.58.02.9.78,1.57.57.91.75,2.02.97,3,1.54.69-.06.93,1.09,1.7.84.99.54,2.04.93,3.15,1.15.55.12,1.07.32,1.57.57,1.2,2,2.64,3.34,4.11,4.61.55.96.8,2,1.37,2.95.52.87,1.19,1.35,1.66,2.16.96,1.66,1.62,3.53,2.5,5.36.4.83,1,1.42,1.39,2.29-.03-.06-.2.24-.14.4.21.51.72,1.28,1,2.14.54,1.67.76,3.48,1.06,5.05.17.91.47,1.58.59,2.66.01.11-.25.12-.14.4.28.69.29,1.19.21,1.86-.25.26.18,1.33.22,1.86.01.22.12.63.11.93-.01.2-.29.62-.29.78,0,1.1.26,2.26-.09,3.31-.14.69-.2,1.41.07,2.25-.09.31-.48.6-.55.91-.06.27.18.64.11.93-.08.31-.48.6-.56.91-.06.27.18.62.11.93-.08.31-.48.6-.56.91-.06.28.18.62.11.93-.13.6-.71,1.08-.44,1.84-.84.96-1.15,2.1-1.8,3.13-.4.33-.29.8-.43,1.18-.13.37-.25.83-.43,1.18-.06.12-.5.13-.54.25-.08.31.05.92-.43,1.18-.99.53-1.41,3.76-1.99,4.84-.06.12-.5.13-.53.25-.1.41-.7.65-1.36,1.29-.11.11-.2.71-.28.78-.21.19-.58.2-.8.38-.34.14-.17.58-.28.79-.07.11-.51.13-.54.25-.01.04.15.23.12.26-.3.39-1.05.54-1.09,1.16-.6.38-1.3.34-2,.61.09-.04,0,.33-.15.39-.25.11-.72-.02-1.2.23-.96.51-1.89,1.43-2.97,2.04-1.97,1.1-4.29,2.18-6.43,3-2.07.78-4.15,1.14-6.13,1.55-.95.2-2.05.6-2.93.71-.97.12-1.87.22-2.64-.07-1.5.42-3.23.49-4.77.27-.19-.03-.08-.27-.39-.14,0,0-.83.12-.93.1-.16-.03-.37-.39-.52-.41-.13-.02-.43.3-.54.25-.04-.02-.08-.27-.12-.27-.12,0-.44.3-.54.25-.05-.02-.07-.26-.13-.27-.12-.01-.42.3-.53.25-.51-.25-1.28-.22-1.96-.71-1.46.18-2.57-.35-3.95-.77-.31-.09-.67-.34-1.18-.43-1.5-.76-3.28-.77-4.57-2.11-.79.21-1.49-.54-2.36-.85-.72.15-1.28-1.31-2.09-.99-.32.13-.83-.5-1.3-.69-.57-.23-1.27-.22-1.84-.45-.61-.24-1.06-.64-1.7-.84-.41-.66-1.04-1.55-1.66-2.16-.08-.08-.15-.51-.25-.54-.3-.08-.28-.12-.52-.41,0,0-.61-.67-.64-.68-1.08-.27-1.24-2.12-2.29-3.5-.15-.2-.38-.15-.52-.41-.39-.72-.34-1.46-.73-2.27.03.06-.31,0-.39-.14-1.3-2.44-2.98-6.3-3.86-8.97-.02-.08-.28-.46-.25-.53.29-.61-.5-1.9-.72-2.93-.01-.06.24-.15.14-.39-.04-.1-.42-.71-.37-.8.11-.22.04-.78-.09-1.59-.13-.87.03-1.9-.59-2.66m8.95,21.28c.47.76.92,1.56,1.68,1.5-.41-.9-1.03-1.25-1.68-1.5m3.74,3.81c-.16-.18-.26-.52-.52-.41-.12-.29-.44-.62-.39-.15.74.83,1.57,1.41,2.47,1.79-.18.16-.21.37-.02.67.61-.06,1.05.38,1.43.96.63-.1,1.13.16,1.72.18.22.82,1.14.57,1.69.84.13.06.13.43.25.53.07.06.56-.03.66.02.33.15.58.4.91.55,1.27.58,2.66.9,3.79,1.83.76-.08,1.31.5,1.97.71.73.24,1.57.16,2.23.59,1.02.33,2.15.53,3.29.75.23.04.54.26.79.29.74.09,1.2.11,1.72.18.12.02.57.05.66.02.31-.13.21.12.39.14.35.03.55-.13.93-.11.19.01.57.28.79.29.36.02.63-.14.93-.11.97.09,1.62.14,2.65.08,1.04-.07,2.68-.01,3.72-.43.27-.11.28.16.39.14,1.15-.13,2.02-.56,3.2-.84,1.45-.34,3.58-.8,4.67-1.2,2.42-.89,5.74-2.69,7.38-3.77,1.39-.92,2.31-1.37,3.63-2.02.39-.37,1.72-.41,1.48-1.02-1.01.15.05-.67-.11-.93-.45.23-.78.11-1.06-.16.56-.74,1.77-.36,1.9-1.54-1.02.57-1.79.44-2.52.2.33-.55,1.54-.78,1.63-1.41-.93.1-2.14.99-2.79.32.48-.2.81-.45.95-.77,1.2-.49,2.93-.66,2.57-2.18-1,.38-1.06,1.1-1.9,1.53-.68-.36-1.71.23-2.38-.2,1.1-.79,2.34-1.52,2.72-2.57-1.33.41-3.14,2.1-3.86.82.81-.67,2.29-1.09,1.91-2.19-1.16.32-1.41.97-2.29,1.39-.38.07-.49-.07-.92.11-.25.1-.33-.16-.39-.14-.51.1-1.26.97-1.73.48.33-.32.49-.71.82-1.03.96,0,1.09-.7,2.41-1.12.13-.62,1.12-.93.84-1.7-1.78-.48-2.66,1.56-4.16,2.27-.29.14-.25-.15-.39-.14-.79.02-1.63,1.28-2,.61.18-1.49,2.81-2.09,3.27-3.48-.44.17-.53-.58-1.05-.16-.55-.72-.45.52-1.07.5-.3.25-.26.42-.68.64-.25.13-.07.33-.14.39-.21.19-.58.2-.8.38-.36.27-.17.39-.54.25-1.16-.42-1.44,1.17-2,.61-.46-.63.23-.53.56-.91.03-.03-.14-.22-.13-.27.02-.1.46-.17.53-.25.7-.74,1.69-1.58,2.57-2.18.36-.94-.63-.31-.89-1.21,1.71-1.54.52-4.11,2.67-5.49-.17,1.12.44,2.54.43,3.72-.57.53-.41,1.33-.72,1.96.18,1.14,1.02.46,1.29,1.36.16.18.26.52.52.41-.17-.36-.33-.72-.5-1.07,1.37-.76,1.1-2.12,1.41-3.27.9-.14.79-1.76,1.36-1.29-.27.72.02,1.64.2,2.52-.4,1.19-1.46,2.14-.89,3.68.63.17.87.18,1.46-.36.31-.28.13-.49.29-.79.4-.76,1.02-1.12.72-1.96.82-.14.29-.79.82-1.04-.07-.23.51-1.23.68-.64.52.79-.54.99.21,1.86-.55.54-.46,1.32-.72,1.96-.28.71-.89,1.31-.98,2.09,1.86.17,2.57-1.89,2.99-2.7.33-.63.57-2.14,1.5-1.68.16.36-.35.46-.29.78-.35.17-.03.59-.29.79.39.81.39,1.48-.05,1.98-.86.13-.52.7-1.22.9.87.83-1.17.61-.31,1.44,1.03-.21.84-.88,1.75-1.14-.05-.39.09-.71.55-.91-.23-.9.93-1.29.59-2.23.36-.17.71-.34,1.07-.5-.3,1-.31,2.11-.48,3.16-.53.11-.49.62-.82,1.04-.11.14-.42.11-.54.25-.07.09.06.54-.02.66-.24.34-1.08.31-.55.91.68-.27,1.31-.56,1.48-1.02-.18-.59.88-.72.7-1.3.51-.34.19-.97.7-1.3-.04-.24.08-.42.41-.52.31-.12.24-.58.54-.25.91.85-.44.88-.3,1.45-.15.06-.2.36.12.27.17.29-.19.6.25.54.01-.96.33-1.81,1.12-2.48.47.35,1.11.2,1.86-.22.58-.63.94-1.46,1.25-2.21.34-.83.62-1.72.73-2.63.54-.28.73-.86.96-1.43.16-.38.46-1.13.57-1.57.04-.14-.25-.38-.25-.54,0-.1.39-.39.41-.52.03-.16-.25-.37-.25-.54,0-.11.39-.39.41-.52.02-.17-.25-.37-.25-.54,0-.11.4-.38.41-.52.02-.16-.09-.89-.1-.93-.13-.31.14-.22.14-.39.02-.47-.23-.75-.24-1.2,0-.04.25-.08.27-.12.05-.1-.25-.42-.25-.54,0-.04.25-.08.26-.12.03-.06-.1-.89-.11-.93-.04-.65-.28-1.41-.34-2.13-.13-1.7-.14-3.3-.39-5.04-.06-.43-.12-.63-.23-1.2-.11-.58-.26-.94-.36-1.46,0-.03.26-.1.27-.12.14-.39-.43-.8-.23-1.2.04-.08-.33-.7-.38-.8-.1-.23.15-.34.14-.39-.11-.47-.48-.88-.62-1.34-.1-.29.07-.41.02-.66-.08-.38-.4-.7-.5-1.07-.12-.44.04-.61-.23-1.2-.6-1.3-1.73-2.24-2.29-3.51-.8-.25-1.69-.24-2.5-.47-.25-.53-.5-1.07-.75-1.61-1.46.45,1.12,1.1.21,1.86-.59-.02-1.11-.21-1.57-.57.9-.69-.32-1.56-.48-1.73-.13-.14-.13-.39-.25-.54-.15-.18-.33-.08-.39-.14-.24-.24-.23-.89-.5-1.07-.17-.11-.79.37-.93.1.72,1.7,1.97,1.92,2.54,4.04-.29.19-.09.56.11.93-.36.17-.72.34-1.07.5-.13-1.66-1.57-4.51-3.2-4.06.63.91,1.32,1.69,2.05,2.3-.19.6.23,1.42-.05,1.98.12.27.25.54.38.81.11.31.58.24.25.54-.56.35-.78-.5-1.04-.82-.68-.84-1.24-1.8-1.64-2.82-.71-.09-1.09-1.07-2.11-.32.79.68,1.3,2.13,1.9,3.36-.39.75.63,2.01-.08,2.64-1.49-1.42-2.4-6.98-4.64-4.36.87.86,1.56,3.27,1.48,3.88-.05.39-.13.45-.29.79-.14.29.77,1.05.23,1.2-.33-1.12-.96-1.45-1.54-1.89.56-.47-.81-1.63-.34-2.13-.52.19-.59-.83-1.04-.82.36-.07.56-1.2-.11-.93.37.8-1.11.93-1.23,1.55.35.94.29,1.74.98,2.8-.59.38.43,1.35-.57,1.57.08.55.38,1.18.09,1.59-1.68-1.31-1.33-4.48-3.02-5.77.74.2.33-.18,1.07-.5-.31-1.04-1.37-.93-1.68-1.5-.26-.48-.83-.44-1.04-.82-.23-.43-1.62-.72-1.02-1.48.48.09.87.46,1.3.69.58-.36,1.04-.4,1.32.04.51.43,1.04.81,1.55,1.23.64.29,1.07,1.14,2.11.32-.35-.87-1.13-1.2-1.8-1.77-.57-.49-1.95-.69-1.54-1.9.49.09.87.47,1.31.7.48.1,1.11-.21,1.45.3,1.2.51,3.33,3.09,4.07,1.04-.48-.05-.68-.57-1.04-.82-.04-.03-.22.14-.27.12-.12-.03-.14-.47-.25-.53-.23-.13-.52-.11-.79-.29-.64-.42-2.24-.5-1.8-1.77.51-.19.59.83,1.04.82,1.88-1.09,2.58,1.05,4.22.64-.35-1.02-1.88-1.31-2.2-1.91-.21-.4-1.47-.31-.77-.95.52-.19.59.83,1.04.82,1.54-.56,2.44.64,3.68.89-.7-1.53-2.08-1.23-2.84-2.59.92-.27,1.51.32,2.52-.19.65.64,1.18,1.66,2.21,1.25-.51-.83-1.25-1.05-1.94-1.37-.57-.68-1.6-.1-1.94-1.37.89.19,1.87.14,2.77.33-.28-.9-2.11-.67-1.68-1.5.83-.01,1.62.05,2.38.2-.29-1.07-2.31-.55-1.95-1.38.44-.65,1.33.22,1.07-.5-1.01.15.05-.67-.11-.93-.76.26-.87-.52-1.31-.7-.58-.24-1.36.07-1.84-.45-1.4-1.23-3.12-1.61-4.56-2.77-1.91-.26-3.53-1.43-5.5-2-.35-.1-.94.05-1.32-.04-.5-.12-.71-.33-1.18-.43-.37-.08-.45-.13-.79-.29-.11-.05-.41.28-.54.25-.15-.03-.35-.36-.52-.41-.31-.1-.58.16-.93.11-.38-.05-.83-.38-1.18-.43-.06,0-.21.11-.27.12-.32.13-.2-.12-.39-.14-1.51-.21-3.4-.17-4.63-.13-.19.01-.52-.07-.66-.01-.28.11-.26-.15-.39-.15-.91.07-1.8.49-2.66.59-.04,0-.21-.15-.39-.14-.63.03-1.42.14-1.86.21-1.6.25-3.3.7-4.67,1.19-1.1.4-1.69.51-2.27.73-1.99.76-4.39,1.73-6.43,3-.33.2-.26.41-.68.64-.83.46-1.86.73-2.68,1.25-.45.29-.49.53-.95.77-.49.26-.71.01-1.2.23-.31.14-.32.41-.68.64-.33.21-.73.3-1.07.5.04.23.24.53-.02.66-.85.26-1.05.63-1.22.89-.35.55-.95.9-.97,1.43.99-.7,1.78-1.91,2.95-1.37-.71.33-1.43.67-2.14,1,.1.33-.29.49-.68.64-.25.5-.29,1.08-.96,1.43-.1-.36.16-.74-.52-.41-.31.36-1.34,1.56-.58,1.57-.04-.27.86-1.26.95-.76-.47,1.01-1.86,1.69-1.93,2.86,1.1-.34,1.08-1.09,2.29-1.39-.11-.33-.4-.74-.11-.93.76-1.21,1.41-2.46,3.4-3.22.62.02.52-1.22,1.07-.5.02.9-1.42,1.26-2.43,1.79.1.33-.29.49-.68.64.04.23-.08.41-.41.52-.07.72-.31,1.37-.71,1.96-2,.83-2,2.39-2.88,3.63-.11-.44.63-1.66-.09-1.59.18.25-.05.24-.14.39-.07.12-.11.33-.14.39-.16.24-.54.37-.68.64-.14.28-.05.75-.16,1.05-.16.44-.65,1.17-.7,1.31-.04.1-.32.71-.29.78.16.39-.48.59-.55.91.3.48-.07.71-.16,1.06-.23.86-1.35,3.32-1.16,3.8.12.31-.13.21-.14.39-.06.75-.07,1.21-.18,1.71-.05.23-.24.85-.16,1.06.16.39,0,1.03-.04,1.32-.02.2-.26.56-.29.79-.05.4,0,.71-.16,1.05-.05.11.25.41.25.54-.01.19-.28.56-.28.78-.02.59.2,1.26.21,1.86.03,1.1.21,2.2-.09,3.31.99,2.88.71,6.34,1.86,9.58.48,1.34,1.02,2.67,1.23,3.34.45,1.45,1.55,2.72,1.89,3.36.31.55.51,1.11.75,1.61.26.52.29,1.31,1.02,1.48-.14-.42-.56-.95-.23-1.2-.14-.42-.56-.94-.23-1.2.53,1.79,1.51,2.39,2.29,3.5-.76.25-1.01-.9-1.7-.84.53,1,.92,2.38,1.93,2.04.68.65-.08-1.04.43-1.18.33.71.67,1.43,1,2.14.33-.1.49.29.64.68.69-.07,1.11.62,1.7.84.55-.41,1.5,1.07,1.02,1.48-.38-.73-1.59-1.24-1.95-1.38-.35-.14-.58-.34-.91-.55-.68-.44-.82-1.42-1.68-1.5.27,1.11.92,1.13,1.27,2.02.59-.18.87.47,1.3.7.38-.15,1.53.56,1.04.82-.58.18-.86-.48-1.45-.3m-1.56-1.23c.46.54.17-.59-.25-.54-.4.05.1.25.13.27.07.05.07.2.12.27m-4.78-48.03c-.04.11.32.34.39.14.04-.11-.32-.34-.39-.14m2.91-4.95c-.04.11.32.35.4.14.04-.11-.32-.35-.4-.14m59.7,47.54c.58-.12,1.04-1.36.43-1.18.28,1.14-2.68,1.1-1.79,2.46.8-.3,1.33-.7,1.36-1.28m-.71,1.97c-.04.1.32.34.39.14.04-.11-.32-.35-.39-.14m.95-.77c-.04.11.32.35.4.15.04-.11-.32-.35-.4-.15m.68-.64c-.04.11.32.35.4.14.04-.1-.32-.35-.4-.14m-2.06-45.71c-.46-.99-.98-1.79-1.95-1.37.45,1.01,1.15,1.34,1.95,1.37m.12.27c-.04.11.32.35.39.14.04-.1-.32-.34-.39-.14m-1.37-2.95c-.1.27.39.14.39.15,1.88,1.51-.18-.75-.39-.15m1.68,1.5c-.04.11.32.35.39.14.04-.11-.32-.35-.39-.14"/>
  <path class="cls-2" d="m24.3,68.4c.44-1.66-.14-3.03,0-4.9.03-.33.24-.52.29-.78.03-.13-.3-.43-.25-.54.17-.35.11-.66.16-1.05.02-.21.27-.61.28-.79,0-.16-.22-.37-.25-.54-.06-.34.14-.7.16-1.06.07-1,.12-2.02.21-3.04.5-.56.52-1.29.72-1.97.29-1.01.46-1.89.88-3.02.31-.86.78-1.74,1.27-2.88.55-1.27.9-2.67,1.43-3.93.08-.19.4-1.14.69-1.3.39-.21.61-1.5.98-2.09.15-.24.52-.58.82-1.04.11-.17.18-.66.28-.79.11-.13.4-.14.54-.25.38-.31.99-1.55,1.64-2.07.14-.12.42-.12.54-.25.13-.14.18-.67.28-.79.25-.28.89-.21.68-.64,5.14-2.24,10.44-5.71,15.69-7.64,2.45-.91,4.93-.96,7.06-1.66.67-.4,1.2-.44,1.45.3,1.43-.69,2.77-.74,3.99-.55.13.02.81-.16.93-.1.04.02.09.26.13.27.63,0,1.03-.44,1.59-.09.58-.18.86.48,1.44.3.57-.12.95.26,1.59-.09.42.82,1.14.32,1.84.45,1.56.29,3.48.99,5.4,1.07.59.21,1.01.9,1.7.84.58.02.9.78,1.57.57.91.75,2.02.97,3,1.54.69-.06.93,1.09,1.7.84.99.54,2.04.93,3.15,1.15.55.12,1.07.32,1.57.57,1.2,2,2.64,3.34,4.11,4.61.55.96.8,2,1.37,2.95.52.87,1.19,1.35,1.66,2.16.96,1.66,1.62,3.53,2.5,5.36.4.83,1,1.42,1.39,2.29-.03-.06-.2.24-.14.4.21.51.72,1.28,1,2.14.54,1.67.76,3.48,1.06,5.05.17.91.47,1.58.59,2.66.01.11-.25.12-.14.4.28.69.29,1.19.21,1.86-.25.26.18,1.33.22,1.86.01.22.12.63.11.93-.01.2-.29.62-.29.78,0,1.1.26,2.26-.09,3.31-.14.69-.2,1.41.07,2.25-.09.31-.48.6-.55.91-.06.27.18.64.11.93-.08.31-.48.6-.56.91-.06.27.18.62.11.93-.08.31-.48.6-.56.91-.06.28.18.62.11.93-.13.6-.71,1.08-.44,1.84-.84.96-1.15,2.1-1.8,3.13-.4.33-.29.8-.43,1.18-.13.37-.25.83-.43,1.18-.06.12-.5.13-.54.25-.08.31.05.92-.43,1.18-.99.53-1.41,3.76-1.99,4.84-.06.12-.5.13-.53.25-.1.41-.7.65-1.36,1.29-.11.11-.2.71-.28.78-.21.19-.58.2-.8.38-.34.14-.17.58-.28.79-.07.11-.51.13-.54.25-.01.04.15.23.12.26-.3.39-1.05.54-1.09,1.16-.6.38-1.3.34-2,.61.09-.04,0,.33-.15.39-.25.11-.72-.02-1.2.23-.96.51-1.89,1.43-2.97,2.04-1.97,1.1-4.29,2.18-6.43,3-2.07.78-4.15,1.14-6.13,1.55-.95.2-2.05.6-2.93.71-.97.12-1.87.22-2.64-.07-1.5.42-3.23.49-4.77.27-.19-.03-.08-.27-.39-.14,0,0-.83.12-.93.1-.16-.03-.37-.39-.52-.41-.13-.02-.43.3-.54.25-.04-.02-.08-.27-.12-.27-.12,0-.44.3-.54.25-.05-.02-.07-.26-.13-.27-.12-.01-.42.3-.53.25-.51-.25-1.28-.22-1.96-.71-1.46.18-2.57-.35-3.95-.77-.31-.09-.67-.34-1.18-.43-1.5-.76-3.28-.77-4.57-2.11-.79.21-1.49-.54-2.36-.85-.72.15-1.28-1.31-2.09-.99-.32.13-.83-.5-1.3-.69-.57-.23-1.27-.22-1.84-.45-.61-.24-1.06-.64-1.7-.84-.41-.66-1.04-1.55-1.66-2.16-.08-.08-.15-.51-.25-.54-.3-.08-.28-.12-.52-.41,0,0-.61-.67-.64-.68-1.08-.27-1.24-2.12-2.29-3.5-.15-.2-.38-.15-.52-.41-.39-.72-.34-1.46-.73-2.27.03.06-.31,0-.39-.14-1.3-2.44-2.98-6.3-3.86-8.97-.02-.08-.28-.46-.25-.53.29-.61-.5-1.9-.72-2.93-.01-.06.24-.15.14-.39-.04-.1-.42-.71-.37-.8.11-.22.04-.78-.09-1.59-.13-.87.03-1.9-.59-2.66m8.95,21.28c.47.76.92,1.56,1.68,1.5-.41-.9-1.03-1.25-1.68-1.5m3.74,3.81c-.16-.18-.26-.52-.52-.41-.12-.29-.44-.62-.39-.15.74.83,1.57,1.41,2.47,1.79-.18.16-.21.37-.02.67.61-.06,1.05.38,1.43.96.63-.1,1.13.16,1.72.18.22.82,1.14.57,1.69.84.13.06.13.43.25.53.07.06.56-.03.66.02.33.15.58.4.91.55,1.27.58,2.66.9,3.79,1.83.76-.08,1.31.5,1.97.71.73.24,1.57.16,2.23.59,1.02.33,2.15.53,3.29.75.23.04.54.26.79.29.74.09,1.2.11,1.72.18.12.02.57.05.66.02.31-.13.21.12.39.14.35.03.55-.13.93-.11.19.01.57.28.79.29.36.02.63-.14.93-.11.97.09,1.62.14,2.65.08,1.04-.07,2.68-.01,3.72-.43.27-.11.28.16.39.14,1.15-.13,2.02-.56,3.2-.84,1.45-.34,3.58-.8,4.67-1.2,2.42-.89,5.74-2.69,7.38-3.77,1.39-.92,2.31-1.37,3.63-2.02.39-.37,1.72-.41,1.48-1.02-1.01.15.05-.67-.11-.93-.45.23-.78.11-1.06-.16.56-.74,1.77-.36,1.9-1.54-1.02.57-1.79.44-2.52.2.33-.55,1.54-.78,1.63-1.41-.93.1-2.14.99-2.79.32.48-.2.81-.45.95-.77,1.2-.49,2.93-.66,2.57-2.18-1,.38-1.06,1.1-1.9,1.53-.68-.36-1.71.23-2.38-.2,1.1-.79,2.34-1.52,2.72-2.57-1.33.41-3.14,2.1-3.86.82.81-.67,2.29-1.09,1.91-2.19-1.16.32-1.41.97-2.29,1.39-.38.07-.49-.07-.92.11-.25.1-.33-.16-.39-.14-.51.1-1.26.97-1.73.48.33-.32.49-.71.82-1.03.96,0,1.09-.7,2.41-1.12.13-.62,1.12-.93.84-1.7-1.78-.48-2.66,1.56-4.16,2.27-.29.14-.25-.15-.39-.14-.79.02-1.63,1.28-2,.61.18-1.49,2.81-2.09,3.27-3.48-.44.17-.53-.58-1.05-.16-.55-.72-.45.52-1.07.5-.3.25-.26.42-.68.64-.25.13-.07.33-.14.39-.21.19-.58.2-.8.38-.36.27-.17.39-.54.25-1.16-.42-1.44,1.17-2,.61-.46-.63.23-.53.56-.91.03-.03-.14-.22-.13-.27.02-.1.46-.17.53-.25.7-.74,1.69-1.58,2.57-2.18.36-.94-.63-.31-.89-1.21,1.71-1.54.52-4.11,2.67-5.49-.17,1.12.44,2.54.43,3.72-.57.53-.41,1.33-.72,1.96.18,1.14,1.02.46,1.29,1.36.16.18.26.52.52.41-.17-.36-.33-.72-.5-1.07,1.37-.76,1.1-2.12,1.41-3.27.9-.14.79-1.76,1.36-1.29-.27.72.02,1.64.2,2.52-.4,1.19-1.46,2.14-.89,3.68.63.17.87.18,1.46-.36.31-.28.13-.49.29-.79.4-.76,1.02-1.12.72-1.96.82-.14.29-.79.82-1.04-.07-.23.51-1.23.68-.64.52.79-.54.99.21,1.86-.55.54-.46,1.32-.72,1.96-.28.71-.89,1.31-.98,2.09,1.86.17,2.57-1.89,2.99-2.7.33-.63.57-2.14,1.5-1.68.16.36-.35.46-.29.78-.35.17-.03.59-.29.79.39.81.39,1.48-.05,1.98-.86.13-.52.7-1.22.9.87.83-1.17.61-.31,1.44,1.03-.21.84-.88,1.75-1.14-.05-.39.09-.71.55-.91-.23-.9.93-1.29.59-2.23.36-.17.71-.34,1.07-.5-.3,1-.31,2.11-.48,3.16-.53.11-.49.62-.82,1.04-.11.14-.42.11-.54.25-.07.09.06.54-.02.66-.24.34-1.08.31-.55.91.68-.27,1.31-.56,1.48-1.02-.18-.59.88-.72.7-1.3.51-.34.19-.97.7-1.3-.04-.24.08-.42.41-.52.31-.12.24-.58.54-.25.91.85-.44.88-.3,1.45-.15.06-.2.36.12.27.17.29-.19.6.25.54.01-.96.33-1.81,1.12-2.48.47.35,1.11.2,1.86-.22.58-.63.94-1.46,1.25-2.21.34-.83.62-1.72.73-2.63.54-.28.73-.86.96-1.43.16-.38.46-1.13.57-1.57.04-.14-.25-.38-.25-.54,0-.1.39-.39.41-.52.03-.16-.25-.37-.25-.54,0-.11.39-.39.41-.52.02-.17-.25-.37-.25-.54,0-.11.4-.38.41-.52.02-.16-.09-.89-.1-.93-.13-.31.14-.22.14-.39.02-.47-.23-.75-.24-1.2,0-.04.25-.08.27-.12.05-.1-.25-.42-.25-.54,0-.04.25-.08.26-.12.03-.06-.1-.89-.11-.93-.04-.65-.28-1.41-.34-2.13-.13-1.7-.14-3.3-.39-5.04-.06-.43-.12-.63-.23-1.2-.11-.58-.26-.94-.36-1.46,0-.03.26-.1.27-.12.14-.39-.43-.8-.23-1.2.04-.08-.33-.7-.38-.8-.1-.23.15-.34.14-.39-.11-.47-.48-.88-.62-1.34-.1-.29.07-.41.02-.66-.08-.38-.4-.7-.5-1.07-.12-.44.04-.61-.23-1.2-.6-1.3-1.73-2.24-2.29-3.51-.8-.25-1.69-.24-2.5-.47-.25-.53-.5-1.07-.75-1.61-1.46.45,1.12,1.1.21,1.86-.59-.02-1.11-.21-1.57-.57.9-.69-.32-1.56-.48-1.73-.13-.14-.13-.39-.25-.54-.15-.18-.33-.08-.39-.14-.24-.24-.23-.89-.5-1.07-.17-.11-.79.37-.93.1.72,1.7,1.97,1.92,2.54,4.04-.29.19-.09.56.11.93-.36.17-.72.34-1.07.5-.13-1.66-1.57-4.51-3.2-4.06.63.91,1.32,1.69,2.05,2.3-.19.6.23,1.42-.05,1.98.12.27.25.54.38.81.11.31.58.24.25.54-.56.35-.78-.5-1.04-.82-.68-.84-1.24-1.8-1.64-2.82-.71-.09-1.09-1.07-2.11-.32.79.68,1.3,2.13,1.9,3.36-.39.75.63,2.01-.08,2.64-1.49-1.42-2.4-6.98-4.64-4.36.87.86,1.56,3.27,1.48,3.88-.05.39-.13.45-.29.79-.14.29.77,1.05.23,1.2-.33-1.12-.96-1.45-1.54-1.89.56-.47-.81-1.63-.34-2.13-.52.19-.59-.83-1.04-.82.36-.07.56-1.2-.11-.93.37.8-1.11.93-1.23,1.55.35.94.29,1.74.98,2.8-.59.38.43,1.35-.57,1.57.08.55.38,1.18.09,1.59-1.68-1.31-1.33-4.48-3.02-5.77.74.2.33-.18,1.07-.5-.31-1.04-1.37-.93-1.68-1.5-.26-.48-.83-.44-1.04-.82-.23-.43-1.62-.72-1.02-1.48.48.09.87.46,1.3.69.58-.36,1.04-.4,1.32.04.51.43,1.04.81,1.55,1.23.64.29,1.07,1.14,2.11.32-.35-.87-1.13-1.2-1.8-1.77-.57-.49-1.95-.69-1.54-1.9.49.09.87.47,1.31.7.48.1,1.11-.21,1.45.3,1.2.51,3.33,3.09,4.07,1.04-.48-.05-.68-.57-1.04-.82-.04-.03-.22.14-.27.12-.12-.03-.14-.47-.25-.53-.23-.13-.52-.11-.79-.29-.64-.42-2.24-.5-1.8-1.77.51-.19.59.83,1.04.82,1.88-1.09,2.58,1.05,4.22.64-.35-1.02-1.88-1.31-2.2-1.91-.21-.4-1.47-.31-.77-.95.52-.19.59.83,1.04.82,1.54-.56,2.44.64,3.68.89-.7-1.53-2.08-1.23-2.84-2.59.92-.27,1.51.32,2.52-.19.65.64,1.18,1.66,2.21,1.25-.51-.83-1.25-1.05-1.94-1.37-.57-.68-1.6-.1-1.94-1.37.89.19,1.87.14,2.77.33-.28-.9-2.11-.67-1.68-1.5.83-.01,1.62.05,2.38.2-.29-1.07-2.31-.55-1.95-1.38.44-.65,1.33.22,1.07-.5-1.01.15.05-.67-.11-.93-.76.26-.87-.52-1.31-.7-.58-.24-1.36.07-1.84-.45-1.4-1.23-3.12-1.61-4.56-2.77-1.91-.26-3.53-1.43-5.5-2-.35-.1-.94.05-1.32-.04-.5-.12-.71-.33-1.18-.43-.37-.08-.45-.13-.79-.29-.11-.05-.41.28-.54.25-.15-.03-.35-.36-.52-.41-.31-.1-.58.16-.93.11-.38-.05-.83-.38-1.18-.43-.06,0-.21.11-.27.12-.32.13-.2-.12-.39-.14-1.51-.21-3.4-.17-4.63-.13-.19.01-.52-.07-.66-.01-.28.11-.26-.15-.39-.15-.91.07-1.8.49-2.66.59-.04,0-.21-.15-.39-.14-.63.03-1.42.14-1.86.21-1.6.25-3.3.7-4.67,1.19-1.1.4-1.69.51-2.27.73-1.99.76-4.39,1.73-6.43,3-.33.2-.26.41-.68.64-.83.46-1.86.73-2.68,1.25-.45.29-.49.53-.95.77-.49.26-.71.01-1.2.23-.31.14-.32.41-.68.64-.33.21-.73.3-1.07.5.04.23.24.53-.02.66-.85.26-1.05.63-1.22.89-.35.55-.95.9-.97,1.43.99-.7,1.78-1.91,2.95-1.37-.71.33-1.43.67-2.14,1,.1.33-.29.49-.68.64-.25.5-.29,1.08-.96,1.43-.1-.36.16-.74-.52-.41-.31.36-1.34,1.56-.58,1.57-.04-.27.86-1.26.95-.76-.47,1.01-1.86,1.69-1.93,2.86,1.1-.34,1.08-1.09,2.29-1.39-.11-.33-.4-.74-.11-.93.76-1.21,1.41-2.46,3.4-3.22.62.02.52-1.22,1.07-.5.02.9-1.42,1.26-2.43,1.79.1.33-.29.49-.68.64.04.23-.08.41-.41.52-.07.72-.31,1.37-.71,1.96-2,.83-2,2.39-2.88,3.63-.11-.44.63-1.66-.09-1.59.18.25-.05.24-.14.39-.07.12-.11.33-.14.39-.16.24-.54.37-.68.64-.14.28-.05.75-.16,1.05-.16.44-.65,1.17-.7,1.31-.04.1-.32.71-.29.78.16.39-.48.59-.55.91.3.48-.07.71-.16,1.06-.23.86-1.35,3.32-1.16,3.8.12.31-.13.21-.14.39-.06.75-.07,1.21-.18,1.71-.05.23-.24.85-.16,1.06.16.39,0,1.03-.04,1.32-.02.2-.26.56-.29.79-.05.4,0,.71-.16,1.05-.05.11.25.41.25.54-.01.19-.28.56-.28.78-.02.59.2,1.26.21,1.86.03,1.1.21,2.2-.09,3.31.99,2.88.71,6.34,1.86,9.58.48,1.34,1.02,2.67,1.23,3.34.45,1.45,1.55,2.72,1.89,3.36.31.55.51,1.11.75,1.61.26.52.29,1.31,1.02,1.48-.14-.42-.56-.95-.23-1.2-.14-.42-.56-.94-.23-1.2.53,1.79,1.51,2.39,2.29,3.5-.76.25-1.01-.9-1.7-.84.53,1,.92,2.38,1.93,2.04.68.65-.08-1.04.43-1.18.33.71.67,1.43,1,2.14.33-.1.49.29.64.68.69-.07,1.11.62,1.7.84.55-.41,1.5,1.07,1.02,1.48-.38-.73-1.59-1.24-1.95-1.38-.35-.14-.58-.34-.91-.55-.68-.44-.82-1.42-1.68-1.5.27,1.11.92,1.13,1.27,2.02.59-.18.87.47,1.3.7.38-.15,1.53.56,1.04.82-.58.18-.86-.48-1.45-.3m-1.56-1.23c.46.54.17-.59-.25-.54-.4.05.1.25.13.27.07.05.07.2.12.27m-4.78-48.03c-.04.11.32.34.39.14.04-.11-.32-.34-.39-.14m2.91-4.95c-.04.11.32.35.4.14.04-.11-.32-.35-.4-.14m59.7,47.54c.58-.12,1.04-1.36.43-1.18.28,1.14-2.68,1.1-1.79,2.46.8-.3,1.33-.7,1.36-1.28m-.71,1.97c-.04.1.32.34.39.14.04-.11-.32-.35-.39-.14m.95-.77c-.04.11.32.35.4.15.04-.11-.32-.35-.4-.15m.68-.64c-.04.11.32.35.4.14.04-.1-.32-.35-.4-.14m-2.06-45.71c-.46-.99-.98-1.79-1.95-1.37.45,1.01,1.15,1.34,1.95,1.37m.12.27c-.04.11.32.35.39.14.04-.1-.32-.34-.39-.14m-1.37-2.95c-.1.27.39.14.39.15,1.88,1.51-.18-.75-.39-.15m1.68,1.5c-.04.11.32.35.39.14.04-.11-.32-.35-.39-.14"/>
  <path class="cls-2" d="m58.61,52.39c-.79.27-.64,1.15-.84,1.7-.2.55-.88,1.13-.45,1.84-.93.48-.84,1.32-1.77,1.8-.8-2.22.32-3.74.68-5.54.36-.16.72-.33,1.07-.5-1.28-1.27-2.37-4.23-.39-5.04,1.24,1.78,1.42,3.71,2.89,5.5.91-.19.58-.83,1.49-1.02-.46-.98-.92-1.97-1.37-2.95.81-.15-.78-1.17.03-1.32.68-.7.91.36,1.3.7.31.27.78.5,1.04.82.75.94,1.13,2.46,1.89,3.36-.53.25-1.07.5-1.61.75-.52.33.49,1.22-.31,1.45.12.56-.26.94.09,1.59-.57.75-.59,1.71-1.52,2.34-.81-.46-.29-1.92-.71-2.94.12-.54.46-1.39.59-2.23-.57-.47-1.27-.59-2.11-.32"/>
</svg>