<?xml version="1.0" encoding="UTF-8"?>
<svg id="Layer_1" data-name="Layer 1" xmlns="http://www.w3.org/2000/svg" viewBox="0 0 101.61 128.43">
  <defs>
    <style>
      .cls-1 {
        fill: #a4a4a4;
        fill-rule: evenodd;
        stroke-width: 0px;
      }
    </style>
  </defs>
  <path class="cls-1" d="m98.81,51.24c.11.08.24.17.37.27.51.36.79.84.8,1.48,0,.3.14.6.19.9.09.71.3,1.4.28,2.13,0,.3.16.62.26.92.11.34.18.69.43.97.03.04.05.08.06.13.08.36.16.72.24,1.09.08.37.16.73.02,1.11-.03.08,0,.21.03.28.26.43.03.79-.13,1.16-.15.34-.38.64-.49.99-.22.67-.64,1.16-1.19,1.57-.48.36-.97.71-1.49,1.1,0,0-.03.08,0,.13.23.49.14.98-.02,1.46-.06.19-.19.38-.31.54-.23.3-.44.64-.73.85-.72.53-1.31,1.22-2.12,1.62-.26.13-.54.21-.81.32-.15.06-.3.13-.42.22-.22.16-.45.24-.73.24-.5,0-1.01.09-1.51.08-.33,0-.67-.11-.99-.2-.24-.06-.48-.17-.77-.28,0,.56-.02,1.05,0,1.53.05.91-.31,1.64-.89,2.3-.14.16-.29.31-.41.49-.08.13-.13.29-.17.45-.03.11,0,.26-.07.33-.38.35-.37.84-.53,1.28-.29.77-.8,1.38-1.4,1.92-.16.15-.31.3-.5.4-.25.13-.31.34-.36.59-.04.24-.09.48-.19.7-.26.52-.43,1.09-.88,1.49-.24.21-.48.39-.83.35-.31-.03-.47-.17-.48-.49,0-.36,0-.71,0-1.08-.05,0-.12-.04-.15-.02-.62.46-1.29.88-1.78,1.5-.22.28-.18.7.03,1,.14.19.28.2.46.09.11-.06.22-.14.34-.18.45-.18.76.02.84.5.01.08.04.15.06.23,0,.01.02.03.05.06.41-.15.52-.76,1.05-.75.19.29,0,.5-.11.73-.37.79-.88,1.48-1.71,1.79-.78.29-1.62.33-2.16-.4-.29-.4-.41-.88-.37-1.34.04-.56.18-1.12.49-1.62.53-.85,1.25-1.49,2.1-2.01.36-.22.74-.41,1.1-.63.23-.13.22-.29,0-.44-.09-.06-.2-.12-.3-.17-.03-.02-.06-.02-.11-.03-.16.09-.33.19-.5.27-.12.05-.24.1-.37.11-.19.03-.35-.08-.37-.25,0-.1.12-.23.22-.32.07-.07.19-.09.31-.15-.05-.09-.07-.16-.12-.19-.35-.21-.5-.51-.51-.93,0-.18-.18-.37-.26-.53.03-.29.12-.57.09-.85-.03-.37.12-.63.38-.84.54-.45,1.13-.77,1.86-.78.31,0,.62-.08.92-.05.74.07,1.25-.29,1.68-.82.33-.4.58-.86.88-1.3-.67-.51-1.4-.85-2.15-1.16-.33-.13-.67-.25-.97-.44-.31-.2-.56-.48-.87-.75-.24.29-.65.14-1.01.25-.13.04-.3-.03-.28-.18,0-.09.16-.2.26-.23.17-.04.36,0,.54-.02.13,0,.27-.05.47-.09-.23-.5-.4-.96-.64-1.37-.24-.42-.51-.5-.95-.35-.67.24-1.31.24-1.92-.15-.17-.11-.34-.1-.51-.04-.52.18-1.04.36-1.56.55-.08.03-.19.12-.2.19-.05.3-.27.34-.5.37-.37.05-.67.22-.93.49-.08.08-.15.18-.24.24-.65.44-1.04,1.06-1.42,1.72-.78,1.35-1.49,2.73-2.24,4.1-.03.05-.06.09-.09.13-.04-.01-.07-.02-.07-.02.13-.67.05-1.39.58-1.96.19-.2.31-.49.42-.76.22-.57.37-1.18.61-1.73.38-.85.82-1.66,1.46-2.35.35-.38.68-.73,1.17-.92.1-.04.21-.12.26-.21.19-.32.5-.37.81-.43.09-.02.19-.02.28,0,.09.01.18.08.27.08.21,0,.41-.02.66-.1-.15-.11-.28-.23-.45-.31-.39-.19-.79-.38-1.2-.53-.15-.06-.37-.04-.51.02-.56.26-1.11.55-1.66.82-.07.04-.16.07-.21.12-.35.38-.68.77-1.03,1.15-.23.25-.48.49-.72.73-.23.23-.46.45-.69.68-.02.02-.04.05-.06.07-.77.77-1.4,1.62-1.76,2.69-.2-.1-.17-.25-.18-.39-.03-.49.19-.92.38-1.34.21-.46.5-.88.74-1.32.27-.48.65-.89.98-1.32.24-.32.47-.66.69-1,.07-.11.14-.24.14-.36,0-.38.25-.51.56-.55.27-.04.53-.13.82-.05.2.05.42-.03.55-.28-.09-.04-.17-.12-.25-.12-.67-.04-1.34-.09-2-.1-.41,0-.82.02-1.21.11-.27.06-.58.14-.66.49-.08.34-.39.38-.64.46-.22.08-.38.16-.5.36-.04.05-.08.11-.13.14-.86.52-1.26,1.4-1.72,2.22-.28.48-.41,1.05-.59,1.59-.1.27-.26.53-.15.89.4.08.81.17,1.25.27-.11.4-.33.56-.66.54-.57-.02-1.14-.06-1.71-.11-.34-.03-.67-.04-1.03.1.04.13.07.24.11.36-.11.19-.29.21-.49.26-.2.04-.39.15-.57.27-.18.12-.34.15-.57.08.12-.44.59-.42.8-.7-.67.05-1.15.45-1.75.87.3.12.52.26.74.27.75.03,1.51.1,2.24-.01.58-.09,1.12-.42,1.67-.63.27-.11.54-.24.82-.3.24-.05.53-.09.68.26-.39.45-.85.76-1.45.9-.5.12-.98.32-1.48.45-.3.08-.61.11-.92.12-.36.02-.72.02-1.08,0-.32-.03-.64-.1-.96-.14-.11-.01-.23,0-.41-.02.34.76.93,1.15,1.57,1.42.64.26,1.32.42,1.98.63.2.06.39.17.56.24.04.18,0,.31-.17.31-.63.03-1.25.07-1.88-.09-.54-.14-1.03-.39-1.48-.71-.64-.44-1.05-1.08-1.33-1.77-.17-.44-.05-.89.28-1.27.47-.54,1.08-.88,1.71-1.19.48-.24.96-.48,1.52-.49.26,0,.52,0,.77,0,.32,0,.64.03.95.04.03-.09.06-.12.05-.15-.19-.59.03-1.14.14-1.71.11-.58.27-1.13.49-1.67.18-.44.43-.86.68-1.37-.22,0-.4-.04-.56,0-.48.12-.96.26-1.44.41-.08.02-.17.11-.21.19-.13.27-.23.57-.38.83-.14.25-.31.49-.5.71-.2.23-.43.44-.64.67-.11.12-.19.28-.3.38-.58.52-.94,1.2-1.26,1.9-.31-.21-.4-.4-.3-.69.17-.51.34-1.02.55-1.51.17-.38.4-.74.64-1.08.24-.34.45-.68.46-1.11.01-.4.23-.7.43-.93.42-.03.78-.04,1.15-.07.64-.05,1.29-.15,1.91-.32.19-.05.36-.15.53-.24.19-.1.3-.23.26-.47-.02-.12-.02-.26,0-.39.03-.28.07-.56.11-.88-.28-.11-.64-.11-.95,0-.49.17-.96.36-1.49.36-.28,0-.55.17-.82.28-.49.19-1,.1-1.5.06-.11,0-.22-.13-.36-.22.37-.69,1.13-.42,1.7-.77,0-.3,0-.65.01-1,0-.06-.02-.13,0-.2.18-1.16-.41-2.11-.89-3.07-.3-.59-.51-1.19-.52-1.86,0-.05,0-.1,0-.14,0-.03.04-.05.07-.09.28.16.34.47.42.72.19.57.59,1.01.91,1.49.2.3.39.6.58.9.06.09.12.19.17.29.08.17.19.34.23.52.13.59.32,1.16.26,1.78-.02.22.1.37.28.47.52-.14,1.03-.27,1.54-.4,0-.05.02-.1,0-.11-.35-.28-.48-.62-.44-1.07.01-.16-.09-.36-.2-.49-.32-.38-.51-.82-.71-1.26-.35-.75-.76-1.47-1.13-2.22-.14-.29-.24-.6-.36-.91-.17-.44-.34-.87-.51-1.3,0-.02-.02-.03-.03-.04-.11-.67-.25-1.35-.16-2.03.02-.11.08-.21.16-.4.05.17.09.24.1.32.08.45.08.92.24,1.33.24.65.53,1.3.88,1.9.74,1.25,1.5,2.47,2.34,3.65.4.56.64,1.23.96,1.88.17.03.23-.15.27-.3.12-.43.19-.88.32-1.32.22-.73,0-1.45-.06-2.18-.02-.3-.11-.61-.13-.91-.01-.1.06-.2.11-.31.27.06.33.28.35.45.09.81.31,1.61.22,2.43-.03.22-.08.45-.12.67-.01.08-.07.16-.06.23.05.56-.15,1.05-.41,1.56.28.13.53.03.8.04.15-.55.31-1.09.46-1.64.11-.4.25-.8.35-1.21.1-.46.23-.93.25-1.39.04-.81.1-1.63-.1-2.44-.12-.45-.19-.92-.3-1.37-.04-.15-.12-.29-.2-.45-.24.12-.23.3-.25.47-.14.91-.49,1.71-1.16,2.36-.26.25-.57.41-.99.52.05-.26.16-.44.3-.56.58-.47.74-1.15.85-1.81.08-.55.01-1.13.03-1.7.02-.56-.14-1.14.16-1.69.05-.1,0-.29-.05-.42-.09-.21-.21-.4-.33-.6-.12-.2-.3-.19-.4,0-.49.86-.97,1.72-1.47,2.57-.37.62-.95.87-1.65.67.19-.13.34-.25.5-.33.46-.22.61-.65.76-1.08.2-.55.38-1.1.57-1.65.08-.25.14-.5.23-.74.09-.21.19-.42.32-.59.17-.22.16-.45.16-.7,0-.29.15-.39.39-.25.12.07.25.18.32.29.43.65.84,1.32,1.26,1.97.03.05.09.08.19.17.03-.18.06-.3.06-.42,0-.9,0-1.8,0-2.7,0-.19-.06-.38-.09-.58-.1-.64-.19-1.29-.3-1.92-.05-.26-.16-.52-.28-.87-.21.22-.38.35-.48.52-.25.41-.48.85-.72,1.28-.16.28-.33.55-.5.85-.18-.15-.29-.28-.24-.48.12-.47.24-.94.36-1.4.07-.25.14-.49.22-.73.17-.5.36-1,.41-1.54.01-.1.11-.2.16-.28-1.03-2.34-3.41-4.67-4.82-5.03.3.33.58.61.82.91.24.31.44.64.69,1.02-.31-.01-.47-.16-.65-.31-.53-.43-1.05-.88-1.62-1.25-.55-.36-1.12-.71-1.78-.87-.34-.08-.66-.25-.98-.41-.8-.4-1.65-.41-2.51-.38-.26.01-.52.03-.78.03-.26,0-.5.04-.76.12-.45.14-.92.18-1.38.27-.19.04-.41.07-.54.19-.37.36-.7.75-1.04,1.13.02.03.03.06.05.1.1,0,.21.02.29-.02.36-.18.7-.4,1.07-.57.62-.28,1.24-.55,1.93-.63.05,0,.11.01.14-.01.56-.41,1.19-.18,1.79-.18.18,0,.36.11.54.18.58.21,1.14.46,1.73.64.7.21,1.12.76,1.64,1.2.21.17.36.42.56.62.64.64,1.23,1.32,1.65,2.11.45.86.83,1.76,1.06,2.71.1.44.11.9.14,1.36.04.61.07,1.21.1,1.81,0,.1-.02.21-.04.38-.24-.17-.31-.36-.34-.56-.08-.61-.18-1.22-.23-1.84-.07-.78-.27-1.57-.72-2.25-.47-.74-.96-1.47-1.44-2.2-.06-.09-.15-.18-.23-.25-.34-.33-.69-.64-1.03-.97-.55-.54-1.23-.82-1.94-1.08-.32-.12-.64-.23-.96-.33-.14-.04-.28-.07-.43-.08-.7-.03-1.4-.03-2.1-.08-.48-.03-.93.08-1.38.2-.65.17-1.32.29-1.99.39-.36.06-.7.1-1,.33-.15.12-.32.22-.5.31-.09.04-.21.02-.3.03-.1-.22.02-.31.14-.4.33-.24.64-.51.98-.73.52-.34.89-.81,1.24-1.3.02-.03,0-.09,0-.13-.04-.02-.09-.04-.1-.04-.42.33-.84.67-1.26,1.01-.44.36-.88.73-1.32,1.08-.5.4-1.01.77-1.5,1.17-.67.55-1.33,1.11-1.98,1.68-.65.56-1.29,1.15-1.93,1.73-.8.71-1.38,1.58-1.67,2.6-.15.52-.26,1.07-.27,1.63-.02,1.12-.11,2.24-.17,3.36-.01.16,0,.32,0,.48.03.01.07.02.1.04.07-.14.14-.27.24-.46.07.07.18.14.17.19-.04.52-.04,1.05-.18,1.54-.42,1.55-1.08,3.02-1.71,4.49-.55,1.28-1.1,2.56-1.63,3.85-.22.54-.34,1.12-.39,1.7-.05.68-.08,1.37-.1,2.05-.02.37-.02.74-.15,1.11-.13.36-.15.76-.24,1.13-.11.49-.24.97-.36,1.46-.15.61-.3,1.22-.46,1.83-.15.55-.32,1.09-.47,1.64-.14.51-.25,1.04-.38,1.55-.12.47-.29.93-.36,1.41-.11.74-.17,1.48-.25,2.23-.03.28-.04.55-.07.83-.02.24.09.32.33.37.84.2,1.66.42,2.25,1.14.4.49.89.91,1.33,1.37.33.34.56.74.69,1.21.11.42.29.82.42,1.23.2.6.36,1.21.58,1.8.24.64.53,1.26.79,1.88.12.28.26.56.38.85.3.72.77,1.31,1.3,1.87.62.63,1.25,1.25,2.08,1.6.34.14.7.25,1.06.36.12.04.27.03.23.28-.39-.05-.79-.07-1.17-.17-.8-.21-1.5-.64-2.1-1.21-.53-.5-1.09-1-1.52-1.58-.52-.7-.96-1.47-1.36-2.25-.39-.76-.69-1.57-1.02-2.37-.12-.28-.13-.61-.25-.88-.33-.74-.71-1.46-1.3-2.04-.29-.29-.58-.58-.85-.87-.44-.48-1-.64-1.65-.62-.02.07-.08.15-.06.21.17.64.26,1.31.62,1.88.53.86,1.19,1.63,1.96,2.29.29.24.5.53.7.96-.69-.12-1.15-.49-1.66-.83-.24.52.12.95.15,1.42.03.47.12.93.19,1.39.08.47.18.94.27,1.42.03,0,.07,0,.11,0,.04-.09.11-.18.11-.26,0-.78.04-1.57-.21-2.33-.03-.09,0-.2.04-.31.34.32.45.73.5,1.15.09.85.12,1.71.22,2.56.04.38.17.76.25,1.14.14.59.25,1.18.41,1.75.2.75.42,1.49.66,2.23.16.48.36.94.54,1.41.12.32.29.54.71.55.25,0,.5.19.75.32.23.12.45.23.72.28.24.04.49.18.7.32.45.29.87.63,1.32.93.42.27.89.48,1.29.78.75.57,1.61.9,2.44,1.29.33.16.68.27,1.14.46-.23.06-.35.12-.46.11-.47-.05-.93-.09-1.37-.27-.79-.33-1.59-.65-2.37-.98-.33-.14-.63-.34-.95-.49-.31-.14-.6-.28-.89-.47-.36-.24-.83-.34-1.25-.5-.27-.1-.54-.19-.85-.29-.03.1-.08.18-.05.24.31.76.63,1.52.95,2.28.09.21.22.4.31.61.14.32.47.32.72.45.19.09.37.18.56.28.2.1.41.19.61.3.4.22.78.48,1.18.67.32.15.66.26,1,.35.56.14,1.1.4,1.71.32.22-.03.45.07.67.08.25.02.51,0,.79,0,.07.13-.03.23-.15.27-.31.09-.63.2-.94.21-.67.03-1.34.02-2.01,0-.19,0-.39-.04-.57-.11-.2-.07-.38-.16-.61-.1-.1.03-.22-.04-.32-.07-.41-.17-.83-.34-1.24-.51-.08.27-.15.5-.21.73-.04,0-.07,0-.1.01.77,1.37,1.55,2.74,2.31,4.08.98-.08,1.84.11,2.68.49.41.18.86.28,1.29.4.48.13.97.25,1.46.36.19.04.39.03.58.04.09,0,.18.03.29.05-.07.23-.19.34-.4.34-.82,0-1.65.1-2.44-.04-.57-.1-1.16-.13-1.71-.31-.27-.09-.28-.06-.54.23.05.06.09.12.15.17.96.81,1.92,1.62,2.86,2.44.3.27.57.58.84.89.5.55.99,1.12,1.48,1.68.36.42.71.85,1,1.2,1.21.18,2.34.27,3.47.02.1.27.06.35-.17.49-.7.4-1.45.69-2.25.85-.01,0-.02.02-.06.06.02.07.03.16.08.24.61.87,1.2,1.75,1.83,2.6.92,1.23,1.86,2.44,3.01,3.48.73.66,1.58,1.13,2.56,1.35.18.04.4.03.58-.02.51-.15,1.03-.29,1.47-.63.1-.08.22-.13.36-.21,0-.46,0-.91,0-1.37,0-.11-.07-.21-.11-.32-.27-.6-.57-1.18-1.08-1.6-.17-.14-.23-.31-.22-.52.01-.31.25-.46.5-.28.32.24.62.53.86.85.23.29.4.63.56.97.12.26.2.54.26.83.11.62.32,1.25-.2,1.86.19.03.3.06.4.06.41,0,.82.02,1.23,0,1.29-.05,1.88-.89,1.78-2.14-.1-1.14-.64-2.06-1.31-2.93-.35-.46-.38-.55-.33-.97.25-.13.46-.08.64.14.33.41.67.8.97,1.23.76,1.11.87,2.37.75,3.65-.04.5-.42.88-.82,1.17-.25.18-.4.33-.35.67.05.38-.14.72-.38,1.02-.29.37-.67.4-1.02.08-.22-.2-.41-.42-.45-.73-.02-.19-.13-.29-.31-.32-.43-.09-.85-.2-1.28-.27-.39-.06-.48.01-.46.41.04.7-.29,1.22-.76,1.68-.07.07-.14.13-.23.17-.47.19-.8-.03-.85-.57-.01-.16,0-.33,0-.49v-.51c-.28-.1-.54-.21-.8-.27-.72-.15-1.31-.51-1.9-.93-.99-.73-1.68-1.73-2.48-2.62-.41-.47-.8-.95-1.17-1.45-.41-.57-.77-1.17-1.19-1.73-.73-.98-1.47-1.95-2.22-2.91-.47-.6-.98-1.18-1.48-1.76-.11-.14-.22-.28-.35-.41-.68-.68-1.35-1.38-2.05-2.03-.6-.55-1.28-1.02-1.85-1.6-.54-.56-1.01-1.19-1.43-1.85-.56-.88-1.06-1.79-1.54-2.72-.63-1.23-1.2-2.48-1.8-3.72-.31-.66-.65-1.3-.94-1.97-.52-1.18-1.04-2.37-1.5-3.58-.48-1.25-.92-2.53-1.34-3.8-.27-.8-.48-1.62-.72-2.43-.19-.66-.39-1.33-.57-2-.08-.31-.14-.64-.18-.96-.09-.79-.17-1.59-.26-2.38-.02-.18-.06-.35-.09-.52-.03-.17-.05-.35-.1-.53-.07-.26-.13-.54-.26-.77-.14-.25-.34-.33-.69-.31-1.2.06-2.4.18-3.59-.12-.1-.03-.19-.04-.29-.04-.87,0-1.65-.24-2.38-.74-.41-.28-.9-.46-1.34-.7-.86-.46-1.7-.96-2.38-1.68-.48-.51-.94-1.04-1.4-1.57-.13-.15-.2-.34-.31-.5-.15-.21-.31-.42-.45-.63-.14-.21-.29-.43-.41-.66-.26-.5-.56-.99-.73-1.53-.24-.81-.85-1.45-1.04-2.28-.03-.11-.09-.22-.09-.33.01-.67-.29-1.26-.45-1.88-.07-.27-.1-.54-.15-.81-.03-.12-.05-.25-.09-.37-.02-.06-.08-.11-.09-.17-.08-.52-.14-1.05-.21-1.58-.03-.21-.09-.41-.15-.67.38-.12.78.04,1.17,0,.41-.03.82-.03,1.23,0,.39.03.77.12,1.15.19.39.06.78.13,1.2.19,0-.06,0-.15-.04-.24-.33-.81-.67-1.62-.99-2.43-.15-.39-.27-.79-.4-1.19-.02-.07,0-.15.01-.23.01-.09.06-.19.04-.28-.17-.76-.37-1.51-.52-2.27-.12-.6-.17-1.22-.24-1.83-.05-.45-.1-.9-.12-1.36-.01-.36-.03-.73.04-1.07.1-.52,0-1.01-.1-1.5-.06-.31-.07-.61.08-.9.05-.11.08-.25.09-.38,0-.59,0-1.18,0-1.78-.46-.25-.91-.51-1.37-.74-.45-.22-.78-.58-1.08-.97-.15-.19-.29-.39-.44-.58-.3-.41-.59-.82-.89-1.23-.04-.05-.09-.11-.09-.17-.03-.6-.43-1.09-.49-1.67-.05-.51-.06-1.03.3-1.47.29-.35.58-.7.87-1.05.19-.22.21-.29-.03-.47-.51-.37-.83-.91-1.22-1.39-.1-.13-.17-.28-.24-.42-.1-.2-.24-.25-.44-.15-.62.29-1.29.41-1.94.59-1.25.34-2.5.12-3.75.16-.36.01-.73-.15-1.09-.23-.23-.05-.47-.09-.71-.14-.35-.08-.72-.1-1.03-.25-.54-.26-1.14-.33-1.64-.69-.24-.17-.58-.2-.87-.27-.56-.12-1.02-.37-1.47-.73-.37-.3-.83-.48-1.25-.72-.16-.08-.32-.16-.47-.26-.64-.43-1.27-.85-1.9-1.29-.12-.08-.21-.21-.33-.29-.16-.12-.34-.22-.55-.35.02-.06.03-.16.07-.2.63-.57,1.25-1.15,1.89-1.7.4-.34.81-.67,1.25-.93.47-.28.99-.47,1.48-.7.06-.03.13-.05.18-.09.9-.69,1.97-1.05,2.98-1.5.66-.29,1.39-.42,2.08-.63.14-.04.26-.14.46-.26-.42-.28-.75-.56-1.12-.74-.62-.3-1.16-.72-1.68-1.17-.18-.16-.37-.29-.62-.37-.23-.08-.44-.28-.63-.45-.37-.31-.73-.64-1.09-.97-.48-.46-.96-.93-1.44-1.39-.02-.02-.05-.05-.06-.07-.23-.78-.85-1.28-1.3-1.91-.47-.65-.91-1.32-1.34-1.98-.28-.43-.54-.88-.79-1.34-.14-.25-.23-.53-.36-.79-.15-.3-.3-.6-.47-.89-.23-.39-.46-.76-.54-1.23-.06-.39-.28-.76-.46-1.12-.17-.34-.3-.67-.32-1.06-.02-.3-.14-.59-.24-.88-.22-.67-.3-1.36-.4-2.04-.07-.45-.15-.89-.19-1.34-.04-.52-.04-1.04-.03-1.57,0-.61.45-1.23.99-1.45.21-.09.4-.11.61,0,.39.2.78.4,1.17.6.58.3,1.15.61,1.74.88.28.12.59.16.89.24.39.1.78.21,1.17.31.23.06.47.1.71.15.17.03.34.08.52.11.33.06.67.13,1,.18.29.04.58.07.87.1.34.04.68.07,1.02.1.34.03.68.06,1.02.1.22.03.45.07.67.12.34.08.68.21,1.03.25.41.05.77.23,1.14.38.4.16.82.29,1.24.4.8.23,1.54.6,2.27.99.42.23.89.4,1.31.64.36.21.67.52,1.04.72,1.08.58,2.07,1.29,3,2.09.34.29.62.66.94.99.35.37.58.86,1.1,1.08.15.06.22.31.33.47.07.1.16.2.29.36.26-.35.54-.65.72-1,.35-.67.89-1.13,1.54-1.44.32-.15.67-.23,1.01-.32.48-.13.99-.22,1.45-.39.74-.27,1.54-.38,2.25-.76.09-.05.22-.04.33-.06.38-.08.76-.18,1.07-.45.27-.23.6-.34.96-.42.37-.08.72-.29,1.02-.53.68-.54,1.41-.85,2.28-.86.29,0,.58-.06.88-.06.28,0,.55,0,.82.03.37.04.73.07,1.18-.03-.15-.15-.24-.25-.35-.34-.45-.39-.86-.81-1.08-1.38-.29-.75-.46-1.53-.15-2.32.09-.22.15-.46.23-.68.3-.92.94-1.53,1.8-1.87.63-.26,1.29-.37,2.01-.18.88.23,1.64.66,2.42,1.09.95.52,1.9,1.07,2.98,1.3.65.13,1.32.21,1.98.22,1.03.02,2.05-.03,3.08-.06.03,0,.06-.01.1-.02,1.5-.04,3-.1,4.5-.1.64,0,1.29.17,1.93.25,1.36.16,2.52.8,3.64,1.54.72.48,1.38,1.04,1.96,1.68.37.41.72.84,1.09,1.25.06.07.16.1.27.17.12-.19.26-.36.34-.54.26-.61.65-1.12,1.09-1.61.46-.52.88-1.08,1.33-1.63.12-.15.25-.3.39-.43.8-.74,1.57-1.52,2.41-2.22.53-.44,1.14-.8,1.73-1.16.89-.54,1.77-1.09,2.6-1.73.85-.66,1.7-1.32,2.43-2.1.51-.55.9-1.19,1.35-1.79.26-.35.49-.75.94-.89.19-.05.43-.08.6,0,.58.21.97.64,1.2,1.21.02.06.02.13.06.18.46.65.62,1.44.93,2.17.09.23.14.49.17.74.07.56.4,1.06.32,1.67-.03.22.15.45.21.69.07.27.14.53.16.8.05.53-.09,1.08.18,1.59.06.11,0,.29-.04.43-.24.7-.14,1.42-.08,2.13.02.21.06.41-.01.62-.05.15-.04.32-.04.48,0,.56-.1,1.1-.15,1.65-.06.67-.25,1.31-.35,1.96-.07.43-.19.85-.29,1.27-.01.06-.05.14-.02.18.18.3.02.59-.08.84-.43,1.12-.9,2.22-1.35,3.33-.02.05.01.12.02.19,1.55-.55,3.13-.53,4.78-.51-.12.67-.23,1.27-.34,1.86-.12.62-.22,1.23-.37,1.84-.09.38-.25.74-.37,1.11-.03.08-.07.16-.06.24.04.89-.46,1.6-.83,2.35-.08.16-.22.28-.18.48,0,.04,0,.1-.03.14-.45.63-.6,1.44-1.07,2.04-.36.46-.63.98-.98,1.44-.26.34-.57.63-.85.95-.06.06-.12.11-.17.17-.27.29-.43.57-.16.98.21.32.33.7.5,1.09.11-.01.24-.02.35-.05.41-.1.81-.22,1.22-.32.1-.03.24-.04.33,0,.49.19,1,.13,1.5.15.77.03,1.41.36,1.96.88.66.63,1.3,1.28,1.97,1.9.62.59,1.26,1.17,1.9,1.76.06.06.12.13.19.15.48.09.8.41,1.13.72.34.33.76.55,1.21.72.57.22,1.05.55,1.45,1.04.81,1.01,1.42,2.14,1.91,3.33.18.43.32.88.3,1.37-.03.7.06,1.41-.17,2.09-.12.37-.24.73-.38,1.14m-51.13-9.58c.09-.04.14-.04.18-.07.59-.52,1.17-1.03,1.76-1.54.39-.33.79-.64,1.16-.98.12-.11.27-.31.24-.45-.07-.45-.03-.95-.42-1.31-.13-.12-.23-.28-.32-.44-.15-.25-.4-.44-.65-.47-.55-.07-.98-.43-1.5-.54-.7-.15-1.37-.47-2.07-.51-.85-.06-1.73-.19-2.57.13-.1.04-.23.02-.34.04-.29.04-.58.08-.86.13-.56.1-1.11.26-1.68.31-.5.04-.96.15-1.42.32-1.03.4-1.96.98-2.84,1.66-.12.09-.24.17-.37.22-.48.2-.98.36-1.43.6-.64.35-1.26.74-1.88,1.14-1,.63-1.73,1.45-1.91,2.68-.1.69-.1,1.34.14,2,.28.75.62,1.46,1.03,2.15.4.67.88,1.24,1.57,1.63.42.23.83.5,1.24.76.08.05.16.12.25.13.47.08.91.27,1.4.21.12-.01.26.03.38.08.38.18.77.12,1.16.08.15-.01.29-.06.43-.06.83-.03,1.64-.17,2.46-.35.55-.12,1.1-.24,1.65-.34.19-.04.35-.08.42-.36-1.03-.12-1.83-.73-2.63-1.28-.82-.57-1.67-1.12-2.27-1.96.14.04.26.1.37.18.63.46,1.23.96,1.88,1.38.6.39,1.24.71,1.89,1.01.38.17.79.25,1.2.36.24.07.39-.06.44-.32.04-.27.07-.55.14-.81.21-.78.18-.9-.45-1.38-.03-.02-.05-.04-.08-.07-1.04-.82-1.94-1.8-2.82-2.78-.13-.15-.22-.33-.33-.5.11-.03.16-.02.19,0,.68.69,1.34,1.39,2.04,2.05.42.4.9.75,1.36,1.11.12.09.29.12.42.17.96-1.63,1-1.68,2.49-3.04.2-.19.39-.39.56-.61.07-.09.11-.24.1-.35-.03-.29-.11-.57-.14-.86-.02-.21,0-.43,0-.65.04,0,.09,0,.13,0,.04.24.07.48.12.72.05.25.11.5.18.79m8.01-5.02c.14-.06.28-.13.43-.18.51-.19,1-.42,1.55-.52.43-.08.91-.09,1.28-.4.19-.16.42-.14.65-.09.56.12,1.03.45,1.54.66.76.31,1.45.79,2.16,1.2.32.18.35.2.57-.09.49-.65.97-1.3,1.41-1.99.52-.81,1-1.64,1.48-2.47.06-.11.14-.28.09-.36-.12-.27-.3-.51-.46-.77-.55.83-1.05,1.6-1.57,2.36-.52.76-.89,1.62-1.54,2.33-.05-.19-.08-.37-.02-.52.12-.3.27-.59.45-.87.74-1.15,1.49-2.29,2.24-3.43.14-.21.11-.37-.06-.56-.49-.53-1.01-1.02-1.66-1.34-.08-.04-.15-.09-.24-.14.2-.25.37-.3.64-.2.11.04.2.12.31.13.57.1,1.06.37,1.5.73.38.3.77.6,1.19.93.17-.37.34-.72.48-1.08.24-.62.48-1.23.68-1.87.26-.81.51-1.63.71-2.46.14-.56.2-1.15.27-1.73.06-.52.12-1.04.14-1.56.03-.72.02-1.43-.17-2.14-.13-.48-.22-.97-.34-1.46-.02-.1-.1-.18-.15-.26-.15.12-.27.27-.39.29-.26.03-.54.03-.78-.05-.55-.19-1.04-.08-1.54.19-.18.1-.39.17-.59.21-.09.02-.19-.04-.37-.07.9-1.03,1.88-1.66,3.22-1.55-.08-.76-1.3-2.72-2.13-3.43-.53.26-1.03.58-1.42,1.05-.23.28-.45.55-.69.83-.26.29-.27.38-.09.74.14.27.25.56.39.84.33.61.31,1.32.53,1.96.06.18.08.43-.25.54-.04-.1-.1-.19-.13-.29-.13-.56-.24-1.14-.4-1.7-.14-.48-.3-.96-.64-1.34-.13-.15-.23-.31-.34-.48-.04-.07-.05-.17-.07-.26.21-.09.48.08.59-.21.07-.18.18-.35.25-.53.26-.73.59-1.41,1.13-1.97.17-.18.2-.32-.01-.49-.37-.29-.72-.61-1.09-.89-.6-.45-1.23-.84-1.93-1.11-.05.04-.1.07-.12.11-.32.66-.36,1.38-.28,2.08.05.45-.06.81-.22,1.32-.12-.23-.23-.35-.27-.5-.18-.68-.38-1.37-.51-2.07-.05-.32-.19-.65-.02-1,.13-.28.1-.29-.2-.4-.7-.28-1.45-.2-2.17-.24-.88-.05-1.76.03-2.64.05-.83.02-1.67.02-2.5.04-.15,0-.3,0-.44.03-.44.09-.86.07-1.31,0-.41-.06-.84-.01-1.33-.01v1.29c0,.49,0,.98,0,1.47,0,.3-.06.6-.32.9-.1-.24-.19-.42-.25-.6-.05-.14-.05-.29-.08-.42-.17-.64-.35-1.28-.53-1.92-.08-.29-.16-.59-.28-.87-.09-.21-.56-.4-.99-.42,0,.34-.03.69,0,1.02.05.52-.07,1.02-.25,1.48-.23.59-.56,1.13-.85,1.7-.13.25-.28.5-.44.8.35.15.66.26,1.01.28,1.07.06,2.11-.07,3.16-.23.78-.12,1.55-.34,2.35-.4.45-.03.58-.22.58-.67,0-.18-.05-.4.03-.53.23-.38.15-.79.17-1.19.02-.42.01-.84.31-1.25.1.13.24.24.25.36.02.35.13.66.21.99.12.53.18,1.08.24,1.63.02.23.13.31.34.31.46,0,.92-.03,1.37-.02.25,0,.36-.12.4-.34.04-.19.1-.38.12-.57.06-.58.32-1.13.23-1.74-.02-.12.03-.24.06-.42.14.09.25.13.28.2.16.38.33.78.42,1.18.1.44.13.9.2,1.35.07.39.2.47.57.53.4.06.8.12,1.18.27.54.21,1.06.47,1.57.76.75.42,1.38.97,1.89,1.67.81,1.11,1.1,2.37,1.15,3.71,0,.19.03.37.03.47,1.1.46,2.23.58,3.2,1.18-.13.22-.29.29-.51.26-.89-.1-1.78-.09-2.68.02-.26.03-.36.19-.42.41-.07.26-.14.53-.19.8-.03.13,0,.28,0,.4.3.1.54.17.78.26.4.16.79.35,1.18.53.34.15.68.31,1,.48.43.23.85.47,1.27.72.08.05.12.16.25.34-.28-.04-.47-.03-.62-.1-.67-.34-1.41-.38-2.11-.57-.42-.11-.85-.18-1.29-.27-.28-.05-.56-.1-.85-.12-.09,0-.21.08-.27.16-.09.11-.15.25-.2.38-.44,1.05-.99,2.04-1.6,3-.4.64-.82,1.27-1.24,1.91.14.08.27.14.39.22.48.3.97.59,1.43.92.33.24.61.53.9.82.07.06.08.19.14.37-.19-.06-.29-.08-.39-.12-.22-.1-.43-.23-.66-.31-.61-.21-1.23-.41-1.85-.58-.76-.21-.85-.14-1.34.5-.4.52-.81,1.03-1.24,1.52-.62.69-1.28,1.35-1.93,2.02-.16.16-.24.3-.09.55m21.97,29.07c.2.12.3.18.41.24.56.33,1.13.64,1.67,1,.69.46,1.89.41,2.57-.08.61-.44.88-1.06,1.11-1.72.03-.11.05-.26,0-.34-.3-.52-.19-1.11-.32-1.67-.14-.6-.36-1.17-.5-1.76-.05-.22-.13-.44-.24-.63-.49-.85-1.07-1.63-1.71-2.37-.37-.43-.74-.87-1.12-1.29-.56-.62-.99-1.38-1.77-1.8-.7-.37-1.36-.83-2.08-1.13-.37-.15-.7-.32-1.02-.54-.49-.35-.96-.73-1.47-1.05-.44-.27-.92-.47-1.38-.71-.49-.25-.71-.14-.76.4,0,.07.02.16.05.23.09.26.19.52.27.78.15.51.3,1.03.45,1.54.13.47.28.93.36,1.4.08.45.08.91.13,1.36.13,1.07.02,2.12-.18,3.16-.11.56-.42,1.09-.66,1.62-.11.25-.26.47-.42.74.44.23.83.41,1.26.48.27-1.42.61-2.76,1.22-4.02.05.09.09.18.07.26-.16.53-.35,1.04-.48,1.58-.18.71-.31,1.43-.44,2.15-.02.13.02.31.1.41.27.31.56.59.86.87.1.09.26.12.4.14.56.1,1.12.12,1.69.24.49.1.98.18,1.45.37.08.04.23,0,.31-.04.27-.18.54-.37.8-.56.27-.21.54-.44.81-.66-.28.63-.83,1-1.44,1.41m2.81-16.05s.01.07.02.1c-.59.31-1.19.6-1.77.92-.58.32-1.17.64-1.73,1.01-.43.29-.84.62-1.2.99-.54.55-.48.75.22,1.02.03.02.06.02.09.03.91.32,1.74.79,2.49,1.4.3.24.58.52.9.81.19-.23.36-.45.54-.65.23-.25.47-.5.72-.72.16-.13.37-.21.52-.34.33-.29.6-.64,1.02-.83.14-.06.23-.22.34-.34.36-.38.42-.9.61-1.36.08-.2.16-.42.19-.64.09-.67-.05-1.35-.25-1.97-.21-.66-.62-1.26-1.16-1.71-.35-.3-.76-.55-1.16-.8-.13-.08-.27-.12-.27-.3,0-.36-.06-.74.04-1.07.12-.4.1-.75-.04-1.12-.17-.44-.39-.83-.84-1.02-.27-.12-.53-.29-.8-.33-.44-.07-.88-.22-1.35-.11-.37.09-.75.18-1.15.06-.21-.06-.48.04-.7.1-.25.07-.48.24-.73.25-.73.02-1.24.45-1.75.89-.23.2-.3.43-.31.73-.01.56.13,1.15-.18,1.68-.03.05,0,.13-.01.19-.08.43-.1.88-.25,1.29-.27.77-.61,1.5-.91,2.26-.03.06.02.15.04.32.17-.24.27-.41.39-.55.2-.23.39-.48.63-.66.54-.41,1.11-.79,1.68-1.17.29-.19.59-.37.88-.55-.01.14-.05.23-.12.29-.54.42-1.06.89-1.64,1.24-.88.52-1.26,1.36-1.73,2.23.33.16.64.3.99.47.12-.14.24-.29.36-.44.13-.16.24-.35.39-.5.69-.7,1.34-1.43,2.15-2,.42-.3.86-.59,1.28-.88.12-.08.23-.11.36.07-.73.32-1.3.84-1.84,1.4-.4.41-.82.79-1.2,1.21-.27.3-.52.63-.75.96-.15.22-.13.35.09.5.45.31.92.61,1.42.94.29-.3.58-.65.91-.93.33-.28.71-.5,1.08-.73.38-.23.76-.45,1.15-.65.39-.2.79-.39,1.19-.55.38-.15.73-.43,1.16-.43m-44.59-12.12c.12-.07.2-.13.28-.19.65-.45,1.27-.96,2-1.3.51-.25,1.03-.47,1.59-.6.36-.08.42-.24.27-.58-.23-.51-.42-1.02-.34-1.6.02-.12-.03-.26-.07-.38-.11-.42-.31-.82-.17-1.28.02-.05-.03-.12-.05-.18-.17-.47-.42-.87-.79-1.21-.17-.16-.39-.3-.46-.5-.11-.29-.35-.38-.57-.49-.42-.21-.86-.38-1.3-.56-.09-.04-.19-.07-.28-.07-.99-.05-1.95.05-2.83.55-.24.14-.48.27-.71.4-.44-.32-.87-.65-1.31-.95-.55-.37-1.19-.45-1.77-.18-.44.2-.82.59-1.15.96-.26.28-.47.64-.59,1-.11.34-.27.62-.44.91-.06.1-.15.18-.18.29-.16.54-.31,1.09-.46,1.63-.01.05-.01.1-.01.15,0,.39,0,.78.03,1.16,0,.09.07.2.13.25.34.29.62.68,1.09.81.12.03.24.12.33.2,1.01.95,2.04,1.88,2.79,3.07.09.14.22.25.33.38.03-.02.07-.04.1-.06-.18-.47-.49-.91-.5-1.44,0-.5-.08-1.01-.12-1.51-.09-1.26-.09-1.26.08-1.48.05.4.1.8.15,1.2.03.24.09.48.09.72-.01,1.01.43,1.85.94,2.67.09.14.23.21.38.1.23-.17.53-.27.64-.57-.12-.32-.25-.64-.36-.96-.11-.32-.22-.64-.31-.97-.08-.31-.14-.63-.2-.95-.06-.33-.14-.67-.18-1.01-.04-.34-.04-.68-.04-1.03,0-.32-.05-.66.1-.97.07.17.08.33.09.5.02.36,0,.72.06,1.07.16.76.35,1.52.55,2.27.13.45.3.89.49,1.32.12.29.32.37.55.26.5-.22.98-.48,1.5-.73-.07-.22-.14-.42-.18-.63-.11-.55-.27-1.12-.28-1.68,0-.88.09-1.75.17-2.63.05-.61.15-1.22.23-1.84,0-.03.07-.05.18-.12-.02.36-.03.67-.05.97-.04.48-.14.97-.14,1.45,0,1.11-.09,2.22.19,3.31.1.36.16.73.51,1m-6.54,9.55s-.06-.07-.09-.1c-.42-.34-.86-.65-1.24-1.02-.51-.5-.99-1.04-1.45-1.59-.96-1.15-1.86-2.35-2.46-3.74-.04-.1-.09-.2-.13-.3.03-.02.06-.03.09-.04.03.05.07.1.1.15.54.83,1.07,1.68,1.63,2.49.3.43.66.81.99,1.21.91,1.09,1.93,2.02,3.17,2.72.27.15.5.14.84.07-.28-.34-.53-.62-.74-.91-.22-.31-.43-.65-.61-.99-.18-.33-.33-.67-.48-1.01-.15-.36-.31-.72-.42-1.09-.1-.33-.32-.64-.27-1.02.36.66.67,1.33.96,2.01.28.65.66,1.23,1.07,1.8.08.11.14.31.4.24-.15-.52-.26-1.03-.46-1.52-.13-.31-.19-.61-.18-.94,0-.18,0-.36,0-.54-.02-.66.16-1.25.55-1.79.18-.25.3-.53.45-.79-.22-.38-.4-.75-.64-1.08-.33-.46-.72-.89-1.08-1.33-.74-.9-1.66-1.6-2.58-2.3-.58-.45-1.21-.81-2-.77-.17,0-.35-.07-.53-.11-.08-.02-.16-.08-.23-.06-.56.14-1.16.08-1.71.36-.43.22-.91.33-1.35.54-.7.34-1.26.87-1.78,1.43-.09.1-.19.26-.19.38.02.47,0,.96.14,1.4.2.63.48,1.24.81,1.81.37.64.84,1.24,1.27,1.85.2.28.38.57.62.81.54.53,1.09,1.03,1.66,1.53.32.28.63.6,1.01.75.58.23,1.08.57,1.65.81.43.18.89.27,1.34.41.17.05.33.16.5.18.44.05.89.07,1.35.11m-1.69,3.72s.06-.05.1-.08c.22.27.44.54.66.8.67.81,1.45,1.52,2.3,2.12.53.38,1.15.71,1.78.86.74.18,1.54.27,2.3-.1.29-.13.62-.18.93-.25.43-.09.86-.14,1.29-.24.28-.06.54-.17.8-.26,0-.04,0-.07.01-.1-1.13-.24-2.17-.71-3.19-1.22-1.44-.72-2.62-1.46-3.01-1.91.23.1.36.15.48.21.86.46,1.72.92,2.58,1.37,1,.51,2.04.91,3.15,1.11.69.12,1.37,0,1.95-.25.73-.32,1.37-.87,2.04-1.33.71-.49,1.21-1.17,1.66-1.9.12-.19.13-.37.12-.54-.59.19-1.15.39-1.72.54-.42.11-.87.12-1.29.25-.49.16-.95.28-1.47.16-.2-.04-.43-.03-.63.02-.87.23-1.73.26-2.6,0-.09-.03-.19-.03-.29-.03-.57.01-1.04-.22-1.49-.54-.27-.19-.52-.4-.8-.55-.46-.23-.86-.52-1.21-.9-.19-.21-.41-.29-.7-.28-.39.02-.78.01-1.18,0-.47-.01-.95.08-1.39-.17-.1-.06-.25-.03-.38-.03-.5,0-1,.04-1.48-.19-.35-.16-.75-.21-1.1-.36-.56-.25-1.09-.55-1.63-.85-.53-.3-1.05-.59-1.44-1.07-.08-.1-.2-.16-.29-.25-.18-.18-.35-.16-.51.03-.3.34-.61.68-.88,1.05-.17.24-.26.53-.12.83.08.19.13.4.22.59.27.57.41,1.2.82,1.7.38.47.73.96,1.13,1.41.17.21.42.36.65.51.84.56,1.81.86,2.7,1.33.54.28,1.08.53,1.49.99.13.14.29.26.45.38.24.18.49.37.74.53.2.13.42.3.64.31.48.02.93.11,1.39.24.1.03.21-.03.33-.05-.83-.53-1.54-1.12-2.2-1.77-.65-.65-1.25-1.35-1.73-2.14m32.51-21.45c.16-.18.24-.26.3-.35.38-.62.79-1.24,1.13-1.88.56-1.03,1.07-2.07,1.49-3.18.33-.87.55-1.76.7-2.66.15-.89.1-1.83-.2-2.7-.43-1.27-1.24-2.28-2.45-2.91-.48-.25-.99-.47-1.5-.67-.51-.2-1.03-.36-1.59-.36-.24,0-.49-.05-.73-.06-.31-.02-.62-.03-.93-.02-.34.01-.68.05-1.02.09-.64.07-1.29.15-1.93.23-.03,0-.06.02-.1.03-.54.11-1.07.25-1.62.34-.57.1-1.17.08-1.73.24-.68.2-1.36.16-2.04.16-.72,0-1.42-.15-2.11-.34-.28-.07-.57-.13-.93-.21.37.45.67.82.98,1.19.07-.04.11-.05.16-.08.51-.27,1.04-.4,1.6-.23.42.12.81.32,1.23.45.88.27,1.63.86,2.55,1.02.41.07.81.25,1.22.26.54,0,1.03.16,1.5.34.56.21,1.07.54,1.59.84.12.07.2.2.29.32.25.35.49.69.73,1.04.18.27.37.54.49.83.28.7.4,1.43.4,2.19,0,.26,0,.51.02.75.83.2,1.46.58,1.75,1.34.19.49.29,1.02.4,1.54.14.66.34,1.32.28,2.02-.01.1.03.21.06.44m-10.79,4.43c.26-.07.35-.2.35-.43,0-.24,0-.49.04-.73.1-.59.28-1.17.34-1.76.07-.76.07-1.53.08-2.3,0-.76-.35-1.49-.28-2.26,0-.03-.02-.06-.03-.09-.2-.59-.49-1.12-.92-1.59-.75-.84-2.11-.89-2.85-.06-.29.33-.53.7-.8,1.05-.36.46-.72.93-1.24,1.23-.85.51-1.72.98-2.56,1.5-.36.22-.66.53-.81.95-.1.29-.19.58-.31.87-.12.29-.25.56-.14.89.03.1,0,.23-.04.33-.29.84.03,1.64.13,2.46.04.36.24.7.35,1.05.09.29.13.34.45.29.66-.09,1.33-.16,1.97-.3.46-.1.92-.2,1.4-.17.48.03.95-.08,1.44-.04.69.06,1.33.25,1.99.44.17.05.33.15.5.19.35.09.6-.07.66-.42.03-.19.03-.39,0-.58-.06-.35-.13-.71-.25-1.04-.35-1.01-.79-1.99-1.35-2.92-.2-.34-.39-.68-.59-1.03.13.01.22.06.27.13.92,1.34,1.76,2.72,2.2,4.33m38.66,25.03s.06.01.09.02c0,.06.03.13.01.17-.66,1.27-1.28,2.56-2.24,3.65-.12.13-.2.3-.3.45.02.03.05.06.07.09.15-.03.3-.06.46-.11.14-.04.27-.1.41-.15.32-.11.65-.2.96-.33.58-.25,1.13-.55,1.69-.85.79-.42,1.62-.77,2.21-1.47.02-.03.05-.04.08-.06.8-.53,1.42-1.18,1.71-2.15.27-.89-.11-1.98-.96-2.33-.72-.29-1.5-.27-2.25-.42-.22-.04-.46-.05-.66-.13-.43-.18-.85-.39-1.27-.6-.22-.11-.45-.2-.64-.35-.47-.36-1.01-.57-1.53-.83-.1-.05-.22-.09-.32-.08-.62.06-1.25.13-1.88.22-.09.01-.16.1-.25.14-.29.14-.58.28-.87.42-.17.08-.36.16-.51.27-.71.52-1.34,1.13-1.92,1.79-.18.21-.17.36,0,.55.2.23.41.46.6.71.88,1.12,1.89,2.15,2.43,3.51.25.61.47,1.24.52,1.91.04.53.27.69.78.53.12-.04.25-.09.34-.18.83-.79,1.63-1.6,2.21-2.6.35-.6.7-1.2,1.05-1.8m.58-18.97c.03.5-.14.89-.32,1.29-.16.34-.16.35.13.55.9.62,1.67,1.35,2.23,2.3.05.08.16.12.28.21.22-.47.43-.89.63-1.31.07.22.08.42.03.6-.08.28-.19.55-.31.82-.22.49-.32.97-.12,1.5.08.2.03.45.03.68,0,.1.02.2.04.35.84-.62,1.4-1.41,2.02-2.14-.22.79-.72,1.4-1.2,2.02.16.23.37.28.61.29.16,0,.35-.01.48.06.92.5,1.72,1.12,2.07,2.16.05.14.1.27.16.42.6.04,1.13-.22,1.78-.36-.45.56-1.07.59-1.55.83-.24.94-.14,1.85-.04,2.86.47-.2.9-.3,1.23-.54.75-.54,1.38-1.2,1.72-2.08.05-.12.09-.24.11-.37.07-.53.12-1.06.17-1.6.01-.16.03-.33,0-.48-.19-.78-.46-1.52-.82-2.23-.2-.38-.41-.77-.67-1.12-.26-.36-.57-.67-.86-1-.06-.07-.13-.15-.21-.2-.75-.49-1.51-.96-2.25-1.46-.65-.44-1.3-.88-1.9-1.37-.67-.54-1.29-1.14-1.92-1.72-.46-.42-.89-.87-1.35-1.29-.53-.49-1.12-.81-1.88-.77-.52.03-1.05.02-1.57,0-.48-.02-.82.29-1.22.46-.06.03-.11.13-.12.2-.07.45-.12.89-.16,1.24.52.38.94.71,1.37,1.02.17.12.35.24.53.35.25.17.52.33.76.51.28.2.54.43.82.62.29.2.32.19.5-.09.21-.33.38-.68.58-1.01.04-.07.12-.12.21-.2m-45.24-22.91c.08.34.12.59.03.87-.07.23-.14.58-.02.74.23.3.56.55.89.75.41.25.86.42,1.3.64.31-.36.35-.79.31-1.23-.04-.37-.16-.72-.22-1.09-.12-.76-.5-1.37-1.08-1.85-.26-.22-.55-.41-.83-.6-.82-.57-1.71-.92-2.73-.88-.11,0-.23-.02-.34-.04-1-.16-1.97.1-2.95.25-.03,0-.06.03-.09.04-.66.36-1.29.75-1.97,1.06-1.22.57-2.42,1.17-3.75,1.47-.45.1-.88.31-1.32.45-.53.15-1.06.28-1.59.43-.79.22-1.38.69-1.76,1.43-.12.23-.26.45-.41.65-.36.51-.58,1.06-.5,1.69.02.14.1.32.21.41.3.25.62.46.93.68.48-.22.96-.45,1.45-.67.2-.09.44-.13.61-.26.29-.21.58-.39.95-.46.25-.04.49-.17.72-.28.33-.17.39-.32.29-.67-.03-.11-.1-.21-.16-.3-.19-.31-.39-.61-.65-1.01.69.28.94.85,1.31,1.35.61-.21,1.21-.47,1.83-.63.62-.16,1.26-.23,1.95-.35-.3-.45-.58-.86-.86-1.28.03-.02.06-.04.08-.07.09.06.18.11.26.18.34.37.68.75,1.02,1.12.17.18.35.36.55.47.37.22.78.4,1.17.59.05.03.12.02.26.04-.19-1.06-.52-2.02-.99-2.94.4.21.55.61.73.97.19.39.36.79.53,1.18.29,0,.41-.23.55-.39.11-.13.22-.3.36-.38.38-.22.77-.4,1.16-.59.06-.03.13-.03.19-.03.62,0,1.24,0,1.93,0,.33-.35.29-.94.59-1.46m-16.45,6.19c-.39-.26-.68-.47-.98-.65-.18-.11-.37-.19-.57-.25-.22-.06-.45-.09-.67-.13-.58-.11-1.16-.18-1.69.18-.27.18-.54.35-.81.53-.19.14-.4.29-.55.47-.32.39-.61.81-.89,1.23-.1.14-.17.32-.19.49-.12.81-.11,1.62.02,2.42.13.81.09.85-.73.92-.43.04-.8.21-1.1.54-.42.47-.81.96-1.06,1.56-.19.45-.47.85-.42,1.38.02.23-.05.49-.14.71-.2.45-.26.9-.2,1.38.03.27.05.55.06.83.03.7,0,1.39.16,2.09.14.62.36,1.18.67,1.71.15.24.27.56.57.64,0-.39.02-.78,0-1.17-.06-.88.33-1.54,1-2.06.58-.45,1.15-.92,1.86-1.14.53-.17,1.02-.49,1.61-.51.04,0,.09-.07.22-.18-.5-.05-.9-.11-1.29-.12-.4,0-.81.05-1.22.08-.24.02-.48.04-.73.06-.08,0-.16,0-.24,0v-.11c1.33-.37,2.7-.44,4.07-.28.09-.33.05-.48-.18-.62-1.01-.61-2.09-.91-3.31-.76.53-.38,1.09-.38,1.65-.27.55.11,1.09.28,1.72.44-.03-.25-.02-.46-.09-.65-.18-.49-.25-.97-.02-1.47.04-.08.03-.19.04-.29.08-.59.03-1.2.26-1.78.08-.21.19-.43.18-.65-.01-.49.17-.92.3-1.37.11-.37.13-.41-.19-.65-.11-.09-.24-.16-.38-.21-.41-.16-.84-.3-1.36-.5.17-.05.25-.1.31-.08.49.11.99.2,1.46.35.41.13.47.16.76-.15.1-.11.22-.21.28-.34.23-.43.57-.74.97-1,.26-.16.48-.38.81-.65m43.02,14.36s.06-.04.1-.07c.42.49.88.95,1.26,1.47.49.66.94,1.35,1.18,2.28.17-.25.38-.41.39-.58.02-.5.03-1.02-.08-1.5-.14-.62-.4-1.2-.83-1.69-.03-.04-.04-.1-.05-.15,1.03.73,1.27,1.86,1.52,2.99.32-.12.45-.36.65-.52.22-.17.42-.36.67-.48.48-.23.98-.43,1.48-.62.22-.09.46-.16.69-.22.31-.08.67-.08.93-.23.43-.25.9-.36,1.36-.51.37-.12.46-.2.41-.58-.05-.4,0-.82-.2-1.2-.06-.11-.1-.24.05-.32.52.57.42,1.35.71,1.97.08.02.11.04.14.04.82.04,1.62.12,2.33.59.14.1.37.07.58.11.18-.71.21-1.36-.06-2-.11-.25-.21-.51-.29-.77-.12-.37-.33-.65-.7-.82-.41-.2-.8-.43-1.2-.64-.1-.05-.21-.1-.32-.12-.51-.07-1.03-.14-1.55-.19-.18-.02-.4,0-.56.09-.5.25-1,.54-1.48.83-.44.27-.86.57-1.31.87-.06-.04-.12-.09-.18-.14-.29-.29-.56-.59-.85-.88-.07-.07-.15-.15-.23-.17-.48-.08-.96-.17-1.44-.21-.34-.03-.69.01-1.03,0-.39-.03-.73.08-1.05.3-.28.2-.61.3-.96.33-.15,0-.33.04-.46.12-.35.2-.7.42-1.03.64-.65.43-1.31.85-1.93,1.32-.36.27-.7.58-.84,1.05.12.09.2.16.29.23.22.16.42.22.72.16.85-.18,1.64.1,2.4.44.8.36,1.46.91,2.09,1.5.14.13.27.25.41.38.03-.03.06-.05.09-.08-.32-1.17-1.27-1.98-1.83-3.02m-38.89-14.33s.03-.05.04-.07c.32.21.66.39.95.63.27.22.5.51.73.78.1.11.18.23.36.18.57-.15,1.15-.31,1.72-.46.25-.07.5-.12.75-.19.19-.05.37-.1.56-.14.36-.09.72-.16,1.07-.29.26-.09.42-.31.4-.61-.03-.32.03-.61.2-.88.06-.11.13-.23.16-.35.04-.19.09-.37-.11-.53-.78-.64-1.7-.91-2.68-1.03-.17-.02-.35.04-.52.1-.28.09-.54.19-.82.29-.44.16-.89.3-1.32.49-.37.16-.71.38-1.07.56-1.18.58-2.35,1.18-3.55,1.71-.41.18-.76.42-1.11.67-.71.51-1.28,1.15-1.69,1.92-.32.6-.58,1.21-.54,1.92.01.21-.02.44-.11.62-.2.38-.24.77-.23,1.19,0,.15.01.3-.02.44-.13.68-.33,1.36-.08,2.06.01.03,0,.07,0,.1-.02.55.2,1.04.43,1.53.18.37.43.61.88.55.15-.02.31.04.47.06.18-.26.03-.5-.03-.72-.08-.28-.09-.53.03-.8.13-.29.21-.62.28-.93.08-.4.22-.77.47-1.1.14-.2.25-.42.35-.63.37-.82.79-1.61,1.62-2.07.11-.06.2-.16.31-.25-.06-.1-.1-.21-.17-.26-.61-.43-1.22-.86-1.85-1.27-.25-.16-.27-.13-.43-.38.79.21,1.44.66,2.12,1.04.35.2.64.51,1.07.55.13.01.29.1.33-.07.03-.1-.03-.25-.09-.35-.48-.77-1.1-1.42-1.79-1.99-.06-.05-.09-.13-.14-.19.79.37,1.41.93,1.97,1.56.12.13.24.24.34.34.32-.34.59-.64.89-.91.31-.28.65-.54.99-.79.21-.16.24-.33.13-.55-.06-.12-.11-.24-.2-.33-.36-.38-.72-.75-1.08-1.12m59.32,24.05c.06-.36.18-.66.17-.96-.03-.67-.13-1.32-.41-1.94-.15-.33-.36-.61-.64-.84-.21-.18-.39-.4-.61-.56-.56-.42-1.12-.83-1.7-1.22-.48-.33-1-.62-1.48-.94-.85-.56-1.7-1.15-2.55-1.71-.13-.09-.29-.15-.44-.21-.65-.26-1.3-.5-2.01-.55-.53-.04-1.06-.09-1.6.08-.39.12-.77.24-1.12.45-.18.11-.4.21-.59.2-.46-.01-.81.22-1.18.41-.27.14-.54.33-.84.38-.52.09-.89.38-1.25.71-.18.16-.38.31-.54.5-.27.31-.52.62-.75.96-.07.09-.1.25-.07.36.08.34.2.66.31,1,.09-.04.15-.05.17-.08.37-.46.84-.76,1.42-.86.49-.08.94-.33,1.47-.29.44.04.89.04,1.32-.03.81-.12,1.58-.05,2.32.31.18.09.35.16.58.05.08-.85.17-1.72.26-2.59h.11c.02.17.06.34.06.51,0,.8,0,1.6,0,2.4,0,.24.03.45.35.56.33-.38.5-.86.65-1.33.16-.47.2-.98.43-1.44.04.24-.02.46-.01.69.02.57-.15,1.09-.35,1.61-.15.38-.08.5.35.5.32,0,.6.04.89.2.34.17.72.29,1.09.41.33.11.42.06.61-.22.06-.09.1-.2.14-.31.15-.46.3-.93.44-1.4.14.66.02,1.29-.23,1.89-.17.41-.19.43.15.76.3.3.65.56.91.89.56.73,1.33,1.25,1.93,1.94.13.16.29.2.48.1.52-.28,1.07-.47,1.77-.39m-33.35-23.51c.02-.14.04-.22.05-.3.04-.37-.15-.71-.17-1.04-.03-.55-.23-1.01-.46-1.47-.45-.92-1.11-1.66-2.07-2.05-.76-.31-1.55-.53-2.38-.61-.82-.08-1.61-.29-2.33-.73-.49-.3-1-.6-1.62-.58-.08,0-.17-.08-.26-.12-.35-.16-.71-.24-1.08-.05-.55.28-.64.3-.37.91.34.79.36,1.61-.05,2.4-.13.26-.11.36.16.51.44.26.93.41,1.42.47.73.1,1.28.42,1.65,1.06.08.13.19.24.31.38.17-.24.29-.44.42-.62.11.26.05.46-.03.67-.07.19-.08.45-.01.64.13.36.32.69.33,1.1,0,.22.12.46.33.67.79-1.21,1.4-2.46,1.82-3.8.11.43.1.65-.19,1.32-.4.94-.83,1.87-1.27,2.79-.26.54-.19,1.1-.17,1.67.09-.12.12-.25.18-.36.44-.79,1.16-1.31,1.77-1.95.04-.04.11-.07.17-.09.51-.17,1-.37,1.46-.64.21-.13.49-.16.74-.18.54-.02,1.07,0,1.66,0m35.24,37.5c.2-.03.4-.06.6-.09.51-.08.99.1,1.48.23.61.17,1.21.36,1.69.82.15.14.36.22.52.36.2.16.42.31.56.52.34.49.64,1.01.96,1.51.33.11.46-.16.64-.34.52-.52,1.2-.9,1.53-1.61.23-.51.54-.99.62-1.57.09-.58.06-1.14-.05-1.7-.09-.47-.2-.96-.4-1.39-.26-.57-.44-1.15-.6-1.74-.06-.21-.14-.42-.13-.62.08-.99-.23-1.92-.44-2.87-.04-.15-.11-.33-.22-.41-.77-.54-.57-.62-1.24.08-.31.32-.59.66-1.02.81-.32.11-.64.21-.97.28-.31.06-.46.14-.43.37.06.38.15.76.24,1.14.09.36.23.71.3,1.07.09.47-.11.89-.31,1.3-.13.29-.08.38.22.44.13.03.27.04.4.07v.13c-.15.02-.3.06-.44.06-.34,0-.63.14-.79.42-.22.39-.54.69-.86.99-.11.1-.27.2-.22.43.13.01.26.04.38.03.51-.01,1.01-.05,1.52-.06.76,0,1.48-.17,2.2-.37.08-.02.18.03.26.04-.13.11-.26.14-.38.17-.41.11-.8.27-1.21.34-.71.11-1.42.17-2.13.25-.22.03-.45.12-.67.1-.67-.08-1.1.39-1.61.67-.01,0,0,.06,0,.12m-8.15,3.34c-.13.62-.21,1.15-.35,1.67-.16.54-.58.93-.97,1.3.12.16.19.29.29.39.08.08.18.16.28.17.39.03.81.11,1.17,0,.6-.18,1.23-.23,1.8-.56.6-.35,1.28-.58,1.93-.86.19-.08.39-.14.59-.21.53-.18,1.03-.44,1.62-.47.56-.03,1.11-.2,1.66-.31.03,0,.07,0,.1,0,.3.18.62.11.95.12.79,0,1.56.29,2.36.29.24,0,.48.04.72.09.64.12.97-.03,1.25-.54-.05-.25-.08-.45-.13-.65-.05-.2-.09-.42-.2-.59-.26-.4-.54-.77-.83-1.14-.09-.12-.21-.21-.31-.3-.56-.49-1.22-.81-1.93-.99-.65-.17-1.28-.53-1.99-.22-.04.02-.1,0-.14,0-.09.02-.2.02-.28.08-.52.37-1.12.49-1.74.52-.06,0-.12.05-.24.1.31.32.58.61.92.96-.69,0-.97-.5-1.39-.84-.29.16-.58.32-.89.48.7.62,1.37,1.16,2.21,1.46-.1.05-.18.08-.24.06-.55-.19-1.12-.34-1.59-.71-.18-.14-.38-.25-.56-.38-.4-.28-.84-.26-1.31.07-.13.09-.27.19-.42.22-.65.17-1.3.31-1.99.48.29.48.7.77,1.14,1.01.44.24.9.46,1.39.71-.07.03-.14.07-.18.06-1.02-.21-1.9-.72-2.69-1.46m-34.17-28.83c.29.28.46.49.68.65.55.4.9.93,1.05,1.59.02.1.09.18.15.3.15-.11.24-.2.35-.27.5-.38,1.03-.73,1.16-1.42.06-.3.24-.58.26-.88.04-.59.07-1.17.19-1.76.1-.47-.01-.97.21-1.43.02-.04,0-.1,0-.15,0-.44.08-.87.29-1.27.06-.11.08-.25.13-.37.16-.41.3-.85.52-1.24.28-.49.61-.96.94-1.42.15-.21.39-.35.54-.56.36-.46.69-.95,1.03-1.42.21-.29.34-.59.34-.95,0-.21-.05-.38-.28-.44-.09-.03-.18-.06-.27-.1-.43-.18-.85-.41-1.34-.13-.12.07-.32.04-.48.03-.4-.04-.77.05-1.12.22-.46.22-.9.45-1.26.82-.22.23-.48.44-.73.65-.51.42-.84,1-.92,1.61-.08.61-.15,1.19-.41,1.74-.03.06.04.17.07.31.42-.14.81-.26,1.29-.42-.11.16-.15.26-.22.3-.34.18-.7.34-1.05.5-.1.05-.23.07-.29.15-.14.17-.09.66.08.9.81-.24,1.55-.61,2.25-1.11-.28.43-.63.76-1.06,1.01-.39.22-.81.4-1.2.62-.13.07-.29.2-.32.33-.06.29-.05.61-.07.91,0,.11-.02.22-.06.33-.16.54-.34,1.08-.5,1.62-.02.07.02.15.03.22,1.05-.04,1.79-.7,2.6-1.2-.6.88-1.5,1.33-2.58,1.73m25.48-28.66c-.39.26-.7.45-.99.68-.49.38-.96.79-1.43,1.19-.19.16-.27.35-.19.61.09.29.14.6.15.91.02.6,0,1.21.01,1.81.01.27.07.54.14.81.09.34.22.68.29,1.02.12.54.29,1.07.22,1.63,0,.09.04.19.07.28.22.52.49,1.03.68,1.56.42,1.21,1.02,2.32,1.7,3.38.16.25.33.52.65.53.26-.44.49-.85.75-1.23.22-.31.32-.67.43-1.03.08-.26.08-.51-.11-.74-.1-.12-.18-.27-.26-.41-.33-.6-.72-1.17-.98-1.8-.23-.55-.32-1.15-.48-1.72-.05-.19-.18-.37-.18-.55,0-.45-.04-.87-.21-1.29-.27-.62-.17-1.28-.19-1.92-.03-1.04,0-2.09-.01-3.14,0-.16-.04-.33-.06-.58M15.85,25.35c.05-.07.1-.12.13-.2.17-.37.15-.78.22-1.17.14-.86.06-1.72.05-2.57,0-.66-.01-1.33-.05-1.99-.01-.15-.03-.3-.09-.43-.45-.87-.54-1.83-.73-2.77-.09-.42-.22-.8-.39-1.19-.3-.71-.73-1.37-.91-2.14-.06-.26-.2-.51-.53-.56-.32-.05-.63-.14-.94-.22-.39-.1-.78-.22-1.17-.29-.21-.04-.44,0-.7.02.05.14.06.22.09.29.24.5.52.97.72,1.49.46,1.2,1.17,2.3,1.39,3.61.09.56.34,1.1.42,1.68.07.5.2.98.3,1.47.02.08.03.16.02.24-.05.68-.12,1.36-.16,2.04-.02.29-.09.63.04.85.2.36.52.67.85.93.43.33.93.59,1.45.91m-1.11-12.49c.07.19.13.34.18.49.2.54.41,1.08.6,1.63.21.64.41,1.29.6,1.93.11.37.21.74.29,1.12.11.47.23.95.29,1.42.07.5.04,1.01.1,1.51.14,1.14.14,2.27-.03,3.4-.04.29-.13.57-.18.86-.04.2-.07.41-.11.65.36.25.7.49,1.05.74.44.31.87.62,1.31.92.23.15.36.08.39-.2.08-.71.15-1.42.23-2.13.11-.93.08-1.85,0-2.78-.04-.57-.11-1.13-.23-1.69-.1-.46-.14-.92-.25-1.38-.16-.66-.37-1.31-.56-1.96-.35-1.17-.72-2.32-1.21-3.44-.08-.18-.17-.3-.35-.37-.46-.19-.92-.39-1.38-.56-.23-.09-.44-.31-.76-.15m57.42-3.06s-.08-.03-.12-.05c-.35.4-.67.83-1.04,1.21-.39.39-.62.79-.48,1.38.08.34-.02.72.03,1.07.1.71.25,1.41.37,2.11.08.45.17.89.26,1.33.1.5.19,1.02.32,1.52.13.53.29,1.06.48,1.57.28.76.58,1.51.94,2.23.26.54.59,1.04.92,1.55.28.43.59.84.88,1.25.08-.05.12-.05.14-.08.47-.83.95-1.66,1.42-2.5.08-.14.04-.27-.08-.39-.56-.6-.98-1.3-1.36-2.01-.27-.51-.52-1.04-.74-1.58-.31-.76-.59-1.53-.86-2.31-.12-.36-.19-.75-.27-1.13-.04-.19-.07-.38-.11-.57-.04-.22-.07-.45-.12-.67-.1-.52-.23-1.04-.3-1.57-.05-.38,0-.78-.05-1.16-.04-.41-.14-.81-.22-1.21m-35.88,60.75c.09-.1.18-.17.24-.27.52-.8,1.08-1.59,1.53-2.43.49-.91.91-1.87,1.2-2.87.18-.62.3-1.26.45-1.89.1-.41.19-.82.27-1.23.11-.54.23-1.08.3-1.62.11-.85.19-1.71.26-2.57.02-.2.02-.46-.09-.61-.43-.55-.9-1.07-1.37-1.59-.04-.05-.13-.05-.27-.11-.06.62-.12,1.2-.19,1.78-.07.63-.14,1.26-.24,1.88-.09.56-.23,1.11-.34,1.66-.08.41-.11.84-.24,1.23-.23.67-.5,1.32-.78,1.97-.6,1.38-1.27,2.74-2.34,3.91.46.85.92,1.71,1.39,2.55.04.08.14.13.23.2m47.12-1.65c.22.35.35.65.56.86.65.67,1.96.88,2.82.47.8-.38,1.61-.68,2.52-.57.13.02.27-.01.39,0,.22.03.46.04.66.14.37.17.73.15,1.09.05.2-.05.41-.11.6-.21.63-.3,1.2-.66,1.42-1.39.02-.08.06-.16.12-.3.15.28.11.47.01.67-.25.53-.67.91-1.16,1.22-.07.04-.12.12-.17.18,0,.03.02.07.03.1.28-.02.56.03.84-.08,1.14-.46,2.27-.92,3.11-1.86.04-.05.11-.08.15-.12.37-.41.73-.82,1.09-1.24.04-.04.03-.12.05-.26-.18.06-.31.1-.44.13-.12.04-.24.11-.36.11-.9.04-1.78-.12-2.67-.21-.45-.31-.98-.24-1.47-.22-.66.02-1.34-.12-1.97.2-.11.05-.26.02-.39.04-.11.01-.23.01-.33.06-1.32.56-2.68,1.02-3.95,1.71-.03.02-.06.04-.09.04-.62.07-1.21.38-1.86.29-.15-.02-.33.09-.59.17M40.43,21.76s.07-.07.11-.1c.12.11.25.2.37.31.27.26.52.54.8.79.13.12.29.24.45.26.54.08,1.05.19,1.53.45.07.04.19-.03.34-.05-.41-.67-.79-1.28-1.16-1.89.03-.02.07-.04.1-.07.79.88,1.46,1.86,2.16,2.86.19-.3-.08-.51-.11-.74-.04-.27-.09-.54-.16-.81-.06-.25-.18-.49-.23-.74-.04-.25-.31-.44-.18-.74.28.44.53.89.72,1.36.19.46.24.99.61,1.54.06-.14.07-.21.12-.27.64-.75,1.44-.81,2.3-.51.56.19,1.02.55,1.38,1.03.11.14.21.32.45.33-.12-1.11-.75-1.94-1.4-2.74-.16-.2-.46-.38-.7-.4-.66-.04-1.2-.38-1.8-.56-.21-.07-.42-.18-.61-.3-.67-.43-1.33-.87-2-1.31-.79-.53-1.7-.66-2.57-.47-.96.21-1.59.96-2.07,1.8-.12.21-.26.46-.24.68.05.45-.16.78-.35,1.13-.09.19-.12.37.01.55.32.01.64.07.95.03.32-.03.63-.16.95-.22.3-.06.61-.11.99-.17-.29-.4-.53-.73-.77-1.06m53.02,37.33c.14-.06.22-.07.27-.12.17-.15.33-.32.48-.49.53-.58.73-1.33,1.09-2,.08-.15.04-.4-.02-.57-.19-.52-.29-1.06-.42-1.59-.2-.83-.05-1.63,0-2.45.03-.58-.03-1.17-.06-1.75-.03-.58-.41-1.02-.68-1.49-.1-.18-.24-.36-.41-.46-.47-.3-.94-.66-1.56-.58-.11.01-.23-.05-.34-.06-.43-.06-.83.03-1.23.18-.21.08-.43.12-.65.18-.22.05-.45.08-.66.16-.17.06-.28.21-.16.39.19.3.36.63.61.88.36.36.72.71.96,1.15.01.02.06.01.13.03.16-.37.33-.73.49-1.11.03,0,.07.02.1.02,0,.13.03.27,0,.4-.1.39-.23.78-.32,1.17-.03.15-.01.32.03.46.13.37.32.71.32,1.12,0,.2.1.4.16.66.41-.22.46-.62.63-.92.19-.31.35-.64.52-.96.04.01.09.03.13.05-.14.58-.41,1.1-.64,1.65-.24.56-.47,1.11-.71,1.67.02.02.04.04.07.06.69-.7,1.37-1.4,2.06-2.1-.03.29-.07.41-.29.68-.38.46-.78.92-1.16,1.39-.08.11-.15.22-.26.37.18.06.28.12.38.12.38.03.67.22.94.46.64.55.73,1.87.5,2.6-.08.25-.18.5-.3.83m-59.18,7.97c.22-.07.5-.25.62-.46.32-.54.67-1.08.94-1.65.47-.97.92-1.97,1.34-2.97.14-.33.25-.69.25-1.04,0-.63.18-1.21.35-1.8.14-.51.28-1.02.27-1.58-.02-.87-.1-1.76.16-2.62.11-.35-.29-.66-.64-.53-.49.17-.98.33-1.51.34-.34,0-.46.14-.48.48-.02.31-.02.62-.04.93-.05.63-.09,1.26-.16,1.89-.04.3-.13.59-.19.89-.06.3-.11.6-.18.9-.08.33-.15.66-.26.98-.14.45-.26.9-.47,1.32-.29.6-.62,1.19-.99,1.74-.32.47-.28.92-.05,1.36.32.62.68,1.21,1.03,1.81m24.47-35.76c.38-.3.54-.62.58-.97.07-.58.08-1.17.11-1.76.01-.18.07-.36.03-.53-.17-.72-.36-1.44-.57-2.14-.07-.22-.1-.5-.37-.66-.04.08-.09.13-.1.19-.12.72-.59,1.26-.99,1.83-.33.47-.76.88-1.12,1.35-.32.42-.64.86-.88,1.33-.27.53-.46,1.1-.66,1.65-.08.21-.14.43-.17.65-.11.76-.21,1.51-.31,2.27-.06.45-.12.9-.16,1.35,0,.1.03.21.06.32.08-.02.14-.01.17-.04.32-.28.65-.54.94-.85.72-.75,1.45-1.5,2.13-2.29.46-.53.95-1.04.92-1.86-.03-.84-.22-1.54-.98-1.99-.02,0-.02-.06-.02-.11.3-.09.43.19.59.32.59.47.75,1.14.78,1.95m19.47-13.19c.15-.2.26-.29.3-.4.35-.97.69-1.94,1.05-2.91.08-.23,0-.39-.11-.59-.47-.84-1.1-1.59-1.21-2.62-.07-.62-.36-1.21-.29-1.86.01-.13-.06-.28-.09-.42-.05-.25-.11-.5-.14-.75-.03-.19.02-.4-.03-.57-.16-.56-.12-1.13-.13-1.7,0-.13-.03-.27-.05-.46-.4.28-.72.52-1.07.73-.28.16-.36.36-.36.67,0,.79-.07,1.59-.07,2.38,0,.68-.03,1.38.12,2.04.11.47.17.96.24,1.43.11.84.39,1.64.66,2.43.14.43.33.85.52,1.26.19.42.42.83.68,1.35M8.21,11.55c.09.23.13.38.19.53.14.31.32.61.43.93.16.44.27.89.54,1.29.03.05.02.13.04.19.09.33.19.65.28.98.03.11.08.21.11.32.12.47.27.93.36,1.4.08.48.13.97.14,1.45,0,.39-.05.78-.1,1.16-.06.44.04.8.46,1.03.04.02.08.06.11.1.62.61,1.22,1.21,1.84,1.81.07.07.19.09.29.13.17-.64.17-.63.09-1.22-.13-1-.06-2.01-.28-3.01-.08-.36-.15-.72-.27-1.07-.06-.19-.13-.37-.18-.55-.08-.31-.12-.64-.23-.94-.19-.51-.39-1.03-.63-1.52-.33-.67-.76-1.29-1.07-1.97-.24-.53-.56-.83-1.15-.85-.3-.01-.59-.11-.97-.18m61.7.9s-.09,0-.13-.01c-.48.6-.91,1.19-.89,2.06.02.79.15,1.5.55,2.18.53.9.86,1.9,1.05,2.91.16.81.3,1.63.23,2.48-.04.42-.01.85,0,1.27,0,.16,0,.34.07.48.59,1.32,1.19,2.65,1.79,3.97.12.26.26.29.43.07.41-.55.81-1.11,1.18-1.68.15-.22.17-.48-.07-.71-.11-.11-.19-.27-.28-.4-.91-1.35-1.61-2.81-2.2-4.32-.18-.48-.33-.98-.47-1.48-.11-.37-.17-.76-.26-1.13-.11-.46-.24-.91-.33-1.37-.1-.51-.18-1.02-.26-1.53-.11-.69-.23-1.38-.34-2.07-.04-.24-.05-.49-.08-.74m-30.6,12.42s.05,0,.08,0c.03.09.07.19.07.29.01.25.14.35.38.34.15,0,.29,0,.44,0,1.07-.05,2.06.2,2.97.75.24.15.41.11.6-.07.26-.25.54-.47.81-.7.24-.21.26-.41.03-.62-.46-.43-.98-.75-1.57-.95-.27-.09-.54-.25-.81-.25-.7,0-1.39-.11-2.09,0-.62.09-1.28.11-1.87.31-.9.31-1.83.47-2.74.73-.37.11-.73.21-1.16.33.24.37.51.68.68,1.04.23.5.5.64,1.09.54.6-.1,1.17-.24,1.71-.48.29-.13.58-.29.88-.4.43-.17.45-.18.45-.67,0-.06.03-.11.04-.17m48.39,25.54c0,.07,0,.11.01.13.73.92,1.04,2,1.19,3.14,0,.06.02.13.02.19-.02.42.06.54.43.67.31.1.62.2.93.29.35.11.5.05.54-.31.06-.49.12-.98.05-1.46-.06-.42-.02-.87-.27-1.27-.39-.61-.68-1.29-1.12-1.87-.43-.56-.85-1.15-1.43-1.58-.34-.25-.66-.55-.92-.88-.35-.44-.75-.81-1.17-1.16-.14-.12-.26-.27-.39-.4-.08.07-.14.09-.16.13-.16.29-.27.6-.47.86-.38.49-.3.84.11,1.3.39.44.79.86,1.27,1.2.32.22.63.46.94.69.07.06.16.11.24.17.2-.12.38-.23.57-.34.02.03.04.05.06.08-.14.14-.29.28-.44.43m-9.3-19.36c.24-.22.44-.41.64-.59.34-.31.67-.62,1.01-.92.28-.25.57-.49.84-.75.07-.07.12-.2.12-.3,0-.24-.02-.49-.06-.73-.16-1.24-.31-2.49.02-3.73.02-.05-.01-.12-.03-.23-.14.03-.27.03-.38.07-.41.15-.82.3-1.21.5-.59.31-1.16.65-1.73.99-.07.04-.13.14-.15.23-.15.84-.15,1.69-.04,2.53.04.33.22.66.22.99,0,.58.22,1.07.44,1.58.05.12.17.22.29.37m-48.26,38.22c-.15.24-.09.45-.04.65.18.67.16,1.36.11,2.04-.05.69-.16,1.38-.22,2.08-.01.1.04.23.1.31.26.27.54.51.82.76.34.3.68.6,1.03.9.23.2.45.41.74.67.17-.37.33-.65.42-.95.12-.4.17-.82.26-1.23.06-.27.18-.53.19-.8.03-.81,0-1.63,0-2.44,0-.18-.03-.3-.25-.36-.2-.05-.37-.18-.56-.28-.47-.26-.92-.53-1.39-.78-.39-.2-.79-.37-1.24-.57m5.56,10.2c.25-.21.52-.63.51-.91-.01-.85.33-1.61.54-2.41.19-.71.31-1.43.24-2.17-.01-.12-.12-.26-.21-.36-.36-.4-.73-.79-1.12-1.17-.37-.36-.78-.69-1.17-1.02-.07-.05-.17-.06-.32-.11-.02.4-.06.74-.04,1.09.08,1.04-.02,2.05-.36,3.03-.18.54-.43,1.07-.66,1.63.83.77,1.69,1.57,2.57,2.39m39.54-45.55c.86-.77,1.67-1.5,2.49-2.23.15-.13.16-.25.08-.42-.21-.46-.44-.91-.59-1.38-.15-.51-.26-1.04-.3-1.57-.05-.7-.01-1.41-.01-2.11,0-.15-.02-.31-.03-.54-.56.25-.95.58-1.32.94-.45.43-.84.91-1.27,1.35-.17.18-.23.36-.26.6-.11,1,.23,1.93.47,2.87.14.55.32,1.08.36,1.66.02.31.18.57.4.84m-58.81,2.76c-.04-.34,0-.72-.14-1-.31-.62-.66-1.23-1.08-1.79-.39-.51-.9-.94-1.35-1.41-.28-.29-.56-.55-.98-.23-.04.02-.1,0-.14.02-.88.2-1.76.43-2.59.8-.13.06-.24.14-.34.21.04.1.04.15.07.19.08.08.16.17.25.23,1.11.71,1.85,1.77,2.63,2.79.22.29.43.41.77.39.88-.04,1.76-.07,2.63-.11.07,0,.15-.04.28-.09m-10.8-12.59c.47.61.92,1.16,1.33,1.73.18.25.4.35.7.34.17-.01.36,0,.53.06.64.19,1.3.1,1.95.12.08,0,.16-.03.23-.05.44-.11.87-.29,1.31-.31.47-.03.93-.05,1.37-.22.45-.17.88-.39,1.25-.7-.02-.06-.03-.1-.05-.12-.55-.53-1.09-1.08-1.67-1.58-.3-.26-.67-.48-1.1-.16-.16.12-.38.18-.58.23-.75.19-1.48.48-2.27.47-.08,0-.17,0-.24.04-.43.24-.87.14-1.32.05-.45-.09-.93-.19-1.45.12m20.14,37.39c0,.21-.05.36-.02.5.13.65.27,1.3.42,1.94.02.1.13.19.22.24.71.42,1.43.84,2.15,1.23.21.11.46.16.69.22.46.12.96.16,1.39.36.71.34,1.43.27,2.15.23.32-.02.34-.15.21-.46-.24-.57-.48-1.15-.67-1.75-.17-.53-.39-.77-.89-.8-.65-.03-1.28-.05-1.92-.24-.4-.12-.81-.2-1.19-.37-.09-.04-.19-.05-.28-.08-.23-.08-.46-.13-.67-.25-.43-.22-.84-.49-1.26-.72-.08-.04-.18-.03-.34-.05M85.12,15.87c-.35.17-.71.29-1.01.5-.42.28-.86.47-1.33.65-.61.22-1.25.31-1.87.49-.5.15-1.06.14-1.59.2-.18.02-.34.03-.4.26-.07.25-.18.48-.28.71-.24.58-.49,1.16-.73,1.73,0,.03,0,.06.02.09.03.02.05.05.08.06.09.02.19.03.29.04.76.07,1.5.09,2.22-.29.36-.19.8-.26,1.21-.3.26-.03.51-.08.73-.21.67-.37,1.34-.73,1.99-1.1.15-.09.32-.22.38-.36.13-.33.21-.68.29-1.03.07-.3.12-.6.17-.9.04-.19.09-.39-.16-.54M8.1,26.89c.1.15.14.24.2.3.33.34.67.67,1,1,.23.23.43.49.82.42.07-.01.16.03.23.06.36.18.74.15,1.1.09.69-.12,1.39-.18,2.09-.16.42.01.87.07,1.27-.04.84-.25,1.63-.64,2.35-1.14.29-.2.27-.29,0-.49-.71-.52-1.52-.89-2.1-1.58-.03-.03-.09-.04-.17-.07-.16.13-.32.32-.51.41-.79.35-1.52.89-2.45.86-.03,0-.07,0-.1.02-.51.26-1.09.15-1.62.3-.13.04-.29.03-.43.03-.53,0-1.06,0-1.69,0m76.27-7.36c-1.18.68-2.43,1.04-3.68,1.41-.28.08-.56.22-.84.21-.77-.04-1.55.21-2.28-.11-.51.93-1,1.82-1.52,2.76.26.08.47.19.69.2.58.04,1.17.09,1.75.02.39-.04.76-.26,1.13-.41.4-.16.79-.36,1.19-.52.88-.35,1.82-.59,2.58-1.21.13-.11.24-.19.29-.37.09-.32.24-.63.34-.94.12-.35.23-.7.34-1.05m-49.39,49.87c-.51-.94-1.02-1.86-1.51-2.74-.36.06-.67.16-.99.15-.52-.02-1.03-.09-1.55-.17-.3-.05-.59-.17-.89-.24-.61-.13-1.22-.29-1.78-.56-.53-.26-1.06-.53-1.62-.82.01.09,0,.13.02.17.19.56.37,1.11.56,1.66.07.2.13.44.28.55.49.34.98.67,1.55.87.63.22,1.25.5,1.88.75.44.17.86.4,1.31.51.9.22,1.8.16,2.73-.12m8.76-18.8c-1.53,1.63-3.24,2.81-5.37,3.47.64.64,1.26,1.22,1.82,1.84.56.62,1.07,1.28,1.61,1.94.07-.08.11-.11.13-.15.48-1.03.94-2.06,1.44-3.08.31-.64.47-1.29.42-2.01-.04-.52,0-1.05,0-1.57,0-.12-.03-.25-.05-.45m-10.91,13.04c.23-.47.45-.88.64-1.31.5-1.11.93-2.24,1.16-3.44.06-.28.06-.58.11-.87.16-.76.31-1.52.24-2.31-.01-.16,0-.33,0-.49,0-.08-.03-.15-.05-.21-.34.04-.66.09-.98.12-.15.01-.29,0-.44.01-.3.04-.37.14-.41.45-.04.25-.09.51-.15.76-.07.31-.22.62-.23.94-.02.41-.15.76-.34,1.1-.27.48-.55.96-.84,1.43-.12.2-.17.38-.08.6.09.22.15.46.23.69.27.76.54,1.52.83,2.27.03.08.15.14.28.26m.93,14.78c-.28-.22-.53-.39-.75-.59-.62-.59-1.24-1.19-1.85-1.8-.24-.24-.38-.31-.58-.15-.28.22-.59.3-.92.4-.77.23-1.54.37-2.35.37-.41,0-.82,0-1.23,0-.1,0-.2.04-.35.08.39.61.72,1.19,1.12,1.71.28.37.6.75,1.15.73,1.29-.04,2.58.07,3.84-.25.09-.02.19,0,.29-.03.43-.08.85-.16,1.28-.26.1-.03.19-.11.35-.21m-5.66,1.34c.28.44.53.75.87.94.78.45,1.56.88,2.35,1.31.15.09.32.18.49.18.46.02.92.04,1.37-.03.57-.08,1.13-.27,1.7-.38.61-.12,1.11-.46,1.67-.7-.62-.58-1.23-1.12-1.79-1.7-.29-.3-.59-.31-.93-.24-.51.11-1.01.26-1.52.32-.85.11-1.72.17-2.57.23-.37.03-.75,0-1.13,0-.14,0-.27.04-.5.07m52.08-49.58c-.53.5-1.03.98-1.54,1.46-.29.28-.6.55-.9.82-.14.13-.47.19-.34.44.06.13.36.2.54.2.55.03,1.11-.03,1.67.02.58.05,1.17.1,1.72.29.64.22,1.28.23,1.92.15.19-.03.39-.16.54-.3.58-.54.94-1.24,1.35-1.9.05-.08.06-.17.11-.31-.59,0-1.12.01-1.66,0-1.18-.04-2.33-.18-3.41-.88M11.54,22.44c-.4-.35-.79-.66-1.15-1-.38-.35-.74-.72-1.06-1.04-.73.2-1.29.61-2,.65-.86.06-1.7.22-2.56.31-.26.03-.53,0-.85,0,.23.51.4.99.65,1.42.12.21.36.43.58.48.45.1.94.09,1.41.12.32.03.64.08.97.08.32,0,.65,0,.97-.05.47-.08.94-.26,1.41-.3.5-.05.91-.31,1.36-.47.08-.03.15-.11.27-.21m68.92-8.24c-.05.07-.09.11-.1.15-.36.79-.52,1.66-.97,2.42-.1.17,0,.33.2.36.13.02.26,0,.39,0,.38-.06.77-.1,1.14-.2.67-.18,1.33-.38,1.99-.61.24-.08.43-.28.66-.4.5-.29,1.02-.56,1.52-.86.28-.17.45-.4.43-.77-.02-.4,0-.81-.01-1.22,0-.1-.04-.21-.06-.32-1.65.83-3.33,1.41-5.18,1.47M25.33,58.29c0,.61,0,1.12,0,1.64,0,.29.1.5.35.65.38.22.75.45,1.14.64.7.36,1.31.88,2.13,1.03.57.1,1.11.36,1.71.33.12,0,.26.03.37.09.29.15.49.05.64-.14-.21-.54-.4-1.05-.59-1.55-.13-.33-.25-.67-.4-.99-.04-.09-.14-.21-.22-.22-.32-.06-.64-.09-.97-.11-.37-.02-.72-.01-1.09-.17-.78-.33-1.61-.56-2.41-.85-.2-.07-.39-.2-.67-.34m46.3-10.33s.08,0,.12,0c.16-.6.33-1.2.49-1.8.02-.08.03-.17,0-.24-.1-.24,0-.44.05-.67.18-.92.28-1.83-.22-2.69-.04-.07-.06-.15-.08-.23-.23-.66-.6-1.22-1.13-1.68-.33-.29-.68-.56-1.03-.83-.1-.08-.21-.16-.33-.21-.54-.25-1.08-.51-1.64-.74-.22-.09-.46-.07-.75,0,.06.1.09.16.13.19.58.49,1.06,1.05,1.47,1.69.42.65.79,1.35,1.21,2,.49.76.75,1.61,1,2.46.19.63.29,1.29.44,1.93.07.28.16.54.24.82M9.61,19.84c.08-.27.16-.45.17-.62.02-.26,0-.52-.03-.78-.05-.47-.09-.94-.18-1.4-.08-.41-.25-.8-.33-1.21-.11-.57-.28-1.12-.55-1.64-.04-.07-.08-.14-.1-.22-.16-.73-.5-1.39-.83-2.06-.12-.24-.32-.44-.63-.49-.22-.04-.43-.13-.65-.18-.1-.02-.21,0-.31,0,0,.09-.01.19.01.27.29.86.57,1.73.71,2.62.12.8.16,1.62.2,2.43.01.31.05.57.27.81.29.31.61.61.81.98.32.6.86.96,1.44,1.5M79.27,4.48c-.25.22-.41.38-.59.51-.46.32-.63.73-.55,1.29.04.32-.06.65-.04.97.04.55.12,1.1.18,1.65.03.28,0,.57.09.82.25.7.31,1.44.53,2.15.21.68.56,1.27.85,1.9.02.03.08.05.16.1.06-.2.08-.4.18-.54.32-.44.43-.96.48-1.47.04-.48.21-.91.3-1.37.04-.21.02-.37-.07-.56-.18-.38-.38-.75-.52-1.15-.32-.91-.74-1.8-.74-2.79,0-.06,0-.14-.04-.19-.16-.28-.16-.59-.16-.9,0-.09-.03-.18-.08-.41M11.83,41.63c.63.15,1.18.32,1.73.41.38.06.78.04,1.17.03.1,0,.21-.09.28-.17.75-.77,1.57-1.48,2.2-2.36.23-.32.25-.35.05-.7-.23-.41-.47-.81-.5-1.29-.01-.18-.16-.28-.35-.27-.45.03-.91.07-1.36.08-.27,0-.36.11-.41.37-.05.25-.15.5-.27.72-.62,1.09-1.38,2.05-2.33,2.86-.08.07-.12.18-.21.32m8.32-17.74s.1.02.15.03c.08-.09.16-.18.23-.28.36-.48.61-1.04,1.12-1.4.07-.05.12-.17.12-.25-.02-.31-.04-.62-.11-.92-.17-.67-.4-1.33-.55-2.01-.33-1.47-1.04-2.78-1.73-4.1-.06-.11-.17-.2-.28-.27-.25-.15-.51-.29-.77-.41-.08-.04-.18-.02-.27-.03,0,.1-.01.21.02.3.22.67.48,1.34.69,2.02.2.67.36,1.35.54,2.02.11.46.23.91.32,1.37.1.48.13.97.27,1.43.1.32.12.64.12.96s-.02.62,0,.93c.01.2.08.4.12.6m5.38-2.45c-.04-.31-.08-.63-.13-.94-.03-.18-.04-.4-.15-.54-.57-.73-1.13-1.47-1.77-2.14-.49-.52-1.07-.96-1.63-1.4-.43-.34-.89-.63-1.34-.94-.03.02-.06.04-.1.06.04.13.06.26.12.38.27.6.56,1.2.82,1.8.18.41.35.84.5,1.26.1.31.18.62.23.94.09.61.16,1.22.24,1.83,0,.02.04.04.12.11.1-.05.22-.1.33-.17.28-.18.58-.28.92-.26.58.02,1.17,0,1.84,0m55.14,8.31c.42.16.79.31,1.16.46.24.09.48.24.72.25.93.03,1.86.01,2.79.01.26,0,.43-.15.54-.36.25-.53.48-1.05.72-1.59.04-.09.08-.2.12-.32-.14-.02-.24-.04-.33-.04-1.01-.07-1.98-.29-2.89-.74-.25-.12-.4-.05-.55.13-.6.71-1.3,1.31-2.03,1.9-.08.07-.14.17-.25.32m-50.43,45.62c.06-.28-.12-.35-.26-.46-.63-.51-1.3-.99-1.78-1.66-.06-.08-.13-.15-.2-.21-.16-.14-.36-.19-.54-.04-.49.43-1.15.38-1.72.56-.44.14-.92.15-1.41.22.04.15.06.25.09.33.23.48.49.95.7,1.43.19.45.24.51.7.51.8,0,1.6,0,2.4,0,.13,0,.27,0,.39-.05.54-.2,1.08-.42,1.63-.63M10.98,29.49c.26.17.46.32.66.44.72.4,1.45.77,2.15,1.18.25.14.45.13.7.07.3-.06.6-.11.91-.13.26-.02.52,0,.78,0,.51,0,.63-.11.8-.6.19-.54.41-1.05.87-1.44.29-.26.52-.61.8-.96-.13-.11-.23-.2-.33-.27-.43-.3-.45-.29-.87.06-1.04.87-2.27,1.22-3.59,1.35-.9.09-1.81.12-2.71.18-.04,0-.08.06-.18.13m-2.29,11.08c.25.08.42.14.58.2.44.16.89.31,1.33.47.31.12.55.05.79-.2.37-.39.78-.74,1.16-1.12.51-.51.98-1.04,1.22-1.74.09-.25.24-.47.36-.7-.07-.05-.09-.08-.12-.09-.05-.02-.09-.02-.14-.02-1-.09-1.99.28-3,.06-.02,0-.03,0-.05,0-.23.04-.39.13-.41.4,0,.12-.07.25-.12.36-.16.3-.32.6-.49.88-.14.24-.28.48-.45.69-.19.26-.4.5-.65.8m74.85,37.99s.04.08.05.12c.16,0,.31,0,.47.03.45.06.79-.1,1.08-.44.1-.12.24-.22.36-.34.39-.39.78-.78,1.15-1.18.27-.29.51-.59.77-.88.07-.08.18-.22.15-.27-.05-.1-.18-.17-.29-.21-.08-.03-.2-.01-.29.01-.39.11-.78.21-1.17.33-.34.1-.77-.02-.84-.35-.1-.45-.38-.4-.69-.4-.23,0-.46-.02-.69,0-.63.06-1.16.31-1.52.85-.12.18-.08.33.06.48.13.14.27.17.43.05.07-.05.14-.12.2-.12.13,0,.3.02.39.1.06.05.05.24,0,.35-.09.22-.25.36-.52.36-.24,0-.46.24-.46.42,0,.17.24.42.47.42.2,0,.4-.06.6-.12.08-.02.15-.13.21-.12.18.04.38.07.51.19.14.12-.02.26-.12.37-.11.12-.21.23-.32.35m.72-55.76c-.33.04-.56.05-.77.1-.42.11-.85.21-1.26.36-.22.08-.5.18-.61.36-.15.23-.2.55-.23.84-.11,1.23.11,2.44.23,3.65,0,0,.03.01.08.04.07-.05.16-.11.23-.19.36-.36.7-.74,1.06-1.09.31-.31.64-.61.96-.92.22-.21.34-.45.33-.78-.03-.57,0-1.14,0-1.72v-.65Zm-54.95,50.98s.08-.02.13-.04c0-.25.02-.5.03-.75.04-.82.28-1.64.18-2.47-.05-.43-.13-.86-.21-1.29-.01-.07-.12-.15-.2-.19-.25-.11-.5-.21-.76-.29-.53-.15-1.04-.36-1.63-.34-.01.14-.04.26-.04.39,0,.54.05,1.07-.01,1.6-.08.64.16,1.1.64,1.47.09.07.17.15.25.23.34.35.67.7,1.01,1.05.2.21.41.41.62.62M12.34,36.91c-.28-.34-.54-.61-.76-.91-.57-.76-1.23-1.43-1.96-2.03-.11-.09-.24-.19-.38-.22-.17-.04-.38-.07-.52,0-.61.31-1.19.65-1.78,1-.24.14-.24.23-.05.42.52.52,1.04,1.04,1.56,1.55.16.16.36.25.61.25,1,0,1.99.03,2.99.04.07,0,.14-.05.29-.11m-8.16.65s-.04.08-.07.12c.07.08.11.18.19.25.23.17.47.34.71.5.36.25.69.56,1.08.74.57.25,1.11.53,1.59.93.31.25.41.22.7-.06.64-.66,1.07-1.47,1.58-2.22.04-.05.01-.15.02-.26-.56,0-1.1-.03-1.63,0-.5.03-1.01-.12-1.49.15-.04.03-.12-.01-.19-.03-.25-.04-.5-.11-.76-.12-.58-.02-1.16,0-1.74,0m23.08,34.91c-.77-.69-1.37-1.45-2.21-1.98-.55-.81-1.4-1.32-2.08-2.01-.03.12-.01.21.01.29.03.16.09.31.11.47.08.53.14,1.06.21,1.59,0,.06.05.12.08.18.23.43.39.89.41,1.39,0,.19.08.39.17.56.05.1.19.2.29.2.35.03.71.05,1.06-.01.51-.09,1-.24,1.5-.39.14-.04.26-.17.44-.29m40.76-40.35c-.08.12-.13.18-.16.25-.57,1-1.17,1.98-1.86,2.92-.43.6-.91,1.14-1.45,1.65-.08.07-.14.23-.11.32.04.15.63.24.75.12.27-.25.57-.49.79-.79.37-.49.82-.88,1.36-1.17.17-.09.33-.21.5-.3.54-.29,1.04-.65,1.63-.84.58-.19,1.14-.44,1.72-.67,0-.19-.02-.36-.03-.56-.14,0-.24-.02-.33,0-.34.1-.68.2-1.01.32-.66.24-.79.2-1.16-.37-.2-.3-.42-.58-.65-.9m19.96-9.06s-.07-.04-.1-.05c-.66.65-1.34,1.29-2.02,1.92-.69.64-1.35,1.29-2.11,1.97.18.11.3.22.44.26.34.09.71.13,1.02.25.46.17.89.13,1.34.15.47.01.57-.08.61-.55.02-.19,0-.4.05-.58.21-.69.65-1.32.57-2.09-.01-.15.1-.31.12-.47.04-.27.05-.54.08-.8m-6.75-11.83c.2.03.36.07.52.07.14,0,.28-.07.43-.08.4-.02.76-.17,1.09-.35.75-.44,1.49-.91,2.24-1.36.39-.24.39-.26.3-.75-.02-.1,0-.2-.02-.29-.03-.25-.08-.49-.11-.73-.53.24-1,.47-1.5.65-.4.15-.85.19-1.24.36-.35.15-.69.25-1.09.15-.2.76-.39,1.48-.62,2.32M5.8,16.31c-.19.07-.39.16-.6.21-.35.07-.7.12-1.06.17-.6.08-1.19.33-1.82.23-.17-.03-.34-.02-.53-.03,0,.12-.02.2,0,.27.08.24.18.49.27.73.17.46.21.49.7.51.21,0,.42.05.63.08.19.03.38.1.57.1.68.02,1.37.04,2.05,0,.33-.02.66-.15.98-.27.22-.08.25-.23.1-.42-.26-.32-.53-.62-.79-.93-.16-.19-.3-.38-.5-.65m19.57,37.05c-.26.43-.21.91-.22,1.38,0,.08.12.19.2.25.66.42,1.33.82,1.98,1.24.64.42,1.35.58,2.09.66.25.03.32-.06.27-.31-.07-.33-.18-.65-.24-.98-.1-.55-.44-.85-.92-1.07-.47-.21-.97-.34-1.47-.48-.57-.16-1.1-.44-1.7-.69m58.92-6.12s.09-.03.1-.05c.3-.44.61-.87.89-1.32.04-.06,0-.21-.05-.27-.56-.59-1.09-1.21-2-1.28-.2-.02-.4-.13-.57-.24-.25-.16-.52-.18-.8-.14-.46.05-.52.14-.48.61,0,.1,0,.2,0,.29-.02.27-.07.55-.08.82,0,.62.09.73.7.71.56-.02,1.06.09,1.53.4.25.17.52.32.77.48m-49.14-20.53c-.17-.37-.31-.7-.48-1.01-.38-.67-.38-.66-1.13-.45-.02,0-.03.01-.04.01-.55.09-1,.36-1.33.81-.07.1-.17.2-.29.26-.48.21-.73.62-.97,1.06-.09.18-.05.31.11.42.47.29.94.58,1.4.89.21.14.37.1.5-.09.15-.21.27-.45.44-.64.19-.22.38-.45.62-.6.28-.19.6-.3.9-.45.08-.04.15-.12.26-.2m-4.71,32.3c-.13-.38-.3-.72-.35-1.08-.04-.29-.16-.38-.41-.46-.53-.15-1.09-.06-1.63-.26-.5-.18-.98-.36-1.36-.7-.44-.4-1-.47-1.5-.82-.02.16-.06.27-.04.35.13.38.15.76.03,1.15-.06.2.04.33.23.42.21.1.38.24.58.35.2.1.4.21.61.29.44.16.89.29,1.32.47.81.35,1.62.51,2.52.29M2.67,19.13c.02.07.03.14.06.18.25.34.5.67.57,1.12.04.19.22.31.45.31.21,0,.41.05.62.06.24.01.48.03.72,0,.43-.04.86-.12,1.29-.15.87-.05,1.68-.28,2.45-.81-.09-.11-.16-.21-.24-.3-.15-.17-.32-.33-.46-.5-.31-.37-.49-.43-.93-.2-.72.37-1.49.4-2.27.42-.05,0-.1,0-.14-.02-.69-.24-1.4-.12-2.12-.12m83.16-8.98c-.35.15-.66.28-.96.42-.11.05-.23.12-.32.2-.83.71-1.81,1.04-2.88,1.14-.21.02-.41.04-.6.05-.17.53-.32,1.01-.48,1.51.18.01.3,0,.4.03.48.18.95.03,1.39-.09.65-.17,1.29-.44,1.91-.7.43-.19.82-.45,1.24-.67.32-.17.36-.2.27-.51-.1-.34-.09-.67.04-1,.05-.13.12-.28,0-.39m-49.19,61.24c.29.78.83,1.34,1.34,2.06.25-.86.48-1.61.68-2.37.17-.62.29-1.26.45-1.88.17-.66.39-1.3.54-1.97.17-.76.29-1.52.42-2.29.02-.12-.02-.26-.04-.39-.04,0-.07,0-.1,0-.71,2.46-1.77,4.75-3.29,6.84M3.72,10.43c0,.13-.03.23,0,.3.23.49.03,1.08.32,1.56.02.04,0,.1,0,.14-.03.43-.03.85.37,1.15.04.03.04.09.07.13.42.78.98,1.46,1.62,2.07.08.08.2.13.36.24-.02-.46.13-.84-.06-1.22-.09-.18-.06-.42-.09-.62-.06-.33-.1-.67-.2-1-.18-.58-.43-1.15-.56-1.74-.08-.32-.25-.5-.5-.6-.42-.16-.85-.27-1.33-.41m77.4-1.39c.23-.93.75-1.77.7-2.76,0-.19.01-.4.1-.56.12-.23.08-.39-.07-.57-.1-.12-.18-.27-.22-.42-.09-.36-.15-.72-.24-1.08-.07-.27-.16-.54-.27-.86-.41.4-.79.76-1.15,1.13-.06.06-.11.18-.11.27.05.45.11.9.17,1.35.03.19.1.37.11.57.01.31.01.61.16.9.14.27.24.58.27.88.04.46.38.76.55,1.17m-7.72,19.81c-.1.14-.13.19-.16.24-.31.51-.39,1.14-.81,1.6-.06.06-.05.18-.07.28-.02.11-.02.23-.06.33-.16.47-.35.94-.49,1.42-.2.64.05.92.69.76.3-.07.57-.05.87,0,.34.05.67.24,1.04.11-.53-1.52-.74-3.08-1.01-4.73m-42.23,30.61c.85-1.33,1.48-3.36,1.26-4.15-.61,0-1.25,0-1.88,0-.32,0-.56.36-.47.65.21.62.43,1.23.39,1.9,0,.06.01.13.04.19.21.45.42.9.66,1.41m39.38-34.56c-.09.16-.15.24-.17.33-.09.39-.16.79-.25,1.18-.08.38-.13.78-.29,1.12-.16.34-.06.56.15.79.42.46.83.91,1.25,1.38.14.16.28.16.4-.01.25-.36.5-.71.74-1.06-.21-.36-.42-.67-.58-1.01-.35-.78-.68-1.58-1.02-2.37-.05-.1-.13-.19-.23-.34m14.64-19.73c-.07.02-.1.02-.13.04-.52.39-1.06.72-1.7.88-.07.02-.13.09-.2.14-.15.09-.29.2-.46.27-.34.14-.49.39-.5.76,0,.22-.08.44-.11.67-.02.12-.06.29,0,.34.07.07.24.06.36.04.29-.06.57-.13.84-.21.28-.09.56-.17.82-.29.43-.21.86-.44,1.27-.69.09-.05.16-.22.15-.32-.06-.5-.15-.99-.23-1.48,0-.04-.05-.08-.09-.13M1.01,14.38c.03.15.04.32.09.47.09.31.21.61.3.92.08.31.2.44.54.46.59.03,1.19.22,1.78-.07.08-.04.2,0,.29-.02.4-.09.81-.19,1.27-.29-.15-.22-.26-.35-.34-.51-.31-.58-.69-1-1.44-.89-.35.06-.72.02-1.08.01-.44-.02-.87-.05-1.41-.08m67.41,16.96c.02.09.01.14.04.18.24.38.48.77.74,1.14.03.04.22.02.29-.03.09-.08.14-.22.21-.33.32-.49.6-1.01,1.12-1.34.22-.14.22-.35.04-.59-.34-.47-.7-.94-1.05-1.4-.18-.24-.35-.21-.46.06-.2.49-.41.99-.61,1.49-.12.29-.22.57-.32.83m15.99-28.78c-.31.26-.56.41-.89.5-.64.17-.72.38-.74,1.07,0,.16-.02.32-.05.49-.07.39-.16.78-.25,1.22.14,0,.22.02.29,0,.22-.09.45-.18.67-.3.4-.21.81-.41,1.17-.67.42-.3.49-.62.3-1.1-.14-.38-.32-.74-.51-1.19M19.48,41.46c-.04-.48-.22-.73-.54-.93-.23-.14-.43-.35-.64-.52-.13-.11-.26-.23-.41-.35-.13.12-.25.19-.32.29-.48.73-1.1,1.33-1.73,1.91-.06.05-.06.16-.1.26.47.1.88.19,1.32,0,.28-.12.59-.16.89-.24.27-.07.54-.13.8-.2.25-.07.48-.15.74-.23M.63,11.83c-.01.4-.07.8.04,1.19.12.42.35.8.84.84.67.04,1.33.03,2,.03.07,0,.13-.07.24-.13-.14-.21-.26-.4-.39-.58-.25-.34-.55-.64-.74-1.01-.21-.4-.52-.45-.89-.43-.34.02-.67.05-1.09.09m87.95,61.53s.08,0,.12-.01c.56-.95.53-1.98.44-3.05-.41-.07-.75-.05-1.1.08-.54.2-1.04.54-1.64.58-.07,0-.15.07-.29.14.24.19.38.29.52.4.18.14.37.27.54.43.14.13.27.21.47.21.36.01.6.21.71.56.08.23.15.45.23.67m-62.48-2.8c.05-.09.1-.15.1-.21.07-.69.04-1.39,0-2.09,0-.22-.14-.3-.36-.3-.18,0-.36-.02-.53-.04-.57-.04-1.13-.09-1.7-.12-.09,0-.19.06-.38.13.98.9,1.9,1.74,2.86,2.62m61.61-48.29c-.22-.02-.38-.06-.53-.05-.69.05-1.38.13-2.08.2-.19.02-.24.13-.24.3,0,.21,0,.43-.05.63-.14.52.04,1.01.07,1.53.35-.12,2.46-2.07,2.83-2.61M7.73,36.97c-.44-.85-1.19-1.25-1.71-1.85-.56.44-1.11.85-1.63,1.28-.19.16-.42.32-.43.64.32.24.7.15,1.03.11.69-.09,1.37-.2,2.07-.17.2,0,.39,0,.68,0m29.34,44.38c-.28.2-.48.42-.72.51-.5.18-.95.5-1.5.55-.21.02-.41.07-.62.11-.13.02-.27.05-.4.08,1.31.49,2.61.79,4.01.25-.14-.4-.27-.82-.45-1.23-.05-.12-.21-.19-.32-.28M13.99,31.8c.76.83,1.44,1.57,2.12,2.31.03.03.09.03.19.05.03-.2.07-.38.08-.57.01-.45-.02-.91.16-1.35.06-.16.01-.37.01-.57-.86-.09-1.68-.19-2.57.12m19.79,38.37c.01.09,0,.17.03.18.92.64,1.87,1.22,2.66,2.02.02.02.09,0,.22,0-.58-.85-1-1.73-1.52-2.47-.52.1-.95.18-1.39.26m40.56-43.38s.06.07.09.1c.2-.18.39-.37.59-.54.65-.54,1.33-1.05,2.08-1.45.12-.07.23-.12.18-.29-.24-.04-.48-.09-.72-.13-.23-.04-.52-.18-.69-.09-.2.1-.3.4-.44.62-.37.59-.73,1.19-1.09,1.79m7.7-22.51c.32-.19.35-.41.36-.66.03-.88.25-1.73.39-2.59.02-.15.15-.31-.08-.48-.1.11-.21.22-.29.34-.12.16-.2.34-.32.49-.3.38-.51.74-.34,1.27.16.5.18,1.04.28,1.63M1.26,9.16s-.02.08-.03.12c.02.04.04.09.07.13.56.81,1.13,1.63,1.7,2.44.1.14.25.26.43.46.01-.17.04-.24.02-.3-.13-.5-.26-1-.4-1.49-.09-.28-.19-.57-.47-.72-.32-.19-.65-.36-.98-.53-.1-.05-.22-.07-.33-.1m68.48,56.2c.85-.21,1.63-.41,2.41-.61-.26-.67-1.36-1.08-1.98-.73.23.27.13.48-.11.7-.16.15-.34.33-.33.63m-32.64,12.83s-.08-.03-.12-.04c-.05.08-.13.16-.16.25-.12.33-.2.68-.35,1.01-.25.57.05,1.09.74,1.2-.04-.81-.08-1.61-.12-2.41M83.55.75c-.08.05-.12.07-.13.09-.12.48-.26.95-.36,1.44-.04.19.12.26.29.21.36-.1.68-.27.89-.58-.23-.39-.45-.76-.69-1.16M.62,9.62c-.02.41-.03.73-.06,1.05-.04.36-.04.37.3.47.14.04.29.08.43.06.13-.01.32-.07.36-.16.04-.1-.02-.28-.09-.39-.2-.31-.42-.6-.65-.89-.04-.05-.13-.07-.29-.15m70.72,22.8c.09-.32.17-.61.25-.89-.54-.14-.64-.1-.86.27-.11.18-.23.35-.34.53-.04.07-.06.17-.11.35.39-.09.7-.17,1.05-.25m-30.27,25.61c.08.66-.36,1.23-.09,1.86.21-.39.4-.79.53-1.2.08-.26,0-.52-.43-.66m34.59-23.65c.03.05.06.1.09.15.5-.1.86-.5,1.31-.7.06-.02.07-.15.11-.28-.26,0-.52-.08-.65.02-.32.23-.58.54-.86.82m5,48.62c-.3.27-.44.84-.28,1.1.03.05.13.09.2.09.17-.01.45-.45.39-.6-.08-.2-.2-.39-.31-.59m3.17-1.83c.52-.38.68-.84.54-1.31-.22-.01-.32.08-.35.3-.02.19-.1.37-.14.55-.03.12-.03.24-.05.45m-12.21-50.31c.38-.26.73-.9.71-1.25-.35.26-.72.88-.71,1.25m10.32,53.27c-.37.13-.59.36-.79.74.25-.02.42-.02.61-.04.06-.25.12-.48.18-.71m-12.26-19.8c-.49.28-.65.67-.44,1.09.11-.41.39-.7.44-1.09m-32.63,13.55s.07,0,.11,0c.07-.17.11-.34-.11-.52v.52Z"/>
  <path class="cls-1" d="m56.68,95.5s.11.13.12.12c.13-.07.24-.17.37-.24.3-.17.59-.31.96-.32.99-.04,1.98-.11,2.97-.2.41-.04.82-.17,1.29-.27-.16-.31-.29-.62-.46-.9-.27-.44-.6-.85-.85-1.3-.13-.23-.33-.47-.28-.78.22-.07.33.07.44.18.41.4.81.81,1.23,1.19.35.32.72.61,1.08.92.14.12.29.16.44.04.38-.3.77-.6,1.14-.92.1-.08.16-.2.27-.35-.26-.15-.46-.31-.69-.4-.5-.19-.91-.46-1.22-.92-.28-.42-.65-.78-.96-1.17-.14-.18-.25-.38-.35-.59-.36-.79-.8-1.52-1.48-2.08-.03-.03-.04-.08-.09-.15.37-.14.65.02.88.24.25.23.46.5.69.76.6.66,1.05,1.46,1.75,2.04.31.26.61.53,1.03.6.15.03.29.14.44.19.49.18.79,0,.84-.53.03-.29.01-.59.23-.83.08-.09.23-.22.29-.19.12.04.27.19.27.3,0,.43.02.89-.1,1.3-.15.52-.43,1-.67,1.54,1.02.71,2.14,1.26,3.33,1.74-.23.23-.42.32-.69.21-.19-.07-.42-.14-.62-.12-.51.06-.95-.19-1.43-.27-.37-.06-.71-.23-1.08-.31-.33-.07-.62-.05-.89.23-.22.23-.53.37-.79.55-.14.09-.3.14-.43.24-.45.35-1,.37-1.53.39-.41.02-.8.05-1.21.14-.41.08-.85.09-1.27.05-.53-.04-.99.18-1.48.27-.31.06-.6.24-.91.33-.24.08-.33.25-.26.45.27.71-.07,1.42,0,2.13.04.38-.07.77-.15,1.15-.11.5-.07,1.02.06,1.55.18.74.54,1.38.93,2.02.21.34.48.66.75.96.68.77,1.41,1.51,2.06,2.3.85,1.05,1.7,2.1,2.18,3.39.14.36.28.72.31,1.12.04.45.18.86.6,1.16.68.47,1.08,1.2,1.53,1.88.15.23.31.46.47.68.35.48.77.78,1.41.69.21-.03.42.01.64,0,.99-.1,1.85.27,2.68.74.73.41,1.38.93,1.87,1.61.52.72.9,1.51.87,2.44-.01.39-.04.78-.06,1.17,0,.1-.02.2-.07.28-.2.32-.15.58.1.88.44.52.5,1.17.4,1.81-.07.48-.51.61-1.06.4-.66-.25-.9-.95-.64-1.62.36-.97.6-1.96.47-3-.08-.64-.31-1.26-.67-1.81-.52-.8-1.22-1.4-2.09-1.79-.61-.27-1.24-.43-1.93-.34-.52.07-1.08.12-1.57-.17-.14-.08-.29-.15-.41-.26-.51-.44-.88-1.01-1.25-1.56-.62-.94-1.36-1.76-2.46-2.14-.67-.23-1.37-.37-2.06-.56-.58-.16-1.17-.29-1.67-.63-.15-.1-.24-.29-.42-.51.43-.02.74-.07,1.08.08.34.14.72.2,1.08.28.63.15,1.27.27,1.9.43.24.05.46.17.69.25.06.02.12,0,.27-.02-.21-.44-.37-.86-.59-1.24-.62-1.06-1.39-2.01-2.21-2.91-.12-.14-.25-.16-.44-.12-.56.1-1.12.26-1.68.24-.64-.03-1.26-.04-1.88.1-.07.02-.16-.03-.24-.04-.35-.05-.69-.08-1.05-.07-.58.03-1.19-.02-1.82-.4.56-.06,1.05-.06,1.5-.17.49-.12,1-.06,1.49-.24.44-.16.94-.15,1.42-.22.48-.07.93-.24,1.43-.45-.29-.38-.53-.73-.8-1.04-.62-.72-1.12-1.53-1.46-2.41-.35-.89-.46-1.84-.31-2.82.16-1.03.26-2.08.03-3.11-.11-.47-.37-.88-.68-1.3-.24.15-.43.23-.72.08-.34-.18-.78-.19-1.18-.26-.12-.02-.26.02-.39.04-.32.05-.63.14-.95.14-.63,0-1.26,0-1.88-.16-.25-.06-.52-.04-.78-.02-.96.08-1.88-.13-2.8-.33-.13-.03-.26-.05-.39-.07-1.02-.12-1.95-.48-2.73-1.15-.16-.14-.29-.33-.44-.49.02-.03.04-.06.06-.09.08.02.18.01.23.06.49.47,1.12.64,1.74.83.82.26,1.66.26,2.51.28.59.02,1.17.07,1.76.09.21,0,.42-.05.63-.06.19-.01.4-.05.58,0,.33.09.64.07.96-.04.18-.06.39-.06.58-.09.03,0,.07,0,.1,0,.62-.16,1.24-.27,1.88-.15.04,0,.1-.06.2-.12-.23-.43-.54-.78-.86-1.12-.32-.33-.65-.64-.95-.99-.48-.57-.93-1.17-1.41-1.75-.2-.26-.44-.48-.64-.74-.26-.33-.54-.65-.76-1.02-.16-.27-.24-.6-.36-.89-.26-.68-.53-1.36-.77-2.04-.12-.33-.18-.68-.28-1.02-.1-.34-.22-.68-.31-1.02-.07-.25-.1-.51-.15-.76-.03-.17-.06-.35-.09-.52-.1-.52-.03-1.01.26-1.59.11.22.19.34.22.47.16.7.3,1.4.47,2.1.07.29.19.58.29.87.03.08.09.15.09.22-.05.49.33.67.66.69.56.04.98.32,1.42.58.02.02.06.01.14.03.03-.32-.2-.55-.24-.83-.04-.29-.12-.58-.09-.86.03-.29-.2-.6.09-.96.1.39.19.73.29,1.06.15.51.31,1.02.49,1.52.04.13.17.24.29.32.6.42,1.2.83,1.81,1.25.49.34,1.01.65,1.47,1.03,1.14.95,2.25,1.94,2.97,3.27.05.09.08.19.07.31-.61-.33-.94-.96-1.45-1.38-.52-.43-1.07-.85-1.64-1.23-.55-.37-1.1-.74-1.72-1.02.67.89,1.44,1.66,2.01,2.59-.04.04-.07.08-.11.12-.1-.06-.22-.09-.29-.18-.74-.82-1.5-1.63-2.19-2.5-.37-.48-.78-.85-1.35-1.06-.53-.19-1.05-.4-1.59-.6-.05-.02-.12,0-.21,0,0,.11-.03.21,0,.29.11.32.29.62.36.95.09.42.34.74.6,1.04.76.9,1.57,1.75,2.21,2.74.13.2.31.38.49.54.65.59,1.11,1.32,1.63,2,.39.5.76,1.01,1.09,1.54.03.06.13.08.2.11h0Z"/>
  <path class="cls-1" d="m62.32,102.63c.09.55.15,1.01.25,1.47.1.43.35.81.78.94.68.22,1.37.34,2.11.15.82-.21,1.51-.6,2.14-1.13.36-.3.44-.3.85-.04-.43.87-1.15,1.39-2.06,1.74.1.21.3.29.48.3.53.01,1.09.15,1.58-.15.33-.2.67-.41.94-.68.54-.54.89-1.21,1.17-1.9.29-.7.52-1.41.65-2.17.07-.41.23-.81.17-1.26-.37-.16-.57-.49-.81-.81-.64-.86-1.23-1.79-2.22-2.29-.58-.3-1.2-.53-1.87-.83.12-.06.2-.13.27-.12.4.03.81,0,1.2.16.3.12.62.15.93.26.27.1.53.24.79.37.63.32,1.07.88,1.62,1.3.07.06.14.12.28.23.05-.19.1-.31.13-.44.03-.16.06-.31.06-.47,0-1.14,0-2.29,0-3.43,0-.13-.09-.26-.16-.44-.4.37-.07.83-.28,1.17-.18.07-.26-.02-.28-.17-.03-.24-.04-.49-.04-.73,0-.53-.16-.76-.67-.9-.47-.13-.95-.23-1.42-.34-.35-.08-.67-.23-.95-.56.53-.23,1.02.05,1.52-.05.47-.1.98-.02,1.51-.02-.12-.47-.22-.88-.31-1.29-.02-.09.01-.2.02-.3.09.04.19.08.28.13.05.03.09.08.14.13.13-.39.13-.47-.14-.62-.27-.15-.51-.34-.84-.38-.2-.02-.4-.13-.58-.24-.56-.33-1.14-.49-1.8-.52-.61-.02-1.18-.25-1.48-.86-.21-.4-.42-.81-.58-1.23-.16-.41-.15-.43-.56-.19-.03.02-.06.02-.09.02-.03,0-.08,0-.09-.03-.46-.66-.81-1.37-.93-2.17-.06-.37-.18-.74-.15-1.1.05-.61.19-1.21.3-1.82.08-.4.18-.79.27-1.18.07-.29.12-.59.31-.84.25.03.28.21.27.37-.03.71,0,1.42-.14,2.14-.17.92-.27,1.88-.05,2.82.05.22.14.43.23.64.08.22.27.21.45.16.13-.04.26-.12.44-.21.18.45.38.85.49,1.28.11.46.35.83.61,1.19.16.22.39.35.63.29.74-.17,1.38.09,2.01.41.28.13.52.34.85.33.06,0,.13.03.17.08.22.24.47.22.71.07.27-.16.5-.37.46-.74,0-.05-.01-.1-.02-.13-.49-.18-.99-.33-1.45-.55-.34-.15-.66-.36-.94-.6-.19-.16-.44-.37-.24-.75.48.21.95.41,1.42.62.68.3,1.39.49,2.13.63.7.14,1.39.11,2.08.15.55.04,1.11.11,1.64.23.35.08.66,0,.96-.08.5-.12.97-.38,1.47-.47.97-.19,1.92-.19,2.66.65.05.06.11.12.17.18.02.02.05.03.09.06.35-.07.42-.42.5-.66.3-.88.93-1.48,1.57-2.1.14-.13.28-.28.41-.41.4-.41.48-.87.25-1.39-.04-.08-.02-.19-.04-.35.4.14.62.37.68.71.11.61.06,1.19-.39,1.68-.37.41-.74.83-1.09,1.26-.2.23-.36.49-.53.75-.19.28-.36.58-.55.86-.26.39-.82.52-1.28.14-.1-.08-.2-.17-.29-.27-.3-.31-.67-.48-1.09-.46-.43.02-.87.09-1.29.19-.56.13-1.11.3-1.68.45-.11.03-.25.04-.33,0-.49-.3-1.02-.16-1.53-.16-.66,0-1.33.03-1.98-.08-.16-.03-.3-.02-.37.14-.21.46-.59.78-.93,1.13-.04.05-.08.11-.06.09.13.6.2,1.15.37,1.67.27.8.16,1.65.33,2.46.12.56.07,1.17.04,1.76-.08,1.3-.17,2.6-.29,3.89-.06.61-.16,1.22-.29,1.83-.12.57-.28,1.13-.48,1.68-.28.73-.58,1.45-.93,2.15-.37.76-.92,1.38-1.72,1.73-.09.04-.19.12-.27.11-.45-.05-.7.23-.99.51-.23.22-.52.37-.87.38-.27,0-.54.11-.81.17-.42.08-.91-.15-1.15-.49-.17-.24-.16-.46,0-.67.14-.2.32-.37.5-.56-.12-.22-.34-.24-.54-.18-.53.17-.99-.09-1.46-.23-.2-.06-.37-.19-.57-.27-.21-.08-.41-.13-.65,0-.16.09-.43.09-.6.02-.73-.32-1.26-.84-1.44-1.68.11-.06.2-.13.31-.16.33-.09.66-.15.98-.25.2-.06.45-.12.46-.37,0-.26.13-.57-.19-.75-.09-.05-.16-.11-.23-.18-.28-.28-.58-.42-1-.36-.19.03-.43-.04-.59-.16-.37-.25-.73-.54-1.06-.85-.12-.11-.17-.29-.3-.51.45-.17.83-.31,1.23-.45.24-.08.5-.14.74-.22.08-.03.17-.1.22-.17.57-.69,1.12-1.39,1.69-2.08.33-.39.58-.82.7-1.31.03-.11.13-.2.2-.3.1.09.25.16.3.28.23.56.09,1.11-.26,1.56-.33.42-.73.79-1.1,1.18-.28.29-.6.54-.78.94-.34.75-.16,1.47.56,1.88.23.13.5.22.75.32.41.15.8.02,1.17-.14.2-.09.39-.21.57,0,.12.15.04.4-.18.6-.42.37-.93.44-1.46.39-.14-.01-.28-.04-.41-.06"/>
  <path class="cls-1" d="m45.63,78.05c.3-.46.61-.92.9-1.39.29-.46.44-.96.53-1.49.1-.58.3-1.14.33-1.72.04-.68.35-1.27.48-1.92.04-.25.18-.5.32-.71.53-.74,1.06-1.48,1.75-2.09.07-.07.14-.14.23-.18.66-.29,1.17-.76,1.67-1.26.14-.14.3-.26.47-.34.53-.24,1.01-.57,1.52-.85.34-.19.77-.21,1.17-.28.46-.09.95-.09,1.38-.25.51-.19,1.03-.13,1.54-.25.28-.06.58-.07.87-.12.06-.01.12-.08.23-.17-.41-.15-.78-.16-1.14-.17-.56-.02-1.11,0-1.67,0-.2,0-.39-.04-.59-.05-.14-.01-.28,0-.43.01-.1,0-.21.06-.29.03-.45-.17-.85.08-1.28.11-.24.02-.4.16-.49.35-.12.26-.34.33-.57.4-.28.09-.55.19-.82.28-.29.09-.59.18-.88.27-.53.16-.92.54-1.37.83-.33.21-.64.44-.98.63-.84.49-1.69.97-2.55,1.44-.98.55-1.89,1.21-2.75,1.94-.82.69-1.4,1.52-1.75,2.54-.31.89-.68,1.75-1.06,2.61-.1.23-.22.48-.55.56.02-.1,0-.18.05-.24.42-.69.57-1.48.8-2.24.28-.92.47-1.86,1.04-2.65.52-.71,1.06-1.41,1.77-1.94.8-.61,1.6-1.23,2.47-1.75.8-.47,1.54-1.04,2.3-1.56.3-.21.58-.46.87-.7.01-.01,0-.06,0-.13-.48-.1-.96-.1-1.41.1-1.13.52-2.26,1.05-3.39,1.59-.76.36-1.58.49-2.4.57-.11.01-.24-.03-.36-.05,0-.04-.01-.07-.02-.11.16-.07.3-.17.46-.2,1.29-.19,2.33-.88,3.36-1.6.75-.52,1.59-.88,2.39-1.3.03-.02.06-.04.09-.03.52.08.99-.16,1.49-.22.43-.05.84-.2,1.27-.31.02,0,.03-.01.05-.01.49-.06.99-.09,1.47-.27.25-.1.48-.05.64.17.6-.24,1.2-.18,1.79-.09.33.05.67.1,1.01.13.37.02.73.03,1.1.15.49.16,1.02.16,1.54.25.22.04.43.13.65.17.22.04.44.04.67.14-.06.03-.13.05-.19.09-.05.03-.09.07-.15.12.14.2.29.11.45.06.58-.19,1.17-.38,1.75-.56.01,0,.05.03.1.07-.28.33-.61.59-1,.73-.93.34-1.86.66-2.8.96-.37.12-.76.15-1.14.25-.2.05-.39.19-.59.22-1.06.17-1.9.8-2.8,1.31-.1.05-.2.14-.24.24-.3.68-.9.91-1.54,1.13-.29.1-.57.26-.8.52-.31.35-.69.64-1.05.95-.44.38-.77.85-.96,1.4-.21.62-.4,1.26-.6,1.89-.2.64-.38,1.3-.6,1.94-.28.83-.87,1.44-1.51,2.01-.06.06-.17.07-.25.1-.02-.02-.04-.04-.05-.06"/>
  <path class="cls-1" d="m60.61,84.2c-.12-.11-.27-.21-.37-.35-.26-.39-.45-.79-.55-1.28-.21-1.11-.54-2.19-1.56-2.87-.66-.44-1-1.1-1.4-1.74-.07-.12-.07-.28-.09-.42-.02-.23-.05-.45-.28-.63-.21.33-.28.69-.31,1.05-.1.96.15,1.86.52,2.74.19.46.31.95.47,1.43.17.5.41.99.54,1.5.21.8.36,1.63.25,2.46-.03.23-.12.52-.44.57-.02-.04-.05-.08-.04-.09.33-.6.13-1.18-.02-1.79-.12-.47-.24-.94-.45-1.38-.38-.84-.76-1.67-1.13-2.52-.18-.4-.34-.8-.51-1.21-.01-.03-.03-.06-.03-.09-.05-.62-.11-1.23-.13-1.84,0-.22.06-.45.13-.66.18-.52.18-1.08.42-1.59.21-.44.31-.92.4-1.4.11-.59.44-1.08.73-1.58.19-.3.52-.52.79-.78.11-.1.24-.18.32-.3.37-.5.91-.7,1.45-.94.37-.16.71-.39,1.07-.58.5-.27,1.02-.5,1.49-.81.62-.41,1.23-.86,1.67-1.48.03-.05.09-.08.19-.17,0,.17.02.26,0,.34-.12.34-.27.66-.53.92-.61.61-1.21,1.24-1.94,1.72-.47.31-.99.56-1.43.91-.43.34-.85.72-1.18,1.16-.47.63-.84,1.35-1.28,2.01-.14.21-.21.43-.11.64.21.44.1.9.19,1.35.1.51.21,1.01.37,1.5.06.19.21.37.36.5.7.63,1.23,1.39,1.59,2.25.15.37.28.77.31,1.16.05.67.19,1.31.47,1.92.04.09.08.19.12.29-.03.02-.06.04-.08.06"/>
  <path class="cls-1" d="m61.5,63.64c-.05-.41-.08-.69-.11-.96-.14-.98-.56-1.84-1.13-2.66-.63-.91-1.48-1.55-2.41-2.11-.09-.05-.21-.12-.31-.11-.61.04-1.18-.21-1.78-.28-.57-.06-1.14-.04-1.7.1-.04,0-.06.07-.12.15.12.04.22.12.31.1.77-.11,1.48.19,2.21.34.59.12.99.46,1.28.96.07.11.08.26.05.43-.19-.14-.39-.28-.58-.43-.52-.4-1.14-.45-1.76-.43-.55.02-1.11.05-1.66.09-.28.02-.55.07-.82.1-.39.04-.78.03-1.16.11-.54.12-1.06-.02-1.58,0-.31.02-.62.17-.92.26-.2.05-.41.11-.62.12-.4.01-.78.1-1.11.32-.68.43-1.43.69-2.18.95-.18.06-.37.13-.54.21-.72.33-1.48.17-2.22.19-.25,0-.41-.16-.52-.43.3.03.56.06.83.07.74.02,1.39-.25,2.02-.59.59-.32,1.17-.63,1.76-.95.01,0,.03-.02.04-.03.44-.43,1-.67,1.57-.82.53-.13.98-.49,1.55-.51.23,0,.48-.19.68-.34.17-.13.3-.21.52-.1.1.05.31.04.39-.04.36-.33.83-.35,1.24-.54.16-.08.32-.14.49-.19.38-.13.76-.27,1.14-.39.07-.03.16-.02.24,0,.76.17,1.51.35,2.27.53.35.08.7.14,1.04.24.69.2,1.28.59,1.71,1.14.69.88,1.41,1.75,1.82,2.82.29.77.35,1.55.29,2.35,0,.09-.11.16-.23.33"/>
  <path class="cls-1" d="m64.39,52.66c-.03-.26-.06-.49-.09-.72-.02-.16-.07-.32-.07-.48.02-.81-.09-1.6-.24-2.38-.18-.9-.56-1.73-1.08-2.48-.28-.4-.61-.76-.93-1.13-.42-.49-.93-.86-1.49-1.16-.15-.08-.28-.22-.4-.35-.66-.63-1.42-1.08-2.3-1.31-.5-.13-1.01-.26-1.49-.44-.25-.1-.45-.07-.7-.04-.49.07-1,.09-1.51.11-.45.02-.9-.01-1.34.17-.34.14-.73.19-1.1.2-.45.01-.83.18-1.18.41-.93.6-1.92,1.11-2.62,2.01-.32.41-.68.79-1.03,1.18-.24.27-.56.37-.92.35-.07,0-.14-.05-.24-.09.08-.06.11-.1.15-.11.41-.07.69-.32.91-.67.61-.91,1.2-1.84,2.05-2.54.65-.54,1.29-1.09,2.09-1.4.5-.19,1.04-.29,1.52-.52.39-.19.78-.16,1.18-.2.35-.04.69-.14,1.05-.2.89-.16,1.75-.06,2.6.27.34.13.71.22,1.06.32.56.15,1.04.45,1.48.82.91.79,1.8,1.61,2.7,2.42.75.67,1.22,1.51,1.57,2.44.27.71.56,1.43.59,2.19.04,1.01.02,2.03.02,3.04,0,.17-.02.33-.23.31"/>
  <path class="cls-1" d="m43.45,57.61c.9-.19,1.72-.55,2.45-1.13.79-.63,1.61-1.22,2.42-1.82.08-.06.17-.09.26-.12.57-.18,1.16-.27,1.74-.41.46-.12.96-.09,1.38-.38.16-.11.36-.14.53-.23.2-.1.37-.14.59-.03.12.06.3.06.43.02.55-.19,1.07,0,1.59.1.46.09.91.3,1.37.33.59.04,1.13.25,1.7.38.57.12,1.12.27,1.68.43.7.2,1.24.62,1.74,1.12.6.59.91,1.34,1.22,2.09.2.49.44.98.57,1.49.15.58.24,1.18.29,1.78.04.62.01,1.24,0,1.86,0,.09-.05.17-.11.34-.07-.19-.12-.29-.14-.4-.04-.26-.07-.51-.11-.77-.07-.55-.12-1.1-.24-1.63-.12-.55-.27-1.11-.5-1.62-.35-.81-.78-1.58-1.35-2.26-.54-.63-1.18-1.06-2.03-1.15-.16-.01-.31-.09-.47-.13-.17-.04-.35-.11-.52-.11-.48-.03-.98.05-1.44-.19-.05-.03-.13-.02-.19-.02-.65.06-1.24-.19-1.86-.32-.24-.05-.51-.01-.76,0-.21.02-.41.09-.62.11-.34.03-.69-.04-1,.17-.01,0-.03.02-.05.02-.86-.05-1.67.42-2.55.28-.36-.06-.67.09-.97.27-.89.53-1.79,1.05-2.68,1.58-.6.35-1.25.53-1.93.59-.16,0-.32-.07-.49-.11,0-.04.02-.07.02-.11"/>
  <path class="cls-1" d="m51.59,80.05c.08-.35.12-.58.19-.81.11-.39.24-.77.34-1.16.04-.15.04-.32.04-.48,0-1.11,0-2.23,0-3.34,0-.22.07-.45.11-.67.02-.11.09-.22.07-.33-.05-.39.12-.69.31-1,.14-.23.26-.49.43-.71.5-.66,1.06-1.25,1.84-1.61.3-.14.58-.36.87-.53.12-.07.27-.17.39-.16.51.07.87-.25,1.15-.53.42-.43.86-.75,1.41-1,.66-.3,1.25-.75,1.9-1.09.7-.36,1.43-.68,2.16-.97.23-.09.52-.05.78-.05.37,0,.74,0,1.1,0,0,.04.01.09.02.13-.28.08-.55.22-.83.25-.72.07-1.33.38-1.92.76-.47.31-.93.64-1.4.96-.13.1-.24.22-.36.32-.15.12-.29.28-.46.35-.46.18-.79.52-1.12.85-.43.42-.86.85-1.28,1.28-.15.15-.31.23-.52.18-.08-.02-.19-.07-.24-.04-.59.4-1.39.36-1.89.94-.15.17-.32.33-.51.46-.51.35-.79.88-.98,1.43-.16.45-.17.96-.24,1.44-.05.29-.1.57-.15.86-.02.13-.04.26-.05.38,0,.23-.02.46,0,.69.07.8-.21,1.53-.52,2.25-.09.21-.19.41-.31.61-.06.1-.17.17-.33.34"/>
  <path class="cls-1" d="m41.36,63.48c.1-.08.12-.11.15-.12.54-.07,1.11-.08,1.63-.23.49-.14.95-.4,1.41-.66.72-.4,1.4-.88,2.14-1.26.38-.19.84-.22,1.26-.32.09-.02.21.02.29-.02.47-.25.99-.16,1.49-.19.15,0,.31-.07.46-.11.09-.03.18-.09.27-.09.59,0,1.15-.28,1.76-.2.21.03.43-.08.65-.12.24-.04.48-.11.71-.11.78,0,1.57.05,2.35.04.47,0,.92.03,1.34.22.7.33,1.42.64,1.95,1.26.32.38.57.79.69,1.27.06.21.14.42.24.73-.34-.18-.47-.42-.61-.64-.32-.49-.64-.98-1.17-1.29-.51-.29-1.03-.49-1.62-.58-.81-.13-1.59.08-2.39.04-.31-.02-.63.12-.94.2-.49.12-.99.19-1.46.36-.56.21-1.14.31-1.71.31-.64,0-1.28-.08-1.92.1-.82-.21-1.52.13-2.23.47-.7.33-1.39.71-2.12.95-.65.22-1.34.41-2.05.11-.16-.07-.33-.08-.58-.13"/>
  <path class="cls-1" d="m62.12,54.78c-.34-.32-.67-.6-.98-.9-.51-.5-1.11-.82-1.8-1.01-.9-.25-1.8-.41-2.74-.38-.13,0-.27,0-.39-.03-.9-.24-1.83-.28-2.74-.38-.34-.04-.69.03-1.03.01-.27-.01-.54-.09-.81-.13-.11-.02-.24-.06-.32-.02-.34.19-.7.13-1.05.08-.54-.08-1.05-.02-1.5.29-.55.38-1.09.77-1.6,1.2-.46.39-1,.6-1.55.8-.12.05-.27,0-.43-.07.34-.23.66-.49,1.02-.7.39-.22.71-.53.96-.89.47-.68,1.1-1.16,1.84-1.49.41-.18.88-.2,1.33-.29.18-.04.35-.06.53-.09.24-.04.48-.08.72-.11.3-.04.61-.07.92-.07.37,0,.76-.02,1.1.1.38.14.77.14,1.14.22.5.11.99.3,1.48.45.11.03.21.09.32.1.58.08,1.16.12,1.74.21.3.05.61.12.87.27.65.36,1.37.6,1.93,1.12.46.43.78.95,1.08,1.49.02.03-.02.09-.04.2"/>
  <path class="cls-1" d="m45.2,48.79c.7.1,1.29-.08,1.8-.44.47-.33.88-.73,1.33-1.08.4-.31.81-.59,1.22-.88.08-.06.16-.11.24-.17.27-.21.56-.36.89-.47.5-.17.98-.43,1.45-.67.35-.17.69-.34,1.09-.36.18,0,.37-.12.52-.23.24-.17.47-.18.75-.19.66-.04,1.11.26,1.55.66.47.44.96.87,1.48,1.32-.31.21-.58.11-.84,0-.49-.21-.97-.45-1.46-.68-.07-.03-.15-.06-.26-.11-.11.12-.21.24-.33.38-.46.03-.95.06-1.44.1-.09,0-.19.04-.27.09-.49.27-1.01.4-1.56.51-.71.15-1.33.51-1.93.9-.72.47-1.45.93-2.18,1.38-.45.28-.95.41-1.49.36-.17-.02-.35,0-.55,0-.03.26-.05.46-.07.68-.24.02-.33-.12-.35-.31-.08-.81-.05-1.62.03-2.43.07-.64.39-1.23.71-1.8.44-.79,1.12-1.35,1.79-1.92.67-.57,1.38-1.1,2.07-1.64.06-.05.13-.07.3-.16-.04.18-.02.31-.08.36-.38.38-.75.78-1.17,1.11-.68.53-1.39,1.02-1.99,1.66-.55.58-.87,1.27-1.11,2.03-.18.56-.16,1.12-.19,1.69,0,.09.02.19.04.31"/>
  <path class="cls-1" d="m46.04,50.84c.19-.05.37-.12.56-.14.45-.06.84-.24,1.2-.49.41-.29.78-.64,1.19-.93.61-.42,1.16-.92,1.95-1.07.45-.08.87-.35,1.29-.54.06-.02.14-.06.16-.11.22-.53.69-.47,1.12-.47.3,0,.61.08.91.07.33,0,.62.08.85.29.45.4,1.04.41,1.57.57.19.06.39.06.56.15.49.26.96.54,1.43.81.04.03.09.05.12.08.31.35.61.71.94,1.09-.18.09-.34.08-.5-.03-.14-.1-.28-.21-.43-.33-.52-.41-1.09-.68-1.74-.81-.5-.1-.99-.17-1.49-.21-.38-.03-.74-.22-1.11-.34-.23-.08-.43-.12-.61.12-.15.21-.39.25-.61.23-.59-.06-1.11.19-1.65.33-.11.03-.23.08-.33.06-.6-.08-1.07.22-1.54.51-.22.13-.46.25-.68.38-.25.14-.51.28-.76.44-.65.4-1.35.62-2.13.55q-.12-.01-.29-.24"/>
  <path class="cls-1" d="m80.49,75.04c-.16.6-.58.8-1.1,1.02-.53.21-1.03.16-1.53.13-.28-.01-.56-.22-.82-.38-.16-.1-.28-.26-.43-.41-.24.23-.46.41-.66.62-.29.32-.68.42-1.07.55-.01,0-.03,0-.05.02-.3.06-.67-.09-.71-.28-.04-.19.21-.42.53-.48.42-.07.76-.29,1.02-.61.38-.48.76-.98,1.11-1.48.31-.46.71-.84,1.21-1.04.54-.21,1.12-.25,1.63.11.45.3.73.73.87,1.25.04.15.05.39-.03.47-.23.22-.09.38,0,.53m-3.58-.2c.25.14.48.22.66.37.33.27.71.31,1.09.3.17,0,.4,0,.5-.29-.13-.04-.25-.08-.36-.1-.23-.04-.39-.2-.34-.4.07-.31.03-.65.28-.92.09-.1.15-.24.22-.36-.36-.22-.63-.2-.92.08-.28.27-.56.54-.83.83-.12.14-.21.32-.3.48m2.94-.59s-.06.02-.09.03v.58c.18-.04.3-.08.48-.12-.16-.2-.27-.35-.39-.49"/>
  <path class="cls-1" d="m74.82,82.59c-.28-.12-.46-.2-.65-.27-.53-.2-1.05-.41-1.51-.76-.43-.33-.63-.77-.68-1.28-.02-.23-.08-.46-.07-.68.01-.34.03-.68.12-1.01.09-.32.26-.63.42-.93.1-.2.26-.36.4-.55.52.2.85.53,1.05,1-.57.49-.97,1.05-1.04,1.81-.06.75.33,1.23.88,1.62.17.12.38.2.56.3.3.17.34.23.52.75"/>
  <path class="cls-1" d="m78.69,87.02c-.6-.32-1.19-.57-1.86-.58-.23,0-.46,0-.69.02-.68.05-1.36.17-2.03.14-.75-.02-1.44-.27-1.85-.99-.04-.07-.1-.15-.1-.22.02-.17.02-.38.12-.48.16-.15.36,0,.45.14.26.36.6.59,1.01.72.12.04.25.1.37.1.68,0,1.36.02,2.04-.11.46-.09.94-.1,1.41-.07.53.04.94.32,1.22.78.14.23.14.23-.11.56"/>
  <path class="cls-1" d="m60.6,76.93c.18.22.38.43.54.67.46.65,1,1.23,1.29,2,.24.64.28,1.3.2,1.97-.09.76-.27,1.5-.43,2.24-.17.84-.04,1.66.68,2.27.16.14.31.29.45.46.09.11.16.26.29.47-.56-.04-.81-.39-1.09-.66-.87-.82-.9-1.84-.63-2.93.13-.53.19-1.08.28-1.62.02-.1,0-.2.03-.29.3-.94-.08-1.7-.59-2.45-.37-.54-.7-1.09-1.04-1.65-.07-.12-.08-.27-.11-.4.04-.02.09-.04.13-.06"/>
  <path class="cls-1" d="m57.66,118.88c.28-.16.43-.04.58.04.77.4,1.33,1.03,1.86,1.7.77,1,1.48,2.04,2.4,2.91.55.52,1.17.95,1.9,1.13.3.08.64.01.96-.03.24-.03.46-.17.74-.05-.04.09-.05.22-.11.25-.25.11-.51.24-.77.27-1.04.11-1.91-.27-2.66-.97-.2-.19-.41-.38-.59-.58-.39-.43-.78-.87-1.16-1.32-.63-.75-1.24-1.51-1.88-2.25-.22-.26-.51-.46-.77-.68-.15-.13-.3-.24-.5-.41"/>
  <path class="cls-1" d="m76,78.56c.03.74.04,1.44.09,2.13.04.45.1.91.23,1.34.06.21.3.37.48.54.08.09.19.15.31.26-.1.06-.16.14-.2.13-.48-.1-.96-.24-1.18-.74-.18-.41-.44-.78-.48-1.26-.01-.21-.17-.42-.24-.63-.07-.18-.11-.37-.17-.54-.04-.12-.07-.24-.12-.36-.13-.29-.11-.47.17-.6.32-.15.63-.4,1.11-.26"/>
  <path class="cls-1" d="m39.57,79.19c-.53-.17-.6-.58-.69-.94-.2-.88-.12-1.78,0-2.67.07-.45.19-.88.31-1.32.21-.78.48-1.54.66-2.32.24-1.02.42-2.06.63-3.09,0-.04.06-.07.1-.13.22.3.18.62.15.94-.02.21-.04.42-.08.63-.08.41-.16.83-.28,1.23-.22.78-.52,1.53-.71,2.32-.21.85-.36,1.71-.47,2.58-.1.73-.09,1.46.22,2.16.08.17.08.37.13.63"/>
  <path class="cls-1" d="m56.69,95.51c-.08-.53-.14-1.06-.25-1.59-.24-1.11-.65-2.13-1.57-2.87-.75-.6-1.5-1.19-2.22-1.84-.32-.29-.55-.68-.81-1.03-.13-.18-.16-.39-.05-.64.08.05.2.07.22.14.33.74.97,1.22,1.54,1.75.54.49,1.14.92,1.71,1.38.14.11.28.23.38.38.63.92,1.16,1.88,1.36,2.99.08.48.03.94-.33,1.31h.01Z"/>
  <path class="cls-1" d="m70.42,79.12c.46,0,.65.15.6.52-.04.25-.14.5-.25.73-.11.22-.25.42-.4.61-.49.6-.55,1.2-.12,1.87.33.52.31.55.21,1.12-.35.12-.55-.13-.72-.35-.27-.35-.5-.73-.4-1.21,0-.04.01-.1,0-.14-.26-.71.16-1.27.48-1.81.25-.42.46-.84.61-1.32"/>
  <path class="cls-1" d="m67.49,81.95c.39.35.53.81.29,1.26-.35.66-.23,1.15.33,1.62.23.19.38.48.54.74.11.17.07.35-.05.5-.14.19-.33.21-.5.05-.15-.15-.28-.32-.41-.49-.16-.22-.28-.48-.46-.68-.54-.57-.42-1.2-.23-1.86.05-.18.05-.38.06-.58.02-.28.11-.51.41-.57"/>
  <path class="cls-1" d="m78.07,71.56c-.06.06-.14.21-.27.27-.51.22-.67.72-.93,1.14-.17.29-.34.58-.53.87-.1.15-.27.17-.44.1-.18-.08-.23-.24-.2-.4.03-.14.1-.28.17-.4.29-.49.6-.97.88-1.46.19-.33.46-.54.83-.62.31-.06.52.11.49.51"/>
  <path class="cls-1" d="m67.87,101.88c.04.12.11.26.09.38-.08.49-.23.99-.57,1.37-.54.6-1.11,1.15-1.99,1.21-.14,0-.28.06-.42.1-.55.13-1.06-.04-1.56-.21-.07-.03-.14-.08-.21-.12.02-.03.03-.07.05-.1.08-.02.16-.03.25-.03.62,0,1.25.06,1.86,0,.35-.04.71-.23,1.01-.44.56-.39.96-.92,1.13-1.6.05-.19.14-.36.22-.54.05,0,.1,0,.15-.01"/>
  <path class="cls-1" d="m67.44,79.65c-.34.05-.37-.16-.36-.36.04-.51.21-.99.51-1.4.35-.49.74-.95,1.12-1.42.33-.43.53-.92.67-1.44.04-.17-.02-.41.3-.47.16.65.04,1.24-.38,1.76-.37.47-.75.94-1.12,1.42-.42.55-.66,1.18-.74,1.91"/>
  <path class="cls-1" d="m68.31,74.99c-.1.33-.35.45-.58.54-.88.35-1.79.6-2.75.48-.27-.04-.53-.14-.79-.21-.1-.03-.1-.04-.14-.36.2.01.4-.01.58.04.87.29,1.69.17,2.51-.19.59-.27.79-.31,1.18-.29"/>
  <path class="cls-1" d="m80.12,77.17c-.29.32-.65.5-1.11.39-.49-.12-.96-.27-1.45-.36-.26-.05-.54,0-.81,0-.05,0-.1.04-.14.03-.1-.02-.2-.05-.3-.07.07-.1.11-.23.2-.29.25-.16.55-.21.84-.14.24.05.48.1.7.2.5.23,1,.26,1.53.14.16-.04.34,0,.51,0,.01.04.02.08.04.12"/>
  <path class="cls-1" d="m68.64,81.5c-.16-.09-.26-.11-.28-.16-.14-.37-.23-.71-.13-1.13.18-.76.65-1.36,1-2.03.07-.14.18-.38.4-.25.21.13.06.32-.02.47-.24.39-.49.76-.71,1.15-.25.44-.32.92-.25,1.41.02.14,0,.29,0,.54"/>
  <path class="cls-1" d="m83.43,72.21c.48.08.97.17,1.46.26.09.02.2.05.26.12.05.06.07.17.05.26,0,.04-.13.08-.19.08-.11,0-.22-.04-.33-.08-.53-.21-1.09-.17-1.64-.16-.36,0-.54.26-.77.48-.11.1-.19.33-.38.16-.18-.15,0-.28.08-.41.33-.53.89-.61,1.46-.71"/>
  <path class="cls-1" d="m71.6,120.99c-.18-.12-.31-.15-.34-.23-.12-.25-.2-.51-.28-.77-.2-.61-.45-1.18-.96-1.61-.12-.1-.35-.18-.22-.41.07-.13.33-.12.51.07.26.29.51.6.68.94.23.46.4.95.57,1.44.05.14.02.3.04.56"/>
  <path class="cls-1" d="m77,78.37c.09-.22.21-.28.43-.21.65.18,1.3.19,1.96-.02.36-.12.73-.07,1.14-.04-.11.24-.25.33-.43.36-1.29.2-2.56.4-3.11-.09"/>
  <path class="cls-1" d="m69.21,47.74c.38-.17.54-.12.69.23.19.41.33.84.52,1.25.11.25.12.5.07.75-.22.09-.26-.04-.31-.19-.15-.43-.28-.86-.46-1.28-.12-.27-.33-.51-.5-.77"/>
  <path class="cls-1" d="m80.33,70.41c-.13.15-.22.31-.35.41-.43.31-.8.66-1.06,1.12-.04.08-.19.16-.26.14-.16-.04-.15-.21-.08-.32.12-.21.26-.42.42-.6.22-.24.48-.45.71-.68.17-.17.35-.21.63-.07"/>
  <path class="cls-1" d="m81.35,70.96c.01.07.02.09.02.1-.39.44-.78.88-1.19,1.31-.08.09-.24.17-.33.02-.04-.06.02-.22.08-.29.29-.35.6-.68.89-1.02.14-.16.31-.22.52-.13"/>
  <path class="cls-1" d="m82.44,68.37c-.09.11-.13.25-.22.28-.41.15-.81.31-1.18.55-.14.09-.35.06-.53.09-.02-.04-.04-.08-.06-.12.1-.1.19-.24.31-.31.79-.46,1.21-.59,1.69-.5"/>
  <path class="cls-1" d="m47.16,39.74c.01.07.03.14.05.22-.03,0-.05,0-.08.02-.02-.07-.03-.15-.05-.22.03,0,.06-.01.08-.02"/>
</svg>