<svg width="77" height="77" viewBox="0 0 77 77" fill="none" xmlns="http://www.w3.org/2000/svg">
<path fill-rule="evenodd" clip-rule="evenodd" d="M43.7301 0.714905C44.1408 0.714905 44.4782 1.05228 44.4782 1.463C44.4782 1.87372 44.1408 2.21109 43.7301 2.21109C43.3194 2.21109 42.982 1.87372 42.982 1.463C42.982 1.05228 43.3194 0.714905 43.7301 0.714905ZM30.5209 1.36031C31.2544 1.36031 31.8485 1.95441 31.8485 2.68784C31.8485 3.42128 31.2544 4.01536 30.5209 4.01536C29.7875 4.01536 29.1934 3.42128 29.1934 2.68784C29.1934 1.95441 29.7875 1.36031 30.5209 1.36031ZM37.9873 5.15217C38.398 5.15217 38.7354 5.48954 38.7354 5.90026C38.7354 6.31098 38.398 6.64838 37.9873 6.64838C37.5766 6.64838 37.2392 6.31098 37.2392 5.90026C37.2392 5.48954 37.5766 5.15217 37.9873 5.15217ZM51.5851 4.42608C52.3186 4.42608 52.9127 5.02016 52.9127 5.75359C52.9127 6.48702 52.3186 7.0811 51.5851 7.0811C50.8517 7.0811 50.2576 6.48702 50.2576 5.75359C50.2576 5.02016 50.8517 4.42608 51.5851 4.42608ZM17.7225 8.18125C18.1332 8.18125 18.4706 8.51862 18.4706 8.92935C18.4706 9.34007 18.1332 9.67746 17.7225 9.67746C17.3118 9.67746 16.9744 9.34007 16.9744 8.92935C16.9744 8.51862 17.3118 8.18125 17.7225 8.18125ZM43.0773 9.28874C42.9966 9.40609 42.9013 9.51609 42.7986 9.61878C42.7619 9.65545 42.7179 9.69211 42.6739 9.72879C42.828 9.8608 42.96 10.0075 43.0773 10.1688C43.1433 10.0662 43.2167 9.97083 43.2974 9.88282C43.3487 9.83148 43.4074 9.78013 43.466 9.72879C43.4074 9.67745 43.3487 9.62612 43.2974 9.56011C43.2167 9.4721 43.1433 9.37674 43.0847 9.27406L43.0773 9.28874ZM56.3965 11.4597C56.8072 11.4597 57.1446 11.7971 57.1446 12.2078C57.1446 12.6185 56.8072 12.9559 56.3965 12.9559C55.9858 12.9559 55.6484 12.6185 55.6484 12.2078C55.6484 11.7971 55.9858 11.4597 56.3965 11.4597ZM64.8016 12.2078C65.2123 12.2078 65.5497 12.5452 65.5497 12.9559C65.5497 13.3666 65.2123 13.704 64.8016 13.704C64.3909 13.704 64.0535 13.3666 64.0535 12.9559C64.0535 12.5452 64.3909 12.2078 64.8016 12.2078ZM43.0773 5.60689C42.5273 5.61423 42.4099 6.96376 42.3952 7.13245C42.3806 7.30847 42.3512 7.5065 42.3072 7.70452C42.2339 8.04924 42.1092 8.4086 41.8598 8.65064C41.7351 8.77532 41.5371 8.84866 41.3538 8.9C41.1997 8.94401 40.965 9.00268 40.7303 9.06136C40.415 9.14204 39.7109 9.36207 39.7109 9.68478C39.7109 10.0075 40.5176 10.2862 40.9357 10.4036C41.2878 10.5062 41.6325 10.6163 41.7791 10.7263C42.0725 10.9536 42.2192 11.3204 42.3072 11.6724C42.3659 11.8924 42.3952 12.1858 42.4099 12.4352C42.4246 12.7139 42.6153 14.2101 43.0773 14.2247C43.5321 14.2394 43.7887 12.7212 43.8254 12.4058C43.8474 12.1711 43.8841 11.9071 43.9281 11.7091C44.0015 11.3717 44.0968 11.0196 44.2875 10.8143C44.5075 10.5869 44.9402 10.4549 45.285 10.3742C45.4977 10.3229 46.4438 10.0368 46.4438 9.67012C46.4438 9.3034 45.4756 9.0907 45.2263 9.0467C44.8962 8.98802 44.5149 8.88535 44.3168 8.66532C44.0895 8.40862 43.9721 8.03455 43.8988 7.68984C43.8474 7.46248 43.8181 7.23512 43.8034 7.05176C43.7887 6.91241 43.6421 5.59222 43.0993 5.59955L43.0773 5.60689ZM11.6644 11.5917C12.3978 11.5917 12.9919 12.1858 12.9919 12.9192C12.9919 13.6527 12.3978 14.2467 11.6644 14.2467C10.9309 14.2467 10.3369 13.6527 10.3369 12.9192C10.3369 12.1858 10.9309 11.5917 11.6644 11.5917ZM34.7235 12.6332C35.457 12.6332 36.051 13.2273 36.051 13.9607C36.051 14.6941 35.457 15.2882 34.7235 15.2882C33.9901 15.2882 33.396 14.6941 33.396 13.9607C33.396 13.2273 33.9901 12.6332 34.7235 12.6332ZM54.9883 17.0705C54.9296 17.1438 54.8709 17.2172 54.8049 17.2832C54.7903 17.2978 54.7756 17.3125 54.7609 17.3272C54.8416 17.4005 54.9223 17.4885 54.9883 17.5765C55.0323 17.5179 55.0763 17.4592 55.1276 17.4078C55.157 17.3785 55.179 17.3565 55.2083 17.3272C55.179 17.2978 55.1496 17.2685 55.1203 17.2392C55.0763 17.1878 55.0323 17.1291 54.9883 17.0778V17.0705ZM47.5366 15.765C48.27 15.765 48.8641 16.359 48.8641 17.0925C48.8641 17.8259 48.27 18.42 47.5366 18.42C46.8032 18.42 46.2091 17.8259 46.2091 17.0925C46.2091 16.359 46.8032 15.765 47.5366 15.765ZM25.5043 9.42076C24.5875 10.3889 24.0227 11.6944 24.0227 13.1246C24.0227 15.831 26.025 18.0679 28.6287 18.4493C28.1886 18.5813 27.7266 18.6547 27.2425 18.6547C24.6021 18.6547 22.4605 16.5131 22.4605 13.8727C22.4605 11.8484 23.722 10.1175 25.5043 9.42076ZM31.9291 17.8112C32.1345 17.5692 32.4645 16.7184 32.2738 16.469C32.0832 16.2197 31.4084 16.6377 31.1224 16.7771C30.6016 17.0265 30.0149 17.1658 29.3915 17.1658C27.1692 17.1658 25.3576 15.3616 25.3576 13.1319C25.3576 11.2103 26.6998 9.6041 28.4967 9.20071C28.8047 9.12737 29.5088 8.98069 29.5088 8.65798C29.5088 8.3426 28.7974 7.94655 28.4893 7.88054C28.0859 7.79253 27.6606 7.74853 27.2352 7.74853C23.854 7.74853 21.111 10.4916 21.111 13.8727C21.111 17.2538 23.854 19.9969 27.2352 19.9969C29.1201 19.9969 30.7996 19.1461 31.9218 17.8112H31.9291ZM14.8108 19.8428C14.7595 19.9015 14.7081 19.9602 14.6568 20.0042C14.6348 20.0262 14.6128 20.0409 14.5981 20.0555C14.6641 20.1142 14.7228 20.1876 14.7741 20.2536C14.7961 20.2242 14.8255 20.1949 14.8548 20.1656C14.8988 20.1215 14.9428 20.0775 14.9868 20.0409C14.9428 19.9969 14.8988 19.9528 14.8621 19.9015C14.8475 19.8795 14.8255 19.8575 14.8108 19.8355V19.8428ZM9.01668 19.3735C9.4274 19.3735 9.76478 19.7108 9.76478 20.1215C9.76478 20.5323 9.4274 20.8696 9.01668 20.8696C8.60595 20.8696 8.26857 20.5323 8.26857 20.1215C8.26857 19.7108 8.60595 19.3735 9.01668 19.3735ZM54.9809 13.3519C54.3795 13.3519 54.2989 15.1709 54.2255 15.5156C54.1595 15.8016 54.0642 16.1097 53.8588 16.3077C53.7561 16.4104 53.5948 16.4617 53.4481 16.5057C53.1474 16.6011 51.6512 16.8064 51.6292 17.2685C51.6072 17.7305 53.0007 17.9873 53.2207 18.0386C53.4261 18.0899 53.6608 18.1559 53.7854 18.2586C54.0348 18.4493 54.1448 18.7574 54.2182 19.0434C54.3209 19.4395 54.4089 21.1997 54.9663 21.2217C55.5164 21.2437 55.7071 19.4688 55.7877 19.0727C55.8464 18.794 55.9271 18.4933 56.0884 18.3246C56.2204 18.1853 56.4038 18.1046 56.5652 18.0459C56.7779 17.9799 58.1934 17.6059 58.1934 17.2538C58.1934 16.7698 56.7485 16.6231 56.5872 16.5864C56.4332 16.5497 56.2498 16.4764 56.1104 16.3224C55.9197 16.1097 55.8244 15.7943 55.7657 15.5009C55.6924 15.1489 55.5824 13.3446 54.9809 13.3446V13.3519ZM69.2756 20.877C70.009 20.877 70.6031 21.4711 70.6031 22.2045C70.6031 22.9379 70.009 23.532 69.2756 23.532C68.5421 23.532 67.9481 22.9379 67.9481 22.2045C67.9481 21.4711 68.5421 20.877 69.2756 20.877ZM14.1067 17.5105C14.0407 18.1046 14.0774 18.1119 14.004 18.4346C13.9527 18.6547 13.8867 18.882 13.7473 19.0214C13.4466 19.3001 12.5518 19.4174 12.3391 19.4981C12.0384 19.6155 11.745 19.7842 11.7377 19.9749C11.7304 20.1729 12.0237 20.3563 12.3245 20.4956C12.5151 20.5763 13.3293 20.7743 13.586 20.965C13.7693 21.097 13.8793 21.317 13.9527 21.5151C14.026 21.7058 14.07 21.8965 14.092 22.0285C14.114 22.1605 14.3927 23.5613 14.8181 23.554C15.2069 23.554 15.4562 22.0945 15.4709 21.9625C15.4929 21.7278 15.5736 21.3684 15.8303 21.1117C16.1383 20.789 16.8644 20.6056 16.9744 20.5469C17.2458 20.4076 17.5025 20.1949 17.4805 19.9602C17.4658 19.7475 17.2091 19.5568 16.9451 19.4468C16.8057 19.3881 16.131 19.3294 15.9183 19.0654C15.5149 18.5667 15.6616 18.5447 15.4636 17.5472C15.3242 16.8358 15.1702 16.271 14.8108 16.2564C14.4514 16.2417 14.224 16.5791 14.1214 17.5032L14.1067 17.5105ZM25.0275 22.7839C25.4456 22.7839 25.7756 23.1213 25.7756 23.532C25.7756 23.9427 25.4383 24.2801 25.0275 24.2801C24.6168 24.2801 24.2794 23.9427 24.2794 23.532C24.2794 23.1213 24.6168 22.7839 25.0275 22.7839ZM56.9392 23.2826C57.3573 23.2826 57.6873 23.62 57.6873 24.0307C57.6873 24.4415 57.3499 24.7789 56.9392 24.7789C56.5285 24.7789 56.1911 24.4415 56.1911 24.0307C56.1911 23.62 56.5285 23.2826 56.9392 23.2826ZM2.79716 26.1504C3.20789 26.1504 3.54526 26.4877 3.54526 26.8985C3.54526 27.3092 3.20789 27.6466 2.79716 27.6466C2.38644 27.6466 2.04906 27.3092 2.04906 26.8985C2.04906 26.4877 2.38644 26.1504 2.79716 26.1504ZM42.8059 20.3049C42.4686 21.8011 41.9185 24.0894 41.6325 24.6395C41.3391 25.2042 40.8403 26.099 40.5616 26.6051L42.3072 29.0328C42.4466 29.2235 42.4686 29.4728 42.3806 29.6855L41.8965 30.8297L44.5075 33.1033L45.2043 30.2136C45.241 30.0669 45.329 29.9349 45.4463 29.8395C46.1651 29.2895 46.5685 28.9081 47.3752 27.5585C47.4853 27.3752 47.6613 27.1698 47.8593 26.9498C47.9473 26.8545 48.0427 26.7444 48.1307 26.6418C47.874 26.4144 47.5879 26.121 47.2579 25.747C46.7958 25.2189 46.2531 24.5148 45.6443 23.5907C45.593 23.51 45.483 23.3927 45.3583 23.2533C44.8376 22.6886 44.0014 21.8598 43.7961 21.5811C43.4147 21.053 43.0847 20.6276 42.8133 20.2976L42.8059 20.3049ZM64.3909 25.5563L64.5596 27.3385C64.6036 27.9106 64.809 28.4167 64.809 28.7981C64.809 29.0768 64.7429 29.3115 64.6036 29.5242C64.4129 29.8102 64.0755 30.1476 63.7822 30.4556C63.7528 30.4923 63.7161 30.529 63.6795 30.5656C63.8848 30.7343 64.1415 30.9323 64.4569 31.1597C64.7943 31.4017 65.1903 31.6805 65.6744 31.9885C66.5545 32.5606 67.1119 32.9786 67.6253 33.3087C67.772 33.404 67.9114 33.492 68.0581 33.5727L69.2242 32.5753C69.3489 32.4652 69.5176 32.4065 69.6863 32.4212C69.6863 32.4212 70.7791 32.5606 71.8646 32.7439C72.1066 32.7879 72.356 32.8319 72.5834 32.8759C72.4367 32.7366 72.268 32.5826 72.0919 32.4066C71.3145 31.5851 70.6398 31.013 69.9137 30.2796C69.6203 29.9789 69.3196 29.6562 68.9969 29.2821C68.6522 28.8714 68.3294 28.5927 68.0141 28.3653C67.3686 27.8959 66.7599 27.6466 66.0998 27.1185C65.7478 26.8398 65.2857 26.4217 64.831 25.9817C64.6843 25.8423 64.5303 25.6956 64.3909 25.5563ZM17.4438 25.8497C17.4438 25.9083 17.4365 25.9597 17.4292 26.0184C17.4072 26.3117 17.3705 26.6491 17.3191 26.9938C17.2825 27.2358 17.2531 27.4926 17.2311 27.7346C17.1725 28.336 17.1431 28.9081 17.0991 29.3555C17.0918 29.3701 17.0551 29.4362 17.0331 29.4728C16.9451 29.6048 16.8131 29.7442 16.659 29.8982C16.1823 30.3896 15.4929 30.9763 14.8255 31.6144C14.8035 31.6144 14.7815 31.6291 14.7668 31.6291C13.9894 31.8051 11.9871 31.9812 11.9871 31.9812C11.8331 31.9958 11.6937 32.0618 11.5837 32.1645C11.5837 32.1645 11.2977 32.4652 10.9309 32.8833C10.7329 33.1033 10.5202 33.36 10.3075 33.6241C9.69143 34.3942 9.12669 35.1789 9.12669 35.1789C9.03134 35.2743 9.03134 35.4283 9.12669 35.5163C9.22203 35.6117 9.36872 35.6117 9.46407 35.5163C9.46407 35.5163 10.2488 34.9516 11.0189 34.3355C11.283 34.1228 11.5397 33.9101 11.7597 33.7121C11.9798 33.5214 12.1631 33.3453 12.2951 33.228C12.7792 33.1987 13.9527 33.118 14.6935 33.008C15.0308 32.9566 15.2875 32.8906 15.4195 32.8319C15.5369 32.7806 15.6249 32.7146 15.6763 32.6633C16.5197 31.8492 17.4218 31.1157 17.9206 30.5436C18.2506 30.1622 18.4193 29.8029 18.456 29.5242L18.6687 27.1772C18.676 27.1185 18.6833 27.0525 18.6907 26.9938C18.918 27.2725 19.1454 27.4999 19.3287 27.6246C19.7468 27.9106 20.1209 28.1746 20.5389 28.5193C20.869 28.7907 21.2283 29.1134 21.6611 29.5242C22.7319 30.5583 23.414 31.2697 24.0081 31.8198C24.1694 31.9738 24.3308 32.1058 24.4848 32.2379C24.4774 32.2379 24.4701 32.2452 24.4628 32.2525C24.0667 32.4726 23.612 32.6266 23.2233 32.7879C22.7979 32.964 22.4312 33.162 22.1818 33.4187C22.0498 33.5507 21.9471 33.7194 21.8518 33.9101C21.7711 34.0714 21.7124 34.2695 21.5437 34.4308C21.397 34.5702 21.1697 34.6655 20.7956 34.7022C20.5462 34.7389 20.2749 34.7829 20.0182 34.8782C19.8568 34.9369 19.7028 35.0029 19.5488 35.0909C19.3948 35.1789 19.2481 35.2596 19.1161 35.3549C18.8667 35.531 18.6833 35.6923 18.5293 35.8537C18.412 35.9197 18.3753 36.0664 18.4413 36.1837C18.5073 36.3011 18.654 36.3378 18.7713 36.2717C18.9327 36.2277 19.1161 36.2131 19.3287 36.1764C19.5048 36.1471 19.6881 36.1251 19.8788 36.1031C20.0182 36.0811 20.1649 36.0737 20.3042 36.0517C20.5096 36.0224 20.7076 35.993 20.9056 35.993C21.463 35.9637 21.8518 35.8244 22.1451 35.6557C22.5118 35.443 22.7319 35.1569 22.8932 34.8782C23.0033 34.6949 23.0399 34.4968 23.1573 34.3868C23.2966 34.2475 23.5167 34.1595 23.7587 34.0568C24.1988 33.8734 24.7048 33.6974 25.1449 33.4407C25.4969 33.2353 25.8196 32.986 26.0617 32.6706C26.091 32.6412 26.1203 32.6046 26.1497 32.5606C26.1497 32.5606 26.5457 31.9665 27.0591 31.2551C27.3525 30.8443 27.6972 30.4043 28.0199 30.0156C28.3867 29.5755 29.3328 28.7467 29.9489 28.116C30.1689 27.8886 30.3449 27.6906 30.4623 27.5292L31.7238 25.8863C32.0098 26.0697 32.1712 26.2677 32.3765 26.3924C32.5306 26.4877 32.6992 26.5684 32.9119 26.6198C33.4107 26.7371 33.8507 27.0305 34.1808 27.1552C34.2174 27.1698 34.2468 27.1772 34.2835 27.1918C34.3495 27.3459 34.4155 27.4705 34.4815 27.5879C34.6722 27.9179 34.8775 28.116 35.1049 28.49C35.3323 28.8714 35.6917 29.3848 36.051 29.8175C36.2711 30.0816 36.4911 30.3163 36.6891 30.4923C36.7551 30.7417 36.8798 31.167 37.0852 31.6438C37.1659 31.8271 37.2465 32.0178 37.3565 32.2012C37.4739 32.4066 37.5986 32.5973 37.7526 32.7806C37.9139 32.9786 38.068 33.1326 38.244 33.294C38.31 33.4114 38.4567 33.448 38.574 33.382C38.6914 33.316 38.7281 33.1693 38.6547 33.052C38.6034 32.8393 38.5814 32.6339 38.5374 32.4066C38.4934 32.1939 38.4567 31.9885 38.4127 31.7831C38.3687 31.5924 38.3247 31.4091 38.2733 31.2331C38.0826 30.5216 37.936 29.9642 37.936 29.9642C37.8993 29.8102 37.8113 29.6708 37.6793 29.5755C37.4739 29.4215 37.2099 29.1061 36.9458 28.7687C36.6891 28.4314 36.4324 28.072 36.2637 27.7933C36.0437 27.4192 35.831 27.2285 35.6403 26.8985C35.611 26.8471 35.5816 26.7958 35.5523 26.7298C35.809 26.4584 36.1904 26.0477 36.5791 25.6003C36.8725 25.2629 37.1659 24.9035 37.4152 24.5662C37.4959 24.4561 37.6426 24.3241 37.8259 24.1628C38.508 23.5687 39.5788 22.7986 40.0849 22.2925C40.5103 21.8671 40.9064 21.4637 41.2657 21.0897C40.987 22.3072 40.6497 23.6127 40.4516 24.0014C40.0262 24.8082 39.1901 26.3117 39.1901 26.3117C39.0654 26.5391 39.0801 26.8178 39.2341 27.0305L41.009 29.5022L40.481 30.749C40.3709 31.0204 40.437 31.3284 40.657 31.5191L44.4708 34.8416C44.6469 34.9956 44.8962 35.0469 45.1163 34.9736C45.3436 34.9002 45.5123 34.7169 45.5637 34.4895L46.4658 30.749C47.1919 30.1769 47.6686 29.6929 48.5414 28.2407C48.6368 28.0793 48.8201 27.8959 49.0035 27.6906C49.2088 27.4559 49.4069 27.2065 49.5535 26.9498C49.6196 26.9058 49.6856 26.8545 49.7442 26.8031C49.8543 26.7151 49.9643 26.6124 50.0596 26.5244C50.221 26.5904 50.419 26.6784 50.6317 26.7811C50.9104 26.9131 51.2038 27.0745 51.4311 27.2505C51.7172 27.4706 52.1646 27.7932 52.6193 28.1526C52.8687 28.3507 53.118 28.556 53.3454 28.7687C53.5654 28.9741 53.8221 29.1721 54.0788 29.3701C54.4309 29.6342 54.7976 29.8835 55.0836 30.1036C54.8196 30.3749 54.5189 30.6977 54.0715 31.101C53.7928 31.3577 53.4554 31.6438 53.0154 31.9738C52.8247 32.1205 52.656 32.2965 52.4946 32.5019C52.1426 32.9566 51.8345 33.6021 51.2038 34.2915C50.8957 34.6362 50.529 34.9883 50.1696 35.3476C49.9276 35.597 49.6856 35.839 49.4655 36.0811C49.2528 36.3158 49.0695 36.5358 48.9081 36.7558C48.6808 37.0639 48.5121 37.3132 48.4021 37.5186C48.314 37.6213 48.3287 37.7753 48.4314 37.856C48.5341 37.944 48.6881 37.9293 48.7688 37.8266C48.9668 37.6726 49.2822 37.5113 49.6562 37.2692C49.9349 37.0932 50.243 36.8952 50.5437 36.6678C51.1304 36.2277 51.7025 35.685 52.1792 35.1936C52.8467 34.4748 53.184 33.8147 53.5581 33.338C53.6461 33.228 53.7268 33.1326 53.8295 33.0593C54.3062 32.6999 54.6802 32.3845 54.9809 32.0985C55.6704 31.4604 55.9711 31.0277 56.3891 30.7123C56.4258 30.6977 56.4552 30.6757 56.4845 30.6463C56.5872 30.5656 56.7632 30.3823 56.9686 30.1329C57.3353 29.6928 57.856 28.9961 58.3474 28.402C58.5968 28.1013 58.8315 27.8373 59.0442 27.6099C59.3595 27.2725 59.5942 27.0378 59.7043 26.9645C59.9316 26.8178 60.9511 26.5758 61.5525 26.275C61.8459 26.1284 62.0659 25.9597 62.1979 25.791C62.3666 25.571 62.5867 25.3509 62.8067 25.1456C62.8654 25.0942 62.9167 25.0429 62.968 24.9989L63.1881 27.4119C63.2174 27.7933 63.3128 28.1453 63.3861 28.4533C63.4081 28.556 63.4301 28.7101 63.4301 28.7614C63.2394 29.0328 62.8874 29.3481 62.638 29.6268C62.4033 29.8909 62.2346 30.1476 62.1759 30.3383C62.0586 30.7197 62.1539 31.0204 62.4106 31.2477C62.6453 31.4531 62.9607 31.7171 63.3934 32.0398C63.7895 32.3332 64.2956 32.6853 64.9263 33.0886C65.8138 33.6461 66.3785 34.0641 66.8919 34.3868C67.222 34.5922 67.53 34.7609 67.8747 34.9076C68.1094 35.0102 68.3808 34.9662 68.5715 34.7976L69.8476 33.6167C70.2437 33.6314 71.0065 33.6534 71.7619 33.6607C72.422 33.6607 73.0748 33.646 73.5001 33.6314C74.0062 34.0128 74.2629 34.1228 74.6296 34.4602C74.8643 34.6729 75.143 34.9589 75.5684 35.465C75.6491 35.5823 75.8105 35.6117 75.9205 35.531C76.0378 35.4503 76.0672 35.2889 75.9865 35.1789C75.6418 34.5702 75.4144 34.2108 75.209 33.9394C74.8203 33.426 74.571 33.2867 73.8375 32.4799C73.6102 32.2305 73.3388 31.9225 72.9941 31.5118C72.224 30.6757 71.5565 30.0816 70.8304 29.3261C70.5591 29.0474 70.2804 28.7394 69.987 28.3873C69.5616 27.8813 69.1656 27.5292 68.7842 27.2505C68.1534 26.7885 67.5667 26.5464 66.9286 26.033C66.6059 25.7763 66.1731 25.3803 65.7478 24.9695C64.875 24.1408 64.0169 23.246 64.0169 23.246C63.8115 23.0333 63.4888 22.9819 63.2247 23.1139C63.1294 23.1653 62.6233 23.5027 62.0953 23.9647C61.7505 24.2581 61.3985 24.6028 61.1271 24.9475C61.1051 24.9769 61.0538 24.9915 61.0098 25.0209C60.8778 25.0942 60.7091 25.1676 60.5404 25.2336C59.9023 25.4756 59.1762 25.6883 58.9782 25.8203C58.8461 25.9083 58.5674 26.1504 58.2081 26.5097C57.944 26.7811 57.6286 27.1332 57.2986 27.5292C56.8585 28.0573 56.3891 28.6734 56.0371 29.1208C55.553 28.7467 54.7903 28.2553 54.2402 27.7566C53.9908 27.5292 53.7121 27.2945 53.4334 27.0818C52.9713 26.7151 52.5166 26.3851 52.2232 26.165C51.9812 25.9817 51.6878 25.8057 51.3945 25.6516C50.7637 25.3216 50.133 25.1016 50.133 25.1016C49.9423 25.0356 49.7296 25.0576 49.5535 25.1602L49.0035 25.6003C48.7834 25.4096 48.5341 25.1529 48.248 24.8302C47.8153 24.3388 47.3166 23.686 46.7445 22.8206C46.6638 22.7032 46.5171 22.5199 46.3264 22.3145C45.8424 21.7864 45.0503 21.0237 44.8596 20.7596C44.0088 19.5861 43.4 18.9114 43.114 18.5887L42.9893 18.4493C42.9526 18.3906 42.9013 18.332 42.8426 18.288C42.5639 18.0606 42.1532 18.0973 41.9185 18.3686C41.9185 18.3686 41.3758 18.9847 40.5323 19.8648C40.1216 20.2976 39.6302 20.8036 39.1021 21.3317C38.6107 21.8231 37.5692 22.5639 36.9091 23.1359C36.6378 23.3706 36.4251 23.5833 36.3004 23.752C36.073 24.0601 35.8017 24.3975 35.5303 24.7055C35.1416 25.1529 34.7602 25.5636 34.5182 25.8203C34.4301 25.7836 34.3348 25.7396 34.2541 25.703C33.9461 25.5489 33.5867 25.3803 33.198 25.2922C33.0366 25.2556 32.9486 25.1456 32.8239 25.0502C32.6846 24.9329 32.5379 24.8155 32.3399 24.6908C32.1785 24.5882 31.9805 24.4855 31.7384 24.3901C31.4597 24.2875 31.1517 24.3681 30.9683 24.6028L29.3401 26.7224C29.2521 26.8471 29.1128 26.9938 28.9441 27.1625C28.306 27.8153 27.3305 28.6807 26.9491 29.1355C26.6044 29.5462 26.245 30.0229 25.9296 30.4483C25.7243 30.7343 25.5336 30.9984 25.3796 31.2184C25.2256 31.0937 25.0715 30.9617 24.9102 30.815C24.3234 30.2796 23.6487 29.5608 22.5852 28.5414C22.1231 28.094 21.7344 27.7566 21.3824 27.4632C20.935 27.0965 20.5316 26.8104 20.0842 26.5024C19.9302 26.3924 19.7395 26.1504 19.5415 25.8937C19.1161 25.3289 18.7053 24.6688 18.7053 24.6688C18.566 24.4488 18.3166 24.3241 18.0526 24.3461C17.4292 24.4048 16.9451 24.5221 16.527 24.6762C15.7643 24.9549 15.2582 25.3509 14.5908 25.7617C14.0774 26.0697 13.542 26.4657 13.0506 26.7811C12.7572 26.9718 12.3098 27.1772 12.2218 27.2138C12.0678 27.1478 11.8477 27.0892 11.591 27.0378C10.9456 26.9131 9.95547 26.8398 9.53008 26.6638C9.31005 26.5684 9.06068 26.5978 8.86999 26.7371L7.19042 27.9179C7.06574 27.9986 6.88239 28.182 6.66969 28.4167C6.21496 28.9374 5.5842 29.8102 5.32017 30.0669C3.81663 31.5484 3.00985 32.1498 2.10039 32.9713C1.84369 33.1987 1.60899 33.4627 1.32296 33.7487C1.13226 33.9541 0.714205 34.1521 0.428166 34.3868C0.325485 34.4748 0.230138 34.5555 0.164129 34.6509C0.0614487 34.7535 0.068783 34.9076 0.164129 35.0102C0.26681 35.1056 0.428169 35.1056 0.523516 35.0102C0.618862 34.9442 0.74355 34.9222 0.882902 34.8856C1.1176 34.8196 1.36697 34.7829 1.57966 34.7169C1.71901 34.6729 1.83637 34.6068 1.93905 34.5482C2.2911 34.3428 2.61381 34.1741 2.89984 33.9761C3.21522 33.7634 3.48659 33.514 3.77263 33.272C4.44006 32.7146 5.15881 32.0692 6.25163 31.013C6.501 30.771 7.05841 30.0376 7.51314 29.4875C7.68916 29.2748 7.83585 29.0914 7.93853 29.0254L9.37606 28.0206C9.46408 28.0426 9.56675 28.0646 9.66943 28.0866C10.1462 28.182 10.7549 28.2553 11.2316 28.3433C11.4223 28.38 11.591 28.402 11.679 28.446C11.9724 28.6074 12.4125 28.622 12.9259 28.3947C13.5786 28.116 14.4808 27.4192 15.3095 26.9131C15.8156 26.6051 16.2117 26.2971 16.7324 26.0624C16.9378 25.967 17.1651 25.8863 17.4218 25.8277L17.4438 25.8497ZM0.384162 38.5527C0.384162 38.5527 0.802221 38.6114 1.60166 38.6847C1.94638 38.7214 2.34243 38.7581 2.81917 38.7948C2.97319 38.8094 3.13453 38.8168 3.30322 38.8241C3.65527 38.8314 4.02933 38.8241 4.43272 38.8241C6.16362 38.8094 8.37125 38.7948 10.9016 38.8241C13.7913 38.8534 17.0991 38.9341 20.5976 39.1175C23.634 39.2788 26.8171 39.5209 29.9929 39.8582C31.3351 39.9976 32.6699 40.1516 33.9974 40.335C34.2688 40.3716 34.5328 40.4156 34.8042 40.4376C34.9876 40.4523 35.1636 40.467 35.3469 40.4743C36.0584 40.5037 36.7258 40.489 37.4005 40.5037C37.5326 40.5257 37.6573 40.4376 37.6793 40.3056C37.7013 40.1736 37.6132 40.0489 37.4812 40.0269C36.8358 39.8142 36.2051 39.5942 35.5156 39.3962C35.3396 39.3448 35.1636 39.3008 34.9876 39.2642C34.7235 39.2128 34.4521 39.1761 34.1808 39.1321C32.5085 38.8681 30.8216 38.6407 29.1347 38.45C25.0715 37.9953 21.023 37.7533 17.2898 37.6139C14.3194 37.5039 11.5544 37.4599 9.15603 37.4746C7.02174 37.4819 5.17349 37.5259 3.73596 37.5846C3.54526 37.5919 3.36924 37.5993 3.19321 37.6139C2.89984 37.6433 2.62847 37.6726 2.3791 37.7093C1.06626 37.9073 0.354829 38.0833 0.354829 38.0833C0.222811 38.0833 0.120132 38.2007 0.127467 38.3327C0.127467 38.4647 0.244813 38.5674 0.376831 38.5601L0.384162 38.5527ZM17.2165 41.4865C17.1798 41.7138 17.5978 41.8752 17.9646 42.0439C18.0599 42.0879 18.1479 42.1172 18.2653 42.1392C18.3313 42.1539 18.3973 42.1612 18.4633 42.1539C18.6687 42.1392 18.8667 42.0879 19.0647 42.0292C19.5854 41.8898 19.9595 41.7285 19.9595 41.7285C20.0989 41.7285 20.2089 41.6185 20.2089 41.4791C20.2089 41.3398 19.5855 41.0684 19.0574 40.9291C18.8594 40.8777 18.6613 40.819 18.456 40.8044C18.39 40.8044 18.3166 40.8044 18.2579 40.819C18.1406 40.841 18.0526 40.8704 17.9572 40.9144C17.5905 41.0831 17.2311 41.3324 17.2091 41.4718L17.2165 41.4865ZM6.7137 41.5158C6.7137 41.3764 6.16362 41.0977 5.98759 41.0244C5.87758 40.9804 5.78223 40.9437 5.66488 40.9144C5.53286 40.8777 5.41552 40.8484 5.29083 40.8337C5.17348 40.819 5.06347 40.8264 4.94612 40.8117C4.59407 40.8337 4.3227 40.841 4.088 40.8924C3.60394 40.9951 3.33256 41.1344 2.9145 41.2518C2.77515 41.2518 2.67248 41.3764 2.67248 41.5085C2.67248 41.6405 2.79716 41.7505 2.92918 41.7505C3.28856 41.8238 3.54526 41.8532 3.91197 41.9118C4.15401 41.9559 4.41805 42.0145 4.7921 42.1245C4.90945 42.1392 5.03414 42.1612 5.15882 42.1612C5.27617 42.1612 5.38617 42.1466 5.50352 42.1245C5.63554 42.0952 5.76024 42.0585 5.89225 42.0072C6.09762 41.9265 6.70636 41.8165 6.7137 41.5158ZM32.9486 43.6941C32.9046 43.9215 33.33 44.0828 33.6967 44.2515C33.7921 44.2955 33.8801 44.3248 33.9974 44.3469C34.0634 44.3615 34.1294 44.3688 34.1954 44.3615C34.4008 44.3468 34.5988 44.2955 34.7969 44.2368C35.3176 44.0975 35.6916 43.9361 35.6916 43.9361C35.831 43.9361 35.941 43.8261 35.941 43.6868C35.941 43.5474 35.3176 43.276 34.7969 43.1367C34.5988 43.0854 34.4008 43.0267 34.1954 43.012C34.1294 43.012 34.0634 43.012 33.9974 43.0267C33.8801 43.0487 33.7921 43.078 33.6967 43.122C33.33 43.2907 32.9706 43.5401 32.9486 43.6794V43.6941ZM46.3924 46.4665C46.6931 46.4811 46.5318 46.0264 46.5025 45.5644C46.4951 45.4397 46.4731 45.3076 46.4365 45.1683C46.4144 45.0876 46.3851 44.9996 46.3484 44.9189C46.2311 44.6842 46.0771 44.4642 45.923 44.2515C45.6003 43.8114 45.285 43.4741 45.0869 43.3274C45.0356 43.2614 44.9476 43.254 44.8816 43.3054C44.8156 43.3567 44.8082 43.4447 44.8596 43.5107C44.9549 43.7161 45.0136 44.1342 45.1383 44.6182C45.1969 44.8676 45.2556 45.1243 45.3436 45.359C45.373 45.4397 45.417 45.513 45.461 45.5864C45.5343 45.711 45.615 45.8064 45.6957 45.9017C46.0037 46.2391 46.3191 46.4591 46.3998 46.4665H46.3924ZM47.0965 46.5031C47.1699 46.5398 47.4999 46.1438 47.6393 45.9311C47.698 45.8431 47.7493 45.755 47.7933 45.6524C47.8153 45.5937 47.8373 45.5277 47.852 45.4543C47.8813 45.2416 47.874 45.0363 47.874 44.8309C47.874 44.3982 47.8226 44.0608 47.8226 43.8774C47.852 43.8041 47.808 43.7161 47.7273 43.6941C47.6466 43.6721 47.5659 43.7088 47.5439 43.7894C47.4339 43.9435 47.2359 44.2295 47.0305 44.6329C46.9352 44.8162 46.8398 45.0069 46.7812 45.2196C46.7592 45.2856 46.7518 45.359 46.7518 45.425C46.7518 45.5424 46.7518 45.645 46.7812 45.755C46.8398 46.0117 46.8692 46.3638 47.1039 46.4885L47.0965 46.5031ZM63.7015 46.8479C63.8262 47.0972 64.3689 47.2512 64.5743 47.3172C64.6989 47.3539 64.8016 47.3833 64.9116 47.3979C64.985 47.4053 65.0583 47.4126 65.1243 47.4126C65.3884 47.3979 65.5864 47.3539 65.7844 47.3246C66.1511 47.2733 66.4372 47.2219 66.9066 47.0679C67.0459 47.0679 67.1486 46.9432 67.1413 46.8039C67.1413 46.6645 67.0166 46.5618 66.8772 46.5692C66.4372 46.4665 66.2025 46.3345 65.8724 46.2318C65.6524 46.1584 65.425 46.0851 65.117 46.0704C65.0363 46.0704 64.9483 46.0704 64.8603 46.0924C64.7356 46.1144 64.6183 46.1438 64.4863 46.2098C64.2809 46.3051 63.5401 46.5618 63.6868 46.8479H63.7015ZM13.2266 47.1779C13.0872 47.5226 13.7106 47.5813 14.1727 47.7353C14.3047 47.7793 14.4368 47.8087 14.5908 47.8307C14.6788 47.8453 14.7741 47.8527 14.8695 47.8453C15.1482 47.8307 15.4342 47.7793 15.7056 47.7206C16.4097 47.5813 16.9598 47.4199 16.9598 47.4199C17.0991 47.4199 17.2091 47.3099 17.2091 47.1706C17.2091 47.0312 17.0991 46.9212 16.9598 46.9212C16.9598 46.9212 16.417 46.7599 15.7056 46.6205C15.4342 46.5692 15.1555 46.5105 14.8695 46.4958C14.7741 46.4958 14.6788 46.4958 14.5908 46.5105C14.4368 46.5325 14.3047 46.5691 14.1727 46.6058C13.7106 46.7598 13.3146 46.9505 13.2266 47.1632V47.1779ZM1.96105 51.4025C1.99772 51.5345 2.45245 51.8059 2.88517 51.9599C2.97318 51.9892 3.05386 52.0112 3.14921 52.0332C3.20788 52.0406 3.26656 52.0552 3.32524 52.0479C3.38391 52.0479 3.44258 52.0332 3.50125 52.0186C3.5966 51.9966 3.67728 51.9672 3.76529 51.9305C4.18335 51.7545 4.82877 51.7325 4.66741 51.3511C4.63807 51.2851 4.52806 51.1751 4.33737 51.0724C4.16134 50.9771 3.94865 50.8817 3.74329 50.8084C3.65528 50.7791 3.5746 50.7497 3.47925 50.7277C3.42058 50.7131 3.3619 50.7057 3.30322 50.7057C3.24455 50.7057 3.18588 50.7204 3.12721 50.7277C3.03186 50.7497 2.95118 50.7717 2.86317 50.8084C2.43778 50.9844 1.89504 51.1604 1.96105 51.4025ZM57.5626 53.6028C57.8853 53.7935 58.2594 54.0502 58.7361 54.2995C58.9195 54.3949 59.1028 54.4829 59.3082 54.5636C59.3889 54.6002 59.4769 54.6296 59.5576 54.6516C59.6749 54.6883 59.7923 54.7103 59.9023 54.7323C60.0857 54.7689 60.2617 54.791 60.4377 54.8056C60.9951 54.8496 61.4645 54.8496 61.8312 54.8349C61.9706 54.8643 62.1099 54.7689 62.1319 54.6296C62.1539 54.4902 62.0659 54.3509 61.9266 54.3289C61.6039 54.1822 61.2225 53.9548 60.7457 53.7128C60.5917 53.6321 60.4377 53.5588 60.269 53.4928C60.159 53.4488 60.0563 53.4048 59.939 53.3754C59.6529 53.2947 59.3596 53.2507 59.0735 53.2067C58.5454 53.1407 58.0907 53.1407 57.7167 53.1187C57.5773 53.0747 57.4379 53.1554 57.3939 53.2874C57.3499 53.4268 57.4306 53.5661 57.5626 53.6101V53.6028ZM39.8502 56.2211C39.9896 56.2798 40.1289 55.9718 40.3416 55.6857C40.4003 55.605 40.4663 55.5317 40.5323 55.4217C40.5763 55.3484 40.6203 55.2823 40.657 55.2017C40.6863 55.1283 40.7083 55.0477 40.745 54.967L41.2437 53.3534C41.2877 53.2874 41.2657 53.1921 41.1997 53.1481C41.1337 53.104 41.0457 53.126 40.9944 53.1921C40.855 53.3167 40.525 53.5808 40.2023 53.9328C40.0262 54.1235 39.8796 54.3362 39.7475 54.5416C39.6962 54.6663 39.6375 54.7763 39.6082 54.8936C39.5715 55.033 39.5642 55.1577 39.5642 55.275C39.5642 55.3997 39.5642 55.4877 39.5862 55.5904C39.6522 55.9278 39.6742 56.1625 39.8429 56.2285L39.8502 56.2211ZM39.0654 56.3018C39.3442 56.2725 39.2635 55.7957 39.2781 55.5244C39.2781 55.4144 39.2781 55.3117 39.2488 55.1943C39.2341 55.1283 39.2121 55.0623 39.1828 54.9963C39.0874 54.8056 38.9481 54.6369 38.8161 54.4829C38.486 54.1015 38.2 53.8521 38.068 53.7861C38.0093 53.7348 37.914 53.7348 37.8626 53.7935C37.8039 53.8522 37.9433 54.3509 38.0093 54.7103C38.0313 54.835 38.046 54.9523 38.0826 55.077C38.112 55.1943 38.134 55.3117 38.178 55.429C38.2 55.4877 38.2367 55.5464 38.266 55.5977C38.3247 55.6857 38.3907 55.7591 38.4567 55.8324C38.6327 56.0084 38.8674 56.3165 39.0654 56.2871V56.3018ZM71.2998 34.5849C71.2485 34.5849 71.1972 34.5848 71.1458 34.5995C71.1165 34.5995 71.0945 34.6142 71.0651 34.6215C70.9771 34.6582 70.8891 34.7095 70.8231 34.7756C70.7571 34.8416 70.7058 34.9222 70.6691 35.0176C70.6618 35.0469 70.6544 35.0689 70.6471 35.0982C70.6471 35.1276 70.6397 35.1496 70.6324 35.1789C70.5664 35.7143 70.4637 36.1837 70.3391 36.6018C70.2437 36.9172 70.1337 37.2032 70.0163 37.4672C69.8843 37.7533 69.745 38.0247 69.5836 38.2814C69.3269 38.6921 69.0629 39.0808 68.6815 39.4695C68.5568 39.5575 68.5275 39.7189 68.6155 39.8436C68.7035 39.9609 68.8649 39.9976 68.9895 39.9096C69.5543 39.6529 70.031 39.3742 70.4417 39.0075C70.4931 38.9635 70.5444 38.9121 70.5884 38.8681C70.4931 39.3082 70.3831 39.7409 70.251 40.1443C70.1484 40.4596 70.031 40.7604 69.877 41.0391C69.7303 41.3031 69.5763 41.5598 69.3562 41.7872C69.0409 42.1172 68.6888 42.4326 68.1387 42.682C67.9994 42.7186 67.9114 42.8653 67.9481 43.012C67.9847 43.1514 68.1314 43.2394 68.2781 43.2027C68.9602 43.1514 69.4956 42.9827 69.9577 42.726C70.1924 42.6013 70.3904 42.4326 70.5664 42.2566C70.4637 42.6746 70.3537 43.0853 70.207 43.4741C70.0897 43.7894 69.9503 44.0901 69.767 44.3615C69.5983 44.6182 69.4076 44.8602 69.1509 45.0729C68.7915 45.3737 68.3734 45.6524 67.772 45.8284C67.6253 45.843 67.5227 45.9824 67.5373 46.1291C67.552 46.2758 67.6914 46.3785 67.838 46.3638C68.5568 46.4005 69.1289 46.2904 69.6349 46.0851C69.9063 45.9751 70.1337 45.821 70.3464 45.645C70.4271 45.579 70.5077 45.5057 70.5811 45.425C70.4711 45.8651 70.3317 46.2978 70.1484 46.6865C70.009 46.9872 69.8403 47.2659 69.6349 47.5226C69.4369 47.7646 69.2169 47.9847 68.9382 48.168C68.5421 48.4321 68.0874 48.6741 67.4713 48.8061C67.3246 48.8061 67.2073 48.9381 67.2146 49.0848C67.2146 49.2315 67.3466 49.3489 67.4933 49.3415C68.2634 49.4369 68.8942 49.3709 69.4443 49.1728C69.9137 49.0041 70.2877 48.7254 70.6104 48.4027C70.5004 48.8575 70.295 49.2829 70.0457 49.6642C69.855 49.9503 69.6203 50.2143 69.3783 50.449C69.1216 50.6911 68.8502 50.9111 68.5568 51.0944C68.0801 51.3878 67.596 51.6298 67.0459 51.6812C66.8992 51.6739 66.7746 51.7839 66.7599 51.9305C66.7526 52.0772 66.8626 52.2019 67.0093 52.2166C67.6767 52.3633 68.3588 52.3266 69.0189 52.1139C69.4516 51.9746 69.855 51.7399 70.2217 51.4538C70.361 51.3438 70.4931 51.2265 70.6251 51.0944V53.8888C70.6251 54.5049 70.9258 56.4192 71.2998 56.4192C71.6739 56.4192 71.9746 54.4976 71.9746 53.8741V50.9111C72.2753 51.1238 72.576 51.2705 72.9134 51.3951C73.0307 51.4832 73.1994 51.4538 73.2875 51.3365C73.3755 51.2191 73.3461 51.0504 73.2288 50.9624C73.0234 50.6984 72.9061 50.427 72.752 50.1263C72.6934 50.0163 72.6494 49.9136 72.5907 49.8036C72.5027 49.6496 72.422 49.5029 72.3487 49.3489C72.1946 49.0335 72.0553 48.7034 71.9746 48.3514C72.1286 48.4981 72.2973 48.6374 72.488 48.7401C72.9134 48.9821 73.3755 49.1362 73.9402 49.1802C74.0796 49.2242 74.2336 49.1362 74.2702 48.9968C74.3143 48.8575 74.2262 48.7034 74.0869 48.6668C73.6615 48.4467 73.3901 48.146 73.1261 47.8307C72.9501 47.6253 72.818 47.4053 72.686 47.1779C72.554 46.9432 72.4367 46.6938 72.334 46.4371C72.2093 46.1218 72.1066 45.7844 72.0259 45.447C72.0993 45.5203 72.18 45.5937 72.2606 45.6597C72.4733 45.8357 72.7007 45.9897 72.9721 46.0997C73.4708 46.3051 74.0502 46.4151 74.769 46.3785C74.9157 46.3931 75.0477 46.2905 75.0697 46.1438C75.0844 45.9971 74.9817 45.8651 74.835 45.8431C74.2262 45.667 73.8155 45.3883 73.4561 45.0876C73.1994 44.8749 73.0088 44.6329 72.8401 44.3762C72.664 44.1048 72.5173 43.8041 72.4 43.4887C72.2533 43.1 72.1433 42.6893 72.048 42.2712C72.2313 42.4472 72.422 42.6086 72.6567 42.7406C73.1188 42.99 73.6542 43.166 74.3363 43.2174C74.4829 43.254 74.6223 43.166 74.659 43.0267C74.6956 42.88 74.6076 42.7333 74.4683 42.6966C73.9182 42.4473 73.5588 42.1319 73.2508 41.8018C73.0307 41.5671 72.8767 41.3178 72.73 41.0537C72.5834 40.775 72.4587 40.4743 72.356 40.159C72.224 39.7556 72.1213 39.3302 72.0186 38.8828C72.0699 38.9341 72.114 38.9781 72.1653 39.0221C72.576 39.3888 73.0454 39.6675 73.6175 39.9242C73.7422 40.0123 73.9035 39.9829 73.9915 39.8582C74.0796 39.7336 74.0502 39.5722 73.9255 39.4842C73.5442 39.0955 73.2801 38.6994 73.0234 38.296C72.8547 38.0393 72.7227 37.7679 72.5907 37.4819C72.466 37.2105 72.356 36.9318 72.268 36.6165C72.1433 36.1984 72.0406 35.729 71.9746 35.1936C71.9746 35.1643 71.9746 35.1423 71.9599 35.1129C71.9599 35.0836 71.9453 35.0616 71.9379 35.0322C71.9013 34.9442 71.8499 34.8562 71.7839 34.7902C71.7179 34.7242 71.6372 34.6655 71.5419 34.6362C71.5125 34.6289 71.4905 34.6215 71.4612 34.6142C71.4099 34.5995 71.3585 34.5995 71.3072 34.5995L71.2998 34.5849ZM51.1011 53.5588C51.6365 54.0355 52.3039 54.5122 53.1034 54.945C53.7048 55.2677 54.3795 55.5464 55.0836 55.8177C55.5237 55.9864 55.9784 56.1405 56.4405 56.2871C56.8659 56.4192 57.2986 56.5365 57.7313 56.6392C58.1641 56.7419 58.6041 56.8299 59.0442 56.9106C61.4865 57.358 63.8115 57.5707 65.227 57.6367C65.3737 57.6513 65.4984 57.5486 65.5131 57.402C65.5277 57.2553 65.425 57.1306 65.2784 57.1159C64.1195 56.9252 62.352 56.5145 60.4084 55.9938C59.7336 55.8104 59.0442 55.6124 58.3547 55.4144C57.8633 55.275 57.3793 55.143 56.8952 55.0036C56.4038 54.8643 55.9124 54.7323 55.4357 54.6003C54.7096 54.3876 54.0275 54.1602 53.3894 53.9402C52.6413 53.6761 51.9665 53.4414 51.4091 53.1334C51.2918 53.0454 51.1231 53.0747 51.0424 53.1921C50.9544 53.3094 50.9837 53.4781 51.1011 53.5588ZM17.6125 58.6121C17.3118 58.6268 17.4732 58.1721 17.5098 57.71C17.5172 57.5853 17.5392 57.4533 17.5758 57.3139C17.5978 57.2333 17.6272 57.1453 17.6639 57.0646C17.7812 56.8299 17.9352 56.6099 18.0892 56.3972C18.412 55.9571 18.7273 55.6197 18.918 55.473C18.9694 55.407 19.0574 55.3997 19.1234 55.451C19.1894 55.5024 19.1967 55.5977 19.1454 55.6564C19.05 55.8617 18.9914 56.2798 18.8667 56.7639C18.808 57.0132 18.7493 57.27 18.6613 57.5047C18.632 57.5853 18.588 57.6587 18.544 57.732C18.4706 57.8567 18.39 57.952 18.3093 58.0474C18.0012 58.3848 17.6859 58.6048 17.6052 58.6121H17.6125ZM16.9084 58.6488C16.8351 58.6855 16.505 58.2894 16.3657 58.0767C16.307 57.9887 16.2557 57.9007 16.2117 57.798C16.1823 57.732 16.1676 57.6733 16.153 57.6C16.1236 57.3873 16.131 57.1819 16.131 56.9766C16.131 56.5438 16.1823 56.2065 16.1823 56.0231C16.153 55.9424 16.197 55.8617 16.2777 55.8397C16.351 55.8104 16.439 55.8544 16.461 55.9351C16.571 56.0891 16.7691 56.3752 16.9744 56.7786C17.0698 56.9619 17.1651 57.1526 17.2238 57.3653C17.2458 57.4313 17.2531 57.5047 17.2531 57.578C17.2531 57.6953 17.2531 57.798 17.2238 57.908C17.1651 58.1647 17.1358 58.5168 16.9011 58.6415L16.9084 58.6488ZM33.1686 58.2747C33.154 58.5168 33.6527 58.6781 34.0928 58.8322C34.1808 58.8615 34.2615 58.8835 34.3568 58.9055C34.4155 58.9128 34.4741 58.9275 34.5328 58.9202C34.5915 58.9202 34.6502 58.9055 34.7088 58.8908C34.8042 58.8688 34.8849 58.8395 34.9729 58.8028C35.3909 58.6268 35.3763 58.5975 35.6256 58.4728C35.7503 58.4068 35.875 58.3554 35.8677 58.2161C35.8677 58.0767 35.3689 57.8274 34.9436 57.666C34.8555 57.6367 34.7749 57.6073 34.6795 57.5853C34.6208 57.5706 34.5622 57.5633 34.5035 57.5633C34.4448 57.5633 34.3861 57.578 34.3275 57.5853C34.2321 57.6073 34.1514 57.6293 34.0634 57.666C33.638 57.842 33.1686 58.1207 33.1613 58.2601L33.1686 58.2747ZM45.2703 52.818C43.532 55.8104 41.2291 59.3529 39.4322 61.9346L40.657 62.14C41.1704 61.9493 42.9013 61.2232 43.7668 59.859C44.7936 58.2381 45.1016 55.5244 45.1236 55.297L45.2703 52.8107V52.818ZM9.00935 40.2616C8.95801 40.2616 8.90666 40.2616 8.85532 40.2836C8.82598 40.2836 8.80398 40.2983 8.77464 40.3056C8.6793 40.3423 8.59862 40.3937 8.53261 40.4597C8.4666 40.5257 8.41526 40.6063 8.37859 40.7017C8.37126 40.731 8.36392 40.753 8.35659 40.7824C8.35659 40.8117 8.34192 40.8337 8.34192 40.863C8.27591 41.3984 8.17322 41.8678 8.04854 42.2859C7.95319 42.6013 7.84319 42.8873 7.72584 43.1514C7.59382 43.4374 7.45446 43.7014 7.2931 43.9655C7.0364 44.3762 6.77237 44.7649 6.39098 45.1536C6.27363 45.2416 6.23697 45.403 6.32498 45.5277C6.41299 45.645 6.57434 45.6817 6.69902 45.5937C7.26377 45.337 7.73316 45.0583 8.15122 44.6916C8.20256 44.6476 8.25391 44.5962 8.29791 44.5522C8.19523 44.9923 8.09254 45.425 7.96786 45.8284C7.86518 46.1438 7.74783 46.4445 7.59381 46.7232C7.45446 46.9872 7.29311 47.2439 7.07308 47.4713C6.75771 47.8013 6.40565 48.124 5.85558 48.3661C5.70889 48.4027 5.62821 48.5494 5.66488 48.6961C5.70155 48.8355 5.84825 48.9235 5.99493 48.8868C6.67703 48.8355 7.21243 48.6668 7.67449 48.4101C7.90919 48.2854 8.10722 48.124 8.28324 47.9407C8.1879 48.3587 8.07055 48.7695 7.9312 49.1582C7.81385 49.4735 7.67449 49.7743 7.49113 50.0456C7.32244 50.3023 7.13175 50.5444 6.87505 50.7571C6.51567 51.0578 6.09761 51.3365 5.49619 51.5125C5.34951 51.5272 5.24683 51.6665 5.2615 51.8132C5.27617 51.9599 5.41551 52.0626 5.5622 52.0479C6.28096 52.0846 6.85305 51.9746 7.35912 51.7692C7.63049 51.6592 7.86518 51.5052 8.07054 51.3291C8.15122 51.2631 8.2319 51.1898 8.30525 51.1091C8.19523 51.5492 8.05588 51.9819 7.87252 52.3706C7.73317 52.6713 7.56448 52.95 7.35912 53.2067C7.16109 53.4487 6.94105 53.6688 6.66235 53.8521C6.2663 54.1162 5.81157 54.3582 5.19548 54.4902C5.0488 54.4902 4.93145 54.6222 4.93879 54.7689C4.93879 54.9156 5.0708 55.033 5.21748 55.0256C5.98759 55.121 6.61835 55.055 7.16842 54.8569C7.63782 54.6956 8.01187 54.4096 8.33458 54.0868C8.23923 54.4682 8.08521 54.8276 7.88718 55.1577C7.73316 55.4144 7.55714 55.6491 7.37378 55.8691C7.17575 56.0965 6.97773 56.3165 6.75037 56.5145C6.38365 56.8372 6.02426 57.1306 5.5842 57.3066C5.43752 57.3359 5.34217 57.4753 5.37151 57.622C5.40085 57.7687 5.5402 57.864 5.68688 57.8347C6.26629 57.8347 6.82371 57.71 7.35912 57.4533C7.71117 57.292 8.02654 57.0499 8.31992 56.7859C8.33459 56.7712 8.34925 56.7565 8.36392 56.7419C8.36392 57.1526 8.37859 57.556 8.38592 57.93C8.40059 58.5461 8.4226 59.1182 8.45927 59.6316C8.49594 60.1157 8.54727 60.5411 8.59861 60.9078C8.70863 61.7219 8.79664 62.184 8.79664 62.184C8.79664 62.3086 8.89932 62.4113 9.02401 62.4113C9.14869 62.4113 9.25137 62.3086 9.25137 62.184C9.25137 62.184 9.33938 61.7219 9.4494 60.9078C9.49341 60.5411 9.55208 60.123 9.58875 59.6316C9.62543 59.1182 9.64743 58.5534 9.6621 57.93C9.66944 57.556 9.67677 57.1599 9.6841 56.7565C9.81612 56.8885 9.95547 57.0132 10.1022 57.1306C10.4689 57.4166 10.8723 57.6513 11.305 57.7907C11.9651 58.0034 12.6472 58.0474 13.3146 57.9007C13.4613 57.8934 13.5786 57.7687 13.564 57.6147C13.5566 57.468 13.4246 57.358 13.2779 57.3653C12.7278 57.3066 12.2438 57.0719 11.7671 56.7786C11.4737 56.5952 11.2023 56.3825 10.9456 56.1331C10.6962 55.8984 10.4689 55.6417 10.2782 55.3484C10.0215 54.967 9.82345 54.5489 9.71344 54.0868C10.0361 54.4096 10.4175 54.6883 10.8796 54.8569C11.4297 55.055 12.0604 55.121 12.8305 55.0256C12.9772 55.0256 13.1019 54.9156 13.1092 54.7689C13.1092 54.6222 12.9992 54.4976 12.8525 54.4902C12.2291 54.3655 11.7817 54.1162 11.3857 53.8521C11.107 53.6688 10.8869 53.4414 10.6889 53.2067C10.4835 52.9574 10.3149 52.6787 10.1755 52.3706C9.99214 51.9746 9.85279 51.5492 9.74278 51.1091C9.81612 51.1825 9.89679 51.2558 9.97747 51.3291C10.1902 51.5052 10.4175 51.6592 10.6889 51.7692C11.1876 51.9746 11.767 52.0846 12.4858 52.0479C12.6325 52.0626 12.7645 51.9599 12.7865 51.8132C12.8012 51.6665 12.6985 51.5345 12.5518 51.5125C11.9431 51.3365 11.5324 51.0578 11.173 50.7571C10.9163 50.5444 10.7256 50.3023 10.5569 50.0456C10.3809 49.7743 10.2342 49.4735 10.1168 49.1582C9.97014 48.7695 9.86012 48.3587 9.75744 47.9407C9.9408 48.1167 10.1315 48.2781 10.3662 48.4101C10.8283 48.6668 11.3637 48.8355 12.0458 48.8868C12.1851 48.9235 12.3318 48.8355 12.3685 48.6961C12.4051 48.5494 12.3171 48.4027 12.1778 48.3661C11.6277 48.1167 11.2683 47.8013 10.9603 47.4713C10.7402 47.2366 10.5862 46.9872 10.4395 46.7232C10.2855 46.4445 10.1682 46.1438 10.0655 45.8284C9.93346 45.425 9.83078 44.9996 9.73544 44.5522C9.77944 44.6036 9.83078 44.6476 9.88212 44.6916C10.2928 45.0583 10.7696 45.337 11.3343 45.5937C11.459 45.6817 11.6204 45.6524 11.7084 45.5277C11.7964 45.403 11.7671 45.2416 11.6424 45.1536C11.261 44.7649 10.997 44.3762 10.7402 43.9655C10.5716 43.7088 10.4395 43.4374 10.3075 43.1514C10.1828 42.88 10.0728 42.6013 9.9848 42.2859C9.86012 41.8678 9.75744 41.3984 9.69143 40.863C9.69143 40.8337 9.6841 40.8044 9.67676 40.7824C9.67676 40.753 9.66209 40.731 9.65476 40.7017C9.61809 40.6063 9.56675 40.5257 9.50074 40.4597C9.43474 40.3937 9.35406 40.3423 9.25871 40.3056C9.22937 40.2983 9.20737 40.291 9.17803 40.2836C9.12669 40.269 9.07535 40.2616 9.02401 40.2616H9.00935ZM44.7936 60.7464C44.2728 61.4945 43.5467 62.0886 42.8646 62.5213L44.6689 62.8294L44.7936 60.7538V60.7464ZM62.308 32.2305C62.2566 32.2305 62.2053 32.2305 62.1539 32.2452C62.1246 32.2452 62.1026 32.2599 62.0732 32.2672C61.9852 32.3039 61.8972 32.3552 61.8312 32.4212C61.7652 32.4872 61.7065 32.5679 61.6772 32.6633C61.6699 32.6926 61.6625 32.7146 61.6552 32.7439C61.6552 32.7733 61.6405 32.7953 61.6405 32.8246C61.5892 33.25 61.5012 33.6167 61.4058 33.9541C61.3325 34.2035 61.2445 34.4235 61.1565 34.6362C61.0538 34.8636 60.9584 35.0762 60.8337 35.2816C60.6357 35.619 60.4524 35.9417 60.1517 36.2717C60.0343 36.3598 60.005 36.5211 60.0857 36.6458C60.1737 36.7705 60.335 36.7925 60.4597 36.7118C60.8631 36.5431 61.2078 36.3744 61.5158 36.1397C61.4572 36.3744 61.3985 36.5945 61.3325 36.8145C61.2518 37.0639 61.1638 37.2985 61.0464 37.5112C60.9658 37.6653 60.8851 37.8193 60.7677 37.9587C60.6944 38.054 60.6284 38.1493 60.5404 38.2447C60.3203 38.4647 60.0856 38.6847 59.7263 38.8608C59.5796 38.8974 59.4989 39.0441 59.5356 39.1908C59.5722 39.3302 59.7189 39.4182 59.8656 39.3815C60.445 39.3595 60.8778 39.2275 61.2738 39.0295C61.3472 38.9928 61.4205 38.9488 61.4865 38.9048C61.4278 39.1101 61.3692 39.3155 61.2958 39.5135C61.2078 39.7629 61.0978 39.9903 60.9658 40.203C60.8704 40.3496 60.7677 40.4963 60.6431 40.6283C60.555 40.7164 60.4817 40.8117 60.379 40.8924C60.1223 41.0904 59.851 41.2811 59.4549 41.4131C59.3082 41.4278 59.2055 41.5671 59.2202 41.7138C59.2349 41.8605 59.3742 41.9632 59.5209 41.9485C60.1223 41.9999 60.5917 41.9192 61.0171 41.7578C61.2518 41.6698 61.4425 41.5451 61.6259 41.3985C61.6259 41.3985 61.6405 41.3911 61.6479 41.3838V43.7234C61.4718 43.7454 61.2958 43.7601 61.1125 43.7821C59.7923 43.9435 58.3327 44.2075 56.7265 44.5449V42.0365C56.9025 42.1759 57.0932 42.3006 57.3133 42.3813C57.7313 42.5353 58.1934 42.616 58.7801 42.5646C58.9268 42.5793 59.0588 42.4766 59.0808 42.3299C59.1028 42.1832 58.9928 42.0512 58.8461 42.0292C58.4648 41.8972 58.1934 41.7065 57.944 41.5158C57.8413 41.4351 57.768 41.3471 57.6873 41.2591C57.5626 41.1344 57.4673 40.9877 57.3719 40.841C57.2399 40.6357 57.1372 40.4083 57.0492 40.1663C56.9832 39.9902 56.9245 39.7996 56.8732 39.6162C56.9319 39.6529 56.9906 39.6896 57.0492 39.7189C57.438 39.9096 57.8633 40.0416 58.4354 40.0563C58.5748 40.0929 58.7215 40.0049 58.7581 39.8656C58.7948 39.7262 58.7068 39.5795 58.5674 39.5429C58.2227 39.3668 57.9954 39.1541 57.7753 38.9341C57.6873 38.8461 57.6286 38.7507 57.5553 38.6554C57.4453 38.516 57.3719 38.3694 57.2913 38.2227C57.1812 38.01 57.0932 37.7826 57.0126 37.5406C56.9466 37.3426 56.8952 37.1299 56.8365 36.9172C57.1299 37.1299 57.4599 37.2912 57.8413 37.4452C57.966 37.5333 58.1274 37.5039 58.2154 37.3792C58.3034 37.2546 58.2741 37.0932 58.1494 37.0052C57.8633 36.6825 57.6873 36.3671 57.4966 36.037C57.3793 35.8317 57.2839 35.6263 57.1886 35.4063C57.1006 35.2009 57.0126 34.9809 56.9466 34.7462C56.8512 34.4235 56.7705 34.0641 56.7192 33.6461C56.7192 33.6167 56.7119 33.5947 56.7045 33.5654C56.7045 33.536 56.6899 33.514 56.6825 33.4847C56.6458 33.3894 56.5945 33.3087 56.5285 33.2427C56.4625 33.1767 56.3818 33.118 56.2865 33.0886C56.2645 33.0813 56.2351 33.074 56.2058 33.0666C56.1544 33.052 56.1031 33.052 56.0518 33.052C56.0004 33.052 55.9491 33.052 55.8977 33.0666C55.8684 33.0666 55.8464 33.0813 55.8171 33.0886C55.7217 33.1253 55.641 33.1767 55.575 33.2427C55.509 33.3087 55.4577 33.3894 55.421 33.4847C55.4137 33.5067 55.4063 33.536 55.399 33.5654C55.399 33.5947 55.3917 33.6167 55.3843 33.6461C55.333 34.0568 55.2523 34.4162 55.157 34.7462C55.0836 34.9882 55.003 35.2009 54.9149 35.4063C54.8196 35.6263 54.7243 35.8317 54.6069 36.037C54.4162 36.3671 54.2402 36.6825 53.9468 37.0052C53.8221 37.0932 53.7928 37.2546 53.8808 37.3792C53.9688 37.5039 54.1302 37.5259 54.2548 37.4452C54.6436 37.2912 54.9663 37.1299 55.2597 36.9172C55.2083 37.1299 55.1496 37.3352 55.0836 37.5406C55.0103 37.7826 54.9223 38.01 54.8049 38.2227C54.7242 38.3694 54.6509 38.516 54.5409 38.6554C54.4675 38.7434 54.4089 38.8461 54.3209 38.9341C54.1082 39.1541 53.8808 39.3668 53.5361 39.5429C53.3894 39.5795 53.3087 39.7262 53.3454 39.8656C53.3821 40.0122 53.5288 40.0929 53.6681 40.0563C54.2329 40.0416 54.6656 39.9096 55.0543 39.7189C55.1203 39.6896 55.179 39.6529 55.2303 39.6162C55.179 39.8069 55.1203 39.9902 55.0543 40.1663C54.9663 40.4083 54.8636 40.6283 54.7316 40.841C54.6362 40.9877 54.5409 41.1271 54.4162 41.2591C54.3355 41.3471 54.2622 41.4351 54.1595 41.5158C53.9101 41.7065 53.6461 41.8972 53.2574 42.0292C53.1107 42.0439 53.008 42.1832 53.0227 42.3299C53.0374 42.4766 53.1767 42.5793 53.3234 42.5646C53.9101 42.616 54.3722 42.5426 54.7903 42.3813C55.0176 42.3006 55.201 42.1759 55.377 42.0365V44.4495C54.4309 43.9875 52.4359 43.1294 49.1062 42.1686C48.5854 42.0219 48.0427 41.8605 47.4559 41.7211C46.9279 41.5965 46.3704 41.4498 45.7764 41.3911C45.285 41.3398 44.8082 41.3838 44.2802 41.3838C44.1628 41.3544 44.0455 41.4278 44.0161 41.5451C43.9868 41.6625 44.0601 41.7798 44.1775 41.8092C44.5882 42.0219 44.9402 42.2346 45.3363 42.4106C45.7397 42.5793 46.1504 42.6966 46.5391 42.8213C46.9279 42.946 47.3019 43.056 47.6686 43.166C49.5095 43.7088 50.9911 44.1708 52.1426 44.5889C52.788 44.8236 53.3307 45.0363 53.7708 45.2196C51.9005 45.6744 49.8616 46.2171 47.6686 46.8112C46.2458 47.1999 44.0895 48.036 41.6911 49.0775V46.0777C41.7718 46.1584 41.8525 46.2391 41.9405 46.3124C42.1459 46.4811 42.3732 46.6352 42.6446 46.7452C43.136 46.9432 43.7007 47.0532 44.4048 47.0165C44.5515 47.0312 44.6835 46.9285 44.7055 46.7819C44.7202 46.6352 44.6175 46.5032 44.4708 46.4811C43.8841 46.3051 43.4807 46.0264 43.1287 45.7404C42.8793 45.535 42.6959 45.3003 42.5346 45.0436C42.3586 44.7796 42.2265 44.4862 42.1092 44.1782C41.9772 43.8188 41.8672 43.4301 41.7718 43.0413C41.9405 43.2027 42.1239 43.3494 42.3366 43.4594C42.7913 43.7088 43.312 43.8701 43.9868 43.9214C44.1261 43.9581 44.2728 43.8701 44.3095 43.7308C44.3462 43.5841 44.2582 43.4447 44.1188 43.4007C43.5834 43.1587 43.2387 42.8433 42.9306 42.5206C42.7179 42.2932 42.5639 42.0512 42.4246 41.7872C42.2779 41.5158 42.1605 41.2224 42.0652 40.9144C41.9478 40.533 41.8452 40.1369 41.7498 39.7189C41.7865 39.7556 41.8232 39.7849 41.8598 39.8216C42.2632 40.1809 42.7253 40.445 43.2827 40.7017C43.4 40.7897 43.5687 40.7604 43.6567 40.6357C43.7447 40.5183 43.7154 40.3496 43.5907 40.2616C43.2167 39.8802 42.9673 39.4989 42.7106 39.0955C42.5493 38.8388 42.4172 38.5821 42.2925 38.3034C42.1752 38.0393 42.0652 37.7679 41.9772 37.4599C41.8598 37.0492 41.7571 36.5945 41.6911 36.0737C41.6911 36.0444 41.6838 36.0224 41.6765 35.993C41.6765 35.9637 41.6618 35.9417 41.6545 35.9124C41.6178 35.8244 41.5664 35.7363 41.5004 35.6703C41.4344 35.6043 41.3537 35.5456 41.2584 35.5163C41.2291 35.509 41.2071 35.5016 41.1777 35.4943C41.1264 35.4796 41.0751 35.4796 41.0237 35.4796C40.9724 35.4796 40.921 35.4796 40.8697 35.4943C40.8403 35.4943 40.8183 35.509 40.789 35.5163C40.701 35.553 40.613 35.6043 40.547 35.6703C40.481 35.7363 40.4296 35.817 40.393 35.9124C40.3856 35.9417 40.3783 35.9637 40.371 35.993C40.371 36.0224 40.3636 36.0444 40.3563 36.0737C40.2903 36.5945 40.1876 37.0492 40.0702 37.4599C39.9822 37.7679 39.8722 38.0467 39.7549 38.3034C39.6302 38.5821 39.4982 38.8461 39.3368 39.0955C39.0874 39.4915 38.8307 39.8802 38.4567 40.2616C38.3393 40.3496 38.31 40.511 38.3907 40.6357C38.4787 40.7604 38.64 40.7824 38.7647 40.7017C39.3221 40.4523 39.7842 40.1809 40.1876 39.8216C40.2243 39.7922 40.2609 39.7556 40.2976 39.7189C40.2023 40.1369 40.1069 40.533 39.9822 40.9144C39.8869 41.2224 39.7695 41.5158 39.6228 41.7872C39.4835 42.0439 39.3295 42.2932 39.1168 42.5206C38.8087 42.8433 38.464 43.1587 37.9286 43.4007C37.7819 43.4374 37.7013 43.5841 37.7379 43.7308C37.7746 43.8775 37.9213 43.9581 38.0606 43.9214C38.7354 43.8701 39.2561 43.7088 39.7109 43.4594C39.9236 43.3421 40.1069 43.1954 40.2756 43.0413C40.1803 43.4374 40.0776 43.8188 39.9382 44.1782C39.8209 44.4862 39.6889 44.7796 39.5128 45.0436C39.3515 45.293 39.1681 45.535 38.9188 45.7404C38.5667 46.0337 38.1633 46.3051 37.5766 46.4811C37.4299 46.4958 37.3272 46.6352 37.3419 46.7819C37.3565 46.9285 37.4959 47.0312 37.6426 47.0165C38.3467 47.0532 38.9114 46.9432 39.4028 46.7452C39.6669 46.6352 39.8942 46.4811 40.1069 46.3124C40.1949 46.2391 40.2829 46.1584 40.3563 46.0777V49.6716C40.2023 49.7376 40.0482 49.8109 39.8942 49.8769C36.7845 51.2778 33.484 52.8913 30.9757 54.1895V51.3218C31.0637 51.4172 31.159 51.5052 31.2617 51.5858C31.4744 51.7619 31.7018 51.9159 31.9731 52.0259C32.4719 52.2313 33.0513 52.3413 33.7701 52.3046C33.9167 52.3193 34.0488 52.2166 34.0708 52.0699C34.0854 51.9232 33.9827 51.7912 33.8361 51.7692C33.2273 51.5932 32.8166 51.3145 32.4572 51.0138C32.2005 50.8011 32.0171 50.559 31.8411 50.3023C31.6651 50.031 31.5184 49.7303 31.4011 49.4149C31.2544 49.0262 31.1444 48.6154 31.049 48.1974C31.225 48.3734 31.4231 48.5347 31.6578 48.6668C32.1198 48.9161 32.6552 49.0922 33.3373 49.1435C33.484 49.1802 33.6307 49.0922 33.6674 48.9528C33.704 48.8135 33.616 48.6668 33.4767 48.6301C32.9266 48.3807 32.5672 48.0654 32.2592 47.7353C32.0392 47.5006 31.8778 47.2513 31.7384 46.9872C31.5918 46.7085 31.4671 46.4078 31.3644 46.0924C31.2324 45.689 31.1297 45.2636 31.0343 44.8162C31.0784 44.8676 31.1297 44.9116 31.181 44.9556C31.5918 45.3223 32.0612 45.601 32.6332 45.8577C32.7579 45.9457 32.9193 45.9164 33.0073 45.7917C33.0953 45.6744 33.066 45.5057 32.9413 45.4177C32.5599 45.0289 32.2959 44.6329 32.0392 44.2295C31.8705 43.9728 31.7384 43.7014 31.6064 43.4154C31.4817 43.144 31.3717 42.8653 31.2837 42.5499C31.159 42.1319 31.0563 41.6625 30.9903 41.1271C30.9903 41.0977 30.9903 41.0757 30.9757 41.0464C30.9757 41.0171 30.961 40.995 30.9537 40.9657C30.917 40.8704 30.8657 40.7897 30.7996 40.7237C30.7336 40.6577 30.653 40.599 30.5576 40.5697C30.5283 40.5623 30.5063 40.555 30.4769 40.5477C30.4256 40.533 30.3743 40.533 30.3229 40.533C30.2716 40.533 30.2202 40.533 30.1689 40.5477C30.1396 40.5477 30.1176 40.5623 30.0882 40.5697C29.9929 40.6063 29.9122 40.6577 29.8462 40.7237C29.7802 40.7897 29.7288 40.8704 29.6922 40.9657C29.6848 40.995 29.6775 41.0171 29.6702 41.0464C29.6702 41.0757 29.6628 41.0977 29.6555 41.1271C29.5895 41.6625 29.4868 42.1319 29.3621 42.5499C29.2668 42.8653 29.1568 43.1514 29.0394 43.4154C28.9074 43.7014 28.768 43.9655 28.6067 44.2295C28.35 44.6402 28.0859 45.0289 27.7046 45.4177C27.5799 45.5057 27.5505 45.667 27.6385 45.7917C27.7266 45.9091 27.8879 45.9457 28.0126 45.8577C28.5773 45.601 29.0541 45.3223 29.4648 44.9556C29.5161 44.9116 29.5675 44.8676 29.6115 44.8162C29.5088 45.2563 29.4061 45.689 29.2814 46.0924C29.1788 46.4078 29.0614 46.7085 28.9074 46.9872C28.7607 47.2513 28.6067 47.5079 28.3867 47.7353C28.0713 48.0654 27.7192 48.3807 27.1692 48.6301C27.0225 48.6668 26.9418 48.8135 26.9785 48.9528C27.0151 49.0922 27.1618 49.1802 27.3012 49.1435C27.9833 49.0922 28.5187 48.9235 28.9807 48.6668C29.2154 48.5421 29.4135 48.3734 29.5895 48.1974C29.4941 48.6154 29.3768 49.0262 29.2374 49.4149C29.1201 49.7303 28.9807 50.031 28.7974 50.3023C28.6287 50.559 28.438 50.8011 28.1886 51.0138C27.8292 51.3145 27.4112 51.5932 26.8098 51.7692C26.6631 51.7839 26.5604 51.9232 26.5751 52.0699C26.5897 52.2166 26.7291 52.3193 26.8758 52.3046C27.5945 52.3413 28.1666 52.2313 28.6727 52.0259C28.9441 51.9159 29.1714 51.7619 29.3841 51.5858C29.4868 51.5052 29.5822 51.4098 29.6702 51.3218V54.8936C29.3475 55.0697 29.0467 55.231 28.768 55.385C26.6117 56.5805 24.4848 57.6073 22.3872 58.4948V54.0648C22.3872 54.0648 22.3945 54.0722 22.4018 54.0795C22.7245 54.4022 23.1059 54.6809 23.5753 54.8496C24.1254 55.0476 24.7562 55.1136 25.5263 55.0183C25.6729 55.0183 25.7976 54.9083 25.805 54.7616C25.805 54.6149 25.6949 54.4902 25.5483 54.4829C24.9248 54.3582 24.4774 54.1089 24.0814 53.8448C23.8027 53.6615 23.5827 53.4341 23.3846 53.1994C23.1793 52.95 23.0106 52.6713 22.8712 52.3633C22.6879 51.9672 22.5485 51.5418 22.4385 51.1018C22.5119 51.1751 22.5925 51.2485 22.6732 51.3218C22.8859 51.4978 23.1133 51.6518 23.3846 51.7619C23.8834 51.9672 24.4628 52.0772 25.1815 52.0406C25.3282 52.0552 25.4603 51.9525 25.4823 51.8059C25.4969 51.6592 25.3942 51.5272 25.2476 51.5052C24.6388 51.3291 24.2281 51.0504 23.8687 50.7497C23.612 50.537 23.4213 50.295 23.2526 50.0383C23.0766 49.7669 22.9299 49.4662 22.8126 49.1508C22.6659 48.7621 22.5559 48.3514 22.4532 47.9333C22.6365 48.1094 22.8272 48.2707 23.0619 48.4027C23.524 48.6594 24.0594 48.8281 24.7415 48.8795C24.8882 48.9161 25.0275 48.8281 25.0715 48.6888C25.1082 48.5421 25.0202 48.3954 24.8808 48.3587C24.3308 48.1094 23.9714 47.794 23.6633 47.4639C23.4433 47.2292 23.282 46.9799 23.1426 46.7159C22.9886 46.4371 22.8712 46.1364 22.7686 45.8211C22.6365 45.4177 22.5339 44.9923 22.4385 44.5449C22.4825 44.5962 22.5339 44.6402 22.5852 44.6842C22.9959 45.0509 23.4653 45.3297 24.0374 45.5864C24.1547 45.6744 24.3234 45.645 24.4114 45.5204C24.4995 45.3957 24.4701 45.2343 24.3454 45.1463C23.964 44.7576 23.7 44.3689 23.4433 43.9581C23.2746 43.7014 23.1426 43.43 23.0106 43.144C22.8859 42.8726 22.7759 42.5939 22.6879 42.2786C22.5632 41.8605 22.4605 41.3911 22.3945 40.8557C22.3945 40.8264 22.3872 40.797 22.3798 40.775C22.3798 40.7457 22.3652 40.7237 22.3578 40.6943C22.3212 40.599 22.2698 40.5183 22.2038 40.4523C22.1378 40.3863 22.0571 40.335 21.9618 40.2983C21.9324 40.291 21.9104 40.2836 21.8811 40.2763C21.8298 40.2616 21.7784 40.2543 21.7271 40.2543C21.6757 40.2543 21.6244 40.2543 21.5731 40.2763C21.5437 40.2763 21.5217 40.291 21.4924 40.2983C21.397 40.335 21.3163 40.3863 21.2503 40.4523C21.1843 40.5183 21.133 40.599 21.0963 40.6943C21.089 40.7237 21.0817 40.7457 21.0743 40.775C21.0743 40.8044 21.067 40.8264 21.0597 40.8557C20.9936 41.3911 20.891 41.8605 20.7663 42.2786C20.6709 42.5939 20.5609 42.88 20.4436 43.144C20.3116 43.43 20.1722 43.6941 20.0108 43.9581C19.7541 44.3689 19.4901 44.7576 19.1087 45.1463C18.984 45.2343 18.9547 45.3957 19.0427 45.5204C19.1307 45.6377 19.2921 45.6744 19.4168 45.5864C19.9815 45.3297 20.4509 45.0509 20.869 44.6842C20.9203 44.6402 20.9716 44.5889 21.0156 44.5449C20.913 44.9849 20.8103 45.4177 20.6783 45.8211C20.5756 46.1364 20.4582 46.4371 20.3042 46.7159C20.1575 46.9799 20.0035 47.2366 19.7835 47.4639C19.4681 47.794 19.1161 48.1167 18.566 48.3587C18.4193 48.3954 18.3386 48.5421 18.3753 48.6888C18.412 48.8281 18.5586 48.9161 18.698 48.8795C19.3801 48.8281 19.9155 48.6594 20.3776 48.4027C20.6123 48.2781 20.8103 48.1167 20.9863 47.9333C20.891 48.3514 20.7736 48.7621 20.6343 49.1508C20.5169 49.4662 20.3776 49.7669 20.1942 50.0383C20.0255 50.295 19.8348 50.537 19.5781 50.7497C19.2187 51.0504 18.8007 51.3291 18.1993 51.5052C18.0526 51.5198 17.9499 51.6592 17.9646 51.8059C17.9792 51.9525 18.1186 52.0552 18.2653 52.0406C18.984 52.0772 19.5561 51.9672 20.0622 51.7619C20.3336 51.6518 20.5609 51.4978 20.7736 51.3218C20.8543 51.2558 20.935 51.1824 21.0083 51.1018C20.8983 51.5418 20.7589 51.9746 20.5756 52.3633C20.4362 52.664 20.2675 52.9427 20.0622 53.1994C19.8642 53.4414 19.6441 53.6615 19.3654 53.8448C18.9694 54.1089 18.5146 54.3509 17.8986 54.4829C17.7519 54.4829 17.6345 54.6149 17.6418 54.7616C17.6418 54.9083 17.7739 55.0256 17.9206 55.0183C18.6907 55.1136 19.3214 55.0476 19.8715 54.8496C20.3409 54.6809 20.7149 54.4022 21.045 54.0795L21.0597 54.0648V59.0449C18.5953 60.0203 16.1603 60.8051 13.7326 61.4432C13.5493 61.4945 13.3659 61.5312 13.1826 61.5899C12.9039 61.6706 12.6325 61.7586 12.3611 61.8539C11.6717 62.0886 11.0043 62.3453 10.3149 62.58C10.1755 62.6093 10.0802 62.7413 10.1095 62.888C10.1388 63.0274 10.2708 63.1227 10.4102 63.0934C11.173 63.0421 11.9211 63.0054 12.6765 62.9027C12.9992 62.8587 13.3146 62.8 13.6373 62.734C15.1995 62.404 16.7544 61.9346 18.3166 61.4285C19.4021 61.0765 20.4949 60.6878 21.5877 60.2624C21.6684 60.233 22.2625 59.991 22.3432 59.9617C24.6755 59.0155 27.0298 57.8934 29.4281 56.5732C29.7802 56.3751 30.1762 56.1625 30.6016 55.9351C30.6456 55.9131 30.6896 55.8911 30.7263 55.8691C33.2933 54.5122 37.0118 52.686 40.4956 51.1165C43.5174 49.7596 46.3484 48.5934 48.0793 48.124C51.0131 47.3246 53.6608 46.6352 56.0151 46.0924C56.0664 46.0778 56.1178 46.0704 56.1764 46.0557C56.2351 46.0557 56.2938 46.0337 56.3451 46.0191C58.1934 45.601 59.8583 45.2783 61.3325 45.0803C62.0219 44.9849 62.6673 44.9189 63.2614 44.8676C63.8335 44.8162 64.3689 44.8016 64.8456 44.7649C65.0877 44.7502 65.3077 44.7282 65.5204 44.7062C66.9726 44.5449 67.7867 44.4715 67.7867 44.4715C67.9261 44.4862 68.0581 44.3835 68.0727 44.2442C68.0874 44.1048 67.9847 43.9728 67.8454 43.9581C67.8454 43.9581 67.3906 43.8261 66.5105 43.6868C66.1365 43.6281 65.6891 43.5694 65.1683 43.5401C65.0363 43.5327 64.9043 43.5254 64.7649 43.5254C64.2442 43.5254 63.6648 43.5474 63.034 43.5988V41.3838C63.034 41.3838 63.0487 41.3911 63.056 41.3985C63.2394 41.5451 63.4301 41.6698 63.6648 41.7578C64.0902 41.9192 64.5596 41.9999 65.161 41.9485C65.3077 41.9632 65.4397 41.8605 65.4617 41.7138C65.4764 41.5671 65.3737 41.4351 65.227 41.4131C64.831 41.2811 64.5523 41.0904 64.3029 40.8924C64.2002 40.8117 64.1195 40.7164 64.0389 40.6283C63.9068 40.4963 63.8115 40.3496 63.7161 40.203C63.5768 39.9903 63.4741 39.7556 63.3788 39.5135C63.3054 39.3155 63.2467 39.1175 63.1881 38.9048C63.2541 38.9488 63.3274 38.9928 63.4008 39.0295C63.7968 39.2275 64.2369 39.3595 64.809 39.3815C64.9556 39.4182 65.095 39.3302 65.1317 39.1908C65.1683 39.0441 65.0803 38.9048 64.941 38.8608C64.5889 38.6774 64.3469 38.4647 64.1269 38.2447C64.0389 38.1567 63.9728 38.054 63.8995 37.9587C63.7895 37.8193 63.7088 37.6653 63.6208 37.5112C63.5034 37.2912 63.4154 37.0565 63.3348 36.8145C63.2687 36.5945 63.2027 36.3744 63.1441 36.1397C63.4521 36.3671 63.7968 36.5431 64.2002 36.7118C64.3249 36.7925 64.4863 36.7705 64.5743 36.6458C64.6623 36.5285 64.6329 36.3598 64.5083 36.2717C64.2149 35.9417 64.0315 35.619 63.8262 35.2816C63.7015 35.0762 63.6061 34.8636 63.5034 34.6362C63.4081 34.4235 63.3274 34.2035 63.2541 33.9541C63.1587 33.624 63.0707 33.25 63.0194 32.8246C63.0194 32.7953 63.012 32.7733 63.0047 32.7439C63.0047 32.7146 62.99 32.6926 62.9827 32.6633C62.946 32.5753 62.8947 32.4872 62.8287 32.4212C62.7627 32.3552 62.682 32.2965 62.5867 32.2672C62.5646 32.2599 62.5353 32.2525 62.506 32.2452C62.4546 32.2305 62.4033 32.2305 62.352 32.2305H62.308ZM46.1357 60.8784L46.0037 63.0494L47.3239 63.2694C46.8472 62.5287 46.4585 61.7292 46.1357 60.8711V60.8784ZM46.6271 52.642L46.4291 55.8838C46.7005 58.9495 47.5219 61.5899 49.2235 63.5995L51.0717 63.9149C49.3922 60.5851 48.3654 56.7859 46.6198 52.642H46.6271ZM47.1112 50.4123C49.4509 55.4877 50.4923 60.0863 52.634 63.9882C55.355 63.0347 67.5887 58.7588 67.5887 58.7588C67.1119 58.0474 66.2832 56.8372 65.1683 55.297C63.6355 53.1847 61.9192 49.5322 61.3325 48.234L47.1112 50.4123ZM24.6388 65.213C24.8148 65.235 24.8002 64.883 24.8222 64.531C24.8222 64.4283 24.8222 64.3256 24.8075 64.1936C24.7928 64.0689 24.7635 63.9369 24.7121 63.7975C24.6681 63.6802 24.5948 63.5628 24.5215 63.4381C24.3601 63.2401 24.1841 63.0347 23.9787 62.844C23.6047 62.5066 23.0106 62.0006 22.8712 62.1179C22.8052 62.1693 22.9079 62.4626 22.9446 62.5287C23.0693 62.8 23.59 63.9662 23.59 63.9662C23.634 64.0469 23.6633 64.1349 23.7073 64.2082C23.7587 64.2889 23.81 64.3623 23.8614 64.4356C23.942 64.5383 24.0154 64.619 24.0814 64.6996C24.3308 64.9857 24.4995 65.191 24.6388 65.213ZM25.4823 65.213C25.5556 65.2424 25.8856 64.861 26.047 64.663C26.113 64.575 26.1717 64.4943 26.223 64.3916C26.2524 64.3329 26.2817 64.2669 26.2964 64.2009C26.333 64.0762 26.3477 63.9442 26.3624 63.8122C26.3844 63.6728 26.3917 63.5408 26.399 63.4161C26.4357 63.0347 26.5311 62.4993 26.4724 62.4406C26.4137 62.3893 26.3184 62.3893 26.267 62.4553C26.1423 62.536 25.871 62.8367 25.5776 63.2768C25.4529 63.4601 25.3356 63.6508 25.2549 63.8635C25.2256 63.9368 25.2109 64.0102 25.2035 64.0835C25.1889 64.2082 25.1889 64.3182 25.2035 64.4283C25.2402 64.707 25.2842 65.1177 25.4896 65.2057L25.4823 65.213ZM46.0331 49.2168C45.9891 49.2168 45.945 49.2315 45.901 49.2535C45.8277 49.2829 45.7617 49.3195 45.703 49.3635C45.6517 49.4075 45.6003 49.4589 45.5637 49.5175C45.549 49.5396 45.5343 49.5689 45.5197 49.5909C43.7227 53.126 40.0702 58.7295 37.7233 62.0446C37.5912 62.2353 37.5619 62.4773 37.6499 62.69C37.7379 62.9027 37.9286 63.0567 38.1633 63.0934L52.2232 65.4697C52.3259 65.4917 52.4359 65.4844 52.5386 65.4477H52.5606L68.8649 59.7416C69.0629 59.6756 69.2096 59.5216 69.2756 59.3236C69.3416 59.1255 69.3196 58.9128 69.2022 58.7442C69.2022 58.7442 68.1314 57.0866 66.2685 54.5122C64.4496 52.0039 62.3593 47.2219 62.3593 47.2219C62.2346 46.9432 61.9412 46.7819 61.6405 46.8259L46.0331 49.2168ZM61.4938 65.6311C61.4938 65.7705 61.9852 66.0345 62.418 66.1885C62.506 66.2178 62.5867 66.2398 62.682 66.2618C62.7407 66.2692 62.7994 66.2839 62.858 66.2765C62.9167 66.2765 62.9754 66.2618 63.034 66.2472C63.1294 66.2252 63.2101 66.1958 63.2981 66.1592C63.7161 65.9831 64.2076 65.7118 64.2002 65.5798C64.1855 65.2937 63.7088 65.191 63.2834 65.0297C63.1954 65.0003 63.1147 64.971 63.0194 64.949C62.9607 64.9343 62.902 64.927 62.8434 64.927C62.7847 64.927 62.726 64.9343 62.6673 64.949C62.572 64.971 62.4913 64.993 62.4033 65.0297C61.9779 65.2057 61.5012 65.4844 61.5012 65.6238L61.4938 65.6311ZM15.5662 66.6212C15.5662 66.7606 16.0503 67.0246 16.4904 67.1786C16.5784 67.208 16.6591 67.23 16.7544 67.252C16.8131 67.2593 16.8717 67.274 16.9304 67.2666C16.9891 67.2666 17.0478 67.252 17.1064 67.2373C17.2018 67.2153 17.2825 67.186 17.3705 67.1493C17.7885 66.9733 18.2726 66.7972 18.2726 66.5699C18.2726 66.3425 17.7812 66.1812 17.3485 66.0198C17.2605 65.9905 17.1798 65.9611 17.0844 65.9391C17.0258 65.9245 16.9671 65.9171 16.9084 65.9171C16.8497 65.9171 16.7911 65.9245 16.7324 65.9391C16.6371 65.9611 16.5564 65.9831 16.4684 66.0198C16.043 66.1958 15.5662 66.4745 15.5662 66.6139V66.6212ZM29.9489 64.8683C30.1249 65.2644 30.4183 65.5871 30.8877 65.7851C31.5184 66.0491 32.2372 65.9025 32.7873 65.4257C33.3813 64.9123 33.7701 64.0175 33.5207 62.9981C33.5134 62.9541 33.4987 62.9101 33.484 62.866C33.5134 62.9101 33.5427 62.9541 33.572 62.9981C33.9021 63.5261 34.0634 64.0249 34.1221 64.4649C34.2394 65.323 33.9681 65.9171 33.9681 65.9171C33.8581 66.1518 33.8874 66.4305 34.0488 66.6286C34.2101 66.8339 34.4742 66.9292 34.7235 66.8779C35.3983 66.7386 35.9263 66.3352 36.2637 65.7265C36.3004 65.9538 36.3151 66.1812 36.3004 66.4159C36.2711 67.1126 36.0437 67.7947 35.3396 68.3375C35.2149 68.4182 35.1782 68.5795 35.2516 68.6969C35.3249 68.8215 35.4936 68.8582 35.611 68.7849C36.6524 68.2715 37.1292 67.4427 37.3199 66.5479C37.4739 65.8365 37.4079 65.081 37.2612 64.4209C37.0192 63.3061 36.5131 62.4773 36.5131 62.4773C36.3517 62.1986 35.5596 61.2232 35.2589 61.3332C34.9509 61.4432 35.2223 62.602 35.2736 62.9174C35.3176 63.2034 35.3396 63.4748 35.3396 63.7242C35.2223 63.2694 35.0169 62.778 34.7015 62.2793C34.3568 61.7366 33.8947 61.4358 33.4327 60.7244C33.2566 60.453 33.0806 60.1157 32.9119 59.6683C32.8093 59.3969 32.6259 58.5461 32.3399 58.5608C32.0465 58.5755 31.7164 59.4409 31.6358 59.7196C31.4524 60.343 31.4231 60.8711 31.4744 61.3258C31.5331 61.8979 31.7164 62.3526 31.9071 62.7267C32.0318 62.9687 32.1638 63.1594 32.2005 63.3208C32.2885 63.6948 32.2005 64.0322 32.0171 64.2742C31.8558 64.4796 31.6211 64.6409 31.4084 64.5456C31.1737 64.4429 31.1224 64.2156 31.1004 63.9809C31.0637 63.5702 31.1517 63.1227 31.225 62.7707C31.2837 62.4773 31.3277 61.5605 31.0637 61.4212C30.7996 61.2818 30.2862 61.9566 30.0809 62.1693C30.0809 62.1693 28.5113 63.8122 28.482 65.6457C28.482 66.0565 28.5333 66.4745 28.7167 66.8779C29.0247 67.56 29.6042 68.2128 30.675 68.6895C30.7996 68.7629 30.961 68.7262 31.0343 68.6015C31.1077 68.4768 31.071 68.3155 30.9463 68.2421C30.1102 67.5967 29.8022 66.9146 29.7362 66.2618C29.7215 66.0858 29.7362 65.9171 29.7508 65.7484C29.7802 65.4771 29.8388 65.2057 29.9269 64.9563L29.9489 64.8903V64.8683ZM46.8692 68.3888C46.8692 68.0514 46.3191 67.9707 46.1431 67.8974C46.0331 67.8534 45.9377 67.8167 45.8204 67.7874C45.6883 67.7507 45.571 67.7214 45.4463 67.7067C45.329 67.692 45.2116 67.6994 45.1016 67.6847C44.7495 67.7067 44.4782 67.714 44.2435 67.7654C43.7594 67.8681 43.488 68.0074 43.07 68.1247C42.9306 68.1247 42.828 68.2495 42.828 68.3815C42.828 68.5208 42.9526 68.6308 43.0847 68.6235C43.444 68.6968 43.7007 68.7262 44.0675 68.7849C44.3095 68.8215 44.5735 68.8875 44.9476 68.9975C45.0649 69.0122 45.1896 69.0342 45.3143 69.0342C45.4316 69.0342 45.5417 69.0195 45.659 68.9975C45.791 68.9682 45.9157 68.9315 46.0477 68.8802C46.2531 68.7995 46.8692 68.6015 46.8692 68.3888ZM19.9008 71.6966C19.9228 71.9313 20.6196 72.1073 20.847 72.1733C20.9863 72.21 21.1037 72.2393 21.2283 72.254C21.3163 72.2613 21.397 72.2687 21.4777 72.2687C21.7784 72.254 22.0058 72.21 22.2331 72.1807C22.5559 72.144 22.8272 72.1 23.1939 72.0046C23.282 71.9826 23.722 71.7993 23.722 71.6672C23.7147 71.4325 23.1793 71.3665 23.0619 71.3298C22.7906 71.2492 22.5779 71.1612 22.3212 71.0879C22.0791 71.0218 21.8224 70.9411 21.485 70.9265C21.397 70.9265 21.3017 70.9265 21.199 70.9485C21.067 70.9705 20.935 70.9998 20.7809 71.0658C20.5536 71.1612 19.8715 71.3665 19.9082 71.7039L19.9008 71.6966ZM50.8664 72.386C50.8664 72.6207 51.5852 72.7967 51.8125 72.8627C51.9519 72.8994 52.0692 72.9287 52.1939 72.9434C52.2819 72.9508 52.3626 72.9581 52.4433 72.9581C52.744 72.9434 52.9713 72.8994 53.1987 72.8701C53.6021 72.8187 53.9248 72.7674 54.4455 72.6134C54.5849 72.6134 54.6876 72.4887 54.6876 72.3567C54.6876 72.2173 54.5629 72.1146 54.4309 72.1146C53.9395 72.0119 53.6608 71.88 53.2941 71.7773C53.052 71.7113 52.7953 71.6306 52.4579 71.6159C52.3699 71.6159 52.2746 71.6159 52.1719 71.6379C52.0399 71.6599 51.9079 71.6892 51.7612 71.7553C51.5338 71.8506 50.8884 72.0633 50.8884 72.3933L50.8664 72.386ZM33.6527 70.4351L27.2572 72.7821C27.2278 72.8774 27.2645 72.9874 27.3598 73.0388C27.4332 73.0828 27.5285 73.0828 27.6459 73.0534L33.704 70.5158C33.704 70.5158 33.6894 70.4791 33.682 70.4644C33.6747 70.4497 33.66 70.4351 33.6454 70.4277L33.6527 70.4351ZM34.2321 71.7553L33.9754 71.8653C35.0682 72.7087 36.7551 74.0142 36.7551 74.0142C36.8578 74.0656 36.9532 74.0876 37.0338 74.0729C37.1365 74.0509 37.2025 73.9555 37.2025 73.8529L34.2321 71.7626V71.7553ZM26.5751 71.5939C26.4944 71.6306 26.4137 71.6819 26.355 71.7406C25.7023 72.4007 25.7903 73.3908 26.377 73.9629C26.7438 74.3223 27.3158 74.535 28.0346 74.337C28.0639 74.3296 28.0933 74.3223 28.1153 74.3076L32.5526 72.452L35.9777 75.0997C35.9777 75.0997 36.0217 75.1364 36.051 75.1511C36.6965 75.5324 37.3052 75.4665 37.7526 75.2171C38.4714 74.8137 38.8087 73.8822 38.3467 73.0754C38.2953 72.9874 38.2293 72.9141 38.1487 72.8554L36.8651 71.9533L37.6279 72.21C37.6719 72.2246 37.7233 72.232 37.7673 72.2393C38.618 72.3273 39.1828 71.9093 39.4322 71.3885C39.7255 70.7725 39.6008 69.9804 38.9554 69.5256C38.8747 69.467 38.7867 69.4303 38.6914 69.4083C38.6914 69.4083 38.354 69.3423 37.8846 69.2836C37.6353 69.2542 37.3565 69.2249 37.0705 69.2029C36.7845 69.1809 36.4984 69.1809 36.2491 69.1809C35.7577 69.1809 35.4129 69.2029 35.4129 69.2029C35.2883 69.1809 35.1709 69.2616 35.1489 69.3863C35.1269 69.511 35.2076 69.6283 35.3323 69.6503C35.3323 69.6503 35.6403 69.797 36.095 69.9877C36.3297 70.083 36.5938 70.1857 36.8651 70.2737C37.1365 70.3617 37.4079 70.4424 37.6499 70.5084C37.8846 70.5744 38.09 70.6184 38.2293 70.6551C38.2513 70.7138 38.2293 70.7871 38.1927 70.8311C38.1487 70.8825 38.068 70.8971 37.98 70.8898C37.98 70.8898 35.7063 70.1344 34.8849 69.863C34.6135 69.3569 34.0634 68.9829 33.396 69.1002C33.3593 69.1002 33.3227 69.1149 33.286 69.1296L31.6944 69.7163L27.5065 70.4864C27.4112 70.4864 27.3378 70.4571 27.2938 70.3984C27.2572 70.3544 27.2498 70.2884 27.2718 70.2297C27.5065 70.2077 27.9099 70.1637 28.372 70.0977C28.6507 70.061 28.9441 70.0097 29.2448 69.951C29.6262 69.8776 30.0002 69.797 30.3302 69.7163C30.9683 69.5623 31.4084 69.4229 31.4084 69.4229C31.5331 69.4156 31.6284 69.2982 31.6138 69.1736C31.6064 69.0489 31.4891 68.9536 31.3644 68.9682C31.3644 68.9682 30.9023 68.9095 30.2496 68.8729C29.9049 68.8509 29.5308 68.8362 29.1421 68.8289C28.8414 68.8289 28.5333 68.8289 28.2546 68.8435C27.5139 68.8729 26.9344 68.9316 26.9344 68.9316C26.8391 68.9389 26.7438 68.9682 26.6558 69.0196C25.9737 69.4083 25.761 70.1857 25.9957 70.8311C26.0983 71.1245 26.2964 71.3959 26.5824 71.5866L26.5751 71.5939ZM40.2829 75.3931C40.2829 75.6058 40.833 75.7965 41.3244 75.9505C41.4271 75.9799 41.5224 76.0018 41.6398 76.0165C41.7058 76.0238 41.7791 76.0385 41.8451 76.0312C41.9185 76.0312 41.9845 76.0165 42.0505 76.0018C42.1605 75.9798 42.2559 75.9505 42.3586 75.9138C42.8353 75.7451 42.8353 75.7452 43.1287 75.5838C43.2313 75.5251 43.378 75.4664 43.3707 75.3271C43.3707 75.1877 42.8133 74.931 42.3292 74.7843C42.2265 74.755 42.1312 74.7257 42.0139 74.7037C41.9478 74.689 41.8745 74.6816 41.8085 74.6816C41.7425 74.6816 41.6691 74.6963 41.6031 74.7037C41.4931 74.7257 41.3904 74.7477 41.2951 74.7843C40.811 74.953 40.2756 75.107 40.2756 75.3784L40.2829 75.3931Z" fill="#9C9C9C"/>
</svg>
