<svg width="50" height="63" viewBox="0 0 50 63" fill="none" xmlns="http://www.w3.org/2000/svg">
<path d="M25.492 26.3787C26.3059 25.2529 26.9569 24.0457 27.8928 23.1369C29.9952 21.0888 30.0495 18.8033 29.1136 16.2736C28.6795 15.1071 28.1844 13.9407 27.9335 12.7335C27.5334 10.8142 27.9878 8.90849 28.4828 7.06381C28.8762 5.6057 29.3916 4.16116 30.0698 2.81835C30.9515 1.05506 32.0773 0.600666 34.0304 0.844814C34.2136 0.86516 34.4374 0.804126 34.6069 0.715962C35.4343 0.275138 36.3092 0.0581182 37.2518 0.112373C38.1877 0.159847 38.9134 0.776994 38.9066 1.7129C38.9066 2.35718 38.7506 3.02859 38.5404 3.64574C38.0385 5.07672 37.4214 6.46701 36.9263 7.89799C36.438 9.30862 36.5397 10.7464 37.123 12.1163C37.7266 13.5337 38.3709 14.9308 39.083 16.294C40.4258 18.8643 40.7174 21.6042 40.4936 24.4255C40.3376 26.3515 39.7815 28.1759 38.9338 29.9188C38.7845 30.224 38.7778 30.6648 38.8727 30.9971C39.4695 33.0724 40.0528 35.1544 40.7581 37.1958C41.8161 40.2476 42.6028 43.3266 42.4536 46.5955C42.3315 49.2879 41.5448 51.7429 40.0731 53.9877C39.9849 54.1234 39.9036 54.2658 39.7883 54.4489C40.8056 54.5303 41.7889 54.5235 42.7384 54.6998C43.9591 54.9304 45.1934 55.1949 46.3396 55.6493C47.8519 56.2597 48.6997 57.4465 48.6658 59.1556C48.6658 59.3387 48.8082 59.5285 48.8692 59.7184C49.0184 60.2067 49.2558 60.695 49.2829 61.1901C49.344 62.2549 48.6251 62.9398 47.5468 62.9398C42.813 62.9398 38.086 62.9398 33.3523 62.9398C24.997 62.9398 16.6349 62.9263 8.27959 62.9534C6.36031 62.9534 4.75978 62.2956 3.478 60.9392C2.75912 60.1796 2.18266 59.2641 1.64689 58.3553C1.23998 57.6635 0.928013 56.8972 0.683865 56.1308C0.0870582 54.2251 0.656734 53.3774 2.29117 52.9433C3.87813 52.5229 5.47188 52.0888 7.09275 51.8311C8.82214 51.5598 10.131 50.7663 11.0669 49.3218C12.186 47.5992 13.7933 46.5887 15.7939 46.2496C16.8587 46.0733 17.8149 45.8698 18.683 45.0967C19.6053 44.2761 20.8329 44.371 21.9519 44.7779C22.6097 45.0221 23.0438 44.8254 23.5049 44.3981C24.8003 43.2045 25.2411 41.6447 25.2479 39.9967C25.2479 38.0639 24.9834 36.1378 24.9631 34.205C24.9563 33.1945 24.4205 32.7197 23.6745 32.2857C21.4636 31.0107 18.839 31.2481 16.8112 32.9571C14.9055 34.5644 13.956 36.7007 13.522 39.1015C13.4745 39.3456 13.4474 39.5966 13.4135 39.8407C13.3117 40.4782 12.8845 40.8851 12.2945 40.9055C11.718 40.9258 11.2297 40.546 11.1212 39.9085C10.7007 37.4874 10.9516 35.1205 11.9011 32.8621C13.4813 29.105 16.1601 26.5957 20.27 25.8361C21.8705 25.5377 23.4642 25.6937 25.0173 26.2227C25.214 26.2905 25.4039 26.3447 25.492 26.3719V26.3787ZM37.7605 31.8991C37.2722 32.4417 36.7635 33.052 36.1939 33.5878C36.0311 33.7438 35.5835 33.798 35.4004 33.6827C35.0409 33.4657 35.1698 33.1131 35.4343 32.835C35.4953 32.774 35.5631 32.7197 35.6038 32.6519C36.4177 31.4786 37.4146 30.3867 38.0114 29.105C39.9646 24.8866 40.0392 20.6276 37.8893 16.4093C37.3061 15.2631 36.7296 14.1034 36.221 12.9166C35.475 11.1804 35.2444 9.37644 35.848 7.55211C36.2956 6.20929 36.8449 4.90718 37.3536 3.58471C37.4892 3.23883 37.6723 2.89973 37.7605 2.54029C38.025 1.4484 37.6316 1.04827 36.5194 1.21104C34.9257 1.44162 33.9287 2.45891 33.1895 3.78138C32.1654 5.62605 31.711 7.65384 31.2906 9.69519C30.9175 11.506 30.9447 13.2286 31.7856 14.9783C32.769 17.0128 32.4977 19.1017 31.2499 20.9803C30.7141 21.7873 30.0495 22.5265 29.3509 23.2115C27.5537 24.968 26.1838 27.0026 26.0142 29.539C25.8854 31.4786 26.1024 33.4454 26.2516 35.3918C26.4144 37.4535 26.5297 39.5016 26.1702 41.5565C25.8922 43.1231 25.1869 44.4456 23.8915 45.5172C24.9563 46.0122 25.9329 46.4734 26.9162 46.9142C27.8114 47.3144 28.3676 47.9925 28.415 48.9691C28.4489 49.5795 28.4354 50.2509 28.2116 50.807C27.2011 53.3299 25.2818 55.0254 22.8946 56.1783C21.6738 56.7683 20.6769 56.1986 20.4124 54.8762C20.1682 53.6622 20.053 52.4143 19.8698 51.1868C19.7206 50.1899 19.5375 49.1997 18.6491 48.5487C18.2964 48.2842 18.0252 47.9993 18.3575 47.5721C18.6694 47.1652 19.0425 47.2872 19.3951 47.5517C20.2632 48.196 20.7447 49.0912 20.9278 50.1221C21.1177 51.1868 21.2262 52.2651 21.3212 53.3435C21.4365 54.6456 21.701 54.8558 22.7318 54.0827C23.8373 53.2553 24.8478 52.2787 25.804 51.275C26.394 50.6578 26.6653 49.8237 26.6789 48.9217C26.6857 48.3249 26.5093 47.9722 25.9125 47.7552C25.1529 47.4703 24.4544 47.0431 23.7084 46.7243C22.9081 46.3785 22.1011 46.0326 21.2669 45.7952C20.1547 45.4697 19.1984 45.8223 18.5135 46.7582C18.249 47.1245 17.9438 47.2194 17.5097 47.2262C15.2514 47.2872 13.3389 48.0129 11.9961 49.9796C10.911 51.5598 9.45285 52.6381 7.45897 52.8823C6.39421 53.0179 5.3498 53.296 4.36643 53.4927C4.70552 55.3713 3.85101 56.5649 2.47428 57.4804C3.5187 60.3559 5.95339 62.0039 8.80857 61.8005C11.1755 61.6377 12.8302 60.2203 13.1286 58.0908C12.9862 58.0908 12.8235 58.1315 12.7082 58.0772C12.5725 58.0162 12.3894 57.8873 12.3826 57.772C12.3691 57.6228 12.464 57.399 12.5861 57.3109C13.3592 56.7683 14.9598 57.3923 15.1564 58.3214C15.1903 58.4841 15.0954 58.7351 14.9733 58.8436C14.8851 58.9182 14.6342 58.8504 14.4782 58.7825C14.3969 58.7419 14.3765 58.5723 14.3223 58.4502C13.9899 59.1895 13.7729 59.8066 13.4406 60.3492C13.1151 60.8849 12.6743 61.3393 12.308 61.8005C15.0004 61.8005 17.7268 61.8547 20.4531 61.7733C21.545 61.7394 22.5419 61.224 23.3964 60.5051C24.1424 59.8744 24.6172 59.0877 24.6443 58.084C24.6579 57.6974 24.7664 57.399 25.1868 57.399C25.6548 57.399 25.8108 57.7449 25.7362 58.1315C25.6209 58.7418 25.5463 59.3997 25.2479 59.9151C24.841 60.6272 24.2442 61.2308 23.7559 61.8412H33.2505C32.83 61.3122 32.4435 60.8239 32.0094 60.2813H41.3278C41.3481 60.3492 41.3684 60.4238 41.3888 60.4916C40.5478 60.946 39.7137 61.3936 38.8185 61.8751C41.7482 61.8751 44.617 61.8751 47.4857 61.8751C48.0079 61.8751 48.2996 61.5563 48.1571 61.068C48.0283 60.6272 47.818 60.1321 47.4857 59.8609C46.9432 59.4268 46.2989 59.0945 45.6478 58.8368C43.8371 58.1247 41.9042 58.1315 39.9985 57.9687C38.5879 57.8466 37.1637 57.8263 35.7802 57.5686C34.0033 57.2363 32.3553 56.5377 31.1414 55.0796C30.904 54.7948 30.7751 54.4896 31.0939 54.2048C31.4126 53.9199 31.6975 54.0556 31.9552 54.3404C33.0539 55.5137 34.4848 56.0698 36.004 56.4089C36.221 56.4564 36.5533 56.3614 36.7093 56.2122C38.8795 54.1573 40.4258 51.7294 41.0226 48.7657C41.6533 45.6392 41.2667 42.5806 40.3105 39.583C39.4899 37.0127 38.5879 34.4627 37.7266 31.9127L37.7605 31.8991ZM25.1665 27.5316C23.2947 26.7991 21.4297 26.6296 19.5918 27.1314C15.8482 28.1623 13.6508 30.8004 12.5318 34.4084C11.9622 36.2395 11.8808 38.4911 12.2538 39.7186C12.2809 39.6915 12.3284 39.6712 12.3352 39.644C12.3623 39.5016 12.3758 39.3592 12.3962 39.2168C12.7963 36.4972 13.8611 34.11 15.9296 32.2314C16.133 32.0483 16.2347 31.7499 16.3839 31.5125C16.7298 30.9768 16.9604 30.2782 17.4487 29.9459C18.9475 28.9015 20.643 28.3318 22.4944 28.3861C23.2744 28.4064 24.0543 28.5014 24.8749 28.5624C24.963 28.2505 25.0444 27.9385 25.1597 27.5384L25.1665 27.5316ZM30.8836 19.1356C30.9379 18.9864 30.9989 18.844 31.0328 18.688C31.3787 17.2773 31.0193 15.9956 30.4699 14.6934C30.158 13.9474 29.9342 13.0997 29.9342 12.2994C29.9274 9.83761 30.5378 7.47073 31.3787 5.18523C31.7992 4.03909 32.4367 2.97433 32.9589 1.90958C32.1858 1.94349 31.6636 2.13338 31.2363 3.00146C30.592 4.31715 30.0088 5.68709 29.6019 7.09094C28.8016 9.85796 28.5032 12.6318 29.9003 15.3581C30.4971 16.5178 30.904 17.7724 30.8836 19.1356ZM38.1131 56.6191C41.3006 56.7548 44.4678 56.9718 47.4654 58.2942C47.2823 57.9077 47.1195 57.4736 46.8075 57.2634C46.1768 56.8429 45.4986 56.4564 44.7865 56.2054C43.2199 55.6561 41.5516 55.7849 39.9239 55.6425C39.0558 55.5679 38.5133 55.8731 38.1064 56.6123L38.1131 56.6191Z" fill="#9C9C9C"/>
<path d="M14.6681 53.9606C13.5016 53.947 12.525 53.1196 12.2944 51.9667C12.213 51.5598 12.3148 51.2478 12.7285 51.1393C13.1489 51.0308 13.4134 51.2546 13.5016 51.6548C13.644 52.3058 14.0238 52.6856 14.6884 52.7331C15.2649 52.7738 15.7261 52.4211 15.9092 51.7904C16.0448 51.336 16.255 50.9766 16.7705 51.1529C17.2859 51.3292 17.2249 51.77 17.096 52.1973C16.7637 53.296 15.8278 53.9742 14.6681 53.9606Z" fill="#9C9C9C"/>
</svg>
