<svg width="72" height="75" viewBox="0 0 72 75" fill="none" xmlns="http://www.w3.org/2000/svg">
<path d="M1.35231 51.4536C0.850273 51.5131 0.4143 51.8037 0.632288 51.9425C0.817247 52.0614 0.909737 52.0415 1.38535 51.8302C1.96004 51.5725 1.94683 51.3876 1.35892 51.4536H1.35231Z" fill="#9C9C9C"/>
<path d="M54.7457 49.5313C55.6705 50.0796 57.5994 51.4668 59.297 52.8078C59.6604 53.0918 59.9972 53.3296 60.0435 53.3296C60.0897 53.3296 60.3341 53.4882 60.5785 53.6731C60.823 53.8647 61.041 54.0166 61.0674 54.0232C61.1136 54.0232 60.9286 53.792 60.453 53.2305C59.9444 52.636 56.4236 49.8286 55.5186 49.2869C54.64 48.7651 53.3189 48.1772 53.2264 48.2697C53.0943 48.4018 53.7483 48.9368 54.7457 49.5247V49.5313Z" fill="#9C9C9C"/>
<path d="M49.9438 45.3367C49.1115 44.5573 47.4931 43.388 46.2447 42.668C45.8483 42.4434 45.3991 42.1396 45.234 42.0075C44.9367 41.7564 44.7188 41.6838 44.7188 41.8423C44.7188 42.1528 45.4916 42.9521 46.8061 44.0024C48.0282 44.9734 48.6293 45.3698 50.0297 46.1228C50.9809 46.6315 51.7736 47.0476 51.8001 47.0476C51.8265 47.0476 51.6019 46.8362 51.298 46.5786C50.9942 46.321 50.3864 45.7661 49.9438 45.3499V45.3367Z" fill="#9C9C9C"/>
<path d="M6.51821 58.9181C6.33325 58.9181 6.10205 59.0964 6.10205 59.2351C6.10205 59.3474 6.28042 59.3342 6.50501 59.2087C6.74942 59.0766 6.75602 58.9114 6.51821 58.9114V58.9181Z" fill="#9C9C9C"/>
<path d="M13.1761 29.668C13.2554 29.668 12.9383 29.4368 12.4759 29.1462C12.0135 28.8555 11.3661 28.4328 11.0358 28.2082C10.3356 27.7326 8.51245 26.8078 5.83053 25.5725C3.78937 24.6345 3.40625 24.4892 3.40625 24.6741C3.40625 24.8063 4.01396 25.2026 7.02616 27.0192C9.66844 28.6177 9.79396 28.6772 11.6369 29.2321C12.4032 29.4633 13.0968 29.6614 13.1761 29.6614V29.668Z" fill="#9C9C9C"/>
<path d="M12.7803 54.9018C13.3088 54.6046 13.0841 54.3536 12.4764 54.5649C11.9348 54.7499 9.39818 56.5466 8.79045 57.1742L8.24219 57.7423L8.84329 57.4186C10.0918 56.7382 11.01 56.1701 11.73 55.6351C12.1396 55.3312 12.6152 55.0009 12.7803 54.9084V54.9018Z" fill="#9C9C9C"/>
<path d="M13.652 69.3947C13.4935 69.3947 12.1855 70.7224 12.1855 70.8809C12.1855 71.1584 12.5819 70.9338 13.1566 70.3393C13.7643 69.7051 13.9228 69.3947 13.652 69.3947Z" fill="#9C9C9C"/>
<path d="M67.4882 39.5369L67.9572 39.3982L67.442 39.2595C66.7946 39.0877 65.6716 39.0217 65.0771 39.1274C64.5619 39.2199 64.4165 39.4907 64.7931 39.6492C65.1101 39.7813 66.9135 39.7021 67.4882 39.5369Z" fill="#9C9C9C"/>
<path d="M20.1126 27.8515C20.7269 28.4129 21.4073 29.0074 21.6187 29.166C21.8367 29.3311 22.0216 29.4632 22.0348 29.4698C22.048 29.4698 21.8961 29.2453 21.6913 28.9678C21.3082 28.4328 19.4256 26.6822 18.6857 26.167C18.0516 25.731 17.9327 25.8896 18.5008 26.3982C18.7716 26.636 19.4916 27.2966 20.106 27.8515H20.1126Z" fill="#9C9C9C"/>
<path d="M9.68146 47.0344C12.2114 46.2285 15.435 44.544 16.8487 43.2956C17.7206 42.5227 17.4894 42.2849 16.4919 42.9256C16.1683 43.137 15.2831 43.5862 14.5168 43.9363C11.0092 45.5349 10.1637 46.0039 8.38675 47.3316C8.215 47.4637 8.61133 47.3647 9.67485 47.0278L9.68146 47.0344Z" fill="#9C9C9C"/>
<path d="M14.6823 22.6131C15.039 22.8641 15.4881 23.2076 15.6797 23.3794C15.8713 23.5445 16.0496 23.6832 16.0694 23.6898C16.1091 23.6898 15.825 23.3926 14.0877 21.5562C13.7839 21.2325 12.8657 20.4332 12.0598 19.7727C11.2473 19.1187 10.1838 18.2269 9.69494 17.791C9.20612 17.355 8.75694 17.0049 8.69749 17.0049C8.63804 17.0049 8.5918 17.0974 8.5918 17.2097C8.5918 17.6655 12.1324 20.8098 14.6756 22.6131H14.6823Z" fill="#9C9C9C"/>
<path d="M17.1 31.6365C17.3841 31.8875 18.2428 32.4292 18.5731 32.5547C19.0884 32.7595 19.4187 32.6273 19.1214 32.3301C18.8374 32.046 17.2982 31.1675 17.0868 31.1675C16.8094 31.1675 16.816 31.3789 17.1 31.6299V31.6365Z" fill="#9C9C9C"/>
<path d="M54.205 30.4607C53.1282 31.1609 51.9722 31.9074 51.6288 32.1187C51.1994 32.3764 51.0078 32.5613 51.0078 32.6934C51.0078 32.8652 51.054 32.885 51.3315 32.8256C51.7014 32.7529 54.3107 31.445 55.7507 30.6126C56.8076 30.0049 59.8925 27.6995 59.4895 27.825C59.3508 27.8647 58.5449 28.1883 57.6994 28.5384C56.4245 29.0669 55.83 29.3972 54.205 30.4541V30.4607Z" fill="#9C9C9C"/>
<path d="M62.9574 25.8301C63.3802 25.4668 64.2455 24.8524 64.873 24.4627C65.6855 23.9541 66.2933 23.4785 66.9671 22.8113C67.4889 22.296 67.806 21.9393 67.6673 22.0186C67.5285 22.0979 67.0794 22.3489 66.6632 22.5801C66.247 22.8047 65.5732 23.2803 65.1637 23.6238C64.7541 23.9739 64.0077 24.5354 63.4991 24.8789C62.5611 25.5196 61.9731 26.0745 61.9731 26.3387C61.9731 26.603 62.1647 26.4973 62.9508 25.8301H62.9574Z" fill="#9C9C9C"/>
<path d="M62.0853 14.1908C62.158 14.1644 62.2372 14.0852 62.2571 14.0191C62.2835 13.9464 62.2438 13.9068 62.1712 13.9332C62.0985 13.9597 62.0192 14.0389 61.9994 14.105C61.973 14.1776 62.0126 14.2173 62.0853 14.1908Z" fill="#9C9C9C"/>
<path d="M28.0659 51.7707C28.5812 51.163 29.1889 50.1061 29.0766 50.0004C28.9115 49.8352 28.6208 49.9805 28.35 50.3637C28.1848 50.5949 27.8215 51.0837 27.5375 51.4404C27.26 51.7971 26.976 52.2595 26.9033 52.4643L26.7778 52.8342L27.1676 52.603C27.3856 52.4775 27.7885 52.1076 28.0593 51.7839L28.0659 51.7707Z" fill="#9C9C9C"/>
<path d="M64.1721 46.1756C65.5131 46.5588 65.5065 46.5456 63.8749 45.6076C62.1244 44.6035 58.0883 43.2097 55.7168 42.7935C55.1685 42.6944 54.6401 42.6482 54.5542 42.6812C54.2966 42.7803 54.3626 43.1304 54.6665 43.2823C55.1355 43.5202 58.8215 44.6894 61.1269 45.3301C62.3357 45.667 63.7031 46.0435 64.1721 46.1756Z" fill="#9C9C9C"/>
<path d="M60.4016 16.0867C60.58 16.0272 60.9301 15.5252 60.8508 15.4459C60.7583 15.3535 60.2827 15.8092 60.2827 15.9876C60.2827 16.0669 60.3356 16.1131 60.4016 16.0867Z" fill="#9C9C9C"/>
<path d="M3.77028 50.073C3.47302 50.2051 3.20879 50.3835 3.16916 50.4694C3.07668 50.7138 3.45321 50.6675 4.08736 50.3505C5.0584 49.8682 4.77436 49.6238 3.76369 50.073H3.77028Z" fill="#9C9C9C"/>
<path d="M59.5818 71.3896C59.4431 71.3896 59.4629 71.7265 59.6082 71.8719C59.7601 72.0172 59.8857 72.0238 59.8857 71.8851C59.8857 71.7133 59.6875 71.3896 59.5818 71.3896Z" fill="#9C9C9C"/>
<path d="M57.7916 68.1924C57.686 68.3641 57.8511 68.6548 58.4324 69.355C58.6372 69.5994 58.8288 69.7844 58.8552 69.758C58.9411 69.6721 58.69 68.9256 58.4654 68.5954C58.1616 68.1462 57.9172 68.0008 57.7916 68.1924Z" fill="#9C9C9C"/>
<path d="M69.1074 47.7478C68.5855 47.2524 67.7202 46.9353 66.7359 46.8627C66.0027 46.8098 65.9565 46.823 65.9895 46.9948C66.0159 47.1137 66.1678 47.226 66.4255 47.3052C66.6434 47.3713 67.2049 47.5496 67.6739 47.695C68.143 47.8469 68.7044 47.9988 68.9224 48.0385C69.1404 48.0781 69.365 48.1111 69.4245 48.1177C69.4773 48.1177 69.3386 47.9526 69.1206 47.7478H69.1074Z" fill="#9C9C9C"/>
<path d="M62.0394 55.3708C62.0724 55.4567 62.3102 55.6747 62.5612 55.8464C62.8122 56.0181 63.486 56.6391 64.0475 57.2336C64.609 57.8215 65.4215 58.5547 65.8442 58.8586C66.267 59.1625 66.6303 59.4135 66.6501 59.4135C66.7096 59.4267 65.765 58.3632 64.5429 57.0486C62.984 55.3642 61.7025 54.512 62.0328 55.3774L62.0394 55.3708Z" fill="#9C9C9C"/>
<path d="M71.5118 48.9368C71.4325 48.9368 71.3599 48.9831 71.3599 49.0359C71.3599 49.0888 71.4259 49.135 71.5118 49.135C71.5977 49.135 71.6637 49.0888 71.6637 49.0359C71.6637 48.9831 71.5977 48.9368 71.5118 48.9368Z" fill="#9C9C9C"/>
<path d="M70.4882 48.3555C70.1777 48.3225 70.0456 48.4876 70.2372 48.6726C70.2768 48.7122 70.4222 48.732 70.5609 48.7122C70.9374 48.666 70.8845 48.3885 70.4882 48.3489V48.3555Z" fill="#9C9C9C"/>
<path d="M71.4058 38.9556C71.3596 38.8764 71.3001 38.8698 71.234 38.9358C71.1812 38.9887 71.168 39.0877 71.2076 39.1538C71.2539 39.2331 71.3133 39.2397 71.3794 39.1736C71.4322 39.1208 71.4454 39.0217 71.4058 38.9556Z" fill="#9C9C9C"/>
<path d="M69.7544 39.1604C69.5232 39.1604 68.9551 39.4643 69.0146 39.5567C69.1005 39.6955 69.2061 39.6889 69.6223 39.5105C69.9328 39.3784 70.0186 39.1604 69.7544 39.1604Z" fill="#9C9C9C"/>
<path d="M40.8813 57.4186C41.6542 54.7168 42.3081 52.6426 42.8234 49.9673C43.0876 48.5933 43.2858 47.3911 43.4245 46.2351L46.7868 49.5248C46.8462 49.5644 47.0378 49.9607 47.1501 50.1523C47.3747 50.5354 47.5333 50.9119 47.6455 51.3083C47.0907 50.6345 46.364 49.9277 46.1791 49.9938C45.829 50.1259 46.0139 50.4826 46.8859 51.3413C47.269 51.7178 47.6455 52.068 47.8437 52.2265C47.8833 52.4907 47.923 52.7748 47.956 53.072C48.0353 53.7854 48.1608 54.2544 48.6298 54.8754C49.4489 55.9719 52.2695 57.9999 53.3265 58.6869C53.954 59.0964 54.4891 59.3937 55.2157 59.6975C55.8102 59.9486 56.2528 60.1203 56.7548 60.0278C57.1842 59.9486 57.5012 59.7306 58.0033 59.1823C58.327 58.819 58.6572 58.3434 58.8884 57.9008C59.047 57.5903 59.1262 57.3261 59.1923 56.8967C59.2716 56.3617 59.2716 56.1437 59.1989 55.8002C59.0338 55.0207 58.2543 54.0497 57.5937 53.4287C56.4774 52.3718 55.6979 51.7509 54.3966 51.0176C53.9672 50.7732 53.049 50.3174 52.4875 50.0532C51.9591 49.8088 51.7741 49.7361 51.0145 49.4587C50.2746 49.1879 49.7726 49.0227 49.1252 48.5339C48.5968 48.131 48.2599 48.0385 47.8437 47.6752L46.9255 46.7768L43.6557 43.573C43.7284 42.199 43.7416 40.759 43.7152 39.0349C43.6821 36.7758 43.5632 34.2061 43.3717 31.8347L48.3127 26.9861L48.4514 26.9134C48.6232 26.821 48.894 26.6492 49.1186 26.4709C49.766 25.982 50.268 25.8169 51.0079 25.546C51.4769 25.3743 51.7279 25.2818 51.9723 25.1761C50.8493 26.4378 50.2944 27.1645 50.2944 27.3692C50.2944 27.5344 50.5851 27.5013 50.8295 27.3032C50.9748 27.1843 52.2365 25.8499 53.5643 24.4165C53.8879 24.2513 54.1852 24.0928 54.3834 23.9871C55.6781 23.2605 56.4576 22.6329 57.5805 21.576C58.2477 20.9485 59.0206 19.9775 59.1857 19.198C59.2584 18.8479 59.2584 18.6365 59.1791 18.1014C59.113 17.6721 59.0338 17.4078 58.8752 17.0974C58.5846 16.5359 58.1486 15.9414 57.6994 15.5054C57.0653 14.8911 56.4708 14.825 55.7309 15.0892C54.9977 15.3535 54.3966 15.6441 53.6832 16.0801C52.6989 16.6746 49.4951 18.9536 48.6232 20.1228C48.1542 20.7437 48.0287 21.2127 47.9494 21.9261C47.8767 22.5669 47.8239 22.8972 47.738 23.3067C47.5134 24.3108 47.269 24.6014 46.8661 25.3743L46.767 25.6187L43.1206 29.199C43.0612 28.6705 42.9951 28.1619 42.9291 27.6929C42.4072 24.1192 41.5485 20.5455 40.2604 17.0115C39.144 13.9663 38.2588 11.6741 37.0698 9.263C36.8783 8.87326 36.5612 8.17967 36.3762 8.17306C36.3168 8.17306 36.2045 8.05416 36.0856 8.06737C35.9997 8.07398 35.7817 8.21271 35.6958 8.30519C35.5175 8.50336 34.4804 10.6898 33.8925 12.1035C33.331 13.451 32.2873 16.1594 31.8051 17.5267C30.8406 20.2615 30.2197 22.6329 29.6384 25.7508C29.4534 26.7681 29.2817 27.9439 29.1364 29.2056L25.4834 25.6187L25.3843 25.3743C24.9748 24.6014 24.7304 24.3042 24.5124 23.3067C24.4199 22.8906 24.3671 22.5603 24.301 21.9261C24.2217 21.2127 24.0962 20.7437 23.6272 20.1228C22.7553 18.9602 19.5515 16.6746 18.5672 16.0801C17.8538 15.6507 17.2527 15.3601 16.5195 15.0892C15.773 14.8184 15.1851 14.8911 14.551 15.5054C14.1018 15.9414 13.6658 16.5359 13.3752 17.0974C13.2166 17.4078 13.1374 17.6721 13.0713 18.1014C12.992 18.6365 12.992 18.8545 13.0647 19.198C13.2365 19.9775 14.0093 20.9485 14.6699 21.576C15.7862 22.6329 16.5657 23.2605 17.867 23.9871C18.2964 24.2315 19.2146 24.6873 19.7761 24.9515C20.3046 25.196 20.4895 25.2686 21.2492 25.546C21.989 25.8169 22.491 25.982 23.1384 26.4709C23.363 26.6426 23.6338 26.821 23.8056 26.9134L23.9443 26.9861L28.8854 31.8347C28.5749 35.4678 28.4494 39.5105 28.5749 42.8794C27.2604 44.0288 25.7146 45.1518 24.2349 46.0303C23.4621 46.4861 22.3391 47.2722 21.7248 47.7808C21.1104 48.2895 19.5515 49.4587 18.2568 50.3901C16.9621 51.3149 15.8259 52.167 15.7268 52.2727C15.6607 52.3454 15.8193 52.2991 16.1298 52.1604C15.6541 52.5303 15.1984 52.9333 14.6633 53.4419C14.0027 54.0695 13.2298 55.0405 13.0581 55.8134C12.9854 56.1635 12.9854 56.3749 13.0647 56.9099C13.1308 57.3393 13.21 57.6035 13.3686 57.914C13.5932 58.3566 13.9234 58.8322 14.2537 59.1955C14.7558 59.7504 15.0728 59.9618 15.5022 60.041C16.0042 60.1335 16.4402 59.9618 17.0413 59.7107C17.768 59.4069 18.303 59.1096 18.9306 58.7001C19.9875 58.0131 22.8081 55.9851 23.6272 54.8886C24.0962 54.261 24.2217 53.7986 24.301 53.0852C24.4331 51.9292 24.5784 51.0507 25.1069 50.1523C25.2192 49.9607 25.4108 49.5644 25.4702 49.5248L28.8259 46.2417C29.0373 48.0385 29.4799 50.4231 29.9423 52.319C30.4575 54.4196 31.7787 58.9247 32.4524 60.8205C32.862 61.9633 34.0642 65.57 34.4804 66.2834C34.6984 66.6599 35.1278 66.8449 35.5307 66.9176C35.7619 66.9572 36.7395 66.9704 37.1425 66.7855C37.2878 66.7194 37.6181 66.4353 37.7238 66.2834C37.9814 65.9201 38.2456 65.3124 38.642 64.196C39.4347 61.9369 40.2538 59.7107 40.9077 57.4252L40.8813 57.4186ZM48.1806 48.9501C48.3524 48.9831 49.4819 50.0994 50.1557 50.7798C51.675 52.3124 53.0886 53.6203 54.6344 55.0537C54.7599 55.166 54.9515 55.3708 55.3214 55.7605C56.0018 56.4872 55.9952 56.5004 56.0876 56.4673C56.1405 56.4475 56.4774 56.8505 56.5368 56.7976C56.5632 56.7778 56.4377 56.5862 56.1999 56.2824C56.1405 56.2097 55.8829 55.9191 55.5658 55.569C54.7533 54.6772 53.8021 53.7524 52.7848 52.7351C51.6024 51.5461 50.8097 50.76 50.268 50.2514C50.0632 50.0532 49.8915 49.8881 49.8915 49.8881C51.0277 50.2976 52.2761 50.7006 53.3265 51.3545C54.608 52.1538 55.4138 52.7549 56.5302 53.759C57.3163 54.4592 57.858 55.0603 58.0495 55.4567C58.1618 55.6813 58.2147 55.9653 58.2081 56.3749C58.2081 56.6457 58.1618 56.8967 58.0429 57.3261C57.9438 57.696 57.8844 57.8215 57.6664 58.165C57.4946 58.4358 57.1578 58.9577 56.8671 59.1427C56.6557 59.2748 56.4576 59.2814 56.233 59.2219C55.9423 59.1427 55.1959 58.8256 54.7797 58.6076C53.9606 58.1716 53.234 57.6762 52.4809 57.0685C52.2233 56.8637 51.0673 55.8794 50.7965 55.6416C50.1359 55.0537 49.515 54.3799 49.1781 53.8713C48.6496 53.0654 48.7751 52.3124 48.6034 51.3479C48.5769 51.2158 48.5175 51.1762 49.1054 51.7971C49.6405 52.3586 51.0607 53.7986 51.6486 54.38C53.1217 55.8332 54.139 56.6391 55.9225 57.881C55.9555 57.9074 55.9687 57.881 55.9423 57.8413C55.9159 57.7951 55.8168 57.7158 55.546 57.4912C54.5947 56.7118 54.1588 56.3154 53.2604 55.417C52.3026 54.4592 48.6298 50.7798 48.1806 50.0862C48.0023 49.8154 47.8239 49.6238 47.672 49.4191L48.1476 48.9633L48.1806 48.9501ZM47.302 48.2102L47.0642 48.5141C46.9652 48.6594 46.9784 48.6528 46.9189 48.6C46.8925 48.5735 46.7075 48.4018 46.516 48.2102L39.1374 40.9836L39.5403 40.5278L40.1216 41.0893L47.3087 48.2102H47.302ZM32.3203 42.7803L32.4789 42.6218C32.5581 42.8794 32.6836 43.1635 32.8818 43.3881C32.9545 43.4673 33.0007 43.507 33.0007 43.4805L32.6506 42.4566L32.8818 42.2321C33.1592 43.1172 33.4763 43.6655 33.9916 44.2336C34.6257 44.9272 35.4118 45.2443 36.4951 45.2443C37.3539 45.2443 37.9153 45.0593 38.3645 44.6233C38.9855 44.0156 39.2035 43.0578 39.3554 42.2585L39.5866 42.4831C39.4743 42.8728 39.3025 43.3418 39.3422 43.3881C39.3686 43.4145 39.4545 43.4013 39.4875 43.3616C39.5271 43.3154 39.6593 42.9719 39.7385 42.6879C39.7385 42.6746 39.7451 42.6614 39.7517 42.6416L39.9169 42.8068C39.8376 43.0908 39.7253 43.3947 39.547 43.6919C39.4809 43.8042 39.1506 44.412 39.1902 44.4516C39.2233 44.4846 39.2695 44.4516 39.4149 44.3195C39.7517 43.9958 39.9895 43.5136 40.1349 43.0248L40.2141 43.104C39.9169 43.9231 39.5536 44.6233 39.0119 44.9602C38.7609 45.1188 37.9616 45.4689 37.3473 45.6868C37.0632 45.7925 37.1689 45.7661 36.799 45.7529C36.548 45.7463 36.3498 45.7529 36.0393 45.7793C35.3589 45.8388 35.3788 45.8388 35.1145 45.7661C34.7314 45.6538 33.6547 45.2575 33.4565 45.1584C33.0866 44.9668 32.6506 44.5374 32.3599 44.0816C32.175 43.7844 32.0297 43.4872 31.9108 43.1899L32.0561 43.0446C32.2278 43.5532 32.4656 43.9826 32.71 44.1741C32.8025 44.2534 32.895 44.2666 32.895 44.2138C32.895 44.0684 32.5449 43.5664 32.3203 42.7869V42.7803ZM30.5962 34.4902C30.6161 34.1995 30.6359 33.9023 30.6623 33.605L30.9199 33.856C31.0586 33.9881 31.1907 34.1203 31.3163 34.2458C31.1511 36.168 30.9662 38.9556 30.986 41.2016L30.55 41.6309C30.4575 39.3652 30.4773 36.2803 30.5962 34.4968V34.4902ZM35.8808 26.2595C35.9667 26.5832 35.9997 26.5765 36.1054 26.233L36.1715 26.0217C36.2177 25.7574 36.1384 23.4124 36.1186 23.1218C36.1054 22.9566 36.0063 22.8708 36.5942 23.1878C37.017 23.419 37.3869 23.7163 37.8427 24.1853C39.58 25.9754 40.4916 28.5979 40.9804 31.2864L40.5642 31.696C40.2207 29.5821 39.5205 27.5608 37.7304 26.9002C37.2085 26.7087 36.832 26.7417 36.3102 26.6756C36.0525 26.6426 35.3127 26.6228 35.207 26.702C35.022 26.8474 33.6018 26.6096 32.4656 28.7961C32.0098 29.6746 31.7654 30.606 31.6069 31.6431L31.0058 31.0486C31.4682 28.4328 32.3533 25.916 34.0774 24.1126C34.7182 23.4454 35.4316 22.9831 35.9469 22.917C35.894 23.1878 35.7222 25.6319 35.8874 26.2529L35.8808 26.2595ZM41.5155 37.3042C41.5419 38.262 41.5287 40.0852 41.4956 41.4658L41.172 41.1487C41.1918 39.0349 41.0398 36.4917 40.9143 35.1309C40.8879 34.8667 40.8681 34.5827 40.8417 34.2986C40.9804 34.1599 41.1323 34.0146 41.2909 33.8626L41.3173 33.8362C41.4362 35.0517 41.489 36.2341 41.5155 37.3108V37.3042ZM34.7843 27.825C34.8437 27.8845 34.9758 27.7193 35.022 27.6401L35.1806 27.7524C35.1806 27.7524 35.2995 32.5283 35.3523 35.3159L35.1806 35.1441C35.141 35.0715 35.2467 35.0913 34.8503 34.6355C34.8107 31.8281 34.7446 27.7788 34.7843 27.8184V27.825ZM35.6364 27.5079L36.0063 27.4023C36.2177 27.6136 36.297 27.4881 36.3168 27.5872L36.3432 35.8444L36.1186 36.0623L35.8015 35.7519L35.643 27.5079H35.6364ZM36.7329 27.8779C36.7263 27.389 36.6867 27.7854 37.1094 27.5806C37.2548 27.6929 37.301 27.6995 37.2944 27.825C37.2944 27.8779 37.3341 30.0115 37.3869 32.5679L37.4199 34.5694C36.9575 35.0979 37.0698 35.0715 37.0302 35.1441L36.7395 35.4282L36.7263 27.8713L36.7329 27.8779ZM37.737 27.9109C37.737 27.9109 37.7964 27.9373 37.8559 27.9902C38.3447 28.3997 38.3117 28.0034 38.3315 28.5913C38.3381 28.8687 38.4108 31.2732 38.4768 33.539C38.457 33.5522 38.4372 33.5654 38.4108 33.5786C38.3447 33.6314 38.0871 33.8825 37.8493 34.1269C37.7964 31.3591 37.7304 27.9175 37.737 27.9109ZM38.5891 37.6609C38.5891 37.7468 37.922 37.5486 37.922 37.542C37.922 37.542 37.922 37.4495 37.9153 37.291C38.5297 36.6965 38.5297 36.6965 38.5627 36.6767C38.5825 37.2712 38.5891 37.6477 38.5891 37.6609ZM37.8625 36.1218L37.017 36.9607L36.6471 36.5974L37.5058 35.7453C37.5058 35.7453 37.8625 36.102 37.8625 36.1218ZM33.5952 37.4892V36.6436C33.5952 36.6436 33.6415 36.6767 33.6547 36.6833C33.6877 36.7031 33.6877 36.6965 34.4275 37.4231C34.3417 37.4561 34.0774 37.476 33.9123 37.4958C33.5886 37.542 33.5886 37.5618 33.5886 37.4958L33.5952 37.4892ZM33.6283 33.4993L33.6679 28.7895C33.6679 28.6639 33.8528 28.981 33.9321 28.3072L34.018 28.3205C34.2558 28.3667 34.302 27.9902 34.3218 28.0166L34.4077 34.1731C34.1567 33.9089 33.8727 33.6314 33.8 33.5786C33.7339 33.5257 33.6745 33.5059 33.6216 33.4993H33.6283ZM35.1277 38.1035C35.24 38.2158 35.3655 38.3347 35.4977 38.4668L34.7182 39.2397C34.7182 39.2397 34.7116 39.2727 34.487 39.0283C34.4143 38.949 34.3483 38.8764 34.3483 38.8698L35.1277 38.0969V38.1035ZM35.022 40.1447C35.0683 40.0852 35.2004 39.9465 35.5373 39.6228C35.5637 39.6162 35.5968 39.603 35.6364 39.5898L36.4555 39.4048C36.5083 39.4577 36.5612 39.5105 36.6206 39.5634C36.7461 39.6889 36.8518 39.788 36.9311 39.8672C36.4753 39.9135 35.6562 40.0191 35.0088 40.1645C35.0154 40.1579 35.0221 40.1447 35.0287 40.1381L35.022 40.1447ZM34.3483 36.1218C34.3483 36.1218 34.6918 35.7453 34.705 35.7453L37.8625 38.8698C37.8625 38.8698 37.803 38.949 37.7238 39.0283C37.4992 39.2661 37.5124 39.2529 37.4926 39.2397L34.3549 36.1218H34.3483ZM40.3529 36.0293C40.4123 37.1127 40.5642 39.5435 40.5444 40.1711C40.5444 40.2305 40.5312 40.257 40.518 40.257C40.4651 40.2504 40.2802 40.1579 40.2802 40.1381L40.0886 35.0385C40.0886 35.0385 40.1084 35.0186 40.1151 35.0054C40.1283 34.9922 40.1811 34.9394 40.2604 34.8601C40.3 35.3357 40.3396 35.8113 40.3529 36.0227V36.0293ZM39.7914 38.3083C39.7914 38.3083 39.7715 38.3215 39.7319 38.2686C39.4545 37.8921 39.0119 37.8723 38.9987 37.7798L38.9591 36.3199C39.0449 36.2407 39.1506 36.135 39.2761 36.0161C39.4545 35.8443 39.5932 35.7056 39.6923 35.5999C39.7517 37.1523 39.7914 38.2951 39.7914 38.3083ZM39.3818 39.0811C39.0846 38.7905 38.7675 38.4932 38.6222 38.3677C39.078 38.4866 39.3025 38.632 39.3818 39.0811ZM38.8798 33.3408L38.7609 29.0207L38.9723 29.2056C39.144 29.3113 38.9789 29.5954 39.2365 29.9521L39.5007 30.5994L39.58 32.6538L39.5271 32.7066C39.2695 32.9643 39.0185 33.2021 38.8798 33.3408ZM32.4524 30.8769L32.5251 30.8042C32.7167 30.6259 32.6902 29.5359 32.829 29.5359C32.9148 29.5359 33.1791 29.0405 33.2187 29.0801L33.1857 33.2021C33.0469 33.0634 32.862 32.885 32.6704 32.7L32.459 32.4886V30.8637L32.4524 30.8769ZM32.0561 38.9688C32.0561 39.821 32.1684 39.6955 31.99 39.7483L31.6003 39.9201L31.8976 34.8337C31.957 34.8931 32.0032 34.9394 32.0363 34.9724L32.0561 38.9688ZM32.4789 35.5735C32.5846 35.6858 32.7299 35.8311 32.928 36.0227C33.0205 36.1086 33.0932 36.1879 33.1658 36.2539L33.1526 37.6939C32.9677 37.8062 32.8488 37.8855 32.71 38.1101L32.4987 38.5659L32.4789 35.5735ZM33.397 38.2951C33.4895 38.229 33.7207 38.1762 34.0048 38.1299L33.8462 38.2885C33.7736 38.2885 33.7207 38.2819 33.6547 38.3149C33.6084 38.3413 33.4103 38.5197 33.1725 38.7442C33.2517 38.5395 33.3574 38.3281 33.397 38.2951ZM33.6018 41.512C33.6018 41.512 33.7009 41.4922 33.8 41.4196C33.8991 41.3403 34.2162 41.0232 34.5068 40.7128C35.207 40.508 36.581 40.3494 37.3076 40.2966C37.6181 40.6467 38.2456 41.3007 38.391 41.413C38.49 41.4856 38.5759 41.4988 38.5891 41.5054L38.8798 41.7895C38.7609 42.4104 38.675 43.104 38.3183 43.7448C37.9946 44.3327 37.6115 44.5771 36.865 44.663C35.5109 44.8215 34.487 44.2138 33.8264 43.0248C33.6679 42.7407 33.4829 42.2321 33.3442 41.7498L33.5952 41.5054L33.6018 41.512ZM42.6252 34.2127C42.7838 37.0796 42.8234 39.0679 42.7837 41.5781C42.7837 41.9612 42.7639 42.3311 42.7507 42.7011L42.11 42.0735C42.11 41.9414 42.1166 41.8093 42.1232 41.6706C42.2024 38.9292 42.2157 36.0227 41.9118 33.2615L42.5327 32.6538C42.5724 33.169 42.6054 33.6909 42.6318 34.2193L42.6252 34.2127ZM48.2004 24.9317C48.6562 24.2381 52.3158 20.5654 53.2736 19.6075C54.1786 18.7092 54.6146 18.3128 55.5658 17.5334C55.8432 17.3088 55.9357 17.2229 55.9621 17.1833C55.9885 17.1436 55.9753 17.1172 55.9423 17.1436C54.1456 18.3987 53.1547 19.1848 51.6684 20.6446C51.0805 21.2259 49.6537 22.6726 49.1252 23.2275C48.5373 23.8484 48.5968 23.8088 48.6232 23.6766C48.7949 22.7122 48.6694 21.9658 49.1979 21.1533C49.5348 20.638 50.1425 19.9708 50.8163 19.3829C51.0805 19.1517 52.2365 18.1675 52.5007 17.9627C53.2538 17.3484 53.9738 16.8596 54.7995 16.4236C55.2289 16.199 55.9753 15.8819 56.266 15.8026C56.5963 15.7168 56.9067 15.8357 57.1115 16.0735C57.2502 16.2386 57.5211 16.6085 57.6796 16.8596C57.8976 17.2031 57.9504 17.3286 58.0561 17.6985C58.175 18.1279 58.2147 18.3789 58.2213 18.6497C58.2213 19.0592 58.175 19.3433 58.0627 19.5679C57.8646 19.9576 57.3229 20.5654 56.5434 21.2656C55.4205 22.2696 54.6278 22.8575 53.333 23.67C52.3884 24.2579 51.3183 24.6345 50.2878 24.9912L51.2456 24.0003C51.1664 24.1324 51.3646 24.073 51.5693 23.9871C52.1837 23.7229 53.0292 22.7519 53.518 22.1375C53.6237 22.0054 53.6369 21.9592 53.5907 21.9195C53.4982 21.8337 53.3066 22.0648 53.0358 22.3291C52.6064 22.7584 52.3884 22.9632 52.144 23.1746C51.9459 23.3397 51.6354 23.5908 51.6024 23.6106C51.5627 23.6304 52.6527 22.4414 53.2075 21.8601C54.1588 20.8626 55.7309 19.3565 56.1999 18.7554C56.7482 18.0486 56.5765 18.1014 56.0282 18.6629C55.6715 19.0328 55.9621 18.6761 55.6318 18.9536C55.3874 19.1583 54.8986 19.634 53.7426 20.7833C53.0292 21.4968 52.8376 21.6421 52.2497 22.2036C51.4174 23.0029 51.2523 23.1416 50.1557 24.2447C49.4951 24.9119 48.5571 25.8499 48.207 26.0613C48.1872 26.0745 48.1674 26.0811 48.1608 26.0745L47.705 25.6187C47.8635 25.4007 48.0353 25.2158 48.2136 24.9515L48.2004 24.9317ZM46.7208 26.5898C46.7208 26.5898 46.7406 26.6162 46.7538 26.6426C46.8132 26.7879 46.9321 26.9002 47.0774 26.9993L40.1084 33.9023C39.8772 34.1335 39.646 34.3581 39.6064 34.3977C39.5271 34.4704 39.5205 34.4704 39.4875 34.4175L39.1308 34.008L46.7208 26.5831V26.5898ZM40.3396 22.5339C40.3859 22.983 40.4321 22.9698 40.1084 22.7584C39.2431 22.2036 38.0144 21.761 36.9575 21.4175C36.7065 21.3382 36.4951 21.2589 36.4819 21.2523C36.4357 21.2061 37.7568 20.7239 38.4042 20.5455C39.7715 20.1822 39.6725 20.2021 39.7385 20.2549C39.798 20.3077 39.9103 20.3606 39.9631 20.3606C40.082 20.3606 40.2934 22.1177 40.333 22.5339H40.3396ZM36.3762 20.7767C36.2045 20.8494 36.0658 20.9089 36.0591 20.9089L35.9733 17.7315C35.9402 17.0511 35.9402 17.4805 36.3102 17.0115L37.3803 17.8835C38.1465 18.4449 38.6552 18.8677 39.2893 19.4886C39.5007 19.7 39.5602 19.7595 39.5271 19.7661C39.4413 19.7793 38.0475 20.1624 37.8163 20.2351C37.3142 20.3936 36.9311 20.5389 36.3828 20.7767H36.3762ZM32.2939 18.5242C32.9016 16.668 34.1963 13.2528 34.9692 11.3702C35.0485 12.011 35.1872 12.6385 35.7883 12.6583C35.9799 12.6583 36.0327 12.7838 36.2507 12.6914C36.799 12.4602 36.6471 11.6741 36.079 11.6543C35.6364 11.6344 35.7157 12.0902 35.6166 11.6543C35.4382 10.8616 35.7355 10.637 35.4382 10.3067L35.643 9.86412C35.7289 9.81128 35.8015 10.2605 35.9931 10.3265C36.1054 10.3662 36.1847 11.6873 36.2705 11.5552L36.3234 10.2935C36.6801 10.0755 36.4687 9.76504 36.2837 9.68577C36.2837 9.68577 36.2309 9.09126 36.2375 9.08465L37.6709 12.4602C38.5033 14.541 39.6262 17.5928 40.2141 19.4886C40.0556 19.4556 40.0424 19.4688 39.8772 19.5217C38.959 18.6431 38.4504 18.1939 37.5652 17.5862C37.1491 17.3021 36.3498 16.7076 36.2705 16.5557C36.1913 16.3972 36.0856 16.3641 35.9138 16.2915L35.8808 15.6904C36.5876 15.7102 37.017 15.0892 36.9113 14.5344C36.6008 12.8169 33.3244 14.5211 35.6694 15.6573L35.6826 16.3377C35.0088 16.8331 35.5241 16.734 35.141 16.9586C34.3549 17.4144 33.1923 18.3128 32.2939 19.1451C31.9372 19.4754 32.0297 19.3301 32.2939 18.5374V18.5242ZM35.7553 19.7727L35.8478 21.0145C35.8478 21.0145 35.8214 21.0278 35.8015 21.0278L32.9082 20.0171C32.3137 19.8387 32.3864 19.8916 32.3732 19.6538C33.4169 18.762 34.3879 17.9363 35.4845 17.3087C35.643 17.2163 35.7024 17.2295 35.7024 17.3418C35.7024 17.5135 35.7487 19.5547 35.7619 19.7727H35.7553ZM35.4911 14.7656C35.4382 14.6797 35.4911 14.6268 35.6232 14.5476C36.3564 14.0653 36.5546 14.8448 36.1186 15.0694C35.9072 15.1817 35.676 15.0694 35.4911 14.7656ZM32.0231 20.7701C32.0561 20.3606 31.9966 20.4795 32.2344 20.2285L35.2136 21.2986C35.2136 21.2986 35.0815 21.3779 34.923 21.4571C34.084 21.8799 33.4103 22.2696 32.6176 22.7915L31.8249 23.3067L32.0165 20.7701H32.0231ZM30.048 28.6838C30.2527 26.9399 30.6227 24.8723 31.0718 22.9104C31.2304 22.2102 31.4682 21.2656 31.4748 21.292L31.27 23.5908C31.1709 23.6238 30.9331 23.8748 31.1709 24.1126C31.3889 24.3174 31.7258 24.1853 31.8051 23.8616C31.8249 23.7889 31.7588 23.8352 32.8884 23.135C34.0246 22.4282 34.6257 22.0979 35.5043 21.6817C35.8742 21.5034 35.9138 21.4968 35.927 21.6091C35.9402 21.7147 36.0063 22.0913 36.0129 22.1111L36.0591 21.5959C37.5983 22.1177 38.8269 22.5339 39.8574 23.168C40.6831 23.6767 40.1877 23.3464 40.4057 23.7163C40.736 24.2712 41.4428 23.5643 40.9408 23.3265C40.7822 23.2473 40.7954 23.2737 40.7558 22.8377C40.703 22.263 40.551 20.9749 40.3859 20.4266C40.3198 20.2086 40.3264 20.2351 40.3991 20.1294C41.3437 23.3398 41.925 26.5501 42.2817 29.9983L41.5088 30.758C41.1125 28.7762 40.4784 26.9266 39.5139 25.3479C38.8798 24.3108 37.3274 22.5008 36.079 22.3885C35.7156 22.3555 35.3061 22.4216 35.0881 22.5405C33.5754 23.3926 32.4987 24.8194 31.6796 26.5303C31.0983 27.7524 30.6953 29.1065 30.4179 30.5136L29.8894 29.9917C29.9357 29.5425 29.9819 29.0999 30.0347 28.6838H30.048ZM24.0566 26.0547C24.0566 26.0547 24.0302 26.0547 24.0104 26.0415C23.6536 25.8235 22.7222 24.8921 22.0617 24.2249C20.9651 23.1218 20.8 22.9764 19.9677 22.1838C19.3798 21.6223 19.1948 21.4769 18.4748 20.7635C17.3188 19.6141 16.8233 19.1319 16.5855 18.9338C16.2552 18.6563 16.5459 19.013 16.1892 18.6431C15.6409 18.0816 15.4692 18.0288 16.0175 18.7356C16.4865 19.3367 18.0586 20.8428 19.0098 21.8403C19.5647 22.4216 20.6546 23.6106 20.615 23.5908C20.5754 23.571 20.2649 23.3199 20.0733 23.1548C19.8289 22.9434 19.611 22.7386 19.1816 22.3093C18.9174 22.045 18.7192 21.8138 18.6267 21.8997C18.5805 21.9459 18.5937 21.9856 18.6994 22.1177C19.1882 22.732 20.0337 23.7031 20.6481 23.9673C20.8528 24.0532 21.051 24.1192 20.9717 23.9805L21.9296 24.9714C20.8991 24.6146 19.8289 24.2381 18.8843 23.6502C17.5896 22.8443 16.8035 22.2498 15.674 21.2458C14.8879 20.5455 14.3462 19.9444 14.1546 19.5481C14.0423 19.3235 13.9895 19.0394 13.9961 18.6299C13.9961 18.359 14.0423 18.108 14.1613 17.6787C14.2603 17.3088 14.3198 17.1832 14.5378 16.8397C14.6963 16.5887 14.9671 16.2122 15.1059 16.0537C15.3106 15.8159 15.6211 15.697 15.9514 15.7828C16.242 15.8621 16.9951 16.1792 17.4179 16.4038C18.237 16.8397 18.957 17.3286 19.7166 17.9429C19.9743 18.1543 21.1303 19.1319 21.4011 19.3631C22.0683 19.951 22.6826 20.6248 23.0195 21.1334C23.548 21.9393 23.4224 22.6924 23.5942 23.6568C23.6206 23.7955 23.6801 23.8286 23.0922 23.2076C22.5571 22.6528 21.1369 21.2061 20.549 20.6248C19.0627 19.165 18.0718 18.3789 16.2751 17.1238C16.242 17.0974 16.2288 17.1238 16.2552 17.1634C16.2817 17.2097 16.3808 17.2889 16.6516 17.5135C17.6028 18.293 18.0388 18.6893 18.9438 19.5877C19.9016 20.5455 23.5678 24.2183 24.0169 24.9119C24.1887 25.1761 24.3671 25.3677 24.5256 25.5791L24.0698 26.0349L24.0566 26.0547ZM25.1333 27.0059C25.2786 26.9068 25.3976 26.7879 25.457 26.6492C25.4702 26.6162 25.4834 26.5964 25.49 26.5964L33.08 34.0212L32.7233 34.4307C32.6902 34.4836 32.6836 34.4836 32.6044 34.4109C32.5647 34.3713 32.3335 34.1533 32.1023 33.9155L25.1333 27.0125V27.0059ZM30.0744 33.0237C29.9819 33.9353 29.9225 34.8469 29.8894 35.7453C29.8234 37.4627 29.8432 39.9333 29.9291 41.8291C29.9291 41.9612 29.9423 42.0867 29.9489 42.2122L29.4534 42.6945C29.4204 41.73 29.4072 40.6863 29.4072 39.4841C29.4138 37.3967 29.5129 34.946 29.678 32.634L30.0678 33.0171L30.0744 33.0237ZM19.6506 49.9409C20.5622 49.2539 21.6125 48.4546 21.9824 48.1772C22.3523 47.8997 23.2771 47.3118 24.0302 46.8825C25.5561 46.0105 26.5734 45.35 27.6303 44.4846L25.2985 46.7702L24.3803 47.6686C23.9641 48.0319 23.6272 48.1243 23.0988 48.5273C22.4514 49.0161 21.9494 49.1813 21.2095 49.4521C20.4499 49.7295 20.2649 49.8022 19.7365 50.0466C19.5515 50.1325 19.3203 50.2382 19.0891 50.3571C19.2675 50.2249 19.4524 50.0929 19.644 49.9409H19.6506ZM24.0104 50.0664C23.5612 50.76 19.8884 54.4394 18.9306 55.3972C18.0322 56.289 17.5962 56.6919 16.645 57.4714C16.3676 57.696 16.2751 57.7819 16.2487 57.8215C16.2222 57.8611 16.2354 57.8876 16.2685 57.8611C18.052 56.6193 19.0693 55.8134 20.5424 54.3601C21.1303 53.7788 22.5571 52.3322 23.0856 51.7773C23.6735 51.1564 23.614 51.196 23.5876 51.3281C23.4158 52.2925 23.5413 53.039 23.0129 53.8515C22.676 54.3667 22.0617 55.0405 21.3945 55.6218C21.1303 55.853 19.9677 56.8373 19.71 57.0486C18.957 57.6564 18.2304 58.1518 17.4112 58.5878C16.9885 58.8124 16.2487 59.1294 15.958 59.2021C15.7334 59.2616 15.5352 59.255 15.3239 59.1228C15.0332 58.9379 14.6963 58.416 14.5246 58.1452C14.3066 57.8017 14.2537 57.6762 14.148 57.3063C14.0291 56.8769 13.9895 56.6259 13.9829 56.355C13.9829 55.9455 14.0291 55.6614 14.1414 55.4368C14.3396 55.0471 14.8813 54.4394 15.6607 53.7392C16.7837 52.7351 17.5896 52.134 18.8645 51.3347C19.9214 50.6807 21.1633 50.2778 22.2995 49.8682C22.2995 49.8682 22.1277 50.0334 21.9229 50.2316C21.3879 50.7468 20.5886 51.5263 19.4062 52.7153C18.3889 53.7326 17.4377 54.664 16.6252 55.5492C16.3081 55.8927 16.0505 56.1833 15.991 56.2626C15.7532 56.573 15.6277 56.758 15.6541 56.7778C15.7136 56.8307 16.0505 56.4277 16.1033 56.4475C16.1958 56.4872 16.1826 56.4674 16.8696 55.7407C17.2395 55.351 17.4311 55.1462 17.5566 55.0339C19.1023 53.6071 20.5159 52.2991 22.0352 50.76C22.7156 50.0796 23.8386 48.9633 24.0104 48.9303L24.486 49.386C24.3406 49.5974 24.1557 49.7824 23.9839 50.0532L24.0104 50.0664ZM25.7014 48.2102C25.5098 48.3952 25.3315 48.5735 25.2985 48.6C25.239 48.6528 25.2456 48.6594 25.1531 48.5141L24.9153 48.2102L32.1023 41.0893L32.6836 40.5278L33.0866 40.9836L25.708 48.2102H25.7014ZM35.2995 65.7352C35.1542 65.537 34.8437 64.8302 34.6257 64.2026C33.7472 61.7189 33.5556 61.1574 33.5556 61.1244L33.7273 61.0253C33.8264 60.946 33.9057 61.2697 34.269 61.1574C34.4738 61.0913 34.4209 61.4877 35.0155 61.2036C35.2599 61.3225 35.2268 61.3093 35.5043 61.3093C35.8346 62.1945 35.861 61.5736 35.861 62.2011C35.8544 63.5619 35.8742 65.2992 35.9006 65.7285V65.8541C35.7157 65.8474 35.3457 65.8078 35.2995 65.7417V65.7352ZM30.9992 47.3911C30.9992 47.2392 31.0124 47.041 30.9133 46.9684C30.8472 46.9221 30.517 46.9287 30.4179 46.9749C30.3122 47.0212 30.2924 47.0873 30.266 47.3977C30.2263 47.8403 30.2329 47.8667 30.3584 47.9196C30.4443 47.9526 30.4377 47.9394 30.4575 48.3291C30.4773 48.6924 30.5434 49.3926 30.5764 49.6172C30.6293 49.9343 30.5038 49.9013 30.55 50.1655C30.616 50.542 30.4707 50.8789 31.0388 50.8723C31.3889 50.8723 31.3625 50.7534 31.3955 50.3901C32.2477 50.0466 32.3666 50.007 34.1369 49.4521C35.4118 49.0491 35.9535 48.8906 35.9601 48.8972L35.9733 49.6238C35.6232 49.6635 35.2334 49.756 34.8437 49.9211C33.2451 50.5949 32.3203 53.2041 32.3401 54.7961C32.3467 55.4567 32.5383 56.5862 32.7497 57.2534C33.146 58.5019 33.7736 59.321 34.6455 59.724C35.0815 59.9221 35.5571 60.0344 35.9469 60.0476C35.9667 61.2499 35.9535 60.2987 35.3788 60.6884C35.141 60.4902 35.0154 60.4704 34.7578 60.6554C34.5597 60.4572 34.454 60.3647 34.1765 60.5431L34.0708 60.4242C33.7736 60.0741 33.549 60.3713 33.4961 60.3383L33.0271 59.4069C32.895 59.2219 32.6638 58.5349 32.1816 56.9033C31.0718 53.1182 30.768 52.2067 30.1735 49.0359C29.9291 47.7412 29.7573 46.5984 29.6384 45.4226L30.2924 44.7819C30.5962 45.6869 31.1841 46.3804 32.393 47.041C33.6349 47.7214 34.4474 47.7214 35.9799 47.8799C35.9799 48.0054 35.9931 48.2829 35.9336 48.2631C34.8503 47.9064 32.1882 47.5034 30.9992 47.4109V47.3911ZM34.8239 48.7585C33.5226 49.168 32.4722 49.5182 31.9306 49.7295L31.3955 49.9607C31.3625 49.7956 31.3295 49.8088 31.0983 49.7758L30.9067 48.164C30.8671 47.6752 31.0124 47.8007 31.3691 47.8469C32.2873 47.979 34.0246 48.2763 34.8569 48.4678C35.425 48.6 35.4844 48.5471 34.8173 48.7519L34.8239 48.7585ZM35.6694 47.2392C34.4408 47.1203 33.7339 47.074 32.6572 46.4597C31.5541 45.8322 31.0454 45.2112 30.8076 44.26L31.1841 43.8901C31.1841 43.8901 31.1841 43.8901 31.1841 43.8967C31.3823 44.8941 31.957 45.819 32.8356 46.103C33.1658 46.2087 33.5226 46.2615 35.5439 46.4861C35.7421 46.506 35.9072 46.5324 35.9138 46.539C35.9535 46.5786 39.0846 46.2946 39.6526 45.9775C40.016 45.7727 40.4585 45.2971 40.6567 44.8875C40.9011 44.3855 40.8879 44.3393 40.9804 43.9033C40.9804 43.8835 40.9804 43.8703 40.987 43.8505L41.2909 44.1477C41.2248 44.4516 41.1455 44.7026 41.0531 44.8942C40.6699 45.6802 39.7583 46.3276 38.9591 46.6909C38.0078 47.1269 37.4662 47.1071 36.4489 47.2392C36.2507 47.2656 35.9535 47.2656 35.6628 47.2392H35.6694ZM37.0236 65.5502C36.8915 65.8012 36.9179 65.7285 36.4819 65.821C36.3696 65.8474 36.2705 65.8606 36.2639 65.8606L36.2507 61.9104C36.3564 61.9104 36.6933 61.5273 36.6603 61.1045C36.6272 60.5497 36.1979 60.5893 36.1847 60.5034C36.1648 60.4043 36.145 60.0344 36.1516 60.0146C36.2309 59.8957 38.0342 60.0741 39.0449 57.4186C39.2893 56.7712 39.5403 55.6482 39.5866 54.9877C39.6394 54.2346 39.4677 53.1513 39.1638 52.3388C38.5363 50.6543 37.6775 49.8616 36.2309 49.6238V48.8312C36.2904 48.8312 36.9906 49.0623 37.3076 49.1813C37.9021 49.4058 38.4967 49.6767 39.9103 50.3637C40.267 50.5354 40.5973 50.6874 40.6567 50.7006C40.9143 50.7666 40.6567 50.945 41.172 50.9582C41.674 50.9714 41.4032 50.8261 41.5815 49.9343C41.6674 49.4983 41.6344 48.0913 41.7202 47.9196C41.7731 47.8139 41.7929 47.4836 41.7665 47.2722C41.7401 47.0873 41.7004 47.0542 41.4692 47.0278C41.0002 46.975 41.1653 47.226 41.0464 47.259L39.4611 47.5298L36.2375 48.3093C36.1582 48.3093 36.1715 48.0186 36.1516 47.8403C37.8163 47.6818 38.6155 47.6487 39.9367 46.8627C41.0332 46.2087 41.5617 45.5217 41.8325 44.6497L42.579 45.383C42.2289 48.8576 41.489 51.9424 40.4585 55.4368C39.6328 58.2443 39.5073 58.7529 38.5495 61.4679C37.9616 63.1457 37.4001 64.8434 37.0302 65.5304L37.0236 65.5502ZM37.1359 48.5934C37.1359 48.5471 40.4916 47.761 40.9408 47.7743C41.0399 47.7743 40.9143 47.8865 41.1852 47.9922L41.1323 49.822L40.8681 49.9607C40.769 50.04 40.7558 50.1061 40.7228 50.2118L38.391 49.102L37.1425 48.5934H37.1359Z" fill="#9C9C9C"/>
<path d="M35.0016 41.3469C35.1602 41.4658 36.2567 41.1619 36.3096 41.1355C36.3954 41.0959 36.4615 40.9902 36.4417 40.9109C36.3888 40.6863 36.151 40.7656 35.9528 40.8184C35.616 40.9109 35.0214 40.9836 34.9488 41.1421C34.9091 41.2214 34.929 41.294 35.0016 41.3469Z" fill="#9C9C9C"/>
<path d="M38.258 60.0674C38.1853 60.0873 38.1325 60.2326 38.0268 60.7148C37.7494 61.9633 37.4455 62.8551 36.851 64.1564C36.6924 64.5131 36.666 64.6122 36.7255 64.6848C36.7651 64.7311 36.8708 64.7377 36.9302 64.698C37.0161 64.6452 37.3266 64.011 37.5776 63.3901C38.0268 62.2804 38.4231 60.7214 38.4033 60.1731C38.4033 60.1137 38.3174 60.0542 38.258 60.0741V60.0674Z" fill="#9C9C9C"/>
<path d="M36.99 62.5776C37.1419 62.069 37.5647 60.9724 37.4259 60.8139C37.3863 60.7677 37.2938 60.7611 37.2608 60.7941C37.241 60.8139 36.7984 62.0492 36.7059 62.3464C36.6465 62.5248 36.6399 62.9211 36.6861 63.0004C36.772 63.1325 36.8578 63.007 36.99 62.5776Z" fill="#9C9C9C"/>
<path d="M32.0358 52.3652L31.8839 51.2884C31.8509 50.8921 31.6659 51.0044 31.6263 51.0771C31.5404 51.2356 31.6395 52.3189 31.7782 52.4577C31.8839 52.57 32.0292 52.5105 32.0358 52.3586V52.3652Z" fill="#9C9C9C"/>
<path d="M40.1741 51.5461C40.1147 51.5064 40.0486 51.5196 40.009 51.5923C39.9496 51.698 39.7778 53.8316 39.8108 54.043C39.8174 54.0827 39.8439 54.1487 39.8769 54.1817C39.9297 54.2544 40.0024 54.2676 40.0552 54.2214C40.1147 54.1685 40.1279 54.0034 40.194 52.9927C40.2798 51.731 40.2732 51.6253 40.1741 51.5527V51.5461Z" fill="#9C9C9C"/>
<path d="M40.8213 52.0283C40.5834 51.916 40.6231 52.2727 40.6165 52.7483C40.6033 53.257 40.6165 53.6929 40.7288 53.8779C40.9468 54.228 41.0392 52.1406 40.8213 52.0283Z" fill="#9C9C9C"/>
<path d="M31.7517 54.162C31.8508 54.2082 31.9697 54.1289 31.9697 54.0232C31.9697 53.9902 31.9169 53.8185 31.8574 53.6401C31.7187 53.2438 31.5073 52.4511 31.4148 51.9292C31.3355 51.4932 31.3025 51.3744 31.2563 51.3215C31.21 51.2687 31.1374 51.2687 31.0911 51.3347C30.9656 51.5131 31.4809 54.0364 31.7517 54.162Z" fill="#9C9C9C"/>
<path d="M38.2058 16.701L38.3644 16.8595C38.404 16.4368 38.4238 16.4368 38.219 15.7564C37.9614 14.8911 37.3933 13.048 37.3339 12.8697C37.1489 12.3544 36.9243 12.6847 36.9243 12.7574L37.902 16.1461C37.9812 16.4236 38.0341 16.5227 38.2058 16.6944V16.701Z" fill="#9C9C9C"/>
<path d="M39.2299 17.8834C39.4281 17.9693 39.3422 17.7513 39.2828 17.5465C39.1903 17.2493 38.8005 15.8753 38.6816 15.7894C38.6222 15.7432 38.5363 15.763 38.5033 15.829C38.4703 15.8951 38.5297 16.1725 38.7147 16.8199C38.86 17.3483 38.9789 17.7711 39.2299 17.8768V17.8834Z" fill="#9C9C9C"/>
<path d="M34.5859 15.2609C34.4604 15.2609 34.3415 15.4789 34.0707 16.2055C33.932 16.5755 33.9254 16.6877 34.0046 16.7604C34.1103 16.8595 34.2028 16.7934 34.249 16.7274C34.2887 16.6679 34.6982 15.5252 34.7114 15.4261C34.7246 15.3336 34.6718 15.2609 34.5859 15.2609Z" fill="#9C9C9C"/>
<path d="M34.5785 42.5029C34.6512 42.5755 34.7701 42.5623 35.0475 42.4434C35.8667 42.0999 36.7915 41.9017 37.7757 41.8621C38.139 41.8489 38.1192 41.8819 38.2249 41.7762C38.3834 41.6111 38.2645 41.4988 38.1654 41.3799C37.3728 41.3667 36.5074 41.479 35.6156 41.7762C35.1268 41.9414 34.605 42.199 34.5455 42.3047C34.5059 42.3774 34.5191 42.45 34.5719 42.5095L34.5785 42.5029Z" fill="#9C9C9C"/>
<path d="M33.5284 17.2691L34.6315 14.0125C34.724 13.7351 34.7306 13.669 34.6579 13.6426C34.5258 13.5963 34.4201 13.7945 34.004 14.8778C33.7662 15.4988 33.2245 16.8992 33.1848 17.2361C33.1716 17.3616 33.1716 17.3748 33.2179 17.4276C33.3302 17.5466 33.4755 17.4739 33.5217 17.2691H33.5284Z" fill="#9C9C9C"/>
<path d="M41.4161 26.8804C41.5152 27.105 41.6209 27.3164 41.6539 27.356C41.6803 27.3957 41.7067 27.4221 41.7133 27.4221C41.7464 27.3957 41.3897 25.3347 41.1849 25.262C40.9405 25.1761 41.0131 25.513 41.0594 25.731C41.1717 26.2925 41.2245 26.4576 41.4227 26.887L41.4161 26.8804Z" fill="#9C9C9C"/>
<path d="M30.8399 27.6137L31.2363 24.9317C31.3023 24.6147 31.3023 24.5949 31.2561 24.542C31.1768 24.4627 31.0777 24.4958 31.005 24.6345C30.7871 25.0308 30.5559 27.4155 30.4369 27.9572C30.4039 28.1157 30.4171 28.261 30.47 28.3073C30.6748 28.479 30.7871 28.0166 30.8399 27.6137Z" fill="#9C9C9C"/>
<path d="M31.6196 25.698C31.7055 25.5659 31.9367 24.3769 31.897 24.2646C31.8706 24.1985 31.7847 24.1919 31.7451 24.2514C31.6592 24.3769 31.3157 25.513 31.5007 25.7112C31.5403 25.7575 31.5865 25.7509 31.6196 25.698Z" fill="#9C9C9C"/>
<path d="M41.0459 27.5608C41.1054 27.6137 41.178 27.6269 41.2177 27.5872C41.4026 27.4089 40.491 25.0638 40.4778 25.0308C40.2466 24.5354 40.1145 24.6807 40.1079 24.8062L40.7024 26.7219C40.894 27.3362 40.9534 27.4749 41.0459 27.5542V27.5608Z" fill="#9C9C9C"/>
<path d="M50.9947 10.6634L51.2457 10.822C51.5562 11.0202 51.7411 11.0267 51.8402 10.8682L52.9962 9.07806L53.2803 9.26302C53.7559 9.57349 53.7823 9.79149 53.7361 10.1812L53.3925 11.9846C53.3595 12.1299 53.5049 12.2752 53.7162 12.414L54.0201 12.6055C54.324 12.7971 54.4957 12.8301 54.5552 12.7442C54.5816 12.7046 54.5948 12.6518 54.608 12.5791L55.0043 10.5445C55.0836 10.1482 55.0506 9.71881 54.9119 9.52725L54.9317 9.50084C55.5592 9.63956 56.1802 9.45458 56.5435 8.88649C57.1116 8.00794 56.8737 7.1492 55.6055 6.33009L54.172 5.4053C53.9673 5.27318 53.8219 5.30621 53.6898 5.51099L50.7106 10.135C50.6115 10.2869 50.6908 10.4521 51.0013 10.6568L50.9947 10.6634ZM54.39 6.91801L55.0374 7.33417C55.4205 7.57858 55.513 7.95509 55.295 8.29198C55.0704 8.64209 54.6212 8.75438 54.3239 8.55621L53.6237 8.10703L54.39 6.91801Z" fill="#9C9C9C"/>
<path d="M21.995 9.85091C22.061 10.0227 22.246 10.0557 22.5829 9.92357L22.8669 9.81128C23.2104 9.67917 23.3227 9.53383 23.2566 9.36208L22.4309 7.23504L24.6306 6.37631L25.4564 8.50334C25.5224 8.67509 25.7074 8.70811 26.0443 8.576L26.3283 8.46371C26.6718 8.3316 26.7841 8.18628 26.7181 8.01453L24.6835 2.80923C24.6174 2.63748 24.4325 2.60445 24.0956 2.73656L23.8115 2.84887C23.468 2.98098 23.3557 3.1263 23.4218 3.29805L24.2079 5.30619L22.0082 6.16492L21.2221 4.1568C21.156 3.98505 20.9711 3.95201 20.6342 4.08413L20.3501 4.19643C20.0066 4.32855 19.8944 4.47387 19.9604 4.64562L21.995 9.85091Z" fill="#9C9C9C"/>
<path d="M34.7438 6.83871H35.041C35.4109 6.85853 35.5695 6.76604 35.5761 6.58108L35.6355 4.44743H35.979C36.5471 4.47385 36.6792 4.65221 36.8444 5.00892L37.4851 6.73302C37.5314 6.87174 37.7361 6.92457 37.9872 6.93118L38.3439 6.9444C38.7006 6.95762 38.8723 6.89154 38.8723 6.78585C38.8723 6.73961 38.8591 6.68677 38.8327 6.62071L38.1193 4.67863C37.9805 4.30211 37.7295 3.95201 37.5115 3.85953V3.82651C38.1193 3.61513 38.5552 3.1395 38.5751 2.46572C38.6081 1.41541 37.9607 0.807698 36.448 0.761458L34.7438 0.715213C34.4993 0.708608 34.3937 0.807699 34.387 1.05211L34.2285 6.55465C34.2285 6.73961 34.3804 6.8387 34.7438 6.85191V6.83871ZM35.7082 1.87782L36.4744 1.89764C36.9302 1.91085 37.2011 2.18169 37.1879 2.58464C37.1746 3.0008 36.851 3.32447 36.4943 3.31786L35.6619 3.29143L35.7016 1.87782H35.7082Z" fill="#9C9C9C"/>
<path d="M27.6366 7.66442C27.6895 7.90222 27.815 7.98149 28.0528 7.92864L31.1773 7.20862C31.3557 7.16899 31.4019 7.02366 31.3358 6.7264L31.2764 6.46218C31.2103 6.16492 31.1046 6.05262 30.9197 6.09226L28.7662 6.58769L28.4491 5.2071L30.3648 4.76451C30.5431 4.72487 30.5894 4.57954 30.5233 4.28228L30.4639 4.01806C30.3978 3.7208 30.2921 3.60851 30.1072 3.64814L28.1915 4.09073L27.9075 2.85547L30.0543 2.36004C30.2327 2.32041 30.2789 2.17507 30.2129 1.87782L30.1534 1.61359C30.0873 1.31634 29.9817 1.20404 29.7967 1.24368L26.6788 1.96369C26.441 2.01654 26.3617 2.14205 26.4146 2.37986L27.63 7.65781L27.6366 7.66442Z" fill="#9C9C9C"/>
<path d="M39.7385 7.10954L40.0423 7.14918C40.4056 7.19542 40.5774 7.10952 40.5972 6.92456L41.2842 1.37578C41.304 1.19082 41.1653 1.07192 40.802 1.02568L40.4981 0.986046C40.1348 0.939806 39.9631 1.02568 39.9432 1.21064L39.2562 6.75942C39.2364 6.94438 39.3751 7.0633 39.7385 7.10954Z" fill="#9C9C9C"/>
<path d="M46.7535 8.69491L49.6798 10.0094C49.8449 10.0821 49.9704 9.99623 50.096 9.71879L50.2083 9.47438C50.3338 9.19694 50.314 9.04502 50.1488 8.96575L48.1341 8.06075L48.7154 6.77265L50.5055 7.57855C50.6706 7.65121 50.7962 7.56534 50.9217 7.2879L51.034 7.04349C51.1595 6.76605 51.1397 6.61411 50.9745 6.53484L49.1844 5.72894L49.7062 4.57294L51.7144 5.47794C51.8795 5.5506 52.005 5.46473 52.1305 5.18729L52.2428 4.94286C52.3683 4.66542 52.3485 4.5135 52.1834 4.43423L49.2702 3.1197C49.0456 3.02062 48.9069 3.07345 48.8078 3.29805L46.5883 8.23912C46.4892 8.46371 46.5421 8.60242 46.7667 8.70151L46.7535 8.69491Z" fill="#9C9C9C"/>
<path d="M42.8225 7.4398C42.8357 7.58513 43.0141 7.67099 43.2585 7.73044L43.7011 7.83613C43.9455 7.89558 44.1437 7.8956 44.2163 7.77009L47.321 2.72332C47.354 2.67048 47.3738 2.61763 47.3805 2.578C47.4069 2.4591 47.2681 2.35341 46.9114 2.27414L46.6472 2.21469C46.4028 2.15524 46.1914 2.18165 46.0857 2.34679L44.0512 5.75534L43.886 6.03279H43.853L43.8266 5.7025L43.5293 1.75229C43.5161 1.55411 43.3312 1.44843 43.0867 1.38898L42.8027 1.32292C42.446 1.23704 42.2676 1.27008 42.2412 1.38898C42.2346 1.42861 42.2412 1.48806 42.2412 1.54751L42.8093 7.4464L42.8225 7.4398Z" fill="#9C9C9C"/>
<path d="M14.7953 8.35139C14.9604 8.60901 15.0992 8.67506 15.2511 8.57598L16.4203 7.82955L18.9569 11.7996C19.056 11.9515 19.2409 11.9515 19.5514 11.7533L19.809 11.5882C20.1195 11.39 20.1988 11.2249 20.0997 11.073L17.5631 7.10292L18.7323 6.35647C18.8842 6.25739 18.8842 6.10546 18.7191 5.84784L18.5738 5.61664C18.4086 5.35901 18.2699 5.29296 18.118 5.39204L14.6368 7.61816C14.4848 7.71725 14.4848 7.86917 14.65 8.12679L14.7953 8.358V8.35139Z" fill="#9C9C9C"/>
<path d="M20.9253 54.6244C21.0773 54.6706 21.7577 53.8317 21.7643 53.8185C21.8039 53.7326 21.7709 53.6599 21.6982 53.6665C21.6718 53.6665 21.6388 53.693 21.3877 53.9374C20.8395 54.4658 20.8329 54.4724 20.8395 54.5451C20.8395 54.5715 20.8857 54.6178 20.9187 54.6244H20.9253Z" fill="#9C9C9C"/>
<path d="M18.1774 52.3916C18.1774 52.3916 18.8247 51.9094 18.8578 51.8169C18.8842 51.7442 18.8313 51.6914 18.7587 51.7046C18.6266 51.731 18.1113 52.2331 18.1113 52.3322C18.1113 52.3718 18.1377 52.3982 18.1774 52.3916Z" fill="#9C9C9C"/>
<path d="M18.6128 53.0588C18.6128 53.0984 18.6524 53.1314 18.6921 53.1314C18.7779 53.1314 18.9431 52.9465 19.1875 52.7021C19.7622 52.1274 20.0727 51.8499 20.4954 51.5262C20.6407 51.4139 20.6738 51.3809 20.8059 51.2356C21.0569 50.9647 21.1164 50.8392 20.6606 51.0374C20.3831 51.1563 20.0661 51.4139 19.5706 51.9094C19.3725 52.1075 18.6128 52.9266 18.6128 53.0654V53.0588Z" fill="#9C9C9C"/>
<path d="M18.9436 52.2198C19.1352 52.0481 19.7099 51.5659 19.7561 51.4932C19.7958 51.4272 19.842 51.3083 19.8222 51.3017C19.809 51.3017 19.6703 51.3413 19.6174 51.3677C19.4126 51.4734 18.6001 52.2991 18.5869 52.4444C18.5869 52.5303 18.7653 52.3784 18.9436 52.2198Z" fill="#9C9C9C"/>
<path d="M53.6031 22.5338C53.4842 22.5867 52.7906 23.2208 52.6717 23.3199C52.4934 23.4652 52.4537 23.5115 52.4141 23.6304C52.4009 23.6634 52.4009 23.6964 52.4009 23.6964C52.4141 23.7031 52.5528 23.6568 52.6123 23.6238C52.8038 23.5247 53.3785 22.95 53.5833 22.6593C53.6494 22.5603 53.6626 22.5008 53.6031 22.5272V22.5338Z" fill="#9C9C9C"/>
<path d="M21.0107 54.7961C21.0107 54.8622 21.09 54.9018 21.1693 54.8622C21.3873 54.7697 22.1271 53.9638 22.3253 53.6467C22.3715 53.574 22.4574 53.3693 22.4442 53.3627C22.4442 53.3627 22.3847 53.4155 22.3055 53.5014C22.0478 53.7854 21.4731 54.3337 21.1825 54.5847C21.0306 54.7102 21.0107 54.7433 21.0107 54.7895V54.7961Z" fill="#9C9C9C"/>
<path d="M20.9123 55.6482C21.1303 55.5161 21.7644 54.9348 22.1013 54.5517C22.458 54.1553 22.8213 53.6665 22.927 53.4485C23.0591 53.1777 22.9204 53.2173 22.8874 53.2636C22.7553 53.4485 22.6297 53.6203 22.2664 54.0761C21.9758 54.4394 21.2624 55.1264 20.8726 55.3972C20.7405 55.4897 20.7207 55.5161 20.7207 55.569C20.7207 55.6614 20.8198 55.7011 20.9123 55.6482Z" fill="#9C9C9C"/>
<path d="M51.2122 20.2681C51.2651 20.1756 51.1726 20.0963 51.0669 20.1426C50.882 20.2218 50.01 21.0872 49.825 21.5232C49.759 21.6883 49.7722 21.6685 49.9307 21.4968C50.1884 21.2127 50.7631 20.6644 51.0537 20.4134C51.133 20.3474 51.2056 20.2813 51.2122 20.2681Z" fill="#9C9C9C"/>
<path d="M53.9336 22.6924C53.7421 22.8575 53.3656 23.1019 53.3722 23.2208C53.3722 23.2407 53.3854 23.2539 53.4052 23.2737C53.4646 23.3199 53.5307 23.2869 53.7553 23.0887C54.2904 22.6131 54.145 22.514 53.9336 22.6924Z" fill="#9C9C9C"/>
<path d="M51.0799 20.5191C50.9214 20.6644 50.492 21.1334 50.4656 21.1863C50.459 21.2061 50.4458 21.2391 50.4458 21.2589C50.4458 21.3052 50.4854 21.3448 50.5251 21.3382C50.5515 21.3382 50.5845 21.3118 50.8355 21.0674C51.3244 20.5984 51.4499 20.5125 51.3508 20.4134C51.2847 20.3474 51.2385 20.3672 51.0734 20.5191H51.0799Z" fill="#9C9C9C"/>
<path d="M51.3572 19.3367C51.1921 19.3895 50.3069 20.2152 49.9634 20.638C49.5076 21.1995 49.25 21.5826 49.25 21.7214C49.25 21.8138 49.3161 21.7742 49.3821 21.6817C49.8709 20.9881 50.6372 20.1096 51.3506 19.6075C51.4827 19.515 51.5025 19.4886 51.5025 19.4358C51.5025 19.3565 51.4299 19.3103 51.3572 19.3367Z" fill="#9C9C9C"/>
<path d="M19.6174 23.6304C19.6769 23.6634 19.8156 23.7096 19.8288 23.703C19.8288 23.703 19.8288 23.67 19.8156 23.637C19.7759 23.5181 19.7363 23.4718 19.5579 23.3265C19.439 23.2274 18.7389 22.5999 18.6266 22.5404C18.5671 22.514 18.5737 22.5735 18.6464 22.6725C18.8511 22.9632 19.4258 23.5313 19.6174 23.637V23.6304Z" fill="#9C9C9C"/>
<path d="M18.4815 23.0887C18.7061 23.2869 18.7722 23.3199 18.8316 23.2737C18.8515 23.2539 18.8647 23.2407 18.8647 23.2208C18.8647 23.1019 18.4947 22.8575 18.3032 22.6924C18.0918 22.514 17.9465 22.6131 18.4815 23.0887Z" fill="#9C9C9C"/>
<path d="M21.1565 20.5191C20.9914 20.3672 20.9451 20.354 20.8791 20.4134C20.78 20.5125 20.9055 20.5984 21.3943 21.0674C21.652 21.3118 21.6784 21.3382 21.7048 21.3382C21.751 21.3382 21.7907 21.2986 21.7841 21.2589C21.7841 21.2391 21.7775 21.2061 21.7643 21.1863C21.7378 21.1268 21.3085 20.6578 21.1499 20.5191H21.1565Z" fill="#9C9C9C"/>
<path d="M21.1699 20.136C21.0642 20.0897 20.9718 20.169 21.0246 20.2615C21.0312 20.2747 21.1039 20.3407 21.1832 20.4068C21.4738 20.6578 22.0485 21.2061 22.3061 21.4901C22.4646 21.6619 22.4779 21.6817 22.4118 21.5166C22.2268 21.0806 21.3549 20.2152 21.1699 20.136Z" fill="#9C9C9C"/>
<path d="M20.879 19.6075C21.5924 20.103 22.3587 20.9815 22.8475 21.6817C22.9135 21.7808 22.9796 21.8204 22.9796 21.7214C22.9796 21.5892 22.7286 21.1995 22.2662 20.638C21.9227 20.2152 21.0375 19.3895 20.8724 19.3367C20.7931 19.3103 20.7271 19.3565 20.7271 19.4358C20.7271 19.4952 20.7469 19.515 20.879 19.6075Z" fill="#9C9C9C"/>
<path d="M51.0673 54.8621C51.1465 54.8951 51.2258 54.8621 51.2258 54.7961C51.2258 54.7432 51.1994 54.7168 51.0541 54.5913C50.7634 54.3403 50.1887 53.792 49.9311 53.508C49.8518 53.4221 49.7924 53.3626 49.7924 53.3692C49.7792 53.3825 49.865 53.5806 49.9113 53.6533C50.1094 53.9638 50.8493 54.7696 51.0673 54.8687V54.8621Z" fill="#9C9C9C"/>
<path d="M51.3049 54.6243C51.3049 54.6243 51.3776 54.5715 51.3842 54.5451C51.3974 54.479 51.3842 54.4658 50.8359 53.9373C50.5783 53.6929 50.5519 53.6665 50.5254 53.6665C50.4528 53.6665 50.4263 53.7392 50.4594 53.8184C50.4594 53.8317 51.1464 54.6706 51.2983 54.6243H51.3049Z" fill="#9C9C9C"/>
<path d="M51.3576 55.3972C50.9679 55.1264 50.2545 54.446 49.9638 54.0761C49.6005 53.6203 49.475 53.4485 49.3429 53.2636C49.3165 53.2239 49.1777 53.1843 49.3032 53.4485C49.4089 53.6665 49.7723 54.1553 50.129 54.5517C50.4659 54.9282 51.1 55.5161 51.318 55.6482C51.4105 55.7011 51.503 55.6614 51.5096 55.569C51.5096 55.5095 51.4897 55.4897 51.3576 55.3972Z" fill="#9C9C9C"/>
<path d="M51.5749 51.0308C51.1125 50.8326 51.1786 50.9581 51.4296 51.229C51.5617 51.3743 51.5947 51.4007 51.7401 51.5196C52.1562 51.8433 52.4733 52.1273 53.048 52.6954C53.2924 52.9398 53.4575 53.1248 53.5434 53.1248C53.5831 53.1248 53.6227 53.0918 53.6227 53.0521C53.6227 52.92 52.863 52.0943 52.6649 51.8961C52.1694 51.4007 51.859 51.1497 51.5749 51.0242V51.0308Z" fill="#9C9C9C"/>
<path d="M52.6126 51.3678C52.5598 51.3413 52.4211 51.2951 52.4079 51.3017C52.3947 51.3083 52.4343 51.4272 52.4739 51.4932C52.5202 51.5659 53.1015 52.0481 53.2864 52.2199C53.4648 52.3784 53.6497 52.5369 53.6431 52.4445C53.6299 52.2991 52.8174 51.4734 52.6126 51.3678Z" fill="#9C9C9C"/>
<path d="M53.4712 51.7112C53.3986 51.698 53.3457 51.7509 53.3721 51.8235C53.4052 51.916 54.0261 52.3916 54.0525 52.3982C54.0922 52.4048 54.1186 52.3784 54.1186 52.3388C54.1186 52.2397 53.5968 51.7443 53.4712 51.7112Z" fill="#9C9C9C"/>
<path d="M14.8218 36.1416C14.8218 37.1919 15.3965 37.608 16.0042 37.8987C16.6582 38.2026 17.3518 38.3545 17.3518 38.8763C17.3518 39.3982 16.9092 39.4907 16.5327 39.4907C15.8324 39.4907 15.4031 39.0877 15.2511 39.0877C15.0662 39.0877 14.7095 39.5964 14.7095 39.8672C14.7095 40.1645 15.4361 40.6335 16.7639 40.6335C17.7151 40.6335 18.739 40.1446 18.739 38.7178C18.739 37.5288 17.867 37.1721 17.147 36.8748C16.6383 36.6766 16.209 36.4983 16.209 36.0161C16.209 35.8179 16.3411 35.5272 17.0215 35.5272C17.6094 35.5272 17.8802 35.7452 17.9925 35.7452C18.2039 35.7452 18.4747 35.2234 18.4747 34.9856C18.4747 34.6949 17.8274 34.3712 16.9026 34.3712C15.8787 34.3712 14.835 34.8799 14.835 36.135L14.8218 36.1416Z" fill="#9C9C9C"/>
<path d="M13.4273 40.5872C13.7972 40.5872 13.9491 40.4815 13.9491 40.2966V34.7081C13.9491 34.5232 13.7906 34.4175 13.4273 34.4175H13.1234C12.7535 34.4175 12.6016 34.5232 12.6016 34.7081V40.2966C12.6016 40.4815 12.7601 40.5872 13.1234 40.5872H13.4273Z" fill="#9C9C9C"/>
<path d="M58.7758 34.4505C58.5248 34.4505 58.3332 34.4836 58.2539 34.6157L57.1772 36.4851L56.1137 34.6157C56.0344 34.4836 55.8428 34.4505 55.5918 34.4505H55.2153C54.8322 34.4505 54.6538 34.5232 54.6538 34.6223C54.6538 34.6751 54.6868 34.7544 54.7397 34.8403L56.477 37.6477V40.323C56.477 40.508 56.6355 40.6004 56.9988 40.6004H57.2961C57.666 40.6004 57.8179 40.5014 57.8179 40.323V37.6741L59.5552 34.8469C59.6081 34.761 59.6345 34.6817 59.6345 34.6289C59.6345 34.5232 59.4694 34.4571 59.0862 34.4571H58.7692L58.7758 34.4505Z" fill="#9C9C9C"/>
<path d="M53.3194 40.6004H53.5705C53.9404 40.6004 54.0923 40.5014 54.0923 40.323V34.7346C54.0923 34.5496 53.9338 34.4571 53.5705 34.4571H53.1147C52.8636 34.4571 52.6589 34.5166 52.5664 34.6949L51.0933 37.2778L51.014 37.4231L50.9414 37.2976L49.4749 34.6883C49.3758 34.5166 49.1777 34.4505 48.9266 34.4505H48.4642C48.0943 34.4505 47.9424 34.5496 47.9424 34.728V40.3164C47.9424 40.5014 48.1009 40.5938 48.4642 40.5938H48.7153C49.0852 40.5938 49.2371 40.4948 49.2371 40.3164V36.7031H49.2701L50.5384 38.9556C50.6177 39.0613 50.7234 39.1208 50.8885 39.1208H51.1396C51.3047 39.1208 51.4104 39.0613 51.4897 38.9556L52.7579 36.6899H52.791V40.3164C52.791 40.5014 52.9495 40.5938 53.3128 40.5938L53.3194 40.6004Z" fill="#9C9C9C"/>
<path d="M29.9418 68.3643L28.1583 67.9415C27.9205 67.8887 27.795 67.9613 27.7355 68.1991L26.4738 73.5564C26.4342 73.7347 26.5597 73.8668 26.923 73.9461L27.2137 74.0121C27.5704 74.098 27.7487 74.0386 27.7884 73.8602L28.2507 71.8851L29.1491 72.0965C29.6115 72.2022 31.1375 72.3343 31.5272 70.6895C31.9103 69.0513 30.7015 68.5294 29.9418 68.3511V68.3643ZM30.1862 70.3856C30.0409 70.9999 29.5983 71.0264 29.2746 70.9537L28.515 70.7753L28.8651 69.2891L29.6247 69.4674C29.9484 69.5467 30.3316 69.7779 30.1862 70.3922V70.3856Z" fill="#9C9C9C"/>
<path d="M47.2685 72.7636C47.2024 72.4664 47.0967 72.3541 46.9118 72.3937L45.0159 72.8297L43.959 68.2387C43.9194 68.0604 43.741 68.0009 43.3843 68.0868L43.0937 68.1528C42.737 68.2321 42.6048 68.3642 42.6445 68.5426L43.8797 73.9064C43.9326 74.1442 44.0581 74.2235 44.2959 74.1707L47.1628 73.5101C47.3411 73.4704 47.3874 73.3251 47.3213 73.0279L47.2619 72.7636H47.2685Z" fill="#9C9C9C"/>
<path d="M60.83 64.9623C60.6384 64.7245 60.4997 64.665 60.3544 64.7839L58.6171 66.1513L57.7385 65.0415L59.2843 63.8261C59.4296 63.7138 59.4098 63.5618 59.2182 63.324L59.0531 63.1127C58.8615 62.8749 58.7228 62.8154 58.5775 62.9343L57.0317 64.1497L56.2457 63.1523L57.9763 61.7915C58.1217 61.6792 58.1019 61.5273 57.9103 61.2895L57.7452 61.0781C57.5536 60.8403 57.4149 60.7809 57.2696 60.8998L54.7594 62.8815C54.5678 63.0334 54.548 63.1787 54.6999 63.3703L55.8427 64.8169C55.8691 65.1538 56.3513 66.0654 56.6816 66.323C56.9128 66.508 56.9459 66.508 56.9789 66.3627C56.9789 66.3362 56.9789 66.29 56.9657 66.2372L58.0556 67.6244C58.2075 67.8159 58.3529 67.8357 58.5444 67.6838L61.0612 65.6955C61.2065 65.5832 61.1867 65.4313 60.9952 65.1935L60.83 64.9821V64.9623Z" fill="#9C9C9C"/>
<path d="M52.5867 71.0659L48.7951 66.4948C48.696 66.3825 48.5044 66.4089 48.2666 66.4948L47.8439 66.6533C47.6061 66.7458 47.4409 66.8515 47.4409 67.0034L47.6391 72.9354C47.6391 73.0014 47.6457 73.0543 47.6589 73.0939C47.7051 73.2062 47.8835 73.2128 48.227 73.0873L48.5507 72.9618C48.7488 72.8891 48.8677 72.7834 48.8611 72.6447L48.8083 71.5217L50.7372 70.7885L51.444 71.6604C51.5365 71.7727 51.728 71.7463 51.9658 71.6604L52.3225 71.5217C52.6066 71.416 52.7057 71.3038 52.6594 71.1849C52.6462 71.1452 52.6198 71.099 52.5802 71.0461L52.5867 71.0659ZM48.7554 70.3261L48.6828 68.6879C48.6828 68.4897 48.6365 68.3048 48.6101 68.1198L48.6431 68.1066C48.7422 68.2651 48.8413 68.4303 48.9668 68.5822L49.9841 69.8571L48.7621 70.3195L48.7554 70.3261Z" fill="#9C9C9C"/>
<path d="M56.285 67.5979C56.1727 67.664 55.9415 68.2057 55.2281 68.6284C54.3627 69.1371 53.5965 68.8002 52.9293 67.6706C52.2621 66.541 52.3414 65.7351 53.2332 65.2067C53.9466 64.7839 54.3892 64.85 54.4817 64.7971C54.6666 64.6848 54.6798 64.011 54.5543 63.7997C54.3694 63.4826 53.3323 63.8129 52.6717 64.2026C51.0004 65.1869 50.6834 66.5741 51.7403 68.3642C52.8368 70.2204 54.125 70.6101 55.816 69.6127C56.4171 69.256 57.3882 68.4435 57.1239 67.9877C57.0513 67.8622 56.536 67.4526 56.2916 67.5979H56.285Z" fill="#9C9C9C"/>
<path d="M18.5734 63.7006L18.5073 63.6477C18.6395 63.4297 18.7584 63.2514 18.7914 63.1919C18.9103 63.0202 18.8376 62.7031 18.6857 62.7031C18.5338 62.7031 18.3026 62.9145 17.9987 63.324C17.893 63.2976 17.8071 63.324 17.7477 63.4033L16.4134 65.0944L14.5637 63.6345L15.8981 61.9435C16.0104 61.7981 15.9509 61.6264 15.6603 61.4018L15.4225 61.2102C15.1318 60.9856 14.9535 60.9592 14.8412 61.1045L11.3798 65.4907C11.2675 65.636 11.327 65.8078 11.6176 66.0324L11.8554 66.224C12.1461 66.4485 12.3244 66.475 12.4433 66.3296L13.857 64.5395L15.7065 65.9994L14.2929 67.7895C14.1806 67.9348 14.2401 68.1066 14.5307 68.3312L14.7685 68.5227C15.0592 68.7473 15.2375 68.7737 15.3564 68.6284L18.8178 64.2422C18.9301 64.0969 18.8707 63.9252 18.58 63.7006H18.5734Z" fill="#9C9C9C"/>
<path d="M40.2596 68.6944L38.4364 68.9058C38.192 68.9322 38.0995 69.0511 38.1259 69.2956L38.7535 74.7651C38.7733 74.95 38.9384 75.0227 39.3084 74.9831L39.6056 74.95C39.9689 74.9104 40.1143 74.7915 40.0944 74.6131L39.8632 72.5984L40.7814 72.4927C41.2504 72.4399 42.7367 72.0369 42.5385 70.3657C42.347 68.6878 41.0258 68.6152 40.253 68.701L40.2596 68.6944ZM40.504 71.3565L39.7311 71.4424L39.5594 69.9231L40.3322 69.8372C40.6625 69.7976 41.1051 69.8901 41.1778 70.511C41.2504 71.1385 40.8409 71.3169 40.5106 71.3499L40.504 71.3565Z" fill="#9C9C9C"/>
<path d="M21.2021 65.2265L20.7926 65.0217C20.568 64.9094 20.3764 64.8632 20.2641 64.9623L16.0365 69.1304C15.9968 69.1767 15.9572 69.2163 15.9374 69.256C15.8845 69.3683 16.0034 69.5004 16.3271 69.6655L16.6376 69.824C16.8225 69.9165 16.9811 69.9363 17.0801 69.8373L17.8662 69.038L19.7092 69.9562L19.5441 71.0659C19.5177 71.2112 19.6762 71.3368 19.9008 71.4491L20.2443 71.6208C20.5151 71.7595 20.667 71.7529 20.7199 71.6406C20.7397 71.601 20.7529 71.5481 20.7661 71.4887L21.5522 65.603C21.5654 65.4577 21.4135 65.3322 21.1889 65.2199L21.2021 65.2265ZM20.1452 67.1487L19.8942 68.7605L18.7184 68.1792L19.8744 67.0166C20.0197 66.8845 20.1254 66.726 20.2443 66.574L20.2773 66.5872C20.2245 66.7656 20.1716 66.9572 20.1452 67.1487Z" fill="#9C9C9C"/>
<path d="M35.7942 69.0049L35.4838 68.9785C35.2328 68.9587 35.0346 68.9785 34.9487 69.104L33.7333 70.8875L32.8151 68.9455C32.749 68.8067 32.5574 68.7605 32.3064 68.7407L31.9299 68.7143C31.5468 68.6878 31.3684 68.7407 31.3618 68.8464C31.3618 68.8992 31.3882 68.9785 31.4345 69.071L32.9538 71.9973L32.749 74.6594C32.7358 74.8443 32.8877 74.95 33.251 74.9765L33.5483 74.9963C33.9116 75.0227 34.0767 74.9434 34.09 74.7585L34.2881 72.1162L36.2368 69.4277C36.2963 69.3418 36.3293 69.2691 36.3293 69.2163C36.3359 69.1106 36.1774 69.0313 35.7942 68.9983V69.0049Z" fill="#9C9C9C"/>
<path d="M25.4169 67.1091L23.673 66.5344C23.4418 66.4551 23.3097 66.5212 23.2304 66.759L21.5063 71.9841C21.4469 72.1559 21.5658 72.3012 21.9159 72.4135L22.1999 72.506C22.55 72.6183 22.7284 72.5786 22.7878 72.4069L23.422 70.4846L24.3005 70.7753C24.7497 70.9206 26.2624 71.1848 26.7909 69.5862C27.3193 67.9877 26.1567 67.3601 25.4169 67.1157V67.1091ZM25.483 69.1437C25.2848 69.7382 24.8356 69.7316 24.5251 69.6259L23.7853 69.3815L24.2675 67.9282L25.0073 68.1726C25.3244 68.2783 25.6877 68.5425 25.4896 69.1437H25.483Z" fill="#9C9C9C"/>
</svg>
