<svg width="67" height="63" viewBox="0 0 67 63" fill="none" xmlns="http://www.w3.org/2000/svg">
<path d="M33.5198 62.8611C33.1266 62.8611 32.7405 62.7326 32.4175 62.4687C31.1326 61.4129 0.934082 36.4802 0.934082 19.4803C0.934082 9.21476 9.156 0.861084 19.2596 0.861084C25.1013 0.861084 30.5007 3.6647 33.9341 8.33021C37.3605 3.6647 42.7598 0.861084 48.6015 0.861084C58.7122 0.861084 66.9341 9.21476 66.9341 19.4803C66.9341 36.4945 35.9211 61.4272 34.6011 62.483C34.2851 62.7398 33.899 62.8611 33.5198 62.8611ZM19.2666 4.42085C11.0939 4.42085 4.45173 11.1766 4.45173 19.4732C4.45173 33.1059 28.1345 54.1435 33.5409 58.7662C35.9773 56.7402 42.0787 51.5112 48.117 45.1335C58.1364 34.547 63.4304 25.6725 63.4304 19.4732C63.4304 11.1695 56.7813 4.42085 48.6085 4.42085C43.0968 4.42085 38.0696 7.50978 35.4928 12.4821C35.1909 13.067 34.5941 13.438 33.9411 13.438C33.2881 13.438 32.6913 13.0742 32.3894 12.4892C29.8126 7.51692 24.7854 4.42799 19.2737 4.42799L19.2666 4.42085Z" fill="#9C9C9C"/>
</svg>
