<svg width="80" height="47" viewBox="0 0 80 47" fill="none" xmlns="http://www.w3.org/2000/svg">
<path d="M16.0582 14.0757C7.19569 14.0757 0 21.2632 0 30.1338C0 39.0045 7.18756 46.192 16.0582 46.192C24.9288 46.192 32.1164 39.0045 32.1164 30.1338C32.1164 21.2632 24.9288 14.0757 16.0582 14.0757ZM18.1153 27.5483C17.9933 27.4507 17.8713 27.3613 17.7412 27.2881L22.0424 17.2385C23.449 17.889 24.7255 18.7671 25.8394 19.8241L18.1153 27.5483ZM16.9932 26.9629C16.8225 26.9141 16.6436 26.8734 16.4647 26.8572V15.9295C18.1722 15.9782 19.7983 16.3197 21.3025 16.9214L17.0013 26.971L16.9932 26.9629ZM15.6516 26.8572C15.4972 26.8734 15.3427 26.9059 15.1963 26.9466L11.1391 16.7994C12.5538 16.2791 14.0662 15.9701 15.6516 15.9295V26.8572ZM14.4483 27.2474C14.2938 27.3369 14.1393 27.4344 14.0011 27.5483L6.27692 19.8241C7.47214 18.6939 8.85435 17.7589 10.3829 17.0922L14.4483 27.2474ZM12.7734 29.7761H1.84567C1.88632 28.0768 2.22781 26.4506 2.81322 24.9546L12.8628 29.2638C12.814 29.4346 12.7896 29.6053 12.7652 29.7842L12.7734 29.7761ZM12.7815 30.5892C12.7978 30.7355 12.8303 30.8819 12.8709 31.0201L2.73191 35.0773C2.21154 33.6707 1.90259 32.1665 1.8538 30.5892H12.7815ZM14.0499 32.7601C14.1637 32.8495 14.2857 32.9227 14.4076 32.9958L10.1065 43.0373C8.708 42.395 7.43148 41.525 6.3257 40.4842L14.058 32.7519L14.0499 32.7601ZM15.1557 33.3129C15.3183 33.3617 15.4809 33.3861 15.6435 33.4105V44.3382C13.9523 44.2894 12.3424 43.9479 10.8464 43.3625L15.1557 33.3129ZM16.4566 33.4105C16.5948 33.3943 16.7412 33.3699 16.8713 33.3373L20.9285 43.4845C19.5219 43.9967 18.0258 44.2976 16.4484 44.3463V33.4186L16.4566 33.4105ZM17.6274 33.0365C17.7738 32.9552 17.9201 32.8658 18.0502 32.7601L25.7825 40.4924C24.5954 41.6144 23.2132 42.5332 21.6928 43.1918L17.6274 33.0365ZM19.3186 30.5892H30.2463C30.1894 32.2803 29.8479 33.9065 29.2543 35.4025L19.2048 31.1014C19.2535 30.9388 19.2942 30.768 19.3186 30.5973V30.5892ZM19.3267 29.7761C19.3105 29.6297 19.2942 29.4752 19.2535 29.337L29.4007 25.2798C29.9129 26.6945 30.2138 28.1987 30.2544 29.7842H19.3267V29.7761ZM29.1161 24.5155L18.9609 28.5809C18.8795 28.4264 18.782 28.2719 18.6763 28.1337L26.4086 20.4014C27.5306 21.5966 28.4657 22.9869 29.1243 24.5155H29.1161ZM5.68337 20.4014L13.4157 28.1337C13.3263 28.2556 13.245 28.3776 13.1636 28.5158L3.1222 24.2147C3.77265 22.8081 4.6345 21.5234 5.68337 20.4095V20.4014ZM3.00835 35.8335L13.1636 31.7681C13.245 31.9145 13.3425 32.0608 13.4482 32.1909L5.72404 39.9151C4.59387 38.728 3.66696 37.3539 3.00024 35.8335H3.00835ZM26.3517 39.9151L18.6275 32.1909C18.7169 32.0771 18.7982 31.9632 18.8795 31.8413L28.9291 36.1424C28.2786 37.5409 27.4087 38.8093 26.3598 39.9151H26.3517Z" fill="#9C9C9C"/>
<path d="M65.9236 14.1976C57.1262 13.1081 49.1012 19.3606 48.0198 28.1581C46.9303 36.9555 53.1828 44.9805 61.9802 46.0619C70.7777 47.1514 78.8027 40.8989 79.8841 32.1015C80.9736 23.304 74.7211 15.279 65.9236 14.1976ZM66.3139 27.8247C66.2082 27.719 66.0944 27.6133 65.9724 27.5157L71.4769 18.076C72.7941 18.8972 73.9568 19.9216 74.9325 21.1087L66.3139 27.8247ZM65.2732 27.1092C65.1106 27.036 64.9398 26.9791 64.7609 26.9384L66.1025 16.0921C67.7856 16.3522 69.3629 16.8889 70.7777 17.6694L65.2732 27.1173V27.1092ZM63.956 26.8327C63.8015 26.8327 63.647 26.8327 63.4925 26.8653L60.7118 16.3035C62.1754 15.962 63.7202 15.84 65.2976 15.9945L63.956 26.8409V26.8327ZM62.712 27.0767C62.5413 27.1417 62.3868 27.223 62.2323 27.3206L55.5163 18.702C56.8416 17.7263 58.3295 16.9702 59.9313 16.4986L62.7201 27.0767H62.712ZM60.7444 29.3858L49.898 28.0442C50.15 26.3612 50.6867 24.7919 51.4509 23.3772L60.8988 28.8817C60.8338 29.0443 60.785 29.2069 60.7444 29.3858ZM60.6549 30.1907C60.6549 30.3371 60.6712 30.4834 60.6874 30.6298L50.1256 33.4105C49.7841 31.9551 49.6622 30.4184 49.8085 28.8492L60.6549 30.1907ZM61.6469 32.4999C61.7526 32.5974 61.8583 32.6869 61.9721 32.7763L56.4676 42.2161C55.1585 41.403 54.004 40.3867 53.0283 39.2158L61.6469 32.4917V32.4999ZM62.6795 33.1828C62.834 33.2479 62.9884 33.2967 63.1592 33.3373L61.8176 44.1837C60.1427 43.9317 58.5897 43.395 57.175 42.6307L62.6795 33.1828ZM63.9641 33.443C64.1105 33.443 64.2487 33.443 64.3869 33.4186L67.1676 43.9886C65.7122 44.3219 64.1837 44.4358 62.6226 44.2894L63.9641 33.443ZM65.1756 33.2154C65.3301 33.1503 65.4846 33.0853 65.6309 32.9958L72.355 41.6144C71.0379 42.582 69.5581 43.3219 67.9644 43.7934L65.1756 33.2154ZM67.1595 30.9957L78.0059 32.3372C77.7457 34.0122 77.2009 35.5814 76.4285 36.988L66.9887 31.4835C67.0619 31.329 67.1189 31.1664 67.1595 30.9957ZM67.2733 30.1907C67.2733 30.0363 67.2733 29.8899 67.2571 29.7435L77.827 26.9628C78.1604 28.4264 78.2742 29.9631 78.1197 31.5323L67.2733 30.1907ZM77.6319 26.1742L67.0538 28.963C66.9888 28.7923 66.9156 28.6378 66.8261 28.4833L75.4447 21.7592C76.4123 23.0845 77.1684 24.5724 77.6319 26.1742ZM54.8821 19.2143L61.6062 27.8328C61.5005 27.9385 61.403 28.0605 61.3135 28.1824L51.8737 22.6779C52.6868 21.3608 53.7113 20.1981 54.8821 19.2143ZM50.337 34.2073L60.9151 31.4185C60.9801 31.573 61.0615 31.7274 61.1509 31.8738L52.5323 38.5898C51.5566 37.2726 50.8086 35.7928 50.337 34.1992V34.2073ZM72.9974 41.1266L66.2814 32.508C66.3871 32.4104 66.4847 32.3047 66.5741 32.1909L76.0139 37.6954C75.1927 39.0044 74.1763 40.159 72.9974 41.1266Z" fill="#9C9C9C"/>
<path d="M34.6614 31.3859L14.0581 31.1989L29.4414 7.88815H57.7526C58.5169 7.88815 59.1755 8.3516 59.4357 9.06711C59.6959 9.78261 59.4845 10.5632 58.899 11.051L34.6532 31.3859H34.6614ZM18.0665 29.0687L33.8727 29.2069L56.7037 10.0591H30.6041L18.0584 29.0687H18.0665Z" fill="#9C9C9C"/>
<path d="M32.9052 30.5078L27.547 3.58702C27.4169 2.93657 26.8397 2.45685 26.1729 2.45685H21.7173V0.28595H26.1729C27.8723 0.28595 29.3439 1.49743 29.6773 3.16423L35.0354 30.0851L32.9052 30.5078Z" fill="#9C9C9C"/>
<path d="M63.0535 30.4184L56.4758 6.0913C56.2481 5.2457 56.4189 4.36759 56.9555 3.66834C57.484 2.97723 58.2971 2.57883 59.1671 2.57883H64.6472C66.7124 2.57883 68.3873 4.25376 68.3873 6.31896C68.3873 8.38416 66.7124 10.0591 64.6472 10.0591H61.59V7.88819H64.6472C65.5171 7.88819 66.2164 7.18082 66.2164 6.31896C66.2164 5.4571 65.509 4.74973 64.6472 4.74973H59.1671C58.8987 4.74973 58.7442 4.90421 58.6792 4.99365C58.606 5.08309 58.5085 5.2701 58.5735 5.53028L65.1513 29.8574L63.0535 30.4266V30.4184Z" fill="#9C9C9C"/>
<path d="M38.6618 30.2964C38.6618 32.8901 36.556 34.996 33.9623 34.996C31.3686 34.996 29.2627 32.8901 29.2627 30.2964C29.2627 27.7027 31.3686 25.5969 33.9623 25.5969C36.556 25.5969 38.6618 27.7027 38.6618 30.2964Z" fill="#9C9C9C"/>
<path d="M30.6535 2.45684H21.4821C20.8804 2.45684 20.3926 1.96899 20.3926 1.36732C20.3926 0.765645 20.8804 0.277802 21.4821 0.277802H30.6535C31.2552 0.277802 31.7431 0.765645 31.7431 1.36732C31.7431 1.96899 31.2552 2.45684 30.6535 2.45684Z" fill="#9C9C9C"/>
</svg>
