<svg width="53" height="64" viewBox="0 0 53 64" fill="none" xmlns="http://www.w3.org/2000/svg">
<path d="M13.0883 63.0504C6.2145 63.0504 0.62207 58.4489 0.62207 52.7934C0.62207 47.1378 6.2145 42.5364 13.0883 42.5364C13.5301 42.5364 13.9783 42.5553 14.4264 42.5995L5.43181 13.8862C5.35607 13.6401 5.38132 13.3749 5.50124 13.1477C5.62117 12.9205 5.82947 12.7564 6.08195 12.6869L51.3074 0.113448C51.6041 0.0313921 51.9197 0.094492 52.1532 0.290164C52.3931 0.479524 52.5193 0.776188 52.5067 1.07916C51.7366 14.65 50.2849 40.5166 50.2723 41.2614C50.2723 45.8755 45.7213 49.6311 40.1289 49.6311C34.5364 49.6311 29.9855 45.8691 29.9855 41.2487C29.9855 36.6284 34.5364 32.8664 40.1289 32.8664C40.7348 32.8664 41.3345 32.9106 41.9215 32.999L42.559 18.8601L19.394 28.2018L25.1126 49.4543C25.1631 49.6437 25.1505 49.8457 25.0874 50.0224C25.3967 50.9314 25.5545 51.8592 25.5545 52.7871C25.5545 58.4426 19.962 63.0441 13.0883 63.0441V63.0504ZM13.0883 44.43C7.25598 44.43 2.51567 48.1793 2.51567 52.7934C2.51567 57.4074 7.25598 61.1568 13.0883 61.1568C18.9206 61.1568 23.6609 57.4074 23.6609 52.7934C23.6609 51.916 23.4778 51.0386 23.1243 50.1865C23.017 49.934 23.0297 49.6563 23.137 49.4228L17.3489 27.8988C17.2226 27.4381 17.4625 26.9521 17.9106 26.7753L43.2218 16.5688C43.5184 16.4489 43.8593 16.4868 44.1244 16.6761C44.3895 16.8592 44.5346 17.1685 44.522 17.4904L43.7646 34.1982C43.752 34.4823 43.6131 34.7474 43.3859 34.9115C43.1586 35.0819 42.8683 35.1387 42.5906 35.0693C41.7889 34.8736 40.9621 34.7726 40.1289 34.7726C35.5779 34.7726 31.8791 37.6825 31.8791 41.2614C31.8791 44.8403 35.5779 47.7501 40.1289 47.7501C44.6798 47.7501 48.3787 44.8403 48.3787 41.2614C48.3787 40.6554 50.1145 9.91596 50.5437 2.29738L7.53371 14.2523L16.6861 43.4643C16.7871 43.7799 16.7114 44.127 16.4904 44.3795C16.2695 44.6257 15.9287 44.7393 15.6068 44.6762C14.7546 44.512 13.9088 44.43 13.0946 44.43H13.0883Z" fill="#9C9C9C"/>
</svg>
