<svg width="78" height="74" viewBox="0 0 78 74" fill="none" xmlns="http://www.w3.org/2000/svg">
<g clip-path="url(#clip0_139_356)">
<path d="M19.5295 72.2176C17.8811 70.406 17.9511 67.9412 19.7161 65.6241L26.2941 55.8039L23.7204 45.2449C23.5805 44.654 23.9381 44.0553 24.5291 43.9076C25.1122 43.7676 25.7187 44.1253 25.8664 44.7162L28.5567 55.7494C28.6267 56.0527 28.5722 56.3715 28.4012 56.628L21.5122 66.9071C20.6958 67.98 20.0116 69.4651 21.1623 70.7325C22.1032 71.7666 23.6271 71.9688 24.6768 71.0047L31.2003 61.2699C31.5424 60.7645 32.2267 60.6246 32.7321 60.9667C33.2375 61.3088 33.3774 61.993 33.0353 62.4984L26.4496 72.3343C26.4107 72.3965 26.364 72.4509 26.3096 72.5053C24.3658 74.4336 21.3489 74.2159 19.5295 72.2176ZM34.9014 56.7913C34.3416 56.7913 33.8595 56.3637 33.805 55.7883C33.7817 55.5784 33.7506 55.3684 33.6884 55.1585L31.6824 47.2587C31.5346 46.6678 31.8923 46.0691 32.4832 45.9136C33.0664 45.7581 33.6806 46.1235 33.8284 46.7145L35.8266 54.5987C35.9122 54.9097 35.9744 55.244 36.0055 55.5706C36.0677 56.1771 35.6167 56.7213 35.0102 56.7758C34.9714 56.7758 34.9403 56.7758 34.9014 56.7758V56.7913ZM61.7652 51.6363C61.2132 51.6363 60.6611 51.543 60.1246 51.3408L45.3825 46.2557C44.2707 46.1158 35.088 44.9339 28.3001 44.1097C25.5632 43.7754 24.288 42.438 23.6893 41.3728C22.4841 39.2035 22.7874 36.0156 24.5835 32.1357C25.7576 29.6009 28.2379 24.1815 29.4431 21.5612L24.4902 21.3124L13.7991 24.6791C11.7464 25.1457 9.79477 23.9016 9.35158 21.9344C8.90838 19.9517 10.168 18.0157 12.1196 17.5802L23.1139 14.1124C23.2928 14.0502 23.9692 13.9803 24.3036 13.9958L35.259 14.5478C35.8655 14.579 36.3398 15.0999 36.3087 15.7064C36.2776 16.3129 35.7567 16.8105 35.1502 16.7561L24.1869 16.204C23.9381 16.204 23.8215 16.2507 23.6116 16.2662L12.7028 19.7185C11.7697 19.9362 11.3576 20.7215 11.5209 21.4601C11.692 22.2299 12.4617 22.7275 13.2315 22.5487L24.0237 19.1509C24.1481 19.112 24.288 19.0887 24.4124 19.1042L31.1925 19.4463C31.558 19.4619 31.8923 19.664 32.0867 19.975C32.2733 20.2861 32.2966 20.6748 32.1489 21.0092C32.1489 21.0092 28.1912 29.6631 26.6129 33.0765C25.1666 36.1866 24.8167 38.8225 25.6409 40.3076C26.1463 41.2173 27.1105 41.7538 28.5878 41.9326C35.8344 42.8112 45.8024 44.0942 45.8024 44.0942C45.8724 44.102 45.9501 44.1253 46.0201 44.1486L60.8944 49.2803C62.2317 49.7702 63.709 49.086 64.1989 47.7564C64.4322 47.111 64.4011 46.419 64.1134 45.797C63.8257 45.175 63.3125 44.7084 62.6671 44.4674C59.386 43.2156 50.5065 39.8955 48.7182 39.5145L33.5407 36.0389C32.9498 35.899 32.5765 35.308 32.7087 34.7093C32.8487 34.1106 33.4474 33.7452 34.0305 33.8774L49.2002 37.3452C51.5095 37.835 62.9548 42.2048 63.4447 42.3914C64.6265 42.819 65.5829 43.6976 66.1194 44.8562C66.6559 46.0147 66.7103 47.3132 66.2749 48.5106C65.8395 49.708 64.9609 50.6643 63.8023 51.2008C63.1648 51.4963 62.4805 51.6518 61.7885 51.6518L61.7652 51.6363ZM44.1229 34.756C42.8322 33.2165 43.0266 30.9072 44.5739 29.6165L46.3 28.1858L45.6469 27.696C45.1571 27.3305 45.0638 26.6385 45.4292 26.1487C45.7946 25.6666 46.4866 25.5655 46.9765 25.931L48.757 27.2605C49.0292 27.4627 49.1925 27.7815 49.2002 28.1158C49.208 28.4579 49.0603 28.7767 48.7959 28.9944L45.9968 31.3115C45.3981 31.8169 45.3203 32.7188 45.8257 33.3331C46.3311 33.9318 47.2409 34.0173 47.8473 33.5042L53.049 29.1966C53.7566 28.6057 53.7566 27.3305 52.9013 26.794L45.9346 21.5845C44.7139 27.1517 40.2508 33.5508 40.0409 33.8463C39.6832 34.3439 38.999 34.4605 38.5014 34.1184C38.0037 33.7685 37.8793 33.0765 38.2292 32.5789C38.2837 32.5011 43.6486 24.8113 44.0063 19.5318C44.0452 18.6532 45.0715 18.1712 45.7869 18.7154L54.1531 24.9746C56.2058 26.2653 56.2914 29.3677 54.4642 30.8994L49.2624 35.207C47.7307 36.4899 45.4292 36.2955 44.1307 34.756H44.1229ZM43.1821 17.0437C38.6569 17.0437 34.9714 13.3582 34.9714 8.83297C34.9714 4.30771 38.6491 0.629974 43.1744 0.629974C47.6996 0.629974 51.3851 4.30771 51.3851 8.83297C51.3851 13.3582 47.7074 17.0437 43.1744 17.0437H43.1821ZM43.1821 2.83817C39.8776 2.83817 37.1873 5.52844 37.1873 8.83297C37.1873 12.1375 39.8776 14.8278 43.1821 14.8278C46.4866 14.8278 49.1769 12.1375 49.1769 8.83297C49.1769 5.52844 46.4866 2.83817 43.1821 2.83817Z" fill="#9C9C9C"/>
<path d="M42.2491 59.9637H29.8941C29.2876 59.9637 28.79 59.466 28.79 58.8596C28.79 58.2531 29.2876 57.7555 29.8941 57.7555H42.2491C42.8633 57.7555 43.3532 58.2531 43.3532 58.8596C43.3532 59.466 42.8556 59.9637 42.2491 59.9637ZM21.2245 59.9637H2.79697C2.19049 59.9637 1.69287 59.466 1.69287 58.8596C1.69287 58.2531 2.19049 57.7555 2.79697 57.7555H21.2323C21.8388 57.7555 22.3364 58.2531 22.3364 58.8596C22.3364 59.466 21.8388 59.9637 21.2323 59.9637H21.2245ZM20.1904 45.1438H8.54295C7.93647 45.1438 7.43885 44.6462 7.43885 44.0397C7.43885 43.4333 7.93647 42.9356 8.54295 42.9356H20.1904C20.7969 42.9356 21.2945 43.4333 21.2945 44.0397C21.2945 44.6462 20.7969 45.1438 20.1904 45.1438ZM66.7181 40.5642C62.4417 38.9935 60.2412 34.2428 61.8041 29.9741C63.3747 25.6977 68.1255 23.4895 72.3941 25.0601C76.6706 26.6307 78.871 31.3815 77.3081 35.6501C75.7375 39.9266 70.9868 42.1348 66.7181 40.5642ZM63.8801 30.7283C62.7371 33.854 64.3466 37.3374 67.4801 38.4881C70.6213 39.6389 74.0892 38.0216 75.2399 34.8882C76.3829 31.7625 74.7734 28.2791 71.6399 27.1284C68.4987 25.9776 65.0309 27.6104 63.8801 30.7283ZM21.2245 30.1374H8.98615C8.37967 30.1374 7.88204 29.6398 7.88204 29.0333C7.88204 28.4268 8.37967 27.9292 8.98615 27.9292H21.2245C21.831 27.9292 22.3286 28.4268 22.3286 29.0333C22.3286 29.6398 21.831 30.1374 21.2245 30.1374ZM4.26651 30.1374H1.46738C0.860904 30.1374 0.363281 29.6398 0.363281 29.0333C0.363281 28.4268 0.860904 27.9292 1.46738 27.9292H4.26651C4.88076 27.9292 5.37061 28.4268 5.37061 29.0333C5.37061 29.6398 4.87298 30.1374 4.26651 30.1374Z" fill="#9C9C9C"/>
<path d="M44.4568 34.4683C43.3294 33.1232 43.4849 31.1016 44.8456 29.9508L46.9994 28.1625L45.8953 27.3383C45.5998 27.1206 45.5376 26.7007 45.7631 26.413C45.9808 26.1176 46.3929 26.0554 46.6884 26.2808L48.4689 27.6104C48.6322 27.7271 48.7333 27.9214 48.7333 28.1236C48.7333 28.3258 48.6478 28.5201 48.4922 28.6523L45.6931 30.9694C44.9078 31.6303 44.799 32.8199 45.4676 33.613C46.1363 34.4061 47.3182 34.5072 48.1113 33.8385L53.313 29.5309C54.2616 28.7379 54.2149 27.105 53.1186 26.413L44.6979 20.115C44.4024 19.8973 44.3402 19.4774 44.5657 19.182C44.7834 18.8865 45.2033 18.8321 45.4987 19.0498L53.8806 25.3167C55.7311 26.483 55.7622 29.2199 54.176 30.5495L48.9743 34.8571C47.6292 35.9923 45.5998 35.8212 44.4646 34.4605L44.4568 34.4683Z" fill="#9C9C9C"/>
<path d="M38.7345 33.753C38.439 33.543 38.3612 33.1309 38.5712 32.8277C38.6256 32.7499 44.0684 24.9435 44.426 19.5396C44.4493 19.1742 44.7293 18.8787 45.1336 18.9254C45.499 18.9487 45.7712 19.2675 45.7478 19.6329C45.3668 25.41 39.8852 33.2631 39.652 33.5897C39.442 33.8851 39.0299 33.9629 38.7267 33.753H38.7345Z" fill="#9C9C9C"/>
<path d="M61.7576 51.1931C61.26 51.1931 60.7546 51.1075 60.2725 50.9287L45.4138 45.797C45.3127 45.797 35.5002 44.5374 28.3469 43.6665C26.302 43.4177 24.8636 42.5702 24.0705 41.1473C22.9353 39.1102 23.2463 36.0545 24.9802 32.3145C26.2476 29.5698 29.0545 23.4351 30.1042 21.1413L24.4204 20.8537L13.6515 24.2437C11.8865 24.648 10.1604 23.5517 9.77161 21.8256C9.38284 20.0994 10.4714 18.3889 12.2053 18.0001L23.2307 14.5245C23.3629 14.4779 24.0627 14.4079 24.2571 14.4234L35.2126 14.9755C35.578 14.991 35.8579 15.3098 35.8424 15.6753C35.8268 16.0407 35.5236 16.2973 35.1426 16.3051L24.1793 15.753C24.0938 15.753 23.8139 15.7686 23.6973 15.7919L12.5396 19.2753C11.4044 19.5318 10.8446 20.5582 11.0623 21.5301C11.2878 22.5409 12.2908 23.1863 13.3016 22.953L24.1249 19.5396C24.2027 19.5163 24.2804 19.5085 24.3582 19.5085L31.1383 19.8506C31.356 19.8662 31.5581 19.9828 31.6748 20.1694C31.7914 20.356 31.807 20.5893 31.7136 20.7915C31.7136 20.7915 27.756 29.4454 26.1776 32.8588C24.6536 36.1478 24.3115 38.8614 25.2212 40.4864C25.7966 41.5128 26.9007 42.1348 28.5024 42.3292C35.7491 43.2078 45.7093 44.4907 45.7093 44.4907L60.7157 49.6536C61.4777 49.9335 62.3019 49.8946 63.025 49.5602C63.7559 49.2259 64.3079 48.6194 64.5801 47.8652C64.86 47.111 64.8211 46.2946 64.4868 45.5715C64.1524 44.8406 63.5459 44.2886 62.7917 44.0164C62.6673 43.9698 50.9732 39.5067 48.7883 39.0402L33.6108 35.5646C33.2532 35.4869 33.0277 35.1292 33.1132 34.7715C33.191 34.4139 33.5409 34.1806 33.9063 34.2739L49.0682 37.7417C51.3464 38.2238 62.7684 42.5858 63.2505 42.7646C64.3312 43.1611 65.1943 43.9542 65.6842 45.0039C66.174 46.0536 66.2207 47.2276 65.8241 48.3162C65.4276 49.4047 64.6267 50.2678 63.577 50.7577C62.9939 51.0298 62.3796 51.162 61.7498 51.162L61.7576 51.1931Z" fill="#9C9C9C"/>
<path d="M34.9013 56.3481C34.5592 56.3481 34.2715 56.0915 34.2404 55.7494C34.2171 55.5162 34.1782 55.2829 34.1083 55.0496L32.11 47.1577C32.0167 46.8 32.2344 46.4423 32.5921 46.349C32.942 46.2557 33.3074 46.4734 33.4007 46.8311L35.399 54.7153C35.4767 55.0108 35.5311 55.3218 35.5622 55.625C35.6011 55.9905 35.329 56.317 34.9635 56.3481C34.9402 56.3481 34.9169 56.3481 34.9013 56.3481Z" fill="#9C9C9C"/>
<path d="M19.8563 71.9144C18.3634 70.2738 18.4412 68.0189 20.0662 65.8807L26.7686 55.8738L24.1483 45.1283C24.0628 44.7706 24.2805 44.413 24.6381 44.3274C24.9958 44.2341 25.3535 44.4596 25.439 44.8173L28.1293 55.8505C28.1759 56.0293 28.137 56.2237 28.036 56.3792L21.147 66.6582C20.4006 67.6379 19.4131 69.4496 20.836 71.028C22.0412 72.3498 23.915 72.3809 25.058 71.2457L31.5582 61.511C31.7603 61.2077 32.1724 61.1222 32.4757 61.3321C32.7789 61.5343 32.8644 61.9464 32.6545 62.2496L26.0688 72.0854C24.1949 73.9826 21.4891 73.7183 19.8485 71.9144H19.8563Z" fill="#9C9C9C"/>
<path d="M43.1743 16.6006C38.8901 16.6006 35.4067 13.1172 35.4067 8.83298C35.4067 4.54876 38.8901 1.07318 43.1743 1.07318C47.4585 1.07318 50.9419 4.55654 50.9419 8.83298C50.9419 13.1094 47.4585 16.6006 43.1743 16.6006ZM43.1743 2.39499C39.621 2.39499 36.7363 5.27965 36.7363 8.83298C36.7363 12.3863 39.621 15.271 43.1743 15.271C46.7276 15.271 49.6123 12.3863 49.6123 8.83298C49.6123 5.27965 46.7276 2.39499 43.1743 2.39499Z" fill="#9C9C9C"/>
<path d="M44.7916 34.1806C43.8119 33.0143 43.9596 31.2726 45.1337 30.2929L47.7151 28.1547L46.16 26.9884C46.0667 26.9184 46.0434 26.7785 46.1134 26.6774C46.1911 26.5841 46.3311 26.5608 46.4244 26.6307L48.2049 27.9603C48.2594 27.9992 48.2905 28.0614 48.2905 28.1314C48.2905 28.2014 48.2594 28.2636 48.2127 28.3102L45.4136 30.6273C44.4339 31.4515 44.3095 32.9132 45.1337 33.8929C45.919 34.826 47.3652 35.0437 48.4071 34.1728L53.601 29.8653C54.7207 28.9245 54.7518 26.9107 53.36 26.032L44.9626 19.7573C44.8693 19.6874 44.846 19.5474 44.916 19.4463C44.9937 19.353 45.1337 19.3297 45.227 19.3997L53.6088 25.6666C55.2416 26.7007 55.2416 29.0644 53.8809 30.2074L48.6792 34.5149C47.5363 35.4713 45.7868 35.3702 44.7838 34.1728L44.7916 34.1806Z" fill="#9C9C9C"/>
<path d="M38.9911 33.3875C38.8901 33.3175 38.8667 33.1776 38.9367 33.0765C38.9911 32.9987 44.5039 25.099 44.8771 19.5707C44.8849 19.4463 44.9937 19.3608 45.1103 19.3686C45.2347 19.3763 45.3203 19.4852 45.3125 19.6018C44.9393 25.2545 39.5276 33.0065 39.2944 33.3331C39.2244 33.4264 39.0922 33.4575 38.9834 33.3875H38.9911Z" fill="#9C9C9C"/>
<path d="M61.7575 50.7499C61.3066 50.7499 60.8556 50.6721 60.4202 50.5088L45.5537 45.3771C45.4993 45.3771 35.5546 44.0942 28.3935 43.2311C26.4963 42.9979 25.1667 42.2281 24.4514 40.9374C23.4017 39.0557 23.7283 36.0622 25.3767 32.5011C26.784 29.4687 30.0652 22.2765 30.7728 20.7293L24.3581 20.4027L13.5115 23.8161C12.0108 24.1582 10.5257 23.2096 10.1914 21.7245C9.85707 20.2394 10.7901 18.7621 12.283 18.4277L23.3473 14.9444C23.5028 14.9055 23.9071 14.8666 24.2181 14.8666L35.1814 15.4187C35.3058 15.4187 35.3991 15.5275 35.3913 15.6519C35.3913 15.7764 35.2747 15.8697 35.1581 15.8619L24.1948 15.3098C24.0782 15.2943 23.6272 15.3565 23.5106 15.372L12.3918 18.8632C11.0856 19.1586 10.3391 20.4105 10.619 21.639C10.899 22.8908 12.143 23.6761 13.3871 23.404L24.2492 19.9828C24.2492 19.9828 24.2959 19.975 24.327 19.975L31.1071 20.3172C31.1849 20.3172 31.2471 20.356 31.2859 20.426C31.3248 20.4882 31.3326 20.566 31.3015 20.6282C31.3015 20.6282 27.3438 29.2821 25.7654 32.6955C24.1793 36.1167 23.8449 38.9702 24.8246 40.7275C25.47 41.886 26.6829 42.5858 28.4324 42.7957C35.5935 43.6665 45.5381 44.9417 45.6392 44.9572L60.5601 50.0967C61.4232 50.4155 62.364 50.3689 63.196 49.9879C64.0279 49.5991 64.6655 48.9071 64.9843 48.0441C65.3031 47.181 65.2642 46.2402 64.8677 45.4082C64.4789 44.5762 63.7947 43.9387 62.9238 43.6199C62.8072 43.5732 51.082 39.1024 48.8582 38.6281L33.6885 35.1603C33.5719 35.1292 33.4941 35.0126 33.5252 34.8959C33.5563 34.7793 33.6652 34.7016 33.7896 34.7327L48.9515 38.2005C51.2064 38.6825 62.5895 43.0212 63.0793 43.2078C64.0513 43.5654 64.8288 44.2808 65.272 45.2216C65.7074 46.1624 65.7541 47.2199 65.3964 48.1996C65.0387 49.1793 64.3234 49.949 63.3826 50.3922C62.8616 50.6332 62.3018 50.7577 61.742 50.7577L61.7575 50.7499Z" fill="#9C9C9C"/>
<path d="M34.9014 55.9049C34.7925 55.9049 34.6914 55.8194 34.6837 55.7028C34.6603 55.4384 34.6137 55.1818 34.5437 54.9253L32.5454 47.041C32.5143 46.9244 32.5843 46.8 32.7087 46.7767C32.8254 46.7378 32.942 46.8233 32.9731 46.94L34.9714 54.8242C35.0491 55.0963 35.0958 55.384 35.1269 55.6639C35.1424 55.7883 35.0491 55.8972 34.9247 55.9049C34.9247 55.9049 34.9091 55.9049 34.9014 55.9049Z" fill="#9C9C9C"/>
<path d="M20.1828 71.6189C18.8221 70.1261 18.9077 68.1356 20.4161 66.1528L27.2428 55.9671L24.5759 45.0272C24.5448 44.9106 24.6225 44.7862 24.7392 44.7629C24.8558 44.7318 24.9802 44.8095 25.0035 44.9261L27.6938 55.9594C27.7094 56.0216 27.6938 56.0838 27.6627 56.1304L20.7737 66.4094C19.3975 68.2133 19.3042 70.0016 20.5094 71.3235C21.8778 72.8241 24.0394 72.8863 25.369 71.5567L31.9314 61.7598C31.9936 61.6587 32.1335 61.6354 32.2346 61.6976C32.3357 61.7676 32.3668 61.8997 32.2968 62.0008L25.7111 71.8366C24.086 73.4617 21.6601 73.2362 20.1828 71.6189Z" fill="#9C9C9C"/>
<path d="M43.1745 16.1573C39.1391 16.1573 35.8501 12.8684 35.8501 8.83296C35.8501 4.79755 39.1391 1.51636 43.1745 1.51636C47.2099 1.51636 50.4989 4.79756 50.4989 8.84074C50.4989 12.8839 47.2177 16.1651 43.1745 16.1651V16.1573ZM43.1745 1.95178C39.3801 1.95178 36.2933 5.03859 36.2933 8.83296C36.2933 12.6273 39.3801 15.7141 43.1745 15.7141C46.9689 15.7141 50.0557 12.6273 50.0557 8.83296C50.0557 5.03859 46.9689 1.95178 43.1745 1.95178Z" fill="#9C9C9C"/>
<path d="M66.8738 40.1521C62.8228 38.667 60.7391 34.1728 62.2241 30.1219C63.6781 26.1642 68.1101 23.9638 72.2543 25.4722C76.3053 26.9573 78.3891 31.4514 76.904 35.5024C75.45 39.4678 71.0025 41.6605 66.8738 40.1521ZM63.4682 30.5806C62.2397 33.9396 63.9658 37.6717 67.3248 38.908C70.7226 40.1521 74.4314 38.3637 75.6522 35.0437C76.8807 31.6847 75.1546 27.9525 71.7878 26.724C68.3744 25.4722 64.6734 27.2761 63.4682 30.5884V30.5806Z" fill="#9C9C9C"/>
<path d="M21.2323 29.702H8.99391C8.62847 29.702 8.33301 29.4065 8.33301 29.0411C8.33301 28.6757 8.62847 28.3802 8.99391 28.3802H21.2323C21.5978 28.3802 21.8932 28.6757 21.8932 29.0411C21.8932 29.4065 21.5978 29.702 21.2323 29.702Z" fill="#9C9C9C"/>
<path d="M20.198 44.7007H8.55055C8.18511 44.7007 7.88965 44.4052 7.88965 44.0398C7.88965 43.6743 8.18511 43.3788 8.55055 43.3788H20.198C20.5635 43.3788 20.8589 43.6743 20.8589 44.0398C20.8589 44.4052 20.5635 44.7007 20.198 44.7007Z" fill="#9C9C9C"/>
<path d="M21.2325 59.5205H2.79714C2.43169 59.5205 2.13623 59.225 2.13623 58.8596C2.13623 58.4941 2.43169 58.1987 2.79714 58.1987H21.2325C21.5979 58.1987 21.8934 58.4941 21.8934 58.8596C21.8934 59.225 21.5979 59.5205 21.2325 59.5205Z" fill="#9C9C9C"/>
<path d="M42.2493 59.5205H29.8943C29.5289 59.5205 29.2334 59.225 29.2334 58.8596C29.2334 58.4941 29.5289 58.1987 29.8943 58.1987H42.2493C42.6148 58.1987 42.9102 58.4941 42.9102 58.8596C42.9102 59.225 42.6148 59.5205 42.2493 59.5205Z" fill="#9C9C9C"/>
<path d="M4.27445 29.702H1.46755C1.1021 29.702 0.806641 29.4065 0.806641 29.0411C0.806641 28.6757 1.1021 28.3802 1.46755 28.3802H4.26667C4.63211 28.3802 4.92758 28.6757 4.92758 29.0411C4.92758 29.4065 4.63211 29.702 4.26667 29.702H4.27445Z" fill="#9C9C9C"/>
<path d="M67.0287 39.74C63.211 38.3404 61.2438 34.0951 62.6434 30.2774C64.0196 26.5297 68.2183 24.4692 72.0982 25.8921C75.9159 27.2917 77.8831 31.537 76.4835 35.3469C75.0917 39.1491 70.8464 41.1395 67.0209 39.7322L67.0287 39.74ZM63.0555 30.4329C61.7415 34.0173 63.592 38.0061 67.1764 39.3279C70.7842 40.6497 74.7574 38.7681 76.0714 35.1992C77.3855 31.6147 75.5349 27.626 71.9505 26.3042C68.2961 24.9668 64.3462 26.9107 63.0555 30.4251V30.4329Z" fill="#9C9C9C"/>
<path d="M21.2325 29.2588H8.99408C8.86967 29.2588 8.77637 29.1577 8.77637 29.0411C8.77637 28.9245 8.87745 28.8234 8.99408 28.8234H21.2325C21.3569 28.8234 21.4502 28.9245 21.4502 29.0411C21.4502 29.1577 21.3491 29.2588 21.2325 29.2588Z" fill="#9C9C9C"/>
<path d="M20.1982 44.2575H8.55072C8.42631 44.2575 8.33301 44.1564 8.33301 44.0398C8.33301 43.9231 8.43409 43.8221 8.55072 43.8221H20.1982C20.3226 43.8221 20.4159 43.9231 20.4159 44.0398C20.4159 44.1564 20.3148 44.2575 20.1982 44.2575Z" fill="#9C9C9C"/>
<path d="M21.2322 59.0773H2.79681C2.67241 59.0773 2.5791 58.9762 2.5791 58.8596C2.5791 58.7429 2.68018 58.6418 2.79681 58.6418H21.2322C21.3566 58.6418 21.4499 58.7429 21.4499 58.8596C21.4499 58.9762 21.3488 59.0773 21.2322 59.0773Z" fill="#9C9C9C"/>
<path d="M42.249 59.0773H29.894C29.7696 59.0773 29.6763 58.9762 29.6763 58.8596C29.6763 58.7429 29.7773 58.6418 29.894 58.6418H42.249C42.3734 58.6418 42.4667 58.7429 42.4667 58.8596C42.4667 58.9762 42.3656 59.0773 42.249 59.0773Z" fill="#9C9C9C"/>
<path d="M4.27412 29.2588H1.46722C1.34282 29.2588 1.24951 29.1577 1.24951 29.0411C1.24951 28.9245 1.35059 28.8234 1.46722 28.8234H4.26635C4.39075 28.8234 4.48406 28.9245 4.48406 29.0411C4.48406 29.1577 4.38298 29.2588 4.26635 29.2588H4.27412Z" fill="#9C9C9C"/>
</g>
<defs>
<clipPath id="clip0_139_356">
<rect width="77.458" height="73.2049" fill="white" transform="translate(0.363281 0.629974)"/>
</clipPath>
</defs>
</svg>
