<?xml version="1.0" encoding="UTF-8"?>
<svg id="Layer_1" data-name="Layer 1" xmlns="http://www.w3.org/2000/svg" viewBox="0 0 140.51 93.19">
  <defs>
    <style>
      .cls-1 {
        fill: #a4a4a4;
        fill-rule: evenodd;
        stroke-width: 0px;
      }
    </style>
  </defs>
  <g id="Aomsg9">
    <g>
      <path class="cls-1" d="m57.96,52.51c0,.58.11,1.19-.02,1.73-.44,1.75-.96,3.49-1.47,5.23-.39,1.33-.78,2.67-1.25,3.98-.3.83-.73,1.62-1.12,2.42-.46.95-.9,1.91-1.41,2.83-1.13,2.02-2.58,3.78-4.43,5.19-.19.14-.46.2-.71.23-.54.05-1.1.68-.99,1.23.1.52.48.35.81.24,1.26-.41,2.51-.87,3.79-1.21,1.26-.33,2.56-.5,3.84-.77,1.46-.32,2.9-.71,4.36-1.01,1.3-.27,2.62-.45,3.93-.68.23-.04.44-.14.66-.21,0-.07,0-.13,0-.2-.21-.09-.42-.2-.64-.27-1.23-.42-2.36-.25-3.39.58-.15.12-.42.25-.55.19-.14-.06-.23-.34-.25-.53-.18-1.75.52-3.14,1.87-4.19.34-.26.86-.37,1.3-.41,1.61-.11,3.18.17,4.7.68.06.02.12.08.17.07,1.27-.21,2.1.77,3.12,1.2.56.23.98.69,1.12,1.31.16.69.66.8,1.25.75.89-.08,1.78-.19,2.67-.28.91-.09,1.82-.16,2.73-.26,1.33-.15,2.65-.33,3.98-.5,1.03-.13,2.06-.26,3.09-.4.51-.07.61-.31.44-.81-.08-.23,0-.61.16-.83.41-.62.95-1.15,1.32-1.79.19-.32.21-.79.17-1.17-.13-1.26.2-2.38,1.06-3.29.54-.57,1.18-1.03,1.78-1.54.07.05.15.11.22.16-.09.38-.16.77-.29,1.13-.3.87-.51,1.72-.33,2.66.23,1.21-.27,3.56-1.88,4.19-.52.21-.98.58-1.47.87.02.07.04.15.07.22.84-.13,1.68-.25,2.52-.38.1-.02.21-.06.31-.07,1.93-.09,3.85-.18,5.78-.26,1.2-.05,2.41-.17,3.6-.11,1.93.1,3.87.25,5.79.53,1.2.17,2.44.44,3.53.95,1.81.85,3.57,1.78,4.89,3.45,1.17,1.49,1.97,3.08,2.26,4.89.24,1.52.4,3.12-.35,4.57-.5.97-1.05,1.93-1.99,2.6-.74.53-1.39,1.2-2.15,1.7-.86.57-1.78,1.04-2.69,1.51-1.8.93-3.79,1.3-5.75,1.64-1,.17-2.08-.07-3.29-.13.42-.25.72-.47,1.05-.62,1.39-.63,2.81-1.18,4.17-1.86,1.69-.84,3.38-1.68,4.97-2.7,1.21-.77,2.29-1.81,2.89-3.14.32-.72.27-1.62.3-2.44.01-.52-.09-1.06-.23-1.57-.28-1-.81-1.88-1.48-2.68-1.59-1.89-3.75-2.6-6.06-3.12-1.58-.36-3.15-.54-4.75-.5-1.94.05-3.88.07-5.82.14-1.48.05-2.95.13-4.42.26-1.33.12-2.65.33-3.98.49-.95.11-1.91.17-2.86.29-2.23.29-4.46.61-6.69.89-1.31.16-2.63.25-3.94.41-1.6.19-3.2.42-4.8.62-1.22.15-2.45.27-3.68.41-1.77.21-3.54.44-5.31.63-1.02.11-2.04.17-3.06.28-1.99.21-3.97.44-5.96.64-1.06.11-2.12.19-3.19.26-.23.02-.46-.05-.79-.09q1-.85.13-1.84c-.09-.11-.18-.24-.2-.38-.1-.8-.16-1.61-.29-2.4-.03-.17-.27-.42-.44-.45-1.48-.26-2.98-.44-4.31-1.19-.44-.25-.85-.56-1.23-.9-.14-.12-.24-.51-.17-.6.54-.61,1.05-1.29,1.72-1.74,1.18-.8,2.53-1.01,3.95-.68.35.08,1.01.03,1.09-.15.16-.38.11-.9,0-1.33-.28-1.03-.67-2.03-.96-3.06-.06-.21.08-.67.21-.71.33-.08.78-.11,1.05.06.71.44,1,1.21,1.16,1.98.23,1.14.33,2.3.54,3.45.09.49.36.94.48,1.43.1.41.18.85.12,1.25-.11.65-.34.71-.94.45-.55-.25-1.1-.46-1.66-.69-.04.07-.09.15-.14.22.34.3.68.59,1.01.9.47.44,1.06.8.76,1.65-.14.38-.02.86-.02,1.29.09.02.18.05.26.07.16-.2.36-.38.46-.6,1.02-2.16,2.03-4.31,3.03-6.48.63-1.35,1.2-2.73,1.86-4.06,1.2-2.46,2.45-4.91,3.68-7.36.33-.66.64-1.33.99-1.98.09-.18.26-.32.4-.48.06.03.13.06.19.09Zm6.86,16.95c.4.6.74,1.18,1.16,1.7.15.19.49.34.73.33.9-.08,1.8-.22,2.7-.36.5-.08,1-.22,1.56-.34-.63-.68-5.43-1.63-6.15-1.33Z"/>
      <path class="cls-1" d="m49.64,41.91c1.47.22,2.16,1.24,2.75,2.34.67,1.26.76,2.63.64,4.03-.01.19-.14.37-.22.55-.15-.11-.36-.19-.46-.34-.62-1.03-1.23-2.07-1.82-3.11-.3-.53-.54-1.09-.84-1.62-.14-.24-.34-.44-.65-.59-.01.2-.03.41-.03.61,0,.71-.31,1.25-.87,1.68-.84.64-1.59,1.36-1.98,2.38-.2.51-.35,1.04-.51,1.56-.3,1-.6,2.01-.9,3.02-.35,1.19-.7,2.39-1.05,3.58-.48,1.63-.89,3.29-1.46,4.9-.6,1.7-1.34,3.36-2.06,5.02-.14.32-.46.55-.81.96-.1-.33-.18-.52-.21-.71-.32-2.32.21-4.56.66-6.8.17-.86.49-1.69.71-2.54.06-.22.03-.46-.09-.74-.26.54-.55,1.07-.76,1.63-.64,1.65-1.21,3.32-1.88,4.96-.47,1.16-.94,2.36-1.62,3.41-.81,1.24-1.86,2.32-2.78,3.49-.32.41-.58.89-.82,1.36-.3.58-.11,1.15.13,1.7.15.35.35.68.45,1.04.19.63-.07.95-.72.95-.23,0-.47-.01-.69-.08-.39-.12-.65.02-.75.38-.15.55-.6.63-.98.49-.87-.31-1.75-.65-2.52-1.13-1.45-.9-2.96-1.66-4.64-1.93-.92-.15-1.92-.24-2.74.5-.21.2-.5.31-.75.47-.57-1.25.23-2.64,1.17-3.04,1.25-.54,2.53-.59,3.81-.02.53.24,1.14.31,1.67.54,1.23.54,2.36,1.26,3.31,2.23.09.09.3.19.38.15.12-.07.22-.25.24-.39.06-.66-.02-1.35.16-1.97.32-1.06.79-2.05,1.55-2.93.98-1.12,1.92-2.33,2.66-3.62.69-1.2,1.08-2.56,1.63-3.84.66-1.56,1.36-3.1,2-4.66.29-.71.41-1.5.73-2.19.69-1.5,1.23-3.07,2.33-4.37.47-.56.93-1.08,1.59-1.38.24-.11.54-.06.79-.13.2-.06.51-.18.53-.32.18-1.28,1.08-2.13,1.79-3.09.56-.76,1.09-1.53.96-2.54-.07-.54.19-.9.52-1.31.77-.95,1.47-1.97,2.18-2.96.22-.31.38-.66.61-.96.6-.76.75-1.68.79-2.56.06-1.39.85-2.35,1.61-3.35.62-.81,1.25-1.6,1.89-2.4.11-.13.23-.26.37-.37.31-.26.56-.15.57.22.01.88.07,1.75-.47,2.59-.61.95-1.1,1.99-1.52,3.05-.3.75-.46,1.58-.56,2.4-.14,1.21-1,2.03-1.53,3.02-.43.79-.94,1.54-1.4,2.32-.07.12-.07.28-.11.47Z"/>
      <path class="cls-1" d="m96.22,43.93c.04.25.1.5.11.75.04.63-.16.75-.75.63-.93-.19-1.88-.46-2.81-.44-1.02.03-2.05.28-3.04.56-2.47.7-4.21,2.22-5.37,4.58-.92,1.87-1.98,3.74-3.33,5.3-1.47,1.69-3.39,2.98-5.04,4.53-.7.66-1.25,1.5-1.79,2.31-1.05,1.56-2.16,3.08-3.6,4.31-.46.39-1.04.63-1.59.9-.12.06-.42-.04-.49-.16-.1-.17-.16-.47-.07-.62.57-.96,1.17-1.91,1.79-2.84.55-.83,1.09-1.66,1.69-2.46,1.17-1.56,2.38-3.09,3.58-4.63.43-.56.38-.68-.23-1.05-.67-.4-1.31-.85-1.94-1.31-.52-.39-.88-.89-.69-1.67-.76-.1-1.49-.12-2.18-.28-1.87-.43-3.48-1.29-4.45-3.04-.41-.74-.94-1.45-.93-2.36,0-.17.11-.35.17-.52.18.08.38.13.54.24.95.71,1.81,1.62,2.86,2.11,1.34.63,2.74,1.1,4.38.82,2.02-.34,4-1.09,6.1-.87.44.05.89.07,1.33.18.21.05.44.22.58.41.31.41.58.44.87,0,.24-.37.45-.77.66-1.16.87-1.59,2.28-2.59,3.73-3.59,2.03-1.39,4.25-2.04,6.68-1.78.92.1,1.81.54,2.71.82.08.02.16.03.24.05.09.09.19.19.28.28Zm-14.95,6.12c-.42,0-.7-.07-.94.01-1.95.63-3.88,1.28-5.82,1.93-.13.05-.27.19-.32.33-.02.06.15.22.26.3.86.57,1.54,1.26,1.67,2.35.03.22.17.42.31.75,1.88-1.64,3.78-3.14,4.82-5.66Z"/>
      <path class="cls-1" d="m63.61,26.53c-.18-.21-.32-.5-.54-.6-.9-.39-1.18-1.25-1.58-2-.39-.72-.67-1.5-.95-2.27-.14-.37-.14-.78-.25-1.17-.12-.44-.31-.87-.42-1.32-.05-.18-.05-.48.06-.56.13-.11.47-.13.59-.04.27.23.52.53.69.84.71,1.39,1.39,2.79,2.09,4.18.07.14.22.25.34.37.74-.69.74-1.1.24-1.84-.28-.41-.4-.93-.59-1.41.07-.06.15-.12.22-.18.2.1.41.19.6.3,1.75,1.06,3.47,2.18,5.27,3.15.84.45,1.84.59,2.76.88.22.07.49.12.63.28.4.46.88.52,1.44.52.49,0,.59.35.41.76-.33.73-1.05.77-1.71.9-.17.04-.34,0-.52,0-1,0-1.2.24-.76,1.12.69,1.37,1.5,2.68,2.19,4.06.24.47.24,1.05.42,1.56.63,1.83,1.32,3.63,1.94,5.46.55,1.63,1.12,3.27,1.54,4.94.22.88.16,1.83.19,2.74,0,.2-.18.4-.27.61-.08.02-.15.03-.23.05-.13-.32-.27-.63-.38-.96-.25-.74-.46-1.49-.73-2.22-.48-1.32-.96-2.64-1.49-3.94-.38-.93-.84-1.83-1.29-2.73-.46-.93-.82-1.86-.93-2.92-.08-.67-.44-1.3-.69-1.95-.28-.73-.54-1.46-.85-2.17-.44-1.04-.49-2.1-.25-3.19.03-.12,0-.25,0-.43-2.45-.54-4.99-.83-6.67-3.05-.07.04-.13.09-.2.13.06.23.08.48.2.68.29.46.5.9.34,1.47-.03.12.2.41.36.46.86.29,1.73.53,2.6.79.71.22,1.39.51,1.59,1.3.07.28-.09.62-.15.93-.26-.07-.52-.12-.77-.2-.83-.25-1.64-.51-2.47-.74-.53-.14-1.07-.26-1.61-.34-.23-.03-.54-.01-.69.12-.1.09-.04.46.06.65.62,1.19,1.33,2.31,2.32,3.26.3.29.43.77.64,1.16-.44-.01-.92.09-1.3-.06-1.05-.4-1.74-1.16-2.2-2.22-.39-.89-.41-1.71-.23-2.61.03-.15-.19-.45-.35-.51-1.19-.42-1.83-1.38-2.49-2.37-.91-1.39-1.92-2.69-3.38-3.59-.73-.46-1.4-1.04-2.06-1.6-.78-.66-.91-1.6-.76-2.52.18-1.16.47-2.31.77-3.44.08-.32.38-.58.74-.84.05.27.11.54.15.82.18,1.45.25,2.93.56,4.36.2.92,1.08,1.41,1.92,1.82,1.21.59,2.2,1.42,2.83,2.63.49.92.99,1.85,1.84,2.49.29.22.7.29,1.06.42.06-.08.11-.16.17-.24Z"/>
      <path class="cls-1" d="m93.41,38.45c.08,1.02.17,1.84.18,2.65,0,.2-.24.4-.36.6-.17-.15-.41-.27-.51-.46-.35-.6-.63-1.23-.97-1.84-.22-.4-.33-.77-.13-1.24.1-.24.05-.6-.04-.86-.15-.44-.45-.44-.66-.05-.38.7-.73,1.42-1.07,2.14-.25.53-.45,1.08-.69,1.61-.04.09-.26.2-.29.17-.2-.16-.53-.36-.54-.56-.05-.93-.18-1.9.03-2.78.16-.64.77-1.19,1.23-1.75.65-.78,1.33-1.54,2.08-2.39-.3-.2-.65-.44-1.01-.67-.34-.22-.7-.39-1.01-.64-.12-.1-.18-.36-.15-.54.01-.1.24-.22.39-.23,1.91-.19,3.82-.33,5.73-.54,1.64-.18,3.28-.5,4.93-.6.98-.06,1.98.16,2.96.32,1.44.24,2.87.52,4.29.81,1.26.26,2.5.61,3.76.86,1.53.31,3.08.56,4.62.82,1,.17,2,.35,3.01.46.67.08,1.37.2,2.07-.11-.31-.64-.88-.72-1.39-.91-.24-.09-.44-.31-.65-.47.29-.22.55-.58.86-.63.94-.14,1.83.05,2.71.47,1.5.72,3.06,1.32,4.59,2,.18.08.46.36.43.45-.08.22-.28.42-.49.55-.86.54-1.73,0-2.6,0-.38,0-.75.1-1.13.17-.49.1-.98.3-1.47.32-1.01.05-2.04.08-3.04,0-1.29-.1-2.57-.31-3.86-.46-1.2-.15-2.41-.28-3.61-.43-1.47-.19-2.94-.4-4.41-.59-.91-.12-1.82-.2-2.73-.31-.99-.12-1.98-.33-2.97-.36-1.09-.04-2.18.06-3.27.14-.72.05-1.44.21-2.16.21-1.12,0-2.24-.08-3.35-.11-.7-.02-.73.11-.5.74.36.97,1.16,1.4,1.97,1.87.69.4,1.37.83,2.04,1.29,1,.68,1.41,2.37.74,3.24-.36.47-.84.85-1.31,1.22-.15.12-.58.15-.65.05-.13-.17-.17-.51-.09-.71.47-1.15.34-1.91-.6-2.62-.26-.19-.64-.22-.9-.3Z"/>
      <path class="cls-1" d="m4.48,78.74c1.84.83,3.69,1.65,5.52,2.51.82.38,1.6.85,2.39,1.29.49.28.96.59,1.44.9.12.08.27.15.35.26.15.21.27.44.4.66-.26.04-.53.15-.78.11-1.37-.23-2.76-.43-4.1-.78-1.65-.44-3.31-.91-4.88-1.56-1.31-.55-2.51-1.38-3.75-2.09-.72-.41-.82-1.19-1.04-1.89-.11-.33.03-.59.4-.65.39-.06.54-.26.5-.65-.04-.4.07-.56.57-.46.46.1.97-.06,1.45-.06,2.61,0,5.23-.02,7.84,0,2.13.02,4.26.08,6.39.13.17,0,.33.05.5.09.58.14.97-.09,1.12-.64.47-1.72,1.95-2.55,3.73-2.2,1.41.28,2.69.82,3.87,1.62.28.19.52.46.7.75.29.44.68.61,1.17.64.98.05,1.97.08,2.95.14.18.01.36.15.53.23-.13.18-.21.45-.38.52-.91.34-1.81.74-2.75.9-1.55.27-3.12.4-4.68.53-1.18.1-2.36.11-3.54.14-1.98.05-3.96.17-5.94.11-2.43-.08-4.86-.31-7.29-.5-.74-.06-1.47-.17-2.21-.25-.15-.02-.32.04-.47.06,0,.05-.01.1-.02.15Zm17.62-2.47c-.34-.4-1.55-.62-1.83-.4-.08.06-.17.24-.13.32.04.11.2.26.3.26.53-.03,1.06-.1,1.67-.17Z"/>
      <path class="cls-1" d="m78.63,92.48c-.32.22-.46.39-.63.42-2.91.65-5.65.18-8.22-1.32-.78-.46-1.61-.8-2.41-1.23-1.11-.6-2.17-1.32-3.33-1.81-.86-.37-1.82-.54-2.75-.66-1.75-.23-3.51-.41-5.27-.52-2.08-.14-4.16-.18-6.23-.27-1.56-.07-3.12-.16-4.68-.26-.78-.05-1.56-.16-2.34-.26-.16-.02-.38-.07-.46-.18-.51-.75-1.35-.65-2.08-.87-.67-.2-1.32-.54-1.9-.93-.21-.14-.21-.6-.3-.91.29-.07.59-.19.89-.19,1.86-.02,3.72,0,5.59-.02.7,0,1.41-.07,2.11-.13,1.64-.13,3.27-.31,4.91-.37.85-.03,1.6.31,2.05,1.14.1.18.39.39.58.38,1.45-.07,2.84.2,4.23.51.56.12,1.16,0,1.74.04.55.04,1.09.13,1.63.25,1.11.24,2.21.49,3.31.79.44.12.84.38,1.24.61,1.07.62,2.1,1.3,3.19,1.88,1.32.69,2.54,1.55,4.03,1.94.99.26,1.89.81,2.85,1.19.48.19,1,.3,1.49.46.21.07.4.17.77.34Z"/>
      <path class="cls-1" d="m77.93,21.2c1.3-1.18,2.63-2.33,2.3-4.25-.13-.75-.54-1.45-.79-2.17-.11-.31-.16-.64-.23-.97.37.06.86,0,1.1.21.67.58,1.45,1.18,1.78,1.95.38.87.39,1.89.23,2.92-.19,1.27-1.11,1.96-1.75,2.89-.57.81-1.07,1.66-1.63,2.47-.14.2-.36.43-.57.45-.13.01-.41-.3-.44-.5-.09-.47-.11-.97-.11-1.45,0-.44.09-.88.16-1.53-.25.22-.41.3-.43.4-.21,1.25-1.1,2.06-1.87,2.95-.09.1-.34.21-.39.17-.12-.1-.21-.29-.21-.44,0-.91.08-1.73.65-2.58.66-.98.93-2.22,1.39-3.41-.99.04-1.55.62-1.68,1.43-.14.91-.53,1.8-.55,2.71-.03.79-.58,1.19-.87,1.78-.06.12-.29.24-.39.21-.11-.03-.23-.25-.23-.38.01-1.17-.25-2.38.38-3.48.23-.4.51-.77.81-1.12.41-.48.38-.71-.12-1.12-.23-.18-.38-.45-.58-.68-.45-.53-.91-.45-1.15.2-.13.33-.28.66-.38,1-.37,1.18-1.3,1.5-2.39,1.6-1.17.11-2.35.07-3.4-.43-.53-.25-.99-.8-1.29-1.32-.48-.84-.91-1.75-.7-2.78.04-.19.21-.35.32-.52.15.14.36.24.44.41.13.26.16.56.25.84.39,1.18,1.37,1.56,2.45,1.71.66.09,1.34.05,2.01,0,.99-.07,1.21-1.02,1.46-1.65.7-1.75,2.25-1.64,3.4-.63.72.63,1.02.48,1.5-.35.52-.9.66-1.82.6-2.81,0-.11-.02-.24.03-.32.14-.21.31-.39.47-.58.13.22.38.45.38.67,0,1.18-.03,2.37-.13,3.54-.04.42-.31.82-.43,1.25-.05.16-.04.44.06.52.72.55.72,1.25.55,2.05-.08.36-.01.75-.01,1.13Z"/>
      <path class="cls-1" d="m57.23,11.22c-.83-.78-1.31-1.57-1.35-2.67-.06-1.84.47-3.5,1.59-4.89.88-1.09,2-1.99,3.41-2.4.46-.13.89-.36,1.33-.55C64.05-.08,66.01,0,67.93,0c1.34,0,2.71.24,3.92.87,1.42.74,2.58,1.78,3.49,3.16.8,1.21,1.33,2.45,1.27,3.9,0,.24-.21.47-.32.71-.2-.1-.43-.17-.58-.32-.32-.32-.6-.66-.87-1.02-.15-.2-.24-.44-.35-.66-.09.07-.18.13-.27.2-.06.12-.13.24-.18.37-.09.26-.11.56-.27.76-.21.27-.52.66-.77.64-.46-.02-.42-.52-.38-.88.05-.5-.09-.85-.65-.88-.42-.02-.47-.33-.37-.59.09-.23.33-.52.53-.55.39-.06.81.06,1.26.1-.23-1.06-1.09-1.49-1.76-2.04-.95-.78-2.09-1.08-3.36-1.1-1.86-.04-3.69,0-5.43.69-.99.39-1.95.89-2.88,1.42-.37.21-.73.57-.91.95-.46.96-.86,1.95-1.19,2.95-.22.67-.27,1.41-.41,2.11-.02.12-.11.22-.21.43Z"/>
      <path class="cls-1" d="m130.09,32.36c.27-.2.53-.41.8-.61,1.14-.84,2.51-1.03,3.84-1.31.37-.08.76-.14,1.14-.12.22.01.51.17.61.34.07.12-.07.49-.22.59-1.4.95-2.82,1.89-4.54,2.15-.62.09-1.25,0-1.72-.49-.34-.36-.53-.21-.7.14-.06.13-.12.27-.17.41-.17.41-.46.47-.77.16-.5-.51-.72-1.85-.4-2.52.38-.78.78-1.54,1.19-2.31.28-.52.12-.79-.47-.83-1.08-.07-2.18-.11-3.25-.28-1.14-.18-1.13-.24-1.27-1.19-2.27-.42-4.5-.79-6.71-1.26-2.16-.46-4.34-.92-6.45-1.59-1.31-.41-2.51-1.2-3.76-1.83-.9-.45-1.8-.91-2.69-1.38-.17-.09-.32-.23-.59-.44.36-.15.58-.3.8-.32,1.62-.12,3.16.17,4.66.82,2.09.91,4.22,1.72,6.47,2.15,1.89.36,3.68,1.01,5.46,1.75.95.39,1.92.73,2.87,1.11.17.07.4.17.46.32.26.68.76.61,1.32.54.28-.04.57.02.86.04,1.11.08,2.21.17,3.32.26.37.03.85.83.9,1.41.12,1.28-.54,2.33-1,3.44-.1.24-.12.51-.17.77.06.02.12.04.18.07Z"/>
      <path class="cls-1" d="m60.65,39.39c.02.25.1.51.04.74-.36,1.45-.75,2.89-1.12,4.33-.03.12-.07.26-.04.38.16.85-.19,1.6-.54,2.32-.63,1.3-1.35,2.57-1.97,3.88-1.01,2.11-1.97,4.24-2.95,6.36-.47,1.01-.97,2.02-1.38,3.05-.29.72-.4,1.51-.71,2.21-.32.73-.75,1.41-1.19,2.08-.56.85-1.16,1.66-1.77,2.48-.1.13-.3.28-.43.26-.13-.02-.26-.23-.34-.38-.33-.66-.06-1.31.19-1.9.4-.97.96-1.88,1.36-2.85.33-.78.52-1.62.77-2.44.34-1.1.69-2.18,1.25-3.2.71-1.28,1.33-2.6,1.99-3.9.45-.88.89-1.76,1.33-2.65.25-.51.5-1.01.72-1.53.36-.85.73-1.7,1.02-2.57.18-.54.29-1.12.29-1.68,0-1.42.88-2.4,1.64-3.42.44-.6,1.04-1.08,1.57-1.62.09,0,.19.02.28.03Z"/>
      <path class="cls-1" d="m37.73,87.11c-1.86-.36-3.55-.3-5.24-.06-.57.08-1.15.1-1.72.15-1.4.13-2.79.34-4.2.38-1.98.05-3.91-.24-5.81-.92-1.47-.53-2.79-1.27-4.12-2.04-.92-.53-1.31-1.43-1.52-2.39-.06-.27.21-.61.33-.91.21.08.44.15.64.25,1.46.77,2.89,1.61,4.4,2.3.98.45,2.04.81,3.1.96,1.17.16,2.37.09,3.56.03,1.1-.06,2.19-.3,3.29-.35,1.57-.06,3.15-.06,4.73,0,1.15.04,2.06.58,2.56,1.65.12.25.02.59.02.95Z"/>
      <path class="cls-1" d="m84.69,15.14c1.54-.04,3.14.11,4.65.77.69.3,1.36.71,2.08.89.98.23,2.01.3,3.02.41,1.96.21,3.94.36,5.66,1.44,1.09.68,2.12,1.47,3.18,2.2.33.23.69.4,1.02.63.16.11.28.29.41.44-.14.12-.25.3-.41.35-.6.19-1.17.37-1.83.03-1.34-.7-2.73-1.32-4.12-1.93-.41-.18-.89-.25-1.35-.3-2.28-.27-4.57-.46-6.83-.82-.75-.12-1.5-.57-2.14-1.02-1.25-.87-2.64-1.37-4.08-1.79-.42-.12-.81-.35-1.18-.58-.15-.09-.2-.34-.29-.52.17-.07.33-.19.5-.19.54-.03,1.08,0,1.71,0Z"/>
      <path class="cls-1" d="m98.29,88.41c-.26.82-.92,1.24-1.6,1.36-1.87.34-3.76.45-5.64-.07-2.7-.75-5.41-1.44-8.1-2.2-.51-.14-.99-.45-1.46-.71-.1-.05-.21-.28-.17-.36.08-.15.25-.36.4-.36,1.25-.02,2.51-.09,3.75.02,1.34.12,2.68.38,4.01.62,1.68.3,3.35.66,5.03.96.65.12,1.32.09,1.96.22.61.12,1.2.34,1.82.53Z"/>
      <path class="cls-1" d="m69.24,46.67c.01.87-.14,1.01-.58.75-1.65-.95-3.27-1.94-4.93-2.86-.97-.53-1.07-1.49-1.34-2.37-.34-1.1-.65-2.2-.95-3.31-.22-.83-.37-1.68-.62-2.49-.19-.63-.49-1.24-.75-1.85-.08-.19-.23-.37-.26-.57-.03-.19,0-.47.13-.58.09-.09.39-.02.56.06,1.49.62,2.29,1.87,2.78,3.31.53,1.55.92,3.15,1.45,4.71.16.48.5.94.86,1.3.93.92,1.96,1.75,2.88,2.68.38.39.6.94.77,1.22Z"/>
      <path class="cls-1" d="m37.97,71.28c-.3.67-.6,1.24-.82,1.84-.34.93-.67,1.86-.93,2.81-.1.34.04.66.51.81.41.12.74.46,1.12.67,1.45.81,2.92,1.59,4.36,2.42.22.13.48.47.45.68-.03.23-.34.49-.59.6-1.31.61-2.44.08-3.58-.58-.59-.34-1.23-.64-1.88-.82-1-.28-1.7-.89-2.24-1.72-.3-.45-.57-.94-.77-1.44-.46-1.18.12-2.17.87-2.92.88-.89,1.98-1.57,2.99-2.33.07-.05.21,0,.5,0Z"/>
      <path class="cls-1" d="m58.13,14.01c-.09-.15-.19-.29-.25-.45-.11-.28-.26-.57-.29-.86-.04-.51.32-.52.68-.39,1.2.44,2.38.91,3.58,1.33.37.13.79.12,1.18.22.18.05.44.2.47.35.03.15-.13.44-.27.51-.51.22-1.04.38-1.57.55-.21.07-.43.09-.7.3.75.42,1.5.83,2.23,1.28.21.13.33.39.48.6-.21.16-.39.4-.62.45-.98.24-1.93.05-2.86-.29-.73-.27-1.47-.53-2.2-.78-.76-.26-1.42-.59-1.6-1.5-.12-.64-.36-1.26-.46-1.9-.04-.25.09-.6.26-.8.18-.21.43-.34.65.13.25.52.71.94,1.08,1.4.07-.05.14-.1.22-.16Z"/>
      <path class="cls-1" d="m76.46,87.61c-.12-.25-.26-.49-.37-.74-.08-.17-.22-.45-.15-.53.13-.15.38-.2.59-.29.02,0,.04,0,.06,0,1.37.51,2.76.99,4.12,1.53.74.3,1.44.7,2.16,1.06.18.09.35.2.53.31,0,.07.02.15.03.22-.37.12-.75.36-1.12.35-1.08-.03-2.16-.22-3.24-.21-.7,0-1.41.21-2.1.39-2.02.53-3.79.1-5.37-1.25-.13-.11-.28-.23-.35-.37-.18-.34-.19-.63.33-.61.81.04,1.62.08,2.43.14.76.05,1.53.12,2.29.18.06-.06.11-.12.17-.18Z"/>
      <path class="cls-1" d="m33.57,88.3c.72-.19,1.43-.43,2.16-.56.94-.17,1.89-.27,2.84-.35.41-.04.84.04,1.26.08,1.38.13,2.77.2,4.13.41.98.15,1.85.65,2.44,1.48.17.25.27.66.19.92-.05.16-.52.32-.78.28-1.66-.22-3.3-.5-4.96-.75-1.3-.19-2.61-.31-3.9-.55-1.07-.2-2.22-.05-3.21-.63-.05-.03-.09-.07-.14-.1-.01-.08-.02-.16-.03-.23Z"/>
      <path class="cls-1" d="m58.64,57.7c.28.03.58.02.85.09,2.18.56,4.25,1.57,6.59,1.43.31-.02.62.09,1.06.32-.21.21-.38.46-.62.63-.74.53-.72.65.05,1.1.82.48,1.6,1.03,2.36,1.6.21.15.27.5.32.82-2.53-.31-4.95-.96-7.04-2.24-1.42-.86-2.49-2.29-3.71-3.47.05-.1.1-.19.15-.29Z"/>
      <path class="cls-1" d="m18.97,88.83c-.8.68-1.67.95-2.64.83-1.76-.2-3.36-.95-5-1.54-1.02-.37-2.14-.46-3.21-.64-.71-.12-1.43-.16-2.14-.27-.14-.02-.25-.22-.37-.34.15-.1.28-.24.45-.29.9-.28,1.8-.55,2.71-.8.26-.07.54-.11.81-.11.56-.02,1.12.02,1.68-.01,1.3-.08,2.32.49,3.31,1.24.47.36,1.08.54,1.59.85.71.42,1.46.61,2.26.72.18.03.34.22.55.37Z"/>
      <path class="cls-1" d="m98.39,58.61c.02,1.22-.24,2.32-1.04,3.23-.43.49-.94.95-1.5,1.27-1.05.61-2.11,1.27-3.4,1.31-.31,0-.61.21-.91.22-.25.01-.51-.12-.76-.18.11-.24.15-.56.33-.7.62-.48,1.28-.89,1.93-1.33,1.05-.7,2.03-1.51,2.67-2.59.35-.58.32-1.38.5-2.07.2-.77.16-1.62.76-2.25.19-.2.43-.35.64-.52.09.24.22.48.27.73.18.95.34,1.91.5,2.87Z"/>
      <path class="cls-1" d="m75.12,9.64c.52.07,1.06.11,1.57.24.18.04.36.28.42.46.03.08-.22.32-.38.39-1.02.39-2.05.75-3.09,1.11-1.29.44-2.58.94-3.9,1.28-1.39.36-2.81.59-4.22.85-.17.03-.37-.07-.55-.1.09-.2.12-.46.27-.6,1.37-1.4,3.06-2.23,4.96-2.65,1.32-.29,2.62-.61,3.94-.88.31-.07.64,0,.97,0,0-.02,0-.05,0-.07Z"/>
      <path class="cls-1" d="m43.98,80.21c-.59-.3-1.23-.53-1.76-.92-.6-.45-1.18-.98-1.59-1.6-.37-.56-.77-1.31-.68-1.91.18-1.15.86-2.13,2.18-2.28.46-.05.95.12,1.42.23.15.04.36.2.37.32.02.15-.12.34-.22.49-.05.08-.18.1-.27.16-.92.52-.94,1.03-.4,1.94.52.89,1.04,1.78,1.51,2.69.22.43-.02.74-.57.87Z"/>
      <path class="cls-1" d="m131.74,27c.16-.59.44-.8.96-.88,1.59-.25,3.09-.12,4.37.93.59.48,1.12,1.04,1.62,1.62.3.35.28.78-.07,1.15-.33.34-.58.7-1.16.25-.91-.71-2.02-.92-3.16-.93-.32,0-.65.03-.97-.02-.16-.02-.41-.19-.41-.29,0-.16.16-.33.28-.48.17-.21.37-.4.55-.6-.26-.14-.5-.32-.77-.42-.39-.14-.8-.22-1.25-.33Z"/>
      <path class="cls-1" d="m99.32,47.94c.3.68.63,1.36.89,2.06.29.77.55,1.54.77,2.33.15.53-.68,2.21-1.18,2.43-.28.12-.53.1-.63-.3-.19-.77-.4-1.54-.64-2.3-.26-.82-.57-1.62-.85-2.42-.31-.88-.64-1.76-.93-2.66-.04-.13,0-.37.1-.46.07-.07.32-.04.44.03.35.22.67.5,1.03.73.33.21.68.38,1.03.57,0,0-.02-.02-.02-.02Z"/>
      <path class="cls-1" d="m68.97,36.62c.32.45.58.77.8,1.12.8,1.31,1.68,2.6,2.37,3.97.79,1.58,1.55,3.2,1.38,5.05-.02.2-.07.43-.17.6-.18.3-.59.26-.72-.06-.54-1.38-1.06-2.78-1.63-4.15-.44-1.06-.99-2.07-1.42-3.13-.41-1.01-.98-2-.6-3.4Z"/>
      <path class="cls-1" d="m80.9,44.57c-.22-.69-.41-1.35-.65-1.99-.24-.65-.51-1.28-.78-1.92-.46-1.1-1.15-2.16-1.33-3.3-.15-.99-.73-2.02-.22-3.07.08-.16.18-.31.28-.46.12.12.29.22.36.37.71,1.7,1.41,3.41,2.11,5.11.53,1.3.81,2.66.89,4.06.03.53-.18.89-.66,1.21Z"/>
      <path class="cls-1" d="m96.22,43.93c-.09-.09-.19-.19-.28-.28,0-.09,0-.17,0-.26,0-1,.65-1.39,1.55-.89,1.35.75,2.31,1.84,2.77,3.33.31.99-.14,1.99-.94,2.11,0,0,.02.02.02.02-.29-1.53-1.29-2.59-2.38-3.59-.21-.19-.49-.3-.74-.44Z"/>
      <path class="cls-1" d="m58.28,37.72c-.3.34-.56.74-.92,1-1.44,1.07-3.02,1.75-4.87,1.7-.45-.01-.76-.16-.87-.58-.12-.44.06-.72.54-.82.82-.17,1.64-.34,2.45-.56.85-.23,1.68-.52,2.53-.76.33-.09.68-.12,1.02-.18.04.06.07.13.11.19Z"/>
      <path class="cls-1" d="m57.57,27c-1.35-.17-2.27-.92-3.06-1.81-.39-.44-.6-1.05-.86-1.6-.09-.18-.13-.43-.08-.62.06-.25.24-.46.36-.69.2.14.43.24.61.41,1.03.98,2.04,1.97,3.06,2.95.09.09.22.15.29.25.16.27.3.56.45.85-.27.09-.54.18-.76.25Z"/>
      <path class="cls-1" d="m95.16,56.16c.27,1.44-1.33,2.62-2.45,2.54-.53-.04-.73-.36-.5-.84.46-.96.93-1.91,1.37-2.88.11-.24.09-.54.17-.8.04-.14.15-.36.25-.37.16-.02.43.06.48.18.3.69.56,1.41.83,2.12-.05.02-.1.04-.15.06Z"/>
      <path class="cls-1" d="m97.76,28.1c-.33-.07-.7-.12-1.06-.23-.14-.04-.34-.22-.33-.31.02-.16.15-.4.29-.44,1.01-.34,2.04-.65,3.06-.95.6-.18,1.21-.37,1.82-.51.2-.05.44.06.66.1-.07.22-.07.5-.22.64-.69.67-1.48,1.21-2.42,1.44-.57.14-1.17.18-1.8.27Z"/>
      <path class="cls-1" d="m75.42,29.64c-.21,0-.44.04-.64,0-.48-.12-.64-.58-.26-.89,1.03-.84,2.1-1.65,3.17-2.44.12-.09.41-.11.5-.03.11.11.18.38.11.52-.47,1.01-.84,2.1-1.91,2.66-.28.15-.62.2-.93.3,0-.04-.02-.07-.03-.11Z"/>
      <path class="cls-1" d="m140.51,32.05c-.11,1.02-.69,1.73-1.52,1.75-.68.01-1.71-.91-1.79-1.6-.05-.39.29-.66.7-.56.99.25,1.07.2,1.23-.82.03-.18.2-.48.29-.48.2.01.48.14.56.3.22.44.36.93.53,1.4Z"/>
      <path class="cls-1" d="m66.82,10.47c-1.02,0-2.09-1.05-2.12-2.05-.01-.63.63-1.33,1.2-1.32.44,0,.59.22.49.64-.18.8,0,1.12.81,1.29.44.1,1.05.15.93.69-.07.31-.68.5-1.06.74-.06.04-.17,0-.26,0Z"/>
      <path class="cls-1" d="m60,27.07c.11.57.23,1.08.29,1.59.08.72.12,1.45.13,2.17,0,.21-.19.42-.29.63-.17-.12-.41-.21-.51-.37-.35-.57-.71-1.15-.95-1.77-.3-.75.41-1.96,1.34-2.25Z"/>
      <path class="cls-1" d="m55.48,31.78c.6.46,1.16.82,1.63,1.27.28.27.44.67.58,1.04.07.17.03.47-.08.6-.09.11-.43.14-.55.06-.74-.48-1.47-.99-2.17-1.53-.16-.12-.3-.51-.22-.65.14-.27.45-.46.82-.79Z"/>
      <path class="cls-1" d="m126.51,28.7c.57.43.7,1.01.5,1.48-.25.59-.72,1.09-1.13,1.6-.07.08-.38.05-.51-.03-.1-.07-.15-.33-.11-.46.23-.68.49-1.36.78-2.03.09-.2.3-.35.48-.56Z"/>
    </g>
  </g>
</svg>