<?xml version="1.0" encoding="UTF-8"?>
<svg id="Layer_1" data-name="Layer 1" xmlns="http://www.w3.org/2000/svg" viewBox="0 0 122.91 109.54">
  <defs>
    <style>
      .cls-1 {
        fill: #a4a4a4;
        stroke-width: 0px;
      }
    </style>
  </defs>
  <path class="cls-1" d="m8.71,13.98c-.1.1-.2.2-.31.29.11-.09.22-.17.31-.29Z"/>
  <path class="cls-1" d="m6.86,28.84s-.01,0-.02-.01c0,0,.01.01.02.01Z"/>
  <path class="cls-1" d="m114.81,29.73s.07-.05.09-.09c-.03.03-.06.06-.09.09h0Z"/>
  <path class="cls-1" d="m120.52,15.03c-1.15-2.8-2.85-5.18-4.71-7.51-.72-.9-1.75-1.33-2.54-2.09-1.33-1.29-2.95-2.13-4.56-3-3.1-1.68-6.54-2.14-9.95-2.27-3.33-.13-6.69-.36-10.01.14-1.52.23-3.07.16-4.57.79-.91.38-1.98.51-3.09.38-3.21-.35-6.43-.04-9.3,1.46-2.31,1.21-4.51,2.64-6.2,4.82-1.01,1.31-1.95,2.66-2.75,4.07-.71,1.24-1.52,2.46-2.01,3.84-.5,1.41-.96,1.51-2.14.5-2.79-2.41-5.41-5.03-8.4-7.21-2.84-2.08-5.8-3.88-9.13-5.06-3.34-1.18-6.78-1.64-10.3-1.74-2.02-.06-3.93.51-5.88.89-4.27.83-8.32,2.17-11.83,4.87-2.79,2.15-5.49,4.37-7.79,7.08-2.71,3.19-4.06,6.93-4.86,10.92C.04,28.21.04,30.56,0,32.91c-.02,1.46.06,2.9.32,4.34.14,2.91.73,5.77,1.41,8.59.93,3.85,2.38,7.55,4.11,11.12,1.45,2.99,2.98,5.93,4.84,8.71.99,1.49,2.19,2.83,3.11,4.34,1.17,1.91,2.69,3.52,4.17,5.14,2.23,2.44,4.5,4.85,7.01,7.03,1.87,1.62,3.61,3.39,5.54,4.96,4.26,3.48,8.6,6.87,13.05,10.1.6.44,1.33.67,1.86,1.25,1.24,1.38,3.02,2.08,4.38,3.32.13.12.39.07.57.16.4.21.84.39,1.16.69.78.72,1.73,1.16,2.61,1.73,1.22.79,2.64,1.2,3.81,2.08,1.02.76,2.02,1.56,3.04,2.33.98.75,2.03.85,3.09.65,2.42-.48,4.7-1.34,6.47-3.2.1-.11.22-.22.35-.28,2.29-.99,3.94-2.86,5.72-4.45,2.4-2.16,4.83-4.3,7.17-6.54,1.29-1.23,2.63-2.41,4.04-3.5,1.42-1.11,2.59-2.47,3.93-3.65,1.42-1.24,2.65-2.68,3.89-4.07,1.42-1.59,2.76-3.29,4.13-4.94,1.98-2.39,3.66-4.97,5.22-7.63.61-1.03,1.06-2.16,1.77-3.11.88-1.17,1.41-2.51,2.19-3.72,1.47-2.27,2.23-4.91,3.75-7.16.59-.88,1.09-1.82,1.54-2.78,1.16-2.46,2.22-4.96,3.4-7.4.9-1.85,1.3-3.89,2.18-5.74,1.11-2.33,1.51-4.87,2.18-7.33.43-1.58.54-3.22.73-4.84.31-2.67.23-5.35-.32-7.97-.43-2.08-1.07-4.12-1.89-6.12Zm-34.24-8.96h0c.38-.34.83-.28,1.28-.25h0c.23.02.54.02.41.35-.12.31-.45.25-.73.22-.2.02-.39.04-.58.06-.57.45-1.22.12-2.01.35.49-.82,1.1-.66,1.63-.73Zm2.78,0c-.23.14-.56.14-.56-.11,0-.28.33-.21.56-.14.42-.29.83-.31,1.27.15-.43.31-.87.06-1.27.1h0Zm1.27,2.19h0c.08-.01.16-.01.24,0,.34-.47.82-.3,1.27-.27h0c.07-.01.13-.02.2-.03h0s0,0,0,0c.45.16.4.35.04.56-.09.02-.18.04-.26.06-.78.49-1.64.18-2.46.25-.09.02-.18.03-.27.03,0,0-.08-.09-.09-.09h0s0,0-.01,0c.03.03.07.06.1.09-.25.31-.6.29-.95.26h-.02s-.07.05-.11.07c-.42.27-.91.21-1.38.23-1.05.79-2.26,1.29-3.39,1.94-2.9,1.68-5.34,3.8-7.3,6.53-.8,1.12-1.9,2-2.7,3.16-1.11,1.6-2.33,3.13-3.37,4.78-.34.55-.76,1.05-1.18,1.54-.25.29-.5.69-1,.39-.56-.34-.95-1.22-.66-1.68,2.24-3.55,4.06-7.36,6.54-10.74,1.2-1.64,2.58-3.28,4.48-4.13,1.01-.45,2.12-.86,3.22-1.1.48-.1.85-.59,1.41-.38,1.01-.71,2.15-.95,3.37-.88h0c.22-.32.61-.19.89-.35h0c1.1-.58,2.26-.21,3.4-.23Zm-8.23-3.98c.71-.29,1.41-.39,2.23.11-.79.59-1.71.74-2.5,1.12-1.64.79-3.21,1.64-4.6,2.82-1.27,1.08-2.7,1.93-4.21,2.63-.62.77-1.45,1.21-2.35,1.57-.02.1-.07.17-.15.22-.46.41-.93.83-1.53,1.37-.14-1.03.44-1.33.96-1.67.1-.1.2-.19.31-.29,0-.2.09-.32.28-.38.24-.3.55-.49.93-.56.97-1.3,2.28-2.21,3.55-3.16.24-.18.54-.28.77-.47,1.87-1.56,4.11-2.4,6.33-3.31Zm-17.64,9.65c.21-.3.42-.59.63-.89h0c1.79-3.66,4.39-6.51,8.19-8.17.02-.02.03-.03.05-.04.24-.2.54-.26.84-.29.02-.19.1-.31.32-.29.22-.31.45-.27.69-.01.06-.03.11-.03.17,0h0c.21-.53.63-.68.95-.23.23.33-.25.49-.54.62h0c-.03.21-.17.25-.34.24-.09.02-.18.04-.27.07,0,0,0,0,0,0-.12.26-.35.32-.61.3-.04.18-.15.26-.33.28-2.08,1.59-4.02,3.31-5.85,5.2-.97,1-1.82,2.12-2.93,3-.04.35-.33.47-.59.62h0c-.26.39-.52.79-.91,1.37-.02-.8.3-1.27.52-1.76Zm-1.38,7.82c1.89-1.48,3.68-3.08,5.67-4.43.06-.66.69-.76,1.12-1.33.15.94-.43,1.24-.79,1.65-1.24,2.38-2.67,4.65-4.07,7-.81-.56-1.22-1.34-1.98-1.77-.43-.24-.61-.62.05-1.13ZM17.94,8.64c2.68-1.77,5.55-3.25,8.8-3.66,1.79-.23,3.61-.3,5.4.13,1.17.28,2.36.48,3.55.71.34-.04.71-.16.95.23.43-.02.81.13,1.17.36.53-.07.96.29,1.46.35h0c.56.21,1.12.41,1.71.63-.43.98-.9.05-1.32.05-.53,0-1.11-.01-1.57-.39h0c-.41-.04-.81-.08-1.22-.12h0c-1.91.04-3.83.06-5.72.37-1.47.5-3.04.54-4.55.86-1.7.36-3.4.72-5.02,1.39-2.03.85-3.91,1.92-5.66,3.25-2.88,2.19-5.01,5-6.65,8.19-.59,1.14-.99,2.38-1.47,3.58h0s0,0,0,0c.03.35.01.68-.25.95-.05.42.12.89-.28,1.23.02.43-.08.83-.24,1.22-.02.09-.05.19-.12.27,0,.09,0,.19-.01.28,0,.1-.02.2-.03.3h0c0,.1-.01.2-.02.3h0c.05.37.05.72-.21,1.03v.08s0,0,0,0c.15.25.21.51-.03.75.03.08.02.15,0,.22h0c.23.22.28.44.01.67-.03.19-.05.37-.08.56,0,.63,0,1.25,0,1.88.11.18.13.37.06.58v1.22c0,.24.11.56-.15.66-.32.12-.4-.23-.41-.44-.04-.49-.02-.98-.02-1.47,0-1,0-2.01,0-3.01.02-.83-.15-1.68.25-2.48,0-.24-.02-.49-.02-.73h0c-.16-.18-.16-.35,0-.53-.04-.08-.02-.15.06-.19-.11-.64-.06-1.26.28-1.84h.01c-.02-.4.03-.79.23-1.15.01-.02.03-.05.04-.07-.08-.54-.02-1.06.33-1.51.52-2.63,1.65-4.98,3.11-7.22,2-3.08,4.63-5.51,7.64-7.5Zm-4.74,33.68c.22,4.14,1.02,8.2,1.92,12.24.02.09,0,.2,0,.3.34.23.33.58.32.92.28.27.25.61.22.96.02.18.05.36.07.54.32.11.21.43.32.64.43.41.31.93.59,1.6-.77-.35-.73-.89-.98-1.23-.17-.17-.33-.35-.32-.61-.18-.04-.28-.15-.25-.35h0c-.26-.12-.32-.34-.31-.6h0c-.17-.04-.26-.13-.23-.31-.87-1.75-1.8-3.45-2.51-5.29-1.13-2.96-1.96-6.01-2.69-9.08-.45-1.92-.47-3.94-.61-5.92-.23-3.1.37-6.08.99-9.06.6-2.85,1.74-5.48,3.41-7.89,1.12-1.62,2.38-3.07,3.9-4.32.43-.35.82-.76,1.38-.88.25-.46.6-.8,1.1-.98h0c.12-.09.25-.19.37-.28.18-.19.4-.3.66-.24.18.05.21.17.02.28-.08.33-.29.54-.62.63-.21.39-.43.77-.86.96-2.44,3.05-4.22,6.41-4.68,10.35-.13,1.14-.4,2.22-.69,3.31-.3,1.16-.15,2.37-.35,3.55-.27,1.61-.12,3.27-.33,4.9-.25,1.95.05,3.9.16,5.85Zm-6.35-2.94c-.62-.78-.69-1.31-.34-2.02.59.62.32,1.23.34,2.02Zm20.66,41.92c-.37-.23-.74-.47-.96-.87-.85-.38-1.11-1.3-1.74-1.87-3.03-2.7-5.8-5.65-8.28-8.84-2-2.57-4.03-5.16-5.57-8.05-1.85-3.48-3.73-6.94-5.11-10.66-1.13-3.05-2.04-6.14-2.67-9.33-.49-2.5-.62-5.03-.9-7.56-.27-2.42-.03-4.82.23-7.17.21-1.88.71-3.81,1.56-5.6.66-1.4,1.05-2.92,2.23-4.02.11-.36.27-.69.53-.97.22-.5.72-.75,1.03-1.17h0c.11-.35.5-.53.53-.92h0c.04-.16.14-.26.31-.29.1,0,.2,0,.3,0h0c.31-.55.48-1.22,1.36-1.48-.18.96-.91,1.44-1.36,2.08-.29.21-.57.42-.86.62h0c-.25.71-.56,1.39-1,2.01h0c-.19.24-.37.48-.56.72-.28.8-.55,1.61-.84,2.4-1.27,3.54-2.09,7.14-1.97,10.96.06,1.84-.06,3.7.22,5.53.38,2.55,1.02,5.04,1.7,7.53.49,1.81,1.3,3.45,1.98,5.15.7,1.73,1.76,3.33,2.72,4.95,1.36,2.28,2.71,4.57,4.17,6.78,1.51,2.29,3.02,4.59,4.78,6.7.69.82,1.04,1.81,1.54,2.72,1.21,2.17,2.46,4.31,3.91,6.33.36.37.86.65.85,1.27.07.06.09.13.08.22.56.37.97.87,1.23,1.49.27.24.54.48.81.72.18.05.27.16.28.35.02.08.03.15.04.23h0c.12.26.51.3.51.78-.49-.13-.91-.25-1.1-.77Zm.48-3.75s.18-.08.23-.05c.06.04.07.15.1.23-.07.04-.15.12-.21.11-.15-.03-.21-.16-.12-.29Zm1.04,5.35c-.06-.06-.09-.15-.13-.23.08-.03.18-.09.24-.06.06.03.08.15.12.23-.05.11-.13.15-.22.07Zm17.65,12.8c-.39.53-.64-.33-1.02-.45-.13-.04-.23-.17-.34-.26h0c-.11-.1-.23-.2-.34-.3h0c-.19.03-.36.02-.48-.16h0c-.14,0-.21-.08-.23-.21-.23-.2-.46-.39-.7-.59h.02c-.2.02-.3-.09-.35-.27-.26,0-.46-.09-.52-.38l-.02-.02c-.17,0-.27-.1-.29-.27-1.24-.6-2.15-1.62-3.23-2.43-2.29-1.72-3.85-4.12-5.85-6.11-.62-.62-1.33-1.34-1.64-2.27-.56-.26-.87-.76-1.19-1.24-.33-.48-.75-.9-1.2-1.26-.13-.11-.13-.25-.05-.39.14-.23.35-.2.5-.06.41.41.79.85,1.19,1.28.53.29.99.63,1.19,1.23h0c1.82,1.42,3.31,3.17,4.96,4.76,2.01,1.93,4.12,3.77,5.88,5.95.42.38,1.19.36,1.28,1.12h.01c.45.03.49.56.85.71h0s0,0,0,0c.18-.02.25.08.25.24.06.08.12.17.18.25.08-.02.13,0,.16.09h0c.08.05.18.1.24.17.26.3,1.08.4.74.86Zm6.85,3.54h0c-.26-.02-.48-.14-.65-.33-.48-.6-1.33-.92-1.4-1.84,0,0,0,0-.01,0h0s0,0,0,0c0,0,0,0,0-.01-.18-.02-.39.02-.49-.2-.02-.04.08-.19.1-.19.22.03.3.21.38.38,0,0,.01,0,.02,0,0,0,0,.01,0,.02.82.34,1.47.92,2.1,1.53.1.11.2.21.3.32h0c.45.65,1.53.68,1.83,1.84-.98-.41-1.62-.9-2.18-1.52Zm4.69.23c-.11-.04-.16-.11-.14-.23-.89-.27-1.5-.88-2.06-1.58-2.87-2.17-5.75-4.33-8.61-6.53-2.14-1.64-4.28-3.29-6.35-5.02-2.93-2.44-5.74-5-8.42-7.71-.39-.4-.7-.86-1.07-1.26-1.18-1.29-2.43-2.51-3.62-3.79-2.31-2.48-4.71-4.87-6.66-7.66-.87-1.24-1.23-2.71-1.79-4.1-1.11-2.75-1.74-5.65-2.41-8.51-.93-3.97-1.39-8.03-1.67-12.09-.08-1.22-.45-2.46-.06-3.7,0-.51-.42-1.01-.04-1.53.04-.18.07-.37.11-.55-.02-.37-.26-.75.08-1.09.33.33.14.72.14,1.08h0c.04.18.08.36.11.54h0c.35.6.29,1.24.2,1.88.75,2.63,1.43,5.29,2.49,7.81.96,2.27,2.12,4.45,3.22,6.65,1.55,3.11,3.55,5.96,5.67,8.69,1.24,1.6,2.41,3.28,3.76,4.82.99,1.13,2.11,2.24,2.8,3.66.39.8,1.17,1.35,1.75,2.04,2,2.4,4.03,4.79,5.89,7.28,1.93,2.57,4.02,5,6.03,7.49,1.85,2.28,3.57,4.68,5.75,6.68.69.63,1.17,1.47,1.75,2.22,1.16,1.1,2.32,2.2,3.46,3.31.25.24.54.46.55.85.2.05.28.16.23.37h.02c1.05.84,2.1,1.69,3.21,2.59-1.14.19-2.01-.36-4.35-2.62Zm4.13,7.55c-.18-.13-.49-.27-.31-.58.15-.26.4-.25.64-.1.29.18.72.12.86.55-.36.39-.77.43-1.19.13Zm.47-7.98c-1.01-.78-2.16-1.47-2.75-2.7-.06-.13-.13-.31-.24-.37-1.71-1.03-2.72-2.75-4.01-4.17-1.9-2.09-3.82-4.18-5.51-6.46-.44-.6-1.03-1.09-1.56-1.63-.24-.12-.38-.29-.34-.58h0c-.73-.07-1-.49-.91-1.19h0c-2.42-2.98-4.81-5.99-7.29-8.93-1.51-1.79-2.83-3.74-4.36-5.49-1.57-1.79-3.04-3.66-4.39-5.59-1.78-2.54-3.84-4.86-5.44-7.55-1.42-2.39-2.98-4.73-4.1-7.25-1.04-2.36-2.11-4.75-2.72-7.33-.46-1.95-.89-3.91-1.24-5.87-.32-1.75-.44-3.58-.21-5.39.11-.84.27-1.7.23-2.54-.08-1.68.32-3.24.68-4.86.38-1.66,1.08-3.08,1.95-4.48,1.58-2.54,3.9-4.3,6.62-5.23,2.08-.71,4.37-.99,6.65-.82,1.89.14,3.76.2,5.63.75,2.04.6,3.89,1.59,5.81,2.44,2.71,1.2,5.18,2.85,7.6,4.54,2.04,1.43,3.91,3.09,5.85,4.65,2.72,2.19,5.12,4.73,7.55,7.23.91.94,2.55.79,3.38-.06.48-.5.99-1.01,1.35-1.6,1.81-2.93,3.97-5.61,6.05-8.34,1.78-2.34,3.8-4.51,6.3-6.12,1.81-1.16,3.68-2.26,5.72-2.98.83-.3,1.75-.37,2.63-.48,1.84-.23,3.69-.05,5.54-.07,1.68-.02,2.72,1.05,3.54,2.23.79,1.14,1.68,2.23,2.41,3.43.89,1.46,1.61,2.99,2.17,4.57.56,1.59.97,3.26,1.19,4.93.32,2.43.49,4.88.08,7.34-.58,3.49-1.43,6.87-2.85,10.14-1.21,2.79-2.58,5.5-4.12,8.09-1.07,1.79-2.22,3.54-3.47,5.24-1.83,2.49-3.75,4.91-5.53,7.43-.87,1.23-1.84,2.37-2.84,3.45-.98,1.06-1.78,2.24-2.63,3.37-1.65,2.18-3.51,4.19-5.1,6.42-.46.65-.81,1.39-1.36,1.98-.04.42-.25.71-.64.88-.7.72-1.27,1.54-1.73,2.44-.48.95-1.24,1.7-1.85,2.55-1.57,2.17-3.23,4.27-4.54,6.63-.82,1.47-1.88,2.81-2.86,4.19-.64.9-1,1.96-1.81,2.77-.79.79-1.68,1.07-2.52.41ZM93.3,8.19q.61-.28,1.38.1c-.47.13-.92.15-1.38-.1Zm11.82,5.22h0c.18-.03.31.03.35.22h0l-.02.02c.57.03.81.41.95.9,1.86,1.35,2.95,3.28,3.75,5.33,1.08,2.77,1.46,5.67,1.62,8.66.14,2.48.06,4.95-.37,7.33-.3,1.7-.59,3.45-.89,5.15-.45,2.61-1.48,4.99-2.27,7.47-.72,2.25-1.81,4.35-2.9,6.43-1.05,2-2.09,4.01-3.21,5.97-.82,1.43-1.76,2.8-2.66,4.19-2.04,3.17-4.34,6.16-6.74,9.06-1.44,1.73-2.84,3.51-4.48,5.08-1.45,1.39-2.67,3.01-4.09,4.43-1.91,1.91-3.95,3.7-5.88,5.59-1.35,1.33-2.72,2.61-4.32,3.63-.66.45-.9,1.42-1.86,1.51-.04.18-.15.27-.33.28-.14.43-.51.44-.78.27-.31-.19-.18-.46.13-.62,0-.22.13-.29.32-.29.02-.17.09-.29.27-.33-.04-.28.06-.48.33-.59.25-.95,1.02-1.58,1.49-2.41.68-1.2,1.4-2.43,2.35-3.41,1.04-1.08,1.75-2.38,2.59-3.57,1.12-1.59,2.25-3.18,3.43-4.74,1.2-1.58,2.34-3.21,3.61-4.73.86-1.04,1.66-2.11,2.43-3.22.68-.98,1.58-1.76,2.31-2.71,1.69-2.2,3.43-4.36,5.11-6.56,1.27-1.66,2.49-3.36,3.75-5.04,1.29-1.71,2.48-3.49,3.48-5.4,1.09-2.08,2.22-4.13,3.24-6.25.09-.18.23-.34.3-.52,1.37-3.63,2.66-7.29,3.14-11.16.54-4.35.22-8.62-1.21-12.81-.32-.94-.73-1.86-1-2.83-.09-.34-.16-.7-.45-.94-.7-.58-.9-1.44-1.21-2.23h0c-.19-.03-.29-.12-.27-.32h-.03c-.17-.02-.26-.14-.31-.29h0c-.33-.05-.35-.33-.41-.57h-.1s-.09-.04-.09-.04c-.38-.19-.66-.44-.57-1.08.44.24.88.37,1.15.8h0c.05.05.08.12.08.19,0,.01-.02.02-.02.04.1,0,.18.03.26.09Zm-38.36,91.76c-.16.02-.3-.03-.31-.2,0-.17.12-.27.28-.29.15-.02.31.01.32.19,0,.16-.13.26-.29.3Zm.74-.53c.74-.46,1.24-.81,1.92-.94-.52,1.14-.63,1.2-1.92.94Zm48.26-72.46c.02.36-.08.69-.27,1,0,.16,0,.33,0,.5.31,1.16.29,2.29-.3,3.38.11.17.17.35.05.54-.49,2.84-.94,5.67-1.87,8.43-.7,2.07-1.36,4.17-2.04,6.25-.8,2.43-1.9,4.72-3.08,6.99-1.31,2.55-2.92,4.89-4.49,7.25-1.54,2.32-3.15,4.62-4.82,6.84-2.64,3.5-5.36,6.94-8.14,10.32-1.39,1.68-3.04,3.14-4.51,4.76-1.45,1.6-2.99,3.1-4.64,4.48-1.59,1.33-3.1,2.77-4.97,3.77-1.21.65-2.29,1.55-3.48,2.28-.73.45-1.43.9-2.24,1.17-.8.73-1.83,1.03-2.77,1.5-.49.66-1.24.66-2.04.86.16-.71.7-.87,1.14-1.14.7-.41,1.46-.73,2.08-1.27,2.57-1.74,4.95-3.74,7.33-5.72,2-1.67,3.96-3.4,5.87-5.19,2.64-2.48,5.11-5.1,7.56-7.75,3.32-3.59,6.6-7.22,9.33-11.29,1.34-1.99,2.62-4.02,3.9-6.05,1.44-2.3,2.77-4.66,4.07-7.02,1.81-3.29,3.37-6.74,4.5-10.32.92-2.94,1.89-5.89,2.2-9.01.14-1.44.27-2.94.72-4.36.04-.41-.47-.82-.04-1.24-.16-.46-.24-.92-.06-1.38.01-.04.03-.09.06-.13-.11-.3-.32-.61.03-.9-.21-1.76-.43-3.53-.64-5.29h0c-.22-.21-.31-.46-.23-.75-.05-.08-.07-.17-.06-.26-.29-.35-.26-.79-.32-1.2h0c-.05-.08-.12-.16-.16-.25-.11-.28-.24-.75.03-.81.46-.11.48.35.48.71h0,0c.1.21.33.34.3.61.1.07.11.16.05.26.23.15.23.4.27.63.45.19.33.57.3.92.44,1.57.87,3.15.64,4.81h0c.31,1.01.62,2.02.27,3.08h0Zm4.55-6.41c-.37,1.92-.11,3.87-.35,5.8-.05.41-.14.79-.25,1.17-.28.94-.76,1.83-.65,2.88.07.59-.61,1.03-.6,1.68.05.44.01.87-.28,1.24h0c-.15.5-.3.99-.5,1.66q-.25-.95.14-2.01h0c.05-.51-.18-1.08.35-1.48-.21-1.4.35-2.76.22-4.18-.18-2-.11-4.03-.38-6.01-.19-1.42-.71-2.81-1.2-4.17-.16-.46-.39-.91-.56-1.38-1.04-2.77-2.86-5-4.79-7.18-2.15-2.42-4.91-4.11-7.32-6.2-1.76-1.53-4.08-2.24-6.32-2.98-1.59-.52-3.21-.74-4.85-.91-.42-.04-.77-.2-1.16-.32-.66.2-1.23-.1-1.8-.34h0c-.31,0-.62,0-.92.01h0c-.29.03-.71.08-.72-.24-.03-.52.46-.3.76-.34,1.05,0,2.11-.01,3.16-.02.13-.04.28-.06.44,0,.79.36,1.63.05,2.42.05,3.77-.02,7.46.38,11.07,1.46.72.21,1.38.58,2.01,1.01,1.54,1.07,3.2,1.96,4.58,3.25,1.57,1.47,2.8,3.21,3.9,5.05,1.18,1.99,1.92,4.17,2.73,6.32.26.68.36,1.44.48,2.17.19,1.13-.07,2.31.43,3.41.08.16.03.4-.01.6Z"/>
  <path class="cls-1" d="m91.16,8.48s.02-.01.03-.02h0s-.02.01-.03.02Z"/>
  <path class="cls-1" d="m86.93,8.49c.23.02.47.04.7.06,0,0,0,0,.01,0,.03,0,.06,0,.08.01.04,0,.08,0,.13.01h0c.4-.13.8-.17,1.2,0,.19-.02.28.08.3.25.82-.07,1.68.24,2.46-.25-.19-.03-.39-.07-.62-.11,0,0-.02.01-.03.02,0,0,.02-.01.03-.02-.05,0-.1-.02-.15-.03.32-.18.56-.32.81-.46-.45-.03-.93-.2-1.27.27-.08.12-.16.18-.24,0-1.14.03-2.3-.34-3.4.23Z"/>
  <path class="cls-1" d="m87.64,8.55s0,0-.01,0c.03,0,.07,0,.1,0-.03,0-.06,0-.08-.01Z"/>
  <path class="cls-1" d="m6.26,31.89c-.09-.01-.17-.02-.26-.03,0,1,0,2.01,0,3.01.08.02.16.06.23.11h0s.05-.09.08-.13c-.02-.21.01-.4.22-.52,0-.63,0-1.25,0-1.88-.2-.13-.24-.35-.27-.56Z"/>
  <path class="cls-1" d="m91.67,2.81s0-.03.01-.04c.19-.1.37-.24.57-.31-1.05,0-2.11.01-3.16.02-.01.19-.02.39-.04.58h0c.31,0,.61,0,.92-.01h0c.51-.49,1.12-.19,1.69-.24Z"/>
  <path class="cls-1" d="m91.67,2.81s.08,0,.13-.02h0c.3-.11.6-.22.9-.34-.15,0-.29,0-.44,0-.2.07-.38.21-.57.31,0,.01,0,.03-.01.04Z"/>
  <path class="cls-1" d="m53.87,98.92h0c-.12.11-.23.22-.35.33h0c.56.62,1.2,1.11,2.18,1.52-.31-1.17-1.38-1.19-1.83-1.84Z"/>
  <path class="cls-1" d="m51.46,97.07h0s0,0,.01.01c0,0,0-.01,0-.02h0Z"/>
  <path class="cls-1" d="m53.57,98.6c-.63-.6-1.28-1.18-2.1-1.53.06.92.92,1.23,1.4,1.84.1-.42.42-.32.7-.31Z"/>
  <path class="cls-1" d="m38.09,7.05h0c.46.37,1.04.39,1.57.39.42,0,.89.93,1.32-.05-.59-.22-1.15-.42-1.71-.63h0c-.3.47-.78.19-1.18.29Z"/>
  <path class="cls-1" d="m69.42,103.7c-.69.12-1.18.47-1.92.94,1.3.26,1.41.2,1.92-.94Z"/>
  <path class="cls-1" d="m15.96,37.64c.1-.64.16-1.28-.2-1.88h0c-.15,0-.3.01-.44.02-.39.52.04,1.02.04,1.53.36-.18.45.13.61.33Z"/>
  <path class="cls-1" d="m15.36,37.31c.2.11.41.22.61.33-.15-.2-.25-.51-.61-.33Z"/>
  <path class="cls-1" d="m62.68,106.35c-.25-.15-.5-.16-.64.1-.18.31.14.46.31.58.42.3.83.26,1.19-.13-.14-.43-.57-.38-.86-.55Z"/>
  <path class="cls-1" d="m9.02,14.59c.45-.64,1.18-1.12,1.36-2.08-.89.26-1.06.93-1.36,1.48h0c0,.2,0,.4,0,.6Z"/>
  <path class="cls-1" d="m69.94,12.44c-.52.34-1.09.64-.96,1.67.6-.54,1.07-.95,1.53-1.37-.24,0-.5.02-.58-.3Z"/>
  <path class="cls-1" d="m67.23,101.86c-.21-.14-.11-.34.04-.49-.43.27-.97.43-1.14,1.14.79-.2,1.54-.2,2.04-.86-.31.08-.58.46-.94.21Z"/>
  <path class="cls-1" d="m67.27,101.37c-.16.15-.25.34-.04.49.37.25.63-.13.94-.21-.24-.3-.85.64-.9-.28Z"/>
  <path class="cls-1" d="m30.92,80.33c-.39-.43-.78-.87-1.19-1.28-.14-.14-.36-.17-.5.06-.08.13-.08.28.05.39.46.37.87.78,1.2,1.26-.08-.37.1-.48.43-.43Z"/>
  <path class="cls-1" d="m30.92,80.33c-.34-.05-.52.05-.43.43.08-.2.22-.35.43-.43Z"/>
  <path class="cls-1" d="m6.51,37.35c-.35.71-.28,1.25.34,2.02-.02-.79.25-1.4-.34-2.02Z"/>
  <path class="cls-1" d="m86.66,6.46c-.18-.07-.32-.2-.38-.39h0c-.53.07-1.14-.08-1.63.73.79-.23,1.44.11,2.01-.35Z"/>
  <path class="cls-1" d="m36.97,6.67s0,0,0,0c-.02.02-.04.03-.05.05.04.04.05.09.03.13-.03.06-.05.09-.08.09h0c.41.04.81.08,1.22.12.31-.44.82-.03,1.18-.29h0c-.5-.07-.93-.42-1.46-.35-.21.33-.53.26-.83.26Z"/>
  <path class="cls-1" d="m36.92,6.72s.04-.03.05-.05c0,0,0,0,0,0-.03,0-.06,0-.09,0h-.01s.04.03.05.05Z"/>
  <path class="cls-1" d="m36.95,6.85s0-.09-.03-.13c-.02.02-.04.03-.06.05,0,.06,0,.12,0,.17h0s.05-.03.08-.09Z"/>
  <path class="cls-1" d="m36.92,6.72s-.03-.03-.05-.04c0,.03,0,.06,0,.09.02-.01.04-.03.06-.05Z"/>
  <path class="cls-1" d="m38.09,7.05h0c.39-.1.87.18,1.18-.29-.35.26-.87-.15-1.18.29Z"/>
  <path class="cls-1" d="m117.82,38.2h0q-.39,1.06-.14,2.01c.2-.67.35-1.17.5-1.66h0c-.12-.12-.24-.23-.35-.35Z"/>
  <path class="cls-1" d="m7.16,17.22h0c.44-.62.75-1.29,1-2.01-.1,0-.19-.01-.29-.02h0c-.32.41-.81.67-1.03,1.17.48.15.34.52.32.86Z"/>
  <path class="cls-1" d="m28.1,81.29c0-.08-.02-.15-.04-.23-.17-.05-.26-.18-.28-.35-.27-.24-.54-.48-.81-.72.06.35-.08.5-.43.44.22.4.59.64.96.87.2,0,.4,0,.6-.01h0Z"/>
  <path class="cls-1" d="m26.98,79.99c-.14.15-.29.29-.43.44.36.06.49-.09.43-.44Z"/>
  <path class="cls-1" d="m69.07,17.64c.36-.42.94-.71.79-1.65-.43.56-1.06.67-1.12,1.33.29-.07.43,0,.33.33Z"/>
  <path class="cls-1" d="m68.74,17.31c.11.11.22.22.33.33.1-.32-.04-.4-.33-.33Z"/>
  <path class="cls-1" d="m6.23,35c-.1.01-.18-.02-.23-.13,0,.49-.02.98.02,1.47.02.21.09.55.41.44.27-.1.15-.42.15-.66-.47-.26-.26-.74-.36-1.12Z"/>
  <path class="cls-1" d="m6.23,35s0-.01,0-.02h0c-.07-.05-.15-.09-.23-.11.05.1.13.14.23.13Z"/>
  <path class="cls-1" d="m45.93,94.84c-.06-.07-.16-.11-.24-.17h0c-.13.11-.25.21-.38.32h0c.11.09.21.22.34.26.38.12.63.98,1.02.45.34-.46-.48-.56-.74-.86Z"/>
  <path class="cls-1" d="m118.17,36.72c-.53.39-.3.97-.35,1.48.21.02.25.21.35.35.29-.37.33-.79.28-1.24-.53.02-.49-.24-.29-.59Z"/>
  <path class="cls-1" d="m118.17,36.72c-.2.34-.24.6.29.59-.26-.11-.12-.42-.29-.59Z"/>
  <path class="cls-1" d="m117.82,38.2h0c.12.12.24.23.35.35h0c-.1-.13-.14-.32-.35-.35Z"/>
  <path class="cls-1" d="m94.67,8.29q-.77-.38-1.38-.1c.45.25.91.23,1.38.1Z"/>
  <path class="cls-1" d="m104.81,13.09c-.27-.43-.71-.55-1.15-.8-.1.64.19.89.57,1.08.09-.31.34-.29.59-.28Z"/>
  <path class="cls-1" d="m15.66,58.29c.25.34.21.88.98,1.23-.28-.67-.16-1.19-.59-1.6-.08.18-.2.31-.39.37Z"/>
  <path class="cls-1" d="m90.33,5.97c-.45-.46-.85-.44-1.27-.15,0,.08,0,.16,0,.25h0c.4-.04.84.22,1.27-.1Z"/>
  <path class="cls-1" d="m86.66,6.46c.2-.02.39-.04.58-.06.11-.19.21-.38.32-.57-.45-.04-.91-.1-1.28.25.22.04.35.17.38.39Z"/>
  <path class="cls-1" d="m86.66,6.46c-.03-.22-.16-.35-.38-.39h0c.07.19.2.31.38.39Z"/>
  <path class="cls-1" d="m64.84,14.31c-.13-.13-.26-.26-.39-.39-.22.49-.54.96-.52,1.76.39-.58.65-.97.91-1.37h0Z"/>
  <path class="cls-1" d="m8.16,15.21h0c.29-.21.57-.42.86-.62-.19-.2-.18-.4,0-.6-.1,0-.2,0-.3,0-.08.12-.19.21-.31.29h0c-.03.39-.42.58-.53.92h0c.1-.11.2-.11.29.02Z"/>
  <path class="cls-1" d="m9.02,14.59c0-.2,0-.4,0-.6h0c-.18.2-.19.4,0,.6Z"/>
  <path class="cls-1" d="m8.16,15.21c-.09-.12-.19-.12-.29-.02.1,0,.19,0,.29.02h0Z"/>
  <path class="cls-1" d="m86.93,8.49h0c-.28.16-.67.03-.89.34.33-.16.69-.19,1.05-.22-.05-.03-.11-.07-.16-.12Z"/>
  <path class="cls-1" d="m87.84,8.82h0c0-.05,0-.11,0-.16-.04,0-.08,0-.11,0-.22-.02-.45.04-.65-.05-.36.03-.71.06-1.05.22.6.14,1.21,0,1.81,0Z"/>
  <path class="cls-1" d="m87.08,8.61c.18-.01.36-.03.54-.06-.23-.02-.46-.04-.7-.06h0c.05.06.1.1.16.12Z"/>
  <path class="cls-1" d="m87.85,8.57h0s-.08,0-.13-.01c.04,0,.09.02.13.03,0,0,0-.01,0-.02Z"/>
  <path class="cls-1" d="m87.73,8.67s.08,0,.11,0c0-.02,0-.05,0-.07-.04-.01-.08-.02-.13-.03-.03,0-.07,0-.1,0-.18.03-.36.05-.54.06.2.1.44.03.65.05Z"/>
  <path class="cls-1" d="m113.92,21.87c0-.36-.02-.82-.48-.71-.27.06-.14.53-.03.81.03.09.1.17.16.25h0c.12-.12.23-.23.35-.35h0Z"/>
  <path class="cls-1" d="m47.5,81.95h0c-.09.69.18,1.12.91,1.18h0c-.48-.26-.67-.74-.91-1.18Z"/>
  <path class="cls-1" d="m48.41,83.13c-.3-.39-.61-.79-.91-1.18.24.44.43.92.91,1.18Z"/>
  <path class="cls-1" d="m89.09,2.48c-.3.04-.79-.18-.76.34.02.32.44.27.72.24-.18-.21-.18-.4.04-.58Z"/>
  <path class="cls-1" d="m89.09,2.48c-.21.18-.21.37-.04.58h0c.01-.19.02-.39.04-.58Z"/>
  <path class="cls-1" d="m113.86,22.76c.05-.04.11-.07.16-.08.03-.09.11-.15.2-.2.03-.27-.21-.4-.3-.61h0c-.1.13-.14.33-.35.35h0c.05.41.03.85.32,1.2-.12-.22-.12-.44-.03-.66Z"/>
  <path class="cls-1" d="m114.01,22.67c-.05.01-.11.04-.16.08-.09.23-.09.45.03.66.04-.21.09-.42.13-.63,0-.05,0-.08,0-.12Z"/>
  <path class="cls-1" d="m113.92,21.87c-.12.12-.23.23-.35.35.21-.02.25-.22.35-.35Z"/>
  <path class="cls-1" d="m28.1,81.29h0c-.2.2-.39.18-.6.01.19.52.61.63,1.1.77,0-.48-.39-.52-.51-.78Z"/>
  <path class="cls-1" d="m28.1,81.29c-.2,0-.4,0-.6.01.2.17.4.19.6-.01Z"/>
  <path class="cls-1" d="m53.87,98.92h0c-.1-.11-.2-.21-.3-.32-.18.23-.43.3-.7.31.17.2.39.31.65.33h0c.02-.21.21-.24.35-.33Z"/>
  <path class="cls-1" d="m53.52,99.25c.12-.11.23-.22.35-.33-.14.08-.33.11-.35.33Z"/>
  <path class="cls-1" d="m53.57,98.6c-.28,0-.61-.11-.7.31.27-.01.52-.08.7-.31Z"/>
  <path class="cls-1" d="m66.72,104.67c-.16.02-.29.12-.28.29.01.17.15.22.31.2.16-.04.29-.15.29-.3,0-.17-.17-.21-.32-.19Z"/>
  <path class="cls-1" d="m91.5,8.36c.11.01.21.09.31.22.09-.03.17-.05.26-.06-.01-.19-.03-.37-.04-.56,0,0,0,0,0,0-.07,0-.13.02-.2.03h0c.01.27-.16.33-.34.38Z"/>
  <path class="cls-1" d="m91.19,8.47h0s.02-.01.03-.02c-.01,0-.02.01-.03.02Z"/>
  <path class="cls-1" d="m91.19,8.47s.02-.01.03-.02c.1-.07.2-.1.29-.09.18-.04.35-.1.34-.38h0c-.25.14-.49.28-.81.46.05,0,.1.02.15.03Z"/>
  <path class="cls-1" d="m91.22,8.44c.08-.04.19-.06.29-.09-.09-.01-.18.02-.29.09Z"/>
  <path class="cls-1" d="m91.5,8.36c-.1.02-.21.04-.29.09,0,0-.02.01-.03.02.23.04.43.08.62.11-.1-.13-.2-.2-.31-.22Z"/>
  <path class="cls-1" d="m87.24,6.39c.28.03.61.09.73-.22.13-.33-.18-.34-.41-.35h0c.13.32-.16.41-.32.57Z"/>
  <path class="cls-1" d="m87.56,5.82h0c-.11.19-.21.38-.32.57.16-.16.45-.25.32-.57Z"/>
  <path class="cls-1" d="m78.77,79.19c-.27.25-.38.62-.64.88.39-.17.6-.46.64-.88Z"/>
  <path class="cls-1" d="m78.13,80.07c.25-.26.37-.63.64-.88-.46.12-.6.46-.64.88Z"/>
  <path class="cls-1" d="m28.32,77.73c-.03-.08-.04-.19-.1-.23-.05-.03-.2,0-.23.05-.09.13-.04.26.12.29.06.01.14-.07.21-.11Z"/>
  <path class="cls-1" d="m15.65,35.22c0-.37.19-.75-.14-1.08-.35.35-.11.73-.08,1.09.07,0,.15,0,.22,0Z"/>
  <path class="cls-1" d="m19.94,13.4c.33-.09.54-.3.62-.63-.23-.02-.45-.03-.68-.05-.12.09-.25.19-.37.28.39-.13.47.07.43.4Z"/>
  <path class="cls-1" d="m19.94,13.4c.04-.33-.04-.53-.43-.4h0c.19.08.36.19.43.4Z"/>
  <path class="cls-1" d="m6.37,34.88s-.05.08-.08.12c-.01,0-.03,0-.04,0,.4.28-.02.83.34,1.12v-1.22c-.08.01-.15,0-.22-.03Z"/>
  <path class="cls-1" d="m6.29,34.99s.06-.07.08-.12c-.02,0-.04-.02-.06-.03h0s-.05.09-.08.13h0s.01.01.02.02c.01,0,.02,0,.04,0Z"/>
  <path class="cls-1" d="m6.25,35s-.01,0-.02,0c.09.38-.11.86.36,1.12-.36-.3.06-.84-.34-1.12Z"/>
  <path class="cls-1" d="m6.25,35s-.01-.01-.02-.02c0,0,0,.01,0,.02,0,0,0,0,.02,0Z"/>
  <path class="cls-1" d="m20.56,12.76c.19-.11.16-.23-.02-.28-.26-.07-.48.04-.66.24.24-.11.46-.12.68.05Z"/>
  <path class="cls-1" d="m19.89,12.72c.23.02.45.03.68.05-.22-.17-.44-.16-.68-.05Z"/>
  <path class="cls-1" d="m70.25,12.15s0,0,0,0c0,0,0,0,0,0-.1.1-.21.19-.31.29.21.07.41.15.58.3.09-.05.14-.12.15-.22-.33.09-.48-.04-.42-.38Z"/>
  <path class="cls-1" d="m70.25,12.15c-.05.34.09.47.42.38-.14-.13-.28-.25-.42-.38,0,0,0,0,0,0Z"/>
  <path class="cls-1" d="m70.51,12.74c-.17-.15-.37-.23-.58-.3.08.32.33.3.58.3Z"/>
  <path class="cls-1" d="m88.78,8.79s-.1,0-.14,0c-.15.01-.3.03-.44.04.04.09.02.18-.05.28.35.03.69.05.95-.26-.03-.03-.07-.06-.1-.09-.03,0-.05,0-.08,0-.04,0-.09.02-.13.02Z"/>
  <path class="cls-1" d="m88.19,8.83s-.07,0-.1,0h0c0,.09.03.18.05.27.07-.1.09-.19.05-.28Z"/>
  <path class="cls-1" d="m88.78,8.79s.09-.01.13-.02c-.09,0-.18.02-.27.03.05,0,.09,0,.14,0Z"/>
  <path class="cls-1" d="m29.13,82.61c-.05-.03-.16.04-.24.06.04.08.07.17.13.23.09.08.18.05.22-.07-.04-.08-.05-.19-.12-.23Z"/>
  <path class="cls-1" d="m51.07,96.68s-.12.14-.1.19c.1.21.3.18.49.2-.08-.18-.17-.35-.38-.38Z"/>
  <path class="cls-1" d="m51.45,97.06s0,0,0,.01c0,0,0,0,0,0h0s-.01,0-.02,0Z"/>
  <path class="cls-1" d="m45.69,94.68h0c-.03-.08-.08-.11-.16-.09-.16.16-.35.2-.56.11.11.1.23.2.34.3.05-.19.25-.22.38-.32Z"/>
  <path class="cls-1" d="m45.53,94.59c-.19.04-.37.07-.56.11h0c.21.09.4.06.56-.11Z"/>
  <path class="cls-1" d="m45.69,94.68c-.13.1-.33.13-.38.32h0c.13-.11.25-.21.38-.32Z"/>
  <path class="cls-1" d="m88.96,5.9c.03-.05.06-.08.1-.08-.23-.08-.56-.14-.56.14,0,.25.33.25.56.11h0c-.1-.05-.13-.11-.1-.16Z"/>
  <path class="cls-1" d="m89.05,5.82s-.06.03-.1.08c-.03.05,0,.11.1.16,0-.08,0-.16,0-.25Z"/>
  <path class="cls-1" d="m92.07,8.51c.36-.21.41-.4-.04-.56h0c.25.17.22.36.04.56Z"/>
  <path class="cls-1" d="m92.04,7.95c.01.19.03.37.04.56.18-.2.21-.39-.04-.56Z"/>
  <path class="cls-1" d="m48.41,83.14c-.04.28.09.46.34.58-.21-.14-.12-.45-.34-.58Z"/>
  <path class="cls-1" d="m48.41,83.14c.22.13.13.44.34.58.06-.29-.03-.5-.34-.58Z"/>
  <path class="cls-1" d="m104.81,13.09h0c-.14.21-.44.09-.59.28l.09.04h.1c.16-.05.31-.09.47-.13l-.03.04h0s0,0,0,0c0-.01.02-.02.02-.04,0-.07-.03-.14-.08-.19Z"/>
  <path class="cls-1" d="m104.81,13.09h0c-.24,0-.5-.03-.59.28.15-.2.44-.08.59-.28Z"/>
  <path class="cls-1" d="m104.42,13.41c.06.25.08.52.41.57,0-.22.02-.43.03-.65-.11.15-.26.18-.44.08Z"/>
  <path class="cls-1" d="m104.85,13.33s0,0,0-.01h0s.03-.04.03-.04c-.16.04-.31.08-.47.13.18.1.32.07.44-.08Z"/>
  <path class="cls-1" d="m15.77,35.76c-.04-.18-.08-.36-.11-.54h0c-.07.12-.14.12-.22,0-.04.18-.07.37-.11.55.14-.14.29-.14.44-.02Z"/>
  <path class="cls-1" d="m15.77,35.76c-.15-.12-.3-.12-.44.02.15,0,.3-.01.44-.02h0Z"/>
  <path class="cls-1" d="m15.65,35.22h0c-.07.01-.15.02-.22,0,.08.12.15.11.22,0Z"/>
  <path class="cls-1" d="m104.83,13.98h0c.05.15.14.27.31.29-.07-.06-.11-.14-.14-.22-.06,0-.11-.02-.17-.07Z"/>
  <path class="cls-1" d="m105.15,13.97s-.1.08-.15.08c.03.08.07.16.14.22,0-.1,0-.2,0-.3h0Z"/>
  <path class="cls-1" d="m105,14.05s-.01-.05-.02-.08c-.05,0-.1,0-.16,0,.06.05.12.08.17.07Z"/>
  <path class="cls-1" d="m105.15,13.97c-.05,0-.11,0-.16,0,0,.03,0,.05.02.08.05,0,.1-.03.15-.08Z"/>
  <path class="cls-1" d="m8.71,13.98c-.17.03-.27.13-.31.29h0c.1-.1.21-.19.31-.29Z"/>
  <path class="cls-1" d="m105.22,13.58c.08,0,.17,0,.25.05-.04-.19-.16-.25-.35-.22h0c.08.06.11.12.1.18Z"/>
  <path class="cls-1" d="m105.22,13.58s0,.02,0,.02c-.03.07-.05.11-.08.11.11-.03.22-.06.33-.08h0c-.08-.04-.17-.05-.25-.05Z"/>
  <path class="cls-1" d="m105.22,13.58c0-.06-.02-.12-.1-.18,0,.06,0,.13,0,.19.03,0,.06-.01.09-.02Z"/>
  <path class="cls-1" d="m105.21,13.61s0-.02,0-.02c-.03,0-.06,0-.09.02,0,.04,0,.08,0,.11.03,0,.05-.04.08-.11Z"/>
  <path class="cls-1" d="m28.06,81.06c0-.19-.11-.3-.28-.35.13.08.23.2.28.35Z"/>
  <path class="cls-1" d="m28.06,81.06c-.05-.15-.15-.26-.28-.35.03.17.11.29.28.35Z"/>
  <path class="cls-1" d="m70.25,12.15h0c.14-.09.23-.21.27-.37-.19.06-.28.18-.28.38,0,0,0,0,0,0h0Z"/>
  <path class="cls-1" d="m70.25,12.15h0c.17-.07.26-.19.27-.37-.04.16-.13.29-.27.37Z"/>
  <polygon class="cls-1" points="70.24 12.15 70.25 12.15 70.25 12.15 70.24 12.15"/>
  <polygon class="cls-1" points="70.25 12.15 70.24 12.15 70.24 12.15 70.25 12.15"/>
  <polygon class="cls-1" points="70.25 12.15 70.25 12.15 70.25 12.15 70.25 12.15 70.25 12.15"/>
  <polygon class="cls-1" points="70.25 12.15 70.25 12.15 70.24 12.15 70.25 12.15 70.25 12.15"/>
  <polygon class="cls-1" points="70.25 12.15 70.25 12.15 70.25 12.15 70.25 12.15 70.25 12.15"/>
  <path class="cls-1" d="m89,8.75s0,0,0,.01c0,0,.09.09.09.09.09,0,.18,0,.27-.03-.11-.1-.23-.1-.35-.08Z"/>
  <path class="cls-1" d="m89.05,8.57c0,.06-.02.12-.05.18.12-.02.24-.02.35.08-.03-.17-.12-.27-.3-.25Z"/>
  <path class="cls-1" d="m90.45,8.34l.12-.09c-.08,0-.16,0-.24,0h0l.12.09Z"/>
  <path class="cls-1" d="m90.57,8.25l-.12.09-.12-.09h0c.08.18.16.11.24,0Z"/>
  <path class="cls-1" d="m45.35,94.34c0-.16-.07-.26-.25-.24h0c.11.06.19.14.25.24Z"/>
  <path class="cls-1" d="m45.1,94.1c.08.08.17.16.25.24-.06-.1-.15-.18-.25-.24Z"/>
  <path class="cls-1" d="m44.25,94.34c.02.13.09.2.23.21h0c-.11-.03-.19-.1-.23-.21Z"/>
  <path class="cls-1" d="m44.48,94.55c-.08-.07-.15-.14-.23-.21.04.11.12.17.23.21Z"/>
</svg>