<svg width="44" height="78" viewBox="0 0 44 78" fill="none" xmlns="http://www.w3.org/2000/svg">
<path d="M15.9154 29.2073C19.1097 28.4534 21.088 25.2527 20.3341 22.0584C19.5802 18.8641 16.3795 16.8858 13.1852 17.6397C9.99086 18.3936 8.01255 21.5943 8.76647 24.7886C9.5204 27.9829 12.7211 29.9612 15.9154 29.2073Z" fill="#9C9C9C"/>
<path d="M14.5578 0.00595447C11.5001 0.00595447 7.92499 4.62212 5.59312 8.9468C3.71334 12.4327 0.560547 19.5592 0.560547 28.1074C0.560547 52.14 4.67702 68.1241 6.44972 73.8824C7.08028 75.9347 8.94816 77.3148 11.0956 77.3148H17.9663C20.1079 77.3148 21.9757 75.9407 22.6063 73.9003C24.3968 68.1063 28.555 52.0508 28.555 28.1015C28.555 14.1638 19.5784 0 14.5637 0L14.5578 0.00595447ZM14.5578 2.99813C16.7171 2.99813 25.5628 14.2768 25.5628 28.1074C25.5628 39.4634 24.6169 48.9932 23.4391 56.4528C22.065 56.5837 20.8752 56.9763 19.858 57.5236C18.7159 55.275 17.5678 51.8486 17.7105 47.3097C19.8045 48.5233 21.1727 51.1883 21.1727 51.1883C21.1727 51.1883 23.1298 45.4894 17.6094 45.9415C17.6035 45.9296 17.5916 45.9178 17.5856 45.9059C23.4629 42.6995 23.4629 37.7086 23.4629 37.7086C23.4629 37.7086 18.936 38.9281 17.1038 44.8292C17.7641 36.9948 9.52518 34.8056 9.52518 34.8056C9.52518 34.8056 11.2027 41.1648 16.4435 44.9838C4.332 40.1476 7.53833 50.2246 7.53833 50.2246C7.53833 50.2246 9.65605 46.1914 16.3007 45.8047C16.3007 45.8047 16.2948 45.8166 16.2888 45.8166C13.4216 46.3639 10.5721 48.8861 12.8802 55.971C12.8445 52.0389 14.8849 49.0051 15.9973 47.6488C15.9141 52.3245 17.08 55.9175 18.4125 58.4754C15.914 60.4563 14.8433 63.1808 14.7303 63.4842C14.6767 63.502 14.6172 63.5139 14.5518 63.5139C14.3139 63.5139 14.1949 63.4068 13.8558 62.9785C13.481 62.5086 12.9159 61.8007 11.8214 61.8007C10.7268 61.8007 10.1617 62.5086 9.78692 62.9726C9.44785 63.4009 9.32888 63.508 9.08498 63.508C8.84109 63.508 8.72806 63.4009 8.38899 62.9726C8.04397 62.5383 7.52643 61.9078 6.58654 61.8185C5.03394 53.8176 3.55273 42.4259 3.55273 28.1015C3.55273 13.7771 12.3984 2.9922 14.5578 2.9922V2.99813ZM20.7206 68.8439C20.3815 69.2722 20.2625 69.3793 20.0186 69.3793C19.7747 69.3793 19.6617 69.2722 19.3167 68.8439C18.9419 68.374 18.3768 67.672 17.2822 67.672C16.1877 67.672 15.6226 68.3799 15.2478 68.8439C14.9087 69.2722 14.7898 69.3793 14.5459 69.3793C14.302 69.3793 14.1889 69.2722 13.8499 68.8439C13.4751 68.374 12.91 67.672 11.8154 67.672C10.7209 67.672 10.1557 68.3799 9.78098 68.8439C9.4419 69.2722 9.32293 69.3793 9.07903 69.3793C8.83514 69.3793 8.72211 69.2722 8.38304 68.8439C8.28191 68.719 8.16889 68.5822 8.03802 68.4394C7.71084 67.1426 7.36582 65.6673 7.0208 64.0136C7.03269 64.0255 7.03864 64.0374 7.05054 64.0493C7.42531 64.5192 7.99043 65.2212 9.08498 65.2212C10.1795 65.2212 10.7447 64.5133 11.1194 64.0493C11.4585 63.621 11.5775 63.5139 11.8214 63.5139C12.0653 63.5139 12.1783 63.621 12.5174 64.0493C12.8921 64.5192 13.4573 65.2271 14.5518 65.2271C14.5578 65.2271 14.5637 65.2271 14.5697 65.2271H20.0008C20.0008 65.2271 20.0127 65.2271 20.0186 65.2271C20.0246 65.2271 20.0305 65.2271 20.0365 65.2271H21.7794C21.5117 66.4228 21.25 67.5174 21.0002 68.5108C20.8931 68.6298 20.7979 68.7428 20.7206 68.8439ZM17.9663 74.3345H11.0956C10.2688 74.3345 9.55493 73.8051 9.31103 73.008C9.13852 72.4548 8.94816 71.8004 8.73996 71.0568C8.85299 71.0747 8.96601 71.0865 9.09093 71.0865C10.1855 71.0865 10.7506 70.3787 11.1254 69.9147C11.4644 69.4864 11.5834 69.3793 11.8273 69.3793C12.0712 69.3793 12.1842 69.4864 12.5233 69.9147C12.8981 70.3846 13.4632 71.0865 14.5578 71.0865C15.6523 71.0865 16.2174 70.3787 16.5922 69.9147C16.9313 69.4864 17.0502 69.3793 17.2941 69.3793C17.538 69.3793 17.6511 69.4864 17.9961 69.9147C18.3708 70.3846 18.936 71.0865 20.0305 71.0865C20.1376 71.0865 20.2387 71.0747 20.3339 71.0628C20.1257 71.8123 19.9294 72.4666 19.7569 73.0258C19.513 73.8051 18.7992 74.3345 17.9782 74.3345H17.9663Z" fill="#9C9C9C"/>
<path d="M39.3996 17.8401H37.4365V75.6016H39.3996V17.8401Z" fill="#9C9C9C"/>
<path d="M40.3459 76.7081L39.6083 75.5719H37.2288L36.4912 76.7081H40.3459Z" fill="#9C9C9C" stroke="#9C9C9C" stroke-width="1.99" stroke-linecap="round" stroke-linejoin="round"/>
<path d="M38.4948 13.1228C34.2832 13.1525 33.7002 15.3238 33.7002 17.6616C33.7002 19.5771 35.0922 27.935 35.2052 28.6072C35.2587 29.0593 35.6633 30.3918 38.4948 30.4215C41.3264 30.3918 41.7309 29.0593 41.7844 28.6072C41.8975 27.935 43.2894 19.5771 43.2894 17.6616C43.2894 15.3178 42.7065 13.1525 38.4948 13.1228Z" fill="#9C9C9C"/>
</svg>
