<svg width="75" height="75" viewBox="0 0 75 75" fill="none" xmlns="http://www.w3.org/2000/svg">
<path d="M63.2233 11.238C56.1377 4.31038 46.7771 0.53454 36.8636 0.676726C26.9579 0.795215 17.6842 4.76065 10.7565 11.8463C3.8289 18.9319 0.0846631 28.2925 0.195253 38.2061C0.313741 48.1117 4.27916 57.3854 11.3648 64.3131C18.3477 71.138 27.5345 74.8744 37.2822 74.8744C37.4323 74.8744 37.5824 74.8744 37.7246 74.8744C47.6302 74.7559 56.9039 70.7904 63.8316 63.7048C70.7592 56.6192 74.5035 47.2586 74.3929 37.345C74.2744 27.4394 70.309 18.1657 63.2233 11.238ZM12.8577 13.8922C19.2403 7.36737 27.7715 3.71001 36.9031 3.60732C37.0373 3.60732 37.1716 3.60732 37.3138 3.60732C46.2874 3.60732 54.7554 7.05139 61.1853 13.3392C67.7101 19.7139 71.3675 28.253 71.4702 37.3845C71.5728 46.5081 68.1209 55.1342 61.7462 61.6589C55.3715 68.1837 46.8324 71.841 37.7009 71.9437C28.6009 72.0543 19.9513 68.5944 13.4265 62.2197C6.90171 55.8451 3.24436 47.306 3.14167 38.1744C3.03898 29.0508 6.49095 20.4248 12.8656 13.9001L12.8577 13.8922Z" fill="#9C9C9C"/>
<path d="M27.5817 39.3672C29.5249 39.3672 31.1047 34.13 31.1047 27.6763C31.1047 21.2226 29.5249 15.9775 27.5817 15.9775C25.6384 15.9775 24.0586 21.2147 24.0586 27.6763C24.0586 34.1379 25.6384 39.3672 27.5817 39.3672Z" fill="#9C9C9C"/>
<path d="M48.6256 39.3672C50.5688 39.3672 52.1487 34.13 52.1487 27.6763C52.1487 21.2226 50.5688 15.9775 48.6256 15.9775C46.6824 15.9775 45.1025 21.2147 45.1025 27.6763C45.1025 34.1379 46.6824 39.3672 48.6256 39.3672Z" fill="#9C9C9C"/>
<path d="M14.09 41.2314C14.1058 42.2662 14.1927 43.5301 14.4613 44.9678C14.722 46.4055 15.1485 48.009 15.8279 49.6994C16.5072 51.382 17.4314 53.1593 18.6795 54.8655C19.2877 55.7344 20.0066 56.5559 20.757 57.3696C21.5232 58.1832 22.3843 58.9415 23.2927 59.6683C25.1332 61.098 27.2739 62.3145 29.6121 63.1361C30.7812 63.5389 31.9897 63.8706 33.2299 64.0839C34.4306 64.2814 35.8525 64.3999 36.9426 64.4078L37.9379 64.3762C38.2538 64.3762 38.5698 64.3367 38.8779 64.313C39.5098 64.2735 40.126 64.1708 40.75 64.0839C41.9902 63.8706 43.1988 63.5389 44.3679 63.1361C46.706 62.3066 48.8388 61.098 50.6794 59.6683C51.5957 58.9415 52.4488 58.1832 53.215 57.3696C53.9733 56.548 54.6922 55.7344 55.2925 54.8655C56.5406 53.1593 57.4648 51.3899 58.1441 49.6994C58.8235 48.009 59.25 46.4055 59.5107 44.9678C59.7714 43.5301 59.8662 42.2662 59.882 41.2314C59.882 41.0102 59.882 40.8128 59.8899 40.6153C62.8284 40.5047 65.1824 37.582 65.1824 36.8394C65.1824 36.0969 62.7336 37.8821 59.7161 37.8821C56.6986 37.8821 54.2498 36.0811 54.2498 36.8394C54.2498 37.5978 56.4616 40.3309 59.2816 40.5995C59.2421 40.7733 59.2105 40.9549 59.1631 41.1445C58.9578 42.1319 58.626 43.3089 58.1599 44.6123C57.6939 45.9157 57.0777 47.3375 56.2562 48.7989C55.4347 50.2603 54.4236 51.7611 53.1676 53.1672C52.5515 53.886 51.8642 54.5654 51.1375 55.2289C50.395 55.8766 49.6129 56.5007 48.7835 57.0773C47.9383 57.6381 47.0615 58.1674 46.1294 58.6335C45.1973 59.0837 44.2336 59.4787 43.2304 59.8105C42.2272 60.1264 41.2003 60.3634 40.1576 60.5451C39.6283 60.6083 39.107 60.6952 38.5777 60.7267C38.3091 60.7425 38.0485 60.7741 37.7799 60.7741L37.0295 60.79C35.7972 60.7821 34.8888 60.7031 33.8066 60.5451C32.7639 60.3634 31.7291 60.1264 30.7338 59.8105C29.7384 59.4787 28.7747 59.0837 27.8347 58.6335C26.9105 58.1753 26.0337 57.6381 25.1806 57.0773C24.3512 56.5007 23.5691 55.8766 22.8266 55.2289C22.0999 54.5654 21.4126 53.886 20.7965 53.1751C19.5405 51.7611 18.5215 50.2603 17.7079 48.8068C16.8864 47.3455 16.2702 45.9236 15.8042 44.6202C15.3381 43.3168 15.0064 42.1399 14.801 41.1603C14.7536 40.9708 14.722 40.7891 14.6825 40.6153C17.4946 40.3467 19.7143 37.5741 19.7143 36.8552C19.7143 36.0969 17.2655 37.898 14.248 37.898C11.2305 37.898 8.78174 36.0969 8.78174 36.8552C8.78174 37.6136 11.1357 40.5205 14.0742 40.6311C14.0742 40.8285 14.0742 41.0339 14.0821 41.2472L14.09 41.2314Z" fill="#9C9C9C"/>
</svg>
