<svg width="76" height="80" viewBox="0 0 76 80" fill="none" xmlns="http://www.w3.org/2000/svg">
<path d="M41.1229 49.379L46.5993 50.7849L45.4785 56.1179H38.8865L40.2591 54.0634L41.9622 54.5827L41.1246 49.379H41.1229ZM22.9939 45.7648L21.7961 54.8852L20.3239 54.1771L19.2607 56.1179H25.3352L27.7727 49.6885L22.9956 45.7648H22.9939ZM55.2127 29.1885L38.6906 31.2203C38.0157 31.2938 37.4667 31.7571 37.2428 32.4146C37.2428 32.4146 48.5035 31.7082 51.2907 31.5683C53.9013 31.4371 54.8385 30.9038 55.2127 29.1885ZM36.5469 34.4814L49.4267 34.3415C51.0949 34.3905 51.8188 34.3415 52.4605 32.8692L36.9368 33.427L36.5469 34.4814ZM27.416 34.5373C27.6013 34.4079 27.7027 34.1876 27.68 33.9621L27.5122 32.2432C27.5122 32.161 27.4999 32.0806 27.4772 32.0037C27.4387 31.8778 27.3478 31.7746 27.2394 31.7012C26.8495 31.4406 26.0154 30.7552 26.0154 30.7552H26.0136C26.0136 30.7552 25.1831 31.4389 24.7914 31.6994C24.6813 31.7729 24.5886 31.876 24.5501 32.0019C24.5274 32.0789 24.5151 32.1593 24.5151 32.2415L24.3473 33.9603C24.3245 34.1859 24.426 34.4062 24.6113 34.5356L24.655 34.5653C24.8299 34.686 25.0694 34.6527 25.2041 34.4884L25.865 33.5511C25.865 33.4899 25.8161 33.4392 25.7531 33.4392C25.4698 33.4392 25.239 33.2102 25.239 32.9252V32.4076H26.7848V32.9252C26.7848 33.2084 26.5557 33.4392 26.2724 33.4392C26.2112 33.4392 26.1605 33.4882 26.1605 33.5511L26.8215 34.4884C26.9579 34.6527 27.1957 34.686 27.3723 34.5653L27.416 34.5356M57.1466 24.5251C57.1221 25.6967 56.2618 27.5221 53.5743 27.8421C43.6338 29.0259 40.0947 29.8792 38.0017 30.166C37.3093 30.2604 36.7218 30.7132 36.4525 31.3585L33.9835 37.7739L36.108 35.5672L46.3038 35.6197C47.9632 35.6109 49.5754 36.174 50.8676 37.2144L53.7194 39.5085L55.1235 39.5102V39.8197C55.1235 40.5961 54.494 41.2255 53.7177 41.2255L53.7124 48.8562L54.8263 54.5862L53.6285 56.1197H48.0174L49.14 54.1071L50.5878 54.5845L48.1433 49.8983L36.108 46.8943L33.139 56.1197H26.6239L27.9021 54.0651L29.453 54.5617L29.6471 49.6868L22.1843 43.3605L20.2592 36.3139L20.9428 32.4443L19.8098 31.341V28.9997L20.768 28.7549L22.6739 29.2252L24.2913 28.4786L26.0399 28.6832L27.8182 28.4786L29.4356 29.2252L31.3415 28.7549L32.2997 28.9997V31.341L31.1666 32.4443L32.2507 35.0129L34.5501 30.2918C34.9627 29.3843 35.795 28.7391 36.776 28.5625L57.1449 24.5269L57.1466 24.5251ZM23.0429 24.5828V27.7057H28.9914V24.5828C29.0893 24.5583 29.1628 24.4744 29.1628 24.3695C29.1628 24.2454 29.0631 24.1457 28.939 24.1457C28.8148 24.1457 28.7152 24.2454 28.7152 24.3695C28.7152 24.4534 28.7641 24.5251 28.8323 24.5636L28.3077 25.4886C28.1276 25.8173 27.6503 25.8033 27.4894 25.4693L27.096 24.5583C27.1607 24.5199 27.2062 24.4517 27.2062 24.3695C27.2062 24.2454 27.1065 24.1457 26.9823 24.1457C26.8582 24.1457 26.7585 24.2454 26.7585 24.3695C26.7585 24.4552 26.8075 24.5251 26.8774 24.5636L26.4648 25.4711C26.3826 25.632 26.2165 25.7421 26.0259 25.7456H26.0067C25.8143 25.7421 25.6482 25.632 25.5678 25.4711L25.1551 24.5636C25.2251 24.5251 25.274 24.4552 25.274 24.3695C25.274 24.2454 25.1743 24.1457 25.0502 24.1457C24.926 24.1457 24.8264 24.2454 24.8264 24.3695C24.8264 24.4499 24.8718 24.5181 24.9365 24.5583L24.5431 25.4693C24.3822 25.8051 23.9049 25.8173 23.7248 25.4886L23.202 24.5636C23.2719 24.5251 23.3191 24.4534 23.3191 24.3695C23.3191 24.2454 23.2195 24.1457 23.0953 24.1457C22.9712 24.1457 22.8715 24.2454 22.8715 24.3695C22.8715 24.4744 22.9449 24.5583 23.0429 24.5828ZM55.7722 55.4308V55.2157H55.8946C55.9681 55.2157 56.0555 55.2262 56.0555 55.3206C56.0555 55.4238 55.9628 55.4308 55.8824 55.4308H55.7722ZM55.6306 55.8889H55.7722V55.5514H55.8754L56.059 55.8889H56.2304L56.0188 55.5374C56.1359 55.5199 56.2024 55.436 56.2024 55.3224C56.2024 55.144 56.059 55.095 55.9069 55.095H55.6306V55.8906V55.8889ZM55.8964 54.88C56.2356 54.88 56.5119 55.1562 56.5119 55.4955C56.5119 55.8347 56.2356 56.1127 55.8964 56.1127C55.5572 56.1127 55.2809 55.8364 55.2809 55.4955C55.2809 55.1545 55.5572 54.88 55.8964 54.88ZM55.8964 56.2368C56.3038 56.2368 56.636 55.9046 56.636 55.4972C56.636 55.0898 56.3038 54.7576 55.8964 54.7576C55.489 54.7576 55.1568 55.0898 55.1568 55.4972C55.1568 55.9046 55.489 56.2368 55.8964 56.2368Z" fill="#9C9C9C"/>
<path d="M16.6315 20.7815L13.7622 24.1842L5.14355 16.9207L8.01118 13.518C8.9484 12.4042 10.3945 12.03 11.5852 13.0337L12.4787 13.7855C13.0995 14.3083 13.6258 15.1284 13.0173 16.1653C13.9685 15.4834 14.7693 15.7159 15.4548 16.293L16.5021 17.176C17.7051 18.1901 17.567 19.6677 16.6298 20.7797L16.6315 20.7815ZM10.0885 15.4659C9.77722 15.2036 9.53067 15.2613 9.32259 15.5061L8.84349 16.0761L10.6672 17.6131L11.1463 17.0431C11.3544 16.7965 11.3544 16.5325 11.0572 16.2825L10.0867 15.4641L10.0885 15.4659ZM13.402 18.2583C13.1047 18.0065 12.8442 18.0537 12.6361 18.3003L12.157 18.8703L13.9807 20.4073L14.4598 19.8373C14.6679 19.5907 14.6819 19.3372 14.3707 19.0766L13.4002 18.2583H13.402Z" fill="#9C9C9C"/>
<path d="M26.5091 13.5058L23.2148 2.72771L29.3802 0.842773L30.0971 3.18933L26.8273 4.1895L27.4061 6.08318L29.5254 5.43447L30.1478 7.47328L28.0269 8.12199L28.6406 10.1293L31.9104 9.12916L32.6728 11.6208L26.5074 13.5058H26.5091Z" fill="#9C9C9C"/>
<path d="M46.517 12.7032L46.7496 11.133L45.0238 10.6451L44.3506 12.0912L41.6963 11.3393L46.9629 1.11554L50.3499 2.07375L49.4319 13.5285L46.517 12.7032ZM47.5872 5.24911L45.9313 8.73747L47.0381 9.05046L47.5854 5.24911H47.5872Z" fill="#9C9C9C"/>
<path d="M60.4101 22.4671C60.1023 22.1069 60.6566 21.3218 61.2739 20.7938L62.6884 19.5838C62.9192 19.3862 63.0993 18.9438 62.8248 18.6221L62.3737 18.094L59.0794 20.9092L57.1123 18.6063L65.6819 11.2834L68.4744 14.5514C69.4308 15.6705 69.5497 17.3718 68.366 18.3843L67.1053 19.4614C66.6681 19.8356 65.876 19.9772 65.1259 19.5942C65.3864 20.3951 65.1556 21.1924 64.7063 21.5771L63.213 22.8518C62.6727 23.3134 62.3562 23.8292 62.0764 24.3346L62.038 24.3678L60.4101 22.4636V22.4671ZM66.3009 16.3874C66.6104 16.1234 66.6157 15.8961 66.3954 15.639L65.911 15.0725L63.9299 16.7651L64.4142 17.3316C64.6346 17.5887 64.8601 17.6184 65.1679 17.3544L66.2992 16.3874H66.3009Z" fill="#9C9C9C"/>
<path d="M9.50404 51.827L7.53692 52.6943L8.41819 54.6912L6.2972 55.6266L5.41593 53.6298L1.31208 55.4378L0.0898438 52.6663L10.401 48.1201L12.926 53.8484L10.805 54.7838L9.50055 51.827H9.50404Z" fill="#9C9C9C"/>
<path d="M22.1704 63.2748C23.9696 64.4498 24.6236 66.4519 23.5605 68.0816L20.6579 72.5316C19.5948 74.1613 17.5088 74.3554 15.7077 73.1821C13.9225 72.0176 13.2598 70.0295 14.3229 68.3998L17.2255 63.9498C18.2886 62.3201 20.3851 62.1103 22.1704 63.2766V63.2748ZM16.8233 70.2323C16.6187 70.5435 16.7691 70.9037 17.0664 71.0978C17.3636 71.2919 17.7675 71.2919 17.9721 70.9807L21.0601 66.2473C21.2629 65.9361 21.1003 65.5672 20.803 65.3731C20.5058 65.179 20.1158 65.1877 19.913 65.499L16.8251 70.2323H16.8233Z" fill="#9C9C9C"/>
<path d="M39.7642 79.4978C39.2904 79.5013 39.0456 78.5729 39.0386 77.7615L39.0228 75.8993C39.0193 75.5951 38.7973 75.1737 38.3741 75.1772L37.6799 75.1824L37.7167 79.5136L34.6882 79.5381L34.5938 68.2686L38.8917 68.2319C40.364 68.2197 41.7436 69.2234 41.7558 70.7796L41.7698 72.4372C41.775 73.0125 41.3746 73.7101 40.5983 74.0371C41.3799 74.3519 41.8415 75.0425 41.8467 75.6335L41.8625 77.5954C41.8677 78.3071 42.0601 78.8806 42.2664 79.4192V79.4699L39.7625 79.4908L39.7642 79.4978ZM38.8987 71.0786C38.8952 70.6729 38.7238 70.5208 38.3864 70.5243L37.6415 70.5313L37.6625 73.1366L38.4073 73.1296C38.7466 73.1261 38.9144 72.9722 38.9109 72.5666L38.8987 71.0786Z" fill="#9C9C9C"/>
<path d="M60.5192 72.7746C58.6255 74.0214 56.4765 73.7731 55.3329 72.035L52.6349 67.9364C51.4914 66.1983 52.1139 64.1263 54.0075 62.8796C55.8033 61.6976 57.6743 62.0473 58.7426 63.6734L59.4403 64.7331L57.1934 66.2123L56.487 65.1387C56.2457 64.7715 55.8365 64.6754 55.3854 64.9726C54.9325 65.2699 54.8608 65.6825 55.1021 66.0497L58.0415 70.5173C58.2828 70.8845 58.6919 70.9806 59.143 70.6834C59.5959 70.3861 59.6676 69.9735 59.4263 69.6063L58.7199 68.5327L60.9668 67.0534L61.6645 68.113C62.7346 69.7392 62.3149 71.5944 60.5192 72.7764V72.7746Z" fill="#9C9C9C"/>
<path d="M73.1537 58.3036L62.748 53.9742L65.224 48.0222L67.4901 48.9646L66.177 52.1208L68.0059 52.8814L68.8575 50.8338L70.8264 51.6521L69.9748 53.6997L71.9122 54.5058L73.2254 51.3496L75.6314 52.3516L73.1554 58.3036H73.1537Z" fill="#9C9C9C"/>
<path d="M67.4528 37.1864C67.3129 37.1864 67.1992 37.2843 67.1992 37.4067C67.1992 37.5291 67.3129 37.6253 67.4528 37.6253C67.5926 37.6253 67.708 37.5274 67.708 37.4067C67.708 37.2861 67.5944 37.1864 67.4528 37.1864Z" fill="#9C9C9C"/>
<path d="M74.7339 35.8138H63.12C62.8857 35.8138 62.6934 36.0061 62.6934 36.2404V38.9996C62.6934 39.2339 62.8857 39.4263 63.12 39.4263H74.7339C74.9682 39.4263 75.1605 39.2339 75.1605 38.9996V36.2404C75.1605 36.0061 74.9682 35.8138 74.7339 35.8138ZM64.8441 38.5555H64.2513V37.1357H64.0502V36.6916H64.8458V38.5555H64.8441ZM68.1121 37.8281L67.5841 38.5555H66.9056L67.1906 38.1131C66.8794 38.0135 66.6538 37.7424 66.6538 37.4207C66.6538 37.0168 67.0105 36.6898 67.4494 36.6898C67.8883 36.6898 68.245 37.0168 68.245 37.4207C68.245 37.5711 68.1961 37.711 68.1104 37.8281H68.1121ZM70.5636 38.5555H69.9691V37.1339H69.7663V36.6898H70.5636V38.5538V38.5555ZM73.057 38.5538C72.7877 38.5538 72.5517 38.4401 72.4206 38.2687C72.4206 38.2687 72.2947 38.1149 72.2947 37.8858H72.7825C72.7825 37.947 72.8175 38.0065 72.8175 38.0065C72.8507 38.0799 72.9469 38.1341 73.0588 38.1341C73.1987 38.1341 73.3123 38.0502 73.3123 37.947C73.3123 37.8666 73.2441 37.7984 73.1462 37.7722C73.1462 37.7722 73.0378 37.7407 72.8734 37.7372V37.3892C73.0238 37.384 73.1235 37.342 73.1235 37.342C73.1829 37.321 73.2231 37.2756 73.2231 37.2249C73.2231 37.1514 73.1497 37.0937 73.029 37.0937C72.9626 37.0937 72.8927 37.1199 72.8524 37.1602C72.8524 37.1602 72.8017 37.2021 72.8017 37.2493H72.3279C72.3279 36.9643 72.5919 36.8175 72.5919 36.8175C72.7108 36.7353 72.8699 36.6846 73.0465 36.6846C73.412 36.6846 73.7092 36.9031 73.7092 37.1724C73.7092 37.3001 73.6445 37.4155 73.5361 37.5011C73.6987 37.6095 73.8019 37.7739 73.8019 37.9575C73.8019 38.2862 73.4679 38.5538 73.0553 38.5538H73.057Z" fill="#9C9C9C"/>
<path d="M13.3511 35.8138H1.73719C1.50289 35.8138 1.31055 36.0061 1.31055 36.2404V38.9996C1.31055 39.2339 1.50289 39.4263 1.73719 39.4263H13.3511C13.5854 39.4263 13.7777 39.2339 13.7777 38.9996V36.2404C13.7777 36.0061 13.5854 35.8138 13.3511 35.8138ZM3.38608 38.5468C3.34761 38.5468 3.31264 38.545 3.27592 38.5398C3.27592 38.5398 2.9909 38.5223 2.66742 38.3142L2.86326 37.8316C3.16401 38.0484 3.34761 38.0537 3.34761 38.0537C3.46651 38.0764 3.57667 38.0589 3.58891 38.003C3.60639 37.9225 3.46651 37.8736 3.46651 37.8736C3.46651 37.8736 3.33012 37.8281 3.13254 37.7459C3.13254 37.7459 2.89299 37.662 2.76709 37.4836C2.70589 37.398 2.68491 37.3018 2.68491 37.2004C2.68491 36.9189 3.00314 36.6933 3.37733 36.6933C3.41405 36.6933 3.45077 36.6968 3.484 36.7003C3.484 36.7003 3.76202 36.716 4.0785 36.9189L3.91938 37.3543C3.62213 37.1444 3.44203 37.1357 3.44203 37.1357C3.2934 37.113 3.15002 37.1567 3.15002 37.2109C3.15002 37.2773 3.27592 37.307 3.30215 37.314C3.43504 37.3543 3.59066 37.4207 3.59066 37.4207C3.86168 37.5274 3.95086 37.6375 3.95086 37.6375C4.06451 37.7687 4.082 37.8858 4.082 38.0222C4.082 38.3125 3.8442 38.5485 3.38608 38.5485V38.5468ZM5.25178 38.552H4.65902V36.6881H5.25178V38.552ZM8.22432 38.552H7.62981L6.69783 37.5483V38.552H6.10507V36.6881H6.69783L7.62981 37.6288V36.6881H8.22432V38.552ZM10.5044 37.2896C10.4013 37.2144 10.2614 37.1689 10.1093 37.1689C9.79102 37.1689 9.53398 37.3682 9.53398 37.613C9.53398 37.8578 9.79102 38.0572 10.1093 38.0572C10.2631 38.0572 10.4013 38.0117 10.5044 37.9365V38.4891C10.3733 38.531 10.2299 38.5538 10.0795 38.5538C9.43956 38.5538 8.92024 38.1359 8.92024 37.6218C8.92024 37.1077 9.43956 36.6898 10.0795 36.6898C10.2282 36.6898 10.3715 36.7125 10.5044 36.7545V37.2913V37.2896ZM12.4191 37.1322H11.8246V37.3665H12.4191V37.8264H11.8246V38.0921H12.4191V38.552H11.2318V36.6881H12.4191V37.1322Z" fill="#9C9C9C"/>
</svg>
