<?xml version="1.0" encoding="UTF-8"?>
<svg id="Layer_1" data-name="Layer 1" xmlns="http://www.w3.org/2000/svg" viewBox="0 0 126.96 126.96">
  <defs>
    <style>
      .cls-1 {
        fill: #a4a4a4;
        stroke-width: 0px;
      }
    </style>
  </defs>
  <path class="cls-1" d="m63.28,126.96c-10.98,0-14.89-11.81-14.89-22.85,0-1.68.08-3.46.23-5.31-1.17,1.37-2.33,2.64-3.49,3.79-7.81,7.81-18.92,13.4-26.69,5.63-1.57-1.57-4.14-5.02-3.63-10.41.48-5.13,3.6-10.61,9.27-16.28,1.19-1.19,2.5-2.39,3.92-3.59-1.79.15-3.52.22-5.15.22C11.8,78.16,0,74.25,0,63.28s11.8-14.89,22.85-14.89c1.68,0,3.46.08,5.31.23-1.37-1.17-2.64-2.33-3.79-3.49-5.67-5.67-8.79-11.14-9.27-16.27-.51-5.39,2.06-8.84,3.63-10.41s5.02-4.14,10.41-3.63c5.13.48,10.61,3.6,16.28,9.26,1.19,1.19,2.39,2.5,3.59,3.92-.14-1.79-.22-3.51-.22-5.15C48.79,11.8,52.7,0,63.68,0s14.89,11.8,14.89,22.85c0,1.68-.08,3.46-.23,5.31,1.16-1.37,2.33-2.64,3.48-3.79,5.67-5.67,11.14-8.79,16.28-9.27,5.38-.51,8.84,2.06,10.41,3.63,1.57,1.57,4.14,5.02,3.63,10.41-.48,5.13-3.6,10.61-9.27,16.27-1.19,1.19-2.5,2.39-3.92,3.59,1.79-.15,3.52-.22,5.15-.22,11.05,0,22.85,3.91,22.85,14.89s-11.8,14.89-22.85,14.89c-1.68,0-3.46-.08-5.31-.23,1.37,1.16,2.64,2.33,3.79,3.48,5.67,5.67,8.79,11.14,9.27,16.28.5,5.39-2.06,8.84-3.63,10.41-1.57,1.57-5.01,4.14-10.41,3.63-5.13-.48-10.61-3.6-16.28-9.27-1.19-1.19-2.39-2.5-3.59-3.92.14,1.79.22,3.52.22,5.15,0,11.05-3.91,22.85-14.89,22.85Zm-11.73-35.19l-.49,3.78c-.39,3.04-.59,5.92-.59,8.55,0,19.28,9.81,20.78,12.81,20.78s12.81-1.5,12.81-20.78c0-2.59-.19-5.42-.57-8.4l-.48-3.78,2.33,3.02c1.88,2.43,3.77,4.6,5.63,6.46,5.32,5.32,10.36,8.23,15,8.67,4.55.43,7.43-1.72,8.75-3.03,1.32-1.32,3.46-4.2,3.04-8.75-.43-4.64-3.35-9.69-8.67-15-1.83-1.83-3.97-3.69-6.34-5.53l-3.01-2.34,3.78.49c3.05.39,5.92.59,8.56.59,19.28,0,20.78-9.81,20.78-12.81s-1.5-12.81-20.78-12.81c-2.59,0-5.42.19-8.4.57l-3.78.48,3.02-2.33c2.43-1.88,4.61-3.77,6.46-5.63,5.32-5.32,8.23-10.36,8.67-15,.43-4.55-1.72-7.43-3.04-8.75-1.32-1.32-4.21-3.46-8.75-3.04-4.64.43-9.69,3.35-15,8.67-1.83,1.83-3.69,3.96-5.53,6.34l-2.33,3.01.48-3.78c.39-3.05.59-5.93.59-8.55,0-19.28-9.81-20.77-12.81-20.77s-12.81,1.5-12.81,20.77c0,2.59.19,5.42.57,8.4l.48,3.78-2.33-3.02c-1.88-2.43-3.78-4.61-5.63-6.47-5.32-5.32-10.36-8.23-15-8.66-4.55-.42-7.43,1.72-8.75,3.03-1.32,1.32-3.46,4.2-3.03,8.75.44,4.64,3.35,9.68,8.67,15,1.83,1.83,3.96,3.7,6.34,5.54l3.01,2.34-3.78-.48c-3.05-.39-5.93-.59-8.56-.59-19.28,0-20.77,9.81-20.77,12.81s1.5,12.81,20.77,12.81c2.59,0,5.42-.19,8.41-.57l3.78-.48-3.02,2.33c-2.43,1.88-4.61,3.77-6.47,5.64-5.32,5.32-8.23,10.36-8.67,15-.43,4.55,1.72,7.43,3.04,8.75,2.12,2.12,10.12,8,23.75-5.63,1.83-1.83,3.69-3.96,5.54-6.34l2.34-3.01Z"/>
  <path class="cls-1" d="m63.48,96.93c-18.45,0-33.45-15.01-33.45-33.46s15.01-33.45,33.45-33.45,33.46,15.01,33.46,33.45-15.01,33.46-33.46,33.46Zm0-64.44c-17.09,0-30.99,13.9-30.99,30.99s13.9,30.99,30.99,30.99,30.99-13.9,30.99-30.99-13.9-30.99-30.99-30.99Z"/>
  <path class="cls-1" d="m57.25,47.71c-.83,3.55-2.53,6.2-3.8,5.9-1.27-.29-1.64-3.42-.81-6.97.83-3.55,2.53-6.19,3.79-5.9,1.27.3,1.64,3.42.81,6.97"/>
  <path class="cls-1" d="m74.32,46.67c.78,3.57.38,6.68-.9,6.96-1.28.28-2.94-2.38-3.72-5.95-.78-3.56-.38-6.68.9-6.95,1.28-.28,2.94,2.38,3.72,5.94"/>
  <path class="cls-1" d="m38.43,58.8c.44.33,1.63-.51,2.66-1.88,1.03-1.37,1.52-2.75,1.08-3.07-.44-.33-1.63.51-2.66,1.88-1.03,1.37-1.51,2.74-1.08,3.07"/>
  <path class="cls-1" d="m88.7,58.8c-.44.33-1.63-.51-2.66-1.88-1.03-1.37-1.52-2.75-1.08-3.07.44-.33,1.63.51,2.66,1.88,1.03,1.37,1.52,2.74,1.08,3.07"/>
  <path class="cls-1" d="m86.52,55.09s.01.36.04,1.03c0,.17.02.36.02.56,0,.21,0,.43,0,.68,0,.24,0,.51,0,.79-.02.28-.03.58-.05.89,0,.16-.01.32-.02.49-.02.16-.03.33-.05.51-.03.35-.06.71-.11,1.09-.05.37-.1.77-.16,1.18-.06.4-.14.82-.22,1.25-.33,1.72-.83,3.64-1.59,5.62-.75,1.99-1.77,4.01-3.06,5.96-.65.97-1.36,1.92-2.14,2.81-.38.46-.8.88-1.21,1.31-.21.21-.43.41-.65.62l-.33.31-.34.29c-1.81,1.57-3.87,2.85-6.08,3.72-.28.1-.56.21-.84.31-.28.1-.56.18-.85.27l-.42.12-.43.1c-.29.06-.57.14-.87.19-1.16.22-2.33.32-3.51.34l-.87-.03c-.14,0-.28,0-.43-.02l-.44-.04c-.3-.03-.61-.05-.89-.1l-.87-.14c-1.16-.23-2.3-.55-3.4-.99-2.21-.87-4.28-2.16-6.09-3.73l-.34-.29-.33-.31c-.22-.21-.44-.4-.65-.62-.41-.43-.83-.85-1.22-1.31-.79-.89-1.5-1.84-2.14-2.81-1.28-1.95-2.31-3.97-3.06-5.96-.76-1.98-1.26-3.89-1.59-5.62-.07-.43-.16-.85-.22-1.25-.06-.41-.11-.8-.16-1.18-.04-.38-.07-.74-.11-1.09-.02-.17-.03-.34-.04-.51,0-.17-.02-.33-.03-.49-.01-.31-.03-.61-.04-.89-.01-.28,0-.54-.01-.79,0-.24,0-.47,0-.68s.01-.4.01-.57c.03-.67.04-1.03.04-1.03,0,0,.03.35.08,1.02.01.16.02.35.04.55.03.2.05.43.08.66.03.24.06.5.09.77.04.27.08.56.13.87.19,1.21.47,2.67.92,4.29.45,1.61,1.07,3.37,1.9,5.17.83,1.8,1.89,3.62,3.17,5.34.65.85,1.33,1.7,2.09,2.47.37.41.78.77,1.17,1.15.2.19.41.36.61.54l.31.27.32.25c.85.69,1.77,1.29,2.71,1.84.24.13.47.27.72.4.24.12.48.23.73.35.24.12.49.23.74.33.25.1.49.22.75.3,1.01.39,2.05.64,3.11.85l.79.13c.26.04.52.05.79.08l.39.04c.13.02.27.01.41.02l.82.03c1.07-.02,2.14-.09,3.2-.29,1.05-.21,2.1-.46,3.11-.85.25-.08.5-.2.75-.3.25-.1.5-.2.74-.33.24-.12.49-.24.73-.36.24-.13.48-.26.71-.39.94-.55,1.86-1.15,2.71-1.84l.32-.25.31-.27c.2-.18.42-.35.62-.54.4-.39.8-.75,1.17-1.15.38-.38.74-.8,1.09-1.21.18-.2.34-.42.51-.63.16-.21.34-.41.5-.63,1.27-1.72,2.34-3.54,3.17-5.34.83-1.8,1.45-3.56,1.9-5.17.45-1.61.74-3.07.92-4.29.05-.31.09-.6.13-.87.03-.27.06-.53.09-.77.03-.24.05-.46.08-.66.02-.2.03-.39.05-.56.05-.67.08-1.02.08-1.02"/>
  <path class="cls-1" d="m63.64,85.77l-1.03-.04c-.1,0-.2,0-.31-.02l-.72-.07c-.21-.02-.42-.04-.63-.08l-.86-.14c-1.24-.25-2.4-.59-3.45-1.01-2.2-.87-4.27-2.14-6.16-3.77l-.89-.81c-.15-.14-.3-.28-.44-.42l-.26-.27c-.33-.34-.66-.69-.97-1.06-.74-.84-1.44-1.77-2.16-2.83-1.26-1.92-2.3-3.94-3.08-6.01-.69-1.79-1.23-3.69-1.61-5.66-.03-.19-.07-.37-.1-.54-.05-.24-.09-.48-.13-.72-.06-.41-.11-.8-.16-1.18-.03-.22-.04-.43-.06-.64-.01-.16-.03-.31-.04-.46l-.12-1.9c0-.19,0-.36,0-.53v-.94c0-.11,0-.22,0-.32,0-.09,0-.17,0-.25.03-.68.04-1.04.04-1.04h.48s.03.34.08,1.01l.02.21c0,.11.01.22.03.34l.29,2.29c.23,1.45.54,2.89.92,4.26.49,1.75,1.12,3.47,1.89,5.13.85,1.85,1.91,3.63,3.14,5.3.58.76,1.29,1.65,2.07,2.45.25.28.52.53.78.78.13.12.26.24.38.37.13.12.26.23.4.35l.83.7c.77.62,1.65,1.21,2.68,1.82.23.13.47.26.71.39l.72.35c.24.12.48.22.73.32.1.04.19.08.29.12.15.06.29.13.45.18,1.1.42,2.23.67,3.08.84l.79.13c.15.03.3.04.45.05.11,0,.22.02.33.03l.38.03c.09.01.18.01.27.01l.94.03c1.17-.02,2.2-.11,3.15-.29,1.25-.25,2.2-.51,3.07-.84.17-.06.33-.12.49-.19.09-.04.17-.08.26-.11.25-.1.49-.2.72-.32l.73-.36c.21-.11.43-.23.64-.35l.06-.03c1.05-.61,1.92-1.2,2.67-1.81l.86-.72c.13-.11.26-.22.38-.33.12-.11.24-.23.36-.35.28-.27.54-.52.79-.79.32-.32.62-.67.92-1l.17-.2c.11-.12.21-.25.31-.38.07-.08.13-.17.2-.25l.18-.22c.11-.13.21-.26.31-.4,1.25-1.69,2.31-3.48,3.15-5.31.76-1.65,1.39-3.38,1.88-5.13.39-1.39.7-2.82.92-4.26l.04-.26c.03-.21.06-.41.09-.61.03-.24.06-.49.08-.71l.08-.71c0-.1.02-.19.02-.29,0-.1.01-.19.02-.27l.08-1.02h.48s.05,1.19.05,1.19c0,.13.01.27.01.42v.68c0,.24,0,.51-.01.79l-.15,2.2c-.02.26-.05.52-.08.8-.05.38-.1.77-.16,1.18-.04.27-.09.56-.15.84l-.08.42c-.38,1.99-.92,3.89-1.61,5.66-.78,2.06-1.82,4.08-3.08,6-.71,1.07-1.42,2-2.16,2.84-.32.39-.68.76-1.02,1.12l-.2.21c-.14.14-.28.27-.43.41l-.91.83c-1.88,1.63-3.95,2.89-6.15,3.76l-.84.31c-.19.07-.38.12-.56.18l-1.45.39c-.2.05-.39.09-.59.13-1.09.21-2.25.32-3.54.34Zm-22.62-26.23l.04.48c.02.15.03.3.04.46.02.2.04.41.06.62.05.37.1.77.16,1.17.04.23.08.46.12.7.03.18.07.36.1.55.37,1.93.91,3.81,1.58,5.57.77,2.04,1.79,4.02,3.03,5.91.7,1.05,1.39,1.96,2.12,2.79.3.36.62.69.95,1.04l.25.27c.14.14.28.27.42.4l.88.79c1.84,1.6,3.87,2.84,6.02,3.69,1.03.41,2.16.74,3.36.98l.86.14c.19.04.39.05.59.07.1,0,.2.02.29.03l.44.04c.1.01.18.01.26.02l1.02.04c1.26-.03,2.39-.14,3.45-.34.19-.03.38-.08.57-.12l1.42-.38c.18-.06.36-.11.54-.17l.83-.31c2.15-.85,4.17-2.09,6.01-3.68l.9-.81c.14-.13.28-.26.41-.39l.2-.2c.36-.37.69-.71,1-1.09.73-.83,1.43-1.74,2.13-2.79,1.24-1.89,2.26-3.88,3.03-5.91.67-1.75,1.2-3.62,1.58-5.58l.08-.42c.05-.28.1-.56.14-.83.06-.41.11-.8.16-1.17.03-.27.06-.53.08-.78l.07-.74c-.22,1.27-.5,2.53-.84,3.75-.5,1.78-1.14,3.53-1.91,5.21-.85,1.86-1.93,3.67-3.19,5.39-.1.14-.21.28-.33.42l-.17.22c-.07.08-.13.16-.19.25-.11.14-.21.27-.32.4l-.17.2c-.3.34-.6.69-.93,1.02-.25.28-.54.55-.81.81-.12.11-.24.23-.36.34-.13.12-.26.24-.4.35l-.87.73c-.77.62-1.66,1.23-2.74,1.85l-.06.04c-.22.12-.44.24-.66.36l-.74.36c-.21.11-.46.21-.76.33-.08.03-.16.07-.24.1-.17.08-.35.15-.52.21-.88.34-1.86.6-3.14.86-.97.18-2.03.28-3.24.29l-.94-.03c-.11,0-.22,0-.32-.02l-.38-.03c-.11-.01-.22-.02-.32-.03-.16-.01-.32-.03-.48-.05l-.79-.13c-.88-.18-2.03-.43-3.16-.86-.16-.05-.32-.12-.48-.19-.09-.04-.18-.08-.28-.12-.26-.11-.52-.21-.77-.34l-.72-.35c-.25-.14-.49-.27-.73-.4-1.06-.62-1.95-1.22-2.74-1.86l-.84-.71c-.14-.12-.28-.24-.42-.37-.13-.13-.25-.25-.38-.37-.27-.26-.54-.52-.8-.8-.79-.81-1.51-1.71-2.11-2.49-1.26-1.7-2.33-3.51-3.2-5.39-.77-1.68-1.42-3.44-1.91-5.21-.34-1.22-.62-2.49-.84-3.78Z"/>
</svg>