<svg width="50" height="70" viewBox="0 0 50 70" fill="none" xmlns="http://www.w3.org/2000/svg">
<path d="M37.7501 68.2495C34.4504 67.1018 18.0363 59.6162 16.1712 58.7639C5.47878 58.4516 5.47878 57.363 5.47878 56.6372C5.47878 54.7215 7.72359 54.2573 9.7068 53.8523C10.7364 53.6413 11.7913 53.4303 12.4158 53.059C12.9643 52.7383 13.3947 52.3754 13.8167 52.021C14.7956 51.2108 15.8083 50.3669 17.6396 50.7045C19.0405 50.9576 19.8338 52.6455 20.1629 53.54C21.8845 53.9029 28.2054 55.2363 33.2605 56.1899C38.4337 57.1604 39.4633 58.8567 40.0793 59.8694C40.1806 60.0297 40.2734 60.1901 40.341 60.2576C40.6532 60.5699 40.6617 61.0762 40.341 61.3969C40.0287 61.7091 39.5139 61.7091 39.2017 61.3969C38.9907 61.1859 38.8472 60.9496 38.6953 60.7049C38.189 59.8694 37.4295 58.612 32.9567 57.768C27.0577 56.6625 19.4456 55.0338 19.3696 55.0169C19.0827 54.9578 18.8464 54.7384 18.7705 54.4599C18.5173 53.616 17.8843 52.3923 17.3442 52.291C16.2471 52.0885 15.7492 52.502 14.8378 53.2615C14.3905 53.6329 13.8842 54.0548 13.2259 54.443C12.3736 54.9494 11.1752 55.1941 10.0275 55.422C9.00635 55.6329 7.67296 55.903 7.23412 56.325C8.56751 56.7216 12.7702 57.0507 16.3737 57.152C16.4834 57.152 16.5847 57.1773 16.686 57.2195C16.8716 57.3039 34.9146 65.5574 38.2734 66.722C41.4718 67.836 45.5817 68.739 46.9573 66.7473C48.4004 64.6628 48.1472 61.937 46.3412 60.1395C44.3749 58.1731 42.3495 57.5571 42.3242 57.5486C41.9022 57.422 41.6575 56.9748 41.7841 56.5528C41.9106 56.1224 42.3495 55.8861 42.7799 56.0127C42.8811 56.038 45.2272 56.7469 47.4805 59.0086C49.8435 61.3716 50.1726 64.9329 48.2822 67.6672C46.2231 70.6462 41.168 69.4394 37.7501 68.2495ZM0.727526 65.8274C-0.496153 63.456 -0.513031 59.7091 3.4365 56.9579C3.79938 56.7047 4.29729 56.7975 4.55047 57.152C4.80364 57.5149 4.71925 58.0128 4.34793 58.2744C1.25075 60.4348 1.18324 63.2113 2.14531 65.0932C3.05674 66.857 6.8628 67.5828 9.69836 66.5279C12.6605 65.4308 20.6862 62.0214 20.7621 61.9876C21.1756 61.8104 21.6398 62.0045 21.817 62.4096C21.9858 62.8147 21.8001 63.2873 21.3866 63.4645C21.0575 63.6079 13.2428 66.9161 10.2553 68.0301C6.93031 69.2706 2.14531 68.5955 0.710647 65.8274H0.727526ZM38.7375 56.2406C38.6869 55.8102 38.9907 55.4135 39.4211 55.3544C39.4464 55.346 39.438 55.2279 39.3536 55.0253C39.1004 54.519 36.3999 54.0801 34.1719 54.1814C33.3533 54.2067 32.5938 53.7341 31.8343 53.2193C31.2773 52.8396 30.695 52.4429 30.003 52.2235C29.024 51.9028 28.4755 53.3206 28.4671 53.3375C28.3067 53.751 27.8426 53.9535 27.429 53.8016C27.0155 53.6413 26.8045 53.1771 26.9649 52.7636C27.3447 51.7762 28.5599 50.0715 30.4925 50.696C31.4039 50.9914 32.1128 51.4724 32.7373 51.8944C33.2605 52.2573 33.8259 52.6033 34.096 52.578C34.7036 52.5526 39.9781 52.367 40.8304 54.4093C41.1849 55.2616 41.033 55.8439 40.8304 56.173C40.5351 56.6794 39.995 56.9072 39.6236 56.9494C39.1848 57.0001 38.7797 56.6878 38.7291 56.249L38.7375 56.2406ZM16.7197 49.7086C16.2893 49.5905 16.0446 49.1517 16.1628 48.7213L16.2725 48.3331C16.3906 47.9027 16.8295 47.6579 17.2598 47.7761C17.6902 47.8942 17.935 48.3331 17.8168 48.7635L17.7071 49.1517C17.589 49.5736 17.1501 49.8268 16.7197 49.7086ZM30.6697 49.1348L30.6275 48.9997C30.484 48.5778 30.7119 48.1221 31.1338 47.9786C31.5558 47.8352 32.0115 48.063 32.155 48.485L32.1972 48.6116C32.3406 49.0335 32.1128 49.4892 31.6908 49.6243C31.2773 49.7677 30.8131 49.5399 30.6697 49.1179V49.1348ZM39.6152 46.8056C37.0666 46.8056 27.4712 46.7212 27.4712 46.7212C27.3025 46.7043 25.0408 46.4342 25.0408 42.7295V36.9064C25.0408 36.6279 25.1927 36.3663 25.429 36.2144C25.6737 36.071 25.9691 36.0625 26.2222 36.1975C26.3488 36.2651 28.9903 37.7166 29.3954 41.1429C30.8722 40.9825 33.9525 40.6956 36.518 40.8475C35.6825 39.6492 34.5348 37.9613 33.6909 36.6026L33.0748 38.9149C32.9651 39.3453 32.5263 39.5985 32.0875 39.4804C31.6571 39.3622 31.4039 38.9234 31.522 38.493L32.6529 34.2734C32.7373 33.9443 33.0326 33.6995 33.3702 33.6827C33.7078 33.6574 34.0285 33.8515 34.1635 34.1721C34.6867 35.4127 37.7333 39.7926 38.8557 41.3792C39.0498 41.6492 39.0582 42.0037 38.881 42.2822C38.7038 42.5607 38.3746 42.6957 38.054 42.6366C34.9146 42.0374 28.8131 42.8307 28.754 42.8392C28.5261 42.8645 28.2898 42.797 28.1211 42.6451C27.9438 42.4932 27.851 42.2737 27.851 42.0374C27.851 40.4593 27.2518 39.3453 26.6526 38.6365V42.7295C26.6526 44.8983 27.5472 45.1093 27.5978 45.1262C27.6316 45.1346 37.0919 45.2106 39.6236 45.2021C40.7545 45.2021 42.206 45.0333 42.6702 44.2063C43.1512 43.3793 42.7208 41.7505 41.4718 39.6154L40.5941 38.0963C37.4885 32.7375 35.556 29.3365 30.8385 28.3069C29.3363 27.9778 25.8172 27.2183 25.8003 23.0999C25.8003 22.7793 25.9775 22.467 26.3066 22.332C28.6443 21.3531 30.2055 18.7453 30.2055 15.8507C30.2055 12.0531 27.5725 8.96435 24.3403 8.96435C21.1081 8.96435 18.4667 12.0531 18.4667 15.8507C18.4667 18.7453 20.0279 21.3446 22.3655 22.332C22.6609 22.4501 22.8803 22.7455 22.8719 23.0999C22.8635 27.2858 19.3781 28.0031 17.8843 28.3069C13.1078 29.2859 11.0824 32.94 8.09492 38.1048L7.21724 39.6154C5.96825 41.7505 5.54629 43.3793 6.01888 44.2063C6.49148 45.0249 7.94301 45.2021 9.07386 45.2021C11.6225 45.2021 21.2009 45.1177 21.2009 45.1177C21.1334 45.1177 22.0449 44.9068 22.0449 42.7295V38.6365C21.4457 39.3453 20.8465 40.4593 20.8465 42.0374C20.8465 42.2737 20.7452 42.4932 20.5764 42.6451C20.3992 42.797 20.1714 42.8645 19.9435 42.8392C19.8844 42.8307 13.7829 42.0374 10.6435 42.6366C10.3229 42.6957 9.99373 42.5522 9.81651 42.2822C9.63928 42.0037 9.64772 41.6492 9.84182 41.3792C10.9727 39.7926 14.0108 35.4127 14.534 34.1721C14.669 33.8515 14.9897 33.6574 15.3357 33.6827C15.6817 33.708 15.9687 33.9612 16.053 34.2987L17.0658 38.5099C17.167 38.9403 16.9054 39.3791 16.475 39.4804C16.0446 39.5901 15.6058 39.32 15.5045 38.8896L14.9728 36.6617C14.1289 38.012 12.9981 39.666 12.1795 40.8475C14.7365 40.6956 17.8253 40.9825 19.3021 41.1429C19.7072 37.7166 22.3571 36.2566 22.4753 36.1975C22.72 36.0625 23.0238 36.071 23.2685 36.2144C23.5133 36.3579 23.6567 36.6195 23.6567 36.9064V42.7295C23.6567 46.4342 21.395 46.7043 21.2938 46.7127C21.2178 46.7127 11.6309 46.8056 9.07386 46.8056C6.81216 46.8056 5.31843 46.1979 4.62642 45.008C3.8247 43.5987 4.2129 41.5733 5.83322 38.8052L6.70245 37.3031C9.73211 32.0623 12.0529 27.8596 17.5637 26.7372C19.3865 26.3659 21.0322 25.8342 21.2431 23.581C18.6017 22.2138 16.8632 19.1842 16.8632 15.8507C16.8632 11.167 20.2136 7.35248 24.3403 7.35248C28.4671 7.35248 31.8174 11.167 31.8174 15.8507C31.8174 19.1842 30.0789 22.2138 27.4375 23.581C27.6569 25.7836 29.4038 26.3575 31.176 26.7372C36.6784 27.9272 38.9232 32.0117 41.9782 37.2862L42.8558 38.7968C44.4677 41.5648 44.8644 43.5903 44.0542 44.9996C43.3706 46.198 41.8769 46.7971 39.6152 46.7971V46.8056Z" fill="#9C9C9C"/>
<path d="M9.07407 46.4848C6.93052 46.4848 5.52962 45.9363 4.90512 44.8476C4.16248 43.548 4.55068 41.6239 6.10348 38.9655L6.98116 37.4634C9.93486 32.3577 12.2134 28.1634 17.6229 27.0494C19.2011 26.7287 21.5809 26.2393 21.5809 23.083C21.5809 22.813 21.8003 22.602 22.0619 22.602C22.3236 22.602 22.543 22.8214 22.543 23.083C22.543 27.0241 19.3445 27.6824 17.817 27.9946C12.8801 29.0158 10.8294 32.7206 7.8082 37.9444L6.93052 39.455C5.60557 41.7251 5.19205 43.4214 5.73216 44.375C6.171 45.143 7.29341 45.5312 9.06563 45.5312C11.6143 45.5312 21.2012 45.4468 21.2012 45.4468C21.2012 45.4468 22.3573 45.2358 22.3573 42.7378V37.8516C21.5978 38.5183 20.5176 39.8517 20.5176 42.0458C20.5176 42.1893 20.4585 42.3159 20.3488 42.4087C20.2475 42.5015 20.1125 42.5437 19.969 42.5269C19.91 42.5184 13.7578 41.7251 10.5678 42.3243C10.3737 42.3665 10.1796 42.2737 10.0699 42.1133C9.96018 41.9446 9.96862 41.7336 10.0783 41.5732C10.1205 41.5142 14.1629 35.8346 14.8043 34.3071C14.8887 34.113 15.0828 33.9949 15.2853 34.0117C15.4963 34.0286 15.6651 34.1805 15.7157 34.3831L16.7284 38.5942C16.7875 38.8558 16.6271 39.1174 16.3739 39.1765C16.1123 39.2356 15.8507 39.0752 15.7916 38.8221L15.0743 35.843C14.1123 37.4634 12.4244 39.9107 11.5045 41.2357C14.3317 40.9656 18.1715 41.3538 19.564 41.5142C19.8171 38.0203 22.4839 36.5604 22.6021 36.4929C22.754 36.4085 22.9312 36.4169 23.0746 36.5013C23.2181 36.5857 23.3109 36.746 23.3109 36.9148V42.7378C23.3109 46.1557 21.3277 46.4004 21.2433 46.4089C21.2012 46.4089 11.6143 46.5017 9.05719 46.5017L9.07407 46.4848Z" fill="#9C9C9C"/>
<path d="M39.6151 46.4848C37.0665 46.4848 27.4711 46.4004 27.4711 46.4004C27.3445 46.392 25.3613 46.1473 25.3613 42.7294V36.9064C25.3613 36.7376 25.4542 36.5773 25.5976 36.4929C25.7411 36.4085 25.9183 36.4 26.0702 36.4844C26.1884 36.5435 28.8551 38.0119 29.1083 41.5057C30.5008 41.3454 34.3406 40.9572 37.1677 41.2272C36.2394 39.9023 34.5263 37.4212 33.5726 35.8008L32.754 38.839C32.6865 39.0921 32.4249 39.2525 32.1633 39.1765C31.9101 39.109 31.7582 38.839 31.8257 38.5858L32.9566 34.3662C33.0072 34.1721 33.1844 34.0286 33.387 34.0118C33.598 34.0118 33.7836 34.113 33.868 34.3071C34.5094 35.8346 38.5517 41.5142 38.5939 41.5732C38.7036 41.7336 38.7121 41.9446 38.6108 42.1134C38.5011 42.2821 38.307 42.3665 38.1129 42.3243C34.9229 41.7167 28.7708 42.51 28.7117 42.5269C28.5767 42.5522 28.4332 42.5015 28.3319 42.4087C28.2222 42.3159 28.1631 42.1893 28.1631 42.0458C28.1631 39.8517 27.0829 38.5183 26.3234 37.8516V42.7378C26.3234 45.2358 27.4796 45.4384 27.5386 45.4468C27.5218 45.4468 37.0749 45.5312 39.6151 45.5312C41.3873 45.5312 42.5013 45.143 42.9401 44.375C43.4802 43.4299 43.0667 41.7336 41.7418 39.455L40.8641 37.9444C37.7838 32.6277 35.7753 29.0495 30.8974 28.0031C29.3446 27.6655 26.1209 26.965 26.1209 23.0915C26.1209 22.8214 26.3403 22.6104 26.6019 22.6104C26.8635 22.6104 27.0829 22.8299 27.0829 23.0915C27.0829 26.1886 29.5978 26.7372 31.1 27.0663C36.3913 28.2056 38.5771 32.0876 41.6911 37.4634L42.5688 38.974C44.1216 41.6323 44.5098 43.5564 43.7672 44.8561C43.1427 45.9447 41.7418 46.4933 39.6066 46.4933L39.6151 46.4848Z" fill="#9C9C9C"/>
<path d="M26.6022 23.5641C26.4165 23.5641 26.2393 23.4544 26.1549 23.2687C26.0536 23.024 26.1718 22.7371 26.4165 22.6358C28.8723 21.6147 30.5264 18.8888 30.5264 15.8507C30.5264 11.8759 27.7499 8.63523 24.3405 8.63523C20.9311 8.63523 18.1461 11.8674 18.1461 15.8507C18.1461 18.8804 19.8002 21.6062 22.256 22.6358C22.5008 22.7371 22.6189 23.024 22.5176 23.2687C22.4164 23.5135 22.1294 23.6316 21.8847 23.5304C19.0745 22.3573 17.1841 19.277 17.1841 15.8592C17.1841 11.3526 20.391 7.68161 24.3405 7.68161C28.29 7.68161 31.4969 11.3526 31.4969 15.8592C31.4969 19.277 29.6065 22.3573 26.7963 23.5304C26.7372 23.5557 26.6697 23.5641 26.6106 23.5641H26.6022Z" fill="#9C9C9C"/>
<path d="M37.8597 67.9456C34.5347 66.7895 17.7829 59.1436 16.247 58.4431C5.79932 58.1477 5.79932 57.0844 5.79932 56.6287C5.79932 54.9746 7.81628 54.5611 9.76572 54.1645C10.8206 53.9535 11.9093 53.7256 12.576 53.3374C13.1414 52.9999 13.5887 52.6285 14.0191 52.2741C14.9811 51.4724 15.8926 50.7213 17.5804 51.0251C18.9053 51.2698 19.6564 53.0843 19.918 53.8185C21.3274 54.1223 27.9521 55.5232 33.2097 56.5106C38.2395 57.4557 39.2184 59.0761 39.8092 60.0466C39.9273 60.2322 40.0201 60.401 40.1214 60.5023C40.3071 60.6879 40.3071 60.9917 40.1214 61.1858C39.9357 61.3799 39.6319 61.3715 39.4378 61.1858C39.2522 61.0002 39.1256 60.7808 38.9821 60.5529C38.442 59.6668 37.6403 58.3334 33.0325 57.4642C27.142 56.3586 19.5298 54.7299 19.4539 54.713C19.2767 54.6793 19.1416 54.5442 19.091 54.3754C18.9222 53.8016 18.2555 52.1391 17.42 51.9787C16.171 51.7509 15.5634 52.2572 14.652 53.0167C14.2132 53.3796 13.7153 53.7931 13.0823 54.1645C12.2806 54.6455 11.1076 54.8818 9.9767 55.1096C8.48297 55.4135 6.94704 55.7257 6.7867 56.5021C7.62218 56.9663 12.3144 57.3713 16.382 57.4811C16.4411 57.4811 16.5086 57.4979 16.5677 57.5233C16.7534 57.6076 34.8132 65.8612 38.1888 67.0342C41.497 68.1819 45.7503 69.0933 47.2441 66.9329C48.7715 64.7134 48.5015 61.8272 46.5858 59.9115C44.5604 57.8861 42.4506 57.2448 42.4337 57.2448C42.1806 57.1688 42.0287 56.8987 42.1046 56.6456C42.1806 56.3924 42.4506 56.2489 42.7038 56.3164C42.7966 56.3418 45.0667 57.0338 47.2694 59.228C49.5226 61.4812 49.8349 64.8738 48.0373 67.473C46.0879 70.3001 41.1257 69.068 37.8766 67.9372L37.8597 67.9456Z" fill="#9C9C9C"/>
<path d="M39.0667 56.2068C39.033 55.9452 39.2186 55.7004 39.4887 55.6751C39.4887 55.6751 39.6743 55.6414 39.7334 55.5232C39.8009 55.4051 39.7672 55.1772 39.6575 54.8987C39.3368 54.1223 36.189 53.7679 34.1636 53.8607C33.4209 53.9029 32.7374 53.4387 32.02 52.9493C31.4377 52.5526 30.8385 52.1475 30.1043 51.9112C28.8385 51.5062 28.1971 53.1434 28.1718 53.2109C28.0789 53.464 27.8004 53.5822 27.5473 53.4894C27.3025 53.3965 27.1759 53.118 27.2688 52.8649C27.6063 51.9787 28.695 50.4428 30.3997 50.9914C31.2689 51.2699 31.9525 51.7425 32.5601 52.156C33.1593 52.561 33.6994 52.9071 34.1129 52.8986C34.172 52.8986 39.7587 52.6623 40.5351 54.5274C40.7799 55.1181 40.7883 55.616 40.5605 56.0127C40.2566 56.5443 39.6575 56.6287 39.5984 56.6372C39.3115 56.6625 39.092 56.4599 39.0667 56.2152V56.2068Z" fill="#9C9C9C"/>
<path d="M1.0228 65.6839C-0.192442 63.321 -0.150246 59.8609 3.6305 57.2195C3.84992 57.0676 4.15373 57.1182 4.29719 57.3376C4.4491 57.557 4.39846 57.8524 4.17905 58.0127C0.913089 60.2913 0.845576 63.245 1.87515 65.2451C2.96381 67.3633 7.11587 67.8444 9.82485 66.8317C12.7954 65.7261 20.8295 62.3252 20.9055 62.283C21.1502 62.1732 21.4287 62.2914 21.5384 62.5361C21.6397 62.7809 21.53 63.0678 21.2852 63.1691C21.2093 63.2028 13.1499 66.6207 10.1624 67.7262C7.03148 68.8908 2.34775 68.2579 1.0228 65.6755V65.6839Z" fill="#9C9C9C"/>
<path d="M30.9736 49.0335L30.9314 48.9069C30.847 48.6537 30.982 48.3837 31.2352 48.2993C31.4799 48.2149 31.7584 48.3499 31.8428 48.6031L31.885 48.7297C31.9694 48.9829 31.8344 49.2529 31.5812 49.3373C31.3364 49.4217 31.058 49.2867 30.9736 49.0335Z" fill="#9C9C9C"/>
<path d="M16.8038 49.4048C16.5506 49.3373 16.3987 49.0672 16.4662 48.814L16.5759 48.4258C16.6435 48.1727 16.9135 48.0208 17.1667 48.0883C17.4199 48.1558 17.5718 48.4259 17.5043 48.679L17.3945 49.0672C17.327 49.3288 17.057 49.4723 16.8038 49.4048Z" fill="#9C9C9C"/>
<path d="M9.07365 46.1641C7.05669 46.1641 5.74862 45.6662 5.1832 44.6873C4.50806 43.5142 4.91314 41.6407 6.38156 39.1259C6.68537 38.6111 6.9723 38.1047 7.25923 37.6237C10.2467 32.4674 12.4831 28.425 17.69 27.3617C19.2682 27.041 21.9096 26.5009 21.9096 23.083C21.9096 22.9902 21.9771 22.9227 22.07 22.9227C22.1628 22.9227 22.2303 22.9902 22.2303 23.083C22.2303 26.7625 19.3188 27.3617 17.7576 27.6824C12.6687 28.7204 10.5674 32.5602 7.53772 37.784C7.25923 38.2735 6.96386 38.7714 6.66005 39.2946C5.25071 41.7082 4.84563 43.4636 5.46169 44.5354C5.9596 45.413 7.17484 45.8519 9.07365 45.8519C11.597 45.8519 21.1079 45.7675 21.2092 45.7675C21.2514 45.7675 22.686 45.5649 22.686 42.7378V37.2017C22.0193 37.6574 20.2049 39.1765 20.2049 42.0458C20.2049 42.0965 20.188 42.1387 20.1458 42.164C20.1121 42.1977 20.0699 42.2062 20.0192 42.2062C19.9602 42.2062 13.7658 41.396 10.5167 42.0121C10.4492 42.0205 10.3902 41.9952 10.348 41.9445C10.3142 41.8939 10.3142 41.818 10.348 41.7673C10.3902 41.7083 14.4494 36.0034 15.1077 34.4421C15.133 34.383 15.2089 34.3324 15.268 34.3409C15.3355 34.3409 15.3946 34.3999 15.4115 34.4674L16.4242 38.6786C16.4495 38.763 16.3904 38.8474 16.306 38.8727C16.2216 38.8896 16.1372 38.8389 16.1119 38.7545L15.2005 34.9822C14.3059 36.6869 11.6307 40.5099 10.829 41.6407C13.8671 41.1935 18.8631 41.7504 19.8673 41.877C19.9602 38.3157 22.7198 36.7967 22.7535 36.7798C22.8042 36.7545 22.8632 36.7545 22.9139 36.7798C22.9645 36.8135 22.9898 36.8642 22.9898 36.9148V42.7378C22.9898 45.8688 21.2851 46.0797 21.2092 46.0882C21.0995 46.0882 11.5801 46.1726 9.05677 46.1726L9.07365 46.1641Z" fill="#9C9C9C"/>
<path d="M39.6147 46.1641C37.0914 46.1641 27.572 46.0797 27.4792 46.0797C27.3948 46.0713 25.6816 45.8603 25.6816 42.7294V36.9064C25.6816 36.8473 25.7154 36.7967 25.7576 36.7713C25.8082 36.746 25.8673 36.746 25.9179 36.7713C25.9517 36.7882 28.7113 38.3073 28.8041 41.8686C29.8084 41.742 34.8128 41.185 37.8425 41.6323C37.0408 40.493 34.3487 36.6532 33.4626 34.9569L32.4499 38.7545C32.4245 38.8389 32.3401 38.8896 32.2473 38.8642C32.1629 38.8389 32.1123 38.7545 32.1376 38.6702L33.2685 34.4506C33.2853 34.3831 33.3444 34.3324 33.4119 34.3324C33.4879 34.3324 33.5469 34.3662 33.5723 34.4337C34.2305 35.9949 38.2898 41.6998 38.332 41.7589C38.3741 41.8095 38.3741 41.8855 38.332 41.9361C38.2982 41.9952 38.2307 42.0205 38.1632 42.0036C34.9225 41.3876 28.7282 42.1893 28.6607 42.1977C28.6185 42.1977 28.5678 42.1977 28.5341 42.1555C28.5003 42.1218 28.475 42.0796 28.475 42.0374C28.475 39.1681 26.6521 37.649 25.9939 37.1933V42.7294C25.9939 45.5565 27.4201 45.7506 27.4876 45.759C27.5636 45.759 37.083 45.8434 39.6063 45.8434C41.4966 45.8434 42.7119 45.4046 43.2098 44.5269C43.8258 43.4636 43.4208 41.6998 42.0114 39.2862C41.7076 38.763 41.4207 38.2651 41.1338 37.7756C38.0028 32.3577 35.9859 28.771 30.9646 27.6824C29.3864 27.3364 26.4412 26.7034 26.4412 23.083C26.4412 22.9902 26.5171 22.9227 26.6015 22.9227C26.6859 22.9227 26.7619 22.9902 26.7619 23.083C26.7619 26.4418 29.5383 27.041 31.0321 27.3701C36.1884 28.4841 38.3404 32.2986 41.4122 37.6153C41.6992 38.1047 41.9861 38.6111 42.2899 39.1259C43.7837 41.6745 44.1719 43.4973 43.4883 44.6873C42.9229 45.6662 41.6148 46.1641 39.6063 46.1641H39.6147Z" fill="#9C9C9C"/>
<path d="M26.6016 23.2434C26.5425 23.2434 26.475 23.2097 26.4497 23.1422C26.4159 23.0578 26.4497 22.9649 26.5341 22.9312C29.108 21.8594 30.8381 19.0154 30.8381 15.8507C30.8381 11.6987 27.9181 8.31456 24.3315 8.31456C20.7448 8.31456 17.8164 11.6902 17.8164 15.8507C17.8164 19.007 19.5465 21.851 22.1204 22.9312C22.2048 22.9649 22.2386 23.0578 22.2048 23.1422C22.171 23.2266 22.0782 23.2688 21.9938 23.2266C19.3017 22.1042 17.4873 19.142 17.4873 15.8507C17.4873 11.5214 20.5507 7.99387 24.323 7.99387C28.0953 7.99387 31.1503 11.5214 31.1503 15.8507C31.1503 19.142 29.3443 22.1042 26.6438 23.2266C26.6269 23.235 26.6016 23.235 26.5847 23.235L26.6016 23.2434Z" fill="#9C9C9C"/>
<path d="M37.9616 67.6418C34.6281 66.4857 17.159 58.5022 16.3151 58.1225C13.2264 58.0381 6.12061 57.7174 6.12061 56.6287C6.12061 55.2363 8.01098 54.8481 9.83384 54.4767C10.9141 54.2573 12.028 54.0295 12.7369 53.6075C13.3277 53.2615 13.7834 52.8817 14.2222 52.5104C15.159 51.7256 15.986 51.0589 17.5135 51.3374C18.7794 51.5737 19.5051 53.6159 19.657 54.0885C20.5431 54.2742 27.5983 55.7764 33.1344 56.8144C38.0291 57.7343 38.9574 59.2786 39.5228 60.1985C39.6494 60.4095 39.7591 60.5867 39.8857 60.7133C39.9448 60.7724 39.9532 60.8736 39.8857 60.9411C39.8182 61.0087 39.7169 61.0002 39.6578 60.9411C39.5059 60.7892 39.3878 60.5951 39.2528 60.3673C38.7211 59.4896 37.835 58.0296 33.0837 57.1351C27.1932 56.0295 19.5895 54.4008 19.5136 54.3839C19.4545 54.3755 19.4123 54.3248 19.3954 54.2742C19.3954 54.2489 18.6865 51.8775 17.4713 51.6581C16.0788 51.4049 15.3952 51.9703 14.4332 52.7636C14.0028 53.118 13.5133 53.5231 12.9057 53.886C12.1462 54.3333 11.0069 54.5696 9.90135 54.7974C8.12069 55.1603 6.44129 55.5063 6.44129 56.6372C6.44129 57.1266 10.9816 57.6583 16.3573 57.8102C16.3826 57.8102 16.3995 57.8102 16.4164 57.8271C16.5936 57.9115 34.6787 66.1734 38.0628 67.3465C43.0251 69.0681 46.1982 68.9921 47.4894 67.1271C49.1097 64.781 48.8228 61.726 46.7974 59.7006C44.7129 57.6161 42.5272 56.9578 42.5103 56.9494C42.4259 56.9241 42.3753 56.8313 42.4006 56.7469C42.4259 56.6625 42.5187 56.6118 42.6031 56.6372C42.6959 56.6625 44.8901 57.3292 47.0337 59.4643C49.1688 61.6078 49.4726 64.8316 47.7594 67.3043C45.9113 69.9795 41.0165 68.7052 37.97 67.6418H37.9616Z" fill="#9C9C9C"/>
<path d="M39.3789 56.1646C39.3705 56.0802 39.4296 55.9958 39.514 55.9873C39.514 55.9873 39.8515 55.9451 40.0034 55.6751C40.13 55.4641 40.1047 55.1603 39.9444 54.7637C39.4718 53.6412 35.5307 53.4556 34.1467 53.5231C33.4968 53.5484 32.8977 53.1433 32.2057 52.6707C31.6318 52.2825 30.9904 51.8437 30.214 51.5905C28.6612 51.0926 27.9101 52.9999 27.8848 53.0843C27.851 53.1687 27.7582 53.2109 27.6738 53.1771C27.5894 53.1433 27.5472 53.0505 27.581 52.9661C27.5894 52.9408 28.4755 50.6875 30.3153 51.2783C31.1339 51.5399 31.8006 51.9956 32.3913 52.4007C33.0327 52.8395 33.5812 53.2193 34.1382 53.194C34.1973 53.194 39.5815 53.0167 40.2482 54.6286C40.4507 55.1181 40.4676 55.5232 40.2904 55.827C40.0541 56.2236 39.5815 56.2911 39.5646 56.2911C39.4718 56.2996 39.3958 56.2321 39.3874 56.1477L39.3789 56.1646Z" fill="#9C9C9C"/>
<path d="M1.30986 65.532C0.15369 63.2957 0.204324 59.9959 3.81629 57.4811C3.8838 57.4304 3.99351 57.4473 4.03571 57.5233C4.08634 57.5992 4.06946 57.7005 3.99351 57.7511C0.55877 60.1478 0.499696 63.2703 1.59679 65.3886C2.77827 67.684 7.05693 68.2072 9.94312 67.1355C12.9137 66.0299 20.9562 62.6205 21.0406 62.5868C21.1166 62.553 21.2178 62.5868 21.2516 62.6712C21.2854 62.7555 21.2516 62.8484 21.1672 62.8821C21.0913 62.9159 13.0403 66.3253 10.0613 67.4393C7.04849 68.5617 2.56729 67.9794 1.3183 65.5405L1.30986 65.532Z" fill="#9C9C9C"/>
<path d="M31.2774 48.9322L31.2352 48.8056C31.2014 48.7212 31.2521 48.6284 31.3365 48.6031C31.4208 48.5778 31.5137 48.62 31.539 48.7044L31.5812 48.831C31.6149 48.9153 31.5643 49.0082 31.4799 49.0335C31.3955 49.0588 31.3027 49.0166 31.2774 48.9322Z" fill="#9C9C9C"/>
<path d="M16.8882 49.0925C16.8038 49.0672 16.7532 48.9828 16.7785 48.89L16.8882 48.5018C16.9135 48.4174 16.9979 48.3668 17.0823 48.3921C17.1667 48.4174 17.2174 48.5018 17.192 48.5946L17.0823 48.9828C17.057 49.0672 16.9726 49.1178 16.8882 49.0925Z" fill="#9C9C9C"/>
<path d="M36.7463 23.7582L35.0247 22.7708C34.6365 22.5514 34.5099 22.0619 34.7293 21.6737C34.9487 21.294 35.4382 21.1589 35.8264 21.3784L37.548 22.3657C37.9362 22.5851 38.0628 23.0746 37.8434 23.4628C37.6239 23.8426 37.1345 23.9861 36.7463 23.7582ZM10.838 23.4628C10.6186 23.0746 10.7536 22.5851 11.1334 22.3657L12.855 21.3784C13.2432 21.1589 13.7327 21.294 13.9521 21.6737C14.1715 22.0619 14.0365 22.5514 13.6567 22.7708L11.9351 23.7582C11.5469 23.9776 11.0574 23.8426 10.838 23.4628ZM39.1346 16.4668H37.1514C36.7041 16.4668 36.3496 16.1039 36.3496 15.665C36.3496 15.2262 36.7125 14.8633 37.1514 14.8633H39.1346C39.5734 14.8633 39.9363 15.2262 39.9363 15.665C39.9363 16.1039 39.5734 16.4668 39.1346 16.4668ZM11.53 16.4668H9.54684C9.108 16.4668 8.74512 16.1039 8.74512 15.665C8.74512 15.2262 9.108 14.8633 9.54684 14.8633H11.53C11.9773 14.8633 12.3318 15.2262 12.3318 15.665C12.3318 16.1039 11.9689 16.4668 11.53 16.4668ZM34.7293 9.65635C34.5099 9.26815 34.6449 8.77867 35.0247 8.55926L36.7463 7.57188C37.1345 7.35246 37.6239 7.47905 37.8434 7.86725C38.0628 8.25545 37.9278 8.74491 37.548 8.96433L35.8264 9.95173C35.4382 10.1711 34.9487 10.0361 34.7293 9.65635ZM12.855 9.95173L11.1334 8.96433C10.7452 8.74491 10.6186 8.25545 10.838 7.86725C11.0574 7.47905 11.5469 7.35246 11.9351 7.57188L13.6567 8.55926C14.0449 8.77867 14.1715 9.26815 13.9521 9.65635C13.7327 10.0361 13.2432 10.1796 12.855 9.95173ZM30.3409 5.26799C29.9527 5.04857 29.8262 4.55909 30.0456 4.17089L31.0414 2.44931C31.2693 2.06111 31.7503 1.93451 32.1385 2.15393C32.5182 2.37335 32.6533 2.87126 32.4339 3.25103L31.438 4.97261C31.2102 5.36081 30.7207 5.48741 30.3409 5.26799ZM17.2518 4.97261L16.256 3.25103C16.0366 2.87126 16.1631 2.37335 16.5513 2.15393C16.9395 1.93451 17.429 2.06111 17.6484 2.44931L18.6443 4.17089C18.8637 4.55066 18.7371 5.04857 18.3489 5.26799C17.9691 5.48741 17.4797 5.36081 17.2518 4.97261ZM24.3491 3.64767C23.9019 3.64767 23.5474 3.28477 23.5474 2.84594V0.871176C23.5474 0.4239 23.9103 0.069458 24.3491 0.069458C24.788 0.069458 25.1509 0.43234 25.1509 0.871176V2.84594C25.1509 3.29321 24.788 3.64767 24.3491 3.64767Z" fill="#9C9C9C"/>
<path d="M24.3404 3.33542C24.0704 3.33542 23.8594 3.116 23.8594 2.85439V0.879629C23.8594 0.609575 24.0788 0.39859 24.3404 0.39859C24.602 0.39859 24.8214 0.618015 24.8214 0.879629V2.85439C24.8214 3.12444 24.602 3.33542 24.3404 3.33542Z" fill="#9C9C9C"/>
<path d="M17.5219 4.82066L16.526 3.09907C16.391 2.87121 16.467 2.57584 16.7033 2.44081C16.9311 2.30578 17.2265 2.38174 17.3615 2.61804L18.3573 4.33962C18.4924 4.56748 18.4164 4.86285 18.1801 4.99788C17.9523 5.1329 17.6569 5.05696 17.5219 4.82066Z" fill="#9C9C9C"/>
<path d="M36.9069 23.4797L35.1853 22.4923C34.9575 22.3573 34.8731 22.0619 35.0081 21.834C35.1431 21.5977 35.4385 21.5218 35.6663 21.6568L37.3879 22.6442C37.6158 22.7792 37.7002 23.0746 37.5652 23.3025C37.4301 23.5387 37.1348 23.6147 36.9069 23.4797Z" fill="#9C9C9C"/>
<path d="M13.0148 9.67322L11.2932 8.68584C11.0654 8.55081 10.981 8.25544 11.116 8.02759C11.251 7.79129 11.5464 7.71533 11.7743 7.85036L13.4958 8.83774C13.7237 8.97276 13.8081 9.26813 13.6731 9.49599C13.538 9.73229 13.2427 9.80825 13.0148 9.67322Z" fill="#9C9C9C"/>
<path d="M39.1332 16.146H37.15C36.8799 16.146 36.6689 15.9266 36.6689 15.665C36.6689 15.4034 36.8884 15.184 37.15 15.184H39.1332C39.4032 15.184 39.6142 15.4034 39.6142 15.665C39.6142 15.9266 39.3948 16.146 39.1332 16.146Z" fill="#9C9C9C"/>
<path d="M11.5297 16.146H9.54646C9.27641 16.146 9.06543 15.9266 9.06543 15.665C9.06543 15.4034 9.28485 15.184 9.54646 15.184H11.5297C11.7997 15.184 12.0107 15.4034 12.0107 15.665C12.0107 15.9266 11.7913 16.146 11.5297 16.146Z" fill="#9C9C9C"/>
<path d="M35.0081 9.49601C34.8731 9.26815 34.9575 8.97278 35.1853 8.83775L36.9069 7.85037C37.1348 7.71535 37.4301 7.79974 37.5652 8.0276C37.7002 8.25546 37.6158 8.55083 37.3879 8.68586L35.6663 9.67324C35.4385 9.79982 35.1431 9.73231 35.0081 9.49601Z" fill="#9C9C9C"/>
<path d="M11.116 23.3025C10.981 23.0746 11.0654 22.7792 11.2932 22.6442L13.0148 21.6568C13.2427 21.5218 13.538 21.6062 13.6731 21.834C13.8081 22.0619 13.7237 22.3573 13.4958 22.4923L11.7743 23.4797C11.5464 23.6147 11.251 23.5388 11.116 23.3025Z" fill="#9C9C9C"/>
<path d="M30.5007 4.99788C30.2729 4.86285 30.1885 4.56748 30.3235 4.33962L31.3193 2.61804C31.4544 2.38174 31.7497 2.30578 31.9776 2.44081C32.2055 2.57584 32.2898 2.87121 32.1548 3.09907L31.159 4.82066C31.024 5.05696 30.7286 5.12446 30.5007 4.99788Z" fill="#9C9C9C"/>
<path d="M24.34 3.01472C24.2472 3.01472 24.1797 2.94721 24.1797 2.85438V0.879615C24.1797 0.786784 24.2472 0.719269 24.34 0.719269C24.4329 0.719269 24.5004 0.786784 24.5004 0.879615V2.85438C24.5004 2.94721 24.4244 3.01472 24.34 3.01472Z" fill="#9C9C9C"/>
<path d="M17.7998 4.66037L16.804 2.93877C16.7618 2.86282 16.7871 2.76156 16.8631 2.71936C16.939 2.67717 17.0403 2.70249 17.0825 2.77844L18.0783 4.50003C18.1205 4.57598 18.0952 4.67724 18.0193 4.71944C17.9433 4.76163 17.842 4.73632 17.7998 4.66037Z" fill="#9C9C9C"/>
<path d="M37.0666 23.2012L35.345 22.2138C35.2691 22.1716 35.2438 22.0703 35.286 21.9944C35.3281 21.9184 35.4294 21.8931 35.5054 21.9353L37.227 22.9227C37.3029 22.9649 37.3282 23.0661 37.286 23.1421C37.2438 23.2181 37.1426 23.2434 37.0666 23.2012Z" fill="#9C9C9C"/>
<path d="M13.1667 9.39472L11.4451 8.40734C11.3692 8.36515 11.3439 8.26387 11.386 8.18792C11.4282 8.11196 11.5295 8.08665 11.6055 8.12885L13.3271 9.11623C13.403 9.15843 13.4283 9.25969 13.3861 9.33564C13.3439 9.4116 13.2427 9.43692 13.1667 9.39472Z" fill="#9C9C9C"/>
<path d="M39.1338 15.8254H37.1506C37.0577 15.8254 36.9902 15.7494 36.9902 15.665C36.9902 15.5806 37.0577 15.5047 37.1506 15.5047H39.1338C39.2182 15.5047 39.2941 15.5722 39.2941 15.665C39.2941 15.7578 39.2182 15.8254 39.1338 15.8254Z" fill="#9C9C9C"/>
<path d="M11.5293 15.8254H9.54609C9.4617 15.8254 9.38574 15.7494 9.38574 15.665C9.38574 15.5806 9.4617 15.5047 9.54609 15.5047H11.5293C11.6221 15.5047 11.6896 15.5722 11.6896 15.665C11.6896 15.7578 11.6221 15.8254 11.5293 15.8254Z" fill="#9C9C9C"/>
<path d="M35.286 9.33564C35.2438 9.25969 35.2691 9.15843 35.345 9.11623L37.0666 8.12885C37.1426 8.08665 37.2438 8.11196 37.286 8.18792C37.3282 8.26387 37.3029 8.36515 37.227 8.40734L35.5054 9.39472C35.4294 9.43692 35.3281 9.4116 35.286 9.33564Z" fill="#9C9C9C"/>
<path d="M11.3944 23.1421C11.3522 23.0661 11.3775 22.9649 11.4534 22.9227L13.175 21.9353C13.251 21.8931 13.3522 21.9184 13.3944 21.9944C13.4366 22.0703 13.4113 22.1716 13.3354 22.2138L11.6138 23.2012C11.5378 23.2434 11.4365 23.2181 11.3944 23.1421Z" fill="#9C9C9C"/>
<path d="M30.6614 4.71944C30.5855 4.67724 30.5602 4.57598 30.6024 4.50003L31.5982 2.77844C31.6404 2.70249 31.7416 2.67717 31.8176 2.71936C31.8935 2.76156 31.9189 2.86282 31.8767 2.93877L30.8808 4.66037C30.8387 4.73632 30.7374 4.76163 30.6614 4.71944Z" fill="#9C9C9C"/>
</svg>
