<?xml version="1.0" encoding="UTF-8"?>
<svg id="Layer_1" data-name="Layer 1" xmlns="http://www.w3.org/2000/svg" viewBox="0 0 128.54 104.09">
  <defs>
    <style>
      .cls-1 {
        fill: #a4a4a4;
        fill-rule: evenodd;
        stroke-width: 0px;
      }
    </style>
  </defs>
  <path class="cls-1" d="m100.77,50.47c5.04-.77,9.1-3.32,14.04-3.17,1.92.06,3.19.77,4.27,1.83,1.7,1.66,3.73,1.71,5.79,1.96.44.06.87.2,1.7.39-.97.53-1.62.88-2.43,1.33,1.54.28,2.93.53,4.31.79.03.28.06.55.09.84-1.59.42-3.21.74-4.76,1.28-2.21.77-4.31,2.13-6.57,2.47-2.84.42-5.8.12-8.71,0-1.09-.04-2.19-.41-3.25-.75-1.63-.53-3.21-1.22-4.84-1.72-.8-.25-2-.6-2.46-.22-.64.53-.81,1.68-1.09,2.59-.31,1.01-.96,2.2-.7,3.07.64,2.09-1.39,3.16-1.61,5.07-.23,1.96-.75,5.15-3.88,5.99-.64.17-1.09,1.08-2,2.05-3.09-.23-6.64-.5-10.26-.76-.54,2.2-.13,3.89,2.17,4.85,4.76,1.98,6.77,13.12,4.22,17.28-1.49,2.44-2.21,5.35-3.28,8.04-.11.27-.23.53-.16.37-2.66-2.37-5.37-4.77-8.06-7.21-.3-.27-.44-.73-.62-1.12-.85-1.76-1.74-3.52-2.52-5.31-.22-.5-.06-1.15-.15-1.71-.12-.74-.31-1.46-.47-2.19-.23-.06-.45-.12-.67-.19,1.55-1.92,3.13-3.82,4.66-5.76,1.03-1.3,2.1-2.59,2.95-4.01.88-1.46.33-3.53-.87-4-1-.38-2.99.97-3.38,2.34-.31,1.09-.72,2.18-.84,3.3-.3,2.84-2.48,4.43-4.29,6.09-.99.9-2.8.91-4.23,1.32.94,2.58,2.63,5.24,2.68,7.94.06,2.73-1.51,5.48-2.36,8.23-2.58-2.18-4.99-4.41-7.6-6.37-1.5-1.13-3.63-1.53-4.92-2.81-1.44-1.45-2.26-3.54-3.32-5.3-.3.3-.95.96-1.6,1.62-.08-.09-.16-.17-.24-.26-1.06,1.74-1.77,3.9-3.26,5.09-1.77,1.41-3.47,3.56-6.39,2.99-1.07-.21-2.27.16-3.4.33-.95.15-1.89.6-2.82.57-2.7-.11-4.35,2.09-6.87,2.79.01-6.01,2.33-11.05,6-15.79-1.63-2.48-3.7-2.83-6.01-.65-1.75,1.65-3.43,3.18-6.17,2.6-.68-.15-1.56.43-2.3.78-2.54,1.2-3.84.85-5.89-1.1-1.21-1.15-2.84-1.84-4.13-2.92-.73-.61-1.48-1.52-1.66-2.4-.8-3.92.56-7.29,3.41-10.5-1.49-.77-2.77-1.51-4.12-2.09-1.46-.62-2.22-1.51-1.8-3.17.52-2.05,1-4.11,1.51-6.16.11-.44.48-.93.37-1.28-1.04-3.25,1.29-4.8,3.13-6.71.88-.91,1.37-2.19,2.14-3.23,2.75-3.72,4.4-8.61,10.12-9.14,1.51-.14,2.94-1.07,4.45-1.43,1.58-.38,3.25-.83,4.81-.64,1.81.23,3.32.36,4.85-.91.8-.66,2-.83,3.16-1.27.38,1.5.66,2.65.95,3.79.21.01.43.02.64.03.16-2.76.45-5.51.46-8.27.02-2.15-.38-4.3-.4-6.45,0-.63.49-1.41.98-1.88,1.03-1,2.25-1.81,3.3-2.79.6-.55,1.52-1.33,1.45-1.91-.46-4.19,3.53-6.29,4.43-9.81.07-.27.5-.5.49-.74-.06-4.02,3.25-3.64,5.61-4,4.21-.64,8.3.11,12.11,2.15,1.57.84,2.84,1.3,4.41-.65,1.36-1.69,3.65-2.77,5.73-3.69.92-.41,2.39.05,3.48.46,1.99.75,3.88,1.34,5.85,0,.23-.16.58-.23.87-.21,4.27.25,8.54.52,13.05.8-.96,3.94.93,6.65,2.65,9.54,1.25,2.1,2.18,4.47,2.76,6.85.47,1.95,1.24,3.48,2.68,4.83,2.92,2.74,4.39,10.05,2.34,13.46-1.06,1.75-3.14,2.88-4.88,4.4.2.27.6.8.99,1.34,1.33,1.91,1.09,3.09-.57,4.76-1.22,1.22-2.19,2.7-3.28,4.06m-10.31,13.33c3.35-1.78,4.25-5,5.75-8,1.77-3.54,4.19-6.82,6.74-9.88,2.04-2.45,2.08-4.12-.76-5.71-2.18-1.22-4.74-.8-6.29,1.19-1.05,1.35-2.14,1.88-3.9,1.45-.99-.24-2.14.18-2.97.27.21,2.8.39,5.22.58,7.63-.2.01-.4.03-.6.04q-2.46-5.08-3.6-5.45c.12,2,.25,4.07.38,6.13-.19.01-.38.02-.57.04-1.93-7.24-4.48-9.58-8.92-8.44.63,6,1.25,11.96,1.88,17.93-1.1-.75-1.63-1.81-2.47-2.51-1.65-1.37-3.3-3.08-5.25-3.66-4.46-1.32-6.65-4.42-8.16-8.44-.28-.75-1.17-1.66-1.87-1.75-1.06-.14-2.8.03-3.19.69-1.66,2.77-2.99,5.75-4.27,8.73-.22.53.23,1.49.6,2.1,1.91,3.13,5.66,2.66,8.44,4.12,1.2.63,2.82.41,4.2.78,3.49.92,6.96,1.96,10.43,2.96,1.23.36,2.47.72,3.7,1.11,2.73.86,5.45,1.74,8.29,2.64.79-4.36-3-6.5-3.58-10.1,1.81,2.05,3.62,4.11,5.39,6.12M49.08,13.67c-.08.13-.16.26-.24.39-.43-.08-.86-.18-1.29-.25-3.62-.62-5.22.94-4.03,4.42,1.71,4.98,1.18,10.55,4.11,15.18.16.24.16.58.23.87.74,2.83,2.39,4.99,5.16,5.92,2.71.91,5.54,1.52,8.36,2,.51.09,1.8-1.14,1.73-1.65-.17-1.43-.64-2.93-1.37-4.18-1.46-2.47-1.97-4.76-.46-7.46.69-1.25,1.01-2.95.86-4.38-.38-3.49-1.13-6.95-1.74-10.45-4.04,1.07-5.07,2.63-4.38,6.53.5,2.83,1.37,5.59,1.92,8.41.22,1.16.04,2.41.04,3.61-1.52-3.98-2.75-7.86-3.91-11.75-1.68-5.65,1.1-9.44,7.15-9.84.5-.03,1.12-.09,1.45-.4,1.16-1.08,2.22-2.28,3.33-3.46-4.46-4.42-11.53-4.46-16.69-2.7-.47.16-.72.96-1.07,1.47.45.29.86.72,1.35.87,1.36.4,2.75.69,4.13,1.01-.05.19-.09.38-.14.57q-5.2-.72-6.88.57c.61.57,1.21,1.13,2.18,2.03h-3.5c1.49,1.07,2.59,1.87,3.69,2.66m16.57,20.16c-.03-.15-.07-.29-.1-.44,1.43-.3,2.87-.6,4.9-1.02-.34-2.3-.75-4.64-1-6.99-.17-1.62-.2-3.28-.11-4.91.09-1.72.54-3.42.56-5.13.03-4.11,1.37-5.97,5.38-7.01.54-.14,1.11-.2,1.96-.34-1.45-1.41-2.58-2-4.38-1.03-1.78.96-3.81,1.45-5.7,2.2-.93.37-1.81.88-2.66,1.3.56,1.47.99,2.62,1.38,3.64-1.17-.3-2.89-1.01-3.07-.74-.63.99-.9,2.3-1.02,3.52-.07.78.26,1.65.59,2.4,1.72,3.92,1.59,7.83,0,11.72-.6,1.48-.57,2.79.56,3.98,1.7,1.8,1.87,3.88,1.21,6.15-.32,1.09-.66,2.18-.87,3.3-.55,2.97,1.62,5.44,4.62,5.36.7-.02,1.39,0,2.09,0,.03.14.05.27.08.41-.97.49-1.93.98-3.27,1.66,3.27,1.21,6.2,2.29,9.27,3.43-.33-3.04-.26-6.15-1.08-9.01-1.16-4.02-3.44-7.39-8.6-8.03,1.42-1.15,2.37-1.93,3.65-2.97-1.72-.58-3.05-1.02-4.38-1.46m-32.49,35.9c.78-2.83-.28-6.22-2.3-7.58-4.54-3.06-9.59-4.08-14.94-3.49-.99.11-1.87,1.17-2.83,1.75-.82.5-1.62,1.07-2.52,1.37-1.23.42-2.53.61-3.81.9-.08.32-.16.64-.23.97,5.48.23,7.72,4.23,10.23,7.96.62.93,1.35,1.85,2.21,2.57,1.79,1.5,3.77,2.07,6.3.53-3.03-.45-5.77-.85-7.49-3.54,2.79.95,5.44,1.85,8.1,2.76.05-.14.11-.29.16-.43-2.02-1.73-4.05-3.46-6.08-5.19.12-.17.24-.34.37-.52.73.47,1.44.97,2.19,1.4,1.44.83,2.83,1.8,4.37,2.38,3.16,1.19,4.52-.03,3.89-3.29-.1-.51-.21-1.02-.31-1.54.13-.05.26-.1.38-.15.75,1,1.49,2.01,2.31,3.12m8.75-50.7c-1.67,1.38-3.49,2.46-4.64,4.03-.47.64.48,2.33.77,3.54.05.22.07.45.07.67-.03,3.01-.03,3,2.86,2.79.4-.03.8.04,1.78.09-.96.51-1.38.84-1.85.97-3.96,1.1-3.17,4.66-3.38,7.34-.09,1.12,1.82,2.53,3.04,3.54.69.57,1.8.71,2.76.88,1.63.29,3.29.45,4.94.7.17.03.31.24.56.44-.51.33-.92.59-1.33.85.34.28.65.52,1.14.91-1.23.33-2.16.59-3.62.98,1.36,1.39,2.37,2.73,3.66,3.67,1.98,1.43,3.7.89,4.82-1.32.99-1.92,1.88-3.9,2.83-5.86-1.27-.67-2.45-1.34-3.68-1.91-3.26-1.49-5.32-3.86-5.85-7.5-.11-.78-.71-1.48-.96-2.26-.6-1.81-1.57-3.65-1.56-5.48,0-2.59-.77-4.7-2.33-7.09M96.94,2.14c-2.43.13-4.96-.48-6.25.52-2.04,1.57-3.55,4.08-4.71,6.47-.64,1.31-.75,3.74.06,4.7,1.67,1.98,4.1,3.33,6.25,4.9.17.12.59-.03.88-.12,3.21-1.14,5.29.31,7.13,2.84,1.22,1.69,2.71,3.23,4.28,4.61,3.56,3.11,3.49,7.12-.27,9.97-.7.53-1.18,1.35-1.76,2.05,4.14-.37,5.74-1.83,5.89-4.74.22-4.32-.62-8.19-4.13-11.25-1.06-.92-1.8-2.64-1.97-4.08-.3-2.57-1.05-4.8-2.59-6.89-1.81-2.45-3.47-5.03-2.8-8.97m.62,28.19c-1.09,2.27-1.86,4.4-3.09,6.23-.76,1.12-2.17,2.4-3.39,2.5-2.42.21-4.98-.08-7.37-.65-3.66-.86-6.66.15-9.48,2.65.77.36,1.55.59,2.32.5,2.36-.26,4.64-.37,6.85.87.76.43,2.07.61,2.8.25,3.46-1.73,7.91-.69,10.85-3.86.24-.26.87-.18,1.32-.25,3.44-.59,5.15-3.46,7.37-5.64.38-.37.5-1.43.26-1.94-.75-1.61-1.57-3.24-2.67-4.62-1.44-1.79-3.25-3.28-4.79-5-1.63-1.82-3-2.07-4.98-.66,2.66,1.41,2.65,1.41,1.85,4.33-.16.58-.16,1.19-.27,1.79-.79,4.31-2.23,6.27-6.18,6.59-1.14.09-2.25.58-3.37.89,4.79,1.17,7.96-2.51,11.99-3.95M31.2,75.22c-2.63.27-5.49,1.82-7.11,3.74-1.06,1.25-.91,1.91.77,2.29,1.41.33,3.05.59,4.08,1.47,1.51,1.31,2.59,1.14,3.97.06.94-.73,1.93-1.74,3-1.89,2.17-.29,3.02-1.55,3.34-3.4.4-2.29,1.7-3.65,3.96-4.1,1.6-.31,2.27-1.3,2.84-2.83.51-1.34,1.68-2.59,2.86-3.48,1.58-1.18,2.83-2.24,2.18-4.46-.12-.41.23-1.06.52-1.49.98-1.41.45-2.86-1.23-3.21-2.47-.52-5.75,1.04-7.1,3.4,1.03.23,2.07.45,3.35.73-1.94.84-3.56,1.55-5.18,2.26.07.22.14.44.22.66.87.41,1.74.83,2.61,1.24.07.22.14.45.21.67-3.43-.93-4.26,1.5-5.52,3.48-.68,1.07-1.64,1.97-2.41,2.99-.53.7-.94,1.5-1.5,2.38-1.68-1.42-2.6.34-3.69,2.22-.08-1.27-.13-2.01-.17-2.75m4.62-13.7c1.57-4.29-1.53-18.59-4.57-20.15.67,2.79,1.27,5.29,1.86,7.79-1.08-.97-1.65-2.13-2.44-3.1-.53-.64-1.53-1.5-2.08-1.36-.73.19-1.29,1.22-1.83,1.97-.72,1.01-1.1,2.47-2.05,3.06-2.45,1.54-4.17,4.05-7.07,5.02-.89.3-1.48,1.53-2.36,2.51,7.53.19,14.77.32,19,7.87.17-.12.35-.23.52-.35-.41-2.46-.82-4.91-1.23-7.37.08-.04.16-.07.24-.11.63,1.32,1.25,2.64,2,4.22m-16.11,15.98c.05-.16.1-.32.14-.47-1.45-1.87-3.02-3.66-4.32-5.63-2.24-3.39-4.84-6.22-9.02-7.12-.61-.13-1.16-.49-2.41-1.04,2.19-1.04,3.82-1.8,5.61-2.66-1.02-.39-1.92-.73-3.12-1.2,1.33-.32,2.29-.55,3.69-.89-1.27-.69-2.07-1.12-3.07-1.66,1.07-.33,1.83-.56,2.92-.9-2.3-1.52-1.76-2.78-.41-4.48,1.07-1.36.94-3.22-.58-5.06-.46.86-1.11,1.5-1.06,2.09.14,1.93-.96,2.73-2.41,3.66-1.94,1.25-4.05,2.65-2.75,5.67.21.49-.25,1.29-.46,1.93-.48,1.51-1.01,2.99-1.48,4.5-.53,1.72.12,2.61,1.88,3.16,3.77,1.19,7.49,2.3,10.3,5.59,1.66,1.94,4.32,3.03,6.53,4.51m-9.21,5.54c-.12-.09-.24-.18-.36-.27.48-1.09.95-2.19,1.47-3.27.5-1.05,1.08-2.06,1.85-3.55-2.01.94-3.54,1.65-5.08,2.36-.06-.11-.12-.22-.18-.33.94-1.01,1.87-2.02,3.19-3.44-2.25.36-3.94.62-5.63.9-.07-.14-.14-.28-.21-.42,1.53-.8,3.05-1.61,4.67-2.46-.54-.63-1.12-1.3-1.67-1.95-4.03,1.92-6.11,6.82-4.55,10.7.27.67,1.02,1.52,1.63,1.59,1.87.23,2.88,1.37,3.94,2.71,1.8,2.28,2.61,2.24,4.82.35.59-.51,1.6-1.24,2.06-1.04,2.98,1.3,4.26-.76,5.31-1.98v-5.01c-2.87-.26-5.62.16-7.1,3.51.04-1,.09-2,.16-3.7-1.7,2.09-3,3.69-4.31,5.29m48.51-12.54c-4.39-.47-4.42-.49-6.51,3.2-.92,1.62-1.3,3.87-2.65,4.85-1.6,1.16-1.54,2.41-1.59,3.95,1.7-1.89,3.48-3.78,4.53-6.02,1.14-2.43,2.77-3.57,5.29-4.09,4.4-.9,8.7-1.76,13.16-.06.76.29,2.23-1.06,3.24-1.82.32-.24.45-1.14.26-1.56-1.38-3.16-5.96-6.85-10.36-4.37-2.54,1.43-4.28,3.24-5.38,5.91m13.19-36.33c3.49-3.78,4.74-10.64,2.47-15.76-.75-1.69-.31-3.07,1.29-3.46,2.45-.6,5.02-.7,7.63-1.03-.67-1.69-1.51-4.27-3.88-4.77-2.59-.55-5.48-.15-7.45,2.26-.37.46-.84,1-.9,1.54-.33,3.04-.88,6.12-.71,9.14.23,4.15,1.04,8.27,1.55,12.07m-36.51,6.46c-.32.19-.63.38-.95.58,0,.73-.12,1.49.02,2.19.54,2.74,1.03,5.5,1.79,8.18,1.24,4.34,1.55,8.57-.32,12.84-.68,1.56-.94,3.31-1.38,4.97,1.55-2.8,5.01-4.39,5.01-8.07,0-.49.58-1.04.99-1.47,1.65-1.77,1.63-3.73,1.01-5.93-.27-.97-.36-2.29.09-3.11,1.12-2,.5-3.13-1.17-4.37-1.16-.86-1.98-2.19-2.95-3.31-.72-.83-1.43-1.66-2.15-2.49m50.25-9.63c-2.53,1.3-4.66,2.4-6.8,3.49,2.8-.44,5.41-1.16,7.92-2.13,1.75-.68,3.87-1.31,4.92-2.66,1.33-1.72,1.76-4.16,2.53-6.3.05-.16-.25-.62-.46-.67-2.62-.7-3.64-3.04-5.17-4.89-1.45-1.74-3.36-1.9-5.8-.33,1.77,1.65,3.3,3.48,5.2,4.75,2.98,1.99,3.14,3.89.06,5.73-.89.53-1.98.71-2.96,1.09-1.14.44-2.27.93-3.41,1.39.05.17.1.35.15.52h3.82Zm3.03-29.29c-1.67,0-3.11-.42-4.05.08-2.59,1.37-4.93.79-7.37-.16-1.65-.63-3.04-.4-4.18,1.17-.43.6-1.31,1.08-2.05,1.21-1.75.31-2.16,1.5-2.71,3.66,7.42-5.09,11.56-.91,15.36,4.24.48-1.57.82-3.36,1.58-4.96.76-1.6,1.94-3.02,3.43-5.25M28.58,38.24c-2.26-1.02-4.25-1.27-6.35-.3-1.41.65-2.9,1.14-4.38,1.66-1.42.5-3.03.69-4.26,1.48-1.07.69-1.73,2.03-2.82,3.39,2.48-.33,4.21-.47,5.9-.82.81-.17,1.98-.55,2.22-1.15.6-1.49,1.53-1.7,2.86-1.43,1.75.34,3.5.67,5.48,1.04.35-1,.81-2.33,1.35-3.87m49.87-10.75c2.24,0,4.31.1,6.37-.04,1.17-.08,2.42-.35,3.43-.92.6-.33.81-1.39,1.19-2.13-.8-.17-1.71-.66-2.37-.44-1.96.68-3.61,1.03-5.46-.56-.97-.84-2.34-1.12-1.98-2.76.23-1.03.61-2.03.9-2.96-1.77.02-3.24,3.09-2.76,6.68.4-.07.81-.14,1.26-.22-.02.38-.01.54-.04.68-.17.89-.35,1.79-.53,2.66m-53.06,16.81c-1.1-2.11-3.99-2.61-5.69-.96-.7.69-1.74,1.14-2.71,1.42-1.29.37-2.65.46-3.85.65.8,2.54-3.55,4.24-.42,7.18.64-.93,1.42-1.72,1.77-2.67.51-1.39.88-2.65,2.59-3.1,2.81-.74,5.56-1.68,8.31-2.53m.38,2.54c-.18-.24-.35-.48-.53-.73-1.31.67-2.9,1.07-3.88,2.06-2.21,2.25-4.52,4.07-7.64,4.96-2.13.62-2.62,2.3-1.62,4.54,4.61-3.65,9.14-7.25,13.67-10.84m17.99,11.14c.18.16.36.32.54.48,1.6-.63,3.2-1.25,4.8-1.89,1.71-.69,2.39-2.14,1.54-3.3-1.49-2.04-5.54-2.62-8.34-.63,2.14.84,3.86,1.52,5.15,2.02-1.13,1.02-2.41,2.17-3.69,3.32m37.62,40.55c.46-2.35,2.01-4.54.73-7.14-.38-.77-1.55-2.52.36-3.26-.81-1-1.69-2.08-2.57-3.17.13-.13.26-.25.39-.37.76.2,1.52.4,2.39.62-.78-1.86-4.34-1.42-3.44-4.61-.29-.18-.83-.53-1.36-.87.15.18.29.35.44.53-1.67,1.45-3.34,2.91-5.01,4.36.6-.08,1.02-.38,1.44-.67,3.12-2.18,3.17-2.17,4.68,1.12.19.42.55.85.51,1.24-.08.85-.17,1.81-.61,2.49-.69,1.05-1.67,1.91-2.53,2.85.11.09.22.17.33.26,1.05-1.01,2.11-2.02,3.17-3.02.27.11.55.22.82.33-.35,1.95-.69,3.89-1,5.67.2-.12.6-.35,1.28-.74v4.36Zm-47.84-7.8c.69-1.03,1.46-2.18,2.23-3.34.22.1.44.2.66.3.17.75.33,1.5.5,2.25,1.07-1.09-.5-3.79,2.44-3.81.04.56.05,1.01.09,1.46.05.45.13.88.2,1.32-.37-2.48.46-4.29,2.9-5.51-2.38,1.49-4.7,1.72-7.13.7.67.52,1.35,1.04,2.58,1.99-1.89.35-3.15.57-4.29.79.12.15.38.48,1.09,1.37-2.14.38-3.84.68-5.43.96.55.19,1.25.42,2.46.83-1.58,1.1-2.82,1.97-4.02,2.8-.02.23.04.7-.13,1.07-.22.48-.62.88-1.04,1.43,1.22-.72,2.25-1.33,3.65-2.16.59-.81,1.58-2.15,2.82-3.85.32,1.09.44,1.5.41,1.39m29.72-10.47q2.81-4.07,4.58-4.08c-.33,1.46-.66,2.89-.98,4.33.09.02.18.04.27.07.78-2.3,1.56-4.59,2.24-6.6-.59.18-2.17.18-2.59.88-1.3,2.18-2.27-.26-3.38.02.14.37.27.73.41,1.11-2.98.76-5.86,1.49-8.25,2.09-.22.77-.4,1.38-.58,1.99.25-.05.71-.15,1.24-.25-.09.7-.16,1.25-.23,1.8,1.13-1.68,1.68-3.86,4.45-3.72-.14,1.06-.29,2.12-.49,3.63q2.58-4.64,4.27-4.45c-.33,1.07-.65,2.13-.97,3.18M29.27,42.54c1.13-1.78,2.45-2.79,4.65-1.44.15-1.99.28-3.66.41-5.43-3.85.81-5.6,3.19-5.06,6.87m10.77,37.63c1.54-.11,3.9.3,4.35-.45.73-1.2.19-3.16.19-4.85-3.33.49-4.28,1.64-4.54,5.3m13.15-15.25c-.21-.06-.43-.12-.65-.19-1.23,1.31-2.42,2.65-3.7,3.92-1.96,1.95-2.39,4.13-1.03,6.39,1.59-3.54,4.25-6.46,5.37-10.12m19.51-28.17c4.25-1.33,5.92-5.71,9.39-7.96-4.97.42-6.99,4.42-9.39,7.96m-16.03,28.49c2.74-1,5.06-1.84,7.38-2.69-.01-.17-.03-.35-.04-.53-1.7-.24-3.39-.49-5.11-.74-.7,1.25-1.36,2.41-2.23,3.96m53.06-16.17c2.11.73,4.4,1.56,6.73,2.31,1.96.63,3.95,1.16,5.92,1.73-2.13-1.53-4.26-2.88-6.59-3.63-2.06-.67-4.34-1.33-6.06-.41m-31.1,16.83c-1.72-.27-3.06-.49-4.88-.78,1.32,1.88,2.26,3.23,3.61,5.14.53-1.84.85-2.94,1.27-4.37m-20.17,3.48c.47-1.02.88-1.89,1.28-2.76-.16-.18-.33-.35-.49-.53-1.2.6-2.39,1.2-3.59,1.8.06.22.11.44.17.65.82.26,1.63.52,2.63.83m53.51-11.97c2.41-.56,4.82-1.12,7-1.63-2.6-1.7-4.72.37-7,1.63m-54.93,33.03c1.75-.13,3.52-.27,5.68-.43-1.71-.73-3.06-1.3-4.34-1.85-.52.88-1.04,1.75-1.35,2.28m5,3.44c.54-.11.95-.2,1.69-.35-1.25-.62-2.16-1.07-2.94-1.46-.23.68-.44,1.3-.65,1.92.16-.09.33-.19.5-.28.64,1.19,1.28,2.38,1.91,3.57.08-.02.16-.04.25-.06-.24-1.07-.48-2.15-.75-3.34m-9.35-36.53c-.11.13-.22.26-.33.39.53,1.03,1.06,2.06,1.67,3.25.59-.44,1.03-.76,1.71-1.27-1.16-.9-2.11-1.63-3.06-2.37"/>
</svg>