<?xml version="1.0" encoding="UTF-8"?>
<svg id="Layer_1" data-name="Layer 1" xmlns="http://www.w3.org/2000/svg" viewBox="0 0 99.08 119.99">
  <defs>
    <style>
      .cls-1 {
        fill: #a4a4a4;
        stroke-width: 0px;
      }
    </style>
  </defs>
  <g>
    <path class="cls-1" d="m77.87,119.99h-9.61c-2.67,0-5.15-1.2-6.81-3.29l-6.28-7.91c-.84-1.07-2.11-1.68-3.48-1.68h-4.31c-1.36,0-2.63.61-3.48,1.68l-6.27,7.91c-1.66,2.09-4.14,3.29-6.81,3.29h-9.61c-3.68,0-7.31-.99-10.49-2.85-4.61-2.7-7.47-7.76-7.47-13.2v-11.72c0-4.27,2.89-8.06,7.03-9.21,25.68-7.16,52.83-7.16,78.51,0,4.14,1.15,7.03,4.94,7.03,9.21v11.75c0,5.28-2.55,10.06-6.83,12.78-3.33,2.12-7.18,3.25-11.13,3.25Zm-30.48-15.63h4.31c2.21,0,4.27.99,5.64,2.72l6.27,7.91c1.13,1.43,2.83,2.25,4.65,2.25h9.61c3.42,0,6.76-.97,9.65-2.81,3.43-2.18,5.55-6.19,5.55-10.46v-11.75c0-3.04-2.06-5.73-5.01-6.56-25.2-7.03-51.84-7.03-77.03,0-2.95.82-5.01,3.52-5.01,6.56v11.72c0,4.46,2.34,8.61,6.11,10.82,2.76,1.62,5.9,2.47,9.09,2.47h9.61c1.82,0,3.52-.82,4.65-2.25l6.27-7.91c1.37-1.73,3.43-2.72,5.64-2.72Z"/>
    <path class="cls-1" d="m77.87,115.96h-9.61c-1.44,0-2.77-.64-3.66-1.77l-6.27-7.91c-1.62-2.04-4.03-3.2-6.63-3.2h-4.31c-2.6,0-5.01,1.17-6.63,3.2l-6.27,7.91c-.89,1.12-2.22,1.77-3.66,1.77h-9.61c-2.97,0-5.89-.79-8.45-2.3-3.38-1.98-5.49-5.71-5.49-9.72v-11.73c0-2.47,1.68-4.67,4.09-5.34,24.86-6.93,51.49-6.93,76.36,0,2.41.67,4.09,2.87,4.09,5.34v11.75c0,3.84-1.9,7.44-4.97,9.39-2.69,1.71-5.79,2.62-8.97,2.62Zm-30.48-15.63h4.31c3.44,0,6.64,1.55,8.79,4.25l6.28,7.91c.37.46.91.72,1.5.72h9.61c2.66,0,5.25-.75,7.49-2.18,2.28-1.45,3.69-4.15,3.69-7.06v-11.75c0-1.24-.85-2.34-2.07-2.68-24.38-6.8-50.5-6.79-74.87,0-1.22.34-2.07,1.44-2.07,2.68v11.73c0,3.04,1.58,5.85,4.12,7.35,2.14,1.26,4.58,1.92,7.06,1.92h9.61c.59,0,1.14-.26,1.5-.72l6.27-7.91c2.14-2.7,5.35-4.25,8.79-4.25Z"/>
    <path class="cls-1" d="m17.19,111.05c-.35,0-.71-.13-.97-.4-.54-.54-.54-1.41,0-1.95l22.33-22.33c.54-.54,1.41-.54,1.95,0,.54.54.54,1.41,0,1.95l-22.33,22.33c-.27.27-.62.4-.97.4Z"/>
    <path class="cls-1" d="m69.11,108.74c-.35,0-.71-.13-.97-.4-.54-.54-.54-1.41,0-1.95l13.44-13.44c.54-.54,1.41-.54,1.95,0,.54.54.54,1.41,0,1.95l-13.44,13.44c-.27.27-.62.4-.97.4Z"/>
    <path class="cls-1" d="m74.67,111.05c-.35,0-.71-.13-.97-.4-.54-.54-.54-1.41,0-1.95l10.24-10.24c.54-.54,1.41-.54,1.95,0,.54.54.54,1.41,0,1.95l-10.24,10.24c-.27.27-.62.4-.97.4Z"/>
    <path class="cls-1" d="m24.95,111.05c-.35,0-.71-.13-.97-.4-.54-.54-.54-1.41,0-1.95l9.83-9.83c.54-.54,1.41-.54,1.95,0,.54.54.54,1.41,0,1.95l-9.83,9.83c-.27.27-.62.4-.97.4Z"/>
    <path class="cls-1" d="m47.8,98.51c-.35,0-.71-.13-.97-.4-.54-.54-.54-1.41,0-1.95l9.83-9.83c.54-.54,1.41-.54,1.95,0,.54.54.54,1.41,0,1.95l-9.83,9.83c-.27.27-.62.4-.97.4Z"/>
    <path class="cls-1" d="m55.74,98.51c-.35,0-.71-.13-.97-.4-.54-.54-.54-1.41,0-1.95l9.83-9.83c.54-.54,1.41-.54,1.95,0,.54.54.54,1.41,0,1.95l-9.83,9.83c-.27.27-.62.4-.97.4Z"/>
    <path class="cls-1" d="m13.7,99.88c-.35,0-.71-.13-.97-.4-.54-.54-.54-1.41,0-1.95l7.65-7.65c.54-.54,1.41-.54,1.95,0,.54.54.54,1.41,0,1.95l-7.65,7.65c-.27.27-.62.4-.97.4Z"/>
    <path class="cls-1" d="m4.31,81.01c-.87,0-1.74-.26-2.47-.78C.69,79.43,0,78.11,0,76.7v-15.72c0-1.78,1.11-3.41,2.76-4.04h0c30.16-11.52,63.39-11.52,93.55,0,1.65.63,2.76,2.26,2.76,4.04v15.72c0,1.41-.69,2.73-1.84,3.53-1.15.81-2.62,1-3.94.52-28.22-10.23-59.3-10.23-87.53,0-.48.17-.97.26-1.47.26Zm-.56-21.5c-.59.23-.99.81-.99,1.46v15.72c0,.51.24.98.66,1.27.42.29.93.36,1.42.19,28.83-10.45,60.58-10.45,89.41,0,.49.17,1,.11,1.42-.19.42-.29.66-.76.66-1.27v-15.72c0-.65-.4-1.24-.99-1.46-29.53-11.28-62.05-11.27-91.58,0h0Z"/>
    <path class="cls-1" d="m49.54,28.56c-7.88,0-14.28-6.41-14.28-14.28S41.67,0,49.54,0s14.28,6.41,14.28,14.28-6.41,14.28-14.28,14.28Zm0-25.8c-6.35,0-11.52,5.17-11.52,11.52s5.17,11.52,11.52,11.52,11.52-5.17,11.52-11.52-5.17-11.52-11.52-11.52Z"/>
    <path class="cls-1" d="m47.5,22c-.14,0-.28-.02-.42-.06-3.34-1.06-5.59-4.14-5.59-7.66,0-3.07,1.7-5.82,4.45-7.18.68-.34,1.51-.06,1.85.62.34.68.06,1.51-.62,1.85-1.8.89-2.92,2.7-2.92,4.71,0,2.31,1.47,4.33,3.66,5.03.73.23,1.13,1.01.9,1.73-.19.59-.73.96-1.31.96Z"/>
    <path class="cls-1" d="m6.14,58.55c-.13,0-.25-.02-.38-.05-.73-.21-1.15-.97-.94-1.71,4.85-16.86,17.71-30.15,34.4-35.56.73-.23,1.5.16,1.74.89.23.72-.16,1.5-.89,1.74-15.82,5.12-28,17.72-32.6,33.7-.17.6-.73,1-1.32,1Z"/>
    <path class="cls-1" d="m17.6,48.73c-.27,0-.53-.08-.77-.24-.63-.42-.8-1.28-.37-1.91,5-7.43,11.87-13.49,19.85-17.54.68-.34,1.51-.07,1.85.61.34.68.07,1.51-.61,1.85-7.57,3.83-14.07,9.58-18.81,16.62-.27.4-.7.61-1.14.61Z"/>
    <path class="cls-1" d="m93.08,58.55c-.6,0-1.15-.39-1.32-1-4.61-16.03-16.84-28.63-32.71-33.72-.73-.23-1.12-1.01-.89-1.73s1.01-1.12,1.73-.89c16.75,5.37,29.65,18.67,34.52,35.59.21.73-.21,1.5-.94,1.71-.13.04-.25.05-.38.05Z"/>
  </g>
  <path class="cls-1" d="m13.75,77.9c-.21,0-.42-.05-.62-.15-2.07-1.03-3.11-4.84-3.11-11.32,0-11.1,1.49-12.61,2.96-12.63h.02c.75,0,1.37.61,1.38,1.36,0,.49-.24.92-.62,1.17-.21.42-.97,2.47-.97,10.1s1.58,8.85,1.6,8.86c.68.34.95,1.17.61,1.85-.24.48-.73.76-1.24.76Zm-.74-21.33h0,0Zm0,0h0Zm0,0h0Z"/>
  <path class="cls-1" d="m25.25,74.85c-.21,0-.42-.05-.62-.15-2.07-1.03-3.11-4.84-3.11-11.32,0-11.1,1.49-12.61,2.96-12.63h.02c.75,0,1.37.61,1.38,1.36,0,.49-.24.92-.62,1.17-.21.42-.97,2.47-.97,10.1s1.58,8.85,1.6,8.86c.68.34.95,1.17.61,1.85-.24.48-.73.76-1.24.76Zm-.74-21.33h0,0Zm0,0h0Zm0,0h0Z"/>
  <path class="cls-1" d="m37.12,73.35c-.21,0-.42-.05-.62-.15-2.07-1.03-3.11-4.84-3.11-11.32,0-11.1,1.49-12.61,2.96-12.63h.02c.75,0,1.37.61,1.38,1.36,0,.49-.24.92-.62,1.17-.21.42-.97,2.47-.97,10.1s1.58,8.85,1.6,8.86c.68.34.95,1.17.61,1.85-.24.48-.73.76-1.24.76Zm-.74-21.33h0,0Zm0,0h0Zm0,0h0Z"/>
  <path class="cls-1" d="m84.37,77.9c-.51,0-.99-.28-1.23-.76-.34-.68-.06-1.51.62-1.85,0,0,1.59-1.21,1.59-8.85s-.76-9.67-.97-10.1c-.38-.25-.62-.68-.62-1.17,0-.76.62-1.36,1.38-1.36h.02c1.46.02,2.96,1.53,2.96,12.63,0,6.48-1.05,10.29-3.11,11.32-.2.1-.41.15-.62.15Zm.74-21.33h.01-.01Zm0,0h0,0Zm0,0h0Zm0,0h0Z"/>
  <path class="cls-1" d="m72.87,74.85c-.51,0-.99-.28-1.23-.76-.34-.68-.06-1.51.62-1.85,0,0,1.59-1.21,1.59-8.85s-.76-9.67-.97-10.1c-.38-.25-.62-.68-.62-1.17,0-.76.62-1.36,1.38-1.36h.02c1.46.02,2.96,1.53,2.96,12.63,0,6.48-1.05,10.29-3.11,11.32-.2.1-.41.15-.62.15Zm.74-21.33h.01-.01Zm0,0h0,0Zm0,0h0Zm0,0h0Z"/>
  <path class="cls-1" d="m61.66,73.35c-.51,0-.99-.28-1.23-.76-.34-.68-.06-1.51.62-1.85,0,0,1.59-1.21,1.59-8.85s-.76-9.67-.97-10.1c-.38-.25-.62-.68-.62-1.17,0-.76.62-1.36,1.38-1.36h.02c1.46.02,2.96,1.53,2.96,12.63,0,6.48-1.05,10.29-3.11,11.32-.2.1-.41.15-.62.15Zm.74-21.33h.01-.01Zm0,0h0,0Zm0,0h0Zm0,0h0Z"/>
  <path class="cls-1" d="m49.54,71.69c-.73,0-1.33-.59-1.33-1.33v-19.72c0-.73.59-1.33,1.33-1.33s1.33.59,1.33,1.33v19.72c0,.73-.59,1.33-1.33,1.33Z"/>
</svg>