<?xml version="1.0" encoding="UTF-8"?>
<svg id="Layer_1" data-name="Layer 1" xmlns="http://www.w3.org/2000/svg" viewBox="0 0 152.34 130.88">
  <defs>
    <style>
      .cls-1 {
        fill: #a4a4a4;
        stroke-width: 0px;
      }
    </style>
  </defs>
  <g>
    <path class="cls-1" d="m66.26,76.49c-.38,0-.76-.08-1.09-.23-.59-.26-1.06-.66-1.5-1.05-.13-.12-.27-.23-.4-.34-2.54-2.07-6.15-2.29-8.99-2.26-.59,0-1.18.03-1.77.04-2.74.08-5.57.17-8.25-.69-2.37-.76-4.64-2.26-6.94-4.58-.05.24-.17.43-.37.58-1.91,1.5-8.71-4.71-10.06-5.97-4.59-4.3-5.66-6.02-5.55-7.84-2.39-1.33-4.31-2.62-4.72-3.94-.13-.41-.11-.82.05-1.2.08-.69.84-1.31,2.04-2.18-.16-2.12-1.24-3.93-2.37-5.84l-.22-.36c-2.23-3.76-4.34-7.67-6.29-11.61-2.64-5.34-5.06-11.12-4.96-17.11.07-3.98,1.23-7.79,2.35-11.47.05-.16.16-.3.31-.37.15-.08.33-.08.49-.03,1.16.42,1.58,1.37,1.96,2.2.1.22.19.44.28.66.26.63.5,1.22.89,1.7.54.66,1.35,1.07,2.21,1.5.91.46,1.85.94,2.56,1.76.56.65.88,1.42,1.19,2.17.34.82.67,1.6,1.27,2.1.53.45,1.26.65,2.02.87.75.21,1.52.43,2.2.89.83.57,1.36,1.38,1.88,2.17.27.41.53.81.82,1.16.85,1.01,2.05,1.71,3.21,2.38l3.08,1.78c.79.46,1.56.9,2.31,1.41l.22.15c.77.52,1.57,1.06,2.21,1.8l.11.12c.21.24.42.49.61.74,2.24-1.46,4.76-2.87,7.61-4.28,8.41-4.15,15.31-5.95,21.72-5.63.35.02,1.17.05,1.6.7.57.87-.07,1.87-.9,2.43-.29.19-.59.37-.9.55-.45.26-.88.51-1.25.81-.64.51-1.01,1.14-1.01,1.71,0,.56.34,1.12.69,1.7.4.66.84,1.4.87,2.28.04,1.35-.89,2.36-1.71,3.25-.74.8-1.43,1.56-1.37,2.41.03.42.26.85.5,1.3.27.5.54,1.02.63,1.63.22,1.56-.89,2.86-1.74,3.7l-.21.21c-.75.74-1.53,1.5-1.69,2.41-.07.36-.03.76,0,1.18.03.34.05.68.03,1.04-.05,1.11-.69,2.27-1.79,2.34-.16,0-.32.01-.49.02,1.69.99,3.28,2.13,4.85,3.26.58.42,2.34,1.68,1.88,3.36-.07.24-.17.46-.27.65-.11.22-.21.43-.19.56.03.17.29.32.69.52.45.23.96.48,1.26,1,.5.85.08,1.7-.25,2.39-.21.43-.41.84-.39,1.19.03.46.42.8,1.05,1.3.55.44,1.18.95,1.46,1.7.44,1.17-.15,2.23-.66,3.17-.31.56-.6,1.09-.69,1.62-.09.53.03,1.1.15,1.7.07.33.13.66.17,1,.1.86-.06,1.99-.8,2.67.46.56,1.01,1.11,1.67,1.66.63.53.93,1.84.38,2.6-.4.55-1.03.78-1.66.78Zm-11.45-5.12c2.97,0,6.56.35,9.24,2.54.15.12.29.24.43.37.4.34.77.67,1.19.85.42.18,1.02.18,1.26-.15.12-.16.03-.77-.17-.94-.77-.66-1.41-1.3-1.95-1.98-.17-.22-.25-.5-.22-.78.04-.28.18-.52.4-.69.36-.28.56-.97.47-1.68-.03-.3-.1-.6-.16-.89-.14-.69-.29-1.4-.16-2.15.12-.73.48-1.38.82-2,.44-.81.83-1.51.59-2.15-.16-.44-.61-.79-1.08-1.17-.68-.54-1.45-1.15-1.51-2.18-.04-.67.25-1.27.51-1.81.28-.59.45-.96.29-1.23-.12-.2-.44-.36-.75-.52-.55-.27-1.23-.62-1.36-1.42-.08-.52.13-.95.3-1.3.07-.14.14-.28.18-.42.15-.56-.32-1.25-1.41-2.03-2.23-1.61-4.53-3.26-7.05-4.39-2.35-.15-5.53-.28-10.24.48-2.16.35-4.69.83-6.91,1.25-7.47,1.42-8.01,1.46-8.26.66-.21-.68.53-1.04,1.75-1.56,3.37-1.44,7.02-2.52,10.84-3.21,4.23-.76,8.06-.6,11.36.48.6.2,1.19.42,1.76.67.11,0,.22.01.33.02,1.04.07,1.94.13,2.71.08.34-.02.6-.63.63-1.17.01-.3,0-.59-.03-.89-.04-.48-.08-.98.02-1.5.23-1.3,1.19-2.24,2.04-3.07l.21-.21c1.05-1.04,1.49-1.88,1.38-2.65-.06-.4-.27-.8-.5-1.22-.28-.52-.59-1.1-.64-1.78-.11-1.39.85-2.43,1.69-3.34.73-.79,1.41-1.53,1.39-2.38-.02-.55-.35-1.1-.69-1.68-.41-.67-.87-1.44-.87-2.34,0-1.29.92-2.23,1.47-2.67.45-.36.94-.64,1.41-.92.28-.16.56-.33.83-.51.4-.27.62-.63.56-.73-.03-.05-.15-.13-.62-.15-6.19-.29-12.91,1.45-21.12,5.51-2.83,1.4-5.32,2.79-7.53,4.23.27.72.22,1.51-.55,2.43-.8.96-2.17,1.66-3.76,2.47-1.44.74-3.11,1.59-4.78,2.84-2.91,3.37-4.97,7.07-6.04,10.88-.02.07-.05.14-.1.2-.22.31-.44.5-.63.62.1.05.19.1.27.15,1.37.93,1.49,3.51,1.14,5.26,3.57,1.79,6.25,4.9,8.83,7.9l.87,1c.15.17.3.35.45.52.86.87,1.63,1.76,2.4,2.88.78.92,1.58,1.84,2.43,2.7,2.17,2.18,4.28,3.58,6.45,4.28,2.48.79,5.2.72,7.84.63.6-.02,1.2-.04,1.79-.04.18,0,.37,0,.55,0Zm-32.21-16.54c.24,1.26,1.45,2.82,5.12,6.26,4.77,4.47,7.6,5.86,8.38,5.89-.03-.14-.11-.42-.38-.89-.32-.57-.64-1.08-.96-1.54-.35-.41-.69-.83-1.03-1.23-.43-.51-.85-1.03-1.29-1.54-.57-.58-1.17-1.14-1.84-1.76-.41-.38-.84-.79-1.3-1.23-.99-.95-3.22-2.12-5.38-3.25-.45-.24-.89-.47-1.33-.7Zm.07-1.36c.62.33,1.24.66,1.83.97.87.46,1.73.91,2.52,1.34-1.27-1.2-2.63-2.26-4.14-3.06,0,0,0,.02,0,.02-.07.26-.14.5-.2.72Zm-4.23-2.73c.7.66,1.85,1.39,3.12,2.11.04-.15.08-.3.12-.45.02-.08.04-.15.07-.23-.97-.45-1.79-.79-2.49-1.08-.3-.12-.58-.24-.82-.35Zm-.53-1.65c.24.21,1.04.54,1.82.86.65.27,1.41.59,2.3,1,.22-1.46.01-3.22-.68-3.69-.5-.34-1.3.1-1.88.52-.34.25-1.34.97-1.56,1.31Zm28.97-5.47c-1.53,0-3.14.15-4.81.45-3.09.56-6.07,1.38-8.87,2.44,1.25-.22,2.71-.5,4.09-.76,2.23-.42,4.76-.91,6.95-1.26,2.39-.38,4.39-.55,6.1-.6-1.1-.19-2.25-.28-3.45-.28ZM8.15,1.56c-1.02,3.37-2,6.84-2.06,10.38-.1,5.73,2.26,11.34,4.83,16.55,1.93,3.91,4.03,7.79,6.24,11.53l.21.36c1.11,1.87,2.17,3.65,2.48,5.79.26-.11.5-.18.73-.21-.57-.67-.28-2.22.17-3.22,1.86-4.5,4.42-7.3,6.93-9.21.86-.99,1.79-1.95,2.78-2.87,1.65-1.53,3.47-2.98,5.52-4.37-.14-.18-.32-.39-.51-.62l-.11-.13c-.53-.62-1.22-1.09-1.96-1.58l-.22-.15c-.71-.48-1.46-.92-2.2-1.34l-3.11-1.8c-1.2-.69-2.56-1.48-3.54-2.66-.34-.41-.63-.85-.91-1.27-.47-.72-.91-1.39-1.54-1.82-.52-.35-1.16-.53-1.84-.73-.86-.24-1.74-.49-2.48-1.11-.83-.7-1.22-1.65-1.61-2.57-.29-.69-.56-1.34-.99-1.85-.54-.64-1.34-1.04-2.18-1.46-.93-.47-1.9-.96-2.6-1.82-.5-.62-.8-1.32-1.08-2.01-.09-.21-.17-.42-.26-.62-.25-.55-.44-.92-.69-1.18Zm13.69,41.75c-.08.2-.15.39-.2.58.06-.19.13-.39.2-.58Zm14.7-15.92c-1.6,1.1-3.05,2.22-4.39,3.39.21-.11.41-.21.61-.31,1.46-.75,2.73-1.4,3.37-2.17.29-.34.42-.62.4-.91Z"/>
    <path class="cls-1" d="m18.92,47.83c-.2,0-.41-.04-.61-.12-1.46-.59-2.44-3.3-3.58-6.43-.96-2.63-2.15-5.91-3.33-6.3-.15-.05-.36-.08-.69.15-.28.19-.67.11-.85-.17-.19-.28-.11-.67.17-.85.72-.48,1.36-.43,1.76-.3,1.75.57,2.89,3.72,4.1,7.05.86,2.37,1.94,5.33,2.89,5.71.12.05.22.04.34-.02.3-.15.67-.03.82.28.15.3.02.67-.28.82-.24.12-.49.18-.74.18Z"/>
    <path class="cls-1" d="m18.34,48.02c-1.84,0-4.08-2.33-6.6-4.96-2.64-2.75-5.63-5.87-7.15-4.79-.28.2-.66.13-.86-.15-.2-.28-.13-.66.15-.86,2.38-1.68,5.61,1.69,8.74,4.95,2.18,2.27,4.89,5.09,6.08,4.49.3-.16.67-.03.83.27.16.3.04.67-.27.83-.3.15-.61.22-.93.22Z"/>
  </g>
  <g>
    <path class="cls-1" d="m115.54,50.44c-.08,0-.16-.02-.24-.05-.98-.41-1.03-1.61-1.07-2.58-.01-.24-.02-.47-.05-.67l.61-.11-.61.08c-.28-2.04,0-4.09.83-5.91,4.04-8.91,9.38-16.02,15.87-21.13,3.68-2.89,6.85-4.24,9.98-4.24h.03c3.02,0,6.15,1.33,9.3,3.91,1.72,1.41,2.41,2.81,2.07,4.17-.44,1.73-2.3,2.39-3.88,2.77l-4.21,1.02c-.75.18-1.11.33-1.22.76-.07.26-.02.55.13.82.31.55.85.92,1.42,1.3.58.39,1.18.8,1.63,1.44.38.54.52,1.19.39,1.78-.24,1.07-1.16,1.44-1.84,1.71l-.29.12c-2.21.95-3.44,3.86-2.58,6.11.05.12.1.25.15.37.23.55.5,1.17.38,1.91-.08.53-.38.97-.82,1.21-.69.37-1.3.1-1.75-.09-.18-.08-.35-.15-.5-.18-.26-.04-.47.1-.61.23-.3.28-.48.76-.44,1.17.04.46.25.92.64,1.47.25.34.25.79,0,1.14-.25.35-.67.5-1.08.37-2.3-.68-4.57-1.12-6.98-1.59l-1.01-.2c-2.17-.42-4.72-.83-7.2-.59-2.11.2-4.71,1.5-6.61,3.31-.12.11-.27.17-.42.17Zm-.14-3.49s0,.03,0,.04c.03.22.04.49.06.78.01.33.04.85.13,1.19,2.04-1.76,4.67-3,6.87-3.21,2.63-.25,5.29.17,7.55.61l1.01.2c2.22.43,4.33.84,6.46,1.44-.29-.51-.45-1-.5-1.5-.08-.78.24-1.64.82-2.18.47-.45,1.06-.64,1.65-.55.3.05.56.16.79.26.4.17.54.21.68.14.1-.05.17-.17.19-.32.06-.4-.11-.79-.3-1.24-.06-.14-.12-.28-.17-.42-1.1-2.88.42-6.46,3.25-7.68l.32-.13c.62-.25,1.01-.42,1.1-.83.06-.25-.02-.55-.2-.81-.32-.46-.8-.78-1.31-1.13-.63-.43-1.35-.91-1.8-1.72-.31-.55-.39-1.16-.25-1.73.31-1.21,1.45-1.49,2.12-1.65l4.21-1.02c1.24-.3,2.7-.78,2.97-1.87.27-1.06-.75-2.17-1.66-2.91-2.93-2.4-5.79-3.63-8.52-3.63h-.02c-2.84,0-5.77,1.26-9.22,3.98-6.33,4.98-11.55,11.94-15.51,20.67-.73,1.61-.98,3.42-.73,5.24Zm22.44,1.59h0Z"/>
    <path class="cls-1" d="m139.61,72.72s-.08,0-.13,0c-1.81-.05-3.47-.99-4.8-1.74-6.35-3.59-11.24-9.61-15.56-14.92h0c-.69-.85-1.22-1.75-1.74-2.63-.68-1.16-1.33-2.25-2.28-3.16-.19-.18-.24-.47-.13-.71.89-1.83,3-2.54,4.51-2.91,7.66-1.87,14.99-1.03,20.12,2.31,1.09.71,2.33,1.51,3.17,2.71.99,1.4,1.18,3.12.47,4.38-.08.15-.18.29-.28.43-.14.21-.28.41-.33.6-.13.5.26,1.06.67,1.65.13.19.26.37.37.56.78,1.26.91,2.74.33,3.87-.15.29-.33.53-.51.77-.19.25-.37.49-.47.74-.27.68-.02,1.44.27,2.33.27.83.56,1.7.43,2.62-.28,1.96-2.29,3.1-4.12,3.1Zm-19.53-17.44c4.46,5.48,9.06,11.14,15.21,14.62,1.27.72,2.72,1.54,4.22,1.58.03,0,.06,0,.09,0,1.28,0,2.73-.8,2.9-2.04.09-.64-.14-1.33-.38-2.06-.32-.97-.68-2.08-.24-3.17.16-.39.39-.71.62-1.01.14-.2.29-.39.4-.6.38-.73.27-1.77-.28-2.65-.1-.17-.22-.33-.34-.5-.5-.72-1.13-1.63-.85-2.67.1-.39.32-.7.5-.98.08-.11.15-.22.22-.34.54-.96.19-2.23-.4-3.07-.71-1-1.79-1.7-2.84-2.39-4.84-3.16-11.82-3.94-19.15-2.15-1.77.43-2.89,1.04-3.48,1.88.89.95,1.53,2.03,2.15,3.08.49.83,1,1.7,1.63,2.47h0Z"/>
    <path class="cls-1" d="m107.94,54.88c-.07,0-.13,0-.2,0l-.29-.05s-.04,0-.06-.01c-1.52-.39-3.09-.79-4.33-1.69-1.2-.87-1.85-2.12-1.82-3.41-1,.05-1.92-.23-2.65-.78-.72-.54-1.15-1.3-1.22-2.15-.03-.35,0-.69.03-1.02.03-.32.06-.62.03-.88-.09-.78-.73-1.39-1.41-2.03-.22-.21-.44-.42-.65-.64-.88-.93-1.23-2.46-.42-3.82-4.98-2.84-8.28-7.09-9.31-12.03-.11-.55-.38-1.84.99-2.76.45-.31,1.02-.51,1.62-.59,1.18-.15,2.11.19,2.94.58,1.99.93,3.64,2.13,4.99,3.18,5.82,4.54,10.65,10.08,14.36,16.48,1.06,1.82,1.6,3.71,1.65,5.78,0,.05,0,.11.01.16.04.4.03.96-.53,1.43-.23.19-.48.32-.7.44-.13.07-.26.14-.38.22-.38.25-.66.65-.72,1.01-.03.14-.02.27-.03.41,0,.14,0,.28-.02.42-.05.51-.25.94-.58,1.25-.34.32-.82.5-1.32.5Zm-.27-1.27l.23.04c.13,0,.38-.03.52-.17.14-.13.18-.32.19-.47.01-.11.01-.21.01-.32,0-.2,0-.4.04-.61.12-.7.59-1.37,1.25-1.82.15-.1.32-.19.48-.28.19-.1.36-.2.49-.31.08-.06.12-.1.09-.34,0-.08-.02-.17-.02-.26-.05-1.88-.52-3.53-1.49-5.2-3.63-6.26-8.36-11.69-14.05-16.13-1.3-1.01-2.88-2.16-4.76-3.04-.79-.37-1.45-.58-2.27-.48-.4.05-.78.19-1.08.38-.58.39-.61.81-.47,1.49,1,4.78,4.3,8.87,9.3,11.54.17.09.29.25.32.44s-.02.38-.15.52c-.9.98-.66,2.12-.05,2.76.19.2.39.39.6.59.77.73,1.65,1.55,1.79,2.78.04.39.01.77-.02,1.13-.03.29-.05.57-.03.82.05.62.42,1.03.73,1.26.64.48,1.58.65,2.51.45.22-.05.43.02.58.18s.2.38.15.58c-.29,1.09.16,2.19,1.22,2.96,1.05.76,2.49,1.13,3.89,1.49Z"/>
    <path class="cls-1" d="m125.99,78.21c-.19,0-.38-.02-.57-.06-.78-.17-1.4-.63-1.9-1.06-1.21-1.04-2.23-2.28-3.03-3.69-.13-.23-.29-.51-.43-.53-.09-.02-.26.03-.41.07-.12.03-.24.06-.36.08-1.24.22-2.39-.52-3-1.92-.15-.35-.27-.73-.39-1.1-.18-.58-.36-1.13-.66-1.54-.46-.62-1.24-.99-2.07-1.39-1.07-.51-2.17-1.03-2.73-2.16-.33-.67-.4-1.41-.46-2.13-.06-.7-.12-1.37-.42-1.81-.22-.31-.6-.57-1.01-.83-.67-.44-1.44-.95-1.63-1.91-.2-.97.28-1.88.74-2.77.25-.48.49-.93.6-1.35.15-.56.09-1.13.02-1.72-.03-.3-.07-.61-.07-.91-.04-1.38.55-2.56,1.56-3.16,1.14-.68,2.46-.4,3.2.15.6.45,1.18,1.02,1.67,1.65.32.42.57.87.81,1.3l.08.15c.38.67.79,1.33,1.2,1.99l1.96,3.18c.58.95,1.17,1.91,1.76,2.88.59.98,1.19,1.97,1.78,2.97.6,1,1.19,2.02,1.79,3.04.6,1.03,1.2,2.07,1.79,3.13.6,1.06,1.2,2.14,1.79,3.23l.42.78c.3.56.68,1.26.77,2.08.11.97-.22,1.96-.87,2.59-.51.5-1.21.77-1.93.77Zm-5.97-6.56c.06,0,.13,0,.2.01.74.1,1.1.72,1.33,1.14.73,1.28,1.66,2.41,2.77,3.36.4.34.84.68,1.35.79.37.08.96.03,1.39-.39.37-.36.57-.98.5-1.57-.07-.59-.36-1.12-.63-1.64h0s-.42-.77-.42-.77c-.59-1.08-1.18-2.16-1.78-3.21-.59-1.05-1.19-2.09-1.78-3.11-.59-1.02-1.19-2.03-1.78-3.03-.59-1-1.18-1.98-1.78-2.96-.58-.97-1.17-1.93-1.75-2.88l-1.96-3.17c-.42-.68-.84-1.35-1.23-2.04l-.08-.15c-.23-.41-.45-.8-.71-1.14-.42-.54-.92-1.04-1.43-1.42-.44-.33-1.21-.46-1.84-.08-.74.44-.98,1.36-.96,2.07,0,.27.04.54.07.81.07.65.15,1.39-.06,2.18-.15.55-.43,1.09-.7,1.6-.38.73-.74,1.42-.63,1.95.09.46.56.77,1.1,1.12.46.3.98.65,1.34,1.16.5.71.57,1.58.64,2.41.05.63.1,1.22.33,1.68.37.75,1.24,1.16,2.16,1.6.93.44,1.89.9,2.53,1.77.42.58.64,1.25.85,1.9.11.33.21.67.35.98.14.33.67,1.37,1.66,1.2.09-.02.18-.04.27-.06.21-.05.44-.11.68-.11Z"/>
    <path class="cls-1" d="m114.97,49.63c-.23,0-.46-.13-.56-.36-.59-1.29-.53-2.81-.47-4.28.08-1.92.15-3.57-1.15-4.39-.65-.41-1.16-.18-1.29-.07-.46.41-.75,1-.8,1.61-.05.68.02,1.31.19,1.82.11.32-.06.67-.38.78-.32.11-.67-.06-.78-.38-.29-.85-.3-1.73-.26-2.32.07-.94.5-1.8,1.2-2.43.56-.5,1.67-.74,2.76-.06,1.91,1.2,1.82,3.38,1.73,5.48-.06,1.32-.12,2.69.35,3.71.14.31,0,.67-.3.82-.08.04-.17.06-.26.06Z"/>
    <path class="cls-1" d="m120.04,60.83c-.15,0-.29-.05-.41-.16-.25-.23-.28-.61-.05-.87.24-.27.19-.84.04-1.29-.54-1.58-1.2-3.12-1.96-4.59-.16-.3-.04-.67.26-.83.3-.16.67-.04.83.26.79,1.52,1.47,3.12,2.03,4.76.34.99.23,1.92-.29,2.51-.12.14-.29.21-.46.21Z"/>
    <path class="cls-1" d="m110.37,41.55c-.2,0-.4-.1-.51-.28-1.59-2.41-2.31-5.22-3.02-7.93-.53-2.03-1.07-4.12-1.97-6-.51-1.07-1.04-1.85-1.65-2.45-.72-.71-1.59-1.14-2.43-1.22-.34-.03-.59-.33-.55-.67.03-.34.34-.58.67-.55,1.12.11,2.25.66,3.17,1.56.72.7,1.33,1.59,1.9,2.8.95,1.98,1.5,4.14,2.04,6.22.71,2.74,1.38,5.32,2.86,7.57.19.28.11.67-.18.85-.1.07-.22.1-.34.1Z"/>
    <path class="cls-1" d="m112.44,40.29c-.32,0-.59-.25-.61-.58-.36-6.27-.74-12.75-3.09-18.65-.13-.32.03-.67.34-.8.31-.13.67.03.8.34,2.43,6.09,2.81,12.67,3.17,19.04.02.34-.24.63-.58.65-.01,0-.02,0-.04,0Z"/>
  </g>
  <g>
    <path class="cls-1" d="m77.1,130.88c-.07,0-.15,0-.22-.02-.01,0-.09-.02-.1-.02-.47-.11-.89-.42-1.15-.84-.02,0-.04.02-.06.03l-.16.09c-.21.13-.5.3-.88.31-.27.02-.56-.1-.76-.19-.08-.03-.2-.09-.24-.09-.02,0-.1.04-.15.06-.12.06-.25.11-.38.14-.46.11-.97-.02-1.41-.37-.23-.18-.41-.4-.56-.59l-.15-.18c-.2-.23-.29-.24-.29-.24-.01.01-.09.02-.26.11-.25.14-.48.27-.78.31-.45.07-.91-.14-1.17-.52-1.01-1.48-1.52-3.34-1.43-5.16-1.52,1.68-3.52,3.14-7.38,2.87-1.63-.11-2.96-.78-4.24-1.43-.31-.15-.62-.31-.94-.46-1.14-.61-2.17-1.3-3.39-2.14-1.9-1.58-4-3.43-5.31-5.87-.13-.24-.08-.54.11-.73,1.43-1.43,3.22-2.52,5.17-3.18.02,0,.04-.01.06-.02.07-.02.14-.04.2-.07,3.84-1.8,10.48-1.4,15.96.87.01-.02.02-.05.04-.07.01-.03.03-.06.05-.09-.3-.11-.55-.3-.73-.55-.2-.29-.3-.64-.29-1.06,0-.45.14-.9.36-1.29-.1-.16-.17-.33-.22-.51-.08-.32-.1-.66-.04-1.06.08-.55.27-1.04.45-1.52l.04-.1c.17-.45.33-.89.36-1.32.03-.41-.07-.77-.27-.99-.23-.25-.2-.64.05-.87.25-.23.64-.21.87.05.43.48.63,1.15.58,1.9-.04.6-.24,1.15-.43,1.67l-.04.1c-.16.43-.32.84-.38,1.25-.02.16-.03.3-.01.42.02,0,.04-.02.05-.03.54-.31,1.15-.4,1.67-.25.22.06.44.18.63.34.04.04.08.08.11.12.04.03.08.07.12.12.11.14.2.29.25.46.05-.03.1-.06.16-.09.02-.01.05-.02.07-.03-2.25-5.48-2.64-12.11-.83-15.96.02-.06.05-.12.07-.19,0-.02,0-.03.01-.05.66-1.97,1.76-3.76,3.2-5.19.19-.19.49-.24.73-.11,2.45,1.32,4.29,3.42,5.83,5.29.9,1.3,1.56,2.31,2.15,3.41.81,1.72,1.43,3.23,1.88,5.11.4,2.33-1,4.15-2.22,5.77l-.14.18c-.23.3-.46.56-.68.81-.24.27-.46.52-.66.8,2.07-.31,4.28.18,5.99,1.36.38.26.58.71.52,1.17-.04.3-.18.54-.29.74-.12.21-.14.27-.13.3,0,0,0,.09.24.29l.19.16c.19.16.4.34.58.56.35.44.48.95.37,1.41-.03.13-.08.25-.14.37-.02.05-.06.13-.06.16,0,.04.05.16.09.24.09.2.2.46.19.77-.01.37-.18.66-.32.88l-.09.15s-.02.04-.03.06c.39.22.73.66.84,1.16,0,.01.02.09.02.11.07.38-.06.8-.35,1.09-.29.29-.71.43-1.12.35-.27-.05-.6,0-.95.11-.3.1-.58.24-.87.38-.25.12-.5.24-.75.34-.52.21-.97.21-1.39.2-1.19-.06-2.31-.52-3.16-1.3-.45-.41-.76-.96-1.07-1.5-.14-.24-.27-.49-.42-.7-.27-.4-.8-.55-1.24-.34-.26.12-.5.23-.73.32-.15.29-.33.58-.55.86-.05.07-.06.21-.06.31,0,.45.5.76,1.32,1.23.54.3,1.09.62,1.49,1.07.77.86,1.23,1.98,1.29,3.16.02.39.01.86-.2,1.39-.1.26-.22.5-.35.75-.14.28-.28.57-.38.87-.12.34-.16.68-.11.94.07.41-.06.83-.36,1.12-.24.24-.56.36-.88.36Zm-1.4-2.13c.32,0,.61.12.82.36,0,0,.06.07.06.08.03.04.06.08.08.13.07.16.23.29.41.33-.05-.63.09-1.21.22-1.59.12-.36.29-.69.44-1.01.11-.22.22-.44.31-.67.12-.29.13-.55.12-.87-.04-.9-.39-1.75-.97-2.39-.27-.3-.74-.57-1.19-.82-.91-.52-1.95-1.11-1.95-2.3,0-.23.03-.44.09-.62-.63.09-1.04-.02-1.44-.24-1.37-1.01-2.78-2.55-3.68-3.79-.18.44-.65.67-1.1.53-.41-.13-.7-.42-.84-.8-.03-.09-.06-.18-.08-.27-5.17-2.21-11.66-2.67-15.23-1-.12.05-.24.1-.36.13,0,0,0,0,0,0-1.63.54-3.14,1.42-4.38,2.57,1.22,2.06,3.08,3.69,4.74,5.07,1.14.79,2.14,1.45,3.2,2.02.3.14.62.3.93.46,1.23.62,2.39,1.21,3.77,1.3,4.23.28,5.81-1.69,7.48-3.79.01-.02.03-.03.04-.05,0-.09-.01-.18-.02-.27-.03-.22-.02-.45.02-.66.12-.57.49-1.05.99-1.27.43-.18.75-.1.96,0,.16.08.3.2.39.36.11.19.3.69-.26,1.28-.29.31-.56.64-.84.99,0,.26-.04.52-.09.76-.39,1.87.01,3.91,1.08,5.47.05-.01.17-.08.27-.14.31-.18.63-.3.96-.3.62.02,1.03.5,1.17.66l.17.2c.13.16.26.31.39.42.12.1.26.15.35.13.05-.01.1-.04.15-.06.13-.06.32-.15.54-.17.35-.03.63.09.84.18.08.04.21.09.25.09h0s.19-.08.27-.14c.07-.04.14-.08.21-.12.24-.13.48-.19.71-.19Zm1.33-11.57c.72,0,1.41.35,1.84.98.17.25.32.52.47.79.25.45.52.92.82,1.19.64.58,1.49.93,2.39.98.32.01.58,0,.87-.11.23-.09.45-.2.67-.31.32-.16.65-.32,1.01-.44.54-.18,1.08-.24,1.56-.15,0-.23-.14-.39-.3-.47-.05-.02-.09-.05-.13-.08-.48-.41-.55-1.02-.24-1.59.03-.06.07-.13.11-.2.06-.09.14-.23.14-.28,0-.04-.05-.17-.09-.25-.09-.21-.21-.5-.18-.85.02-.23.1-.4.17-.54.02-.05.05-.1.06-.15.02-.07-.02-.2-.13-.35-.1-.13-.25-.26-.41-.39l-.21-.18c-.15-.13-.63-.55-.66-1.17-.01-.35.12-.65.27-.91.08-.15.15-.27.17-.34-1.57-1.06-3.63-1.46-5.52-1.06-.29.06-.59.1-.87.1-.26.29-.54.56-.83.83-.58.53-1.05.38-1.28.25-.15-.09-.27-.22-.36-.38-.1-.21-.18-.54,0-.96.22-.5.7-.88,1.27-.99.22-.04.44-.05.67-.02.21-.25.4-.51.59-.78.25-.35.51-.66.78-.95.2-.23.42-.47.62-.74l.14-.18c1.13-1.48,2.3-3.01,2-4.77-.41-1.74-1.01-3.18-1.77-4.8-.55-1.02-1.19-1.99-2.03-3.22-1.34-1.63-2.96-3.49-5.03-4.72-1.14,1.23-2.02,2.72-2.57,4.35h0c-.04.14-.08.26-.14.38-1.68,3.57-1.23,10.06.96,15.24.09.02.18.04.27.08.38.14.67.45.79.82.12.4-.02.79-.32,1.02,1.63,1.33,3.49,3.49,3.66,4.12.11.42.14.87.09,1.32.22-.07.45-.11.68-.11Zm-7.6-4.32c-.2.34-.12.55-.09.62.34.9,2.22,3.28,4.02,4.61.15.08.42.22,1.6-.23.2-.55.24-1.1.11-1.59-.29-.77-3.65-4.14-4.43-4.29-.13.02-.31.09-.49.19-.09.09-.18.19-.28.28-.15.14-.29.27-.44.39Zm-1.4,2.42h0,0Zm-.4-4.06c-.08.18-.13.38-.13.58,0,.15.02.27.07.34.05.08.18.13.31.13h0c.11,0,.23-.03.36-.09l.05-.05c.3-.32.59-.62.79-.97.03-.05.06-.11.09-.17-.17.08-.33.15-.5.19-.36.1-.71.11-1.03.03Zm4.71-.25s0,0,0,0c0,0,0,0,0,0Z"/>
    <path class="cls-1" d="m67.21,113.13c-.12,0-.23-.03-.34-.1-.28-.19-.36-.57-.17-.85.12-.19.24-.37.27-.52,0-.05,0-.09,0-.11,0,0-.07,0-.19.03-.23.04-.47.1-.71.16-.26.07-.52.14-.79.18-1.62.27-3.35-.37-4.41-1.63-.22-.26-.19-.65.07-.87.26-.22.65-.19.87.07.78.93,2.06,1.4,3.27,1.21.23-.04.46-.1.68-.16.28-.07.56-.14.84-.19.3-.04.68-.06,1.03.15.44.27.66.82.56,1.38-.07.4-.29.72-.46.98-.12.18-.31.28-.51.28Z"/>
    <path class="cls-1" d="m81.87,126.29c-.93,0-1.88-.3-2.75-.86-.91-.59-1.62-1.37-2.38-2.25-.59-.69-1.12-1.32-1.5-2.09-.41-.83-.56-1.7-.45-2.52.07-.44.41-.78.84-.84.81-.11,1.68.05,2.51.46.77.38,1.4.9,2.09,1.5.84.73,1.65,1.46,2.24,2.38.68,1.05.97,2.24.81,3.33-.03.21-.13.41-.29.57-.15.15-.34.24-.55.28-.19.03-.39.04-.59.04Zm.2-1.05s0,0,0,0c0,0,0,0,0,0Zm-6.08-6.29c-.04.64.16,1.22.35,1.61.31.64.79,1.21,1.32,1.83.7.81,1.34,1.52,2.11,2.02.74.48,1.56.71,2.3.65.06-.75-.17-1.56-.65-2.31-.51-.79-1.21-1.42-2.01-2.12-.62-.54-1.19-1.01-1.83-1.33-.39-.19-.96-.41-1.61-.36Zm-.19.02h0,0Z"/>
  </g>
  <g>
    <g>
      <path class="cls-1" d="m32.07,89s-.08,0-.12,0c-.24-.02-.46-.15-.58-.36-.15-.24-.15-.54,0-.78.06-.1.05-.31.05-.51-.01-.37-.03-.79.14-1.2.13-.31.4-.49.71-.49.37,0,.69.27.74.62h0c.12.76.04,1.52-.22,2.22-.12.31-.4.5-.71.5Z"/>
      <path class="cls-1" d="m20.86,89.27c-.06,0-.12,0-.19-.02-.33-.09-.54-.38-.56-.69-.02-.07-.03-.14-.03-.21l-.02-.96c0-.34.04-.77.34-1.14.27-.32.63-.45.98-.35,0,0,0,0,0,0,.12.04.7.26.54,1.05l-.33,1.72c-.03.17-.19.39-.33.48-.12.08-.27.12-.41.12Zm.49-.79s0,.04,0,.05c0-.02,0-.03,0-.05Zm-.04-.15h0s0,0,0,0h0Z"/>
    </g>
    <path class="cls-1" d="m3.02,112.58c-.31,0-.62-.09-.9-.3-.53-.42-.6-1.04-.64-1.54-.03-.28-.05-.54-.15-.7-.07-.12-.23-.24-.4-.36-.28-.21-.63-.47-.81-.91-.36-.86.18-1.76.9-2.22.31-.2.63-.33.95-.45.23-.09.45-.17.66-.3.54-.31.93-.86,1.04-1.47.09-.46.03-.96-.03-1.48-.03-.29-.07-.57-.08-.86-.06-1.37.35-2.77,1.14-3.9-.02-.18,0-.36.07-.55.38-1.03,1.25-1.75,2.5-2.09-.06-.02-.13-.04-.19-.06-.32-.1-.91-.3-1.22-.83-.31-.53-.2-1.09-.1-1.53.03-.16.07-.33.08-.48,0-.34-.16-.69-.36-1.09-.2-.4-.42-.84-.48-1.35-.09-.7.14-1.34.34-1.91.08-.23.16-.47.22-.7.29-1.17-.08-2.43-.48-3.51-.17-.46-.34-.9-.37-1.39-.05-.67.19-1.3.64-1.67.11-.09.24-.17.37-.25.07-.04.14-.08.2-.13.23-.2.2-.71.09-1.12l-.08-.3c-.16-.56-.35-1.19-.16-1.86.34-1.23,1.8-1.78,2.93-1.51h0c1.05.24,1.86.99,2.51,1.69,1.12,1.2,2.07,2.49,3.17,4.06,1.62,2.33,3.18,4.74,4.7,7.07,1.54,2.38,3.46,5.34,3.74,8.62.02.1.03.2.02.31-.01.14-.03.24-.05.32-.02,1.07-.35,2.13-.94,2.98-.13.2-.27.4-.53.54-.11.06-.22.1-.34.13-.2.1-.4.22-.64.4-.43.32-.84.71-1.17,1.16-.07.09-.15.17-.23.24-.13.21-.27.41-.42.61-.73.94-1.72,1.63-2.59,2.23l-6.99,4.86c-.33.23-1.34.93-2.23.36-.2-.12-.33-.28-.44-.41-.06-.07-.12-.14-.17-.17-.13-.09-.44,0-.67.2-.17.14-.31.32-.46.48-.19.22-.38.45-.63.65-.35.29-.83.49-1.3.49Zm2.91-14.65c.1.21.08.46-.07.65-.74.94-1.13,2.17-1.08,3.35.01.26.04.52.07.77.07.6.14,1.21.02,1.85-.18.96-.79,1.82-1.64,2.31-.26.15-.54.26-.83.37-.27.11-.52.21-.74.34-.3.19-.5.53-.42.71.05.12.23.26.41.39.24.18.51.38.71.7.25.4.29.84.33,1.23.03.31.06.6.18.69.12.09.43.01.66-.17.16-.13.31-.31.47-.5.18-.21.36-.42.6-.62.56-.47,1.48-.76,2.18-.26.17.12.29.26.39.38.06.07.13.15.17.17.04.02.23.11.87-.33l6.99-4.86c.84-.58,1.7-1.18,2.32-1.98.15-.2.29-.4.42-.61.06-.09.13-.16.22-.21.4-.54.9-1.03,1.43-1.42.34-.24.6-.41.87-.53.06-.03.18-.07.25-.08-.01,0,.03-.07.06-.11.5-.73.76-1.58.76-2.44,0-.07.01-.14.04-.21l.62.02-.61-.15c-.25-3.04-2.01-5.75-3.56-8.14-1.5-2.32-3.06-4.72-4.67-7.04-1.06-1.53-1.99-2.79-3.06-3.93-.55-.59-1.16-1.16-1.89-1.33-.58-.13-1.33.12-1.48.65-.09.33.03.74.16,1.18l.09.32c.28,1.03.11,1.88-.48,2.38-.12.1-.25.18-.39.26-.07.04-.14.08-.2.12-.14.11-.21.36-.2.63.02.31.14.63.27.98.46,1.25.91,2.8.54,4.31-.07.27-.16.55-.26.82-.17.48-.33.94-.28,1.35.04.3.2.62.36.96.24.48.51,1.03.49,1.67,0,.23-.05.47-.1.7-.06.27-.11.53-.04.65.08.13.39.24.54.28.78.25,1.57.47,2.34.64.21.05.38.2.45.41.07.21.02.43-.12.6-.06.09-.19.21-.29.25-.48.21-.98.29-1.47.37-.2.03-.4.07-.59.11-.96.21-1.58.66-1.84,1.34Z"/>
    <path class="cls-1" d="m18.93,121.48c-.07,0-.15,0-.23-.03-.23-.06-.41-.21-.53-.42-.24-.46-.08-1.09.04-1.43.09-.26.21-.52.33-.77.1-.21.2-.42.27-.63.04-.11.06-.2.08-.28-.08,0-.16-.03-.25-.07-.78-.37-.45-1.45-.3-1.97l2.29-7.6c.28-.93.6-1.99,1.1-3.01.11-.23.23-.45.36-.68.02-.08.06-.17.12-.28.26-.51.48-1.05.63-1.55.07-.24.14-.48.19-.7,0-.09.01-.19.03-.29.05-.21.15-.39.23-.54.49-.92,1.12-1.75,1.79-2.4.04-.06.09-.11.13-.16,0,0,.07-.07.07-.08.03-.03.06-.06.09-.08l.15-.12c2.16-1.79,4.36-2.36,6.13-2.82,1.78-.46,3.55-.91,5.27-1.28,1.2-.26,2.19-.43,3.16-.43.37,0,1.36,0,1.82.84h0c.39.71.18,1.94-.48,2.79-.38.49-.8.75-1.18.98l-.21.13c-.2.13-.69.48-.87.96-.03.08-.05.16-.07.25-.03.12-.06.24-.1.37-.16.45-.48.9-.88,1.25-.31.27-.62.43-.9.58-.83.44-1.72.99-2.48,1.93-.15.19-.3.39-.44.59-.35.48-.71.98-1.15,1.33-.34.27-.67.41-.97.53-.3.12-.53.21-.77.44-.11.11-.22.25-.34.38-.29.35-.6.72-1.01.85-.32.1-.62.04-.88-.17-.05,1-.38,1.96-.97,2.79-.1.14-.21.26-.33.35-.62,1.21-1.46,2.32-2.37,3.12-.19.17-.38.32-.57.48-.36.29-.71.57-1.02.93-.43.5-.79,1.19-.94,1.8-.05.22-.08.43-.11.64-.04.28-.08.57-.16.87-.14.49-.54,1.41-1.21,1.73-.42.2-.77.09-.96.03-.03-.01-.07-.02-.1-.03-.05.03-.28.21-.41.32-.33.27-.69.57-1.11.57Zm.48-4.78c.05,0,.11.02.17.04.46.17.81.75.4,1.87-.09.24-.2.49-.31.73-.07.15-.14.31-.21.46.22-.17.44-.33.7-.4.34-.1.61,0,.77.05.03,0,.06.02.1.03.09-.06.38-.47.51-.94.07-.25.1-.48.13-.72.04-.25.07-.5.14-.76.19-.79.64-1.65,1.2-2.3.38-.45.79-.78,1.18-1.09.18-.14.35-.28.53-.44.79-.7,1.55-1.71,2.1-2.78.09-.18.23-.32.39-.44.63-.89.77-1.74.78-2.31,0-.15,0-.3,0-.45,0-.32-.02-.69.04-1.09.01-.1.04-.21.1-.33.1-.21.31-.37.55-.38.23-.02.46.11.57.32.19.35.4.69.62,1,.1-.1.22-.25.31-.35.14-.17.28-.33.42-.47.41-.4.81-.56,1.16-.7.25-.1.46-.19.67-.35.31-.25.61-.66.92-1.09.16-.22.32-.44.48-.65.9-1.12,1.97-1.78,2.8-2.22.3-.16.53-.28.74-.46.23-.2.43-.48.52-.72.03-.08.05-.16.07-.24.03-.12.06-.25.11-.38.3-.81.98-1.33,1.36-1.58l.23-.14c.33-.2.61-.37.85-.68.42-.54.48-1.25.37-1.45h0c-.05-.1-.21-.18-.73-.2-.86,0-1.79.17-2.91.41-1.7.37-3.46.82-5.16,1.25-1.8.46-3.77.97-5.73,2.6l-.21.19s-.16.18-.19.21c-.57.54-1.11,1.27-1.51,2.03-.07.13-.13.24-.14.29,0,.06,0,.11,0,.17-.06.32-.15.62-.24.91-.17.56-.42,1.17-.71,1.74-.06.17-.09.24-.13.31-.12.21-.23.42-.33.63-.46.93-.75,1.89-1.03,2.81l-2.29,7.6c-.06.21-.1.36-.12.47Z"/>
    <path class="cls-1" d="m16.92,112.01c-.27,0-.54-.07-.77-.22-.51-.32-.76-.9-.63-1.53.23-1.16.46-2.37.84-3.55.19-.6.42-1.18.68-1.73.25-.53.56-1.19,1.03-1.68.15-.16.34-.29.54-.39.15-.13.3-.24.48-.35.4-.82.57-1.48.55-2.13,0-.12,0-.24.03-.35.04-.52.12-.99.27-1.43.58-1.74,1.66-2.78,2.98-2.89.36-.49,1.11-1.32,2.1-1.4.4-.03,1.01.05,1.59.64.67.69.93,1.46.74,2.18-.08.33-.26.63-.51.88.02.03.03.06.05.1.46,1.09.17,2.24-.79,3.15-.26.25-.52.49-.79.73-.22.2-.44.4-.66.61-.12.18-.27.35-.46.48-.04.03-.09.07-.14.11-.23.23-.47.5-.71.76-.4.55-.72,1.27-1.04,1.96-.22.48-.44.98-.7,1.43-.93,1.64-2.22,3.13-3.72,4.29-.29.22-.63.33-.96.33Zm6.22-15.03h0c-1.22.02-1.83,1.44-2.03,2.06-.12.35-.19.73-.21,1.17,0,.04,0,.08-.02.12.03,1.21-.41,2.22-.73,2.88-.07.14-.18.26-.31.34-.17.1-.32.2-.43.31-.05.05-.15.12-.21.15-.09.04-.17.09-.23.16-.33.34-.59.9-.8,1.35-.23.5-.44,1.03-.62,1.59-.36,1.11-.59,2.28-.81,3.41-.04.18.05.23.07.25.07.04.2.06.34-.04,1.37-1.06,2.55-2.42,3.4-3.92.23-.41.43-.86.65-1.33.34-.75.69-1.53,1.19-2.21.02-.03.06-.07.08-.1.23-.25.48-.52.74-.79.01-.02.07-.06.08-.07.08-.06.14-.11.21-.16.06-.04.1-.08.13-.13.03-.05.11-.15.15-.19.23-.22.47-.44.71-.66.26-.24.52-.47.77-.71.59-.56.76-1.16.5-1.78-.08-.12-.14-.27-.14-.43-.03-.12-.04-.3,0-.42l.08-.24c.04-.11.1-.21.19-.28.14-.12.24-.26.28-.4.1-.39-.23-.81-.43-1.02-.26-.27-.47-.29-.6-.27-.39.03-.9.43-1.3,1.02-.15.23-.41.37-.69.37Zm-.33-1.07s0,0,0,0c0,0,0,0,0,0Z"/>
    <path class="cls-1" d="m24.34,95.8c-.23,0-.44-.13-.55-.34-.2-.4-.44-.81-.73-1.26-.23-.36-.48-.72-.72-1.08-.66-.97-1.34-1.97-1.82-3.08-.03-.04-.05-.08-.07-.11-.09-.19-.16-.4-.21-.64-.35-1.09-.32-2.15.1-3.03.04-.16.14-.3.27-.4.19-.14.44-.18.66-.11.54.17.82.75.67,1.38-.03.13-.07.27-.11.4-.05.16-.09.33-.13.49-.08.38-.09.7-.04.97.25.75.7,1.52,1.07,2.1.26.41.53.81.8,1.21.52.77,1.06,1.57,1.5,2.42.14.27.06.6-.18.78-.11.18-.3.3-.51.3h-.02Z"/>
    <path class="cls-1" d="m26.45,96.16c-.19,0-.36-.08-.48-.23-.13-.07-.23-.18-.28-.32-.06-.16-.05-.34.03-.5.16-.32.34-.62.54-.92.71-1.04,1.59-1.92,2.45-2.77.35-.34.69-.68,1.02-1.04.47-.5,1.07-1.17,1.49-1.92.07-.19.12-.5.12-.9,0-.17-.01-.33-.03-.5-.01-.14-.02-.28-.03-.42-.03-.64.36-1.16.92-1.22.23-.03.46.05.62.23.12.12.19.28.2.45.24.94.06,2-.52,3.06-.06.16-.17.36-.3.53-.02.03-.05.06-.09.09-.68,1-1.54,1.85-2.38,2.67-.31.3-.62.61-.91.92-.86.9-1.44,1.67-1.83,2.43-.1.2-.31.33-.53.34h-.02Z"/>
  </g>
  <g>
    <g>
      <path class="cls-1" d="m129.79,89.85c-.19,0-.38-.07-.52-.2-.2-.19-.28-.47-.2-.74.03-.09-.03-.27-.08-.43-.1-.34-.22-.7-.17-1.11.05-.33.25-.57.54-.65.36-.09.72.07.87.38,0,0,0,0,0,.01.29.64.41,1.35.35,2.04-.03.36-.31.64-.65.68-.05,0-.09.01-.14.01Z"/>
      <path class="cls-1" d="m120.01,92.8c-.34,0-.62-.21-.72-.51-.04-.06-.06-.12-.08-.19l-.25-.85c-.09-.31-.16-.71.03-1.12.16-.36.45-.6.83-.57h0c.33,0,.74.23.79.84l.12,1.61c.01.17-.07.42-.19.54-.14.15-.33.24-.54.25Zm.11-2.16h0Z"/>
    </g>
    <path class="cls-1" d="m109.66,117.78c-.17,0-.35-.03-.52-.1-.6-.25-.81-.8-.97-1.24-.09-.23-.18-.46-.29-.56-.09-.08-.25-.15-.43-.21-.31-.12-.69-.27-.96-.62-.54-.69-.28-1.66.26-2.25.23-.26.49-.45.74-.64.18-.13.35-.26.51-.42.39-.39.6-.96.55-1.51-.03-.42-.2-.84-.38-1.28-.1-.25-.2-.5-.28-.75-.39-1.2-.36-2.55.06-3.74-.06-.16-.08-.33-.07-.51.08-.97.63-1.8,1.59-2.41,0,0,0,0-.01,0-.31-.02-.9-.04-1.31-.46-.42-.41-.45-.94-.48-1.37,0-.15-.01-.3-.05-.44-.07-.29-.3-.55-.57-.86-.27-.31-.58-.65-.76-1.1-.25-.61-.21-1.24-.17-1.79.02-.22.03-.45.03-.67-.03-1.1-.69-2.17-1.26-2.97-.28-.39-.53-.73-.67-1.16-.21-.6-.15-1.22.17-1.67.08-.11.17-.21.27-.31.05-.05.1-.1.14-.16.12-.17.04-.55-.2-.96l-.15-.25c-.28-.46-.6-.98-.6-1.63,0-1.2,1.18-2.06,2.28-2.1h0c.99-.03,1.91.43,2.66.89,1.41.87,2.7,1.92,3.8,2.83,1.95,1.62,3.87,3.34,5.72,4.99l.15.13c1.95,1.74,4.37,3.89,5.41,6.75.05.09.08.18.09.28.02.12.03.21.04.29.24.96.2,1.98-.11,2.89-.07.21-.15.44-.34.63-.09.08-.18.15-.29.21-.17.15-.34.36-.46.5-.31.38-.56.83-.75,1.29-.04.1-.09.19-.15.28-.07.21-.14.43-.23.63-.42,1.01-1.13,1.86-1.76,2.62l-5.01,6c-.24.29-.99,1.17-1.94.88-.21-.06-.37-.17-.5-.26-.07-.04-.14-.09-.18-.11-.1-.04-.33.09-.49.32-.11.17-.2.35-.28.53-.11.24-.23.49-.41.74-.31.44-.85.82-1.44.82Zm-.56-13.79c.14.17.18.41.09.62-.42,1-.47,2.17-.14,3.19.07.23.16.45.25.67.21.51.42,1.04.47,1.64.07.91-.27,1.84-.91,2.48-.2.2-.42.37-.64.53-.21.16-.41.31-.56.47-.2.22-.29.54-.2.67.07.09.25.16.44.23.26.1.56.22.81.46.33.3.47.69.61,1.03.09.24.19.5.3.54.09.04.33-.08.48-.29.12-.17.21-.36.3-.55.11-.24.23-.48.38-.7.39-.57,1.16-1.06,1.93-.78.18.07.33.17.45.24.06.04.14.09.17.11.01,0,.18.05.64-.49l5.01-6c.6-.72,1.22-1.46,1.57-2.3.09-.21.16-.42.22-.64.03-.1.09-.19.16-.27.21-.56.53-1.12.92-1.6.15-.18.37-.46.65-.69.06-.05.15-.12.22-.14-.03.01-.02-.04,0-.08.26-.76.29-1.56.08-2.31-.02-.07-.03-.14-.02-.21,0,0-.02-.1-.02-.11-.95-2.6-3.16-4.57-5.11-6.31l-.15-.13c-1.85-1.65-3.76-3.35-5.69-4.97-1.07-.89-2.32-1.91-3.65-2.73-.62-.38-1.29-.74-1.96-.71-.52.02-1.1.4-1.1.88,0,.3.2.63.41.98l.16.27c.51.86.56,1.67.15,2.27-.08.12-.18.23-.29.33-.05.05-.1.1-.14.16-.09.12-.09.34-.01.56.09.26.27.5.46.77.73,1.02,1.51,2.29,1.55,3.73,0,.26,0,.53-.03.79-.03.46-.06.89.08,1.24.1.25.32.49.54.75.33.37.71.8.85,1.38.05.21.07.43.08.65.01.24.03.48.11.56.09.08.39.1.52.11.74.03,1.49.04,2.22,0,.21-.03.42.09.54.28s.13.41.04.61c-.04.11-.12.23-.21.3-.38.31-.81.5-1.23.69-.17.08-.33.15-.49.23-.77.41-1.2.94-1.28,1.57Z"/>
    <path class="cls-1" d="m126.05,121.78c-.22,0-.43-.09-.59-.26-.34-.36-.35-.98-.33-1.31.02-.25.06-.51.1-.76.04-.21.07-.42.09-.63,0-.08,0-.15,0-.21-.07,0-.13,0-.21-.01-.81-.15-.79-1.25-.77-1.72l.19-7.28c.02-.9.05-1.91.25-2.94.05-.23.1-.46.16-.69,0-.07,0-.17.03-.28.1-.51.17-1.03.18-1.51,0-.23.01-.46,0-.66-.03-.09-.04-.19-.04-.29,0-.2.04-.39.08-.55.2-.91.56-1.81,1.01-2.55.01-.04.04-.09.06-.14.01-.02.07-.13.09-.16l.15-.21c1.48-2.12,3.29-3.16,4.75-3.99,1.42-.81,2.9-1.65,4.36-2.41,1-.52,1.84-.91,2.7-1.15.34-.09,1.23-.34,1.87.31h0c.53.55.64,1.71.26,2.64-.22.54-.54.87-.82,1.17l-.15.16c-.14.16-.48.58-.52,1.03,0,.08,0,.15,0,.23,0,.12,0,.23,0,.35-.03.44-.21.93-.49,1.34-.22.32-.46.55-.67.75-.62.58-1.27,1.28-1.71,2.29-.09.2-.17.42-.25.63-.19.51-.39,1.05-.7,1.47-.24.33-.5.53-.74.71-.23.18-.41.31-.56.56-.07.12-.14.27-.2.41-.18.39-.36.79-.71,1.02-.19.12-.45.21-.78.1.18.88.11,1.79-.2,2.65-.06.16-.13.29-.22.4-.25,1.2-.73,2.4-1.34,3.34-.13.2-.26.38-.4.57-.25.34-.48.67-.67,1.06-.26.54-.41,1.23-.39,1.79,0,.21.03.4.05.59.03.26.06.52.07.81,0,.48-.14,1.41-.67,1.86-.34.3-.68.28-.88.27-.1.02-.25.23-.33.35-.27.38-.58.82-1.1.82h0Zm-.42-4.48s.04,0,.07,0c.48.04.95.49.85,1.61-.02.24-.06.49-.1.73-.01.09-.03.17-.04.26.12-.15.25-.28.42-.38.29-.17.57-.16.72-.15.11-.05.26-.46.26-.9,0-.23-.03-.44-.06-.66-.03-.23-.06-.46-.06-.71-.02-.76.17-1.63.51-2.35.23-.49.51-.88.78-1.25.12-.17.25-.34.36-.52.52-.8.95-1.88,1.18-2.95.04-.18.13-.36.25-.5.33-.92.25-1.69.12-2.18-.03-.13-.07-.26-.11-.39-.09-.29-.19-.61-.24-.99-.01-.1-.01-.2,0-.32,0-.25.15-.45.39-.54.23-.09.5,0,.67.18.24.26.49.49.75.69.05-.1.11-.24.16-.33.08-.18.17-.37.26-.52.27-.46.59-.7.87-.92.19-.15.36-.27.49-.46.21-.29.37-.72.54-1.17.09-.23.18-.47.27-.69.53-1.22,1.32-2.06,1.95-2.66.23-.22.4-.37.54-.58.15-.22.26-.52.28-.74,0-.08,0-.16,0-.23,0-.12,0-.24,0-.36.07-.8.55-1.44.84-1.75l.17-.18c.24-.25.45-.47.58-.8.24-.59.1-1.2-.01-1.31-.06-.06-.19-.11-.65.02-.75.21-1.53.58-2.46,1.06-1.44.75-2.9,1.58-4.32,2.39-1.42.81-3.03,1.74-4.36,3.64l-.14.21c-.04.1-.07.16-.11.22-.37.62-.68,1.38-.85,2.15-.03.11-.05.23-.05.27.03.07.03.12.03.2.02.25.02.55,0,.83-.02.54-.09,1.13-.21,1.72-.01.15-.02.22-.04.29-.06.24-.11.44-.15.65-.18.93-.2,1.84-.23,2.73l-.19,7.28c0,.17,0,.29,0,.39.01,0,.03,0,.04,0Z"/>
    <path class="cls-1" d="m121.84,113.9c-.13,0-.26-.02-.4-.06-.55-.16-.92-.64-.97-1.25-.08-1.09-.16-2.22-.11-3.35.03-.58.09-1.15.18-1.7.09-.54.21-1.2.51-1.76.09-.18.22-.34.38-.48.09-.13.21-.28.34-.42.15-.82.14-1.43-.03-1.98-.03-.11-.05-.22-.06-.33-.1-.47-.13-.91-.11-1.34.09-1.69.8-2.89,1.95-3.32.21-.53.67-1.44,1.54-1.76.36-.13.93-.21,1.61.19.77.46,1.2,1.1,1.21,1.8,0,.3-.07.61-.23.9,0,.01.02.02.03.03.7.89.72,2,.08,3.05-.17.28-.34.55-.51.83-.15.24-.3.47-.44.71-.06.19-.16.38-.3.54l-.1.13c-.14.26-.29.55-.44.84,0,0,0,0,0,0-.22.58-.33,1.29-.44,1.97-.08.48-.16.98-.27,1.44-.43,1.69-1.21,3.32-2.26,4.71-.29.38-.72.6-1.17.6Zm3.82-16.61c-.07,0-.13.01-.17.03-.33.12-.67.59-.87,1.19-.09.25-.29.45-.54.53,0,0,0,0-.01,0-1.04.3-1.23,1.69-1.26,2.27-.02.34.01.69.1,1.07,0,.04.01.08.01.12.32,1.07.18,2.07.04,2.74-.02.14-.1.29-.21.41-.11.12-.22.24-.29.36-.04.06-.11.16-.17.2-.06.05-.11.11-.15.17-.21.38-.3.91-.38,1.38-.08.5-.14,1.02-.17,1.55-.05,1.06.03,2.15.11,3.2,0,.13.07.15.09.16.06.02.15,0,.23-.1.95-1.26,1.66-2.74,2.05-4.28.11-.42.18-.87.25-1.33.12-.75.24-1.53.52-2.25.01-.03.03-.06.04-.09.15-.3.31-.6.47-.9.02-.03.06-.1.09-.13.03-.04.07-.1.12-.16.04-.05.06-.09.07-.12.02-.06.07-.18.1-.24.15-.25.31-.5.47-.76.17-.27.34-.53.5-.8.38-.62.38-1.17.02-1.64-.11-.1-.19-.22-.24-.35-.06-.1-.11-.28-.11-.4v-.22c.02-.12.06-.25.13-.34.06-.09.13-.23.13-.38,0-.36-.42-.64-.61-.75-.16-.1-.29-.12-.38-.12Zm-3.91,7.69s0,.03,0,.04c0-.01,0-.03,0-.04Zm.09-.18s0,0-.01.01c0,0,0,0,.01-.01Zm2.05-6.36h0,0Z"/>
    <path class="cls-1" d="m124.68,97.73c-.17,0-.34-.07-.46-.2-.28-.31-.59-.61-.95-.93-.29-.26-.6-.52-.9-.78-.82-.7-1.66-1.42-2.36-2.29-.03-.03-.06-.05-.08-.08-.14-.16-.25-.34-.35-.54-.58-.88-.82-1.85-.66-2.74,0-.16.06-.32.16-.45.12-.15.41-.28.6-.26.54.02.95.49.97,1.11,0,.13,0,.26,0,.39,0,.15,0,.3,0,.45.02.35.09.63.2.85.39.58.95,1.13,1.45,1.59.32.3.66.58.99.87.65.56,1.32,1.13,1.93,1.79.2.22.22.55.04.79-.06.2-.21.36-.41.42-.06.02-.12.03-.18.03Z"/>
    <path class="cls-1" d="m126.63,97.54c-.12,0-.24-.04-.35-.11-.14-.03-.26-.12-.34-.23-.1-.14-.14-.32-.11-.49.07-.32.16-.64.26-.95.38-1.1.95-2.1,1.5-3.06.22-.38.44-.77.65-1.15.3-.55.66-1.29.85-2.05.02-.17-.02-.46-.11-.8-.04-.14-.09-.28-.14-.42-.05-.13-.09-.25-.13-.38-.19-.58.04-1.16.55-1.37.18-.07.49-.05.66.06.14.09.24.22.3.37.44.79.54,1.77.28,2.87-.01.14-.06.35-.14.55-.01.04-.03.07-.06.11-.36,1.05-.92,2.01-1.46,2.94-.2.34-.4.69-.59,1.03-.54,1-.87,1.82-1.02,2.58-.04.22-.21.4-.42.47-.06.02-.12.03-.18.03Zm-.43-.18h0Z"/>
  </g>
</svg>