<?xml version="1.0" encoding="UTF-8"?>
<svg id="Layer_1" data-name="Layer 1" xmlns="http://www.w3.org/2000/svg" viewBox="0 0 164.15 108.45">
  <defs>
    <style>
      .cls-1 {
        fill: #a4a4a4;
        stroke-width: 0px;
      }
    </style>
  </defs>
  <path class="cls-1" d="m124.22,14.38c-1.95-1.79-4.21-3.35-6.4-4.85-2.18-1.49-5.01-1.89-7.4-3.07-2.37-1.16-4.83-1.87-7.37-2.7-2.5-.81-4.9-1.71-7.55-2.17-2.58-.44-5.12-1.52-7.81-1.59-2.69-.07-5.28.86-7.88,1.16-2.66.31-5.44-.16-7.98.51-2.59.68-5.45.86-7.87,1.89-.34.14-.66.3-.99.48.34.31.64.67.88,1.07.78-.64,1.78-1.01,2.87-.98,1.94.06,3.55,1.37,4.06,3.14.25-.15.55-.24.87-.23.87.03,1.56.75,1.54,1.62-.02.57-.33,1.06-.79,1.33,1.37.18,3.83,1.6,4.52,1.79l-23.83-.67c-.71.62-1.42,1.23-2.15,1.83-.35.29-.71.57-1.06.84,2.33.28,5.15.51,9.12.62,13.81.39,13.81.27,27.62.65,13.8.39,13.79.81,27.6,1.2,5.41.15,8.7.02,11.54-.16-.46-.62-.96-1.2-1.52-1.72"/>
  <path class="cls-1" d="m68.04,73.55c-1.23,1.48-2.89,4.45-3.15,6.28.49-.18,1.2-.11,1.75-.4-.91,2.15-2.46,4.06-2.69,6.31.41-.43,1.29-.77,1.74-1.19.18,1.63-1.04,2.69-1.06,4.3,1.39-.94,2.22-1.33,3.38-2.47.71-.71,1.17-1.65,2.07-2.22.04,3.34-4.69,7.09-5.6,10.33,1.04-.71,1.78-1.94,2.77-2.7-1.25,2.07-2.4,5.52-4.67,6.7-.99-2.21,1.75-4.62,1.38-7.04-.83.38-1.63,1.28-2.27,1.68-.03-1.5,0-2.96.55-4.29-3.1,1.12-4.93,6.57-8.35,7.17.21-1.95,2.82-4,3.79-5.78,1.02-1.87,2-3.18,2.36-5.31-.72.18-1.51.71-2.08,1.36.15-.8-.03-1.66.04-2.45-3.71,1.09-6.42,4.89-9.44,7.08,1-2.74,3.9-4.14,5.13-6.73-1.28-1.51-3,.83-3.74,1.93-1.01-.62-.72-1.68.09-2.5-1.37.6-2.23,2.34-3.17,3.49-1.38,1.67-3.1,3.07-4.5,4.77-2.12,2.58-4.45,4.37-6.89,6.65.47-3.33,4.85-6.3,6.62-9.23-2.03,1.3-4.27,4.01-6.45,4.85.21-.59.09-1.27.22-1.94-2.35,1.82-3.9,4.43-6.54,6.03-.64.39-1.8.9-3.53,1.22-.87.38-1.38.56-2.27.4-.4-.47,1.9-2.41,2.7-2.77.14-.18,3.28-2.88,4.83-3.95,3.06-2.08,6.29-4.56,9.2-7,1.61-1.35,3.15-2.65,4.63-4.01.94-.86,2.14-2.84,3.3-3.2,1.81-.56,3.28.44,4.89-.37,1.46-.74,2.34-1.88,4.09-2.21.09,1.7-1.51,2.59-1.83,3.99,2.72-1.22,5.64-5.25,8.07-7.28,2.37-1.98,4.74-4.59,7.14-6.13-.11,3.17-5.17,7.19-6.64,10.04,1.53-.86,2.45-2.68,4.1-3.43"/>
  <path class="cls-1" d="m116.66,97.51c-2.3-1.86-1.3-2.27-3.49-4.21-.69-.61-3.25-.09-4.38-1-.96-.77,1.32-2.26.34-2.87-.92-.57-2.85.9-3.28.18-.23-.35.97-1.35,1.76-1.34l-1.29-.04c2.78-.99,5.14-1.71,7.07-3.93,1.22-1.4,3.44-5.09,5.25-5.48.26,2.23-2.56,4.5-3.19,6.55,1.37-.61,1.7-2.31,3.09-2.95-.18,1.28-1.03,2.6-1.59,3.74,1.17-.3,2.02-1.52,3.33-1.63-.14,2.34-3.31,4.94-4,7.27,1.28-.16,2.96-2.49,4.42-3.15-.77.67-1.29,1.94-1.33,2.99.34-.2,1.09-.34,1.49-.67-.42,1.68-2.07,2.89-2.11,4.78.67-.46,1.55-.91,2.27-1.16-.39,2.4-3.45,3.77-4.38,2.9"/>
  <g>
    <path class="cls-1" d="m113.49,41.56c-13.81-.39-13.8-.81-27.6-1.2-13.81-.39-13.81-.27-27.61-.66-4.69-.13-7.77-.43-10.35-.78.16.3.2.62.02.97-.86,1.69-1.94,2.2-1.94,2.2,0,0,1.59.36,2.52,1.04,2.44.11,5.39.23,9.65.35,13.8.39,13.84-.71,27.64-.32,13.81.39,13.79.93,27.6,1.32,10.71.3,13.14-.36,20.15-.49.6-.95,1.32-1.83,1.32-1.83,0,0,.35-.58.69-1.32-8.58.08-10.44,1.04-22.09.71Z"/>
    <path class="cls-1" d="m94.95,60.3c-.54-.27-1.35-.82-1.96-.87-.47-.04-.82.15-1.25.27-.52.15-.86.38-1.38.41.08-.39-.02-.9-.5-.89-.4.02-.57.61-.63,1.01-.2-.05-1.53-.87-2.09-1.02-.53-.15-1.36-.26-1.9-.11-.35.1-.98.61-1.26.83-.32.24-.84.64-1,.99.19.04.43-.12.62-.18,1.07-.33,2.08-.5,3.22-.37.71.08,1.38.62,2.06.82,0,0,0,0,0,0-.08.34-.23.54-.47.77-.23.23-.37.32-.07.54.18.13.39.16.61.18.3.03.63.03.92-.03.4-.09.28-.16.16-.47-.1-.26-.12-.75.06-1.04.11-.02.22-.05.34-.07.58-.11,1.13-.19,1.71-.26.69-.08,1.41.07,2.1.16.5.06.97.2,1.47.25.32.03.77.19,1.09.12-.3-.51-1.31-.8-1.84-1.06Z"/>
    <path class="cls-1" d="m86.71,53.76c.39.12.89.47,1.3.44-.21-.88-1.36-1.58-1.92-2.1-.59-.55-1.29-1.19-2.03-1.4-.57-.16-1.05.07-1.62.18-.68.13-1.28,0-1.94-.07.22-.61.25-1.47-.34-1.54-.49-.06-.89.86-1.09,1.49-.23-.12-.45-.28-.65-.41-.63-.43-1.34-.78-1.98-1.16-.6-.35-1.6-.72-2.3-.58-.46.09-1.01.26-1.43.55-.47.32-1.23.85-1.53,1.39.22.1.57-.11.82-.16,1.41-.3,2.71-.36,4.07.08.86.28,1.5,1.3,2.28,1.77,0,0,0,.01,0,.02-.2.54-.46.83-.81,1.14-.36.32-.56.45-.25.86.18.25.42.34.68.43.36.12.77.19,1.15.15.52-.05.39-.19.33-.73-.04-.43.09-1.23.39-1.66.15-.02.29-.03.44-.04.75-.06,1.45-.07,2.18-.06.87.02,1.71.42,2.53.71.59.21,1.13.53,1.73.72Z"/>
    <path class="cls-1" d="m123.17,52.25c-1.46.1-3.09.03-3.67,1.58l11.06.31c-.22-.51,1.53-.99,1.53-.99,0,0-1.64-.68-2.1-1.83-.08-.19,0-.45.17-.75-.67-.25-1.42-.41-2.24-.44-2.17-.06-4.05.83-4.75,2.11Z"/>
    <path class="cls-1" d="m99.76,99.7s.04.04.05.07c.02.04.05.08.08.12,0-.03,0-.05,0-.07-.06-.23-.12-.46-.18-.69-.04-.13-.08-.27-.13-.4-.03-.07-.08-.14-.14-.18-.1-.08-.2-.16-.31-.22-.17-.11-.35-.22-.53-.32-.02-.01-.05-.03-.07-.05.01.04.02.07.02.1.04.14.08.27.11.41.02.06.01.12-.02.18-.02.03-.04.07-.06.11-.07.09-.13.19-.2.28-.18.25-.35.49-.52.74-.01.01-.03.03-.03.06.21-.19.43-.36.66-.5-.25.21-.47.46-.65.73.1-.09.21-.18.32-.26.11-.08.22-.16.33-.24,0,0,0,0,0,0-.13.12-.25.25-.36.38-.11.14-.2.28-.29.44.14-.07.25-.16.37-.25.11-.09.21-.2.32-.31,0,.01,0,.01,0,.02,0,.01-.01.03-.02.04-.07.11-.15.21-.24.3-.01.02-.03.03-.04.06.06-.03.1-.07.14-.1.2-.17.36-.37.49-.59,0-.01.01-.03.02-.03,0,0,0-.01.02-.01.01,0,.01.02.01.02,0,0,0,.01,0,.02-.02.06-.03.11-.06.16-.05.14-.13.26-.21.39-.01.02-.02.05-.02.07.01.05.02.11.03.16,0,.02,0,.04.02.07.01-.06.02-.11.03-.16.01-.05.03-.1.04-.15.02-.05.03-.1.05-.15.02-.05.03-.1.06-.14,0,.09-.03.19-.03.28,0,.09,0,.19,0,.29.01-.02.02-.04.02-.06.05-.21.13-.41.22-.6,0-.01,0-.04.03-.03-.03.2-.05.41,0,.62.02-.04.04-.07.05-.11,0-.02.02-.04.03-.06,0-.01.01-.02.02-.02.01,0,.02.01.01.02,0,0,0,.02,0,.02,0,.08,0,.16,0,.24,0,.05-.01.1,0,.16.02-.01.03-.03.04-.05.02-.05.04-.1.05-.15.04-.15.06-.3.07-.45,0-.04,0-.07,0-.11,0-.01,0-.02.01-.02,0,0,.01,0,.02.02.02.03.02.07.03.1.03.14.03.29.02.43,0,.09-.02.18-.02.27,0,.01,0,.03.01.04.03-.02.05-.05.06-.08.02-.05.04-.09.05-.14.05-.21.05-.43.03-.64-.01-.12-.05-.24-.09-.36,0-.02-.02-.05-.02-.08.02,0,.03.02.03.04.03.05.06.11.08.17.03.08.05.16.07.24,0,.02,0,.03.02.05.08.12.13.25.16.39.01.04.01.07.03.11,0-.07-.02-.14-.03-.21-.02-.12-.06-.22-.1-.33,0-.03-.02-.05-.02-.08,0,0,0-.02,0-.02.01,0,.02,0,.03,0Z"/>
    <path class="cls-1" d="m94.76,98.64c-.05-.23-.04-.47,0-.7.02-.17.05-.34.04-.52,0-.11-.03-.22-.06-.33,0-.02-.01-.03-.04-.03-.08,0-.17,0-.24.06-.04.03-.09.06-.12.09-.15.15-.32.28-.5.39-.1.07-.18.16-.23.28-.03.07-.06.14-.1.2-.02.02-.03.05-.04.07-.02.07-.04.14-.06.21-.07.25-.12.51-.19.76-.01.04-.02.07-.02.11,0,.01,0,.03.01.03.07-.12.16-.22.26-.32.1-.1.2-.18.33-.25-.22.22-.39.47-.52.75.11-.07.2-.17.32-.24-.14.13-.26.28-.31.48.06-.07.12-.14.2-.19-.1.13-.18.28-.22.44.07-.14.18-.25.28-.36,0,0,0,0,0,0,0,0,0,0,0,.01-.08.11-.11.24-.12.37,0,.02,0,.04.02.06.07.07.13.14.18.22,0,0,.01.01.02.01-.04-.15-.1-.27-.2-.38.25.14.38.37.5.61.01-.02.03-.05.02-.08-.02-.07-.03-.14-.03-.21,0-.05,0-.1.01-.15,0-.01,0-.02.02-.03.02,0,.02.01.02.02,0,.02,0,.04.02.07.04.17.11.33.2.48,0,.02.02.04.04.05,0-.17-.05-.32-.1-.48,0,0,0,0,.01,0,.04.07.09.13.13.2-.02-.2-.08-.38-.21-.53.08.04.14.1.2.16.02.03.04.06.06.08.1.1.19.2.26.32,0,0,0,.01.02.01,0-.05-.02-.1-.04-.15-.02-.05-.04-.09-.06-.14.08.07.12.17.18.25-.02-.23-.08-.44-.24-.62.14.12.27.24.37.4-.04-.2-.12-.39-.23-.56.07.05.13.11.18.18.05.07.09.14.13.22,0-.03,0-.05,0-.08,0-.14,0-.28,0-.41,0-.17-.03-.34-.07-.51-.03-.11-.06-.23-.09-.34Z"/>
    <path class="cls-1" d="m97.57,98.18c-.21-.21-.36-.46-.43-.75,0-.04-.02-.08-.04-.12-.01-.02-.02-.05-.04-.07-.02-.02-.04-.03-.07-.02-.21.05-.41.08-.63.08-.14,0-.28,0-.42-.02-.03,0-.04,0-.05.03-.07.12-.12.25-.18.38-.07.17-.11.35-.12.53,0,.12,0,.24,0,.36,0,.09,0,.17-.03.26-.02.08-.05.16-.07.25-.03.16-.06.32-.09.48-.03.13-.05.26-.07.39,0,.02,0,.03,0,.06.02-.04.04-.07.05-.1.02-.03.03-.06.05-.09.02-.03.04-.07.06-.1q.04-.06.06-.08c-.06.17-.11.34-.12.51.08-.17.17-.32.29-.47.13-.17.34-.38.39-.39-.2.2-.33.44-.42.7.06-.09.12-.17.2-.25-.06.17-.13.34-.16.53.02,0,.02-.02.03-.03.06-.11.12-.22.2-.33.06-.08.11-.15.17-.22.02-.02.04-.04.07-.06-.06.08-.08.17-.11.25-.03.1-.05.21-.07.32,0,.03-.01.06-.01.09,0,.01,0,.03,0,.03.01,0,.02,0,.02-.01.01-.02.02-.03.04-.04.13-.2.2-.42.24-.65,0-.04,0-.07.01-.11,0-.01,0-.02.02-.03.02,0,.02.01.02.02,0,0,0,.01,0,.02.01.05.02.1.02.15,0,.06,0,.12-.01.19,0,.02-.02.04,0,.05.06.03.07.09.09.15.02.07.02.14.02.21,0,.04,0,.09,0,.13.01,0,.02-.01.02-.02.03-.07.06-.15.09-.23.03-.08.05-.17.06-.25,0-.04,0-.07,0-.1,0-.01,0-.03.02-.03.01,0,.02.01.02.02,0,.02.01.03.01.05.02.12.01.23,0,.35,0,.03,0,.06-.02.09.02-.03.04-.07.05-.11.06-.19.1-.39.09-.59,0-.01,0-.02,0-.03,0,0,0-.02.02-.02,0,0,.01,0,.01.01,0,.02.02.04.02.07.04.21.04.41,0,.62,0,.06-.02.11-.03.17.06-.14.13-.28.21-.41.1-.16.24-.34.28-.36-.15.25-.25.5-.32.78.02-.01.03-.02.03-.03.17-.36.34-.72.48-1.09.07-.17.14-.33.18-.5.02-.05.03-.1.03-.15,0-.1-.03-.18-.08-.26-.04-.07-.1-.13-.16-.19Z"/>
    <path class="cls-1" d="m106.26,75.77c-.54-.42-1.05-.91-1.78-.94-.73-.03-1.44.16-2.13.41.07-.3-.05-.65-.37-.73-.43-.11-.75.37-.88.82-.27-.06-.53-.16-.79-.3-.55-.31-1.04-.81-1.64-1.02-.38-.13-.74-.01-1.11.08-.38.09-.77.14-1.15.25-.73.21-1.47.6-2.11.97.44.05.82.02,1.29,0,.78-.02,1.07-.08,1.68.1.71.42,1.53.94,2.3,1.02.12.01.23.03.35.04-.11.1-.23.18-.36.26-.33.19-.79.44-.45.84.16.2.4.27.63.34.35.11.68.17,1.05.2.12,0,.46.07.45-.08-.05-.53.13-1.29.44-1.62.48-.03.95-.05,1.41-.13.45-.09,1.27-.39,1.51-.39.29,0,2.24.69,2.57.81.45.17,1.03.4,1.58.48-.39-.23-.88-.4-1.29-.62-.42-.23-.81-.5-1.19-.79Z"/>
    <path class="cls-1" d="m95.22,32.84c1.06-.04,1.46-.11,2.28.13.97.58,2.08,1.28,3.13,1.39.16.02.32.04.48.05-.15.13-.31.24-.49.35-.45.26-1.07.59-.61,1.15.22.27.54.37.87.47.48.15.93.23,1.43.27.16.01.63.09.61-.11-.06-.73.17-1.75.6-2.21.65-.04,1.29-.06,1.92-.18.62-.12,1.73-.53,2.06-.53.39.01,3.06.94,3.5,1.11.62.24,1.4.55,2.15.65-.52-.32-1.19-.54-1.75-.84-.58-.31-1.1-.68-1.62-1.08-.74-.58-1.43-1.24-2.43-1.28-.99-.05-1.97.23-2.91.56.1-.4-.07-.89-.5-1-.58-.15-1.02.5-1.19,1.12-.37-.09-.73-.21-1.09-.41-.75-.42-1.41-1.1-2.23-1.39-.52-.18-1.01-.01-1.51.11-.52.13-1.05.19-1.57.35-1,.29-2,.81-2.87,1.33.6.06,1.13.02,1.76,0Z"/>
    <path class="cls-1" d="m52.11,69.04c-.45,2.16-4.24,1.63-4.24,1.63,0,0,2.07,1.02.9,3.01,0,0,3.06.39,3.84,2.06,3.13-.71,5.96-.86,5.96-.86l2.08-2.12,4-3.3,2.47-1.99c-2.38.07-4.57.2-8.63.09-2.81-.08-5.05-.16-6.95-.23.44.48.72,1.04.58,1.72Z"/>
    <path class="cls-1" d="m42.52,30.53c-.12,1.04.86,1.67.3,2.8,0,0,1.09.73.79,1.68,0,0,3.8,2.29,1.19,2.02,0,0,2.5.74,3.12,1.89,2.58.35,5.67.65,10.35.78,13.8.39,13.81.27,27.61.66,13.81.39,13.79.81,27.6,1.2,11.64.33,13.51-.64,22.09-.71.41-.87.8-1.96.58-2.56-.24-.64.32-2.2.82-3.39-.06-.13-.12-.27-.17-.4-.43-1.02-.94-1.97-1.48-2.91l-24.24-.68c.58-1.55,2.21-1.47,3.67-1.58.7-1.29,2.57-2.18,4.75-2.12,1.23.04,2.33.36,3.18.88.35-1.51,1.72-2.62,3.33-2.57.67.02,1.28.23,1.79.59.51-1.3,1.54-2.32,2.82-2.85-.47-.85-.98-1.68-1.6-2.44-.47-.58-.91-1.2-1.33-1.83-3.38.2-6.84.39-13.58.2-13.81-.39-13.79-.93-27.6-1.31-13.81-.39-13.84.7-27.64.32-5.23-.15-8.48-.28-11.25-.42.36.4.65.87.82,1.39.4-.25.88-.38,1.38-.37,1.22.03,2.21.93,2.4,2.09.66-.36,1.52-.56,2.44-.53,1.65.05,3.02.79,3.49,1.8,1.1.14,2.33.15,2.71,1.35l-17.1-.48c.47.5.83,1.11,1.02,1.78.25-.16.55-.24.87-.23.87.02,1.56.75,1.54,1.62-.02.57-.33,1.06-.8,1.33,1.37.18,3.83,1.6,4.52,1.79l-8.7-.24c.17.41.34.95.28,1.48Zm53.82.98c.52-.15,1.05-.22,1.57-.35.5-.12,1-.29,1.51-.11.83.28,1.48.97,2.23,1.39.36.2.72.32,1.09.41.17-.61.61-1.27,1.19-1.12.43.12.6.6.5,1,.94-.33,1.92-.6,2.91-.56,1,.05,1.69.71,2.43,1.28.52.4,1.05.77,1.62,1.08.56.3,1.23.52,1.75.84-.75-.1-1.53-.42-2.15-.65-.44-.17-3.11-1.1-3.5-1.11-.33,0-1.44.41-2.06.53-.63.12-1.27.14-1.92.18-.43.46-.66,1.48-.6,2.21.02.19-.44.12-.61.11-.5-.04-.95-.12-1.43-.27-.32-.1-.64-.19-.87-.47-.46-.56.16-.89.61-1.15.19-.11.35-.21.49-.35-.16-.01-.32-.03-.48-.05-1.05-.11-2.17-.81-3.13-1.39-.83-.24-1.22-.17-2.28-.13-.63.02-1.16.05-1.76,0,.88-.51,1.87-1.04,2.87-1.33Z"/>
    <path class="cls-1" d="m130.76,61.78c-.92-.91.8-2.37.8-2.37,0,0-3.31,1.22-4.11-.97-.79-2.19,3.51-3.98,3.51-3.98-.25-.11-.37-.21-.42-.32l-11.06-.31c.59-1.55,2.21-1.47,3.67-1.58.7-1.29,2.57-2.17,4.75-2.11.81.02,1.57.19,2.24.44.84-1.43,4.09-3.71,4.09-3.71,0,0-.95.08-1.44-.73-.23-.38.22-1.29.76-2.14-7,.13-9.43.79-20.15.49-13.81-.39-13.79-.93-27.6-1.32-13.81-.39-13.84.71-27.64.32-4.27-.12-7.21-.23-9.65-.35.49.36.8.8.59,1.33-.62,1.53-2.74,1.66-2.74,1.66,0,0-.77,1.21-2.31.92,0,0,1.12,1.82-.08,2.71,0,0,9.01,3.09,6.09,6.06-1.33,1.77-4.42.56-4.42.56,0,0,.42,1.01-.04,1.36,0,0,4.39.54,3.89,3.06-.51,2.52-3.1,1.74-3.1,1.74,0,0,1.15.6,1.85,1.34,2.38.29,5.24.53,9.32.65,6.69.19,10.15.26,13.5.32l1.82-1.03c3.31,1.54,7.29,1.22,12.3,1.36,13.8.39,13.79.81,27.6,1.2,8.32.23,11.64-.19,15.98-.48-.56-2.18,1.98-4.11,1.98-4.11Zm-50.49-9.39c-.14,0-.29.03-.44.04-.31.43-.44,1.23-.39,1.66.05.53.18.67-.33.73-.38.04-.79-.04-1.15-.15-.26-.09-.5-.17-.68-.43-.31-.41-.11-.54.25-.86.36-.32.61-.6.81-1.14,0,0,0-.01,0-.02-.78-.47-1.43-1.49-2.28-1.77-1.36-.45-2.66-.39-4.07-.08-.25.05-.6.26-.82.16.31-.54,1.07-1.06,1.53-1.39.42-.29.97-.46,1.43-.55.71-.14,1.7.23,2.3.58.64.38,1.35.73,1.98,1.16.2.13.42.29.65.41.2-.63.59-1.56,1.09-1.49.59.07.56.93.34,1.54.65.07,1.25.2,1.94.07.57-.11,1.06-.34,1.62-.18.73.21,1.44.85,2.03,1.4.57.53,1.71,1.22,1.92,2.1-.4.04-.91-.32-1.3-.44-.6-.18-1.14-.51-1.73-.72-.82-.29-1.66-.69-2.53-.71-.73-.01-1.43,0-2.18.06Zm15.43,8.85c-.5-.05-.97-.19-1.47-.25-.69-.09-1.41-.24-2.1-.16-.58.07-1.13.15-1.71.26-.12.02-.23.05-.34.07-.18.29-.16.78-.06,1.04.12.31.24.38-.16.47-.29.06-.63.06-.92.03-.22-.03-.42-.05-.61-.18-.3-.22-.17-.31.07-.54.24-.23.39-.43.47-.77,0,0,0,0,0,0-.69-.2-1.35-.75-2.06-.82-1.14-.12-2.15.05-3.22.37-.19.06-.43.22-.62.18.16-.36.68-.75,1-.99.28-.22.91-.73,1.26-.83.54-.15,1.37-.04,1.9.11.56.16,1.89.97,2.09,1.02.06-.4.23-.99.63-1.01.48-.01.58.5.5.89.53-.03.86-.26,1.38-.41.43-.12.78-.31,1.25-.27.61.05,1.42.61,1.96.87.53.26,1.53.55,1.84,1.06-.32.07-.77-.1-1.09-.12Z"/>
    <path class="cls-1" d="m128.23,82.01s-.5-.25-.89-1.13c-.26-.59.42-.92.91-1.08-1.07.26-3.79.68-4.01-1.51-.26-2.73,3.66-2.96,3.66-2.96-1.77-.42-1.11-1.43-1.11-1.43,0,0-2.2.36-2.51-.49-.31-.85,1.65-1.48,1.65-1.48,0,0-1.11.44-1.58-.74-.27-.66,1.36-1.52,2.83-2.15-3.68.22-7.13.46-14.45.25-13.81-.39-13.79-.93-27.6-1.32-3.24-.09-5.72-.1-7.8-.06l1.49,1.48,11.11,9.71,9.44,9.12s7.06-1.73,11.19-4.42c1.51-.98,3.61-4.55,5.03-5.65,1.55-1.2,4.23-2.83,5.48-1.85,0,0,2.22,1.91,6.44,6.42.22-.39.71-.71.71-.71Zm-21.07-5.31c-.33-.12-2.28-.81-2.57-.81-.24,0-1.06.3-1.51.39-.46.09-.93.1-1.41.13-.31.34-.49,1.09-.44,1.62.01.14-.33.09-.45.08-.37-.03-.7-.09-1.05-.2-.23-.07-.47-.14-.63-.34-.34-.41.12-.65.45-.84.14-.08.25-.16.36-.26-.12,0-.24-.02-.35-.04-.77-.08-1.59-.6-2.3-1.02-.6-.18-.9-.12-1.68-.1-.46.02-.85.05-1.29,0,.64-.38,1.37-.76,2.11-.97.38-.11.77-.16,1.15-.25.37-.09.73-.21,1.11-.08.61.21,1.09.71,1.64,1.02.26.14.52.24.79.3.13-.45.45-.93.88-.82.32.08.44.44.37.73.69-.24,1.41-.44,2.13-.41.74.03,1.24.52,1.78.94.38.29.77.56,1.19.79.41.22.91.39,1.29.62-.55-.07-1.13-.31-1.58-.48Z"/>
    <path class="cls-1" d="m100.53,100.56c.14-.4.34-.76.64-1.06-.27.15-.51.33-.7.57.03-.11.08-.21.13-.31-.1.1-.19.21-.26.34-.03-.11-.06-.22-.08-.33-.04-.18-.06-.37-.08-.55-.01-.12-.02-.23-.02-.35,0-.12.01-.23.04-.35.02-.09,0-.18-.07-.25-.02-.02-.04-.04-.07-.07-.05-.04-.1-.09-.15-.13-.12-.1-.2-.23-.24-.38-.03-.11-.04-.23-.06-.35-.02-.21-.02-.42.03-.63.04-.2.1-.39.15-.58.1-.33.16-.66.2-1,0-.03,0-.07.01-.08.02-.02.05,0,.08.01.06,0,.12,0,.18-.03.02-.02.05-.03.07-.04.05-.01.09-.04.12-.08.01-.02.03-.03.05-.04.07-.04.12-.1.14-.19.01-.03,0-.08,0-.11,0-.04.03-.07.04-.11,0-.02.01-.05-.01-.07-.05.06-.08.12-.16.14.02-.03.04-.06.06-.09.02-.03.03-.07.03-.1,0-.04-.03-.07-.03-.1,0-.03-.02-.06-.06-.07,0,0,0,0,0,0,0,0,0,.01,0,.02.02.06,0,.12-.02.18-.07.11-.21.17-.33.15-.09-.02-.17-.06-.24-.12-.1-.08-.19-.17-.28-.26-.04-.05-.1-.08-.15-.12-.09-.05-.18-.11-.27-.16-.07-.04-.13-.07-.21-.1-.22-.07-.45-.12-.68-.14-.18-.01-.37-.02-.56-.01-.19,0-.39.01-.58.02-.18,0-.35.01-.53.02-.16,0-.31.01-.47.01-.2,0-.4,0-.61-.02-.24-.02-.48-.07-.71-.14-.14-.04-.27-.1-.41-.13-.03,0-.04-.02-.05-.04-.11-.16-.2-.33-.3-.51-.03-.05-.06-.11-.07-.16-.04-.1-.06-.21-.04-.32,0-.06.02-.11.02-.16,0-.02,0-.03.03-.03.05,0,.1.02.15.03.1.02.19.01.27-.04.1-.06.17-.14.22-.23.05-.09.09-.18.17-.24,0,0,.01-.01.02-.02.03-.04.03-.1-.01-.15-.03-.04-.07-.04-.12-.01-.01,0-.02.01-.03.02-.09.07-.2.09-.31.1-.11,0-.22.03-.31.09,0,0,0,0-.01,0,0,0,0-.02,0-.02.03-.09.08-.17.16-.25.11-.1.23-.17.37-.22.11-.04.22-.05.33-.08.31-.09.52-.28.63-.59.05-.15.07-.3.05-.46-.01-.15-.05-.3-.12-.43-.08-.16-.19-.28-.35-.36-.06-.03-.12-.05-.19-.04-.02,0-.05,0-.05.03,0,.03.03.03.05.04.11.04.2.11.27.2.13.16.21.35.22.56,0,.07-.01.15-.05.22-.03.06-.07.07-.12.02-.03-.03-.05-.07-.08-.1-.04-.08-.09-.16-.15-.23-.05-.06-.11-.11-.18-.15-.03-.01-.05-.02-.08-.02-.01,0-.03,0-.03.02,0,.01,0,.02.01.03.02.02.04.03.06.05.18.14.29.32.32.55.01.1-.01.18-.09.25-.06.06-.14.1-.22.13-.02,0-.03.02-.06.02,0-.04,0-.08,0-.12,0-.12-.02-.23-.08-.33-.01-.02-.02-.04-.05-.04,0,0,0,0,0,.01,0,.02,0,.04.01.06.05.15.03.29-.03.43-.01.03-.03.06-.07.07-.07.02-.13.05-.19.08-.14.06-.26.14-.35.25,0,0-.01.02-.02.02,0-.02,0-.04,0-.05,0-.08,0-.17-.05-.24-.02-.04-.04-.06-.08-.08-.01,0-.02-.01-.03-.01-.02,0-.03.02-.03.04,0,.01.01.02.02.03.03.04.04.08.05.12.02.16-.02.3-.11.43-.05.08-.12.13-.2.17-.02.01-.04.01-.07,0-.06-.01-.12-.02-.18-.03-.14,0-.27-.01-.41.01-.02,0-.04,0-.06-.02-.05-.03-.09-.08-.13-.12-.09-.09-.14-.21-.16-.34,0-.09-.01-.18,0-.27,0-.02,0-.04,0-.06-.04.03-.05.07-.06.11-.02.08-.03.17-.03.25,0,.03,0,.05,0,.09-.05-.04-.1-.07-.15-.1-.09-.05-.18-.11-.25-.19-.11-.12-.15-.26-.15-.42,0-.1.03-.2.08-.28.01-.02.03-.04.04-.06,0-.01.01-.02,0-.03-.01-.01-.02,0-.04,0-.02,0-.04.02-.06.04-.05.05-.09.11-.11.18-.04.08-.05.17-.05.26,0,.03,0,.06-.02.1-.02-.03-.03-.05-.04-.07-.05-.1-.08-.2-.1-.31-.02-.14.02-.26.13-.35.08-.07.17-.12.28-.14.02,0,.05,0,.04-.03,0-.02-.03-.02-.05-.02-.01,0-.02,0-.04,0-.07.01-.13.03-.19.06-.04.02-.08.04-.11.06,0,0,0-.01,0-.02.09-.18.22-.32.42-.39.02,0,.05-.01.07-.02.01,0,.02-.02.02-.03,0-.02-.01-.02-.02-.02-.04-.01-.09,0-.13,0-.31.08-.5.29-.6.58-.02.08-.04.16-.09.23,0,0,0,.01,0,.01-.05.13-.05.25.06.34.01.01.02.03.02.05.03.1.08.19.15.27.08.09.17.16.26.22.11.07.22.14.33.21.09.06.18.13.24.22,0,0,.02.02.01.04-.07-.07-.16-.09-.25-.09-.1,0-.2-.02-.29-.07-.02,0-.04-.02-.06-.02-.05,0-.09.01-.11.05-.02.05-.01.1.03.13.04.02.07.06.09.1.02.03.04.07.06.1.07.11.17.17.31.16.04,0,.08-.02.12-.03.05-.02.1-.02.15,0,.04.02.05.03.02.07,0,.01-.02.02-.02.04-.04.08-.06.16,0,.24.03.04.03.09.02.14,0,.03-.02.07-.02.11-.01.08-.01.16.03.22.01.02.02.04.03.06.01.02.01.04.01.06-.01.05-.01.1,0,.15,0,.09.04.16.11.21.04.02.05.06.06.09,0,.02,0,.04,0,.05-.01.19,0,.37.02.56.02.2.07.39.16.58.01.03.02.06.01.09,0,.09-.01.18-.01.28,0,.15.02.3.05.44.05.31.16.59.34.85.02.03.04.07.06.1.02.04.03.07.04.11,0,.03,0,.05-.02.08-.14.2-.26.42-.38.64-.04.06-.06.12-.08.19-.04.11-.05.22,0,.33.02.05.02.09.03.14.02.15.02.31.02.46,0,.2-.02.4-.04.6,0,.07-.01.14-.02.21-.01.12-.03.24-.02.37-.03-.03-.05-.07-.08-.1-.02-.03-.04-.07-.08-.1.01.04.03.08.05.12.02.04.03.07.05.11.01.04.03.07.03.12-.07-.09-.14-.18-.22-.26-.08-.08-.16-.16-.26-.22.23.38.4.78.51,1.21-.05-.07-.09-.13-.14-.19-.06-.06-.11-.12-.17-.18-.06-.05-.12-.1-.19-.15-.07-.04-.14-.08-.21-.11.17.15.32.32.43.52-.08-.05-.15-.12-.23-.16.13.18.25.36.34.57-.21-.21-.46-.35-.72-.48.1.09.19.17.28.27.09.1.17.19.24.3-.05-.02-.1-.05-.14-.08-.05-.03-.09-.06-.14-.08-.05-.03-.09-.06-.14-.08,0,.04.03.05.05.07.11.1.2.21.3.33.01.01.03.02.03.04,0,.04.02.04.05.04.04,0,.08,0,.12,0,.23,0,.46.01.7.02,1.24.04,6.02.18,7.07.21.07,0,.13,0,.2,0,.03,0,.04,0,.05-.04.02-.07.05-.13.07-.19.08-.17.17-.32.31-.45,0,0,.02-.02.02-.03-.07.03-.12.07-.18.11-.06.04-.12.08-.19.13.14-.34.34-.61.58-.86-.27.18-.5.41-.69.68Zm-5.62-.65s0,.05,0,.08c-.04-.08-.07-.15-.13-.22-.05-.07-.11-.12-.18-.18.11.17.2.36.23.56-.09-.16-.22-.29-.37-.4.16.18.22.39.24.62-.06-.08-.1-.18-.18-.25.02.05.04.09.06.14.02.05.04.1.04.15-.01,0-.02,0-.02-.01-.07-.12-.16-.22-.26-.32-.02-.02-.04-.05-.06-.08-.05-.07-.12-.13-.2-.16.13.15.19.33.21.53-.04-.07-.08-.13-.13-.2,0,0,0,0-.01,0,.05.15.09.31.1.48-.02-.01-.03-.03-.04-.05-.09-.15-.16-.31-.2-.48,0-.02-.01-.04-.02-.07,0-.01,0-.02-.02-.02-.02,0-.02.01-.02.03-.01.05-.01.1-.01.15,0,.07.01.14.03.21,0,.03,0,.06-.02.08-.12-.24-.26-.47-.5-.61.1.11.16.24.2.38-.01,0-.02,0-.02-.01-.06-.08-.11-.15-.18-.22-.02-.02-.02-.04-.02-.06.01-.14.04-.26.12-.37,0,0,0,0,0-.01,0,0,0,0,0,0-.1.11-.21.23-.28.36.04-.16.12-.31.22-.44-.08.05-.14.12-.2.19.05-.2.17-.34.31-.48-.12.07-.2.17-.32.24.12-.28.29-.54.52-.75-.12.07-.23.15-.33.25-.09.1-.18.2-.26.32-.02,0-.01-.02-.01-.03,0-.04,0-.07.02-.11.07-.25.12-.51.19-.76.02-.07.04-.13.06-.21,0-.03.02-.05.04-.07.04-.06.08-.13.1-.2.05-.12.13-.21.23-.28.18-.12.34-.24.5-.39.04-.03.08-.06.12-.09.07-.05.16-.06.24-.06.02,0,.03.01.04.03.03.11.06.21.06.33,0,.17-.02.34-.04.52-.03.23-.04.47,0,.7.03.12.06.23.09.34.04.17.07.34.07.51,0,.14,0,.28,0,.41Zm2.86-1.13c-.04.17-.11.33-.18.5-.15.37-.31.73-.48,1.09,0,.01-.01.02-.03.03.07-.28.17-.54.32-.78-.04.02-.18.2-.28.36-.08.13-.15.27-.21.41,0-.06.02-.11.03-.17.03-.2.03-.41,0-.62,0-.02-.01-.04-.02-.07,0,0,0-.01-.01-.01-.01,0-.02.01-.02.02,0,.01,0,.02,0,.03.02.2-.02.4-.09.59-.01.04-.03.07-.05.11,0-.03.01-.06.02-.09.02-.12.02-.23,0-.35,0-.02,0-.03-.01-.05,0-.01,0-.02-.02-.02-.02,0-.02.02-.02.03,0,.04,0,.07,0,.1,0,.09-.03.17-.06.25-.02.08-.05.15-.09.23,0,0,0,.02-.02.02,0-.04,0-.09,0-.13,0-.07,0-.14-.02-.21-.02-.06-.03-.12-.09-.15-.02-.02-.01-.04,0-.05.01-.06.01-.12.01-.19,0-.05,0-.1-.02-.15,0,0,0-.01,0-.02,0-.01,0-.02-.02-.02-.01,0-.02.02-.02.03,0,.04,0,.07-.01.11-.04.23-.11.45-.24.65-.01.01-.02.03-.04.04,0,0-.01.02-.02.01-.02,0-.01-.02,0-.03,0-.03,0-.06.01-.09.02-.1.04-.21.07-.32.02-.08.05-.17.11-.25-.04.02-.05.04-.07.06-.06.07-.12.14-.17.22-.07.1-.14.21-.2.33,0,.01,0,.02-.03.03.03-.19.1-.35.16-.53-.08.07-.14.16-.2.25.08-.26.21-.5.42-.7-.05.01-.27.22-.39.39-.12.15-.21.31-.29.47.02-.18.06-.34.12-.51t-.06.08s-.04.07-.06.1c-.02.03-.03.06-.05.09-.01.03-.03.06-.05.1,0-.02,0-.04,0-.06.02-.13.04-.26.07-.39.03-.16.06-.31.09-.48.02-.08.04-.16.07-.25.02-.08.04-.17.03-.26,0-.12-.01-.24,0-.36.01-.18.05-.36.12-.53.05-.13.11-.26.18-.38.01-.02.02-.04.05-.03.14.02.28.02.42.02.21,0,.42-.03.63-.08.03,0,.05,0,.07.02.02.02.03.04.04.07.02.04.03.08.04.12.07.29.22.54.43.75.06.06.12.12.16.19.05.08.09.16.08.26,0,.05-.01.1-.03.15Zm1.97,1.02c.04.11.08.21.1.33.01.07.02.14.03.21-.02-.04-.02-.07-.03-.11-.03-.14-.08-.27-.16-.39-.01-.01-.01-.03-.02-.05-.02-.08-.04-.16-.07-.24-.02-.06-.05-.12-.08-.17,0-.02-.01-.04-.03-.04,0,.03.01.05.02.08.04.12.08.24.09.36.02.22.02.43-.03.64-.01.05-.03.1-.05.14-.01.03-.03.06-.06.08-.02-.01-.01-.03-.01-.04,0-.09.02-.18.02-.27,0-.14,0-.29-.02-.43,0-.04-.02-.07-.03-.1,0,0,0-.02-.02-.02-.01,0-.01.01-.01.02,0,.04,0,.07,0,.11,0,.15-.03.3-.07.45-.01.05-.03.1-.05.15,0,.02-.02.04-.04.05,0-.06,0-.11,0-.16,0-.08.01-.16,0-.24,0,0,0-.02,0-.02,0,0,0-.02-.01-.02,0,0-.02,0-.02.02,0,.02-.02.04-.03.06-.02.04-.03.07-.05.11-.04-.21-.03-.41,0-.62-.03,0-.03.02-.03.03-.09.19-.17.39-.22.6,0,.02-.01.04-.02.06,0-.1,0-.19,0-.29,0-.09.03-.19.03-.28-.03.04-.05.09-.06.14-.02.05-.04.1-.05.15-.01.05-.03.1-.04.15-.01.05-.02.1-.03.16-.02-.03-.01-.05-.02-.07,0-.05-.01-.11-.03-.16,0-.03,0-.05.02-.07.08-.13.15-.25.21-.39.02-.05.04-.11.06-.16,0,0,0-.01,0-.02,0,0,0-.02-.01-.02,0,0-.01,0-.02.01,0,0-.01.02-.02.03-.13.22-.29.42-.49.59-.04.04-.08.07-.14.1.01-.03.03-.04.04-.06.08-.1.17-.2.24-.3,0-.01.01-.03.02-.04,0,0,0,0,0-.02-.11.1-.21.21-.32.31-.12.09-.24.19-.37.25.09-.16.18-.31.29-.44.11-.14.23-.26.36-.38,0,0,0,0,0,0-.11.08-.22.16-.33.24-.11.08-.21.17-.32.26.18-.27.4-.51.65-.73-.23.15-.45.31-.66.5,0-.03.02-.05.03-.06.17-.25.35-.5.52-.74.07-.09.13-.19.2-.28.02-.04.04-.07.06-.11.03-.06.04-.12.02-.18-.04-.14-.07-.28-.11-.41,0-.03-.01-.06-.02-.1.03.02.05.04.07.05.18.1.36.2.53.32.1.07.21.15.31.22.06.05.11.11.14.18.06.13.1.26.13.4.06.23.12.46.18.69,0,.02.02.04,0,.07-.03-.04-.05-.08-.08-.12-.02-.03-.03-.05-.05-.07,0,0-.02,0-.03,0,0,0,0,.01,0,.02,0,.02.01.05.02.08Z"/>
  </g>
  <g>
    <path class="cls-1" d="m28.73,63.95s-.09.06-.13.09c.6-.17,1.32-.26,1.7-.35,1.05-.25,2.2-.24,3.2-.68,1.12-.49,2.54-1.43,3.69-2.44-.03-.01-.06-.03-.08-.04-.98-.44-2.55-.7-1.27-1.86.55-.51,1.11-.67,1.52-1.35.14-.23.2-.54.24-.84-1.4.92-3.35,1.42-4.92,1.19-.75-.11-1.83-.44-1.18-1.35.5-.69,2.14-1.3,2.83-1.69.85-.49,2.52-1,3.61-1.86-.31-.12-.63-.3-.68-.46-.13-.38.24-.56.34-.89-.26.21-.54.39-.87.49-.67.22-.91-.07-1.39-.5-.08.05-.62.5-1.2.89.36.49.41.99-.31,1.39-.89.49-2.25-.08-3.41-.62-.51.14-1,.18-1.39-.01,0,1.84-2.94-.73-4.03-1.79.3,1.93,2.89,3.42,4.38,4.39.59.38,2.32.98,1.68,1.67-.65.69-2.22-.14-2.8-.56.09.12.15.28.23.4-.57.69-1.4.12-1.98-.17-.19.19-.39.38-.65.49,1.35.96,6.88,2.29,6.59,4.5-.32,2.44-6.9-1.01-8.12-2.05.06.47-.04.73-.23.86.56.55,1.09,1.01,1.87,1.45.84.47,2.32.81,2.77,1.72Z"/>
    <path class="cls-1" d="m28.96,52.44c.03.15.05.27.06.39.1-.09.19-.17.3-.26-.12-.05-.25-.1-.36-.13Z"/>
    <path class="cls-1" d="m28.01,67.31c.66.23,2.64.86,4.31,1.67.73-.12,1.45-.28,2.16-.59,1.02-.45,1.71-.92,2.24-1.77.24-.38.28-.8.29-1.2-.67.36-1.32.46-1.45-.21-.35.4-1.2,1.28-1.72,1.36-.95.15-.55-.92-.17-1.45-1.37.64-4.97.77-5.97-.6.08-.1.21-.18.35-.26-.74.06-1.69-.45-2.22-.79-.15.34-.48.46-.9.43,1.58,1.18,3.55,2.01,5.06,2.5-.39.61-1.27.84-1.99.92Z"/>
    <path class="cls-1" d="m40.06,38.65s0,.06,0,.09l.09-.05s-.06-.02-.09-.04Z"/>
    <path class="cls-1" d="m128.7,99.55s.02,0,.04,0c-.15-.02-.29-.05-.43-.09.06.03.1.06.15.09.08,0,.17,0,.24,0Z"/>
    <path class="cls-1" d="m153.4,67.62v.05l.05-.03s-.03-.01-.05-.02Z"/>
    <path class="cls-1" d="m139.85,100.54c3.69.52,7.67,1.17,11.32,1.82.19-.67.49-2.04.46-3.87-.01-.98.24-3.78.23-5.19,0-.94.05-1.47.1-2.03-.35.26-.84.29-1.12-.18-.62.18-1.04.74-1.63.98-.79.31-.82-.04-.83-.57-1,.36-1.91.75-3.04.68-.02-.46,1.17-.85,1.61-1.02-.75.32-3.05.18-3.67-.29.44-.38,1.53-.25,2.14-.33.94-.13,1.84-.28,2.77-.52.81-.21,1.59-.6,2.28-.98.08-.04.18-.11.28-.19-.37-.1-.74-.16-1.15-.29,0-.1,0-.19.03-.29-.17-.05-.32-.1-.47-.15-1.24.19-3.95.51-3.59-.34.48-.15,1.04-.19,1.58-.25-.77-.24-1.56-.53-2.16-.91.76.62-.37,1.32-1.11,1.25-1.02-.09-2.17-1.07-3.1-1.53-.66-.33-1.34-.66-1.94-1.05-.02.64-.04,1.34-.08,1.92-.1,1.46.37,4.46.4,7.95.01,2.51.34,4.26.66,5.38Z"/>
    <path class="cls-1" d="m35.44,81.25c-.31.09-.59.24-.86.41.91.28,1.92.59,2.8.97.03-.36.06-.7.08-1.04-.64.46-1.53.53-2.03-.34Z"/>
    <path class="cls-1" d="m37.77,44.98c-.4.38-.59,1.03-1.04,1.4-.48.38-1.17.67-1.72.52-1.47-.39.88-1.48,1.32-1.85.37-.32,1.16-1.1.83-1.68-.26-.45-.74-.17-1.05.07-.36.3-.6.92-.98,1.17-.56.36-.49-.24-.32-.75,0,0-.11.08-.11.08-.2-.02-.53.4-.68.51-.42.33-.83.47-1.33.51-.21.01-.74-.04-1.16-.2.11.16.18.33.2.51-1.38.31-2.78.17-4.14-.18.43.25.84.49,1.2.68.5.27,1.85.94,1.27,1.55-.47.5-1.93-.22-2.37-.41.21,1.47-1.87.02-2.36-.17-.16.18-.34.3-.54.36,2.34,1.67,5.81,3.03,6.94,3.53.11.05.24.11.38.18.53-.23,1.09-.44,1.5-.48-.31-.01-1.06.08-1.16-.32-.11-.46.59-.63.85-.73.79-.3,1.51-.45,2.28-.83.99-.49,1.81-1.11,2.57-1.92.11-.12.3-.39.5-.64-.46.04-.92-.27-.9-.91Z"/>
    <path class="cls-1" d="m26.59,75.1c-.83-.61-1.56-1.26-2.06-1.8-.42.9-1.35,1.03-2.3.81,2.26,1.56,4.66,3.09,7.36,4.02.76.26,1.57.49,2.35.76,1-.38,1.96-.86,2.84-1.35.15-.08.32-.21.51-.35-.66-.19-1.34-.29-2.09-.53-.03-.34.1-.64.21-.94-.27.04-1.05.17-2.01.29.4.4.76.83,1.03,1.32-1.16.2-2.63-.3-4.02-1.07-1.59.03-2.86-.18-2.51-1.02.22-.07.46-.1.69-.15Z"/>
    <path class="cls-1" d="m32.14,83.15c-.77.24-1.03.01-1.12-.45-.29-.13-.55-.27-.81-.42-.03.01-.06.02-.09.03.73.83-.71,1.71-1.69,1.61-.61-.06-1.25-.34-1.89-.7-.35.03-.71.04-1.09.01,0-.18.09-.35.25-.51-.57-.35-1.12-.71-1.62-.96-.2-.1-.39-.2-.59-.3-.78-.14-1.43-.35-1.79-.62.08-.07.19-.13.3-.19-.21-.12-.44-.24-.65-.37-.02.9-.05,1.89-.11,2.69-.14,2.05.52,6.26.55,11.17.02,3.65.52,6.16.98,7.73,4.55-.68,9.36-1.19,13.49-1.19.3-1.38.62-3.45.58-6-.02-1.77.43-6.86.42-9.42,0-.21,0-.38,0-.57-1.03-.27-2.08-.64-2.47-.74-.79-.21-1.76-.48-2.69-.81Z"/>
    <path class="cls-1" d="m34.25,69.91c-.09.01-.19.03-.28.04.61.46.99.95.91,1.43-.26,1.63-7.02-1.34-8.23-2.09.91,1.43-.75.94-1.47.52-1.02-.6-1.64-1.39-2.39-2.25-.2.39-.4.6-.6.68.94,2.78,5.43,2.82,7.07,5.27-.31.32-.88.36-1.4.25.62.25,1.24.56,1.83.92.49-.06.96-.14,1.39-.27-.72-.11-1.43-.36-1.02-1,1.64-.53,3.43-.34,5.09-1.11,1.03-.47,2.32-1.32,2.96-2.29-1.07,1.1-3.15,1.62-3.86-.11Z"/>
    <path class="cls-1" d="m164.15,104.8s-4.23-.86-9.87-1.88c0-.02-.96-1.61-.99-5.44-.02-2.73-.39-5.07-.31-6.21,0-.05,0-.1,0-.15.23.14.5.25.82.42.63.33,1.13.81,1.74,1.16.39.22,1.55.6,1.13-.17.58.27,3.62,1.26,3.81.55.21-.77-2.28-1.18-2.75-1.44.54,0,.96-.22.61-.68-.32-.42-1.3-.43-1.8-.6-.43-.15-.93-.34-1.42-.59.08-.06.11-.18.05-.34-.04-.11-.67-.33-.78-.41-.09-.06-.17-.12-.26-.19.17-.07.27-.3.23-.76.39.38.96.98,1.46,1.21.59.26,1.37-.2.88-.83.45.33,2.41,1.31,2.94.71.55-.63-1.31-1.26-1.7-1.41-.98-.37-2.19-.76-3.07-1.44.71.24,2.57.71,2.25-.04-.16-.37-1.55-.69-1.92-.91-.32-.2-.71-.46-1-.78.27-.06.26-.98.1-1.31.38.3.73,1,1.19,1.2.42.18,1.09-.03,1.07-.6.37.26,2.46.98,2.51.37.04-.55-1.72-1.13-2.1-1.29-.92-.38-1.68-.85-2.49-1.42-.16-.11-.3-.21-.42-.31.55.22,1.2.32,1.73.39,1.21.16.87-.34.07-.71-.45-.21-1.71-.56-2.14-1.1.49.02.54-.32.88-.37.23-.03.72.25.96.31.59.13,1.66.33,2.2-.01-.25-.68-2.09-.88-2.73-1.05.26.01.47-.07.5-.3-.53-.34-1.51-.29-2.13-.67.37.04.78-.14,1.07-.41.18.15.94.32,1.04.04.14-.39-.81-.64-1.02-.74-.49-.24-1.02-.59-1.2-1.1.08,0,.15,0,.2.03.21.07.38.24.57.36.32.21,1.27.77,1.12-.11.69.59,1.9,1.04,2.81.84.11-1.63-3.83-1.56-4.62-2.96.54-.22,1.31-.43,1.13-1.04-.1-.33-.62-.55-.83-.85-.15-.23-.25-.54-.26-.83.03.02.05.04.07.05.25.18,1.48.94,1.37.13.34.13.76.38,1.12.25-.02-.12-.05-.26-.11-.38.41-.01,1.19.2,1.43-.23-.16-.2-.59-.24-.84-.32-.29-.1-.58-.2-.87-.31-.24-.08-.59-.22-.95-.38.4.02.79-.16.26-.44-.34-.18-.74-.31-1.06-.53-.08-.06-.25-.26-.38-.46-.01-.21,0-.42.06-.61.1.04.19.07.25.1.21.1.61.41.83.42.33.01.34-.32.21-.51.5.18,1.02.22,1.57.2-.13-.4-1.24-.51-1.6-.62-.31-.1-.63-.23-.9-.42-.28-.21-.41-.31-.41-.61.18.1.41.18.55.16.02-.14-.04-.25-.14-.34.14.05,1.19.55,1.09.14-.08-.34-.89-.45-1.08-.77.17-.03.4,0,.52-.12-.14-.15-.6-.47-.87-.6.22-.2.39-.71.27-.93-.11-.2-.29-.34-.42-.52,0-.09,0-.18,0-.27.11.07.26.09.46.03.42-.12-.09-.59-.41-.97.01-.13.13-.2.15-.36.04-.2-.1-.28-.25-.33,0-.03,0-.06,0-.09.03-.1.09-.21.11-.28.02-.13-.05-.26-.14-.36,0-.19-.02-.38-.03-.56-.05.24-.09.58-.12.98-.08.09-.22.34-.24.53-.19.12-.43.2-.51.37.15.07.33.08.5.06-.01.09-.03.22-.03.27-.01.09-.03.16,0,.22-.18.11-.25.27-.18.58.05.26.2.44.2.67-.07.34-.31.58-.69.85-.27.19-1.38.56-1.35.87.31.04.47-.16.75-.17.26,0,.44.18.72.08.06-.02.13-.06.19-.09.02.09.04.19.02.29-.12.69-1.03,1.02-1.56,1.24-.2.08-1.36.54-.8.71.49.15,1-.26,1.37-.49-.09.43-.09.55.35.27.08-.05.31-.29.4-.29.14,0,.12.15.29.18.02,0,.04,0,.06,0-.03.6-.13.91-.57,1.38-.45.49-1.06.67-1.6.97-.38.21-.79.38-1.19.54-.19.07-.83.22-.9.5-.1.39.73.5.95.49.27-.02.5-.1.73-.28.08-.06.26-.3.37-.28,0,0,.05-.04.06-.04-.09.29-.13.61.18.42.21-.14.34-.48.54-.64.17-.13.43-.29.57-.04.18.32-.25.75-.46.93-.24.21-1.53.81-.73,1.02.3.08.68-.08.95-.29.25-.2.36-.56.57-.77,0,.35.25.52.5.5-.11.14-.21.29-.27.35-.42.45-.87.79-1.42,1.06-.42.21-.82.29-1.25.46-.14.06-.53.15-.47.4.05.23.47.17.64.18-.37.03-.99.32-1.33.51-.42.23-.95.62-1.3.94.53.4,1.52-.26,2.05-.36-.23.96,1.41-.43,1.52-.5.26.23.39.4.77.28.18-.06.34-.15.48-.27-.05.18-.26.28-.18.49.03.09.21.18.38.25-.6.48-1.52.75-1.99,1.03-.38.22-1.29.55-1.56.93-.36.51.24.69.65.75.86.12,1.94-.15,2.71-.66-.03.17-.06.34-.14.47-.22.37-.53.46-.84.74-.7.65.17.79.7,1.03.02,0,.03.01.05.02-.64.56-1.42,1.08-2.03,1.35-.55.24-1.19.23-1.76.37-.35.08-1.22.16-1.43.44.55.76,2.53.69,3.29.33-.21.29-.43.88.09.8.29-.04.76-.53.94-.75.07.37.43.32.8.12-.01.22-.03.45-.16.66-.29.47-.67.73-1.23.97-.85.38-1.77.34-2.62.62.58.61,1.77.32,2.5.23.39.95,1.53.67,2.12.06-.35.53-1.06,1-1.63,1.26-.5.23-1.02.31-1.53.37-1.03-.34-2.05-.6-2.53-.81,1.22.04,2.39-.2.81-1.01-.83-.43-1.82-.66-2.7-.96-1.93-.66-3.64-1.75-5.24-2.86.68.16,1.34.06,1.64-.57,1.12,1.22,3.87,3.17,5.62,2.87-.67-1.18-1.99-2.02-3.26-2.53.37.08.78.05,1-.18-1.17-1.75-4.37-1.77-5.04-3.75.15-.06.29-.21.43-.49.53.61.97,1.18,1.7,1.6.51.3,1.7.65,1.05-.37.86.53,5.68,2.65,5.86,1.49.21-1.29-4.01-2.6-4.89-2.9.51-.06,1.14-.22,1.42-.66-1.08-.35-2.48-.94-3.6-1.78.29.02.53-.07.64-.31.51.33,1.56.87,2.05.36-.31-.64-1.37-.89-1.97-1.23-.56-.31-.94-.64-1.33-1.03.14-.09.21-.28.16-.61.87.74,5.55,3.19,5.78,1.46.21-1.57-3.73-2.52-4.69-3.21.19-.08.33-.21.47-.35.41.21,1,.61,1.41.12-.06-.08-.1-.19-.16-.28.41.3,1.53.89,2,.4.45-.49-.78-.92-1.2-1.19-1.06-.69-2.91-1.75-3.12-3.12.85.83,3.28,2.94,2.82.84.84.25,2.53,1.4,3.47.88,1.27-.7-.77-1.86-1.48-2.18-.81-.36-3.28-1.33-4.95-2.52.13-.05.26-.13.38-.26.35.14,1.83,1.17,1.68.12.32.13,1.35.64,1.69.29.41-.44-.55-.91-.91-1.11-.26-.14-.55-.31-.85-.49.97.25,1.97.35,2.95.13-.15-1.13-2.76-1.59-3.7-1.83,1.92.29.29-.95-.56-1.29.43-.08.66-.27.31-.66,2.82.39.52-.78-.91-1.56,0-.08,0-.17-.01-.28-.04-.31-.14-.54-.3-.72.12-.06.24-.13.36-.22-.1-.13-.15-.3-.27-.43.64.12,1.35.42,2,.15-.2-.83-1.79-1.61-3.09-2.34.86-.15,1.01-.38,1.94,0,.89.36,2,.87,2.95.45-.26-.52-2.23-1.47-3.83-2.42.14.02.28.04.41.08.21-.37-.05-.74-.51-1.07.53,0,.69-.36,1.21-.22.44.12.84.25,1.3.14.11-.81-1.9-1.46-2.44-1.79-1.02-.64-1.8-1.65-1.57-2.9.46-.11.91-.54.84-.95-.08-.54-.52-.96-.78-1.42-.07-.12-.1-.25-.12-.37.34.25.75.46,1,.42.06-.57-.59-.99-.64-1.54.16-.03.3-.1.46-.15-.14-.27-.64-.82-.97-1.28-.05-.32.02-.78-.03-1.08-.07-.4-.03-.84-.12-1.23-.07-.31-.16-.25-.18.05-.02.27-.05.54-.07.82-.01.19-.04.38-.06.57-.17.19-.31.42-.43.66-.16.29-.24.53-.14.85.05.16.22.36.28.48-.11.25-.26.48-.48.7-.31.31-.75.58-.17.92.14.08.33.14.5.2-.23.13-.46.47-.57.6-.32.39-.33.86-.07,1.3.14.24.29.29.32.58,0,.06,0,.12-.02.19-.29.22-.56.46-.84.68-.39.3-1.45.68-1.5,1.15-.11.95,1.47.14,1.88.32-.11.29-.56.22-.68.51-.13.31.14.51.42.52.28,0,.74-.51,1.07-.62-.63.84-1.4,1.55-2.39,1.96-.72.3-1.54.43-2.17.9-.35.26-.99,1.22-.63,1.68.35.44,1.29-.25,1.77-.18-.09.78.33.78.88.29.29-.26.25-.23.66-.25.16-.01.31-.05.46-.09.16.45-.26,1.48-.59,1.79-.67.62-1.62.85-2.36,1.39.23.52.88.48,1.4.47-.64,1.29-4.93,1.78-4.79,3.42,2.13.79,3.88-.85,5.46-1.95-.1.66.25.67.66.5-.09.65.16,1.22-.82,2.03-.62.52-2.25,1.19-2.3,2.07.5.09,1.08.04,1.53-.11-.34.48-.84,1.11-.86,1.77.53.09,1.14-.08,1.73-.38-.55.53-1.14.98-1.87,1.44-.57.35-4.21,1.7-2.65,2.77.41.29,1.27.17,2.16-.12.01.21.07.39.2.5-.74.49-1.98.57-2.54,1.15.59.53,1.7.14,2.3-.17.58.52,1.35.42,2.06.15-.21.16-.42.32-.62.46-.94.68-2.41.69-3.15,1.32.29.25.64.37,1.02.46-1.38.86-4.26.34-5.46,1.67.34.31.82.4,1.28.34-1.15.46-2.19,1.71-.21,1.15,1.09-.31,2.28-.9,3.29-1.43-1.29,1.33-.89,1.59.74,1.21.94-.22,1.73-.57,2.56-.96-1.4.94-3.15,1.53-4.7,1.91-.74.18-3.14.69-1.09,1.05,1.41.24,2.26-.46,3.47-.95.22.95,1.34.33,1.76-.02.29.44,1.04.37,1.57.17,0,0,.01.01.02.02-.92.62-2.07.98-3.07,1.14-.43.07-1.92.07-2.07.58-.17.59.71.73,1.17.76-1.17-.04-2.67.31-3.78.53-.79.16-2.16.3-2.58,1.03,1.63,1.4,5.78.5,7.67-.06-.43.43-1.19.88-1.13,1.55,1.53.13,2.27-.35,3.38-.86-.44.48-1.83,1.42-2.29,1.59-1.12.44-2.66.23-3.63.85.62.92,2.75.75,3.69.52.48-.12,1.14-.64,1.63-.45.22.09.36.41.55.7-.85.39-1.84.63-2.43.77-.85.2-1.68.24-2.55.34-.7.08-2.08.11-1.44.96.4.53,1.38.82,2.47.97-.36.1-.69.18-1,.25-1.18.28-2.4.5-3.6.59-1.17.1-2.5-.14-3.59.33.68.87,3.3.95,4.29.65-1.12.56-.96,1.12.26,1.09,1.02-.03,1.89-.6,2.88-.66-.24.22-.46.7-.41,1.13,1.34.58,2.95-.5,4.01-1.22.99.62,2.26-.41,2.78-1.34.01-.02.02-.05.04-.08.03-.02.04-.04.06-.05.03,1.93-.19,2.44-.18,4.55,0,1.8-.32,5.39-.3,6.64.02,1.5-.13,2.74-.3,3.68-2.86-.35-5.4-.58-7.27-.59.04,0,.08,0,.12-.02-.07-.5-1.23-.71-1.64-.81.85.13.13-.42-.25-.58.19-.03.29-.12.14-.3,1.25.17.23-.34-.4-.69,0-.04,0-.08,0-.13-.02-.13-.07-.24-.13-.32.05-.03.11-.06.16-.1-.04-.06-.07-.14-.12-.19.29.05.6.18.89.06-.09-.37-.79-.71-1.37-1.04.38-.07.45-.17.86,0,.4.16.89.38,1.31.2-.12-.24-.99-.66-1.7-1.08.06,0,.12.02.19.03.09-.16-.03-.33-.23-.48.24,0,.3-.16.53-.09.2.06.37.11.58.06.04-.36-.85-.65-1.09-.79-.45-.28-.8-.73-.7-1.29.2-.05.4-.24.37-.42-.04-.24-.23-.43-.34-.63-.03-.06-.05-.11-.06-.17.15.11.34.21.45.19.03-.25-.26-.44-.28-.68.07-.01.13-.04.2-.07-.06-.12-.29-.37-.44-.57-.02-.14,0-.35-.01-.48-.03-.18-.01-.37-.05-.55-.03-.14-.07-.11-.08.02,0,.12-.02.24-.03.36,0,.08-.02.17-.03.25-.08.08-.13.19-.19.29-.07.13-.11.23-.06.38.02.07.09.15.12.21-.05.11-.12.21-.21.31-.14.14-.33.26-.08.41.06.04.15.06.22.09-.1.06-.2.21-.25.27-.14.17-.15.38-.03.58.06.11.13.13.14.26,0,.03,0,.06,0,.08-.13.1-.25.2-.37.3-.17.14-.64.3-.66.51-.05.42.65.06.83.14-.05.13-.25.1-.3.23-.06.14.06.23.19.23.12,0,.33-.22.47-.27-.28.37-.62.69-1.06.87-.32.13-.68.19-.96.4-.16.12-.44.54-.28.74.15.2.57-.11.79-.08-.04.34.14.35.39.13.13-.11.11-.1.29-.11.07,0,.14-.02.2-.04.07.2-.11.66-.26.8-.3.27-.72.37-1.05.61.1.23.39.21.62.21-.28.57-2.19.79-2.12,1.52.95.35,1.72-.38,2.42-.86-.05.29.11.3.29.22-.04.29.07.54-.36.9-.28.23-1,.53-1.02.92.22.04.48.02.68-.05-.03.04-.06.08-.09.12-9.17-.04-25.22-.55-35.89.35-.42-.22-.78-.45-.89-.71.32.02.73.07.88-.24-.44-.36-1.02-.53-1.41-.94-.2-.21-.42-.86-.3-1.13.09.04.18.06.28.08.25.03.22,0,.4.18.32.32.59.34.56-.15.3-.03.86.43,1.09.17.24-.27-.12-.89-.33-1.06-.37-.31-.88-.42-1.31-.63-.59-.29-1.05-.76-1.41-1.3.2.08.47.41.64.42.18,0,.35-.11.28-.31-.06-.18-.35-.15-.41-.34.26-.1,1.21.46,1.18-.13-.02-.29-.66-.56-.89-.76-.17-.15-.32-.31-.49-.45,0-.04-.01-.08,0-.12.04-.18.13-.2.22-.35.18-.26.18-.56,0-.81-.06-.09-.19-.31-.33-.39.11-.04.23-.06.32-.11.36-.19.1-.37-.08-.57-.13-.14-.21-.29-.27-.45.04-.07.15-.19.19-.28.08-.2.03-.35-.05-.53-.07-.15-.14-.3-.24-.42,0-.12-.02-.24-.02-.36,0-.17-.01-.34-.02-.5,0-.19-.06-.23-.11-.04-.07.24-.06.52-.12.76-.04.18-.01.47-.06.67-.22.27-.55.59-.65.76.09.04.18.09.28.11-.05.34-.47.57-.45.93.15.03.42-.09.64-.23-.02.07-.04.15-.09.22-.17.27-.46.52-.53.85-.05.25.21.54.49.61.1.78-.41,1.38-1.07,1.74-.35.19-1.61.52-1.57,1.02.28.08.53.02.81-.04.33-.07.41.16.74.18-.29.19-.47.41-.35.65.08-.02.17-.03.25-.03-1.02.53-2.27,1.05-2.45,1.37.57.29,1.27.02,1.84-.18.59-.2.67-.05,1.2.07-.83.41-1.84.83-1.99,1.34.39.19.84.03,1.24-.02-.08.07-.12.18-.18.26.07.06.14.11.21.15-.1.11-.17.24-.21.44-.01.06-.02.12-.02.17-.91.43-2.38,1.08-.62.93-.05.06-.08.1-.1.14-.49.07-.99.14-1.51.2-.72-.29-1.58-.46-2.02-.57,1.68.26.25-.83-.5-1.13.38-.07.58-.24.27-.58,2.47.34.46-.69-.8-1.37,0-.07,0-.15,0-.25-.03-.27-.12-.48-.26-.63.1-.05.21-.12.31-.19-.08-.11-.13-.27-.24-.38.56.11,1.19.36,1.75.13-.17-.72-1.57-1.41-2.71-2.05.75-.13.88-.33,1.7,0,.78.32,1.75.76,2.58.39-.23-.46-1.96-1.29-3.35-2.12.12.02.24.04.36.07.18-.32-.05-.65-.45-.94.47,0,.6-.31,1.06-.19.39.1.73.21,1.14.12.09-.71-1.67-1.28-2.14-1.57-.89-.56-1.58-1.45-1.38-2.54.4-.09.8-.47.74-.83-.07-.47-.46-.84-.68-1.24-.06-.11-.09-.22-.11-.32.3.22.66.4.88.38.05-.5-.52-.87-.56-1.35.14-.03.26-.08.4-.13-.13-.24-.57-.72-.85-1.12-.05-.28.02-.68-.03-.95-.07-.35-.03-.73-.1-1.08-.06-.27-.14-.21-.16.05-.02.23-.05.47-.06.71-.01.17-.04.33-.05.5-.15.16-.27.37-.38.58-.14.25-.21.46-.12.74.04.14.19.31.24.42-.1.21-.23.42-.42.61-.27.27-.66.51-.15.8.12.07.28.12.44.18-.2.11-.4.41-.5.53-.28.34-.29.75-.07,1.14.12.21.25.25.28.51,0,.05,0,.11-.02.16-.25.19-.49.4-.73.59-.34.27-1.27.6-1.31,1.01-.1.83,1.29.12,1.65.28-.1.25-.5.19-.6.45-.11.27.12.45.37.46.25,0,.65-.45.94-.54-.55.74-1.23,1.35-2.09,1.72-.62.27-1.35.38-1.89.79-.31.23-.87,1.07-.55,1.47.3.38,1.13-.22,1.55-.15-.08.68.29.68.77.25.26-.23.22-.2.58-.22.14,0,.27-.04.4-.08.13.4-.23,1.3-.52,1.57-.59.54-1.42.74-2.07,1.21.2.46.77.42,1.23.41-.56,1.13-4.32,1.56-4.19,2.99,1.86.69,3.4-.75,4.78-1.71-.09.58.23.58.58.43-.08.58.14,1.07-.72,1.78-.54.45-1.93,1.04-2,1.79-10.51.77-22.5.83-30.28-.61-.29-.06-.59-.1-.9-.14-.49-1.55-1.06-4.19-1.08-8.11-.02-3-.27-5.73-.44-7.89.28-.07.42-.23.31-.55-.07-.22-.21-.42-.4-.61-.06-.89-.08-1.65-.05-2.23,0-.08.01-.18.02-.27.41.26.9.45,1.49.76,1.14.6,2.06,1.46,3.15,2.09.7.41,2.82,1.09,2.05-.31,1.05.5,6.57,2.29,6.92,1,.38-1.4-4.14-2.14-4.99-2.61.98-.02,1.75-.41,1.11-1.24-.59-.77-2.36-.78-3.27-1.09-.78-.27-1.7-.62-2.58-1.07.15-.12.2-.32.09-.62-.07-.21-1.22-.61-1.43-.75-.17-.11-.32-.22-.46-.34.31-.13.49-.54.41-1.38.72.68,1.75,1.78,2.66,2.19,1.07.48,2.49-.37,1.58-1.5.82.6,4.38,2.39,5.34,1.28.99-1.14-2.38-2.3-3.08-2.56-1.78-.68-3.98-1.38-5.57-2.61,1.29.44,4.67,1.29,4.08-.09-.28-.65-2.82-1.24-3.48-1.66-.58-.36-1.29-.83-1.81-1.42.49-.11.48-1.79.19-2.39.69.55,1.33,1.82,2.16,2.17.76.32,1.98-.05,1.93-1.09.67.47,4.47,1.78,4.56.67.07-1-3.13-2.06-3.82-2.34-1.68-.7-3.05-1.54-4.52-2.57-.29-.21-.54-.39-.77-.55,1,.39,2.18.58,3.14.71,2.2.28,1.59-.62.13-1.29-.82-.37-3.1-1.01-3.89-2,.9.03.99-.58,1.6-.67.43-.06,1.32.46,1.76.56,1.07.24,3.01.6,3.99-.02-.46-1.23-3.79-1.59-4.96-1.91.47.03.85-.12.9-.54-.97-.62-2.74-.53-3.86-1.22.67.07,1.41-.26,1.94-.75.33.27,1.71.59,1.89.07.25-.71-1.47-1.16-1.85-1.35-.9-.44-1.86-1.07-2.19-1.99.15,0,.27.01.36.04.39.14.69.43,1.03.65.57.38,2.31,1.39,2.03-.19,1.25,1.07,3.44,1.88,5.1,1.52.2-2.96-6.96-2.83-8.39-5.37.98-.41,2.37-.78,2.05-1.88-.17-.61-1.13-1-1.5-1.54-.28-.41-.45-.98-.47-1.51.05.04.09.07.13.09.45.34,2.68,1.7,2.48.25.61.22,1.38.69,2.03.45-.05-.21-.09-.48-.2-.69.74-.03,2.16.35,2.6-.41-.28-.37-1.08-.43-1.52-.59-.53-.18-1.05-.37-1.58-.56-.43-.16-1.07-.4-1.73-.7.73.05,1.43-.29.48-.8-.61-.33-1.34-.56-1.92-.96-.14-.1-.44-.47-.68-.84-.02-.38,0-.75.1-1.1.18.07.36.13.46.18.39.18,1.12.75,1.51.77.6.02.62-.58.39-.93.91.32,1.85.4,2.85.36-.24-.73-2.24-.92-2.9-1.13-.56-.17-1.14-.41-1.63-.77-.52-.39-.74-.56-.74-1.1.33.19.74.33.99.29.05-.25-.06-.46-.26-.61.26.1,2.16.99,1.99.25-.15-.62-1.62-.82-1.96-1.4.3-.04.73-.02.95-.22-.25-.27-1.09-.86-1.59-1.09.4-.36.71-1.28.48-1.68-.2-.36-.52-.62-.76-.94,0-.16,0-.33,0-.48.2.13.47.17.85.06.75-.23-.17-1.07-.75-1.77.02-.24.23-.37.28-.64.07-.37-.17-.51-.45-.6,0-.05,0-.11,0-.17.05-.17.17-.38.19-.51.03-.24-.09-.48-.25-.66-.02-.34-.04-.68-.06-1.01-.09.43-.16,1.05-.22,1.78-.14.16-.4.62-.44.97-.35.22-.77.36-.93.67.27.13.61.15.91.11-.02.16-.04.4-.06.5-.02.17-.05.29,0,.4-.32.19-.45.48-.33,1.06.1.48.37.79.36,1.22-.13.63-.56,1.05-1.24,1.55-.48.35-2.51,1.02-2.45,1.59.56.06.84-.3,1.35-.31.47,0,.79.32,1.29.14.12-.04.24-.1.34-.17.03.17.07.35.04.53-.21,1.24-1.88,1.86-2.84,2.25-.36.15-2.48.98-1.45,1.28.89.26,1.81-.47,2.49-.89-.17.78-.17,1.01.64.5.15-.09.56-.53.73-.53.25,0,.21.28.52.34.04,0,.08,0,.11,0-.06,1.08-.24,1.65-1.03,2.51-.82.89-1.92,1.22-2.9,1.76-.69.38-1.43.69-2.16.97-.34.13-1.5.41-1.62.9-.01.05,0,.09,0,.14-1.19-.85-3.46-1.27-4.43-1.51,2.69.4.4-1.33-.79-1.82.6-.11.93-.38.43-.93,3.96.54.73-1.1-1.27-2.19,0-.11,0-.25-.02-.4-.05-.44-.2-.76-.41-1.01.17-.09.33-.19.5-.31-.14-.17-.21-.43-.38-.6.9.17,1.9.59,2.8.2-.28-1.16-2.51-2.26-4.34-3.28,1.2-.21,1.42-.53,2.72,0,1.25.51,2.81,1.22,4.14.63-.36-.74-3.13-2.07-5.37-3.4.19.02.39.06.57.11.3-.52-.08-1.04-.71-1.5.75,0,.96-.5,1.7-.3.62.17,1.18.34,1.82.19.15-1.13-2.68-2.04-3.43-2.51-1.43-.9-2.53-2.32-2.2-4.07.64-.15,1.28-.76,1.18-1.34-.12-.76-.73-1.34-1.09-1.99-.1-.17-.15-.35-.17-.52.48.34,1.06.64,1.41.6.09-.8-.83-1.39-.9-2.17.22-.04.42-.13.64-.22-.2-.38-.91-1.15-1.37-1.8-.08-.45.03-1.1-.04-1.52-.1-.56-.04-1.18-.16-1.74-.1-.44-.22-.34-.26.08-.03.38-.08.76-.1,1.15-.02.26-.06.53-.08.8-.24.26-.43.6-.61.93-.22.4-.34.74-.18,1.19.07.22.3.5.39.67-.16.35-.36.68-.67.98-.43.44-1.05.81-.25,1.29.19.11.46.19.71.29-.32.18-.65.65-.8.84-.45.55-.47,1.21-.1,1.83.19.33.4.41.45.81.01.08,0,.17-.03.27-.4.3-.78.64-1.17.95-.54.43-2.03.96-2.11,1.61-.15,1.34,2.07.2,2.64.45-.15.41-.79.31-.96.72-.18.44.19.72.59.73.4.01,1.04-.72,1.5-.87-.89,1.18-1.97,2.17-3.35,2.76-1,.43-2.15.61-3.04,1.26-.49.36-1.39,1.71-.87,2.35.49.61,1.81-.35,2.48-.25-.13,1.09.47,1.09,1.24.41.41-.37.35-.32.92-.35.22-.01.43-.07.64-.13.22.64-.36,2.08-.83,2.52-.94.87-2.28,1.19-3.31,1.95.31.73,1.23.67,1.97.66-.9,1.81-6.92,2.49-6.71,4.79,2.99,1.11,5.45-1.19,7.66-2.73-.14.92.36.93.92.69-.12.92.22,1.71-1.15,2.85-.88.73-3.16,1.68-3.22,2.9.7.12,1.51.05,2.15-.15-.48.67-1.18,1.56-1.21,2.48.74.12,1.6-.11,2.42-.53-.77.75-1.6,1.38-2.62,2.02-.8.49-5.91,2.39-3.72,3.89.58.4,1.79.23,3.03-.17.02.3.1.55.28.7-1.05.68-2.79.8-3.58,1.62.83.73,2.38.2,3.23-.24.81.73,1.9.6,2.89.21-.29.23-.59.44-.87.65-1.32.96-3.38.97-4.42,1.86.4.35.9.52,1.43.64-1.94,1.21-5.98.47-7.66,2.34.48.43,1.16.56,1.8.48-1.62.66-3.08,2.41-.3,1.61,1.54-.44,3.2-1.26,4.62-2.01-1.81,1.87-1.24,2.23,1.04,1.7,1.31-.31,2.43-.8,3.59-1.35-1.97,1.31-4.43,2.14-6.6,2.68-1.04.26-4.41.97-1.53,1.47,1.98.34,3.18-.65,4.87-1.34.3,1.33,1.89.46,2.48-.03.4.61,1.46.52,2.21.24,0,0,.01.02.02.03-1.29.86-2.9,1.37-4.31,1.59-.61.1-2.7.1-2.9.81-.23.83,1,1.03,1.64,1.06-1.64-.05-3.76.44-5.31.75-1.1.22-3.03.42-3.63,1.45,2.29,1.97,8.11.71,10.77-.08-.61.61-1.67,1.24-1.58,2.18,2.15.18,3.19-.5,4.75-1.21-.62.67-2.57,1.99-3.22,2.24-1.58.62-3.73.32-5.09,1.19.86,1.3,3.86,1.06,5.18.72.67-.17,1.6-.9,2.29-.63.31.12.5.57.77.98-1.2.54-2.58.88-3.42,1.07-1.2.28-2.36.33-3.58.48-.98.12-2.92.15-2.02,1.35.56.74,1.94,1.15,3.48,1.36-.5.13-.98.25-1.4.35-1.65.4-3.36.7-5.06.84-1.64.14-3.51-.2-5.03.46.95,1.22,4.63,1.33,6.02.92-1.57.78-1.35,1.57.36,1.52,1.43-.04,2.66-.85,4.05-.93-.34.31-.65.98-.58,1.58,1.89.81,4.15-.69,5.63-1.7,1.39.87,3.17-.58,3.9-1.88.02-.04.03-.07.06-.11.04-.03.06-.05.09-.08.05,2.72-.27,3.43-.26,6.39,0,2.53-.45,7.57-.42,9.32.04,3.04-.42,5.4-.76,6.69-6.84,1.22-12.17,2.55-12.17,2.55l25.4-.07c3.93-.84,10.84-1.5,17.07,1.84,4.39-.14,16.97-.43,32.61.26,19.53.86,14.98,1.87,23.91.61,7-.98,17.17-1.52,27.59-.78-2.14-.77-4.38-1.53-6.51-2.19l38.17-.1Zm-10.76-37.18s.03.02.05.02l-.05.03v-.05Zm-14.6,19.58c.04-.57.06-1.27.08-1.92.6.39,1.28.72,1.94,1.05.92.46,2.08,1.43,3.1,1.53.74.07,1.87-.63,1.11-1.25.6.38,1.4.67,2.16.91-.54.05-1.1.1-1.58.25-.36.86,2.34.53,3.59.34.15.05.3.1.47.15-.03.09-.04.18-.03.29.41.13.79.19,1.15.29-.1.08-.2.15-.28.19-.7.39-1.48.77-2.28.98-.93.24-1.83.39-2.77.52-.61.08-1.71-.05-2.14.33.62.47,2.92.61,3.67.29-.44.18-1.63.56-1.61,1.02,1.13.07,2.03-.32,3.04-.68.01.53.04.88.83.57.6-.24,1.01-.8,1.63-.98.28.48.77.44,1.12.18-.04.56-.1,1.09-.1,2.03,0,1.41-.25,4.21-.23,5.19.02,1.83-.28,3.2-.46,3.87-3.65-.64-7.63-1.3-11.32-1.82-.32-1.12-.65-2.87-.66-5.38-.02-3.5-.5-6.49-.4-7.95Zm-10.05,12.34s-.02,0-.04,0c-.08,0-.16,0-.24,0-.05-.03-.1-.06-.15-.09.14.04.28.06.43.09ZM40.06,38.65s.06.02.09.04l-.09.05s0-.06,0-.09Zm-15.74,21.27c1.22,1.04,7.8,4.49,8.12,2.05.29-2.21-5.24-3.53-6.59-4.5.27-.11.46-.3.65-.49.58.29,1.41.85,1.98.17-.08-.12-.14-.28-.23-.4.58.41,2.15,1.25,2.8.56.64-.69-1.09-1.29-1.68-1.67-1.49-.97-4.08-2.45-4.38-4.39,1.09,1.06,4.04,3.63,4.03,1.79.39.19.88.16,1.39.01,1.16.53,2.52,1.11,3.41.62.72-.4.68-.9.31-1.39.58-.39,1.12-.84,1.2-.89.48.43.71.72,1.39.5.32-.11.61-.28.87-.49-.1.32-.47.5-.34.89.05.16.37.34.68.46-1.09.87-2.76,1.37-3.61,1.86-.69.4-2.34,1-2.83,1.69-.65.92.43,1.24,1.18,1.35,1.57.23,3.51-.28,4.92-1.19-.05.3-.11.62-.24.84-.41.68-.97.84-1.52,1.35-1.27,1.17.3,1.43,1.27,1.86.03.01.06.03.08.04-1.15,1.02-2.57,1.96-3.69,2.44-1,.43-2.15.43-3.2.68-.38.09-1.1.19-1.7.35.05-.03.1-.05.13-.09-.44-.91-1.93-1.25-2.77-1.72-.78-.44-1.31-.9-1.87-1.45.19-.13.29-.39.23-.86Zm4.64-7.48c.11.03.23.08.36.13-.11.09-.2.17-.3.26-.01-.12-.03-.24-.06-.39Zm-4.02,11.44c.42.03.75-.09.9-.43.53.34,1.48.85,2.22.79-.15.07-.28.16-.35.26,1,1.38,4.6,1.24,5.97.6-.38.53-.78,1.6.17,1.45.52-.08,1.37-.96,1.72-1.36.12.68.78.57,1.45.21-.02.41-.06.83-.29,1.2-.53.85-1.22,1.32-2.24,1.77-.71.31-1.43.46-2.16.59-1.67-.81-3.65-1.44-4.31-1.67.72-.08,1.6-.31,1.99-.92-1.51-.49-3.48-1.32-5.06-2.5Zm12.35,21.4c0,2.56-.45,7.65-.42,9.42.03,2.55-.28,4.62-.58,6-4.13,0-8.94.51-13.49,1.19-.46-1.57-.96-4.08-.98-7.73-.03-4.91-.69-9.12-.55-11.17.05-.8.09-1.79.11-2.69.21.13.43.25.65.37-.11.06-.21.11-.3.19.36.27,1.01.48,1.79.62.2.1.4.2.59.3.5.25,1.05.61,1.62.96-.16.16-.26.33-.25.51.38.03.74.01,1.09-.01.64.35,1.28.64,1.89.7.98.09,2.42-.78,1.69-1.61.03-.01.06-.02.09-.03.26.15.52.29.81.42.09.46.35.68,1.12.45.93.34,1.89.6,2.69.81.39.1,1.44.47,2.47.74,0,.19,0,.36,0,.57Zm-8.88-9.01c1.39.77,2.86,1.27,4.02,1.07-.27-.48-.63-.92-1.03-1.32.96-.13,1.74-.25,2.01-.29-.11.3-.24.59-.21.94.76.24,1.43.34,2.09.53-.19.15-.36.27-.51.35-.88.49-1.84.97-2.84,1.35-.78-.27-1.59-.5-2.35-.76-2.7-.93-5.11-2.46-7.36-4.02.95.22,1.88.09,2.3-.81.5.54,1.22,1.18,2.06,1.8-.23.05-.47.08-.69.15-.35.84.92,1.05,2.51,1.02Zm8.98,6.36c-.89-.37-1.89-.69-2.8-.97.27-.17.55-.31.86-.41.5.87,1.39.8,2.03.34-.03.34-.05.68-.08,1.04Zm-2.24-10.31c-1.66.77-3.45.58-5.09,1.11-.4.65.3.9,1.02,1-.43.13-.9.21-1.39.27-.6-.36-1.22-.67-1.83-.92.51.12,1.09.07,1.4-.25-1.64-2.45-6.13-2.49-7.07-5.27.2-.08.41-.29.6-.68.74.86,1.36,1.65,2.39,2.25.72.42,2.38.91,1.47-.52,1.21.75,7.97,3.72,8.23,2.09.08-.48-.3-.97-.91-1.43.1-.02.19-.03.28-.04.71,1.73,2.79,1.21,3.86.11-.64.97-1.93,1.81-2.96,2.29Zm3.03-25.78c-.76.81-1.58,1.43-2.57,1.92-.77.38-1.49.53-2.28.83-.26.1-.96.28-.85.73.1.41.85.31,1.16.32-.41.04-.97.25-1.5.48-.14-.07-.27-.14-.38-.18-1.13-.5-4.6-1.87-6.94-3.53.19-.07.37-.19.54-.36.49.19,2.56,1.64,2.36.17.44.19,1.9.91,2.37.41.58-.61-.77-1.29-1.27-1.55-.36-.2-.77-.43-1.2-.68,1.35.35,2.76.5,4.14.18-.03-.18-.1-.35-.2-.51.42.16.95.22,1.16.2.5-.04.91-.18,1.33-.51.15-.11.47-.54.68-.51,0,0,.1-.07.11-.08-.16.51-.23,1.11.32.75.39-.25.62-.87.98-1.17.3-.24.79-.52,1.05-.07.33.58-.46,1.37-.83,1.68-.44.37-2.79,1.46-1.32,1.85.55.14,1.24-.14,1.72-.52.45-.36.65-1.02,1.04-1.4-.01.64.45.95.9.91-.2.26-.39.53-.5.64Z"/>
  </g>
</svg>